<svg xmlns="http://www.w3.org/2000/svg" width="864" height="874" fill="none" viewBox="0 0 864 874"><path fill="#054449" d="M76 431.82h711.64V874H76z"/><path fill="#054449" d="M857.83 435.27H5.81a5.77 5.77 0 0 1-4.1-9.86L427.06 1.96a6.8 6.8 0 0 1 9.56 0l425.3 423.45a5.77 5.77 0 0 1-4.09 9.86"/><path fill="#116e6b" d="M704.73 490.54c0-3.81-3.1-6.9-6.91-6.9H483.64a6.9 6.9 0 0 0-6.91 6.9V570c0 3.81 3.1 6.9 6.9 6.9h214.19c3.81 0 6.9-3.09 6.9-6.9zM386.9 490.54a6.9 6.9 0 0 0-6.9-6.9H165.82a6.9 6.9 0 0 0-6.91 6.9V570c0 3.81 3.1 6.9 6.9 6.9H380c3.82 0 6.9-3.09 6.9-6.9zM525.08 272.86a4.94 4.94 0 0 1-4.9 5.27H343.46a4.94 4.94 0 0 1-4.9-5.27 93.3 93.3 0 0 1 93.21-88.08h.14a93.27 93.27 0 0 1 93.18 88.08"/></svg>