<svg xmlns="http://www.w3.org/2000/svg" width="990" height="875" fill="none" viewBox="0 0 990 875"><path fill="#054449" d="M75.97 431.66h711.39V873.7H75.97z"/><path fill="#054449" d="M857.53 435.12H5.81a5.77 5.77 0 0 1-4.1-9.86l425.2-423.3a6.8 6.8 0 0 1 9.55 0l425.16 423.3a5.77 5.77 0 0 1-4.09 9.86"/><path fill="#116e6b" d="M704.48 490.37a6.9 6.9 0 0 0-6.91-6.9h-214.1a6.9 6.9 0 0 0-6.91 6.9v79.42a6.9 6.9 0 0 0 6.9 6.91h214.11a6.9 6.9 0 0 0 6.9-6.9zM386.77 490.37a6.9 6.9 0 0 0-6.9-6.9H165.76a6.9 6.9 0 0 0-6.9 6.9v79.42a6.9 6.9 0 0 0 6.9 6.91h214.1a6.9 6.9 0 0 0 6.91-6.9zM524.9 272.92a4.94 4.94 0 0 1-4.9 5.26H343.32a4.94 4.94 0 0 1-4.89-5.26 93.27 93.27 0 0 1 93.18-88.05h.14a93.24 93.24 0 0 1 93.14 88.05"/><path fill="#9ecced" d="M936.97 654.6c3.41 6.28 5.97 11.04 8.54 15.8 9.05 17.65 18.6 34.96 27.14 52.79 7.35 15.1 13.49 30.9 15.88 47.7a78 78 0 0 1-.51 26.65c-2.4 12.4-9.57 21.22-20.31 27.16-17.58 9.85-35.35 10.02-52.93-.17-6.65-3.73-13.14-7.8-17.75-14.09a44.3 44.3 0 0 1-8.88-24.79c-.68-15.45 3.24-30.04 7.35-44.81 2.56-9.18 6.82-17.67 10.93-26.31 8.37-17.32 17.24-34.46 25.78-51.78 1.36-2.2 2.72-4.4 4.77-8.15z"/><path fill="#054449" d="M952.2 650.95c-.57-9.2-2.56-30.18-9.73-40.24s-26.81-14.15-31.94-15.17c-5.12-1.03-10.93-1.2-12.3-7-1.36-5.8-1.23-16.64-1.2-19.1.04-3.98 5.03-2.63 5.56-3.82.4-.92 1.83-14.38-1.07-14.5-7.46-.3-16.42.37-16.42-.66 0-1.02-.52-17.16 0-18.52.5-1.36 2.55-2.95 6.66-3.02 8.34-.15 18.32 1.6 22.54.93 4.68-.73 7.69-2.46 7.69-8.6 0-6.57-5.64-9.38-12.98-8.36s-10.42 2.8-16.05 2.63c-4.77-.13-6.49-2.2-8.72-3.33-1.91-.98-8.05-2.84-14.5 1.07-4.53 2.74-9.1 2.43-10.15 2.37-.9-.05-5.3-.12-10.18-1.48-6.81-1.9-17.08-2.24-17.08 8.06s9.66 9.34 14.96 7.88a41 41 0 0 1 14.77-1.48c3.95.4 6.87 1.19 7.08 3.28.25 2.5.67 18.2-.12 18.76-.8.57-15.22 0-16.8 1.46-1.57 1.45-.6 12.44.14 12.85.93.52 5.49-.21 5.27 2.62-.1 1.24.03 18.94-1.21 20.85a10.1 10.1 0 0 1-8.9 4.16c-4.5-.23-5.5.22-6.07-.9s.11-2.13-4.4-1.8c-4.5.33-58.88 2.36-61.13 4.16s-.68 36.07.1 37.2c.8 1.13 15.77 2.25 26.02 2.36s34.25-.3 37.49-.56c5.38-.44 3.33-4.72 9.8-4.38 4.15.21 17.44 3.59 27.47 3.37 10.02-.23 20.82-2.93 25.56-4.84s10.47-.22 12.04.9 5.18 2.03 6.42 10c1.24 7.99 1.35 16.53 2.59 17.2 1.24.68 9.57 2.7 19.59.68s9.36-3 9.23-5.04z"/><path fill="#f8de9c" d="M476.21 728.48c.74-1.49 1.99-4.81 4.01-4.11l45.25 18.5c5.76.82 11.65.78 17.69-.7 13.25-3.3 26.65-5.95 40.02-8.65 6.12-1.21 9.9-4.26 12-10.36 4.68-12.95 10.37-26.44 20.66-35.94 2.53-1.8 13.87-10.76 16.71-11.66-6.93-8.6 3.59-15.52 14.81-14.78 6.78.94 11.96 3.56 14.18 7.35 2.07 3.8.86 7.04.16 11.93-.23 1.3.12 1.84 1.05 2.78 2.07 1.95 3.78 3.24 5.5 4.89.04.03.08.11 0 .2l-.35.93c0 .08-.12.12-.16.12-2.73.2-5.34.23-8.07.39-1.83.12-2.33.7-1.94 2.74 1.52 6.3-.82 14.74-8.93 13.49 9.12 28 8.93 48.73-3.5 78.25-11.42 19.83-25.96 46.9-52.46 57.96-2.6.82-3.47 1.72-3.66 3.56 0 0 8.07 20.22 9.82 21.39s4.56 1.33 8.26 1.88c4.29.62 2.7.31 6.59 1.21 2.26.55 3.04 2.35 3 3.01-.04.67 0 1.25-.94 1.25h-35.3c-1.64-.08-1.91-.7-1.99-2.1-.04-.87-.27-2.47 1.99-2.63l7.56-.98-9.35-23.5c-2.81-.63-15.71-1.96-16.22-1.92-5.26.36-7.32 13.06-7.79 15.49-.55 2.97-1.36 7.47-.97 7.98.58.78 2.22 1.56 4.44 1.91 0 0 5.61.94 8.07 1.45 2.06.43 3.5 2 3.5 3.13 0 .82-.2 1.21-1.87 1.21H534.4c-1.13 0-1.52-1.21-1.52-2.19 0-1.1.16-2 1.05-2.3 2.73-1.02 7.17-1.06 10.76-1.6l3.97-32.39c-3.12-3.17-10.99-7.98-18.27-13.26-18.55-12.98-33.48-33.55-43.06-50.33-6.24-11.89-17.77-28.78-11.15-43.57z"/></svg>