<svg xmlns="http://www.w3.org/2000/svg" width="670" height="800" fill="none" viewBox="0 0 670 800"><path fill="#f9c4aa" d="M45.07 398.54a39.86 39.86 0 0 1 42.22-31.4 258 258 0 0 1 91.13 24.82 258 258 0 0 1 99.84 84.72 258.5 258.5 0 0 1 37.6 216.95 39.85 39.85 0 0 1-43.93 28.9l7.89 25.41c.5 1.59-.97 3.1-2.58 2.66l-36.17-9.78a2.1 2.1 0 0 1-.85-3.6l20.07-18.2a39.55 39.55 0 0 1-21.04-46.15c22.97-83.7-17.18-171.76-95.46-209.4a180 180 0 0 0-63.26-17.25 39.55 39.55 0 0 1-36.14-35.55l-23.96 12.64a2.1 2.1 0 0 1-3.09-2.03l3.17-37.33a2.12 2.12 0 0 1 3.38-1.51z"/><path fill="#68b096" d="M288.98 430.14c-69.16 15.53-137.73-35.51-142.6-106.17 68.64-13.78 135.54 35.48 142.5 105.15q.06.51.1 1.02"/><path fill="#68b096" d="M329.19 426.22c-24.93 66.35-105.22 95.7-166.98 61.04 26.12-64.96 103.99-93.9 166.07-61.51q.45.22.9.47"/><path fill="#b4cea0" d="M386.23 415.09c-19.36-68.19 27.79-139.5 98.07-148.3 17.57 67.78-27.88 137.3-97.06 148.14z"/><path fill="#b4cea0" d="M371.8 429.7c-53.54-46.44-53.16-131.93.82-177.79 51.82 47.08 51.88 130.15-.06 177.1z"/><path fill="#b4cea0" d="M353.1 448.12c24.28-66.58 104.28-96.71 166.38-62.64-25.5 65.2-103.09 94.89-165.48 63.1z"/><path fill="#f9cc76" d="M220.62 114.91c.37 13.47 6.98 24.1 7.58 24.82 4.71 5.82 11.8 9.25 18.22 13.22 16.46 10.17 53.96 21.41 59.74 23.08 1.8.52 3.28.4 3.78.38l106.09-4.66c.93-.04 2.24-.14 2.73-1.15.21-.47 3.83-35.61 4.3-40.27a.47.47 0 0 0-.48-.5c-3.97.16-8.03.08-11.71-1.39-3.85-1.51-7.23-4.84-7.74-8.94-.53-4.23 2.14-8.42 5.79-10.6 3.4-2.06 7.5-2.62 11.5-2.48.45 0 .83-.35.85-.8l.65-27.95a.8.8 0 0 0-.82-.84h-12.25c-4.46 0-8.46-3.2-9.05-7.63a8.83 8.83 0 0 1 8.72-10h10.84a.7.7 0 0 0 .68-.71c-.93-18.3-.08-36.69 2.55-54.8.11-.77-.4-1.45-1.17-1.55-63.84-7.04-163.22 5.38-167.2 7.09-5.4 2.33-9.63 6.74-13.05 11.53-8.9 12.45-13.08 27.63-16.06 42.64a233 233 0 0 0-4.48 51.54zm149.27-71.75c1.73-6.03 7.08-9.8 11.95-8.4 4.88 1.4 7.41 7.42 5.68 13.45s-7.08 9.8-11.95 8.4-7.41-7.41-5.68-13.45M362.3 131a11.75 11.75 0 1 1-23.5 0 11.75 11.75 0 0 1 23.5 0m-25.22-67.77c7.43-2.98 15.4-.56 17.81 5.42 2.42 5.98-1.65 13.25-9.07 16.23s-15.4.56-17.81-5.42 1.65-13.24 9.07-16.23m-26.71-44.86c4.85-.84 9.33 1.65 10.01 5.57.68 3.91-2.71 7.76-7.56 8.59-4.86.84-9.33-1.66-10.01-5.57-.69-3.91 2.71-7.76 7.56-8.6m-30.7 87.27c6.5 0 11.77 4.24 11.77 9.46s-5.27 9.47-11.76 9.47-11.77-4.24-11.77-9.47c0-5.22 5.27-9.46 11.77-9.46m-23.72-37.15a9.89 9.89 0 1 1 0 19.78 9.89 9.89 0 0 1 0-19.78"/><path fill="#f4ece6" d="M391.94 295.04c-5.62 39.5-35.92 72.5-78.13 67.33-39.73-4.94-63.08-47.35-61.06-84.83 1.57-30.3 19.53-71.6 43.78-90.45 20.65-16.16 39.06-13.24 57.7 4.04 24.91 23.12 42.87 70.02 37.93 103.69z"/><ellipse cx="322.81" cy="296.65" fill="#ed9a32" rx="44.8" ry="44.83"/><path fill="#f9c4aa" d="M353.88 585.47c62.57 0 113.29-50.72 113.29-113.29 0-62.56-50.72-113.28-113.29-113.28-62.56 0-113.28 50.72-113.28 113.28s50.72 113.29 113.28 113.29"/><path fill="#f4ece6" d="M295.1 466.84a14.96 14.96 0 1 0 0-29.93 14.96 14.96 0 0 0 0 29.93M303.59 415.35c7.75-3.61 12.22-10.45 9.98-15.26s-10.36-5.79-18.11-2.17-12.23 10.45-9.98 15.27c2.24 4.81 10.35 5.78 18.1 2.16M373.96 401.59c3-7.07-2.94-16.34-13.26-20.73-10.33-4.38-21.12-2.2-24.12 4.86s2.94 16.34 13.26 20.72 21.12 2.21 24.12-4.85"/><path fill="#0c4fa1" d="M600.46 403.08c-87.73-11.4-164.47 23.57-176.43 29.17q-6.42-1.86-16.71-4.77c-17.27-4.88-28.31-3.94-30-3.47-.53 1.24-2.55 9.63-5.33 18.81-3.18 10.48-6.81 21.06-6.81 21.06l4.62 1.92c-19.65 13.13-41.1 26.4-59.21 40.14-22.54 17.1-39.7 29.15-58.38 44.96-10.44-.42-18.3-.33-29.22-.96-15.86-1.9-48.1-5.24-48.9-3.4-.38 2.47 8.17 14.16 23.56 45.42 6.47 14.48 19.68 54.5 21.82 54.18 2.64-.17 28.86-42.49 42.12-67.39 12.6-1.4 28.49-3.7 43.89-7.2-1.99 2.27-3.71 4.14-3.98 4.78.57.84 5.76 3.8 10.96 8.48 5.58 5.04 11.23 10.54 11.98 10.8 7.1-6.59 21.2-25.82 24.8-33.2 30.9-5.81 56.21-12.45 86.1-23.08 117.29-41.7 156.75-93.45 169.43-126.3l.03-.07.4-1.04c2.4-6.93-2.34-8.45-4.76-8.85z"/><path fill="#da573b" d="M542.87 497.24H102.74a8.5 8.5 0 0 0-8.5 8.49v60.34c0 92.54 68.4 169.9 157.25 184.27a8.5 8.5 0 0 1 7.1 7.45l3.64 33.72a8.5 8.5 0 0 0 8.51 8.49h104.13c4.7 0 8.51-3.8 8.51-8.49l3.64-33.72a8.5 8.5 0 0 1 7.1-7.45c88.86-14.37 157.26-91.74 157.26-184.27v-60.34a8.5 8.5 0 0 0-8.5-8.49"/><path fill="#9ecced" d="M637.6 800H491.22a8.04 8.04 0 0 1-8.02-8.02l-24.06-172.43c0-4.41 3.6-8.02 8.02-8.02h194.48c4.42 0 8.02 3.61 8.02 8.02l-24.06 172.43c0 4.41-3.6 8.02-8.02 8.02"/></svg>