<svg xmlns="http://www.w3.org/2000/svg" width="671" height="800" fill="none" viewBox="0 0 671 800"><path fill="#C58F79" d="M667.11 678.83c-2.52-77.1 2.32-153.45-1.63-230.55-1.23-23.68 3.61-48.04 1.7-71.99-3.07-38.89-20.2-77.37-51.95-100.5-5.47-3.96-24.1-12.08-24.65-17.54-.55-5.87 12.7-19.65 16.45-25.45 12.16-18.83 24.17-41.07 24.3-64.13.14-21.9-23.14-59.84-38.43-75.33-13.52-13.65-38.37-30.1-55.1-40.6C445.91-4.98 388.08-3.07 282.94 2.8c-16.86.95-27.72.4-44.78 4.23C143.32 28.3 20.84 108.2 46.92 220.53c3.55 15.34 14.75 33.7 17.2 46.6 3.35 17.73-21.43 19.78-33.1 29.88-39.26 33.84-25.54 81.53-23.76 125.07.27 7.1-4.99 88.22-4.99 88.22 4.92 67.14-6.35 143.21.07 209.33 5.2 53.29 63.22 78.6 110.67 80.3 2.87.15 8.6 0 8.6 0l452.93-3.81c32.97.34 63.9-4.85 82.06-26.68 22.53-27.09 11.54-59.84 10.51-90.68v.07Z"/></svg>