<svg xmlns="http://www.w3.org/2000/svg" width="227" height="386" fill="none" viewBox="0 0 227 386"><path fill="#054449" d="M13.2 168.68c0-16.86.83-57.32 12.75-90.24 10.82-29.9 32.93-50.9 48.4-58.65 15.45-7.7 63.2-14.96 91.28 5.23s38.75 50.96 41.21 62.2c2.47 11.26 9.13 50.23 6.67 81.46l9.85 2.82s0-30.54-1.41-48.45c-1.41-17.91-8.08-55.83-21.08-75.84-13-20.01-32.34-44.58-78.37-47.04C76.47-2.3 49.4 22.97 34.98 39.83 20.57 56.69 8.46 81.62 5.56 112.52c-2.9 30.9-2.02 44.24-.69 61.8l8.34-5.61v-.03Z"/><path fill="#054449" d="M227 158.79c0 13.84-50.83 25.08-113.5 25.08S0 172.62 0 158.8c0 0 3.77 33.38 4.87 56.5.98 20.7 8.34 99 8.67 102.86.72 8.05 3.33 30.96 3.33 30.96 0 20.36 43.11 36.89 96.27 36.89s95.45-16.86 96.27-36.9c0 0 3.13-31.54 5.18-51.88 1.74-17.32 3.8-62.9 6.2-85.3 1.42-13.14 6.21-53.13 6.21-53.13Z"/><path fill="#68B096" d="M113.5 133.7c-28.16 0-57.06 3.98-73.78 6.03C17.6 142.42 0 151.15 0 158.79c0 13.84 50.54 25.08 107.8 25.08 38.86 0 54.09-2.69 74.14-4.22 28.96-2.2 45.06-11.56 45.06-20.86 0-6.3-10.33-13.02-27.95-16.47-21.29-4.2-51.42-8.59-85.55-8.59v-.02Z"/></svg>