<svg xmlns="http://www.w3.org/2000/svg" width="233" height="386" fill="none" viewBox="0 0 233 386"><path fill="#116E6B" d="M14.54 168.68c0-16.86.83-57.32 12.82-90.24 10.88-29.9 33.1-50.9 48.65-58.65 15.54-7.7 63.55-14.96 91.78 5.23 28.23 20.19 38.96 50.96 41.43 62.2 2.48 11.26 9.18 50.23 6.7 81.46l9.9 2.82s0-30.54-1.41-48.45c-1.42-17.91-8.13-55.83-21.2-75.84C190.14 27.2 170.71 2.63 124.42.17c-46.27-2.46-73.5 22.8-87.99 39.66C21.94 56.69 9.77 81.62 6.86 112.52s-2.04 44.24-.7 61.8l8.38-5.61v-.03Z"/><path fill="#116E6B" d="M229.49 158.79c0 13.84-51.1 25.08-114.11 25.08S1.27 172.62 1.27 158.8c0 0 3.79 33.38 4.9 56.5.97 20.7 8.37 99 8.7 102.86.73 8.05 3.36 30.96 3.36 30.96 0 20.36 43.34 36.89 96.78 36.89 53.45 0 95.96-16.86 96.79-36.9 0 0 3.14-31.54 5.2-51.88 1.76-17.32 3.82-62.9 6.25-85.3 1.41-13.14 6.24-53.13 6.24-53.13Z"/><path fill="#F4ECE6" d="m96.71 78.64 14.91 2.06c1 .14 1.7 1.05 1.56 2.05l-.93 6.72 10.9 2.24 17.8-12.28a1.82 1.82 0 0 1 2.54.46l8.55 12.4c.57.82.36 1.95-.46 2.53l-3.07 2.1 5 1.03 10.17-.49c1-.04 1.86.73 1.9 1.74l.18 3.6 4.53-3.12a1.82 1.82 0 0 1 2.54.47l8.55 12.38c.57.83.36 1.97-.47 2.54l-2.66 1.84 9.97 8.12 7.4-5.1a1.82 1.82 0 0 1 2.53.47l8.55 12.38c.25.38.35.8.31 1.22l7.2-1.96c.97-.27 1.97.3 2.24 1.28l3.76 13.73c8.17 3.9 12.79 8.31 12.79 12.99 0 15.73-52.16 28.48-116.5 28.48S0 175.77 0 160.04c0-2.7 1.54-5.31 4.4-7.79v-5.2l-.47-.14a1.82 1.82 0 0 1-1.26-2.25l4.1-14.48A1.82 1.82 0 0 1 9 128.92l13.75 3.88 3.2-2.2-.54-11.1c-.05-1.01.72-1.87 1.73-1.92l13.82-.66c-.04-.25-.03-.52.05-.78l4.1-14.48a1.82 1.82 0 0 1 2.24-1.26l15.86 4.49 22.23-15.34a1.82 1.82 0 0 1 2.54.47l4.42 6.41 2.24-16.23c.14-1 1.06-1.7 2.06-1.56Z"/></svg>