<svg xmlns="http://www.w3.org/2000/svg" width="308" height="391" fill="none" viewBox="0 0 308 391"><path fill="#C58F79" d="M175.73 0c33.7 10.8 56.7 55.21 53.6 99.33.5 0 .8.2 1.2.2 16.4 4.1 33.41 4.7 47.01 15.7 6.3 5.3 24.2 29.2 27.9 36.7 12.4 25.11-23.5 35.62-40.6 42.82-.8 25 4.9 52.31-7.2 75.62-3.3 6.4-10.5 12.7-13.3 18.3-4.9 10.1-4.6 63.42-1 74.92 1.4 4.6 3.6 5.6 6.2 6h6.9c6.2 0 11.8 4.5 12.5 10.7.3 3.4-.7 6.5-2.5 8.8-.8 1.3-2.3 1.91-3.8 1.91h-31.7c-1.4-.1-3.1-1.2-3.1-1.2-6.8-3.7-12.1-10.2-15.1-20.2-5.6-18.31-7.6-40.32-10.9-59.32-1.71-1.7-11.71 6.3-13.31 8.1.1.2 9.6 24.4-11.4 44.01h11.4c9.4 0 17.5 7 18 16.3.2 3.5-.5 6.7-2.1 9.5-.8 1.5-2.6 2.5-4.3 2.5H79.01c-7.44 0-19.47-10.69-24.97-15.93A34.53 34.53 0 0 1 34 381.1C15.22 381.1 0 366.32 0 348.09c0-16.14 11.94-29.58 27.71-32.44-4.24-44.81 14.97-90.36 54.7-114 28.3-16.9 61.81-20.4 90.02-34.1 15.2-7.3 17.8-18.61 24.3-45.82-35.9-1-75.01-35.8-85.71-79.32h.6c25.9-4.2 54.8 10.9 75 35.61-12.2-22.2-17.4-50.91-11.3-78.02h.4Z"/></svg>