<svg xmlns="http://www.w3.org/2000/svg" width="1045" height="517" fill="none" viewBox="0 0 1045 517"><path fill="#054449" d="M541 0H0v517h541z"/><path fill="#68b096" d="M91 182H50v68h41zM171 182h-41v68h41zM251 182h-41v68h41zM331 182h-41v68h41zM411 182h-41v68h41zM491 182h-41v68h41zM91 291H50v68h41zM171 291h-41v68h41zM251 291h-41v68h41zM331 291h-41v68h41zM411 291h-41v68h41zM491 291h-41v68h41zM91 400H50v68h41zM171 400h-41v68h41zM251 400h-41v68h41zM331 400h-41v68h41zM411 400h-41v68h41zM491 400h-41v68h41zM738 403H541v114h197z"/><path fill="#054449" d="M613 436h-50v50h50zM692 436h-50v50h50z"/><path fill="#116e6b" d="M935 340H738v177h197z"/><path fill="#9bcab9" d="M837 386h-71v36h71zM914 386h-47v36h47zM837 446h-71v36h71zM914 446h-47v36h47z"/><path fill="#054449" d="M999.14 493h-23v24h23z"/><path fill="#054449" d="M949.4 487.07s-40.79-39.9-7.02-92.32 99.07-14.34 102.1 21.62c6.66 78.94-52.15 98.46-95.07 70.7"/></svg>