<svg xmlns="http://www.w3.org/2000/svg" width="670" height="404" fill="none" viewBox="0 0 670 404"><path fill="#68b096" d="M287 0 90 72.2V404h197z"/><path fill="#9bcab9" d="M252 126H125v32h127zM252 187H125v32h127zM252 248H125v32h127zM252 309H125v32h127z"/><ellipse cx="53" cy="297" fill="#116e6b" rx="53" ry="54"/><ellipse cx="53" cy="234.5" fill="#116e6b" rx="43" ry="49.5"/><path fill="#116e6b" d="M44 338h18v66H44z"/><path fill="#8ecbb8" d="M670 163H287v241h383z"/><path fill="#116e6b" d="M399 220h-75v63h75zM516 220h-75v63h75zM633 220h-75v63h75z"/></svg>