<svg xmlns="http://www.w3.org/2000/svg" width="541" height="517" fill="none" viewBox="0 0 541 517"><path fill="#054449" d="M541 0H0v517h541z"/><path fill="#68b096" d="M91 182H50v68h41zM171 182h-41v68h41zM251 182h-41v68h41zM331 182h-41v68h41zM411 182h-41v68h41zM491 182h-41v68h41zM91 291H50v68h41zM171 291h-41v68h41zM251 291h-41v68h41zM331 291h-41v68h41zM411 291h-41v68h41zM491 291h-41v68h41zM91 400H50v68h41zM171 400h-41v68h41zM251 400h-41v68h41zM331 400h-41v68h41zM411 400h-41v68h41zM491 400h-41v68h41z"/></svg>