<svg xmlns="http://www.w3.org/2000/svg" width="541" height="517" fill="none" viewBox="0 0 541 517"><path fill="#054449" d="M541 0H0v517h541z"/><path fill="#68b096" d="M91 182H50v68h41zM171 182h-41v68h41zM251 182h-41v68h41zM331 182h-41v68h41zM411 182h-41v68h41zM491 182h-41v68h41zM91 291H50v68h41zM171 291h-41v68h41zM251 291h-41v68h41zM331 291h-41v68h41zM411 291h-41v68h41zM491 291h-41v68h41zM91 400H50v68h41zM171 400h-41v68h41zM251 400h-41v68h41zM331 400h-41v68h41zM411 400h-41v68h41zM491 400h-41v68h41z"/><path fill="#e2f1df" d="m266.13 111.08.2-.04v6.85l-.1.04c-.67.28-2.2.76-4.92.76-6.25 0-10.13-3.84-10.13-10.03V91.49h-6.15v-6.53h1.88c3.15 0 4.95-1.82 4.95-5v-5.28h7.5V84.8h6.9v6.67h-6.9v15.88c0 2.8 1.22 3.98 4.07 3.98 1.12 0 2.42-.2 2.7-.27zm25.48 0c-.29.05-1.59.26-2.7.26-2.86 0-4.07-1.19-4.07-3.98V91.48h6.9v-6.67h-6.9V74.68h-7.5v5.28c0 3.18-1.8 5-4.96 5h-1.87v6.53h6.15v17.17c0 6.19 3.88 10.03 10.13 10.03 2.72 0 4.25-.48 4.91-.76l.1-.04v-6.85zm-50.8 6.91.05.2h-7.68l-.04-.11c-.07-.2-.31-1.4-.35-3.72-1.24 1.75-4.24 4.86-10.06 4.86-3.33 0-6.21-1.07-8.34-3.08a9.7 9.7 0 0 1-3.06-7.09c0-5.45 3.8-9.25 10.15-10.16l8.52-1.3c2.06-.29 2.3-1.4 2.3-2.21 0-3.05-2.43-4.87-6.1-4.87s-6.19 2.17-6.62 5.66l-7.55-1.7c.67-5.22 5.32-10.76 14.1-10.76 12.88 0 14.27 8.78 14.27 12.55v16.46c0 3.2.39 5.19.4 5.27zm-8.5-15.01h-.01l-8.46 1.27c-1.6.26-4.28 1.17-4.28 4.32 0 1.98 1.46 4.12 4.66 4.12 3.69 0 8.08-1.46 8.08-8.4zm66.8 15.32h8.24V84.76h-8.23zM88.4 77.8c6.95 0 14.59 4.91 15.61 14.32A42.6 42.6 0 0 1 126.4 88a38.4 38.4 0 0 0-38-33 38.4 38.4 0 0 0-37.36 29.7c7.73-.06 15.33 2 21.97 5.92A15.66 15.66 0 0 1 88.39 77.8m-38.2 12.02c-1.96 19.37 11.37 37.16 29.65 41.2v-.22c0-7.13 1.74-14.1 5.1-20.34-6.4-12.82-20.42-21.22-34.75-20.64m126.95 16.44L161.56 69.8l-.04-.1h-11.23v48.6h8.34V83.55l14.61 34.52h7.53l14.75-34.66v34.89h8.47V69.7h-11.43zM85 131.82c22.29 2.1 41.9-15.87 41.79-38.34v-.32c-22.51-2.64-42.61 15.95-41.8 38.66m381.96-30.74c0 2.11-.21 2.68-.21 2.68h-24.31a8.75 8.75 0 0 0 8.9 8.3q5.37-.01 7.54-4.16h7.84a19 19 0 0 1-1.64 3.95c-2.34 3.95-6.8 7.35-13.74 7.35-4.6 0-8.88-1.67-12-4.71-3.38-3.29-5.18-7.86-5.18-13.2 0-4.96 1.78-9.5 5-12.76a16 16 0 0 1 11.37-4.83c10.13 0 16.43 6.65 16.43 17.38m-8.34-3.44c-.28-5.17-4.48-7.01-8.03-7.01-3.53 0-7.5 2.46-7.94 7.01zm-42.3-13.8c-4.07 0-7.64 1.84-9.67 4.95v-4h-8.06v33.5h8.26V98.98c0-4.66 2.65-7.66 6.74-7.66 5.8 0 6.67 4.5 6.67 7.18v19.78h8.25V97.15c0-8.2-4.67-13.3-12.19-13.3m-39.03 21.6-9.42-20.6-.04-.1h-9.34l14.31 29.33-7.87 17.05h8.85l21.16-46.37h-8.79zm113.53 5.63c-.3.05-1.59.26-2.7.26-2.86 0-4.08-1.19-4.08-3.98V91.48h6.9v-6.67h-6.9V74.68h-7.5v5.28c0 3.18-1.8 5-4.95 5h-1.88v6.53h6.15v17.17c0 6.19 3.88 10.03 10.13 10.03 2.83 0 4.38-.53 4.92-.76l.1-.04v-6.85zM303.65 67.99a5.3 5.3 0 0 0-5.33 5.34c0 2.95 2.3 5.27 5.33 5.27a5.27 5.27 0 0 0 5.39-5.27 5.36 5.36 0 0 0-5.39-5.34m13.03 50.3h8.24V68.66h-8.24zm31.27-20.09-5.04-1.02c-2.02-.4-3.22-1.63-3.22-3.3 0-2.04 2.03-3.64 4.62-3.64a5.6 5.6 0 0 1 5.98 4.82l.03.19 7.02-2-.02-.15a11 11 0 0 0-3.2-5.94c-2.37-2.29-5.68-3.45-9.81-3.45-6.84 0-12.4 4.87-12.4 10.85 0 4.9 3.39 8.57 9.07 9.82l4.93 1.09c2.46.5 3.76 1.71 3.76 3.5 0 1.8-1.49 3.65-4.82 3.65-4.5 0-6.37-2.96-6.6-5.5l-.02-.2-7.24 2 .02.14a11 11 0 0 0 3.46 6.51c2.55 2.38 6.16 3.65 10.44 3.65 8.36 0 12.74-5.43 12.74-10.78 0-5.36-3.54-8.9-9.7-10.24"/></svg>