<svg xmlns="http://www.w3.org/2000/svg" width="1280" height="499" fill="none" viewBox="0 0 1280 499"><path fill="#054449" d="M1262.22 277.43c-6.07-24.56-18.9-43.98-40.78-56.39-20.78-11.8-42.41-20.96-66.17-27.2-54.55-14.47-109.09-22.6-164.92-30.98-12.74-1.88-20.78-13.18-30.44-20.1-65.06-47.15-95.4-69.4-173.12-97.64-69.34-25.24-140.12-38.07-213.9-43.38-63.27-4.53-124.57-.6-185.35 16.43-30.7 8.56-59.76 18.65-85.93 36.36l-91.05 61.61c-19.49 13.26-43.17 18.23-65.65 24.39l-74.64 20.53c-46.08 12.75-63.95 54.68-67.2 98.92-2.82 38.59-3.42 75.8-2.9 114.65.34 25.5 20.26 47.24 45.56 48.26 13.51.52 33.69.34 47.62-.25a7.23 7.23 0 0 0 6.76-8.48C87.45 329.8 144.22 265.2 227.24 265.62c83.27.52 138.92 66.23 125.24 150.51-.5 3 1.71 5.65 4.7 5.65l540.58-.94c4.45 0 7.7-3.94 7.18-8.3C894 324.74 953.5 263.3 1036.1 265.7c80.62 2.3 133.71 66.23 122.17 147.17-.6 4.45 2.65 8.47 7.09 8.47l82.93.43c3.42 0 6.58-1.8 8.47-4.8 19.92-31.82 13.16-108.32 5.47-139.63z"/><path fill="#1e1a28" d="M219.2 288.04c59.67-4.1 108.23 40.99 112.67 97.29 4.53 58.35-40 109.27-97.8 113.37a105.63 105.63 0 0 1-112.85-97.03c-4.53-56.99 37.61-109.52 98.06-113.63zM1025.99 288.04c60.01-3.42 108.06 43.3 111.22 99.43 3.25 58.44-41.55 107.72-98.83 111.32-58.3 3.68-107.97-40.65-112-97.89-4.01-57.24 39.16-109.44 99.61-112.86"/><path fill="#f9cc76" d="M1271.45 265.28h-13.08c1.45 3.94 2.74 7.87 3.85 12.15 3.25 13.1 6.24 34.06 7.26 56.3h1.97c4.7 0 8.55-3.85 8.55-8.55v-51.34c0-4.7-3.85-8.56-8.55-8.56"/><path fill="#e2f1df" d="m557.84 157.04-274.52-2.73c-2.14 0-4.87-1.03-5.56-1.46-1.11-.6-.94-5.48 1.03-7.53 32.14-33.11 77.54-62.63 126.27-76.67 47.36-13.6 92.93-22.07 141.4-19.85a4.86 4.86 0 0 1 4.62 4.37l11.63 98.4a4.8 4.8 0 0 1-4.87 5.39zM889.8 169.36l-268.61-10a4.84 4.84 0 0 1-4.62-4.12l-14.02-96.86c-.25-1.7.52-6.07 1.37-7.18 1.11-1.63 5.47-2.4 8.2-2.23 78.15 6.08 151.84 26.19 220.15 64.1 12.91 7.1 65.23 39.7 64.63 52.19 0 1.45-3.93 4.36-7.1 4.27zM682.82 298.63l.15-.03v5.15l-.07.03c-.5.22-1.66.58-3.72.58-4.73 0-7.66-2.9-7.66-7.56v-12.93h-4.65v-4.91h1.41c2.39 0 3.75-1.37 3.75-3.77v-3.98h5.68v7.63h5.21v5.03h-5.21v11.96c0 2.1.92 3 3.07 3 .85 0 1.83-.17 2.04-.2m19.27 0c-.21.03-1.2.2-2.04.2-2.16 0-3.07-.9-3.07-3v-11.96h5.21v-5.03h-5.22v-7.63h-5.67v3.98c0 2.4-1.37 3.77-3.75 3.77h-1.41v4.91h4.65v12.93c0 4.66 2.93 7.56 7.66 7.56 2.06 0 3.21-.36 3.72-.58l.07-.03v-5.15zm-38.41 5.2.03.15h-5.8l-.04-.09a12 12 0 0 1-.26-2.8c-.94 1.33-3.21 3.66-7.6 3.66-2.53 0-4.71-.8-6.32-2.32a7.3 7.3 0 0 1-2.31-5.33c0-4.1 2.87-6.97 7.67-7.66l6.44-.97c1.57-.22 1.75-1.06 1.75-1.67 0-2.3-1.84-3.66-4.62-3.66-2.77 0-4.67 1.63-5 4.26l-5.71-1.28c.5-3.94 4.02-8.1 10.66-8.1 9.74 0 10.8 6.6 10.8 9.45v12.39c0 2.42.29 3.9.3 3.97m-6.44-11.3-6.4.95c-1.21.2-3.24.89-3.24 3.25 0 1.5 1.1 3.1 3.53 3.1 2.78 0 6.1-1.1 6.1-6.32h.01zm50.53 11.53H714V278.8h-6.23zM548.4 273.57c5.26 0 11.03 3.7 11.81 10.79a32.3 32.3 0 0 1 16.93-3.11 29 29 0 0 0-28.73-24.85 29 29 0 0 0-28.27 22.37c5.85-.05 11.6 1.5 16.62 4.45a11.8 11.8 0 0 1 11.64-9.65m-28.9 9.05c-1.47 14.59 8.6 27.98 22.43 31.02v-.16c0-5.37 1.32-10.61 3.86-15.31a28.7 28.7 0 0 0-26.28-15.55M615.53 295l-11.79-27.46-.03-.08h-8.49v36.6h6.3V277.9l11.06 26h5.69l11.16-26.1v26.26h6.4v-36.6h-8.64zm-69.7 19.25c16.85 1.58 31.7-11.95 31.6-28.87v-.24c-17.02-1.99-32.22 12.01-31.6 29.11m288.9-23.15a7 7 0 0 1-.17 2.02h-18.39a6.6 6.6 0 0 0 6.74 6.25q4.05 0 5.7-3.13h5.93a14 14 0 0 1-1.24 2.97c-1.77 2.98-5.14 5.54-10.39 5.54-3.49 0-6.71-1.26-9.08-3.55-2.56-2.48-3.91-5.92-3.91-9.94 0-3.74 1.34-7.14 3.78-9.6a12.2 12.2 0 0 1 8.6-3.64c7.66 0 12.42 5 12.42 13.08m-6.32-2.59c-.2-3.89-3.39-5.28-6.06-5.28-2.68 0-5.68 1.85-6.01 5.28zm-31.99-10.4a8.6 8.6 0 0 0-7.31 3.74v-3.02H783v25.23h6.25v-14.54c0-3.5 2-5.77 5.1-5.77 4.38 0 5.04 3.4 5.04 5.41v14.9h6.25v-15.92c0-6.18-3.54-10.02-9.23-10.02m-29.51 16.27-7.13-15.5-.04-.07h-7.06l10.83 22.07-5.96 12.84h6.7l16-34.91h-6.65zm85.86 4.25c-.22.03-1.2.2-2.05.2-2.16 0-3.08-.9-3.08-3v-11.96h5.22v-5.03h-5.22v-7.63h-5.67v3.98c0 2.4-1.37 3.77-3.75 3.77h-1.41v4.91h4.64v12.93c0 4.66 2.94 7.56 7.67 7.56 2.14 0 3.31-.4 3.72-.58l.07-.03v-5.15zM711.2 266.18a4 4 0 0 0-4.03 4.02 3.94 3.94 0 0 0 4.03 3.97 4 4 0 0 0 4.07-3.97 4.05 4.05 0 0 0-4.07-4.02m9.86 37.88h6.22v-37.38h-6.22zm23.65-15.13-3.82-.77c-1.52-.3-2.43-1.23-2.43-2.49 0-1.53 1.53-2.74 3.49-2.74 3.8 0 4.44 3.02 4.53 3.63l.02.14 5.3-1.5v-.11a8.2 8.2 0 0 0-2.42-4.47q-2.72-2.6-7.43-2.6c-5.17 0-9.38 3.66-9.38 8.17 0 3.68 2.57 6.45 6.87 7.39l3.72.82c1.87.38 2.85 1.3 2.85 2.64 0 1.35-1.13 2.74-3.65 2.74-3.4 0-4.82-2.22-5-4.13v-.15l-5.48 1.5.01.1a8.2 8.2 0 0 0 2.62 4.9c1.93 1.8 4.66 2.75 7.9 2.75 6.32 0 9.63-4.08 9.63-8.12s-2.67-6.7-7.34-7.7"/></svg>