<svg xmlns="http://www.w3.org/2000/svg" width="1280" height="499" fill="none" viewBox="0 0 1280 499"><path fill="#054449" d="M1262.22 277.43c-6.07-24.56-18.9-43.98-40.78-56.39-20.78-11.8-42.41-20.96-66.17-27.2-54.55-14.47-109.09-22.6-164.92-30.98-12.74-1.88-20.78-13.18-30.44-20.1-65.06-47.15-95.4-69.4-173.12-97.64-69.34-25.24-140.12-38.07-213.9-43.38-63.27-4.53-124.57-.6-185.35 16.43-30.7 8.56-59.76 18.65-85.93 36.36l-91.05 61.61c-19.49 13.26-43.17 18.23-65.65 24.39l-74.64 20.53c-46.08 12.75-63.95 54.68-67.2 98.92-2.82 38.59-3.42 75.8-2.9 114.65.34 25.5 20.26 47.24 45.56 48.26 13.51.52 33.69.34 47.62-.25a7.23 7.23 0 0 0 6.76-8.48C87.45 329.8 144.22 265.2 227.24 265.62c83.27.52 138.92 66.23 125.24 150.51-.5 3 1.71 5.65 4.7 5.65l540.58-.94c4.45 0 7.7-3.94 7.18-8.3C894 324.74 953.5 263.3 1036.1 265.7c80.62 2.3 133.71 66.23 122.17 147.17-.6 4.45 2.65 8.47 7.09 8.47l82.93.43c3.42 0 6.58-1.8 8.47-4.8 19.92-31.82 13.16-108.32 5.47-139.63z"/><path fill="#1e1a28" d="M219.2 288.04c59.67-4.1 108.23 40.99 112.67 97.29 4.53 58.35-40 109.27-97.8 113.37a105.63 105.63 0 0 1-112.85-97.03c-4.53-56.99 37.61-109.52 98.06-113.63zM1025.99 288.04c60.01-3.42 108.06 43.3 111.22 99.43 3.25 58.44-41.55 107.72-98.83 111.32-58.3 3.68-107.97-40.65-112-97.89-4.01-57.24 39.16-109.44 99.61-112.86"/><path fill="#f9cc76" d="M1271.45 265.28h-13.08c1.45 3.94 2.74 7.87 3.85 12.15 3.25 13.1 6.24 34.06 7.26 56.3h1.97c4.7 0 8.55-3.85 8.55-8.55v-51.34c0-4.7-3.85-8.56-8.55-8.56"/><path fill="#e2f1df" d="m557.84 157.04-274.52-2.73c-2.14 0-4.87-1.03-5.56-1.46-1.11-.6-.94-5.48 1.03-7.53 32.14-33.11 77.54-62.63 126.27-76.67 47.36-13.6 92.93-22.07 141.4-19.85a4.86 4.86 0 0 1 4.62 4.37l11.63 98.4a4.8 4.8 0 0 1-4.87 5.39zM889.8 169.36l-268.61-10a4.84 4.84 0 0 1-4.62-4.12l-14.02-96.86c-.25-1.7.52-6.07 1.37-7.18 1.11-1.63 5.47-2.4 8.2-2.23 78.15 6.08 151.84 26.19 220.15 64.1 12.91 7.1 65.23 39.7 64.63 52.19 0 1.45-3.93 4.36-7.1 4.27z"/></svg>