<svg xmlns="http://www.w3.org/2000/svg" width="158" height="801" fill="none" viewBox="0 0 158 801"><path fill="#68b096" d="m26.3 186.72 9.14 97.36c.1 1.05-.56 2-1.54 2.35-.41.14 16.24-4.3 37.63-2.47 24.8 2.14 33.6.21 39.25 3.31a2.2 2.2 0 0 1-.97-2.54l14.43-48.67 11.46-41.09c6.96-24.95 13.84-48.96 17.02-74.82l3.67-29.91c.58-4.76.96-10.07.92-15.11a5.4 5.4 0 0 0-3.4-4.95l-11.06-4.42a4.48 4.48 0 0 0-6.06 3.32l-9.61 49.35-20 76.18c-2.13 8.04-4.97 15.98-7.44 23.91l-6.6 21.23c-.55 1.79-3.54 14.8-6.67 13.04-1.31-.73-1.1-3.14-.84-4.29l9.22-39.5c8.56-36.67 14.7-72.46 18.36-109.86 1.06-10.8 2.2-20.07 1.44-30.7a5.4 5.4 0 0 0-4.71-4.95c-4.7-.58-8.95-.97-13.54-1.21a4.5 4.5 0 0 0-4.66 3.97c-3.39 28.53-6.28 55.33-12.35 83.14a344 344 0 0 0-7.7 54.1c-.94 15.72-1.86 30.9-6.29 46.87-.61 2.21-3.77 2.15-4.33-.06-1.64-6.5-1.93-13.01-2.04-19.55-.52-29.91-1.66-59.65.48-89.42 1.6-22.7 3.17-43.99 3.27-66.55l3.2-37.17c.93-10.81.55-21.77.25-32.36A5.4 5.4 0 0 0 60.27.03L47.44 1.45c-4.84.54-9.63 1.5-14.9 2.54a6.7 6.7 0 0 0-5.15 4.66 46 46 0 0 0-1.93 9.67l-2.4 38.57c-1.23 19.9-1.08 39.88-.1 60.05l3.4 69.8z"/><path fill="#ed9a32" d="m111.18 287.36-.03-.03c-5.67-3.08-14.51-1.18-39.4-3.3-21.47-1.83-34 1.23-38.96 2.9-30.27 11.23-27.34 43.03-27.21 73.7.16 37.55-5.83 74.03-5.57 115.07l.43 69.9c.17 28.15 5.1 54.01 9.59 81.71 3.93 24.38 6 48.85 7.47 73.74 1.2 20.4 4.08 40.79 10.23 60.33 2.95 9.4 7.19 18.11 10.84 27.2 2.22 5.54 5.73 11.73 12.22 12.33 6.2.59 12.35-2.29 17.24-5.85 11.42-8.33 18.94-21.17 23.36-34.62 5.54-16.92 7.17-35.32 8.77-52.97 1.7-18.78 2.24-37.64 3.27-56.47l2.9-53.15 8.57-106.93 10.62-151.22c1.5-21.46 2.12-43.08-14.34-52.3z"/></svg>