<svg xmlns="http://www.w3.org/2000/svg" width="453" height="425" fill="none" viewBox="0 0 453 425"><path fill="#C58F79" d="M451.78 347.28c-2.57-5.25-10.56-14.96-14.62-23.24-5.08-10.45-11.02-35.87-10.4-47.46 1.95-34.55 1.15-49.12-11.13-74.08-2.17-4.62-1.88-3.88-1.94-9.65-.12-5.77 5.54-11.08 9.94-23.24 4.4-12.17 10.1-41.53 14.1-68.31 5.03-33.58 1.2-45.58-8-68.88-8.9-22.5-25.7-27.13-32.89-29.58-7.2-2.52-25.7-6.06-25.47 3.02.28 9.14 6.34 8.86 14.68 12.45 8.28 3.6 14.9 16.11 19.64 31.82 6 20.04 3.03 33.75 2.23 51.45-.86 17.7-9.42 46.2-12.45 54.77-3.03 8.57-6.91 11.09-15.76 12.11-65.11 2.57-144.96 7.03-210.46 5.89l.28-.12c-16.85-.63-43.12-23.19-47.34-27.07-4.23-3.88-23.82-26.84-25.93-29.3-2.12-2.4-6.06-5.71-10.28-16.62-4.23-10.9-11.88-26.56-14.17-25.07-6.97 4.51-8.45 19.02-8.45 19.02-3.6-10.85-11.02-13.31-12.17-12.68-.74.4-1.31 11.48 0 16.9-1.31 2.4-23.76 10.28-27.35 12.97-3.6 2.74-4.86 9.37-6.63 12.68-1.83 3.31-13.6 7.25-15.99 10.1-2.4 2.86-.63 8.92 0 12.23.63 3.31 3.6 6.62 8.45 14.16 4.86 7.54 17.2 4.23 20.85 4.23 3.65 0 12.96 14.16 17.3 19.42 9.26 20.73 34.21 82.18 48.04 116.56-.52 14.23-8.51 81.33-10 85.1-1.6 4-9.7 16.05-12.05 18.5-1.14 1.2-5.94 4.3-5.43 10.06.52 5.77 2.57 8.74 4.4 8.74h13.77c4.28 0 5.65-3.37 8.33-6.51 2.69-3.14 12.51-14.97 15.31-20.05 2.11-3.77 25.59-51.23 38.38-76.93 6.85 18.5 16.4 45.35 18.33 50.6 3.09 8.23 24 33.64 26.28 40.44 2.4 4 1.82 11.25 7.82 12.45h8.05c1.83 0 7.48-4.4 8.11-7.54 5.49-12.68-12.33-27.76-17.42-39.01-4.85-8.4-6.34-10.97-6.45-13.25-.28-3.88 2.28-38.55 3.6-56.88 26.21-.63 57.68-1.6 83.61-2.52a941 941 0 0 1 10.85 32.61c2.46 7.83 7.48 22.74 8.63 28.56 1.42 7.43 2 10.45-1.66 14.17-3.43 3.54-22.9 22.5-25.13 23.58-5.48 2.8-8.74 6.34-8.8 11.2 0 5.48 2.63 9.02 5.89 9.02h13.7c3.09 0 8.34-5.31 17.65-12.74 8.23-6.56 36.38-30.2 39.01-37 2.46-6.35 0-14.97.97-21.42.69-4.69 5.71-22.96 10.28-38.95 6 8 10.91 14.56 12.4 16.5 10.56 13.88 35.98 23.59 45 28.56 9.42 5.2 13.88 11.08 12.17 17.82-1.38 5.3-5.49 25.01-6.51 26.95-.98 1.95-4.35 3.03-5.77 7.77-1.43 4.74-.18 10.91 4.62 12.23 0 0 14.17.28 18.16.28 4 0 7.49-10.62 9.26-15.76 2.11-6.06 15.82-50.5 10.62-61.06h-.06Z"/></svg>