<svg xmlns="http://www.w3.org/2000/svg" width="400" height="348" fill="none" viewBox="0 0 400 348"><path fill="#f9cc76" d="M399.87 121.35c-.73-26.56-13.8-47.53-14.99-48.96-9.3-11.46-23.28-18.24-35.98-26.06C316.4 26.27 242.32 4.09 230.9.8c-3.54-1.03-6.47-.78-7.47-.76-18.84.84-207.68 9.13-209.54 9.2-1.84.09-4.42.28-5.4 2.27C8.07 12.43.93 81.76 0 90.93c-.05.54.38 1 .95 1 7.84-.32 15.85-.16 23.12 2.73 7.6 3 14.29 9.55 15.29 17.65 1.05 8.34-4.23 16.6-11.43 20.91-6.74 4.05-14.83 5.16-22.72 4.89a1.6 1.6 0 0 0-1.67 1.56l-1.3 55.13c0 .92.7 1.65 1.62 1.65h24.2c8.82 0 16.72 6.31 17.87 15.06a17.42 17.42 0 0 1-17.22 19.73H7.31c-.76 0-1.38.64-1.35 1.4 1.83 36.08.16 72.35-5.04 108.08a2.66 2.66 0 0 0 2.32 3.05c126.1 13.9 322.4-10.6 330.27-13.98 10.64-4.59 19-13.3 25.77-22.75 17.57-24.56 25.82-54.49 31.72-84.09a458 458 0 0 0 8.84-101.66zM105.02 262.86c-3.42 11.9-14 19.33-23.61 16.57-9.63-2.75-14.64-14.62-11.22-26.52 3.43-11.9 14-19.33 23.62-16.57s14.63 14.62 11.2 26.52M120 89.61a23.2 23.2 0 0 1 23.24-23.18 23.2 23.2 0 0 1 23.23 23.18c0 12.8-10.4 23.18-23.23 23.18A23.2 23.2 0 0 1 120 89.61m49.82 133.67c-14.67 5.88-30.4 1.1-35.18-10.7-4.77-11.79 3.26-26.11 17.93-32 14.66-5.88 30.4-1.1 35.17 10.69 4.77 11.8-3.26 26.12-17.92 32m52.77 88.48c-9.6 1.65-18.44-3.26-19.78-10.98-1.35-7.72 5.36-15.3 14.93-16.95 9.6-1.64 18.44 3.27 19.78 10.99 1.35 7.71-5.36 15.3-14.93 16.94m60.62-172.12c-12.83 0-23.23-8.36-23.23-18.67 0-10.3 10.4-18.67 23.23-18.67s23.24 8.36 23.24 18.67c0 10.3-10.4 18.67-23.24 18.67m46.88 73.27a19.52 19.52 0 1 1 0-39.02 19.5 19.5 0 1 1 0 39.02"/></svg>