<svg xmlns="http://www.w3.org/2000/svg" width="283" height="310" fill="none" viewBox="0 0 283 310"><path fill="#F9CC76" d="M279.4 98.2c-1.08-2.16-2.9-6.98-5.84-5.95l-65.81 26.8c-8.39 1.2-16.95 1.14-25.73-1.01-19.28-4.77-38.77-8.62-58.22-12.53-8.9-1.76-14.4-6.18-17.45-15.02-6.8-18.76-15.08-38.32-30.05-52.1C72.62 35.8 56.12 22.82 52 21.52 62.08 9.04 46.77-1 30.45.08 20.58 1.44 13.05 5.24 9.8 10.74c-3 5.5-1.24 10.2-.22 17.28.34 1.87-.17 2.67-1.53 4.03-3 2.83-5.5 4.7-8 7.08-.05.06-.1.17 0 .29l.52 1.36c0 .11.17.17.22.17 3.97.28 7.77.34 11.74.56 2.66.17 3.4 1.02 2.83 3.97-2.21 9.13 1.19 21.37 12.98 19.56-13.26 40.58-12.98 70.62 5.1 113.42 16.6 28.74 37.75 67.96 76.3 84 3.8 1.2 5.04 2.5 5.32 5.16 0 0-11.73 29.3-14.28 31-2.55 1.7-6.63 1.93-12.02 2.73-6.23.9-3.9.45-9.58 1.75-3.28.8-4.42 3.4-4.36 4.37.06.96 0 1.81 1.36 1.81h51.36c2.38-.11 2.77-1.02 2.89-3.06.05-1.25.4-3.57-2.9-3.8l-11-1.41 13.61-34.07c4.08-.9 22.84-2.83 23.58-2.78 7.65.51 10.66 18.94 11.34 22.45.8 4.3 1.98 10.83 1.42 11.56-.86 1.14-3.24 2.27-6.47 2.78 0 0-8.16 1.36-11.73 2.1-3 .62-5.1 2.89-5.1 4.53 0 1.2.28 1.76 2.72 1.76h48.86c1.64 0 2.21-1.76 2.21-3.17 0-1.6-.23-2.9-1.53-3.35-3.97-1.47-10.43-1.53-15.64-2.32l-5.79-46.94c4.54-4.59 15.99-11.56 26.59-19.21 26.98-18.82 48.69-48.63 62.63-72.95 9.07-17.23 25.85-41.72 16.21-63.15l-.05-.05Z"/></svg>