<svg xmlns="http://www.w3.org/2000/svg" width="970" height="800" fill="none" viewBox="0 0 970 800"><path fill="#f9cc76" d="M618.88 519.86c94.58 0 171.25-76.73 171.25-171.36s-76.67-171.36-171.25-171.36c-94.57 0-171.24 76.72-171.24 171.36 0 94.63 76.67 171.36 171.24 171.36M475.5 168.64c1.16 11.5-28.51 31.49-36.23 31.1-8.2-.48-17.96-7.26-23.34-12.67L369 139.95c-4.3-4.38-12.17-15.8-10.77-21.34 2.58-9.85 23.03-30.1 33.02-31.41 5.3-.71 14.93 6.26 19.28 10.56l55.35 55.01c3.67 3.66 9.13 11.41 9.6 15.87M272.37 374.03c-8.97-7.27-2.26-42.42 3.48-47.65 6.12-5.5 17.8-7.63 25.44-7.65l66.47-.12c6.14.04 19.78 2.46 22.7 7.37 5.18 8.76 5.1 37.55-1 45.6-3.25 4.26-14.95 6.18-21.08 6.26l-78.02.53c-5.18 0-14.53-1.56-18.01-4.36zM406.05 599.5c-5 4.62-15.47 11.1-20.4 9.53-11-3.67-35.05-32.12-28.1-40.4 12.8-15.24 70.11-76.14 81.6-74.87 10.15 1.11 29.67 21.42 29.83 35.1.07 6.73-7.17 19.22-12.65 24.3l-50.2 46.36h-.08zM588.62 673.2l.54-74.14c.08-6.14 2-17.84 6.25-21.1 8.02-6.1 36.78-6.19 45.55-1.02 4.91 2.94 7.35 16.6 7.37 22.73l-.12 66.54c-.02 7.63-2.18 19.34-7.64 25.47-5.2 5.72-40.37 8.52-47.61-.46-2.8-3.49-4.38-12.84-4.36-18.03h.02zM881.66 575c1.16 11.5-28.51 31.5-36.23 31.12-8.2-.48-17.95-7.28-23.34-12.67l-46.92-47.12c-4.3-4.38-12.19-15.8-10.76-21.34 2.57-9.85 23.02-30.1 33.01-31.4 5.31-.72 14.93 6.25 19.29 10.55l55.34 55.01c3.67 3.67 9.13 11.42 9.6 15.88zM946.64 378.37l-78.01-.53c-6.14-.08-17.82-2-21.08-6.26-6.1-8.03-6.18-36.82-1.01-45.6 2.93-4.91 16.59-7.35 22.7-7.37l66.48.12c7.62 0 19.32 2.18 25.43 7.65 5.72 5.2 12.46 40.4 3.49 47.65-3.49 2.8-12.83 4.38-18.02 4.36zM814.35 193.55c-4.99 4.62-15.46 11.1-20.39 9.53-11-3.67-35.06-32.12-28.1-40.42 12.8-15.24 70.1-76.14 81.6-74.87 10.15 1.11 29.66 21.42 29.82 35.1.08 6.73-7.16 19.22-12.65 24.31l-50.2 46.35zM648.3 23.8l-.53 74.14c-.08 6.14-2 17.83-6.25 21.1-8.02 6.1-36.78 6.18-45.55 1.01-4.91-2.93-7.35-16.6-7.37-22.73l.12-66.54c0-7.63 2.18-19.34 7.64-25.46 5.21-5.73 40.35-8.52 47.61.46 2.8 3.48 4.38 12.84 4.36 18.03z"/><path fill="#cde5f2" d="M550.8 374c89.97 0 162.91 72.83 162.91 162.67q0 1.27-.02 2.56A108 108 0 0 1 737 606.37c0 59.9-48.62 108.45-108.6 108.45a108 108 0 0 1-42.45-8.6 162.9 162.9 0 0 1-143.75 86.05c-32.16 0-62.15-9.3-87.4-25.37-37.13 20.77-83.46 33.1-133.7 33.1C98.99 800 0 727.17 0 637.33c0-80.42 79.33-147.2 183.55-160.32a147.4 147.4 0 0 1 126.76-72.02c40.58 0 77.32 16.37 103.98 42.86A162.8 162.8 0 0 1 550.79 374"/></svg>