<svg xmlns="http://www.w3.org/2000/svg" width="970" height="800" fill="none" viewBox="0 0 970 800"><path fill="#f9cc76" d="M618.88 519.86c94.58 0 171.25-76.73 171.25-171.36s-76.67-171.36-171.25-171.36c-94.57 0-171.24 76.72-171.24 171.36 0 94.63 76.67 171.36 171.24 171.36"/><path fill="#cde5f2" d="M550.8 374c89.97 0 162.91 72.83 162.91 162.67q0 1.27-.02 2.56A108 108 0 0 1 737 606.37c0 59.9-48.62 108.45-108.6 108.45a108 108 0 0 1-42.45-8.6 162.9 162.9 0 0 1-143.75 86.05c-32.16 0-62.15-9.3-87.4-25.37-37.13 20.77-83.46 33.1-133.7 33.1C98.99 800 0 727.17 0 637.33c0-80.42 79.33-147.2 183.55-160.32a147.4 147.4 0 0 1 126.76-72.02c40.58 0 77.32 16.37 103.98 42.86A162.8 162.8 0 0 1 550.79 374"/></svg>