<svg xmlns="http://www.w3.org/2000/svg" width="1382" height="800" fill="none" viewBox="0 0 1382 800"><path fill="#9ecced" d="M1032.83 0c168.72 0 305.5 136.77 305.5 305.48q0 2.4-.04 4.8a202.8 202.8 0 0 1 43.72 126.1c0 112.47-91.19 203.65-203.66 203.65-28.25 0-55.15-5.75-79.6-16.14-51.44 96.17-152.85 161.6-269.54 161.6a304 304 0 0 1-163.91-47.65c-69.62 39-156.5 62.16-250.7 62.16C185.62 800 0 663.23 0 494.52 0 343.5 148.75 218.08 344.19 193.44c48.2-80.99 136.6-135.25 237.69-135.25 76.1 0 145 30.75 194.98 80.5C831.4 55.18 925.66 0 1032.83 0"/></svg>