<svg xmlns="http://www.w3.org/2000/svg" width="970" height="800" fill="none" viewBox="0 0 970 800"><path fill="#f9cc76" d="M618.882 519.855c94.576 0 171.246-76.721 171.246-171.357 0-94.637-76.67-171.357-171.246-171.357s-171.247 76.72-171.247 171.357c0 94.636 76.671 171.357 171.247 171.357M475.493 168.642c1.168 11.493-28.506 31.487-36.226 31.091-8.195-.476-17.954-7.253-23.339-12.662l-46.915-47.122c-4.296-4.38-12.175-15.793-10.769-21.342 2.573-9.848 23.022-30.1 33.019-31.408 5.305-.713 14.926 6.262 19.281 10.562l55.348 55.009c3.663 3.665 9.126 11.413 9.601 15.872M272.368 374.034c-8.967-7.272-2.257-42.425 3.484-47.657 6.117-5.489 17.796-7.629 25.437-7.649l66.474-.119c6.137.04 19.776 2.458 22.706 7.372 5.166 8.758 5.087 37.551-1.01 45.596-3.246 4.26-14.946 6.182-21.082 6.262l-78.015.535c-5.186 0-14.53-1.566-18.014-4.36zM406.045 599.499c-4.989 4.617-15.461 11.097-20.39 9.531-11.006-3.666-35.058-32.121-28.109-40.404 12.807-15.239 70.116-76.133 81.597-74.864 10.155 1.109 29.674 21.421 29.832 35.093.079 6.738-7.166 19.222-12.649 24.314l-50.202 46.349h-.079zM588.623 673.209l.535-74.151c.079-6.143 1.999-17.834 6.255-21.104 8.018-6.103 36.781-6.182 45.55-1.01 4.909 2.932 7.344 16.605 7.364 22.728l-.119 66.542c-.02 7.629-2.177 19.34-7.641 25.463-5.206 5.727-40.363 8.521-47.608-.456-2.791-3.487-4.375-12.84-4.355-18.032h.019zM881.655 575.005c1.168 11.493-28.505 31.487-36.226 31.111-8.195-.476-17.954-7.273-23.339-12.663l-46.915-47.121c-4.296-4.38-12.194-15.794-10.769-21.342 2.573-9.848 23.022-30.1 33.019-31.408 5.305-.713 14.926 6.262 19.281 10.562l55.349 55.008c3.662 3.666 9.125 11.414 9.6 15.873zM946.643 378.374l-78.014-.535c-6.137-.08-17.817-2.002-21.083-6.262-6.097-8.025-6.176-36.818-1.009-45.596 2.929-4.914 16.588-7.352 22.705-7.372l66.474.119c7.621 0 19.32 2.18 25.437 7.649 5.721 5.212 12.452 40.405 3.484 47.657-3.484 2.794-12.827 4.379-18.014 4.36zM814.352 193.55c-4.988 4.617-15.46 11.097-20.389 9.531-11.006-3.666-35.058-32.121-28.11-40.424 12.808-15.238 70.116-76.132 81.598-74.864 10.155 1.11 29.673 21.421 29.832 35.094.079 6.737-7.166 19.221-12.65 24.314l-50.201 46.349zM648.307 23.808l-.534 74.131c-.08 6.143-2 17.834-6.256 21.104-8.017 6.103-36.78 6.182-45.55 1.011-4.909-2.933-7.344-16.606-7.363-22.73l.118-66.54c0-7.63 2.178-19.34 7.641-25.464 5.207-5.727 40.344-8.52 47.609.456 2.791 3.488 4.375 12.84 4.355 18.032z"/><path fill="#fff" d="M550.795 374c89.975 0 162.915 72.828 162.915 162.666q-.001 1.284-.022 2.562c14.601 18.467 23.316 41.788 23.316 67.143 0 59.892-48.626 108.444-108.61 108.444-15.061 0-29.407-3.063-42.446-8.596-27.435 51.211-81.513 86.053-143.745 86.054-32.165 0-62.152-9.31-87.409-25.374C317.665 787.668 271.34 800 221.099 800 98.989 800 0 727.172 0 637.334c0-80.421 79.325-147.209 183.55-160.327 25.702-43.125 72.849-72.021 126.757-72.021 40.579 0 77.327 16.373 103.982 42.863C443.366 403.386 493.643 374 550.795 374"/></svg>