<svg xmlns="http://www.w3.org/2000/svg" width="904" height="800" fill="none" viewBox="0 0 904 800"><path fill="#9ecced" d="M559.89 6.38c107.7-27.43 217.19 36.14 247.31 142.47a136.4 136.4 0 0 1 92.55 96.95c18.59 73.06-25.54 147.36-98.55 165.96q-3.25.82-6.49 1.49 3.3 9.18 5.76 18.83c27.88 109.59-38.3 221.04-147.83 248.93-59.25 15.1-119.04 2.64-165.87-29.33-31.54 65.17-95.24 118.45-177.06 139.29C172.7 825.87 36.8 756.57 6.18 636.19c-26.99-106.07 36.77-216.4 146.05-265.01-3.7-8.7-6.8-17.78-9.2-27.22-25.22-99.15 34.66-199.99 133.76-225.23 49.38-12.58 99.2-4 139.85 20.05 21.6-63.26 73.68-114.69 143.25-132.4"/></svg>