<svg xmlns="http://www.w3.org/2000/svg" width="964" height="801" fill="none" viewBox="0 0 964 801"><path fill="#c58f79" d="M651.59 351.34c-7.46-2.27-27.25-6.86-35.56-2.8-8.3 4.07-3.97 6.67-.58 7.63 3.55.98 13.92 3.6.46 6.87-5.88 1.42-12.09 4.12-16.49 7.77-2.73 2.28-2.86 6.69 8.84 10.7 11.71 4.03 25.41 5.72 35.74 1.3 10.32-4.4 8.36-5.22 8.36-5.22z"/><path fill="#e2f1df" d="M724.85 303.03c15.32-24.9 17.57-30.24 26.12-51.06 5.35-13 14.1-27.85 22.38-35.78 12.25-11.73 17.9-17.28 32.02-20.38 8.03-1.76 19.4 4.18 21.77 16.54s-9.57 24.84-13.23 28.01-11.36 8.32-25.3 30.58c-10.84 17.34-9.8 19.14-26.33 55.42-8.1 16.43-14.92 23.43-29 31.2-15.04 8.3-36.89 16.85-83 27.49-.75-6.57-3.15-38.4-3.15-38.4 54.35-15.88 71.14-32.93 77.72-43.62"/><path fill="#c58f79" d="M933.73 454.34c-3.08 6.23-10.08 23-8.1 31.03 1.97 8.03 3.37 9.61 13.78 18.64 2.34 2.03 6.78 3.41 12-6.29s8.84-21.55 6.91-31.43c-1.93-9.89-2.91-8.27-2.91-8.27l-21.66-3.68z"/><path fill="#e2f1df" d="M855.11 210.95c.2-5.78 4.02-22.08 19.43-17.34 15.87 4.88 32.98 11.08 49.34 34.57 15.75 22.6 29.22 52.88 33.16 110.7 4.37 64.3 5.89 123.35 5.97 124.3l-38.01-.8c-.08-.97-.15-47.84-7.47-132.43-2.05-23.8-8.9-49.67-17.42-62.07-5.53-8.06-13.15-17.99-18.23-22.51 0 0-8.81-6.12-15.45-10.9-10.82-7.8-11.56-16.03-11.32-23.5z"/><path fill="#1e1a28" d="M769.72 780.68s-4.84 12.93-5.4 15.8c-.55 2.48-1.75 3.36 7.14 3.44 0 0 52.8.83 56.39 0 2.38-.55 5.35-3.83 3.74-18.5zM876.27 781.5s-.85 12.43.98 15.14c1.85 2.7 2.95 4.46 19.16 3.57 0 0 45.72.82 47.17-.35 1.45-1.18-6.89-19.22-6.89-19.22z"/><path fill="#032c30" d="M764.54 387.06c-.36 24.44-3.6 151.84-3.97 165.6-.55 13.77-.92 130.89-.92 143.88s-.37 84.33 1.28 86.66 69.84 4.07 73.3 1.55c3.48-2.52 0-117.7.56-131.46.36-13.77 2.55-81.83.36-137.29-2.2-55.45 1.79-65.72 3.08-65.72 1.28 0 2.4-2.72 7.52 49.63s15.54 147.57 17.73 170.63c2.2 23.28 8.23 113.45 10.61 114.41 2.38.98 66.92-.19 69.1-.96 2.2-.78-3.47-76.02-4.2-84.36-.72-8.34-15.35-193.32-16.08-203.22-.73-9.88-7.31-113.24-7.31-113.24s-77.15.2-83.73.78c-6.77.38-67.33 3.1-67.33 3.1h.01z"/><path fill="#e2f1df" d="M914.9 355.16c.08 19.2 1.52 37.7 1.9 45.84 0 0-78 7.77-110.06 3.92 0 0-41-1.83-43.14-1.83 0 0 .51-33.7.48-52.87.28-29.25.87-54.1 1.64-75.04.78-20.94-1.9-61.73 25.17-75.7 16.95-8.73 21.84-8.17 45.4-9.33 19.26-.78 46.6 2.16 57.7 12.44 14.2 12.98 15.9 40.95 17.87 67.78 1.3 30.26 2.28 59.59 3.04 84.79"/><path fill="#c58f79" d="M881.98 144.7c-.24-1.3-1.4-2.01-2.76-2.6.55-10.58-1.65-17.31-6.38-24.1-3.96-5.71-9.5-11.4-17.25-14.16-6.87-2.45-23.72-1.8-30.49.92-16.19 6.14-22.57 21.15-23.4 37.73-1.38.35-2.6.87-3 2.11-.9 2.12-1.34 4.13-.76 6.46.54 1.89 1.74 3.07 4.15 4.68.65 7.71 3.1 15.09 7.1 21.21l.83 1.26c6.28 9.62 14.7 15.23 24.76 15.23h7.94c10 0 19.5-5.55 25.78-15.1l2.5-3.8a46 46 0 0 0 7.03-19.77c2.05-1.03 3.2-1.97 3.88-3.55.87-2.21.68-4.28.07-6.51"/><path fill="#7f433b" d="M861 104.7c-5.37-2.9-10.93-5.33-17.25-5.51a38 38 0 0 0-4.51-.28c-11.7 0-24.62 6.72-30.87 16.03-8.3 14.06-6.9 16.18-7.92 24.48-.13 1.07.05 2.13.13 3.19q3 .5 6.16.5c15.59 0 29.02-9.6 35.19-23.44 5.9 14.59 19.66 25.14 35.06 22.82.96-.15 1.93-.12 2.88-.24.24-2 .24-4.03.26-6.1.12-11.4-7.04-24.95-19.14-31.46"/><rect width="162.17" height="238.21" x="530.82" y="108.37" fill="#68b096" rx="10.32" transform="rotate(9 530.82 108.37)"/><rect width="113.65" height="24.71" x="546.72" y="165.91" fill="#f8de9c" rx="4.94" transform="rotate(9 546.72 165.91)"/><rect width="69.18" height="24.71" x="538.99" y="214.72" fill="#f8de9c" rx="4.94" transform="rotate(9 538.99 214.72)"/><rect width="69.18" height="24.71" x="531.26" y="263.52" fill="#f8de9c" rx="4.94" transform="rotate(9 531.26 263.52)"/><path fill="#1e1a28" d="M181.11 780.71s-4.82 12.9-5.37 15.77c-.55 2.48-1.75 3.36 7.11 3.44 0 0 52.59.83 56.17 0 2.37-.55 5.33-3.83 3.73-18.46zM287.25 781.53s-.85 12.41.98 15.11c1.84 2.7 2.93 4.45 19.08 3.56 0 0 45.54.82 46.99-.35 1.44-1.17-6.86-19.18-6.86-19.18z"/><path fill="#68b096" d="M175.96 387.82c-.37 24.39-3.6 151.56-3.96 165.29-.55 13.74-.91 130.65-.91 143.61s-.37 84.18 1.27 86.5c1.64 2.33 69.57 4.06 73.02 1.55s0-117.47.55-131.22c.36-13.74 2.54-81.67.36-137.03s1.78-65.6 3.07-65.6 2.4-2.72 7.5 49.54 15.47 147.3 17.65 170.32c2.19 23.23 8.2 113.23 10.57 114.2s66.66-.2 68.84-.97-3.47-75.88-4.19-84.2-15.3-192.97-16.02-202.84c-.73-9.87-7.28-113.03-7.28-113.03s-76.86.19-83.4.77c-6.75.38-67.07 3.1-67.07 3.1z"/><path fill="#c58f79" d="m53.48 352.13.77 26.21s1.95.81-8.33 5.22-23.93 2.71-35.6-1.3c-11.66-4-11.53-8.41-8.8-10.69 4.38-3.65 10.56-6.33 16.42-7.76 13.4-3.25 3.08-5.87-.45-6.86-3.38-.95-7.7-3.55.57-7.6s28 .52 35.42 2.78"/><path fill="#032c30" d="M129.85 294.43c15.27-24.85 16.52-27.67 30.39-48.24 7.85-11.63 13.07-21.03 21.31-28.95 12.2-11.71 17.83-17.25 31.9-20.34 8-1.77 19.32 4.17 21.68 16.5 2.35 12.35-9.53 24.8-13.18 27.97s-15.61 14.16-25.2 27.8c-11.72 16.71-4.63 8.48-28.94 45.82-9.97 15.3-15.55 27.45-29.56 35.2-14.99 8.3-40.15 26.33-86.08 36.95-.74-6.56-3.81-40.36-3.81-40.36 54.14-15.85 74.94-41.68 81.5-52.35"/><path fill="#c58f79" d="M458.08 215.46c2.8-7.25 11.36-25.6 19.65-29.6 8.3-4 7.69 1 6.35 4.24-1.4 3.4-5.7 13.13 5.12 4.59 4.73-3.74 10.66-6.95 16.23-8.13 3.47-.75 7.02 1.86 2.98 13.52-4.04 11.64-11.12 23.43-20.93 28.82-9.8 5.37-9.24 3.34-9.24 3.34z"/><path fill="#032c30" d="M326.39 279.78c-37.01-19.78-62.43-36.26-66.63-55.22-1.77-8 1.33-19.8 12.08-25.52 9.18-4.88 16.89-3.66 23.59-.87 6.26 2.62 8.77 4.93 12.3 7.44 23.73 16.91 38.42 35.14 77.5 49.63 10.94 4.06 33.22-12.75 50.24-27.05 8.58-7.2 19-16.67 20.75-19.25l27.9 25.76c-6.89 7.29-44.29 54.42-91.03 64.58-18.2 3.96-53.22-12.28-66.72-19.5z"/><path fill="#032c30" d="M325.83 355.98c.09 19.16 1.52 37.64 1.9 45.76 0 0-77.7 7.75-109.64 3.9 0 0-40.84-1.82-42.96-1.82 0 0 .5-33.64.47-52.77.28-29.2.86-54 1.64-74.9s-1.9-61.62 25.07-75.56c16.88-8.71 21.75-8.16 45.21-9.32 19.2-.77 46.42 2.16 57.48 12.42 14.15 12.96 15.84 40.87 17.8 67.66 1.3 30.2 2.27 59.47 3.03 84.63"/><path fill="#c58f79" d="M293.03 144.56c-.24-1.31-1.4-2.02-2.74-2.6.55-10.57-1.65-17.28-6.36-24.07-3.94-5.69-9.45-11.36-17.18-14.12-6.85-2.45-23.63-1.8-30.37.91-16.13 6.13-22.48 21.11-23.3 37.66-1.38.36-2.6.87-3 2.11-.89 2.12-1.34 4.12-.76 6.45.54 1.88 1.74 3.06 4.14 4.67a46 46 0 0 0 7.07 21.18l.82 1.25c6.27 9.6 14.65 15.2 24.67 15.2h7.9c9.98 0 19.43-5.54 25.7-15.08l2.48-3.8a46 46 0 0 0 7-19.71c2.05-1.03 3.18-1.98 3.86-3.55.87-2.21.69-4.27.08-6.5"/><path fill="#1e1a28" d="M271.58 105.86c-4.11-2.18-8.34-4.08-12.95-4.91a13 13 0 0 0 4.6-3.81l.97-1.28c1.52-2 2.48-4.4 2.78-6.94l.28-2.45c.4-3.4-.42-6.86-2.3-9.65l-.73-1.08c-1.6-2.36-3.34-3.5-6.4-4.19a19.7 19.7 0 0 0-11.52.76c-5.04 1.75-8.56 6.6-8.87 12.21l-.16 2.76c-.2 3.4.81 6.74 2.81 9.4l.32.42a14 14 0 0 0 4.04 3.65c-9.83 1.68-19.63 7.47-24.8 15.05-8.18 13.64-6.8 15.7-7.8 23.75-.14 1.04.05 2.07.12 3.1q2.97.49 6.08.49c15.38 0 28.63-9.31 34.71-22.75 5.83 14.15 19.4 24.4 34.6 22.14.95-.15 1.96-.46 2.9-.57.24-1.94.18-3.57.2-5.58.11-11.06-6.94-24.21-18.88-30.52"/><circle cx="439.77" cy="123.53" r="123.53" fill="#68b096"/><path fill="#116e6b" d="M453.03 136.1c-5.48 5.48-2.53 2.53-41.92 30.26-9.13 6.42-20.51-4.94-14.1-14.08 27.68-39.46 24.73-36.51 30.21-42a18.25 18.25 0 0 1 25.81 25.82"/><path fill="#f9cc76" d="M426.53 110.97c5.48-5.48 2.54-2.53 41.93-30.26 9.13-6.42 20.5 4.94 14.1 14.08-27.68 39.46-24.74 36.51-30.22 42a18.25 18.25 0 1 1-25.8-25.82"/></svg>