<svg xmlns="http://www.w3.org/2000/svg" width="240" height="154" fill="none" viewBox="0 0 240 154"><path fill="#B4CEA0" d="M208.74 22.18c-12.6 0-22.49 6.85-27.7 16.8V0C124.24 3.14 0 .05 0 .05s1.47 61.72 5.5 90.28c5.22 53.46 69.1 62.33 69.1 62.33s56.77 8.88 79.82-24.86c18.73-27.4 24.6-52.45 26.15-60.89a31.24 31.24 0 0 0 30.03 17.76 31.37 31.37 0 0 0 29.36-29.73c.83-17.93-11.44-32.76-31.22-32.76Zm15.17 34.1a15.6 15.6 0 0 1-18.17 12.58 15.6 15.6 0 0 1-12.56-18.19 15.62 15.62 0 1 1 30.73 5.6Z"/></svg>