<svg xmlns="http://www.w3.org/2000/svg" width="1583" height="800" fill="none" viewBox="0 0 1583 800"><path fill="#f9cc76" d="M552.67 748.38H255.05l2.81-116.8 285.97-5.73z"/><path fill="#f9cc76" d="M542.82 597.2s5.63 88.17 9.7 151.18h-148.1c-3.66-27.8-5.13-25.51-6.74-25.51-1.28 0-3.95 5.32-5.6 25.5H255.45c1.24-62.4 2.4-123.08 2.7-143.88l.04-.03h-.03c.27-.01 114.91-5.1 127.59-5.8 12.34-1.1 157.07-1.46 157.07-1.46"/><path fill="#f9cc76" d="M541.55 549.78c.15 37.93 2.06 67.37 3.13 71.27 0 0-145.9 14.3-205.54 7.19 0 0-76.85-3.36-80.83-3.36 0 0 .23-40.23.15-75.25 0-46.64 2.37-120.13 3.75-158.44 1.45-38.24-2.9-112.8 47.4-138.26 31.51-15.98 40.61-14.91 84.43-17.05 35.86-1.45 86.64 3.98 107.29 22.71 26.45 23.7 30.74 74.79 34.4 123.8 3.68 49.02 5.51 121.28 5.74 167.32h.08z"/><path fill="#c58f79" d="M480.4 150.68c-.44-2.46-2.62-3.78-5.15-4.86 1.04-19.83-3.1-32.43-11.92-45.16-7.4-10.67-17.75-21.31-32.24-26.49-12.86-4.6-44.35-3.4-57 1.71-30.27 11.5-42.18 39.6-43.73 70.66-2.59.66-4.88 1.62-5.63 3.95-1.67 3.97-2.5 7.73-1.42 12.1 1 3.53 3.26 5.74 7.76 8.75 1.23 14.44 5.8 28.26 13.27 39.73l1.55 2.36c11.75 18.01 27.48 28.5 46.3 28.5h14.83c18.7 0 36.44-10.38 48.2-28.28l4.67-7.12c7.03-10.66 11.54-23.46 13.14-37 3.84-1.93 5.96-3.7 7.24-6.65 1.63-4.14 1.29-8 .15-12.2z"/><path fill="#1e1a28" d="M518.42 174.39c-2.03-10.45-14.65-24.02-19-30.8-11.54-18.02-16.3-27.27-16.3-27.27-12.56-25.7-39.87-46.95-70.9-48.44-15.98-.75-32.88-.46-48.08 8.5.09-.06-.08.04 0 0-22.01 11-39.32 40.1-35.06 65.88q.35 2.15.87 4.23c2.57-.08 5.48.57 7.79-.9 10.6-6.74 24.8-21.34 32.94-38.05 24.41 36.91 73.71 50.14 104.54 38.2v.1c2.54 1.08 4.71 2.4 5.17 4.87 1.14 4.19 1.48 8.06-.14 12.21-1.3 2.96-3.42 4.73-7.27 6.67-1.59 13.56-6.12 26.36-13.16 37.04l-4.69 7.13a69 69 0 0 1-13.37 15.1c.93 3.1 7.1 19.92 30.43 15.09 24.6-5.09 24.3-7.41 34.9-18.7 11.67-12.47 15.9-27.3 11.34-50.87"/><path fill="#c58f79" d="M761.1 537.59c13.94-4.25 50.95-12.85 66.47-5.23s7.43 12.49 1.09 14.27c-6.63 1.85-26.01 6.76-.86 12.86 11 2.66 22.6 7.72 30.82 14.57 5.12 4.27 5.36 12.52-16.52 20.04-21.89 7.53-47.5 10.7-66.8 2.43-19.3-8.25-15.63-9.78-15.63-9.78l1.44-49.17z"/><path fill="#f9cc76" d="M624.16 447.13c-28.64-46.61-32.84-56.61-48.82-95.6-10-24.36-26.36-52.14-41.85-67-22.89-21.97-33.46-32.35-59.84-38.15-15.02-3.31-36.28 7.82-40.7 30.97s17.89 46.5 24.74 52.44c6.85 5.95 21.22 15.58 47.27 57.27 20.28 32.47 18.32 35.83 49.23 103.76 15.15 30.77 27.9 43.87 54.2 58.41 28.13 15.55 68.97 31.57 155.18 51.48 1.38-12.3 5.87-71.9 5.87-71.9-101.6-29.72-132.99-61.66-145.28-81.68M372.94 274.73c-.36-10.82-7.52-41.34-36.32-32.47-29.65 9.14-61.65 20.76-92.23 64.74-29.43 42.31-54.62 99-61.97 207.26-8.18 120.43-11.02 230.99-11.17 232.78l71.06-1.53c.14-1.8.27-89.56 13.95-247.96 3.83-44.56 16.63-93 32.57-116.23 10.34-15.07 24.57-33.68 34.07-42.14 0 0 16.47-11.47 28.88-20.42 20.23-14.59 21.62-30 21.16-44z"/><path fill="#054449" d="M352.73 247.54a12 12 0 0 1 5.6 5.35l.6 1.1a14.6 14.6 0 0 1 1.44 9.56l-.45 2.37a14 14 0 0 1-3.06 6.56l-1 1.19a11.6 11.6 0 0 1-9.69 4.28l-2.86-.21c-3.64-.27-6.54-2.34-8.58-5.67l-.27-.44a14.5 14.5 0 0 1-1.94-9.34l.34-2.68c.7-5.45 4.3-9.93 9.1-11.3 2.51-.7 8.39-1.86 10.77-.77M372.6 273.97a12 12 0 0 1 5.6 5.34l.59 1.1a14.6 14.6 0 0 1 1.44 9.56l-.44 2.37a14 14 0 0 1-3.07 6.57l-1 1.18a11.6 11.6 0 0 1-9.68 4.28l-2.87-.21c-3.64-.27-6.54-2.34-8.58-5.67l-.27-.43a14.5 14.5 0 0 1-1.94-9.35l.35-2.68c.7-5.45 4.3-9.92 9.1-11.3 2.5-.7 8.38-1.86 10.76-.77M403.37 279.35a12 12 0 0 1 5.6 5.35l.6 1.1a14.6 14.6 0 0 1 1.44 9.56l-.44 2.36a14 14 0 0 1-3.07 6.57l-1 1.18a11.6 11.6 0 0 1-9.69 4.28l-2.86-.2c-3.64-.28-6.54-2.34-8.58-5.68l-.27-.43a14.5 14.5 0 0 1-1.94-9.35l.34-2.68c.7-5.45 4.3-9.92 9.1-11.3 2.51-.7 8.39-1.86 10.77-.77M435.06 272.36a12 12 0 0 1 5.6 5.35l.6 1.09a14.6 14.6 0 0 1 1.44 9.56l-.44 2.37a14 14 0 0 1-3.07 6.57l-1 1.18a11.6 11.6 0 0 1-9.69 4.28l-2.86-.2c-3.64-.28-6.54-2.35-8.58-5.68l-.27-.43a14.5 14.5 0 0 1-1.94-9.35l.34-2.68c.7-5.45 4.3-9.92 9.1-11.3 2.51-.7 8.39-1.86 10.77-.77M461.46 252.46a12 12 0 0 1 5.6 5.35l.6 1.1a14.6 14.6 0 0 1 1.44 9.56l-.44 2.36a14 14 0 0 1-3.07 6.57l-1 1.18a11.6 11.6 0 0 1-9.68 4.28l-2.87-.2c-3.64-.28-6.54-2.34-8.58-5.68l-.27-.43a14.5 14.5 0 0 1-1.94-9.35l.34-2.68c.7-5.45 4.3-9.92 9.1-11.3 2.51-.7 8.4-1.86 10.77-.77"/><path fill="#7f433b" d="M803.06 281.9c-5.23-13.56-21.26-47.91-36.78-55.41s-14.39 1.85-11.89 7.94c2.63 6.34 10.7 24.58-9.58 8.58-8.85-6.99-19.96-13-30.4-15.22-6.49-1.4-13.12 3.49-5.57 25.31 7.56 21.81 20.82 43.89 39.19 53.97 18.36 10.06 17.3 6.25 17.3 6.25l37.73-31.4h-.01z"/><path fill="#054449" d="M1049.61 402.34c69.28-37.03 116.87-67.9 124.74-103.4 3.31-14.98-2.49-37.08-22.62-47.78-17.2-9.14-31.62-6.86-44.16-1.63-11.73 4.9-16.43 9.23-23.03 13.93-44.42 31.66-71.92 65.8-145.1 92.94-20.47 7.59-62.18-23.88-94.05-50.65-16.05-13.49-35.58-31.22-38.83-36.05l-52.25 48.23c12.9 13.64 82.92 101.9 170.43 120.93 34.06 7.4 99.62-23 124.9-36.5z"/><path fill="#68b096" d="m725.4 187.07 171.92-31.82a10.36 10.36 0 0 1 12.01 8l52.42 242.14a10.34 10.34 0 0 1-7.63 12.24L784.44 459.8a10.36 10.36 0 0 1-12.62-7.86l-54.67-252.47a10.36 10.36 0 0 1 8.24-12.38z"/><path fill="#054449" d="M1328.39 546.3c.16 35.88 2.85 70.47 3.56 85.69 0 0-145.48 14.51-205.25 7.3 0 0-76.46-3.41-80.44-3.41 0 0 .95-63 .89-98.81.52-54.67 1.62-101.12 3.06-140.25 1.45-39.14-3.53-115.38 46.94-141.48 31.61-16.32 40.72-15.28 84.65-17.45 35.93-1.45 86.9 4.04 107.6 23.25 26.5 24.26 29.65 76.54 33.33 126.69a12453 12453 0 0 1 5.67 158.47z"/><path fill="#7f433b" d="M1268.03 150.4c-.45-2.45-2.61-3.77-5.14-4.85 1.03-19.8-3.08-32.37-11.89-45.08-7.39-10.65-17.71-21.27-32.17-26.44-12.83-4.59-44.24-3.39-56.86 1.71-30.19 11.48-42.08 39.53-43.63 70.52-2.58.67-4.86 1.62-5.61 3.95-1.66 3.96-2.5 7.71-1.42 12.08 1.01 3.52 3.26 5.73 7.75 8.73 1.22 14.42 5.78 28.21 13.23 39.66l1.55 2.35c11.73 17.98 27.41 28.45 46.19 28.45h14.79c18.67 0 36.36-10.36 48.08-28.22l4.67-7.1c7.01-10.66 11.51-23.43 13.1-36.94 3.83-1.93 5.95-3.7 7.23-6.64 1.63-4.14 1.28-8 .14-12.18z"/><path fill="#1e1a28" d="M1288.66 119.5c-3.91-15.25-21.56-23.03-21.56-23.03s10.93-13.3-2.74-23.02-24.92-4.09-24.92-4.09.31-11.63-16.4-17.91-27.35 3.08-27.35 3.08-12.76-9.2-29.78-3.08c-17.03 6.15-16.36 18.43-16.36 18.43s-26.49-2.04-37.13 12.28c-10.63 14.32 0 25.59 0 25.59s-18.23 6.14-18.23 21.48 18.23 22 18.23 22l5.29-4.82q2.17-.44 4.34-.98c22.74-5.59 40.98-17.3 51.43-31.28 18.84 17.3 46.51 27.18 75.48 26.06 2.84 6.66 7.81 13.62 16.17 13.62 26.42 0 26.72-21.93 23.54-34.31z"/><path fill="#faf7f4" d="M827.47 224.2c.7.86 1.34 1.8 2.6 1.4.87-.18 1.27-.8 1.2-1.65-.1-1.15-.7-1.62-2.29-1.78.11-.72.79-.8 1.29-1.1-.74-.5-1.97-.26-2.35.58-.35 1.1-1.42 1.75-1.95 2.67-8.23-3.29-17.08-.28-25.24 1.86-6.25 1.93-12.7 4.4-17.56 8.91-2.42 2.5-4.44 4.5-6.16 7.64a8 8 0 0 0-8.02-.94l.13.6a7.8 7.8 0 0 0 5.57 5.58c-1.1 1.88-.53 5.59-3.31 5.55-1.81.13-1.52.86-.62 2.3.67 1.01 2.1 2.36 3.81 2.27 4.1.12 8.72-.9 12.74-1.56 0 0 3.3 6.43 3.57 7.44.1.43.23 2.38.27 2.84.02.21.15.29.23.27s2.28-.5 2.64-.56c.22-.04.26-.16.26-.26l-.18-11.12.36-.1s4.12 5.86 4.43 6.57c.2.45.78 3.4.82 3.53.02.13.13.15.17.14l2.59-.55c.15-.03.18-.1.2-.23.23-2.26-.93-8.95-1.21-10.96 5.61-1.1 9.34-1.77 15.94-3.4 0 0 3.14 6.4 3.3 7.25.07.32.23 3 .24 3.16 0 .11.07.23.17.21s2.16-.45 2.8-.6q.22-.04.23-.32c.1-2.95-.04-8.25-.38-10.94l.58.19s2.84 4.72 3.06 5.76c.09.4.32 3.17.4 4.13.01.21.17.33.31.3s2.16-.45 2.75-.59c.14-.02.21-.13.22-.23.27-4.33.21-10.2.65-14.25.02-.2.2-.6.28-.81 3.01-6.59.99-13.9-4.72-18.06-.47-.33-.36-.77.18-1.14m1.2-.93c.81-.18 1.9.24 1.27 1.17-.81.6-1.47-.35-1.27-1.17"/><g fill="#faf7f4" clip-path="url(#a)"><path d="M857.1 212.37c-6.53-1.4-11.28 1.37-11.28 1.37s4.76 5.73 10.68 7.03c5.71.48 8.18-3.44 8.18-3.44s-1.07-3.55-7.59-4.96M863.84 212.88l1.86 5.94.85 4.02c.69.42 1.12.78 1.19.85 0-.1.03-.85.38-1.85l-2.01-9.44z"/><path d="M867.74 223.7s.03-5.98 7.83-7.64 10.91 4 12.94 7.4c2.03 3.42 2.49 7.6 1.55 13.42s-6.76 10.93-8.53 11.84c-.69.35-2.68 1.2-4.49.83-2.44-.24-1.8.72-6.45 1.71-4.65 1-13.08-.26-18.08-9.81 0 0-4.02-7.86-1.03-13.97 1.68-3.44 2.84-4.44 7.58-5.87s8.69 2.09 8.69 2.09z"/></g><path fill="#faf7f4" d="M855.64 290.82c-15.8-5.31-31.4-1.8-33.83-1.23l-2.9-1.48c-3.01-1.53-5.1-1.76-5.42-1.74-.15.2-.86 1.65-1.74 3.21-1 1.79-2.1 3.57-2.1 3.57l.78.52c-4.16 1.65-8.66 3.27-12.56 5.09-4.85 2.27-8.5 3.82-12.6 6-1.91-.47-3.37-.74-5.37-1.26-2.86-.93-8.7-2.72-8.92-2.42-.17.43.95 2.87 2.56 9.1.62 2.87 1.48 10.62 1.88 10.64.5.06 7.04-6.64 10.48-10.67 2.4.21 5.43.38 8.42.32-.46.34-.85.61-.93.72.07.17.92.9 1.7 1.94.83 1.12 1.65 2.33 1.78 2.4 1.58-.93 4.96-3.9 5.92-5.1 5.95.09 10.9-.18 16.86-1 23.38-3.23 32.74-11.16 36.4-16.65v-.01l.12-.17c.72-1.17-.1-1.62-.53-1.78M877.6 261.6l2.9 3.41c3.12 3.83 6.34 7.55 9.34 11.44 2.57 3.3 4.88 6.82 6.33 10.8a19 19 0 0 1 1.26 6.5 9.5 9.5 0 0 1-3.54 7.66c-3.77 3.31-8.1 4.27-12.9 2.7-1.81-.56-3.6-1.22-5.05-2.5a11 11 0 0 1-3.44-5.58c-.97-3.73-.77-7.48-.53-11.29.14-2.36.75-4.65 1.3-6.97 1.14-4.64 2.41-9.27 3.6-13.93.22-.6.43-1.21.74-2.23"/><path fill="#faf7f4" stroke="#faf7f4" stroke-width=".06" d="M815.03 336.74c-.03-3.64 2.57-6.3 6.34-6.8l.37-.05.3-.02a6.6 6.6 0 0 1 6.6 5.15c.84 3.5-.85 6.73-4.36 8.12l.84 3.92c.88-.7 1.74-1.5 2.64-2.25.92-.76 1.87-1.5 2.9-2.07 2.08-1.15 4.11-1.37 5.84-.77a6.7 6.7 0 0 1 3.82 3.74l.17.39.1.3a6 6 0 0 1-5.5 7.59q-2.99.24-4.72-1.33-1.7-1.56-2.28-4.89-1.55 1.35-1.58 4.55-.04 3.21 1.52 8.21c.8-.68 1.47-1.43 2.17-2.15a11.3 11.3 0 0 1 7.16-3.53c1.6-.06 3.2.42 4.75 1.67a7.6 7.6 0 0 1 2.44 3.95c.41 1.59.33 3.32-.54 4.8a7 7 0 0 1-3.76 2.88 7.2 7.2 0 0 1-4.88-.03 7 7 0 0 1-4.18-6.69l.02-.17c.02-.2.07-.5.14-.76-.49.27-.91.89-1.2 1.64-.31.8-.47 1.72-.4 2.54.38 4.42 1.29 8.25 2.13 12.68 1.46-2.33 3.06-4.39 5.4-5.75a11.4 11.4 0 0 1 5.08-1.73c1.7-.09 3.4.39 5.1 1.66 2.44 1.8 3.27 5.07 2.28 8.27a6.2 6.2 0 0 1-2.33 2.94 8 8 0 0 1-4.2 1.52 6 6 0 0 1-5.08-2.33 9 9 0 0 1-1.78-5.7c-2.17 2.68-2.62 5.6-2.08 8.67.55 3.2 1.3 6.36 2 9.52.14.66.23 1.23.05 1.68-.18.46-.62.78-1.52.97-.8.18-1.3.02-1.62-.33-.31-.36-.45-.9-.57-1.49-.6-2.9-1.16-5.82-1.88-8.7-.56-2.22-1.25-4.42-2.84-5.86q0 .7.03 1.3l.03 1.25a7 7 0 0 1-.36 2.32c-.92 2.64-3.27 3.75-6 3.99a5 5 0 0 1-3.38-.82 7 7 0 0 1-2.21-2.6 6.8 6.8 0 0 1 1.63-8.63c2.45-1.92 6.5-2.91 9.79-.17.51.43 1 .9 1.7 1.56-.96-4.54-1.89-8.3-2.98-12.53-.32-1.26-1.36-2.45-2.65-3.35a8.3 8.3 0 0 0-4.07-1.5 9 9 0 0 1 2.05 2.34l.23.4q.85 1.92.56 3.62a7 7 0 0 1-1.5 3.22 6.3 6.3 0 0 1-6.34 2.47 6.2 6.2 0 0 1-4.35-3 7.5 7.5 0 0 1-.6-5.44c.76-3.28 3.98-5.43 7.7-5.84l1.24-.06c1.12-.04 1.91-.05 2.7.06 1.04.15 2.08.5 3.86 1.26a29 29 0 0 0-1.44-7.12c-.78-2.23-1.87-4.1-3.26-4.93.3.74.39 1.24.55 2.15a5 5 0 0 1-.53 3.18 6.4 6.4 0 0 1-2.69 2.21c-2.9 1.5-6.2 1.06-7.87-1.2-1.65-2.27-2.15-5.91 0-8.25a7.7 7.7 0 0 1 4.7-2.19 9 9 0 0 1 5.48.98l2.46 1.39-.65-3.07c-2.41-.36-4.08-1.3-5.14-2.56a6.8 6.8 0 0 1-1.55-4.4Z"/><path fill="#faf7f4" d="M911.45 364.28c-.4-2.67-4.63-40.14-5.12-44.49a10 10 0 0 0-.56-2.51c-.15-.34-12.32 2.63-14.74 3.12-2.42.53-14.43 3.1-14.56 3.28-.12.16.55 2.61.55 2.61.92 2.4 12.75 38.84 13.64 41.88s.99 3.92 2.12 3.83c.24 0 1.16-.15 2.45-.4.64 3.28 2 9.9 2.33 10.03.43.15 4.5-.22 6.53-.62 2.85-.6 6.44-2.05 6.47-2.39 0-.24-1.17-6.56-1.78-9.78 1.13-.3 1.96-.55 2.27-.73 1.1-.7.73-1.57.4-3.8z"/><path fill="#c58f79" d="M1309.74 630.6c-11.99 3.99-42.56 16.5-50.18 29.72-7.63 13.2-7.79 17.2-5.6 43.16.5 5.86 4.58 13.7 23.8 8.02 19.22-5.66 39.11-16.3 49.14-31.88 10.04-15.59 6.7-14.81 6.7-14.81z"/><path fill="#054449" d="M1221.05 282.63c3.67-23.9 15.96-40.02 32.96-38.5 45.54 10.94 100.71 49.73 146.29 113.72 16.64 23.35 51.94 80.06 51.94 114.94-1.2 89.4-102.28 189.03-114.17 203.58l-52.36-44.76c3.33-2.01 28.73-31.15 47.4-55.72 26.03-48.54 42.77-81.28 42.77-103.1-16.19-61.65-51.11-89.25-115.82-127.79 0 0-22.45-12.42-31.84-27.23-8.68-13.66-9.01-23.08-7.16-35.14z"/><path fill="#e2f1df" d="M1243.2 348.29a23 23 0 0 0-11.73-3.15 20.5 20.5 0 0 1 40.23 1.75c-4.11-.36-8.26.4-11.95 2.2a8.36 8.36 0 0 0-16.55-.8m28.7 1.35c-12.01-1.4-22.74 8.5-22.3 20.58a20.53 20.53 0 0 0 22.31-20.4zm-40.87-1.78a20.5 20.5 0 0 0 15.82 21.93v-.12c0-3.79.93-7.5 2.72-10.82a20.2 20.2 0 0 0-18.54-10.99"/><path fill="#fff" d="M1526.38 630.84a55.8 55.8 0 0 1 55.81 55.81V800H0V686.65a55.8 55.8 0 0 1 55.82-55.81z"/><defs><clipPath id="a"><path fill="#fff" d="m845.7 213.22 39.57-8.41 8.84 41.55-39.57 8.41z"/></clipPath></defs></svg>