<svg xmlns="http://www.w3.org/2000/svg" width="880" height="636" fill="none" viewBox="0 0 880 636"><path fill="#7F433B" d="M879.33 300.01c-20.63 7.37-63.14 14.8-80.37 9.7-23.92-7.09-37.47-28.34-55.78-49.66-9.8-11.39-35.65-29.87-49.93-40.98-11.97-9.3-58.78-25.79-75.9-28.11-20.8-2.84-67.8-4.76-117.68-1.76-39.9 2.44-84.4 5.27-100.27 3-15.92-2.26-82.3-19.9-94.6-26.24-9.07-4.65-22.16-11.45-32.76-21.54-10.72-10.83-24.66-25.96-27.72-30.5-4.37-6.34-24.66-41.94-31.8-48.51-1.02-.97-3.12-2.84-5.84-5.28a83.27 83.27 0 0 0 5.27-4.02c2.84-2.6 4.77-8.79 1.59-14.9-3.17-6.13-12.7-16.56-17.4-19.79-6.18-4.25-31.52-19.56-42.34-21.26-6.86-1.07-8.85 3.35-9.41 7.77-.4-.06-.51 0-.74 0-5.9-.17-44.67 5.38-50.1 8.05-5.45 2.66-30.39 32.82-33.73 33.9C56.47 50.88 9.42 59.73 5 61.48.58 63.25-.72 66.31.36 74.3c1.07 8 4.2 30.61 7.14 34.98 2.95 4.36 11.79 13.66 22.67 16.78 10.89 3.17 51.7 12.07 60.82 19.55 9.19 7.48 20.64 27.38 24.15 40.3 3.34 12.25 10.71 35.66 17.4 60.7.8 4.2 1.65 9.2 2.72 15.48 3.74 21.77 16.5 56.97 26.25 73.46 7.93 13.38 22.27 45.86 28.56 62.8h-.4c3.3 9.25 7.1 19.45 9.42 47.8 3.28 40.4 8.38 105.93 8.44 115.4 0 11.1-3.85 24.6-8.56 40.64-1.13 3.91-4.98 4.87-6.69 8-2.89 5.2-2.89 13.48-2.26 18.02.62 4.7 4.25 7.42 6.97 7.42h26.36c.68 0 3.85-.68 4.98-2.89 5.79-11.34 21.2-50.39 22.17-59.57 2.15-20.01 11.4-117.56 14.8-153.67 1.3.12 2.66.17 3.96.29 3.23 21.2 7.43 48.97 8.1 54.18 1.02 8.28 9.7 73.3 10.83 86.95.96 11.51-3.34 42.63-5.72 45.46-1.87 2.21-2.84 3.18-4.14 5.27-3.06 4.82-2.78 10.55-1.98 17.46.4 3.12 3.23 6.4 5.72 6.4h28.68c2.44 0 5.95-3.17 7.2-5.72 4.7-9.4 15.81-62.69 16.15-69.2.34-6.92 3.57-100.56 5.56-140.3 43.13-2.15 130.77-6.34 182.18-9.18 19.67 45.3 46.76 108.2 48.97 115.63 1.81 6.13 2.04 23.13 1.93 34.86-.06 8.73-10.88 40.59-11.57 42.91-.68 2.33-4.81 4.6-7.14 9.07a16.53 16.53 0 0 0-1.58 12.08c1.13 4.93 2.66 9.86 6.12 9.86h28.5c6.53 0 9.08-10.72 9.08-10.72s28.23-102.2 28.23-109.84c0-7.2-9.64-55.9-10.89-64.45 18.54 33.27 35.77 64.78 37.92 70.57 2.21 6 3.97 25.33 3.97 34.91 0 8.4-7.93 46.48-9.18 48.52-1.2 2.1-3.91 4.14-5.9 7.88-1.87 3.4-2.72 9.75-2.2 16.1.28 3.57 3.45 7.03 6.11 7.03h29.14c7.54 0 8.67-9.58 8.67-9.58s22.96-108.04 22.96-116.6c0-8.56-10.88-64.73-11.06-71.3-.1-5.79 10.2-51.02 11.97-62.41 1.58-8.56 2.38-32.31 2.38-32.31.62-17-2.84-52.83-2.84-53.17 9.41 11.8 22.33 26.81 33.33 34.64 15.08 10.7 33.16 24.37 54.98 26.07 21.83 1.7 55.21-7.65 63.88-10.66 27.1-9.35 21.77-40.13 21.77-40.13l-.06-.06Z"/></svg>