<svg xmlns="http://www.w3.org/2000/svg" width="950" height="962" fill="none" viewBox="0 0 950 962"><path fill="#9ECCED" d="M210.79 142.1c14.7 27.07 25.74 47.6 36.82 68.07 39.03 76.14 80.2 150.75 117.02 227.62 31.67 65.14 58.14 133.21 68.44 205.68a335.05 335.05 0 0 1-2.2 114.88c-10.3 53.4-41.24 91.48-87.56 117.08-75.8 42.47-152.37 43.2-228.16-.73-28.68-16.08-56.67-33.67-76.52-60.74C15.1 782.49 2.54 747.36.33 707.08c-2.94-66.6 13.97-129.54 31.68-193.21 11.03-39.53 29.4-76.14 47.11-113.41 36.09-74.67 74.32-148.55 111.14-223.22 5.88-9.53 11.76-19 20.59-35.14h-.06Z"/><g clip-path="url(#a)"><path fill="#054449" d="M535.24 523.13c-67.73-7.5-112.78 26.05-112.78 26.05s54.89 53.82 116.36 61c58.56-1.14 79.07-44.13 79.07-44.13s-14.9-35.42-82.63-42.92h-.02ZM604.29 521.24l25.65 59.15 13.25 40.38a97.3 97.3 0 0 1 13.03 7.46c-.09-1.04-.66-8.71 1.71-19.35l-31.18-95.01-22.46 7.37Z"/><path fill="#DA573B" d="M656.2 628.35s-6.52-61.57 70.67-86.9c77.2-25.33 115.3 29.48 139.8 62.46 24.5 32.97 33.9 75.41 31.06 136.33-2.84 60.9-56.06 119.68-72.92 130.88-6.57 4.35-25.83 15.25-44.57 13.3-25.04.16-17.46 9.35-63.5 24.46-46.05 15.11-133.01 11.18-194.7-81.73 0 0-49.75-76.61-26.43-142.6 13.15-37.24 23.76-48.7 70.16-68.44 46.4-19.74 90.54 12.2 90.54 12.2l-.12.05.02-.01Z"/></g><path fill="#C58F79" d="M781.35 395.85c-6.2-44.78-8.04-89.58-15.07-134.27-2.17-13.72-.84-28.22-3.42-42.06-4.17-22.48-16.52-43.85-36.45-55.39-3.42-1.97-14.79-5.56-15.44-8.7-.68-3.4 6.2-12.24 8.03-15.85 5.93-11.72 11.58-25.42 10.25-38.87-1.27-12.77-17.16-33.45-27.03-41.54-8.72-7.13-24.21-15.19-34.6-20.29-57.12-28-90.72-23.35-151.66-13.49-9.78 1.6-16.14 1.94-25.86 5.21-53.98 18.22-120.5 72.29-98.41 136.15 3 8.73 10.66 18.74 12.88 26.1 3.04 10.14-11.28 12.85-17.47 19.45-20.82 22.13-9.9 49.08-6.2 74.35.6 4.12 2.5 51.72 2.5 51.72 6.98 38.83 5.08 83.86 12.87 122 6.29 30.74 41.67 41.93 69.44 40.02 1.68-.1 5.02-.53 5.02-.53l263.83-29.98c19.25-1.82 36.96-6.74 46.22-20.58 11.47-17.16 3.06-35.58.57-53.49v.04Z"/><defs><clipPath id="a"><path fill="#fff" d="m420.73 543.9 391.76-128.55 137.2 418.09L557.93 962z"/></clipPath></defs></svg>