<svg xmlns="http://www.w3.org/2000/svg" width="977" height="820" fill="none" viewBox="0 0 977 820"><path fill="#9ECCED" d="M211.5 0c14.7 27.07 25.74 47.6 36.83 68.08 39.03 76.14 80.2 150.77 117.03 227.65 31.68 65.14 58.15 133.22 68.45 205.7a335.07 335.07 0 0 1-2.2 114.9c-10.3 53.41-41.24 91.48-87.57 117.1-75.8 42.46-152.4 43.2-228.2-.74C87.18 716.6 59.18 699 39.33 671.94c-23.53-31.47-36.1-66.61-38.3-106.88C-1.92 498.44 15 435.5 32.7 371.82c11.03-39.54 29.4-76.15 47.12-113.43 36.09-74.68 74.33-148.57 111.15-223.25 5.88-9.53 11.77-19 20.6-35.14H211.5Z"/><path fill="#054449" d="M520.72 337.03c-74.54-8.25-124.11 28.67-124.11 28.67s60.4 59.23 128.05 67.12c64.44-1.25 87.02-48.56 87.02-48.56s-16.4-38.98-90.94-47.23h-.02Zm75.98-2.08 28.23 65.1 14.59 44.43c4.98 2.36 9.78 5.1 14.34 8.21-.1-1.14-.73-9.59 1.88-21.3l-34.31-104.56-24.72 8.12h-.01Z"/><path fill="#DA573B" d="M653.84 452.82s-7.18-67.76 77.77-95.63c84.95-27.88 126.89 32.44 153.85 68.74 26.96 36.28 37.32 83 34.18 150.03-3.12 67.03-61.7 131.7-80.25 144.03-7.23 4.8-28.42 16.8-49.05 14.65-27.56.16-19.21 10.28-69.88 26.91-50.68 16.63-146.38 12.3-214.26-89.95 0 0-54.76-84.3-29.1-156.93 14.48-40.98 26.15-53.6 77.22-75.32 51.06-21.72 99.64 13.44 99.64 13.44l-.13.04v-.01Z"/></svg>