<svg xmlns="http://www.w3.org/2000/svg" width="352" height="477" fill="none" viewBox="0 0 352 477"><path fill="#7F433B" d="M351.87 196.47c-.9 29.53-38.1 128.1-63.4 152.73-17.6 17.11-22.5 10.1-29.2 39.33-1 4.4-5.2 35.73-7.2 44.23-.6 3.5-2 6.81-4.2 9.71-1.4 1.8-3.2 3.1-5.1 4.3-1.4.8-2.9 1.4-4.2 2.2-.6.4-1.4.8-1.7 1.4-.4.7-.3 1.61-.3 2.31 0 .9-.2 5.6.1 6.9.8 2.9 5 3.7 7.5 4.2 3.7.81 18 2.31 26.3 4.21 4.8 1.2 6.4 5 6.4 6.4 0 1.4 0 2.61-2 2.61h-77.9c-3.5-.2-4.1-1.5-4.2-4.5 0-1.8-.6-5.2 4.2-5.5l18.8-2.11v-9.9c0-1.6.4-3.81-.6-5.11-1.3-1.6-3.8-2.2-5.5-3.1-2.3-1.3-4.7-2.7-6.3-4.9-2.6-3.61-4.1-8.01-4.1-12.52 0-4.5 1.4-9.1 0-13.51-2.2-3.7-4.9-4.2-8.9-4.5-4.5-.3-14.1.4-18.6.7-10.1 3.8-5.2 17.41-6.8 25.32-.8 4.2-3.2 8-6.6 10.6-2.5 1.9-6 2.7-8.3 4.81-1.8 1.7-1.2 10-1.2 11.41 2.3.3 13.5 1.7 21.8 3.6 4.8 1.2 6.4 5 6.4 6.4 0 1.4 0 2.61-2 2.61h-73.2c-2 0-1.9-1.2-2-2.6 0-1.4 1.6-5.2 6.4-6.4 8.3-1.9 19.5-3.31 21.8-3.71 0-2.7 0-10.1-.5-10.9-.5-.81-1.4-1.21-2.2-1.51-3-1.4-5.9-3.1-8.2-5.5-4.4-4.7-5.4-11.72-4.9-18.12.3-4 1.5-10.3-2.9-12.51-4.3-2.2-7.7 1.9-9.8 5.1-4.5 6.81-9 13.52-13.5 20.32-4.4 6.6-13.9 20.92-23.9 17.61-1.4-.5-2.7-1.2-3.9-2.2-8-6.3-11.7-22.01-11.8-30.42 0-3.1-.5-13.31 2.2-15.71-10.7 9.7-27.3 16.91-39 8.5-11-7.9-10.6-24.02-8.5-37.33 14.1-89.57 52.2-180.64 107.9-252.2 4.3-5.5 8.8-11.01 14.9-14.41 7-4 43.3-7.51 55.2-19.82 22.8-23.72 27.8-69.26 58.5-85.67 24-12.81 44.8-11.8 69.3-.7 5.4 2.4 32.9 17.51 35.5 20.62 7.8 9.5 5.6 22.21 3.2 33.22h-6.8c-.2-5.7-3.4-8.6-5.8-10-.5-.2-1.1-.3-1.6-.2-12.2 1.7-24.7 7.8-31.5 17.4-8.4 11.82 1.6 41.84 8.6 53.75 4.7 7.9 44.7 31.53 43.4 73.06h-.1Z"/></svg>