<svg xmlns="http://www.w3.org/2000/svg" width="1322" height="800" fill="none" viewBox="0 0 1322 800"><path fill="#f8de9c" d="M1321.28 135v561.9c0 6.98-5.65 12.63-12.63 12.63h-110.27a9.1 9.1 0 0 1-9-8.23c-4.19-54.54-49.87-97.51-105.6-97.51s-101.42 42.97-105.6 97.51a8.93 8.93 0 0 1-9 8.23H420.73a9 9 0 0 1-8.93-7.95c-5.64-53.01-50.56-94.3-105.25-94.3s-99.6 41.29-105.25 94.3a8.9 8.9 0 0 1-8.93 7.95H41.78c-9.42 0-7.46-171.58-7.04-208.62a14.4 14.4 0 0 1 5.72-11.44c20.08-15.2 85.72-59 145.29-78.26a9.9 9.9 0 0 0 6.62-7.19c17.16-75.12 74.08-202.48 89.35-268.04 4.67-17.37 27.34-24.35 38.22-24.35h977.9a23.45 23.45 0 0 1 23.44 23.44z"/><path fill="#fff" d="M371.77 209c13.39 0 24.69 9.35 24.69 20.38v135.87c0 9.97-9.49 17.71-21.7 17.57l-72.18-.97c-15.28-.21-27.07-12.42-23.79-24.41l37.04-134.9c2.23-8.02 10.67-13.53 20.71-13.53h35.23"/><path fill="#1e1a28" d="M306.62 800a87.1 87.1 0 0 0 87.12-87.12 87.1 87.1 0 0 0-87.12-87.11 87.1 87.1 0 0 0-87.12 87.11A87.1 87.1 0 0 0 306.62 800M1083.85 800a87.1 87.1 0 0 0 87.11-87.12 87.1 87.1 0 0 0-87.11-87.11 87.1 87.1 0 0 0-87.12 87.11 87.1 87.1 0 0 0 87.12 87.12"/><path fill="#9bcab9" d="M1224.81 459.27H229.34a9.9 9.9 0 0 0-9.9 9.9v28.88a9.9 9.9 0 0 0 9.9 9.9h995.47a9.9 9.9 0 0 0 9.91-9.9v-28.88a9.9 9.9 0 0 0-9.91-9.9"/><path fill="#fff" d="M466 222.82c0-7.67 6.2-13.88 13.88-13.88h417.25c7.67 0 13.88 6.2 13.88 13.88v146.06c0 7.67-6.21 13.88-13.88 13.88H479.88c-7.67 0-13.88-6.21-13.88-13.88z"/><path fill="#f9cc76" d="M34.8 570.52H22.4c-12.28 0-22.39 2.86-22.39 6.35v56.92c0 3.48 10.04 6.34 22.39 6.34h12.42v-69.61"/><path fill="#0c4fa1" d="M525.66 0h39.2a25.7 25.7 0 0 1 25.62 25.73v85.85h-90.5V25.73A25.7 25.7 0 0 1 525.65 0"/></svg>