<svg xmlns="http://www.w3.org/2000/svg" width="593" height="800" fill="none" viewBox="0 0 593 800"><path fill="#1b469c" d="M583.43 17.68H309.39a8.84 8.84 0 0 0-8.84 8.84V198.9a8.84 8.84 0 0 0 8.84 8.84h274.04a8.84 8.84 0 0 0 8.84-8.84V26.52a8.84 8.84 0 0 0-8.84-8.84"/><path fill="#fcd600" d="m418.35 54.55 2.27 6.98h7.35l-5.95 4.32 2.27 6.97-5.94-4.3-5.95 4.3 2.27-6.97-5.94-4.32h7.35zM397.42 75.45l2.27 6.98h7.35l-5.95 4.31 2.28 6.98-5.95-4.31-5.94 4.3 2.26-6.97-5.94-4.31h7.35zM389.81 103.63l2.27 6.97h7.35l-5.95 4.32 2.28 6.98-5.95-4.32-5.95 4.32 2.27-6.98-5.94-4.32h7.35zM397.42 131.48l2.27 6.98h7.35l-5.95 4.32 2.28 6.98-5.95-4.32-5.94 4.32 2.26-6.98-5.94-4.32h7.35zM418.14 152.38l2.27 6.98h7.35l-5.95 4.31 2.27 6.99-5.94-4.32-5.95 4.32 2.27-6.98-5.94-4.32h7.35zM446.4 160.09l-2.26 6.98h-7.35l5.94 4.31-2.27 6.98 5.95-4.31 5.95 4.3-2.28-6.97 5.95-4.31h-7.35zM474.69 152.38l-2.28 6.98h-7.35l5.95 4.31-2.27 6.99 5.94-4.32 5.95 4.32-2.27-6.98 5.94-4.32h-7.35zM495.4 131.48l-2.27 6.98h-7.35l5.94 4.32-2.27 6.98 5.95-4.32 5.94 4.32-2.27-6.98 5.95-4.32h-7.35zM503 103.63l-2.26 6.97h-7.36l5.95 4.32-2.27 6.98 5.95-4.32 5.94 4.32-2.27-6.98 5.95-4.32h-7.35zM495.4 75.45l-2.27 6.98h-7.35l5.94 4.31-2.27 6.98 5.95-4.31 5.94 4.3-2.27-6.97 5.95-4.31h-7.35zM474.47 55.28l-2.27 6.98h-7.35l5.95 4.31-2.28 6.98 5.95-4.31 5.94 4.31-2.26-6.98 5.94-4.31h-7.35zM446.4 46.95l-2.26 6.98h-7.35l5.94 4.32-2.27 6.98 5.95-4.32 5.95 4.32-2.28-6.98 5.95-4.32h-7.35z"/><path fill="#9ecced" d="M300.55 4.42A4.4 4.4 0 0 1 304.97 0h17.68a4.4 4.4 0 0 1 4.42 4.42V800h-26.52z"/><path fill="#1b469c" d="M433.15 128.18H159.12a8.84 8.84 0 0 0-8.84 8.84v172.37a8.84 8.84 0 0 0 8.84 8.85h274.03a8.84 8.84 0 0 0 8.84-8.85V137.02a8.84 8.84 0 0 0-8.84-8.84"/><path fill="#fcd600" d="m268.07 165.06 2.27 6.97h7.35l-5.94 4.32 2.27 6.97-5.95-4.3-5.95 4.3 2.28-6.97-5.95-4.32h7.35zM247.14 185.95l2.28 6.98h7.34l-5.94 4.31 2.27 6.98-5.95-4.31-5.94 4.3 2.27-6.97-5.95-4.31h7.35zM239.54 214.13l2.27 6.97h7.34l-5.94 4.32 2.27 6.98-5.94-4.31-5.95 4.3 2.27-6.97-5.95-4.32h7.35zM247.14 241.98l2.28 6.98h7.34l-5.94 4.32 2.27 6.98-5.95-4.32-5.94 4.32 2.27-6.98-5.95-4.32h7.35zM267.86 262.88l2.27 6.98h7.35l-5.95 4.31 2.28 6.99-5.95-4.32-5.94 4.32 2.26-6.99-5.94-4.3h7.35zM296.13 270.59l-2.27 6.98h-7.35l5.95 4.31-2.27 6.98 5.94-4.31 5.95 4.3-2.27-6.97 5.94-4.31h-7.35zM324.4 262.88l-2.27 6.98h-7.35l5.95 4.31-2.27 6.99 5.95-4.32 5.94 4.32-2.27-6.99 5.95-4.3h-7.35zM345.12 241.98l-2.27 6.98h-7.35l5.95 4.32-2.27 6.98 5.94-4.32 5.95 4.32-2.27-6.98 5.94-4.32h-7.35zM352.73 214.13l-2.27 6.97h-7.35l5.94 4.32-2.26 6.98 5.94-4.31 5.95 4.3-2.27-6.97 5.94-4.32H355zM345.12 185.95l-2.27 6.98h-7.35l5.95 4.31-2.27 6.98 5.94-4.31 5.95 4.3-2.27-6.97 5.94-4.31h-7.35zM324.2 165.78l-2.27 6.98h-7.36l5.95 4.31-2.27 6.98 5.94-4.31 5.95 4.31-2.27-6.98 5.94-4.31h-7.34zM296.13 157.45l-2.27 6.99h-7.35l5.95 4.3-2.27 6.99 5.94-4.32 5.95 4.32-2.27-6.98 5.94-4.31h-7.35z"/><path fill="#9ecced" d="M150.28 114.92a4.4 4.4 0 0 1 4.42-4.42h17.68a4.4 4.4 0 0 1 4.42 4.42V800h-26.52z"/><path fill="#1b469c" d="M282.87 238.67H8.84A8.84 8.84 0 0 0 0 247.51V419.9a8.84 8.84 0 0 0 8.84 8.84h274.03a8.84 8.84 0 0 0 8.84-8.84V247.5a8.84 8.84 0 0 0-8.84-8.84"/><path fill="#fcd600" d="m117.8 275.55 2.27 6.97h7.34l-5.94 4.32 2.27 6.98-5.94-4.32-5.95 4.32 2.27-6.98-5.95-4.31h7.35zM96.87 296.44l2.27 6.98h7.35l-5.95 4.31 2.27 6.98-5.94-4.31-5.95 4.31 2.27-6.98-5.94-4.31h7.35zM89.26 324.62l2.27 6.98h7.35l-5.95 4.3 2.27 6.99-5.94-4.31-5.95 4.31 2.27-6.98-5.94-4.31h7.35zM96.87 352.48l2.27 6.97h7.35l-5.95 4.32 2.27 6.98-5.94-4.31-5.95 4.31 2.27-6.98-5.94-4.31h7.35zM117.58 373.38l2.27 6.97h7.36l-5.95 4.32 2.27 6.98-5.95-4.31-5.94 4.3 2.27-6.97-5.95-4.32h7.35zM145.85 381.08l-2.26 6.98h-7.35l5.94 4.31-2.27 6.98 5.94-4.31 5.95 4.31-2.27-6.98 5.95-4.31h-7.35zM174.13 373.38l-2.27 6.97h-7.35l5.95 4.32-2.28 6.98 5.95-4.31 5.94 4.3-2.26-6.97 5.94-4.32h-7.35zM194.85 352.48l-2.28 6.97h-7.35l5.95 4.32-2.27 6.98 5.94-4.31 5.95 4.31-2.27-6.98 5.95-4.31h-7.35zM202.45 324.62l-2.27 6.98h-7.35l5.95 4.3-2.27 6.99 5.94-4.31 5.95 4.31-2.27-6.98 5.95-4.31h-7.35zM194.85 296.44l-2.28 6.98h-7.35l5.95 4.31-2.27 6.98 5.94-4.31 5.95 4.31-2.27-6.98 5.95-4.31h-7.35zM173.92 276.27l-2.27 6.98h-7.36l5.95 4.31-2.27 6.98 5.95-4.31 5.94 4.31-2.27-6.98 5.95-4.3h-7.35zM145.85 267.95l-2.26 6.98h-7.35l5.94 4.31-2.27 6.98 5.94-4.32 5.95 4.32-2.27-6.98 5.95-4.31h-7.35z"/><path fill="#9ecced" d="M0 225.41A4.4 4.4 0 0 1 4.42 221H22.1a4.4 4.4 0 0 1 4.42 4.42V800H0z"/></svg>