<svg xmlns="http://www.w3.org/2000/svg" width="933" height="800" fill="none" viewBox="0 0 933 800"><path fill="#f9c4aa" d="M295.52 398.25c6.67-2.03 24.38-6.14 31.8-2.5s3.56 5.96.53 6.82c-3.17.88-12.45 3.23-.41 6.14 5.26 1.27 10.81 3.69 14.74 6.96 2.45 2.04 2.57 5.98-7.9 9.57-10.47 3.6-22.73 5.11-31.97 1.16-9.23-3.94-7.48-4.67-7.48-4.67z"/><path fill="#cde5f2" d="M230 355.03c-13.72-22.26-15.72-27.04-23.37-45.67-4.78-11.63-12.61-24.9-20.02-32-10.96-10.5-16.02-15.45-28.64-18.23-7.19-1.58-17.36 3.74-19.47 14.8-2.12 11.06 8.56 22.21 11.83 25.05 3.28 2.84 10.16 7.44 22.62 27.35 9.7 15.52 8.77 17.12 23.56 49.57 7.25 14.7 13.35 20.96 25.94 27.9 13.46 7.43 33 15.08 74.25 24.6.67-5.88 2.81-34.34 2.81-34.34-48.62-14.2-63.63-29.46-69.52-39.03"/><path fill="#1e1a28" d="M60.8 782.29s-4.33 11.56-4.83 14.13c-.49 2.22-1.57 3.01 6.39 3.08 0 0 47.22.75 50.44 0 2.12-.49 4.78-3.43 3.34-16.54l-55.35-.67M156.1 783.02s-.75 11.12.89 13.54 2.63 3.99 17.13 3.19c0 0 40.9.74 42.2-.31 1.29-1.05-6.16-17.19-6.16-17.19z"/><path fill="#153f7b" d="M56.16 430.2c-.32 21.85-3.22 135.81-3.54 148.12-.5 12.32-.83 117.08-.83 128.7s-.33 75.44 1.14 77.52c1.48 2.08 62.47 3.63 65.58 1.38s0-105.27.49-117.59c.32-12.32 2.29-73.2.32-122.8-1.96-49.6 1.6-58.78 2.76-58.78s2.15-2.44 6.73 44.4c4.57 46.82 13.9 131.99 15.86 152.62 1.96 20.82 7.35 101.47 9.49 102.34 2.13.87 59.85-.17 61.81-.87s-3.1-68-3.75-75.45c-.66-7.47-13.74-172.93-14.4-181.78-.65-8.84-6.54-101.3-6.54-101.3s-69 .18-74.89.7c-6.05.34-60.23 2.78-60.23 2.78h.02z"/><path fill="#cde5f2" d="M190.65 401.67c.08 17.17 1.37 33.73 1.7 41.01 0 0-69.77 6.95-98.44 3.5 0 0-36.68-1.64-38.59-1.64 0 0 .46-30.14.43-47.28.25-26.17.77-48.4 1.47-67.13s-1.7-55.22 22.52-67.7c15.15-7.81 19.53-7.32 40.6-8.36 17.23-.69 41.68 1.94 51.61 11.13 12.71 11.61 14.22 36.63 15.99 60.63 1.16 27.06 2.03 53.3 2.72 75.84"/><path fill="#153f7b" d="M138.47 406.39c2.64-10.94 3.86-22.3 4.81-33.84.7-7.97-.1-15.71-1.74-23.1a735 735 0 0 0-7.08-35.9c-2.48-11.14-4.16-20.86-6.99-29.03 1.94-3.56 3.6-7.25 5.53-10.77 3.23-5.54 6.03-11.04 9.43-17.3-8.1.73-15.22 1.35-22.34 2.11-6.95.66-13.44-1.78-20.56-1.9 1.62 3.55 11.33 17.68 18.09 26.7-2.47 7.88-4.38 15.3-7.18 29.4-3.66 14.6-6.23 27.8-7.48 42.5-1.58 18.48-.73 36.2 3.79 52.97 3.56 15.32 7.4 22.87 17.2 31.7 6.12-8.6 11.6-21.32 14.52-33.54"/><path fill="#f9c4aa" d="M161.21 213.42c-.22-1.18-1.25-1.8-2.47-2.33.5-9.47-1.48-15.49-5.7-21.57-3.55-5.1-8.5-10.18-15.43-12.65-6.15-2.2-21.22-1.62-27.27.82-14.49 5.49-20.19 18.92-20.93 33.75-1.24.32-2.33.77-2.7 1.89-.8 1.9-1.2 3.69-.67 5.78.48 1.68 1.56 2.74 3.71 4.18.59 6.9 2.77 13.5 6.35 18.97l.74 1.13c5.63 8.6 13.15 13.62 22.16 13.62h7.1c8.95 0 17.43-4.96 23.06-13.5l2.23-3.41a41 41 0 0 0 6.29-17.67c1.83-.93 2.85-1.77 3.47-3.18.78-1.98.61-3.83.06-5.83"/><path fill="#1e1a28" d="M142.44 177.63c-4.8-2.58-9.77-4.76-15.43-4.92a34 34 0 0 0-4.03-.25c-10.47 0-22.02 6-27.61 14.33-7.43 12.58-6.17 14.48-7.09 21.9-.11.96.05 1.9.12 2.85q2.7.45 5.51.46c13.94 0 25.96-8.59 31.47-20.97 5.29 13.05 17.6 22.48 31.37 20.4.86-.13 1.73-.1 2.58-.2.2-1.8.21-3.6.23-5.46.1-10.2-6.3-22.32-17.12-28.14"/><path fill="#f4ece6" d="m144.31 372.88-81.08-10.22a4.87 4.87 0 0 0-5.4 4.06L39.87 481.07a4.84 4.84 0 0 0 3.89 5.5l80.29 15.12a4.9 4.9 0 0 0 5.7-4.02l18.71-119.23a4.8 4.8 0 0 0-4.18-5.53z"/><path fill="#f9c4aa" d="M66.17 435.97c5.56 1.85 19.76 7.67 23.3 13.8s3.62 7.99 2.6 20.05c-.23 2.72-2.13 6.35-11.06 3.72s-18.15-7.57-22.81-14.8-3.11-6.88-3.11-6.88z"/><path fill="#cde5f2" d="M107.35 274.38c-1.7-11.1-7.41-18.58-15.3-17.88-21.15 5.08-46.77 23.1-67.93 52.81C16.39 320.15 0 346.5 0 362.68c.55 41.52 47.5 87.79 53.01 94.55l24.32-20.8c-1.55-.93-13.34-14.46-22.01-25.87-12.1-22.54-19.86-37.74-19.86-47.88 7.51-28.62 23.73-41.44 53.77-59.34 0 0 10.43-5.76 14.79-12.64 4.03-6.34 4.18-10.72 3.32-16.32"/><path fill="#1b469c" d="M923.76 17.68H649.73a8.84 8.84 0 0 0-8.85 8.84V198.9a8.84 8.84 0 0 0 8.85 8.84h274.03a8.84 8.84 0 0 0 8.84-8.84V26.52a8.84 8.84 0 0 0-8.84-8.84"/><path fill="#fcd600" d="m758.68 54.55 2.27 6.98h7.35l-5.95 4.32 2.28 6.97-5.95-4.3-5.95 4.3 2.27-6.97-5.94-4.32h7.35zM737.75 75.45l2.27 6.98h7.35l-5.94 4.31 2.27 6.98-5.95-4.31-5.94 4.3 2.27-6.97-5.95-4.31h7.35zM730.14 103.63l2.27 6.97h7.35l-5.94 4.32 2.27 6.98-5.95-4.32-5.94 4.32 2.27-6.98-5.95-4.32h7.35zM737.75 131.48l2.27 6.98h7.35l-5.94 4.32 2.27 6.98-5.95-4.32-5.94 4.32 2.27-6.98-5.95-4.32h7.35zM758.47 152.38l2.27 6.98h7.35l-5.95 4.31 2.27 6.99-5.94-4.32-5.95 4.32 2.27-6.98-5.94-4.32h7.35zM786.74 160.09l-2.27 6.98h-7.35l5.95 4.31-2.28 6.98 5.95-4.31 5.95 4.3-2.27-6.97 5.94-4.31h-7.35zM815.02 152.38l-2.28 6.98h-7.35l5.95 4.31-2.27 6.99 5.95-4.32 5.94 4.32-2.27-6.98 5.94-4.32h-7.34zM835.73 131.48l-2.27 6.98h-7.35l5.95 4.32-2.28 6.98 5.95-4.32 5.94 4.32-2.26-6.98 5.94-4.32H838zM843.34 103.63l-2.27 6.97h-7.35l5.94 4.32-2.27 6.98 5.95-4.32 5.94 4.32-2.26-6.98 5.94-4.32h-7.35zM835.73 75.45l-2.27 6.98h-7.35l5.95 4.31-2.28 6.98 5.95-4.31 5.94 4.3-2.26-6.97 5.94-4.31H838zM814.8 55.28l-2.27 6.98h-7.35l5.95 4.31-2.27 6.98 5.94-4.31 5.95 4.31-2.27-6.98 5.94-4.31h-7.34zM786.74 46.95l-2.27 6.98h-7.35l5.95 4.32-2.28 6.98 5.95-4.32 5.95 4.32-2.27-6.98 5.94-4.32h-7.35z"/><path fill="#9ecced" d="M640.89 4.42A4.4 4.4 0 0 1 645.3 0h17.68a4.4 4.4 0 0 1 4.42 4.42V800H640.9z"/><path fill="#1b469c" d="M773.48 128.18H499.45a8.84 8.84 0 0 0-8.84 8.84v172.37a8.84 8.84 0 0 0 8.84 8.85h274.03a8.84 8.84 0 0 0 8.84-8.85V137.02a8.84 8.84 0 0 0-8.84-8.84"/><path fill="#fcd600" d="m608.4 165.06 2.27 6.97h7.35l-5.94 4.32 2.27 6.97-5.95-4.3-5.95 4.3 2.28-6.97-5.95-4.32h7.35zM587.48 185.95l2.27 6.98h7.34l-5.94 4.31 2.27 6.98-5.94-4.31-5.95 4.3 2.27-6.97-5.95-4.31h7.35zM579.87 214.13l2.27 6.97h7.34l-5.94 4.32 2.27 6.98-5.94-4.31-5.95 4.3 2.27-6.97-5.95-4.32h7.35zM587.48 241.98l2.27 6.98h7.34l-5.94 4.32 2.27 6.98-5.94-4.32-5.95 4.32 2.27-6.98-5.95-4.32h7.35zM608.2 262.88l2.26 6.98h7.35l-5.94 4.31 2.27 6.99-5.95-4.32-5.94 4.32 2.26-6.99-5.94-4.3h7.35zM636.46 270.59l-2.27 6.98h-7.35l5.95 4.31-2.27 6.98 5.94-4.31 5.95 4.3-2.27-6.97 5.94-4.31h-7.35zM664.74 262.88l-2.28 6.98h-7.35l5.95 4.31-2.27 6.99 5.95-4.32 5.94 4.32-2.27-6.99 5.95-4.3H667zM685.45 241.98l-2.27 6.98h-7.35l5.95 4.32-2.27 6.98 5.94-4.32 5.95 4.32-2.27-6.98 5.94-4.32h-7.35zM693.06 214.13l-2.27 6.97h-7.35l5.94 4.32-2.26 6.98 5.94-4.31 5.95 4.3-2.27-6.97 5.94-4.32h-7.35zM685.45 185.95l-2.27 6.98h-7.35l5.95 4.31-2.27 6.98 5.94-4.31 5.95 4.3-2.27-6.97 5.94-4.31h-7.35zM664.53 165.78l-2.27 6.98h-7.36l5.95 4.31-2.27 6.98 5.94-4.31 5.95 4.31-2.27-6.98 5.95-4.31h-7.35zM636.46 157.45l-2.27 6.99h-7.35l5.95 4.3-2.27 6.99 5.94-4.32 5.95 4.32-2.27-6.98 5.94-4.31h-7.35z"/><path fill="#9ecced" d="M490.6 114.92a4.4 4.4 0 0 1 4.43-4.42h17.68a4.4 4.4 0 0 1 4.42 4.42V800H490.6z"/><path fill="#1b469c" d="M623.2 238.67H349.18a8.84 8.84 0 0 0-8.84 8.84V419.9a8.84 8.84 0 0 0 8.84 8.84h274.04a8.84 8.84 0 0 0 8.83-8.84V247.5a8.84 8.84 0 0 0-8.83-8.84"/><path fill="#fcd600" d="m458.13 275.55 2.27 6.97h7.35l-5.95 4.32 2.27 6.98-5.94-4.32-5.95 4.32 2.27-6.98-5.94-4.31h7.35zM437.2 296.44l2.27 6.98h7.35l-5.95 4.31 2.27 6.98-5.94-4.31-5.94 4.31 2.26-6.98-5.94-4.31h7.35zM429.6 324.62l2.26 6.98h7.35l-5.95 4.3 2.28 6.99-5.95-4.31-5.95 4.31 2.27-6.98-5.94-4.31h7.35zM437.2 352.48l2.27 6.97h7.35l-5.95 4.32 2.27 6.98-5.94-4.31-5.94 4.31 2.26-6.98-5.94-4.31h7.35zM457.92 373.38l2.26 6.97h7.36l-5.95 4.32 2.27 6.98-5.94-4.31-5.95 4.3 2.27-6.97-5.95-4.32h7.35zM486.19 381.08l-2.27 6.98h-7.35l5.94 4.31-2.27 6.98 5.95-4.31 5.95 4.31-2.28-6.98 5.95-4.31h-7.35zM514.46 373.38l-2.27 6.97h-7.35l5.95 4.32-2.28 6.98 5.95-4.31 5.95 4.3-2.27-6.97 5.94-4.32h-7.35zM535.18 352.48l-2.27 6.97h-7.36l5.95 4.32-2.27 6.98 5.95-4.31 5.94 4.31-2.27-6.98 5.95-4.31h-7.35zM542.79 324.62l-2.28 6.98h-7.35l5.95 4.3-2.27 6.99 5.95-4.31 5.94 4.31-2.27-6.98 5.95-4.31h-7.35zM535.18 296.44l-2.27 6.98h-7.36l5.95 4.31-2.27 6.98 5.95-4.31 5.94 4.31-2.27-6.98 5.95-4.31h-7.35zM514.25 276.27l-2.27 6.98h-7.35l5.95 4.31-2.28 6.98 5.95-4.31 5.95 4.31-2.27-6.98 5.94-4.3h-7.35zM486.19 267.95l-2.27 6.98h-7.35l5.94 4.31-2.27 6.98 5.95-4.32 5.95 4.32-2.28-6.98 5.95-4.31h-7.35z"/><path fill="#9ecced" d="M340.33 225.41a4.4 4.4 0 0 1 4.42-4.42h17.68a4.4 4.4 0 0 1 4.42 4.42V800h-26.52z"/></svg>