<svg xmlns="http://www.w3.org/2000/svg" width="723" height="800" fill="none" viewBox="0 0 723 800"><path fill="#7f433b" d="M349.05 0A166.1 166.1 0 0 1 487.1 73.45a8.6 8.6 0 0 0 7.1 3.84h.19c83.25 0 152.12 61.44 163.5 141.33.23 1.59-1.02 3-2.63 3H51.16c-1.8 0-3.1-1.75-2.52-3.46C71.1 151.02 129.05 99.12 201.32 82.73a10.8 10.8 0 0 0 6.8-4.85A166.2 166.2 0 0 1 349.05 0"/><path fill="#c58f79" d="M711.77 722.58a11.4 11.4 0 0 1-3.1-8.36c1.9-43.55 2.28-85.77.14-129.07l-4.73-95.02-6.13-72.42c-3.1-36.55-8.31-71.62-15.1-107.8-288.88 69.64-548.88 23.98-642.63 2.54l-4.58 24.72c-16.22 87.27-24.45 271.66-21.56 362.72l.47 14.9a11.5 11.5 0 0 1-3.5 8.62c-11.82 11.55-15.43 33.56-4.5 44.13C17.27 777.91 273.9 799.71 345.4 800c66.2.24 333.04-6.38 366.44-27.53 3.7-2.33 3.73-3.07 6.07-6.12 9.51-12.4 4.65-32.34-6.2-43.79z"/><path fill="#c58f79" d="M698.75 180.8c-3.6-17.42-17.47-29.35-33.9-31.98-21.98-2.71-48.8 9.01-64.74 12.52-111.84 24.63-227.8 29.38-341.6 17.82a1092 1092 0 0 1-114.95-17.68c-33.72-7.1-105-38.88-113.96 16.34-2.03 12.58-6.25 65.4-9.49 96.07-1.85 17.56 5.46 31.65 21.02 39.68 13.3 6.85 28.67 8.06 43.13 10.8 24.27 4.64 48.46 9.67 72.86 13.69 51.66 8.48 104.2 12.66 156.5 14.37 61.1 1.98 122.36-.12 183.19-6.36a1336 1336 0 0 0 167.18-27.91c17.23-4.02 36.8-8.91 34.76-31.22-2.44-26.85 2.7-93.16 0-106.15"/><path fill="#fff" d="M360.94 679.55c83.83 0 151.79-67.83 151.79-151.49s-67.96-151.48-151.8-151.48c-83.82 0-151.78 67.82-151.78 151.48s67.96 151.49 151.79 151.49"/><path fill="#b4cea0" d="M360.7 594.58c-11.17-51.42 27.1-102.06 79.62-105.3 9.87 51.03-27.07 100.43-78.87 105.23z"/><path fill="#b4cea0" d="M360.68 594.58c11.18-51.42-27.1-102.06-79.62-105.3-9.87 51.03 27.08 100.43 78.87 105.23z"/></svg>