<svg xmlns="http://www.w3.org/2000/svg" width="1457" height="804" fill="none" viewBox="0 0 1457 804"><path fill="#153f7b" d="M1032.62 503.78c.1 22.1 1.76 43.4 2.2 52.77 0 0-89.8 8.94-126.68 4.5 0 0-47.2-2.1-49.65-2.1 0 0 .59-38.8.55-60.85.32-33.66 1-62.27 1.89-86.37.9-24.1-2.18-71.05 28.97-87.12 19.5-10.05 25.13-9.41 52.24-10.75 22.18-.89 53.64 2.5 66.42 14.32 16.35 14.94 18.3 47.13 20.57 78.02a7711 7711 0 0 1 3.5 97.58z"/><path fill="#4698d3" d="M1056.54 554.35h-74.87l-122.07-2.28V193.73a8.1 8.1 0 0 0-8.06-8.08h-77.63a8.06 8.06 0 0 1-8.05-8.09V8.1A8.1 8.1 0 0 0 757.8 0H557.58c-4.54 0-8.84 1.93-11.9 5.3l-251.1 278.36a5.7 5.7 0 0 0 .23 7.86l23.5 23.17a5.64 5.64 0 0 0 8.2-.3l228.8-260.95a16 16 0 0 1 12.06-5.46h146.67a8.06 8.06 0 0 1 8.05 8.08v121.57a8.05 8.05 0 0 1-8.05 8.09h-149.1a8.06 8.06 0 0 0-8.06 8.08v358.34l-132.45 2.28H343.2c-6.8 0-10.04 8.48-4.98 13.09l115.7 231.67a8.5 8.5 0 0 0 7.57 4.7h484.48a8.5 8.5 0 0 0 7.68-4.9l107.94-231.53c4.99-4.61 1.75-13.03-5.04-13.03z"/><path fill="#153f7b" d="M522.3 493.07a15.8 15.8 0 0 1 5.22 12.18c-4.25 131.24-109.45 261.17-239.74 261.17S0 691.6 0 558.04 43 542 291.63 288.09C487.58 480.78 467.3 441.92 522.31 493.07" opacity=".22"/><path fill="#153f7b" d="M456.78 481.15c-76.37-19.47-147.88 3.34-159.04 7.02a2353 2353 0 0 0-14.28-6.01c-14.75-6.18-24.61-6.52-26.15-6.28-.6 1.04-3.27 8.26-6.7 16.1a620 620 0 0 1-8.22 17.93l3.88 2.2c-18.75 9.53-39.1 19-56.56 29.25-21.72 12.74-38.15 21.59-56.33 33.6-9.18-1.49-16.14-2.24-25.74-3.97-13.82-3.37-41.96-9.77-42.88-8.23-.58 2.15 5.75 13.42 16.08 42.77 4.2 13.51 11.68 50.4 13.6 50.33 2.36.14 29.98-34.57 44.3-55.21 11.3.1 25.59-.25 39.57-1.7-2 1.8-3.71 3.27-4.02 3.8.42.82 4.7 3.99 8.8 8.7 4.4 5.05 8.82 10.53 9.46 10.85 6.97-5.08 21.46-20.62 25.4-26.77 27.94-1.86 51-5.04 78.55-11.27 108.07-24.43 148.4-66.08 163.05-93.82l.04-.07.46-.88c2.85-5.88-1.2-7.74-3.3-8.35z"/><path fill="#dfeef6" d="M651.6 234.24a5.4 5.4 0 0 1 5.42 5.41v204.57a5.4 5.4 0 0 1-5.4 5.4h-51.5a5.4 5.4 0 0 1-5.4-5.4V239.65a5.4 5.4 0 0 1 5.4-5.4zm163.88 0a5.4 5.4 0 0 1 5.4 5.41v204.57a5.4 5.4 0 0 1-5.4 5.4h-119.2a5.4 5.4 0 0 1-5.4-5.4V239.65a5.4 5.4 0 0 1 5.4-5.4z"/><path fill="#c58f79" d="M994.74 261.56c-.28-1.51-1.62-2.32-3.18-3 .64-12.18-1.9-19.93-7.34-27.75-4.56-6.56-10.93-13.1-19.85-16.28-7.92-2.83-27.3-2.09-35.1 1.05-18.63 7.07-25.97 24.34-26.92 43.43-1.6.4-3 1-3.47 2.43-1.02 2.44-1.54 4.75-.87 7.44.62 2.16 2 3.52 4.78 5.37a53 53 0 0 0 8.17 24.43l.95 1.44c7.24 11.08 16.92 17.53 28.5 17.53h9.14c11.52 0 22.44-6.39 29.68-17.38l2.87-4.38a52.6 52.6 0 0 0 8.09-22.74c2.36-1.2 3.67-2.28 4.46-4.1 1-2.54.8-4.92.09-7.5"/><path fill="#1e1a28" d="M1018.16 276.14c-1.25-6.43-9.05-14.79-11.72-18.94-7.1-11.09-10-16.78-10-16.78a52 52 0 0 0-8.03-11.83c2.96 9.96 3.98 20.08 3.59 27.76l-.35-.17v2.39c1.54.68 2.9 1.47 3.19 3.01.68 2.56.9 4.95-.11 7.5-.4.92-.91 1.66-1.65 2.28-.74.63-1.65 1.2-2.79 1.82a53 53 0 0 1-8.08 22.75l-2.9 4.38a41 41 0 0 1-4.66 5.8c-.91 1.02-1.93 1.94-2.9 2.84-.28.23-.51.52-.74.74.57 1.94 4.38 12.23 18.71 9.27 15.13-3.12 14.96-4.55 21.5-11.48 7.16-7.68 9.78-16.78 6.99-31.28z"/><path fill="#153f7b" d="M943.54 191.44c38.79-2.73 49.6 41.91 48.4 64.55a75 75 0 0 0-32.13-10.46c-3.59-.18-9.27-.29-14.28-.12h-.4c-3.8.34-7.27.85-9.5 1.25h-.22c-15.01 2.73-27.41 8.6-33.9 12.86-2.33-20.3 3.25-65.35 42.03-68.08"/><path fill="#0c4fa1" d="M929.72 247.92c-5.4 1.76 5.92-53 15.76-56.6 7.45.4 23.54 56.14 16.32 54.1-3.36-.97-23.43-.23-32.08 2.5"/><path fill="#c58f79" d="M1167.56 499.39c8.58-2.62 31.36-7.9 40.92-3.22s4.58 7.68.67 8.77c-4.08 1.14-16.02 4.16-.53 7.91 6.77 1.64 13.92 4.74 18.98 8.95 3.15 2.63 3.3 7.7-10.18 12.32s-29.24 6.58-41.12 1.5c-11.89-5.07-9.63-6.01-9.63-6.01z"/><path fill="#153f7b" d="M1083.24 443.78c-17.64-28.65-20.22-34.8-30.06-58.76-6.16-14.97-16.23-32.05-25.77-41.19-14.09-13.5-20.6-19.88-36.85-23.45-9.24-2.03-22.33 4.8-25.05 19.04s11 28.58 15.23 32.24c4.22 3.65 13.06 9.57 29.1 35.2 12.49 19.95 11.28 22.02 30.32 63.78 9.32 18.9 17.17 26.96 33.37 35.9 17.32 9.56 42.46 19.4 95.54 31.64.86-7.56 3.62-44.19 3.62-44.19-62.56-18.27-81.88-37.9-89.45-50.2"/><path fill="#9ecced" d="M1405.12 425.37a8 8 0 0 1 10.06 4.21c30.03 66.31 86.68 227.72-24.74 227.72-50.95 0-63.92-93.1-96.79-154.8a8 8 0 0 0-10.18-3.54L807.84 696.83a8.05 8.05 0 0 1-10.52-4.32l-3.7-8.7a8 8 0 0 1 4.33-10.58l484.27-203.49z"/><path fill="#c58f79" d="M838.08 617.95c3.54 7.17 11.6 26.47 9.33 35.72s-3.9 11.06-15.87 21.44c-2.7 2.34-7.8 3.93-13.8-7.23s-10.18-24.81-7.97-36.18c2.23-11.37 3.36-9.52 3.36-9.52l24.93-4.23z"/><path fill="#153f7b" d="M928.56 337.82c-.22-6.66-4.62-25.42-22.36-19.96-18.26 5.62-37.96 12.75-56.79 39.79-18.12 26-33.63 60.85-38.16 127.4-5.03 74.02-6.78 141.98-6.87 143.08l43.75-.94c.1-1.1.17-55.05 8.6-152.41 2.35-27.4 10.23-57.17 20.04-71.45 6.37-9.26 15.13-20.7 20.98-25.9 0 0 10.14-7.05 17.78-12.55 12.46-8.97 13.31-18.44 13.03-27.05z"/></svg>