<svg xmlns="http://www.w3.org/2000/svg" width="1064" height="804" fill="none" viewBox="0 0 1064 804"><path fill="#4698d3" d="M1056.54 554.35h-74.87l-122.07-2.28V193.73a8.06 8.06 0 0 0-8.06-8.08h-77.63a8.06 8.06 0 0 1-8.05-8.09V8.1A8.1 8.1 0 0 0 757.8 0H557.58c-4.54 0-8.84 1.93-11.9 5.3l-251.1 278.36a5.7 5.7 0 0 0 .23 7.86l23.5 23.17a5.64 5.64 0 0 0 8.2-.3L555.3 53.44a16 16 0 0 1 12.07-5.46h146.67a8.06 8.06 0 0 1 8.05 8.08v121.57a8.06 8.06 0 0 1-8.05 8.09h-149.1a8.06 8.06 0 0 0-8.06 8.08v358.34l-132.45 2.28H343.2c-6.8 0-10.04 8.48-4.98 13.09l115.7 231.67a8.5 8.5 0 0 0 7.57 4.7h484.48a8.5 8.5 0 0 0 7.68-4.9l107.94-231.53c4.99-4.61 1.75-13.03-5.04-13.03v-.06"/><path fill="#153f7b" d="M522.3 493.07a15.8 15.8 0 0 1 5.22 12.18c-4.25 131.24-109.45 261.17-239.74 261.17S0 691.6 0 558.04 43 542 291.63 288.09C487.58 480.78 467.3 441.92 522.31 493.07" opacity=".22"/><path fill="#153f7b" d="M456.78 481.15c-76.37-19.47-147.88 3.34-159.04 7.02a2455 2455 0 0 0-14.28-6.01c-14.75-6.18-24.61-6.52-26.15-6.28-.6 1.04-3.27 8.26-6.7 16.1-3.9 8.94-8.22 17.93-8.22 17.93l3.88 2.2c-18.75 9.53-39.1 19-56.56 29.25-21.72 12.74-38.15 21.59-56.33 33.6-9.18-1.49-16.14-2.24-25.74-3.97-13.82-3.37-41.96-9.77-42.88-8.23-.58 2.15 5.75 13.42 16.08 42.77 4.2 13.51 11.68 50.4 13.6 50.33 2.36.14 29.98-34.57 44.31-55.21 11.3.1 25.58-.25 39.56-1.7-2 1.8-3.71 3.27-4.02 3.8.42.82 4.7 3.99 8.8 8.7 4.4 5.05 8.82 10.53 9.46 10.85 6.97-5.08 21.46-20.62 25.41-26.77 27.93-1.86 51-5.04 78.54-11.27 108.07-24.43 148.4-66.08 163.05-93.82l.04-.07.46-.88c2.85-5.88-1.19-7.74-3.29-8.35z"/><path fill="#dfeef6" d="M651.6 234.24a5.4 5.4 0 0 1 5.42 5.41v204.57a5.4 5.4 0 0 1-5.41 5.4h-51.5a5.4 5.4 0 0 1-5.4-5.4V239.65a5.4 5.4 0 0 1 5.4-5.4zM815.48 234.24a5.4 5.4 0 0 1 5.4 5.41v204.57a5.4 5.4 0 0 1-5.4 5.4h-119.2a5.4 5.4 0 0 1-5.41-5.4V239.65a5.4 5.4 0 0 1 5.41-5.4z"/></svg>