<svg xmlns="http://www.w3.org/2000/svg" width="290" height="291" fill="none" viewBox="0 0 290 291"><path fill="#0052a5" d="M145 290c80.08 0 145-64.92 145-145S225.08 0 145 0 0 64.92 0 145s64.92 145 145 145"/><path fill="#fff" d="M145 0c-11.14 0-21.98 1.26-32.4 3.64v108.89H3.65A145 145 0 0 0 0 145c0 11.16 1.25 21.94 3.62 32.33H112.6v109.03A145 145 0 0 0 145 290c11.14 0 21.98-1.26 32.4-3.64V177.33h108.98A145 145 0 0 0 290 145a146 146 0 0 0-3.65-32.47H177.4V3.64A145 145 0 0 0 145 0"/><path fill="#d71f29" d="M145 0q-8.22 0-16.2.91v127.83H.91a146 146 0 0 0-.01 32.4h127.9V289.1q7.98.9 16.2.91 8.22 0 16.2-.91V161.14h127.9a146 146 0 0 0-.01-32.4H161.2V.91Q153.22.01 145 0"/></svg>