<svg xmlns="http://www.w3.org/2000/svg" width="800" height="800" fill="none" viewBox="0 0 800 800"><path fill="#1b469c" d="M400 0c220.91 0 400 179.09 400 400S620.91 800 400 800 0 620.91 0 400 179.09 0 400 0"/><path fill="#fcd600" d="m287.95 165.65 9.08 27.98h29.43l-23.8 17.3 9.1 27.98-23.81-17.3-23.82 17.3 9.1-27.98-23.8-17.3h29.42zM204.16 249.42l9.1 28h29.41l-23.8 17.3 9.1 27.97-23.8-17.3-23.81 17.3 9.08-27.98-23.8-17.3h29.42zM173.7 362.41l9.1 27.98h29.4l-23.8 17.3 9.1 28-23.8-17.3-23.82 17.3 9.1-28-23.8-17.3h29.42zM204.16 474.13l9.1 27.98h29.41l-23.8 17.3 9.1 27.99-23.8-17.3-23.81 17.3 9.08-28-23.8-17.3h29.42zM287.1 557.91l9.09 27.99h29.43l-23.81 17.3 9.1 27.98-23.8-17.3-23.81 17.3 9.08-27.99-23.8-17.3H278zM400.29 588.8l-9.09 28h-29.42l23.8 17.29-9.1 27.98 23.8-17.3 23.82 17.3-9.1-27.98 23.81-17.3h-29.43zM513.5 557.91l-9.1 27.99h-29.43l23.81 17.3-9.1 27.98 23.82-17.3 23.8 17.3-9.1-27.99 23.81-17.3H522.6zM596.43 474.13l-9.1 27.98h-29.42l23.81 17.3-9.1 27.99 23.81-17.3 23.8 17.3-9.08-28 23.8-17.3h-29.42zM626.9 362.41l-9.1 27.98h-29.43l23.8 17.3-9.08 28 23.8-17.3 23.8 17.3-9.08-28 23.8-17.3H636zM596.43 249.42l-9.1 28h-29.42l23.81 17.3-9.1 27.97 23.8-17.3 23.81 17.3-9.08-27.98 23.8-17.3h-29.42zM512.64 168.56l-9.08 27.98h-29.44l23.82 17.3-9.1 27.98 23.8-17.3 23.8 17.3-9.08-27.98 23.8-17.3h-29.42zM400.29 135.17l-9.09 28h-29.42l23.8 17.3-9.1 27.97 23.8-17.3 23.82 17.3-9.1-27.98 23.81-17.3h-29.43z"/></svg>