<svg xmlns="http://www.w3.org/2000/svg" width="290" height="290" fill="none" viewBox="0 0 290 290"><path fill="#fff" d="M145 290c80.08 0 145-64.92 145-145S225.08 0 145 0 0 64.92 0 145s64.92 145 145 145"/><path fill="#0067c5" d="M145 0c-11.14 0-21.98 1.26-32.4 3.64V112.6H3.64A145 145 0 0 0 0 145c0 11.14 1.26 21.98 3.64 32.4H112.6v108.96A145 145 0 0 0 145 290c11.14 0 21.98-1.26 32.4-3.64V177.4h108.96A145 145 0 0 0 290 145c0-11.14-1.26-21.98-3.64-32.4H177.4V3.64A145 145 0 0 0 145 0"/><path fill="#f42941" d="M145 0q-8.22 0-16.2.91V128.8H.91Q.01 136.78 0 145q0 8.22.91 16.2H128.8v127.89q7.98.9 16.2.91 8.22 0 16.2-.91V161.2h127.89q.9-7.98.91-16.2 0-8.22-.91-16.2H161.2V.91Q153.22.01 145 0"/></svg>