<svg xmlns="http://www.w3.org/2000/svg" width="290" height="290" fill="none" viewBox="0 0 290 290"><path fill="#ffce00" d="M145 0v290c9.58 0 18.94-.94 28-2.71V2.71A146 146 0 0 0 145 0"/><path fill="#0035ad" d="M290 145c0-70.51-50.34-129.26-117.04-142.3v284.59C239.66 274.26 290 215.51 290 144.99z"/><path fill="#dc241f" d="M0 145c0 70.5 50.32 129.24 117 142.29V2.71C50.32 15.76 0 74.5 0 145"/><path fill="#007229" d="M117 2.71v284.58a146 146 0 0 0 28 2.71V0c-9.58 0-18.94.94-28 2.71"/><path fill="#dc241f" d="M145 51.14v14.5a81 81 0 0 1 81 81 81 81 0 0 1-81 81v14.5c52.74 0 95.5-42.76 95.5-95.5s-42.76-95.5-95.5-95.5"/><path fill="#0035ad" d="M145 227.64a81 81 0 0 1-81-81 81 81 0 0 1 81-81v-14.5c-52.74 0-95.5 42.76-95.5 95.5s42.76 95.5 95.5 95.5z"/></svg>