<svg xmlns="http://www.w3.org/2000/svg" width="290" height="290" fill="none" viewBox="0 0 290 290"><path fill="#ba0c2f" d="M145 290c80.08 0 145-64.92 145-145S225.08 0 145 0 0 64.92 0 145s64.92 145 145 145"/><path fill="#fff" d="M286.26 112.15H177.85V3.74a146 146 0 0 0-65.7 0v108.41H3.74a146 146 0 0 0 0 65.7h108.41v108.41a146 146 0 0 0 65.7 0V177.85h108.41a146 146 0 0 0 0-65.7"/><path fill="#00205b" d="M289.09 128.8H161.2V.91Q153.22.01 145 0q-8.22 0-16.2.91V128.8H.91Q.01 136.78 0 145q0 8.22.91 16.2H128.8v127.89q7.98.9 16.2.91 8.22 0 16.2-.91V161.2h127.89q.9-7.98.91-16.2 0-8.22-.91-16.2"/></svg>