<svg xmlns="http://www.w3.org/2000/svg" width="290" height="290" fill="none" viewBox="0 0 290 290"><path fill="#fff" d="M145 0c80.08 0 145 64.92 145 145s-64.92 145-145 145S0 225.08 0 145 64.92 0 145 0"/><path fill="#c8102e" d="M145 0c9.93 0 19.63 1 29 2.9V116h113.1A146 146 0 0 1 290 145c0 9.93-1 19.62-2.9 28.99H174v113.1q-13.34 2.73-27.44 2.9h-3.12q-14.1-.17-27.44-2.9V174H2.9C1 164.62 0 154.93 0 145s1-19.64 2.9-29.01H116V2.9C125.37 1 135.07 0 145 0m48.32 193.34c10.73.04 21.47-.08 32.2.06a9101 9101 0 0 1 43.83 26.22 145 145 0 0 1-11.07 15.9l-64.96-38.98zm-166.45.07c12.51-.17 25.05-.03 37.57-.07l-43.8 26.27a145 145 0 0 1-8.85-17.24q7.5-4.54 15.07-8.97zm4.84-138.92A33624 33624 0 0 0 96.6 93.35c.07 1.1.12 2.21.07 3.32-10.73-.04-21.47.08-32.19-.06a13105 13105 0 0 1-43.83-26.22 145 145 0 0 1 11.07-15.9m237.64 15.9a145 145 0 0 1 8.85 17.24q-7.5 4.51-15.06 8.96c-12.52.17-25.05.03-37.58.07z"/><path fill="#012169" d="M251.9 242.97a145 145 0 0 1-58.57 38.78v-73.93zM96.66 281.75a145 145 0 0 1-58.56-38.78l58.56-35.13zm96.67-273.5c22.63 8 42.68 21.45 58.57 38.79l-58.57 35.14zM96.66 82.16 38.1 47.03A145 145 0 0 1 96.66 8.25z"/></svg>