<svg xmlns="http://www.w3.org/2000/svg" width="290" height="290" fill="none" viewBox="0 0 290 290"><path fill="#0052a5" d="M145 290c80.08 0 145-64.92 145-145S225.08 0 145 0 0 64.92 0 145s64.92 145 145 145"/><path fill="#ffce00" d="M145 0c-14.06 0-27.65 2.01-40.5 5.74v98.76H5.74A145 145 0 0 0 0 145c0 14.06 2.01 27.65 5.74 40.5h98.76v98.76A145 145 0 0 0 145 290c14.06 0 27.65-2.01 40.5-5.74V185.5h98.76A145 145 0 0 0 290 145c0-14.06-2.01-27.65-5.74-40.5H185.5V5.74A145 145 0 0 0 145 0"/><path fill="#d21034" d="M145 0q-8.22 0-16.2.91V128.8H.91Q.01 136.78 0 145q0 8.22.91 16.2H128.8v127.89q7.98.9 16.2.91 8.22 0 16.2-.91V161.2h127.89q.9-7.98.91-16.2 0-8.22-.91-16.2H161.2V.91Q153.22.01 145 0"/></svg>