<svg xmlns="http://www.w3.org/2000/svg" width="643" height="800" fill="none" viewBox="0 0 643 800"><path fill="#9ecced" d="M642.17 723.4a78.4 78.4 0 0 1-10.51 37.7 78 78 0 0 1-27.38 27.93A77.6 77.6 0 0 1 564.25 800H77.94c-14.26 0-28.1-3.81-40.04-10.97a78.4 78.4 0 0 1-27.38-27.93A78.4 78.4 0 0 1 .01 723.4a78 78 0 0 1 10.51-40.16l196.84-340.9a86 86 0 0 0 11.52-43.04V42.64H423.3V299.3a86 86 0 0 0 11.52 43.03l196.84 340.9a78 78 0 0 1 10.51 40.18"/><path fill="#9ecced" d="M462.86 13.87v21.78c0 7.64-6.22 13.87-13.82 13.87H194.77a13.9 13.9 0 0 1-13.82-13.87V13.87c0-7.63 6.21-13.87 13.82-13.87h254.27c7.6 0 13.82 6.24 13.82 13.87"/></svg>