<svg xmlns="http://www.w3.org/2000/svg" width="1698" height="926" fill="none" viewBox="0 0 1698 926"><path fill="#0c4fa1" d="M1666.5 0H296.75a31.5 31.5 0 0 0-30.65 24.33c-21 90.33-94.33 406.91-115.16 506.8a4.7 4.7 0 0 1-3.42 3.5C0 573.82 12.12 722.46 22.97 780.7a29.1 29.1 0 0 0 28.6 23.56h131.9c6.14 0 11.35-4.6 11.94-10.67 7.6-71.29 67.87-126.87 141.2-126.87 73.34 0 133.6 55.58 141.2 126.87a12 12 0 0 0 11.96 10.67h735.88c6.32 0 11.53-4.78 12.04-11.1 5.63-73.34 66.93-131.14 141.71-131.14 74.79 0 136.08 57.8 141.71 131.14a12.1 12.1 0 0 0 12.04 11.1h147.95c9.39 0 16.9-7.6 16.9-16.99V31.5A31.5 31.5 0 0 0 1666.5 0"/><path fill="#fff" d="M326.96 213.45c18.1 0 33.46 15.7 33.46 34.23v228.3c0 16.82-12.89 29.8-29.37 29.54l-97.83-1.62c-20.66-.34-36.7-20.83-32.18-41.07l50.2-226.76c2.98-13.49 14.42-22.71 28.08-22.71h47.64zM1417 204.86H614.53v315.9H1417z"/><path fill="#cde5f2" d="M565.4 214.98c-5.8 0-10.5-4.7-10.5-10.5v-23.14c0-5.8 4.7-10.5 10.5-10.5h905.77c5.8 0 10.5 4.7 10.5 10.5v23.13c0 5.81-4.7 10.5-10.5 10.5zM565.4 550c-5.8 0-10.5-4.7-10.5-10.5v-23.14c0-5.8 4.7-10.5 10.5-10.5h905.77c5.8 0 10.5 4.7 10.5 10.5v23.14c0 5.8-4.7 10.5-10.5 10.5z"/><path fill="#f9cc76" d="M22.11 665.94H8.54A8.56 8.56 0 0 0 0 674.48v76.84c0 4.7 3.84 8.54 8.54 8.54h11.18c-3.24-25.79-4.61-59.77 2.4-93.92"/><path fill="#1e1a28" d="M336.6 926c64.74 0 117.22-52.48 117.22-117.22S401.34 691.55 336.6 691.55c-64.74 0-117.22 52.49-117.22 117.23S271.87 926 336.61 926M1379.4 921.48c64.73 0 117.21-52.49 117.21-117.23s-52.48-117.22-117.21-117.22c-64.74 0-117.22 52.48-117.22 117.22s52.48 117.23 117.22 117.23"/><path fill="#054449" d="M1088.25 391.08H970.88q2.79-5.5 5.58-11.25c10.47 1.15 22.75-6.13 36.76-21.74 3.49 9.4 10.09 21.6 21.35 21.82 6.33.12 12.64-3.63 19.14-11.43 4.74 5.67 14.51 11.43 34.54 11.43a5.6 5.6 0 0 0 0-11.17c-21.24 0-27.52-7.3-27.92-11.25a5.4 5.4 0 0 0-3.81-5.4 5.7 5.7 0 0 0-6.46 2.43c-8.42 12.94-13.53 14.26-15.3 14.22-5.77-.11-11.63-13.63-13.64-23.33a5.6 5.6 0 0 0-4.17-4.3 5.6 5.6 0 0 0-5.67 1.94c-14.1 17.7-23.55 23.65-29.43 25.2 5.92-13.18 10.35-24.75 13.18-34.49 4.76-16.36 5.11-27.8 1.06-34.97-2.1-3.76-6.52-8.24-15.4-8.24-11.22 0-20.06 10.6-24.28 29.07-2.5 10.97-2.91 23.19-1.13 33.51 1.8 10.33 5.5 17.84 10.89 22.3a636 636 0 0 1-7.84 15.65h-15.28a5.59 5.59 0 0 0 0 11.17h9.36c-7.9 14.66-14.04 24.88-14.14 25.05a5.59 5.59 0 1 0 9.57 5.75c.1-.18 7.87-13.12 17.24-30.8h123.17a5.6 5.6 0 0 0 0-11.17M967.3 322.1c2.78-12.2 8.17-20.4 13.39-20.4 3.72 0 4.95 1.3 5.67 2.57 2.1 3.72 4.55 16.89-15.12 60.31-5.76-7.87-7.73-25.87-3.94-42.48"/></svg>