<svg xmlns="http://www.w3.org/2000/svg" width="1698" height="926" fill="none" viewBox="0 0 1698 926"><path fill="#0c4fa1" d="M1666.5 0H296.75a31.5 31.5 0 0 0-30.65 24.33c-21 90.33-94.33 406.91-115.16 506.8a4.7 4.7 0 0 1-3.42 3.5C0 573.82 12.12 722.46 22.97 780.7a29.1 29.1 0 0 0 28.6 23.56h131.9c6.14 0 11.35-4.6 11.94-10.67 7.6-71.29 67.87-126.87 141.2-126.87 73.34 0 133.6 55.58 141.2 126.87a12 12 0 0 0 11.96 10.67h735.88c6.32 0 11.53-4.78 12.04-11.1 5.63-73.34 66.93-131.14 141.71-131.14 74.79 0 136.08 57.8 141.71 131.14a12.1 12.1 0 0 0 12.04 11.1h147.95c9.39 0 16.9-7.6 16.9-16.99V31.5A31.5 31.5 0 0 0 1666.5 0"/><path fill="#fff" d="M326.96 213.45c18.1 0 33.46 15.7 33.46 34.23v228.3c0 16.82-12.89 29.8-29.37 29.54l-97.83-1.62c-20.66-.34-36.7-20.83-32.18-41.07l50.2-226.76c2.98-13.49 14.42-22.71 28.08-22.71h47.64zM1417 204.86H614.53v315.9H1417z"/><path fill="#cde5f2" d="M565.4 214.98c-5.8 0-10.5-4.7-10.5-10.5v-23.14c0-5.8 4.7-10.5 10.5-10.5h905.77c5.8 0 10.5 4.7 10.5 10.5v23.13c0 5.81-4.7 10.5-10.5 10.5zM565.4 550c-5.8 0-10.5-4.7-10.5-10.5v-23.14c0-5.8 4.7-10.5 10.5-10.5h905.77c5.8 0 10.5 4.7 10.5 10.5v23.14c0 5.8-4.7 10.5-10.5 10.5z"/><path fill="#f9cc76" d="M22.11 665.94H8.54A8.56 8.56 0 0 0 0 674.48v76.84c0 4.7 3.84 8.54 8.54 8.54h11.18c-3.24-25.79-4.61-59.77 2.4-93.92"/><path fill="#1e1a28" d="M336.6 926c64.74 0 117.22-52.48 117.22-117.22S401.34 691.55 336.6 691.55c-64.74 0-117.22 52.49-117.22 117.23S271.87 926 336.61 926M1379.4 921.48c64.73 0 117.21-52.49 117.21-117.23s-52.48-117.22-117.21-117.22c-64.74 0-117.22 52.48-117.22 117.22s52.48 117.23 117.22 117.23"/></svg>