<svg xmlns="http://www.w3.org/2000/svg" width="596" height="835" fill="none" viewBox="0 0 596 835"><path fill="#153F7B" d="M108.99 0c.59 2.97.68 5.8.9 8.9 5.83 79.63 15.88 211.38 17.1 239.18 1.25 28.56 5.48 25.81-21.3 48.96-13.24 11.43-22.5 38.7-23.18 65.67-2.69 115.85 9 217.33 15.15 345.77 2.9 28.3 2.71 56.81 4.5 85.33 1.79 28.08-22.8 47.24-49.42 39.44-17.2-5.12-27.94-20.27-26.38-40.32 3.35-45.01 6.12-90.24 10.59-135.25 7.65-113.32 10.4-197.6 9.06-295.4-.45-28.29-11.13-53.92-24.91-65.24C-2.72 277.48-.3 277.08.42 253.24c.86-28.5 4.56-68.1 7.02-100.62 3.35-47.4 6.92-94.6 10.5-142.14.23-3.35.55-7.27.77-10.48h7.82c.35 4.98.36 9.8.36 14.7-.44 61.94-.86 122-1.54 183.93-.1 9.21 2.73 16 7.5 16 4.34 0 7.92-6.3 7.68-16.54 1.56-63.28 2.9-123.24 4.48-186.28.09-4.7.2-7.57.63-11.81h8.46c.48 4.57.66 8.7.66 12.92l1.34 183.8c-.06 12.75 3.53 17.46 7.6 17.46 4.08 0 7.2-4.89 7.38-16.57.45-61.93 1.12-124.1 1.79-186.03.12-4.31.31-7.18.58-11.58h8.61c.4 5.2.57 7.18.78 12.7 1.12 44.56 2.01 89.12 3.13 133.68.44 20.05-.44 38.6.67 58.66-.06 4 4.37 9.6 8.27 9.6 3.9 0 7.83-5.8 7.6-14.57-.44-62.38-1.12-119.62-1.56-182 0-4.23-.1-11.63.2-18.07H109ZM319.07 833.28c-26.01 7.68-50.04-11.2-48.3-38.86 1.76-28.1 1.58-56.2 4.4-84.06 2.34-49.26 5.5-94.5 8.34-138.12 2.25-34.13 2.62-91.28 1.28-105.57-1.62-17.35-14.03-26.03-14.03-26.03-35.65-33.6-32.41-52.03-34.02-72.63-1.26-16.1-2.7-127.04 12.33-231.62C256.9 74.95 289.22 0 303.77 0c6.7 0 10.52 4.8 10.54 11.33 1.17 217.67 14.45 536.13 15 560.78h.01c1.36 27.77 3.08 56.86 5.19 88.21 4.36 44.34 7.07 88.9 10.34 133.23 1.53 19.76-8.96 34.68-25.79 39.73h.01ZM413.03 171.82c-.67 36.54 10.02 69.52 31.4 98.93 8.9 12.26 18.03 24.51 26.71 37 13.8 19.82 19.81 41.44 20.26 65.72 1.34 104.95-5.12 209.23-15.36 313.51a4387.31 4387.31 0 0 0-9.35 107.62c-1.34 16.94 7.57 30.53 21.6 36.77 14.69 6.68 30.94 4 42.3-6.91 9.35-8.7 12.69-19.83 11.57-32.31-3.34-38.1-6.45-76.2-10.01-114.3-10.02-104.28-16.26-208.79-14.25-313.51.44-17.83 5.78-34.32 15.36-49.25 6.68-10.24 13.13-20.72 20.93-30.08 40.96-48.57 48.98-104.05 36.29-164.21-6.9-32.31-17.37-63.06-37.18-89.8-30.73-41.44-67.02-41.22-97.74 0-25.6 34.54-42.53 90.69-42.53 140.82Z"/></svg>