<svg xmlns="http://www.w3.org/2000/svg" width="524" height="800" fill="none" viewBox="0 0 524 800"><path fill="#0c4fa1" d="M298.59 127.96c.47 2.4.55 4.67.73 7.17 4.67 64.08 12.75 170.12 13.73 192.5 1 22.98 4.4 20.77-17.12 39.4-10.63 9.2-18.07 31.15-18.61 52.85-2.16 93.24 7.23 174.92 12.17 278.3 2.33 22.76 2.18 45.71 3.61 68.67 1.44 22.6-18.31 38.01-39.7 31.74-13.83-4.13-22.45-16.32-21.2-32.46 2.7-36.22 4.93-72.62 8.51-108.85 6.15-91.2 8.36-159.02 7.28-237.74-.36-22.77-8.94-43.4-20.01-52.51-19.13-15.74-17.18-16.07-16.6-35.25.68-22.94 3.65-54.8 5.63-80.99 2.69-38.14 5.56-76.13 8.44-114.4.18-2.69.44-5.85.61-8.43h6.29c.28 4 .29 7.9.29 11.83-.36 49.85-.7 98.19-1.24 148.04-.1 7.4 2.2 12.88 6.02 12.88 3.5 0 6.36-5.07 6.17-13.32 1.26-50.93 2.34-99.18 3.6-149.93.07-3.77.15-6.09.5-9.5h6.8c.4 3.68.53 7 .53 10.4l1.08 147.93c-.05 10.26 2.84 14.05 6.11 14.05s5.78-3.93 5.93-13.33c.35-49.85.9-99.88 1.43-149.73.1-3.47.25-5.78.47-9.32h6.92c.32 4.2.46 5.78.62 10.22.9 35.87 1.62 71.73 2.52 107.6.35 16.13-.36 31.06.54 47.2-.05 3.23 3.5 7.73 6.64 7.73s6.29-4.67 6.1-11.73c-.35-50.2-.9-96.27-1.25-146.47 0-3.41-.07-9.36.17-14.55z"/><path fill="#f9c4aa" d="M492.73 42.32a46.54 46.54 0 0 1 1.75 61.39 301 301 0 0 1-84.7 70.51 301 301 0 0 1-147.77 38.75c-87.47 0-173.43-38-232.51-109.3a46.54 46.54 0 0 1 1.77-61.35L1.7 32.85c-1.85-.6-2.31-3-.82-4.25L34.45.57a2.46 2.46 0 0 1 4 1.6l3.96 31.36a46.1 46.1 0 0 1 58.19 10.8c64.62 77.99 175.66 98.56 264.02 48.91a210 210 0 0 0 58.81-48.94 46.1 46.1 0 0 1 58.16-10.75l3.95-31.38a2.46 2.46 0 0 1 4.01-1.59l33.56 28.02a2.47 2.47 0 0 1-.82 4.25z"/></svg>