<svg xmlns="http://www.w3.org/2000/svg" width="128" height="835" fill="none" viewBox="0 0 128 835"><path fill="#153F7B" d="M108.99 0c.59 2.97.68 5.8.9 8.9 5.83 79.63 15.88 211.38 17.1 239.18 1.25 28.56 5.48 25.81-21.3 48.96-13.24 11.43-22.5 38.7-23.18 65.67-2.69 115.85 9 217.33 15.15 345.77 2.9 28.3 2.71 56.81 4.5 85.33 1.79 28.08-22.8 47.24-49.42 39.44-17.2-5.12-27.94-20.27-26.38-40.32 3.35-45.01 6.12-90.24 10.59-135.25 7.65-113.32 10.4-197.6 9.06-295.4-.45-28.29-11.13-53.92-24.91-65.24C-2.72 277.48-.3 277.08.42 253.24c.86-28.5 4.56-68.1 7.02-100.62 3.35-47.4 6.92-94.6 10.5-142.14.23-3.35.55-7.27.77-10.48h7.82c.35 4.98.36 9.8.36 14.7-.44 61.94-.86 122-1.54 183.93-.1 9.21 2.73 16 7.5 16 4.34 0 7.92-6.3 7.68-16.54 1.56-63.28 2.9-123.24 4.48-186.28.09-4.7.2-7.57.63-11.81h8.46c.48 4.57.66 8.7.66 12.92l1.34 183.8c-.06 12.75 3.53 17.46 7.6 17.46 4.08 0 7.2-4.89 7.38-16.57.45-61.93 1.12-124.1 1.79-186.03.12-4.31.31-7.18.58-11.58h8.61c.4 5.2.57 7.18.78 12.7 1.12 44.56 2.01 89.12 3.13 133.68.44 20.05-.44 38.6.67 58.66-.06 4 4.37 9.6 8.27 9.6 3.9 0 7.83-5.8 7.6-14.57-.44-62.38-1.12-119.62-1.56-182 0-4.23-.1-11.63.2-18.07H109Z"/></svg>