<svg xmlns="http://www.w3.org/2000/svg" width="501" height="874" fill="none" viewBox="0 0 501 874"><path fill="#4698d3" d="M25.57 164.27C82.23 30.8 229.15-34.53 353.73 18.34 478.3 71.21 533.36 222.27 476.7 355.74 427.99 470.5 312.54 534.9 201.94 517.07L102.7 845.61a39.85 39.85 0 0 1-51.34 26.13l-24.68-8.68a40 40 0 0 1-23.97-52.19l123.62-320.06C17.62 430.25-27.59 289.5 25.57 164.27"/><path fill="#dfeef6" d="M422.38 332.7c43.05-101.42 1.3-216.18-93.26-256.31C234.56 36.25 123 85.94 79.95 187.36s-1.3 216.18 93.27 256.31 206.11-9.55 249.16-110.97"/></svg>