<svg xmlns="http://www.w3.org/2000/svg" width="590" height="675" fill="none" viewBox="0 0 590 675"><path fill="#C58F79" d="M587.98 574.2c-3.34-6.86-13.74-19.51-19.01-30.3-6.6-13.63-14.33-46.76-13.51-61.87 2.52-45.04 1.48-64.02-14.49-96.56-2.82-6.03-2.45-5.06-2.52-12.58-.15-7.52 7.2-14.44 12.92-30.3 5.72-15.85 13.14-54.12 18.34-89.03 6.54-43.78 1.56-59.41-10.4-89.79-11.58-29.33-33.41-35.36-42.77-38.56-9.35-3.27-33.41-7.89-33.11 3.95.37 11.9 8.24 11.53 19.08 16.23 10.77 4.69 19.38 20.99 25.54 41.46 7.8 26.13 3.94 44 2.9 67.08-1.11 23.07-12.25 60.22-16.19 71.39-3.93 11.17-8.98 14.44-20.5 15.78-84.65 3.35-188.46 9.16-273.64 7.67l.38-.15c-21.91-.82-56.07-30.22-61.56-35.29-5.5-5.06-30.97-34.98-33.72-38.19-2.75-3.12-7.87-7.44-13.36-21.66-5.5-14.22-15.45-34.62-18.42-32.68-9.06 5.88-10.99 24.79-10.99 24.79-4.68-14.15-14.33-17.35-15.82-16.53-.96.52-1.7 14.97 0 22.04-1.7 3.13-30.89 13.4-35.57 16.9-4.68 3.57-6.3 12.2-8.61 16.52-2.38 4.32-17.67 9.46-20.8 13.18-3.11 3.72-.81 11.62 0 15.93.82 4.32 4.68 8.64 11 18.47 6.3 9.82 22.35 5.5 27.1 5.5s16.86 18.47 22.5 25.31c12.03 27.03 44.48 107.13 62.45 151.95-.67 18.54-11.06 106-13 110.92-2.07 5.21-12.62 20.92-15.66 24.12-1.49 1.57-7.72 5.59-7.06 13.1.67 7.52 3.35 11.4 5.72 11.4h17.9c5.57 0 7.35-4.4 10.84-8.5 3.49-4.09 16.26-19.5 19.9-26.12 2.75-4.91 33.27-66.78 49.9-100.28 8.91 24.12 21.31 59.11 23.84 65.96 4.01 10.72 31.19 43.85 34.16 52.7 3.12 5.22 2.38 14.67 10.17 16.24h10.47c2.38 0 9.73-5.74 10.55-9.83 7.13-16.53-16.04-36.18-22.65-50.85-6.31-10.94-8.24-14.3-8.4-17.27-.36-5.06 2.98-50.25 4.69-74.15 34.08-.81 75-2.08 108.71-3.27 4.98 14 10.62 31.26 14.1 42.5 3.2 10.2 9.74 29.64 11.22 37.23 1.86 9.68 2.6 13.62-2.15 18.46-4.46 4.62-29.78 29.33-32.68 30.75-7.12 3.64-11.36 8.26-11.43 14.59 0 7.15 3.42 11.76 7.65 11.76h17.82c4 0 10.84-6.92 22.94-16.6 10.7-8.56 47.3-39.38 50.72-48.24 3.2-8.26 0-19.5 1.27-27.92.89-6.1 7.42-29.92 13.36-50.77 7.8 10.42 14.19 18.98 16.12 21.51 13.73 18.1 46.78 30.75 58.51 37.23 12.25 6.77 18.05 14.44 15.82 23.23-1.78 6.92-7.13 32.6-8.47 35.13-1.26 2.53-5.64 3.95-7.5 10.13-1.85 6.18-.22 14.22 6.02 15.93 0 0 18.41.37 23.61.37 5.2 0 9.73-13.85 12.03-20.55 2.75-7.89 20.57-65.8 13.81-79.58h-.07Z"/><path fill="#DA573B" d="M333.28 269c-65.44 14.77-190.67-134.09-143.23-205.57 64.04-96.5 80.16 19.76 100.6 21.24 0 0 30.61-106.7 95.19-80.54 55.93 22.64 17.19 249.12-52.56 264.87Z"/></svg>