<svg xmlns="http://www.w3.org/2000/svg" width="660" height="800" fill="none" viewBox="0 0 660 800"><path fill="#CDE5F2" d="M373.3 362.1c-28.88-58.12-75.38-151.66-44.41-257.63C342.14 59.23 373.55-2.23 403.04.07c31.64 2.45 73.6 79.35 85.42 111.12 1.58 4.25 5.6 15.65 12.95 16.64 8.64 1.17 16.84-12.73 26.23-28.19 40.66-67 47.8-71.38 52.49-73.37 20.11-8.48 52.49 3.35 68.09 23.66 38.58 50.24-23.91 154.33-98.45 278.46C484.3 437.4 459.27 447.3 442 445.7c-27.9-2.57-45.02-35.93-68.71-83.59l.01-.02Z"/><path fill="#0C4FA1" d="M186.26 637.34c-55.4-33.85-144.52-88.3-174.68-194.5-12.87-45.35-18.98-114.12 7.2-127.86C46.9 300.23 123.33 343 150.27 363.61c3.6 2.74 13.05 10.27 19.82 7.2 7.93-3.6 7.49-19.74 7.2-37.82-1.22-78.36 2.48-85.87 5.4-90.05 12.53-17.89 46.22-25.1 70.24-16.2 59.41 22 61.9 143.39 64.83 288.14 2.59 127.13-13.35 148.84-28.81 156.69-24.97 12.66-57.24-6.49-102.66-34.22l-.02-.01Z"/><path fill="#9ECCED" d="M549.03 798.75C469 816.76 315.87 635.25 373.89 548.08c78.3-117.66 98.02 24.1 123 25.91 0 0 37.44-130.1 116.4-98.21 68.4 27.6 21.03 303.76-64.26 322.97Z"/></svg>