<svg xmlns="http://www.w3.org/2000/svg" width="660" height="800" fill="none" viewBox="0 0 660 800"><path fill="#9BCAB9" d="M372.77 362.1c-28.88-58.12-75.39-151.66-44.41-257.63C341.6 59.23 373.02-2.23 402.5.07c31.65 2.45 73.6 79.35 85.43 111.12 1.58 4.25 5.6 15.65 12.95 16.64 8.64 1.17 16.84-12.73 26.22-28.19 40.66-67 47.8-71.38 52.5-73.37 20.11-8.48 52.48 3.35 68.08 23.66 38.6 50.24-23.9 154.33-98.44 278.46C483.77 437.4 458.73 447.3 441.46 445.7c-27.89-2.57-45.01-35.93-68.7-83.59l.01-.02Z"/><path fill="#054449" d="M185.73 637.34c-55.4-33.85-144.52-88.3-174.68-194.5-12.88-45.35-18.99-114.12 7.2-127.86C46.37 300.23 122.8 343 149.74 363.61c3.6 2.74 13.05 10.27 19.81 7.2 7.94-3.6 7.5-19.74 7.21-37.82-1.22-78.36 2.48-85.87 5.4-90.05 12.52-17.89 46.22-25.1 70.24-16.2 59.4 22 61.89 143.39 64.83 288.14C319.8 642 303.87 663.72 288.4 671.57c-24.97 12.66-57.24-6.49-102.66-34.22l-.02-.01Z"/><path fill="#F9CC76" d="M548.5 798.75c-80.03 18.01-233.16-163.5-175.14-250.67 78.3-117.66 98.01 24.1 123 25.91 0 0 37.44-130.1 116.4-98.21 68.4 27.6 21.02 303.76-64.26 322.97Z"/></svg>