<svg xmlns="http://www.w3.org/2000/svg" width="660" height="800" fill="none" viewBox="0 0 660 800"><path fill="#F9C4AA" d="M372.86 362.1c-28.89-58.12-75.39-151.66-44.42-257.63C341.7 59.23 373.11-2.23 402.6.07c31.65 2.45 73.6 79.35 85.43 111.12 1.57 4.25 5.6 15.65 12.94 16.64 8.65 1.17 16.84-12.73 26.23-28.19 40.66-67 47.8-71.38 52.49-73.37 20.12-8.48 52.49 3.35 68.09 23.66 38.59 50.24-23.9 154.33-98.44 278.46C483.86 437.4 458.82 447.3 441.55 445.7c-27.9-2.57-45.02-35.93-68.71-83.59l.02-.02Z"/><path fill="#DA573B" d="M185.82 637.34c-55.4-33.85-144.53-88.3-174.69-194.5-12.87-45.35-18.98-114.12 7.21-127.86 28.1-14.75 104.54 28.02 131.47 48.63 3.6 2.74 13.06 10.27 19.82 7.2 7.93-3.6 7.49-19.74 7.2-37.82-1.22-78.36 2.49-85.87 5.4-90.05 12.53-17.89 46.23-25.1 70.24-16.2 59.41 22 61.9 143.39 64.83 288.14 2.59 127.13-13.35 148.84-28.8 156.69-24.98 12.66-57.24-6.49-102.67-34.22l-.01-.01Z"/><path fill="#C58F79" d="M548.58 798.75c-80.02 18.01-233.15-163.5-175.14-250.67 78.31-117.66 98.02 24.1 123 25.91 0 0 37.44-130.1 116.4-98.21 68.4 27.6 21.03 303.76-64.26 322.97Z"/></svg>