<svg xmlns="http://www.w3.org/2000/svg" width="446" height="692" fill="none" viewBox="0 0 446 692"><path fill="#b4cea0" fill-rule="evenodd" d="M279.88.01C355.78.97 417 62.8 417 138.91V234h29v297.15C446 619.98 373.98 692 285.15 692h-124.3C72.02 692 0 619.98 0 531.15V234h29v-95.08C29 62.2 91.2 0 167.92 0h110.16zM167.92 43.87a95.05 95.05 0 0 0-95.05 95.05V234h300.26v-95.08a95.05 95.05 0 0 0-95.05-95.05z" clip-rule="evenodd"/><path fill="#116e6b" d="M223 353c32.59 0 59 21.27 59 47.5 0 16.4-10.31 30.84-26 39.38V539h-66v-99.12c-15.69-8.54-26-22.99-26-39.38 0-26.23 26.41-47.5 59-47.5"/></svg>