<svg xmlns="http://www.w3.org/2000/svg" width="1370" height="1118" fill="none" viewBox="0 0 1370 1118"><path fill="#1E1A28" d="M1369.63 998.8c0-53.16-10.94-243.56-13.54-275.98-12.65-156.45-17.46-226.11-33.05-259.95-4.71-10.2-13.09-42.74-49.09-84.85-35.99-42.12-49.26-45.18-74.76-57.76-43.82-29.42-134.62-56.12-205.25-48.64-58.21 6.18-137.46 14.91-195.78 21.94-73.35 8.79-136.55 10.03-188.41-26.53-7.83-5.5-73.75-59.06-80.6-64-47.56-34.63-100.96-58.89-152.37-87.06C329 89.73 246.41 69.32 226.12 65.24c-4.65-6.4-7.65-15.19-10.88-22.56a98.66 98.66 0 0 0-15.48-23.86c-.74-.9-1.53-1.76-2.32-2.5-6.35-6.68-13.5-12.3-21.15-16.32-7.48 17.91-7.08 40.81.23 61.84-3.29.28-8.16.96-13.77 2.44-8.5-23.24-26.36-42.34-46.43-48.86-1.92 7.76-2.55 16.1-1.92 24.54 0 1.02.11 2.04.28 3.12a88.94 88.94 0 0 0 6.52 25c2.44 5.55 5.61 11.56 7.48 17.51-16.27 18.2-29.42 39.68-42.06 60.7-22.33 37.42-39.9 77.5-63.03 114.17C4.72 290.2-6.5 310.5 4.1 345.3c4.93 16.15 13.5 21.6 24.77 26.24 21.03 8.68 50.45 7.54 57.2-7.14 4.13-9.07 9.69-19.16 17.57-24.66a677.88 677.88 0 0 1 68.36-41.54c13.77-7.14 29.41-11.62 44.72-14.34 5.16-.97 13.94 6 17.46 11.62 12.8 20.18 23.58 41.71 36.05 62.12 33.5 55.04 69.72 107.98 71.2 176.96 2.14 18.65 6.11 30.04 12.8 42.4 17.18 31.29 17.63 31.23 34.97 59.3 5.62 9.06 10.38 20.74 14.63 33.43 8.56 30.05 38.2 134.85 39.79 145.22 3.97 26.48-2.6 182.13-4.42 192.16a7890.95 7890.95 0 0 0-16.9 104.29c-.79 5.5.97 6.18 2.73 6.18h64.9c4.42 0 4.3-1.53 4.25-4.42l-8.33-39.17s0-15.64 1.19-18.47c1.13-2.84 20.74-13.55 23.58-20.81 1.92-4.87-1.99-154.57-1.36-163.41.62-8.85 15.64-51.92 17.34-61.5.74-4.14 1.7-38.6 2.67-81.74 14.05 39.45 28.9 81.96 29.64 86.84 1.42 9.3-4.14 182.63-5.78 192.15-1.7 9.52-15.7 95.46-17.06 104.3-.63 4.19.96 6.18 2.72 6.18h64.33c4.42 0 4.31-1.53 4.25-4.42l-7.65-39.17s.29-15.19 1.2-18.48c.9-3.23 20.85-13.55 24.08-20.8 2.44-5.44-3.11-154.58-2.15-163.42.96-8.84 15.59-47.44 17.63-61.5.9-6.18 2.1-55.66 3.23-110.81 26.19.05 62.24-.51 106.56-.97 106.17-1.64 165.86-9.86 216.36-14.56 21.03 43.02 55.83 121.18 57.87 131.38 2.38 12.2-3.17 177.42-5.78 192.16-2.61 14.79-15.81 95.4-17.06 104.29-.57 4.26.96 6.18 2.72 6.18h65.01c4.43 0 4.31-1.53 4.26-4.42l-8.34-39.17s-.56-13.88 1.19-18.47c1.76-4.54 22.73-15.54 23.75-20.81.97-5.04.57-85.13 1.02-100.72.4-15.53 19.28-113.08 20.52-124.2.8-7.3-5.38-83.09-8.27-128.27 17.8 42.74 57.02 125.27 59.06 133.38 2.38 9.58-4.53 185.01-5.78 192.15-1.25 7.14-15.48 95.46-17.06 104.3-.57 3.4.96 6.18 2.72 6.18h64.96c4.42 0 4.3-1.53 4.25-4.42l-8.28-39.17s-.9-13.04 1.19-18.48c2.1-5.44 21.03-13.43 23.58-20.8 2.55-7.37-1.24-87.86 1.14-100.73 2.38-12.87 19.5-113.08 20.52-124.19.9-10.37-9.98-137.96-9.81-158.88 3.06-24.71 5.72-41.2 8.44-55.1 4.37-14.11 8.85-26.98 12.99-46.25 7.76-29.76 9.06-74.88 6.57-107.47 9.52 40.53 12.3 101.46 11.96 168.57-.23 46.14 7.77 95.4 8.39 192.61.28 47.05-3.86 154.07-3.86 154.07l85.26 41.43-.12.28Z"/></svg>