<svg xmlns="http://www.w3.org/2000/svg" width="864" height="874" fill="none" viewBox="0 0 864 874"><path fill="#054449" d="M76 431.82h711.64V874H76z"/><path fill="#054449" d="M854.43 438.62H9.2c-8.2 0-12.29-9.93-6.47-15.65L421.03 4.45a15.3 15.3 0 0 1 21.57 0l418.3 418.63a9.14 9.14 0 0 1-6.47 15.65z"/><path fill="#116e6b" d="M497.46 494c0-5.73 4.64-10.37 10.36-10.37h152c5.72 0 10.36 4.64 10.36 10.37v380H497.46z"/><path fill="#054449" d="M117.46 65.64c0-5.73 4.64-10.37 10.36-10.37h152c5.72 0 10.36 4.64 10.36 10.37v269.45H117.45z"/><rect width="172.73" height="172.73" x="193.46" y="483.63" fill="#116e6b" rx="10.36"/></svg>