<svg xmlns="http://www.w3.org/2000/svg" width="814" height="827" fill="none" viewBox="0 0 814 827"><path fill="#C58F79" d="m687.2 233.25 13.96 25.7s-1.45 1.9 11.1.3c12.56-1.6 25-11.01 34.2-21.5 9.18-10.5 6.59-14.67 2.63-15.3-6.34-1.04-13.92-.11-20.46 1.84-14.97 4.5-6.31-3.9-3.4-6.86 2.78-2.84 5.55-7.81-4.84-7.02-10.39.8-27.16 16.43-33.17 22.84h-.02Z"/><path fill="#9ECCED" d="M464.95 208.23c4.2 4.94 11.28 10.7 37.03 24.7 20.05 10.89 22.22 18.34 56.21 34.62 18.63 8.93 30.2 15.25 51.47 15.03 17.55-.17 56.14-3.7 96.32-15a7481.2 7481.2 0 0 0-18.11-41.77c-30.9 7.19-72.91 8.55-82.62 8.18-5.64-.21-18.85-5.96-25.13-9.46-25.5-16.66-27.78-20.46-47.48-36-12.32-9.7-25.95-21.52-38.26-25.6-8.9-3.18-12.73-4.16-18.28-4.66-5.56-.5-18.76 1.9-22.5 18.69-3.27 14.6 7.11 26.3 11.35 31.27Z"/><path fill="#68B096" d="M233.5 747.02c0-13.96-.12-26.46 0-39.01.43-41.41 1.84-82.77 14.07-122.75 2.93-9.61 7.05-18.78 13.33-27.47 6.28-8.69 12.06-11.83 20.23-10.5 8.18 1.35 12.6 7.93 15.72 19.19 3.12 11.25 2.15 37.4-.7 56.91-5.93 41.05-15.33 80.53-22.27 121.94 7.04-17.66 12.54-34.44 20.1-51.9 11.88-27.3 24.52-54.84 38.2-81.26 6.35-12.25 11.57-19.59 21.58-29.37 3.87-3.75 13.57-10.84 23.05-7.01 5.18 2.1 7.7 9.45 8.26 14.79 4.65 43.36-14.03 80.94-35.73 116.77-23.77 39.25-65.48 103.46-97.98 116.44-9.11 4.2-30.52 3.62-39.25-1.23-10.74-5.97-29.79-25.86-41.31-40.16-34.25-42.42-68.3-85.98-89.28-136.56-4.24-9.05-11.16-31.58-1.89-41.48 7.11-7.59 15.44-4.84 23 0 20.44 14.46 32.45 31.33 44.7 52.55 12.7 21.96 29.53 53.93 43.32 75.74-5.44-18.92-16.32-47.4-20.74-66.56-7.6-32.93-20.37-64.84-10.43-98.5 2.2-7.38 12.35-19.08 21.74-19.95 9.39-.87 15.58 7.73 20.98 17.85 5.4 10.11 14.29 47.07 18.42 72.78 5.53 34.5 11.69 106.42 12.86 108.74h.02v.01Z"/><path fill="#9ECCED" d="M353 250.8c40.77-21.78 68.77-39.94 73.4-60.81 1.96-8.82-1.46-21.82-13.3-28.11-10.13-5.38-18.62-4.04-26-.96-6.9 2.88-9.67 5.43-13.55 8.2-26.14 18.62-42.33 38.7-85.4 54.66-12.04 4.46-36.59-14.05-55.35-29.8-9.44-7.92-20.94-18.35-22.85-21.2l-30.75 28.37c7.6 8.03 48.8 59.94 100.3 71.14 20.05 4.35 58.63-13.53 73.5-21.48Z"/><path fill="#054449" d="m162.19 124.18 101.18-18.72a6.1 6.1 0 0 1 7.07 4.7l30.85 142.44a6.08 6.08 0 0 1-4.49 7.2l-99.87 24.8a6.1 6.1 0 0 1-7.42-4.62l-32.17-148.51a6.1 6.1 0 0 1 4.85-7.28v-.01Z"/><path fill="#1E1A28" d="M512.8 803.3s5.3 14.21 5.91 17.37c.61 2.73 1.93 3.7-7.83 3.79 0 0-57.93.91-61.88 0-2.61-.6-5.87-4.22-4.1-20.34l67.9-.82ZM395.86 804.2s.93 13.67-1.08 16.65c-2.03 2.98-3.23 4.9-21.02 3.92 0 0-50.18.9-51.77-.38-1.6-1.3 7.55-21.13 7.55-21.13l66.32.95Z"/><path fill="#054449" d="M518.48 370.56c.4 26.86 3.96 166.93 4.36 182.05.6 15.14 1 143.9 1 158.18 0 14.28.4 92.72-1.4 95.28-1.8 2.55-76.64 4.47-80.45 1.7-3.81-2.76 0-129.39-.6-144.53-.4-15.14-2.81-89.96-.4-150.93 2.4-60.97-1.97-72.25-3.38-72.25-1.42 0-2.64-3-8.26 54.56-5.62 57.56-17.05 162.24-19.46 187.6-2.4 25.58-9.02 124.71-11.64 125.78-2.61 1.07-73.44-.21-75.84-1.07-2.41-.85 3.81-83.57 4.6-92.74.8-9.17 16.86-212.54 17.66-223.42.8-10.86 8.03-124.5 8.03-124.5s84.67.22 91.89.86c7.42.42 73.9 3.41 73.9 3.41h-.02l.01.02Z"/><path fill="#9ECCED" d="M517.07 335.5c.1 21.1 1.67 41.45 2.09 50.4 0 0-85.61 8.53-120.8 4.3 0 0-45-2.02-47.34-2.02 0 0 .57-37.05.53-58.12.3-32.15.95-59.48 1.8-82.5.85-23.02-2.08-67.87 27.63-83.22 18.6-9.6 23.96-8.98 49.81-10.26 21.15-.85 51.15 2.38 63.33 13.67 15.6 14.28 17.45 45.03 19.62 74.53 1.43 33.26 2.5 65.5 3.33 93.21Z"/><path fill="#054449" d="M466.9 218.85a13.3 13.3 0 0 0-6.84-1.84 11.97 11.97 0 0 1 23.49 1.02c-2.4-.2-4.82.24-6.98 1.29a4.88 4.88 0 0 0-9.67-.47Zm16.77.79a11.77 11.77 0 0 0-13.03 12.01 11.98 11.98 0 0 0 13.03-11.9v-.11Zm-23.87-1.04a11.99 11.99 0 0 0 9.24 12.8v-.07c0-2.21.54-4.37 1.58-6.31a11.8 11.8 0 0 0-10.82-6.42Z"/><path fill="#C58F79" d="M481.56 102.62c-.27-1.45-1.55-2.22-3.03-2.86.6-11.64-1.82-19.04-7-26.51-4.35-6.27-10.42-12.52-18.93-15.56-7.55-2.7-26.04-1.99-33.47 1-17.77 6.76-24.76 23.26-25.67 41.5-1.52.38-2.86.95-3.3 2.31-.98 2.33-1.48 4.54-.84 7.1.6 2.08 1.92 3.38 4.56 5.15.72 8.48 3.4 16.59 7.79 23.32l.9 1.39c6.9 10.57 16.14 16.73 27.19 16.73h8.7c11 0 21.4-6.1 28.3-16.6l2.75-4.18a50.27 50.27 0 0 0 7.71-21.72c2.25-1.14 3.5-2.18 4.26-3.9.95-2.44.75-4.71.08-7.17Z"/><path fill="#1E1A28" d="M503.87 116.53c-1.2-6.13-8.6-14.1-11.15-18.08-6.78-10.58-9.57-16.02-9.57-16.02-7.38-15.08-23.4-27.56-41.62-28.43-9.39-.45-19.31-.27-28.23 4.98.04-.03-.05.03 0 0-12.93 6.46-23.1 23.55-20.6 38.69.15.84.32 1.66.52 2.48 1.51-.05 3.22.33 4.57-.53 6.23-3.95 14.57-12.53 19.34-22.34 14.33 21.67 43.28 29.44 61.38 22.43v.05c1.49.64 2.77 1.42 3.03 2.87.68 2.46.88 4.73-.08 7.17-.76 1.73-2 2.77-4.26 3.91a50.24 50.24 0 0 1-7.73 21.75l-2.75 4.19a40.44 40.44 0 0 1-7.85 8.86c.54 1.83 4.16 11.7 17.86 8.86 14.45-2.99 14.26-4.35 20.5-10.98 6.84-7.32 9.33-16.03 6.65-29.86Z"/><path fill="#E2F1DF" d="M224 190.74a1.6 1.6 0 1 1 3.13-.66 1.6 1.6 0 1 1-3.13.66Zm10.62-3.9a1.6 1.6 0 1 0 .66 3.13 1.6 1.6 0 0 0-.66-3.13Zm2.4 6.19a1.07 1.07 0 0 0-1.34.69 4.98 4.98 0 0 1-8.63 1.83l-.06-.06a1.07 1.07 0 0 0-1.53 1.49 7.11 7.11 0 0 0 6.9 2.35 7.15 7.15 0 0 0 5.34-4.95 1.07 1.07 0 0 0-.69-1.35h.01Zm11.15-8.5 1.74 8.14a2.03 2.03 0 0 1-1.57 2.4l-2.6.56.32 1.48c.5 2.3-.98 4.57-3.28 5.06l-18.79 4a4.27 4.27 0 0 1-5.06-3.3l-.32-1.48-2.6.56a2.03 2.03 0 0 1-2.4-1.57l-1.73-8.14a2.03 2.03 0 0 1 1.56-2.41l2.6-.55-.22-1.03c-.5-2.3.98-4.57 3.29-5.06l8.34-1.78-.55-2.62a4.38 4.38 0 1 1 2.09-.44l.55 2.62 8.35-1.77c2.3-.5 4.57.98 5.06 3.29l.22 1.02 2.6-.55c1.1-.24 2.17.46 2.4 1.56Zm-20.6-7.7a2.45 2.45 0 1 0-1.02-4.8 2.45 2.45 0 0 0 1.02 4.8Zm-9.36 22.68-1.77-8.35-2.6.55a.11.11 0 0 0-.08.13l1.73 8.14c0 .06.07.1.13.09l2.6-.56Zm22.66-16.58a2.14 2.14 0 0 0-2.53-1.65l-18.79 4a2.14 2.14 0 0 0-1.64 2.53l3.1 14.62a2.14 2.14 0 0 0 2.54 1.65l18.78-4a2.14 2.14 0 0 0 1.64-2.53l-3.1-14.62Zm5.42 1.99a.11.11 0 0 0-.12-.08l-2.6.55 1.78 8.36 2.6-.56c.05 0 .09-.07.08-.12l-1.74-8.15Z"/><path fill="#F9C4AA" d="M789.69 603.98h.03c3.15 6.35 5.93 13.05 14.17 12.26 5.64.06 8.95-3.28 9.65-8.75.9-7.31-2.2-11.06-11.84-14.19 1.64-4.36 5.93-4 9.38-5.18-3.89-4.1-11.8-4.27-15.23.5-3.65 6.4-11.1 9.07-15.6 14.13-46.53-31.6-105.15-24.55-158.42-21.97-41.18 3.74-84.32 10.65-120.23 32.45-18.27 12.4-33.35 22.35-48.14 39.7-11.1-13.37-30.39-20.51-48.3-16.6a89.64 89.64 0 0 0 0 3.96 50.23 50.23 0 0 0 27.12 42.4c-9.27 10.35-10.61 34.34-27.77 30.4-11.37-1.59-10.55 3.39-6.84 13.6 2.81 7.25 9.91 17.58 20.58 19.3 25.16 6.21 55.06 6 80.77 7.2 0 0 11.99 44.77 12.28 51.44.12 2.87-1.67 15.22-2.05 18.2-.17 1.34.53 1.99 1.08 1.99.56 0 14.73-.06 17.07 0 1.4.03 1.81-.65 1.93-1.29l13.5-69.95c1.5-.1 1.67-.12 2.34-.12 0 0 17.77 42.22 18.73 47.02.62 3.13.41 22.35.44 23.26 0 .85.61 1.1.9 1.1h16.7c.96 0 1.28-.4 1.51-1.2 4.44-13.86 6.05-57.3 6.93-70.3 36.15.56 60.05 1.35 103.01-.03 0 0 11 44.3 10.9 49.86-.02 2.08-2.57 19.13-2.68 20.07-.12.73.11 1.58.79 1.58.58 0 13.9.03 18.09 0 .87 0 1.57-.62 1.84-1.73 4.47-18.37 10.55-51.81 12-69.13l3.31 1.96s11.37 33.4 11.4 40.23c0 2.57-2.22 20.27-3.01 26.39-.18 1.37.61 2.3 1.58 2.3.84 0 13.9.1 17.76 0 .85 0 1.47-.55 1.64-1.2 7.34-26.8 14.73-63.69 22.74-88.44.38-1.29 1.99-3.5 2.8-4.74 27.27-37.27 24.35-85.84-5.43-119.55-2.52-2.72-1.26-5.3 2.57-6.9v-.03Zm8.62-4.21c5.29-.03 11.49 4.03 6.34 9-5.81 2.67-8.62-4.15-6.34-9Z"/><path fill="#F9CC76" d="M156.97 28.97c-.25-.4-.15-1.42.01-1.9.32-.97 8.81-5.66 10.41-6.54 2.34-1.3 4.83-2.4 7.25-3.51.55-2.66-.78-15.26.84-16.53.25-.2.77-.25 1.1-.18 1.6.35 7.15 5.84 8.66 7.34.75.74.99 1.96 2.02 2.09 1.29.03 13.53-8.3 16.84-9.3 5-1.52 4.42 1.14 2.87 4.72-2.5 5.76-7.74 11.1-10.7 16.68 2.71 5.14 7.66 8.81 10.35 13.96.48.9 1.74 2.82.57 3.61-3.03 2.08-17.31-4.65-18.76-3.73l-9.83 18.64c-1.97.06-2.11-19.68-3.86-21.4-2.38-2.33-16.9-2.5-17.78-3.95ZM86.1 192.96c-.13-.34-.06-2.74-.05-3.35.13-8.04 2.35-16.76 4.65-24.44 1.32-4.4 3.45-9.2 4.49-13.53.28-1.18.29-2.09-.26-3.2-6.92-7.32-15.56-13.55-22.6-20.68-1.3-1.3-.4-2.14 1.05-2.67 6.5-1.76 13.24-2.64 19.78-4.2 1.67-.4 5.79-1.18 6.76-2.43.73-.93 1.06-2.64 1.38-3.8 2.62-9.46 3.9-19.38 6.53-28.84.81-2.9 1.75-6.67 5.42-4l27.1 25.09c.59.05 1.3.1 1.87 0 3.2-.62 9.08-3.53 12.57-4.71 4.36-1.48 8.8-3.05 13.23-4.3 2.85-.8 8.16-3.11 7.93 1.66-.46 9.65-3.32 20.19-4.03 29.93.01 1.88.7 2.83 2.07 4.03 8.45 7.37 18.74 13.69 27.35 20.98 2.83 2.78-.97 4.37-3.3 5.2-8.81 3.1-19.93 4.58-28.51 8.21-3.15 1.33-3.72 2.53-4.93 5.6-4.06 10.27-6.73 21.69-10.63 32.08-.31.86-.92 1.44-1.84 1.1l-25.28-23.68c-.96-.87-2.17-1-3.39-.87-2.68.28-7.38 1.98-10.13 2.83-8.47 2.6-16.77 5.83-25.02 9.06-.9.21-1.9-.16-2.22-1.07ZM72.53 52.98c.44-.43.64-1.75.6-2.4-.1-1.33-9.28-9.97-11.01-11.6-2.53-2.39-5.3-4.59-8-6.76.16-3.53 5.89-19 4.27-21.11-.26-.33-.9-.58-1.34-.6-2.13-.07-10.88 5.07-13.27 6.48-1.17.7-1.87 2.15-3.21 1.98-1.64-.36-14.37-14.82-18.21-17.14-5.81-3.52-5.94.01-5.14 5.03 1.3 8.08 6.17 16.49 8.11 24.48-5.08 5.61-12.5 8.65-17.55 14.29-.88.98-3.1 2.99-1.88 4.37 3.16 3.59 23.3-.3 24.84 1.33L37.12 78c2.46.7 9-24.15 11.75-25.75 3.75-2.18 22.1 2.27 23.66.73Z"/></svg>