<svg xmlns="http://www.w3.org/2000/svg" width="135" height="248" fill="none" viewBox="0 0 135 248"><path fill="#C58F79" d="M17.56 50.71c-.94-2.44-3.83-8.62-6.62-9.97-2.8-1.35-2.59.34-2.14 1.43.48 1.14 1.92 4.42-1.72 1.54a14.12 14.12 0 0 0-5.47-2.74c-1.17-.25-2.36.63-1 4.56 1.36 3.92 3.74 7.9 7.05 9.7 3.3 1.82 3.1 1.13 3.1 1.13l6.8-5.65Z"/><path fill="#E2F1DF" d="M61.92 72.38c12.46-6.67 21.03-12.22 22.44-18.6.6-2.7-.45-6.68-4.07-8.6a8.67 8.67 0 0 0-7.94-.3c-2.11.89-2.96 1.67-4.15 2.51-7.99 5.7-12.94 11.84-26.1 16.72-3.69 1.37-11.2-4.3-16.93-9.11-2.88-2.43-6.4-5.62-6.98-6.49l-9.4 8.68c2.32 2.46 14.92 18.33 30.66 21.75 6.13 1.34 17.93-4.13 22.47-6.56Z"/><path fill="#054449" d="m3.58 33.65 30.94-5.72c.99-.19 1.95.45 2.16 1.43l9.43 43.56c.22.99-.4 1.96-1.37 2.2l-30.53 7.6a1.86 1.86 0 0 1-2.27-1.42L2.1 35.88a1.86 1.86 0 0 1 1.48-2.23Z"/><path fill="#1E1A28" d="M110.77 241.34s1.63 4.35 1.81 5.31c.19.84.6 1.13-2.4 1.16 0 0-17.7.28-18.91 0-.8-.18-1.8-1.29-1.26-6.22l20.77-.25ZM75.02 241.62s.29 4.18-.33 5.09c-.62.9-.99 1.5-6.42 1.2 0 0-15.34.27-15.83-.12-.49-.4 2.3-6.46 2.3-6.46l20.28.29Z"/><path fill="#054449" d="M112.51 109c.12 8.21 1.21 51.05 1.33 55.67.19 4.63.31 44.01.31 48.38 0 4.37.12 28.36-.43 29.14-.55.78-23.43 1.37-24.6.52-1.16-.85 0-39.57-.18-44.2-.12-4.63-.86-27.51-.12-46.16.74-18.64-.6-22.1-1.03-22.1-.44 0-.81-.91-2.53 16.7-1.72 17.6-5.21 49.6-5.95 57.36-.73 7.82-2.76 38.14-3.56 38.47-.8.32-22.45-.07-23.18-.33-.74-.26 1.16-25.56 1.4-28.36.25-2.8 5.16-65 5.4-68.33.25-3.32 2.46-38.07 2.46-38.07s25.88.06 28.09.26c2.27.13 22.6 1.04 22.6 1.04h-.01Z"/><path fill="#C58F79" d="M108.72 113.44c-2.15.72-7.65 2.97-9.03 5.35-1.37 2.37-1.4 3.09-1 7.76.09 1.06.82 2.46 4.28 1.44 3.46-1.02 7.04-2.93 8.84-5.73 1.8-2.8 1.2-2.67 1.2-2.67l-4.28-6.15Z"/><path fill="#E2F1DF" d="M92.77 50.84c.66-4.3 2.87-7.2 5.93-6.92 8.19 1.96 18.12 8.94 26.32 20.45 3 4.2 9.34 14.4 9.34 20.68-.21 16.08-18.4 34-20.54 36.62l-9.42-8.05c.6-.36 5.17-5.6 8.53-10.02 4.68-8.73 7.7-14.62 7.7-18.55-2.92-11.09-9.2-16.05-20.84-22.99 0 0-4.04-2.23-5.73-4.9a8 8 0 0 1-1.3-6.32Z"/><path fill="#E2F1DF" d="M112.08 98.27c.03 6.46.51 12.68.64 15.42 0 0-26.18 2.61-36.93 1.31 0 0-13.76-.61-14.47-.61 0 0 .17-11.33.16-17.78.09-9.83.29-18.19.55-25.23.26-7.04-.64-20.75 8.44-25.45C76.16 43 77.8 43.2 85.7 42.8c6.47-.27 15.64.72 19.36 4.18 4.77 4.36 5.34 13.77 6 22.79.44 10.17.77 20.03 1.02 28.5Z"/><path fill="#054449" d="M96.74 62.6a4.07 4.07 0 0 0-2.1-.56 3.66 3.66 0 0 1 7.19.31 4.07 4.07 0 0 0-2.13.4 1.5 1.5 0 0 0-2.96-.15Zm5.13.24a3.6 3.6 0 0 0-3.99 3.68c2.13.2 4-1.51 3.99-3.64v-.04Zm-7.3-.31a3.67 3.67 0 0 0 2.82 3.91v-.02c0-.68.17-1.34.49-1.93a3.61 3.61 0 0 0-3.31-1.96Z"/><path fill="#C58F79" d="M101.22 27.06c-.08-.44-.47-.68-.92-.88.18-3.56-.56-5.82-2.14-8.1-1.33-1.92-3.19-3.83-5.8-4.76-2.3-.83-7.95-.61-10.22.3-5.44 2.07-7.57 7.12-7.85 12.7-.47.11-.88.28-1.01.7a3.3 3.3 0 0 0-.26 2.17c.18.64.59 1.04 1.4 1.58a15.5 15.5 0 0 0 2.38 7.13l.28.42c2.1 3.24 4.93 5.12 8.3 5.12h2.67c3.36 0 6.54-1.86 8.65-5.08l.84-1.27a15.38 15.38 0 0 0 2.36-6.65c.68-.34 1.07-.66 1.3-1.2.29-.74.23-1.43.02-2.18Z"/><path fill="#1E1A28" d="M94 14.02a15.09 15.09 0 0 0-4.37-1.65 4.4 4.4 0 0 0 1.55-1.29l.33-.43c.51-.67.83-1.48.93-2.33l.1-.83a4.84 4.84 0 0 0-.78-3.25l-.24-.36a3.1 3.1 0 0 0-2.15-1.42c-1.77-.39-3-.05-3.89.26a4.59 4.59 0 0 0-2.99 4.11l-.05.93a4.8 4.8 0 0 0 .95 3.17l.1.14c.4.52.85.94 1.37 1.23-3.32.56-6.61 2.52-8.36 5.07-2.75 4.6-2.29 5.29-2.63 8-.04.35.02.7.05 1.04a12.87 12.87 0 0 0 13.74-7.5c1.96 4.77 6.53 8.22 11.65 7.46.32-.05.66-.15.98-.2.08-.64.06-1.2.06-1.87.04-3.73-2.33-8.16-6.36-10.28Z"/></svg>