<svg xmlns="http://www.w3.org/2000/svg" width="1218" height="814" fill="none" viewBox="0 0 1218 814"><path fill="#7F433B" d="M1217.5 572.4a70.39 70.39 0 0 0-17.59-46.98c-2.97-4.48-10.19-11.81-10.42-18.68l-.09.1c-1.91-77.1-2.33-203.23-8.42-275.85-3.44-17.93-29.78-48-40.24-54.91-9.77-8.74-21.78-15.74-33.73-16.9-22.29-2.9-156.74 2.33-181.2 6.39-169.03 12.24-467.89 22.37-639.65-13.64v.1c-34.8-5.98-60.3-10.42-60.3-10.42-.04-40.62-17.44-60.42-17.44-60.42-33.03 6.4-37.08 34.88-37.08 34.88-15.21-35.35-47.45-35.91-47.6-34.79-9.95 17.51-5.3 46.8 1.13 60.1-1.4 4.67-5.91 11.07-18.99 23.58-24.33 23.26-22.6 39-24.33 46.51-1.72 7.52-59.13 100.03-69 110.49-15.58 16.3-16.46 43.48 2.34 54.08 24.19 14.7 28.05 8.77 47.73 7.1 19.68-1.69 18-5.05 23.4-9.67 5.4-4.63 4.6-4.2 13.82-4.63 9.2-.42 62.7-7.14 102.02-12.18 33.73-4.35 49.08 4.3 66.1 18.49v.1c29.88 22.73 34.8 72.8 57.93 116.5 5.4 17.1 22.15 47.91 49.04 59.26.65 3.46 16.65 137.57 20.51 171.48-.32 17.37-6.8 35.06-10.42 57.53v27.92c0 3.46 1.4 4.9 3.96 4.9l52.05-.09c2.7 0 3.63-2.57 3.96-4.01 9.21-39.8 7.16-57.21 9.49-119.7 1.07-27.45 2.28-64.34 2.84-83.11l12.84-13.17c8.05 23.96 15.63 60.47 16.6 68.6 2 29.18.89 98.72-6.37 124.96v22.55c0 2.39.93 3.88 2.51 3.88h53.41c2.6 0 4.1-1.4 4.6-3.03.8-2.48 4.15-19.15 5.82-29.9.33-1.95 2.47-74.8 2.47-74.8-.28-21.01-1.63-88.87 1.07-136.54 134.03 6.07 232.24 7.6 358.27 2.52 6.75 33.57 41.08 59.86 84.25 63.97.93 53.61-2.18 90.74-13.16 133.37-5.5 14.34-6.42 36.05-6.51 39.41-.05 1.68-.66 5.1 2.46 5.1h52.57c3.07 0 4.23-1.55 4.93-4.4 4.1-21.43 10.98-67.7 19.03-93.81 6.33-23.54 6.19-51.7 10.47-81.2l18.09 9.14h.1c5.12 14.53 10.56 32.74 12.19 40.72 4.65 30.87 9.02 91.02 2.46 123.57-.23 2.38.19 6.02 3.77 5.97 2.98-.04 46.43 0 49.97 0 4.51 0 5.11-3.87 5.49-5.74 11.86-41.98-1.82-122.11-3.96-178.76 3.35-32.69 1.49-142.24 1.44-177.3 2.19-55.02 5.77-80.89 8.61-164.1l11.72 113c.52 33.86 1.54 93.5-1.3 128.75a71.52 71.52 0 0 0 .79 52.9c0 .24.1.43.24.57a70.9 70.9 0 0 0 30.65 33.95 70.26 70.26 0 0 0 14.98-43.52l-.18-.1-.14-.1Z"/><path fill="#C58F79" d="M548.3 166.3c-3.08-8-12.53-28.28-21.7-32.7-9.15-4.43-8.48 1.1-7 4.69 1.55 3.74 6.3 14.5-5.65 5.06-5.23-4.13-11.78-7.67-17.93-8.99-3.83-.82-7.75 2.06-3.3 14.94 4.47 12.87 12.3 25.9 23.12 31.84 10.84 5.94 10.2 3.69 10.2 3.69l22.27-18.53Z"/><path fill="#F9C4AA" d="M693.74 237.35c40.87-21.85 68.94-40.07 73.58-61 1.96-8.84-1.47-21.88-13.34-28.2-10.14-5.39-18.65-4.05-26.05-.96-6.92 2.9-9.7 5.45-13.58 8.22-26.2 18.68-42.43 38.82-85.6 54.83-12.07 4.48-36.67-14.09-55.47-29.88-9.47-7.96-21-18.42-22.91-21.27l-30.82 28.45c7.61 8.06 48.92 60.13 100.53 71.35 20.1 4.37 58.77-13.56 73.68-21.53l-.02-.01Z"/><path fill="#1E1A28" d="M853.88 791.61s5.33 14.26 5.93 17.42c.61 2.74 1.94 3.71-7.84 3.8 0 0-58.08.92-62.03 0-2.62-.6-5.89-4.23-4.12-20.4l68.07-.82ZM736.67 792.51s.94 13.71-1.08 16.7c-2.03 2.98-3.23 4.9-21.07 3.93 0 0-50.29.9-51.88-.39-1.6-1.3 7.57-21.19 7.57-21.19l66.47.96Z"/><path fill="#116E6B" d="M859.58 357.58c.4 26.94 3.97 167.42 4.36 182.6.61 15.18 1.01 144.32 1.01 158.65 0 14.32.41 93-1.4 95.56-1.81 2.56-76.82 4.48-80.64 1.7-3.82-2.77 0-129.77-.6-144.95-.4-15.19-2.81-90.23-.4-151.38 2.41-61.15-1.97-72.47-3.39-72.47-1.41 0-2.64-3-8.27 54.72-5.63 57.74-17.1 162.72-19.5 188.16-2.42 25.66-9.05 125.09-11.68 126.15-2.61 1.07-73.6-.2-76.01-1.06-2.42-.86 3.82-83.83 4.62-93.02.8-9.2 16.89-213.18 17.7-224.09.8-10.9 8.03-124.86 8.03-124.86s84.87.2 92.1.85c7.45.42 74.07 3.42 74.07 3.42h-.01l.01.02Z"/><path fill="#F9C4AA" d="M858.17 322.3c.1 21.16 1.68 41.57 2.1 50.55 0 0-85.81 8.56-121.07 4.31 0 0-45.1-2.02-47.45-2.02 0 0 .56-37.16.52-58.29.31-32.25.96-59.66 1.8-82.75.86-23.08-2.08-68.07 27.7-83.46 18.64-9.63 24.01-9.01 49.93-10.3 21.2-.85 51.26 2.39 63.47 13.72 15.63 14.31 17.49 45.16 19.66 74.74 1.43 33.37 2.5 65.7 3.35 93.5h-.01Z"/><path fill="#C58F79" d="M822.58 88.74c-.27-1.45-1.55-2.23-3.04-2.87.61-11.67-1.82-19.1-7.01-26.59-4.36-6.29-10.44-12.55-18.98-15.6-7.56-2.71-26.1-2-33.54 1-17.8 6.78-24.82 23.33-25.73 41.61-1.52.4-2.87.96-3.31 2.33-.98 2.34-1.48 4.55-.84 7.13.6 2.07 1.92 3.38 4.57 5.15.72 8.5 3.4 16.64 7.8 23.4l.92 1.38c6.92 10.61 16.17 16.8 27.24 16.8h8.73c11.01 0 21.45-6.13 28.36-16.66l2.76-4.2a50.46 50.46 0 0 0 7.72-21.78c2.26-1.14 3.51-2.18 4.27-3.92.96-2.44.75-4.71.08-7.18Z"/><path fill="#1E1A28" d="M819.27 76.82c-1.76-15.46-10.23-28.6-26.91-34-8.5-2.77-18.92-4.1-27.88-1.9-.92.23-1.58.15-3.26.51-15.3 3.26-31.46 23.78-27.97 42.46.18.9.39 1.78.61 2.64 1.65-.01 3.52.41 4.98-.47 7.54-4.56 17.85-15.21 22.34-27.07 5.5 20.6 39.63 29.49 55.22 28.07 1.31-.13 2.47-.73 3.7-1.16-.03-2.76-.51-6.27-.83-9.07Z"/><path fill="#C58F79" d="M847.17 372.05c-7.06 2.35-25.1 9.74-29.6 17.53-4.5 7.8-4.6 10.15-3.3 25.47.3 3.45 2.7 8.07 14.05 4.73 11.33-3.34 23.06-9.62 28.98-18.81 5.92-9.2 3.95-8.74 3.95-8.74l-14.07-20.19Z"/><path fill="#F9C4AA" d="M794.86 166.76c2.17-14.1 9.42-23.61 19.45-22.72 26.85 6.46 59.4 29.34 86.29 67.1 9.8 13.77 30.63 47.23 30.63 67.8-.7 52.75-60.33 111.53-67.34 120.12L833 372.64c1.97-1.19 16.95-18.38 27.96-32.88 15.36-28.63 25.23-47.95 25.23-60.82-9.55-36.37-30.15-52.66-68.32-75.4 0 0-13.24-7.32-18.78-16.06-5.12-8.06-5.32-13.61-4.22-20.73Z"/><path fill="#032C30" d="M503.88 108.13 605.3 89.35a6.1 6.1 0 0 1 7.08 4.72l30.93 142.86a6.1 6.1 0 0 1-4.5 7.22l-100.1 24.88a6.11 6.11 0 0 1-7.44-4.64l-32.25-148.95a6.11 6.11 0 0 1 4.86-7.3v-.01Z"/><path fill="#E2F1DF" d="M543.2 144.18a15.5 15.5 0 0 0-8.25-.43 13.95 13.95 0 0 1 27.03-4.53 15.5 15.5 0 0 0-7.64 3.16 5.7 5.7 0 0 0-11.14 1.8Zm19.3-3.16a13.73 13.73 0 0 0-11.93 16.86 13.97 13.97 0 0 0 11.93-16.86Zm-27.46 4.6A13.98 13.98 0 0 0 548.68 158l-.02-.08c-.54-2.53-.44-5.13.28-7.6a13.76 13.76 0 0 0-13.9-4.69Z"/></svg>