<svg xmlns="http://www.w3.org/2000/svg" width="196" height="249" fill="none" viewBox="0 0 196 249"><path fill="#68B096" d="M155.74 172.91v19.49c6.33-17.55 19.2-24.1 36.57-23.52 2.48 17.64-12.7 34.08-36.18 37.97V229c1.19-2.4 2-4.26 2.99-6.01 7.35-13.02 20.77-18.57 36.53-18.77 2.03 11.21-5.1 27.07-15.87 34.43-18.98 12.98-45.09 12.58-59.6-3.56-7.58-8.44-11.14-18.42-11.39-29.73 13.03-3.37 28.75 4.9 39.6 26.74v-24.25c-9.93-.89-19.23-3.4-26.11-11.16-6.8-7.66-9.05-17.12-9.63-27.13 11.54-2.49 29.64 6.68 35.97 27.27v-23.9c0-.07-.02-.48.14-.55.17-.07 6.7.04 6.85.06.16 0 .12.36.12.48Z"/><path fill="#F9CC76" d="M193.56 125.26c-2.85 12.17-11.15 20.69-19.85 28.7a79.51 79.51 0 0 1-12.03 8.8c-5.49 3.39-11.55 3.84-17.27.89-14.34-7.41-26.38-17.45-33.42-32.63a33.1 33.1 0 0 1-2.5-8.23c-.86-4.93 1.96-7.02 7.84-6.7 9.34.52 17.18 9.2 23.87 17.48.19-6.19.09-13.61 1.2-19.6.84-4.53 2.81-8.29 5.6-12.08 2.34-2.94 5.27-4.44 8.98-.08 3.2 3.6 4.35 7.07 4.9 10.83.99 6.68.97 13.5 1.38 20.17 5.92-7.14 12.73-14.22 22.79-16.42 2.8-.62 6.76-.5 8.14 1.04 1.39 1.53 1.06 4.9.37 7.83Z"/><path fill="#C58F79" d="M28.06 50.67c-.94-2.44-3.81-8.61-6.6-9.96-2.79-1.35-2.58.33-2.14 1.43.48 1.14 1.92 4.42-1.72 1.54a14.09 14.09 0 0 0-5.45-2.74c-1.17-.25-2.36.63-1 4.55 1.35 3.93 3.73 7.9 7.03 9.7 3.3 1.82 3.1 1.13 3.1 1.13l6.78-5.65Z"/><path fill="#054449" d="M72.34 72.32c12.44-6.66 20.98-12.2 22.4-18.58a8 8 0 0 0-4.06-8.6 8.65 8.65 0 0 0-7.93-.29c-2.11.88-2.95 1.66-4.14 2.5-7.98 5.7-12.91 11.83-26.06 16.71-3.67 1.37-11.16-4.3-16.88-9.1-2.89-2.43-6.4-5.61-6.98-6.48l-9.38 8.67c2.32 2.45 14.9 18.31 30.6 21.74 6.12 1.33 17.9-4.14 22.43-6.57Z"/><path fill="#9ECCED" d="m14.12 33.63 30.87-5.73c.99-.18 1.94.46 2.16 1.44l9.41 43.53c.21.98-.4 1.96-1.37 2.2l-30.47 7.58a1.86 1.86 0 0 1-2.27-1.41l-9.81-45.39a1.86 1.86 0 0 1 1.48-2.22Z"/><path fill="#1E1A28" d="M121.1 241.16s1.62 4.34 1.8 5.3c.19.84.59 1.14-2.39 1.17 0 0-17.68.28-18.88 0-.8-.19-1.8-1.3-1.25-6.22l20.72-.25Zm-35.69.28s.29 4.17-.32 5.08c-.62.91-.99 1.5-6.42 1.2 0 0-15.3.28-15.8-.12-.48-.4 2.31-6.45 2.31-6.45l20.24.29Z"/><path fill="#0C4FA1" d="M122.83 108.92c.12 8.2 1.2 51 1.33 55.63.18 4.63.3 43.98.3 48.34 0 4.36.13 28.33-.42 29.12-.55.78-23.39 1.36-24.55.52-1.16-.85 0-39.54-.18-44.17-.12-4.63-.86-27.5-.12-46.12.73-18.64-.6-22.08-1.04-22.08-.43 0-.8-.92-2.52 16.67-1.7 17.59-5.2 49.58-5.93 57.33-.74 7.82-2.76 38.11-3.56 38.44-.8.32-22.4-.07-23.14-.33-.73-.26 1.17-25.54 1.41-28.34.24-2.8 5.14-64.95 5.39-68.28.24-3.32 2.45-38.04 2.45-38.04s25.83.06 28.03.26c2.27.13 22.55 1.04 22.55 1.04Z"/><path fill="#C58F79" d="M119.05 113.35c-2.15.72-7.64 2.97-9.01 5.35-1.37 2.37-1.4 3.09-1 7.76.08 1.05.82 2.46 4.27 1.44 3.45-1.02 7.02-2.93 8.82-5.73 1.8-2.8 1.2-2.67 1.2-2.67l-4.28-6.15Z"/><path fill="#054449" d="M103.12 50.8c.66-4.29 2.87-7.19 5.92-6.92 8.18 1.97 18.09 8.94 26.27 20.45 2.99 4.2 9.33 14.39 9.33 20.66-.22 16.07-18.37 33.98-20.5 36.6l-9.4-8.05c.6-.36 5.15-5.6 8.5-10.02 4.68-8.72 7.69-14.61 7.69-18.53-2.91-11.08-9.18-16.05-20.8-22.97 0 0-4.03-2.23-5.72-4.9a8 8 0 0 1-1.28-6.31Z"/><path fill="#054449" d="M122.4 98.2c.03 6.45.51 12.67.64 15.4 0 0-26.13 2.61-36.86 1.32 0 0-13.73-.62-14.44-.62 0 0 .17-11.32.16-17.76.09-9.82.29-18.17.55-25.2.26-7.04-.64-20.75 8.43-25.44 5.67-2.93 7.3-2.75 15.2-3.14 6.45-.26 15.6.73 19.32 4.18 4.76 4.36 5.32 13.76 5.98 22.78.44 10.16.77 20.01 1.02 28.48Z"/><path fill="#E2F1DF" d="M107.1 62.55A4.05 4.05 0 0 0 105 62a3.65 3.65 0 0 1 7.17.32 4.06 4.06 0 0 0-2.13.39 1.49 1.49 0 0 0-2.95-.15Zm5.1.25a3.6 3.6 0 0 0-3.97 3.67c2.12.2 3.99-1.5 3.98-3.64v-.03Zm-7.28-.32a3.66 3.66 0 0 0 2.82 3.91v-.02c0-.68.17-1.34.49-1.93a3.6 3.6 0 0 0-3.3-1.96Z"/><path fill="#C58F79" d="M111.56 27.04c-.08-.44-.47-.68-.92-.88.18-3.55-.56-5.82-2.14-8.1-1.33-1.91-3.18-3.82-5.78-4.75-2.3-.83-7.94-.61-10.2.3-5.43 2.07-7.56 7.11-7.84 12.68-.46.12-.87.3-1 .71a3.3 3.3 0 0 0-.26 2.17c.18.64.58 1.03 1.39 1.57a15.5 15.5 0 0 0 2.37 7.13l.28.42c2.1 3.24 4.93 5.12 8.3 5.12h2.65c3.36 0 6.53-1.86 8.64-5.08l.84-1.27a15.38 15.38 0 0 0 2.35-6.64c.69-.35 1.07-.67 1.3-1.2.29-.74.23-1.43.02-2.18Z"/><path fill="#1E1A28" d="M115.27 21.48c-.7-2.74-3.88-4.14-3.88-4.14s1.97-2.4-.49-4.14c-2.45-1.74-4.47-.73-4.47-.73s.05-2.1-2.95-3.22c-3-1.13-4.91.55-4.91.55s-2.3-1.65-5.35-.55c-3.06 1.1-2.94 3.31-2.94 3.31s-4.75-.37-6.66 2.2c-1.91 2.58 0 4.6 0 4.6s-3.28 1.11-3.28 3.87 3.28 3.95 3.28 3.95l.95-.86.78-.18c4.08-1 7.35-3.1 9.23-5.62 3.38 3.11 8.35 4.89 13.56 4.68.5 1.2 1.4 2.45 2.9 2.45 4.74 0 4.8-3.94 4.23-6.17Z"/><path fill="#FAF6F3" d="M32.2 38.5c.14.17.27.36.53.28.17-.03.26-.16.24-.33-.02-.23-.14-.33-.46-.36.02-.15.16-.17.26-.22-.15-.1-.4-.06-.48.11-.07.22-.28.36-.4.54-1.66-.66-3.45-.05-5.1.38a9.3 9.3 0 0 0-3.56 1.8c-.5.51-.9.92-1.25 1.56a1.63 1.63 0 0 0-1.63-.2l.03.13c.15.57.6.98 1.13 1.13-.22.38-.1 1.13-.67 1.12-.37.03-.31.18-.13.47.14.2.43.48.77.46.83.03 1.77-.18 2.59-.31 0 0 .67 1.3.72 1.5.02.1.05.49.05.58 0 .04.03.06.05.06l.54-.12c.04 0 .05-.03.05-.05l-.04-2.26.07-.01s.84 1.18.9 1.32c.04.1.16.7.17.72 0 .03.02.03.03.03l.53-.11c.03 0 .03-.02.04-.05.04-.46-.2-1.81-.25-2.22 1.14-.22 1.9-.36 3.23-.69 0 0 .64 1.3.67 1.47l.05.64c0 .02.01.05.03.04l.57-.12c.03 0 .05-.03.05-.06.02-.6-.01-1.68-.08-2.22l.12.04s.57.95.62 1.17c.02.07.06.64.08.83 0 .05.03.07.06.06l.56-.12c.03 0 .04-.02.04-.04.06-.88.05-2.07.13-2.9 0-.03.04-.11.06-.16.61-1.33.2-2.82-.95-3.66-.1-.07-.08-.16.03-.23Zm.24-.19c.17-.04.4.05.26.24-.16.12-.3-.07-.26-.24ZM38.19 36.1c-1.32-.29-2.28.27-2.28.27s.96 1.16 2.16 1.43c1.16.1 1.66-.7 1.66-.7s-.22-.72-1.54-1Zm1.37.1.37 1.2.18.82c.14.08.22.16.24.17 0-.02 0-.17.07-.37l-.4-1.92-.46.1Zm.78 2.2s.01-1.22 1.6-1.56c1.57-.33 2.2.81 2.61 1.5.41.7.5 1.55.32 2.73a4.07 4.07 0 0 1-1.73 2.4c-.14.07-.54.24-.91.17-.5-.05-.36.14-1.3.34-.95.2-2.66-.05-3.67-1.99 0 0-.81-1.59-.2-2.83.33-.7.57-.9 1.53-1.19.96-.29 1.76.42 1.76.42ZM37.9 52a13.27 13.27 0 0 0-6.85-.25l-.6-.3c-.6-.3-1.02-.36-1.09-.35l-.35.65-.42.72.15.1c-.84.34-1.75.67-2.54 1.04-.98.46-1.72.77-2.55 1.21-.39-.09-.68-.14-1.09-.25a12.7 12.7 0 0 0-1.8-.5c-.04.1.19.6.52 1.85.12.59.3 2.15.38 2.16.1.01 1.42-1.35 2.12-2.16a15 15 0 0 0 1.7.06l-.19.15c.02.03.19.18.35.4.17.22.33.46.36.48.32-.2 1-.8 1.2-1.04 1.2.02 2.2-.03 3.4-.2 4.74-.65 6.64-2.26 7.38-3.37l.02-.04c.15-.24-.02-.33-.1-.36Zm4.79-4.96.48.57c.52.64 1.06 1.26 1.56 1.91.43.56.82 1.15 1.06 1.81.14.35.2.72.21 1.09.01.53-.2.95-.59 1.28a2.1 2.1 0 0 1-2.16.45c-.3-.1-.6-.2-.84-.42a1.84 1.84 0 0 1-.58-.93 5.96 5.96 0 0 1-.08-1.89c.02-.4.12-.78.21-1.16l.6-2.34.13-.37ZM31.54 62.6l.18.8c.36-.28.7-.64 1.13-.88.83-.46 1.64-.17 1.98.68a1.2 1.2 0 0 1-1.09 1.6c-.81.06-1.25-.36-1.41-1.27-.43.36-.45 1.25-.02 2.6.33-.27.54-.61.94-.84.62-.35 1.28-.48 1.91.03.45.37.73 1.17.38 1.76a1.5 1.5 0 0 1-1.74.58 1.4 1.4 0 0 1-.84-1.35l.03-.2c-.2.1-.37.52-.34.86.08.9.27 1.68.44 2.59.3-.48.62-.9 1.1-1.18.68-.4 1.37-.53 2.05-.02.5.37.66 1.03.46 1.67-.12.41-.69.88-1.31.9-.87.04-1.4-.74-1.39-1.64a2.1 2.1 0 0 0-.43 1.78c.11.65.26 1.3.4 1.93.06.27.07.46-.29.53-.33.07-.39-.12-.44-.36-.12-.6-.23-1.18-.38-1.77a2.3 2.3 0 0 0-.58-1.2c0 .4.04.69-.06 1-.19.53-.66.76-1.21.8-.55.05-.9-.25-1.13-.68a1.38 1.38 0 0 1 .33-1.75c.5-.38 1.3-.58 1.97-.03l.36.33a65 65 0 0 0-.6-2.56c-.14-.52-.85-.98-1.4-1 .22.18.36.36.48.57.24.53.13.97-.19 1.39-.32.42-.78.59-1.28.5-.81-.17-1.19-.89-1-1.71.16-.66.8-1.1 1.56-1.18.74-.03.85-.05 1.59.26-.07-.92-.4-2.14-.97-2.47.06.16.08.26.11.45.06.53-.12.82-.65 1.09-.58.3-1.25.21-1.58-.24-.34-.46-.44-1.2 0-1.67.45-.48 1.4-.6 2.05-.24l.51.29-.13-.64c-.98-.15-1.35-.77-1.36-1.4 0-.77.55-1.31 1.36-1.4.63-.05 1.23.4 1.39 1.04.17.71-.17 1.36-.89 1.65Zm13.6 5.86c.03.18.37 2.02.47 2.05.11.02 1.2-.13 1.75-.24a8.1 8.1 0 0 0 1.76-.56c.01-.05-.33-2-.34-2.04-.32.2-3.42.77-3.64.79Z"/><path fill="#FAF6F3" d="M48.78 67.67c.22-.14.15-.3.09-.75-.08-.53-.91-7.96-1.01-8.82-.02-.17-.07-.4-.11-.5-.03-.06-2.46.52-2.94.63-.49.1-2.88.62-2.9.65-.02.03.11.52.11.52.18.47 2.53 7.69 2.7 8.3.18.6.2.77.42.76.22-.02 3.33-.6 3.65-.8Z"/><path fill="#C58F79" d="M76.71 235.24c-.43-.9-1.79-2.54-2.48-3.95-.86-1.78-1.87-6.1-1.76-8.07.33-5.87.19-8.35-1.9-12.6-.36-.78-.31-.65-.32-1.63-.02-.99.94-1.89 1.68-3.96.75-2.06 1.72-7.06 2.4-11.6.85-5.72.2-7.76-1.36-11.72-1.51-3.83-4.36-4.61-5.59-5.03-1.22-.43-4.36-1.03-4.32.52.05 1.55 1.08 1.5 2.5 2.11 1.4.61 2.52 2.74 3.33 5.41 1.02 3.4.51 5.74.38 8.75-.15 3.01-1.6 7.85-2.12 9.31-.51 1.46-1.17 1.88-2.67 2.06-11.06.44-24.62 1.2-35.74 1l.05-.02c-2.86-.1-7.32-3.94-8.04-4.6-.72-.66-4.05-4.57-4.4-4.98-.36-.41-1.03-.97-1.75-2.83-.72-1.85-2.02-4.51-2.4-4.26-1.19.77-1.44 3.23-1.44 3.23-.61-1.84-1.87-2.26-2.07-2.15a7.74 7.74 0 0 0 0 2.87c-.22.4-4.03 1.75-4.64 2.2-.61.47-.83 1.6-1.13 2.16-.3.56-2.3 1.23-2.71 1.72-.41.48-.11 1.51 0 2.08.1.56.6 1.12 1.43 2.4.83 1.29 2.92.72 3.54.72.62 0 2.2 2.41 2.94 3.3a961.27 961.27 0 0 1 8.16 19.82c-.1 2.42-1.45 13.83-1.7 14.47a18.8 18.8 0 0 1-2.05 3.15c-.2.2-1 .72-.92 1.7.09.99.44 1.49.75 1.49h2.34c.72 0 .96-.57 1.41-1.1.46-.54 2.13-2.55 2.6-3.42.36-.64 4.35-8.7 6.52-13.07 1.16 3.14 2.78 7.7 3.11 8.6.52 1.4 4.07 5.72 4.46 6.87.4.68.31 1.92 1.33 2.12h1.37c.3 0 1.27-.75 1.37-1.28.94-2.16-2.09-4.72-2.95-6.63-.83-1.43-1.08-1.87-1.1-2.26-.05-.66.39-6.55.61-9.67 4.45-.1 9.8-.27 14.2-.42.65 1.82 1.39 4.07 1.84 5.54.42 1.33 1.27 3.87 1.47 4.85.24 1.27.34 1.78-.28 2.41-.59.6-3.9 3.83-4.27 4.01-.93.48-1.49 1.08-1.5 1.9 0 .94.45 1.54 1 1.54h2.33c.53 0 1.42-.9 3-2.17 1.4-1.11 6.18-5.13 6.62-6.29.42-1.07 0-2.54.17-3.64.11-.8.97-3.9 1.74-6.62l2.1 2.8c1.8 2.37 6.12 4.02 7.65 4.86 1.6.88 2.36 1.88 2.06 3.03-.23.9-.93 4.25-1.1 4.58-.17.33-.74.52-.98 1.32-.24.81-.03 1.86.78 2.08 0 0 2.41.05 3.09.05.68 0 1.27-1.8 1.57-2.68.36-1.03 2.69-8.58 1.8-10.38Z"/></svg>