<svg xmlns="http://www.w3.org/2000/svg" width="908" height="800" fill="none" viewBox="0 0 908 800"><path fill="#539d82" d="M529.46 100.3a30.7 30.7 0 0 1-.36 43.4 5 5 0 0 0-.95 5.79c6.2 12.8 9.68 26.57 10.46 40.46a5.1 5.1 0 0 0 3.66 4.64 30.7 30.7 0 1 1-16.38 59.17 5 5 0 0 0-5.5 2.07 107 107 0 0 1-29.82 29.32 5 5 0 0 0-2.16 5.46 30.7 30.7 0 0 1-59.44 15.4 5.1 5.1 0 0 0-4.57-3.75 106.5 106.5 0 0 1-40.29-11.13 5 5 0 0 0-5.8.85 30.7 30.7 0 0 1-43.04-43.78 5 5 0 0 0 .95-5.78 106.5 106.5 0 0 1-10.47-40.47 5.1 5.1 0 0 0-3.66-4.63 30.7 30.7 0 0 1 16.39-59.17 5 5 0 0 0 5.49-2.07 107 107 0 0 1 29.82-29.33 5 5 0 0 0 2.16-5.46 30.7 30.7 0 0 1 59.44-15.4 5.1 5.1 0 0 0 4.57 3.75 106.5 106.5 0 0 1 40.29 11.14c1.92.97 4.26.66 5.8-.85a30.7 30.7 0 0 1 43.41.36m-64.56 63.48a45.89 45.89 0 1 0-65.44 64.35 45.89 45.89 0 0 0 65.44-64.35"/><path fill="#539d82" d="M89.88 359.92a46.8 46.8 0 0 1 63.58-18.42 7.2 7.2 0 0 0 8.34-1.08 163 163 0 0 1 54.25-33.11 8.3 8.3 0 0 0 5.51-7.89 46.6 46.6 0 0 1 93.17-1.64c.06 3.22 2.22 6 5.3 6.97 9.99 3.15 19.82 7.33 29.35 12.57a161 161 0 0 1 26.31 18.09 7.5 7.5 0 0 0 8.72.75 46.59 46.59 0 1 1 48.4 79.62 8.3 8.3 0 0 0-3.71 8.87 163 163 0 0 1 1 63.55 7.2 7.2 0 0 0 3.55 7.63 46.8 46.8 0 1 1-45.15 81.99 7.2 7.2 0 0 0-8.35 1.08A163 163 0 0 1 325.9 612a8.3 8.3 0 0 0-5.52 7.9 46.59 46.59 0 0 1-93.17 1.64 7.5 7.5 0 0 0-5.3-6.98A161 161 0 0 1 192.58 602a161 161 0 0 1-26.3-18.08 7.5 7.5 0 0 0-8.73-.75 46.6 46.6 0 0 1-48.42-79.61 8.3 8.3 0 0 0 3.73-8.89 163 163 0 0 1-1.01-63.53 7.2 7.2 0 0 0-3.55-7.64 46.8 46.8 0 0 1-18.42-63.57"/><path fill="#b4cea0" fill-rule="evenodd" d="M836.85 59.23c32.2 16.46 45.47 55.4 29.62 87.38l-19.8 39.95 8.76 4.34c2 1 2.83 3.4 1.86 5.37l-59.02 119.11c-17.02 34.35-59.1 48.17-94 30.87l-64.03-31.74c-34.9-17.3-49.4-59.16-32.38-93.5l59.02-119.12a4 4 0 0 1 5.4-1.77l8.75 4.34 19.8-39.95c15.96-32.24 55.47-45.21 88.22-28.98zm-56.93-5.26c-22.41-11.11-49.44-2.24-60.37 19.82l-19.8 39.95 128.2 63.54 19.79-39.95c10.93-22.06 1.62-48.95-20.8-60.05z" clip-rule="evenodd"/><path fill="#116e6b" d="M739.08 195.5c13.91 6.9 20.76 21.43 15.3 32.45-3.12 6.3-9.6 10.1-17.17 10.9a4 4 0 0 0-3.13 2.17l-18.45 37.24a2.7 2.7 0 0 1-3.6 1.18l-23.34-11.56a2.7 2.7 0 0 1-1.24-3.59l18.45-37.23c.6-1.21.54-2.65-.17-3.81-3.95-6.51-4.85-13.97-1.73-20.27 5.46-11.02 21.17-14.37 35.08-7.47"/><path fill="#abe1cd" d="M222.95 406.55c0-7.24 5.88-13.11 13.12-13.11h459.01c7.25 0 13.12 5.87 13.12 13.11v56.83H222.95z"/><path fill="#faf7f4" d="M222.95 463.4H708.2v323.49c0 7.24-5.87 13.11-13.12 13.11H236.07a13.1 13.1 0 0 1-13.12-13.11z"/><rect width="83.06" height="83.06" x="590.17" y="563.94" fill="#68b096" rx="8.74"/><circle cx="660.11" cy="428.41" r="13.11" fill="#68b096"/><circle cx="620.77" cy="428.41" r="13.11" fill="#68b096"/><circle cx="581.42" cy="428.41" r="13.11" fill="#68b096"/><rect width="297.27" height="266.67" x="257.93" y="498.36" fill="#b4cea0" rx="13.11"/><circle cx="406.56" cy="607.65" r="52.46" fill="#e2f1df"/><path fill="#e2f1df" d="M327.87 725.68a52.46 52.46 0 0 1 52.46-52.46h52.46a52.46 52.46 0 0 1 52.46 52.46v39.34H327.87z"/><rect width="83.06" height="83.06" x="590.17" y="681.97" fill="#9bcab9" rx="8.74"/><circle cx="631.7" cy="719.13" r="15.3" fill="#abe1cd"/><path fill="#abe1cd" d="M607.65 756.3c0-9.67 7.83-17.5 17.49-17.5h13.11c9.66 0 17.5 7.83 17.5 17.5v8.73h-48.1z"/></svg>