<svg xmlns="http://www.w3.org/2000/svg" width="109" height="835" fill="none" viewBox="0 0 109 835"><path fill="#153F7B" d="M83.07 833.28c-26.01 7.68-50.04-11.2-48.3-38.86 1.76-28.1 1.58-56.2 4.4-84.06 2.34-49.26 5.5-94.5 8.34-138.12 2.25-34.13 2.61-91.28 1.28-105.57-1.62-17.35-14.03-26.03-14.03-26.03C-.89 407.04 2.35 388.61.74 368.01c-1.26-16.1-2.7-127.04 12.33-231.62C20.9 74.95 53.22 0 67.77 0c6.7 0 10.51 4.8 10.54 11.33 1.16 217.67 14.45 536.13 15 560.78h.01c1.36 27.77 3.08 56.86 5.18 88.21 4.37 44.34 7.08 88.9 10.35 133.23 1.53 19.76-8.96 34.68-25.79 39.73h.01Z"/></svg>