<svg xmlns="http://www.w3.org/2000/svg" width="800" height="800" fill="none" viewBox="0 0 800 800"><ellipse cx="400" cy="399.5" fill="#116e6b" rx="400" ry="399.5"/><path fill="#abe1cd" d="m405.79 690.85 63.84-284.66c.4-1.71.59-3.45.67-5.21H329.7c.08 1.73.28 3.5.67 5.21l63.84 284.66c1.37 6.13 10.21 6.13 11.58 0"/><path fill="#054449" d="M469.63 392.67 405.8 108.04c-1.37-6.13-10.21-6.13-11.58 0l-63.84 284.63c-.62 2.73-.81 5.55-.67 8.33h140.6c.14-2.78-.05-5.6-.67-8.33"/><path fill="#f5ebe5" d="M398.62 441.33c22.1 0 40-17.89 40-39.95a40 40 0 0 0-40-39.95c-22.1 0-40 17.89-40 39.95a40 40 0 0 0 40 39.95"/></svg>