<svg xmlns="http://www.w3.org/2000/svg" width="1267" height="831" fill="none" viewBox="0 0 1267 831"><path fill="#1e1a28" d="m392.13 455.8-15.56-12.6c4.77-12.96 16.95-28 21.35-33.85s23.34-27.17 28.27-37c4.91-9.8 3.46-25.11-8.73-34.99-12.2-9.87-30.87-6.84-37.02-1.71-6.16 5.1-17.42 18.18-29.72 33.8a145 145 0 0 1-30.1 28.44l-15-12.14c-1.71-1.4-4.05-1.31-5.44.4-1.39 1.72-37.2 44.17-37.2 44.17l93.76 75.92 36.33-44.87c1.66-2.05.71-4.24-.91-5.55z"/><path fill="#cde5f2" d="m281.96 445.69 55.8 45.19-240.4 296.86a35.9 35.9 0 0 1-55.8-45.19zM833.55 735.72a67 67 0 0 1-8.98 32.18 66.5 66.5 0 0 1-23.37 23.85 66 66 0 0 1-34.18 9.36h-415.2a66.4 66.4 0 0 1-34.18-9.36 67 67 0 0 1-32.35-56.03 66.4 66.4 0 0 1 8.97-34.3l168.06-291.05a73.5 73.5 0 0 0 9.83-36.74V154.5h174.53v219.13c0 12.87 3.4 25.6 9.84 36.74l168.05 291.06a66.4 66.4 0 0 1 8.98 34.3"/><path fill="#cde5f2" d="M680.46 129.94v18.59c0 6.52-5.3 11.85-11.8 11.85H451.56c-6.5 0-11.8-5.33-11.8-11.85v-18.6c0-6.51 5.3-11.84 11.8-11.84h217.08c6.5 0 11.8 5.33 11.8 11.85"/><path fill="#1e1a28" d="M769.88 778.29s-5.25 14.03-5.84 17.14c-.6 2.7-1.9 3.66 7.72 3.75 0 0 57.18.9 61.08 0 2.57-.6 5.79-4.17 4.05-20.08l-67.02-.81M885.28 779.19s-.92 13.49 1.06 16.43c2 2.93 3.2 4.83 20.75 3.86 0 0 49.51.9 51.09-.37 1.57-1.28-7.46-20.86-7.46-20.86z"/><path fill="#e2f1df" d="M764.27 351.1c-.4 26.51-3.9 164.78-4.3 179.72-.6 14.94-1 142.05-1 156.15s-.4 91.53 1.38 94.05c1.79 2.53 75.64 4.42 79.4 1.69 3.76-2.74 0-127.74.6-142.68.39-14.95 2.77-88.8.39-149-2.38-60.18 1.94-71.32 3.34-71.32s2.6-2.96 8.14 53.86 16.83 160.16 19.2 185.19c2.38 25.26 8.92 123.12 11.5 124.17s72.47-.21 74.84-1.05-3.76-82.5-4.54-91.55c-.8-9.06-16.64-209.82-17.43-220.56-.79-10.72-7.92-122.9-7.92-122.9s-83.56.21-90.68.85c-7.33.41-72.93 3.36-72.93 3.36h.02z"/><path fill="#054449" d="M927.23 316.49c.1 20.83 1.65 40.92 2.06 49.75 0 0-84.49 8.43-119.2 4.25 0 0-44.41-1.99-46.72-1.99 0 0 .55-36.58.52-57.37.3-31.75.93-58.72 1.77-81.44.85-22.73-2.05-67 27.27-82.16 18.35-9.47 23.64-8.87 49.16-10.13 20.87-.84 50.47 2.35 62.5 13.5 15.38 14.09 17.21 44.44 19.35 73.57 1.41 32.83 2.47 64.66 3.3 92.02z"/><path fill="#c58f79" d="m1068.55 275.97 5.48 27.92s-1.91 1.33 10.21 3.5 26.4-2.94 37.99-10c11.58-7.06 10.39-11.7 6.91-13.43-5.59-2.8-12.89-4.15-19.53-4.24-15.21-.19-4.73-5.47-1.16-7.36 3.41-1.83 7.43-5.63-2.45-7.92-9.88-2.28-30 7.34-37.44 11.54z"/><path fill="#054449" d="M869.56 188.08c2.46 5.8 7.35 13.22 27.18 33.69 15.44 15.95 15.28 23.5 42.1 48.5 14.69 13.7 23.58 22.94 43.39 28.93 16.34 4.94 53.18 12.9 93.76 14.1-.67-7.13-4.66-44.03-4.66-44.03-30.76-2.32-70.15-13.28-79.05-16.45-5.17-1.84-15.77-11.03-20.57-16.1-18.83-22.88-19.84-27.07-33.6-47.23-8.6-12.59-17.82-27.52-28.05-34.89-7.34-5.54-10.6-7.57-15.62-9.65-5-2.08-17.96-3.69-26.32 10.8-7.28 12.6-1.05 26.48 1.44 32.33"/><path fill="#c58f79" d="M891.57 87.34c-.26-1.43-1.52-2.2-2.99-2.82.6-11.5-1.79-18.8-6.9-26.18-4.3-6.18-10.29-12.35-18.69-15.35-7.45-2.67-25.7-1.97-33.02 1-17.54 6.65-24.44 22.95-25.34 40.94-1.5.39-2.82.94-3.26 2.3-.96 2.3-1.45 4.47-.82 7 .58 2.05 1.89 3.33 4.5 5.08a50 50 0 0 0 7.68 23.03l.9 1.36c6.81 10.44 15.92 16.52 26.83 16.52h8.59c10.84 0 21.12-6.02 27.93-16.39l2.7-4.12a50 50 0 0 0 7.61-21.45c2.23-1.12 3.46-2.14 4.2-3.85.95-2.4.75-4.64.08-7.07"/><path fill="#1e1a28" d="M903.55 69.39c-2.27-8.85-12.52-13.37-12.52-13.37s6.35-7.73-1.6-13.37c-7.93-5.64-14.46-2.37-14.46-2.37s.17-6.76-9.53-10.4-15.89 1.78-15.89 1.78-7.4-5.34-17.3-1.78c-9.88 3.57-9.5 10.7-9.5 10.7s-15.38-1.19-21.56 7.13 0 14.86 0 14.86-10.59 3.57-10.59 12.47 10.6 12.77 10.6 12.77l3.06-2.8a67 67 0 0 0 2.53-.56c13.2-3.25 23.8-10.04 29.86-18.16 10.95 10.04 27.02 15.78 43.84 15.13 1.65 3.87 4.54 7.9 9.4 7.9 15.34 0 15.52-12.73 13.67-19.92z"/><path fill="#c58f79" d="M776.02 365.43c6.96 2.32 24.71 9.59 29.14 17.26s4.52 9.99 3.25 25.07c-.3 3.4-2.66 7.94-13.83 4.65s-22.7-9.47-28.54-18.51-3.88-8.6-3.88-8.6L776 365.43"/><path fill="#054449" d="M827.52 163.38c-2.13-13.87-9.27-23.24-19.14-22.36-26.45 6.35-58.5 28.88-84.97 66.04-9.66 13.56-30.16 46.49-30.16 66.74.7 51.91 59.4 109.76 66.3 118.21l30.42-25.99c-1.93-1.16-16.69-18.09-27.53-32.35-15.12-28.19-24.84-47.2-24.84-59.87 9.4-35.8 29.68-51.83 67.26-74.2 0 0 13.05-7.22 18.5-15.81 5.04-7.94 5.23-13.4 4.15-20.41z"/><path fill="#e2f1df" d="M885.75 208.95a14 14 0 0 0-7.17-1.93 12.53 12.53 0 0 1 24.63 1.06c-2.52-.22-5.07.25-7.33 1.34a5.12 5.12 0 0 0-10.13-.47m17.6.84a12.35 12.35 0 0 0-13.66 12.6c7.28.7 13.7-5.17 13.66-12.5zm-25.03-1.1a12.6 12.6 0 0 0 9.7 13.44v-.07a14 14 0 0 1 1.67-6.63 12.4 12.4 0 0 0-11.37-6.74"/><path fill="#faf7f4" d="m1130.54 116.36 114.3 24.3-81.53 383.55c-6.65 31.3-37.66 51.28-69.21 44.58s-51.75-37.57-45.09-68.88z"/><path fill="#faf7f4" d="m1265.27 148.63-2.57 12.1a7.9 7.9 0 0 1-9.32 6.07l-141.28-30.03a7.9 7.9 0 0 1-6.04-9.34l2.57-12.1a7.9 7.9 0 0 1 9.32-6.07l141.28 30.03c4.23.9 6.94 5.1 6.04 9.34"/></svg>