<svg xmlns="http://www.w3.org/2000/svg" width="1393" height="800" fill="none" viewBox="0 0 1393 800"><path fill="#116e6b" d="M692.34 72.73H21.19A21.2 21.2 0 0 0 0 93.9v257.1c0 11.7 9.49 21.18 21.19 21.18h671.15c11.7 0 21.18-9.48 21.18-21.18V93.9c0-11.7-9.48-21.18-21.18-21.18"/><path fill="#e2f1df" d="m532.28 72.73-.33 299.46h96.46l-.08-299.46zM148.95 72.73l.99 299.46h105.4l-2.35-299.46z"/><rect width="978.79" height="427.81" y="372.19" fill="#054449" rx="21.19"/><path fill="#e2f1df" d="M620.43 549.7a30 30 0 0 1 13.02 12.42q4.68 8.3 4.68 20.2 0 17.09-7.8 26.92t-22.9 9.84q-9.37 0-16.66-5.18-7.3-5.7-14.06-18.12-6.75-12.95-16.13-37.8-13.54-36.75-30.7-54.88-17.19-18.64-44.77-18.64-17.7 0-32.28 8.28-14.57 8.29-24.98 25.89a99 99 0 0 0-7.18 14.41q-7.25-11.96-15.73-20.1-15.61-15.55-39.04-15.54-28.62 0-47.88 22.26-18.74 22.27-18.74 60.07c0 25.2 6.08 43.84 18.22 59.03q18.74 22.79 51.54 23.81v-45.56q-17.19-1.04-27.07-10.36-9.9-9.32-9.89-27.44 0-17.1 7.8-26.4 7.83-9.85 22.9-9.85 9.9 0 16.66 5.7 6.77 5.18 13.54 18.12 6.76 12.42 16.65 37.28 8.85 23.82 18.74 39.87 10.41 16.04 24.47 24.33t32.27 8.29q18.22 0 32.8-8.29 15.09-8.28 24.98-25.37 3.9-6.75 6.68-14.71 7.38 12.35 15.7 20.93 15.62 15 39.05 15.01 28.62 0 47.36-22.26 19.26-22.26 19.26-60.07c0-25.2-6.25-44.18-18.74-59.02q-18.22-22.8-51-23.3v45.57q10.92.51 19.25 4.66zM485.1 629.95q-18.2 0-30.19-13.46-11.45-13.98-11.45-36.24t11.97-35.2q11.99-12.96 29.67-12.95c11.8 0 22.03 4.66 29.67 13.98q11.97 13.45 11.97 35.2c0 14.5-3.99 26.75-11.97 35.73q-11.98 12.94-29.67 12.94"/><path fill="#68b096" d="M85.11 372.2V800h96.46V372.2z"/><rect width="179.32" height="854" fill="#116e6b" rx="21.19" transform="matrix(1 -1 1 1 787.29 90.2)"/><path fill="#68b096" d="m895.45 257.6 150.05-98 140.46 217.52-150.05 98z"/></svg>