<svg xmlns="http://www.w3.org/2000/svg" width="797" height="800" fill="none" viewBox="0 0 797 800"><path fill="#68b096" d="m532.077 103.346 1.949-9.886a6.49 6.49 0 0 0-5.127-7.626L104.701 3.166a6.523 6.523 0 0 0-7.643 5.138l-1.95 9.886a6.49 6.49 0 0 0 5.128 7.627l424.197 82.668a6.523 6.523 0 0 0 7.644-5.139"/><path fill="#68b096" fill-rule="evenodd" d="M527.321 86.993c1.679-3.886 6.29-3.886 8.005 0l78.612 177.434h12.19c3.53 0 6.361 2.783 5.994 6.294-1.99 19.035-15.004 74.795-99.144 76.455-84.338 1.663-98.605-56.559-101.018-76.304-.436-3.567 2.422-6.445 6.016-6.445h10.995zm8.542 41.798c-1.68-3.455-5.826-3.282-7.327.259l-57.171 135.377h118.951zM93.416 4.818c2.834-6.417 10.508-6.417 13.378-.042l78.607 174.369h8.811c3.53 0 6.361 2.782 5.994 6.294-1.99 19.035-15.004 74.795-99.144 76.454C16.724 263.557 2.457 205.334.044 185.589c-.436-3.567 2.422-6.444 6.016-6.444h10.48zm13.199 29.178c-1.937-4.835-7.676-4.92-9.72-.172L33.96 179.146h130.836z" clip-rule="evenodd"/><path fill="#054449" d="M419.833 346.646a3.316 3.316 0 0 1 3.316 3.317v75.753a6.505 6.505 0 0 1-6.505 6.505H217.713a6.505 6.505 0 0 1-6.505-6.505v-72.565c0-3.592 2.922-6.481 6.506-6.728 48.172-3.319 86.198-43.208 86.198-91.947V58.466a6.506 6.506 0 0 1 6.506-6.505h10.205a6.505 6.505 0 0 1 6.505 6.505v196.01c0 50.913 41.496 92.17 92.705 92.17"/><path fill="#68b096" d="M208.266 430.266h216.892c19.294 0 34.996 15.493 34.996 34.619H173.309c0-19.087 15.662-34.619 34.996-34.619z"/><path fill="#116e6b" d="M315.519 93.175c19.69 0 35.653-15.87 35.653-35.447s-15.963-35.447-35.653-35.447c-19.691 0-35.653 15.87-35.653 35.447s15.962 35.447 35.653 35.447M472.026 462.727H160.868c-5.45 0-9.868 4.417-9.868 9.867v119.142c0 5.45 4.418 9.868 9.868 9.868h311.158c5.45 0 9.868-4.418 9.868-9.868V472.594c0-5.45-4.418-9.867-9.868-9.867"/><path fill="#e2f1df" d="m397.843 462.727-.153 138.877h44.734l-.039-138.877zM220.073 462.727l.46 138.877h48.878l-1.086-138.877z"/><rect width="453.91" height="198.396" x="151" y="601.602" fill="#054449" rx="9.868"/><path fill="#e2f1df" d="M438.724 685.021q3.86 1.93 6.034 5.788 2.173 3.861 2.174 9.405 0 7.958-3.621 12.54-3.62 4.584-10.619 4.584-4.345 0-7.726-2.413-3.38-2.65-6.517-8.441-3.137-6.028-7.482-17.605-6.277-17.122-14.24-25.562-7.966-8.682-20.76-8.682-8.207 0-14.966 3.858c-4.506 2.574-8.367 6.59-11.587 12.058q-1.862 3.068-3.331 6.714-3.361-5.572-7.292-9.367-7.24-7.235-18.104-7.234-13.274 0-22.207 10.369-8.687 10.372-8.688 27.976c0 11.738 2.818 20.418 8.45 27.493q8.688 10.611 23.897 11.091v-21.222q-7.965-.481-12.551-4.824-4.587-4.34-4.586-12.781 0-7.959 3.621-12.299 3.622-4.584 10.62-4.583 4.587 0 7.723 2.653 3.137 2.411 6.276 8.441 3.137 5.788 7.725 17.362 4.103 11.093 8.69 18.569 4.827 7.474 11.346 11.335 6.517 3.857 14.967 3.858t15.207-3.858q7-3.857 11.587-11.817 1.813-3.144 3.097-6.852 3.42 5.754 7.284 9.746 7.24 6.992 18.105 6.992 13.275 0 21.965-10.368 8.933-10.37 8.932-27.974c0-11.738-2.897-20.579-8.69-27.492q-8.448-10.612-23.654-10.851v21.222q5.068.242 8.931 2.171zM375.965 722.4q-8.45 0-13.999-6.27-5.312-6.512-5.312-16.88t5.553-16.397 13.758-6.029c5.47 0 10.217 2.171 13.757 6.511q5.551 6.27 5.553 16.397c0 6.752-1.85 12.458-5.553 16.639q-5.552 6.029-13.757 6.029"/><path fill="#68b096" d="M190.471 601.604V800h44.733V601.604z"/><rect width="83.159" height="396.04" fill="#116e6b" rx="9.868" transform="matrix(.83729 -.54676 .54252 .84005 516.102 470.836)"/><path fill="#68b096" d="m566.262 548.461 69.588-45.45 65.136 100.876-69.588 45.45z"/></svg>