<svg xmlns="http://www.w3.org/2000/svg" width="797" height="800" fill="none" viewBox="0 0 797 800"><path fill="#68b096" d="m531.95 103.38 1.95-9.9a6.5 6.5 0 0 0-5.13-7.62l-424.1-82.7a6.5 6.5 0 0 0-7.64 5.15L95.1 18.2a6.5 6.5 0 0 0 5.12 7.63l424.1 82.68a6.5 6.5 0 0 0 7.64-5.14"/><path fill="#68b096" fill-rule="evenodd" d="M527.2 87c1.67-3.88 6.28-3.88 8 0l78.59 177.49h12.19c3.52 0 6.36 2.78 5.99 6.3-2 19.03-15 74.8-99.12 76.47-84.32 1.66-98.58-56.58-101-76.33-.43-3.56 2.43-6.44 6.02-6.44h11zm8.53 41.82c-1.68-3.46-5.82-3.28-7.32.26l-57.16 135.4h118.92zM93.4 4.82c2.83-6.42 10.5-6.42 13.37-.04l78.59 174.4h8.8c3.53 0 6.36 2.8 6 6.3-2 19.04-15 74.82-99.12 76.48-84.32 1.66-98.58-56.58-101-76.32-.43-3.57 2.43-6.45 6.02-6.45h10.48zM106.58 34c-1.94-4.83-7.67-4.92-9.72-.17L33.95 179.2h130.8z" clip-rule="evenodd"/><path fill="#054449" d="M419.73 346.73a3.3 3.3 0 0 1 3.32 3.31v75.78a6.5 6.5 0 0 1-6.5 6.5H217.65a6.5 6.5 0 0 1-6.5-6.5v-72.59c0-3.6 2.92-6.48 6.5-6.73 48.16-3.32 86.18-43.22 86.18-91.97V58.47a6.5 6.5 0 0 1 6.5-6.5h10.2a6.5 6.5 0 0 1 6.5 6.5v196.06c0 50.93 41.5 92.2 92.69 92.2"/><path fill="#68b096" d="M208.22 430.38h216.83c19.3 0 35 15.5 35 34.62H173.26c0-19.09 15.66-34.62 34.98-34.62z"/><path fill="#116e6b" d="M315.44 93.2a35.55 35.55 0 0 0 35.65-35.46 35.55 35.55 0 0 0-35.65-35.45 35.55 35.55 0 0 0-35.64 35.45 35.55 35.55 0 0 0 35.64 35.46M472.03 462.73H160.87a9.87 9.87 0 0 0-9.87 9.86v119.15a9.87 9.87 0 0 0 9.87 9.86h311.16a9.87 9.87 0 0 0 9.86-9.86V472.59a9.87 9.87 0 0 0-9.86-9.86"/><path fill="#e2f1df" d="m397.84 462.73-.15 138.87h44.73l-.04-138.87zM220.07 462.73l.46 138.87h48.88l-1.09-138.87z"/><rect width="453.91" height="198.4" x="151" y="601.6" fill="#054449" rx="9.87"/><path fill="#e2f1df" d="M438.72 685.02a14 14 0 0 1 6.04 5.79q2.17 3.85 2.17 9.4 0 7.97-3.62 12.54-3.61 4.59-10.62 4.59-4.35 0-7.72-2.42-3.39-2.64-6.52-8.44-3.15-6.02-7.48-17.6-6.28-17.13-14.24-25.56-7.96-8.7-20.76-8.69A29.7 29.7 0 0 0 361 658.5q-6.75 3.87-11.59 12.06a46 46 0 0 0-3.33 6.72 46 46 0 0 0-7.29-9.37q-7.24-7.24-18.1-7.24-13.27 0-22.21 10.37-8.7 10.38-8.69 27.98c0 11.74 2.82 20.42 8.45 27.5q8.7 10.6 23.9 11.08v-21.22q-7.97-.48-12.55-4.82T305 698.77q0-7.96 3.62-12.3 3.63-4.59 10.62-4.59 4.58 0 7.73 2.66 3.13 2.4 6.27 8.44 3.15 5.78 7.73 17.36 4.1 11.1 8.69 18.57 4.82 7.47 11.34 11.33 6.53 3.86 14.97 3.86t15.2-3.86q7-3.85 11.6-11.81a40 40 0 0 0 3.1-6.85 53 53 0 0 0 7.27 9.74q7.25 7 18.11 7 13.28 0 21.96-10.37 8.94-10.37 8.94-27.98c0-11.74-2.9-20.58-8.7-27.5q-8.44-10.6-23.65-10.84v21.22q5.07.24 8.93 2.17m-62.76 37.38a17.9 17.9 0 0 1-14-6.27q-5.3-6.51-5.3-16.88t5.55-16.4a18 18 0 0 1 13.75-6.03c5.48 0 10.22 2.17 13.76 6.51q5.55 6.27 5.55 16.4c0 6.75-1.84 12.46-5.55 16.64a18 18 0 0 1-13.76 6.03"/><path fill="#68b096" d="M190.47 601.6V800h44.73V601.6z"/><rect width="83.16" height="396.04" fill="#116e6b" rx="9.87" transform="matrix(1 -1 1 1 516.1 470.84)"/><path fill="#68b096" d="m566.26 548.46 69.6-45.45 65.13 100.88-69.59 45.45z"/></svg>