<svg xmlns="http://www.w3.org/2000/svg" width="567" height="800" fill="none" viewBox="0 0 567 800"><path fill="#116e6b" d="M512.45 110.22H15.65C7 110.22 0 117.22 0 125.87v658.16c0 8.64 7 15.64 15.65 15.64h496.8c8.64 0 15.64-7 15.64-15.64V125.87c0-8.65-7-15.65-15.64-15.65"/><path fill="#9bcab9" d="M472.35 168.9H55.75a3.9 3.9 0 0 0-3.92 3.9v191.68a3.9 3.9 0 0 0 3.91 3.91h416.6a3.9 3.9 0 0 0 3.92-3.91V172.8a3.9 3.9 0 0 0-3.91-3.9"/><path fill="#fff" d="M559.16 152.82 250.09 1.26a12.6 12.6 0 0 0-16.77 5.8L58.05 368.42h410.5l96.43-198.74c3-6.23.43-13.78-5.76-16.87z"/><path fill="#f4ece6" d="m223.81 368.43 114.08-69.7a17.9 17.9 0 0 0 7.32-21.78L238 1.95a12.3 12.3 0 0 0-4.62 5.16L58.04 368.43z"/><path fill="#e2f1df" d="m259.85 519.37.2-.04v6.6l-.1.05c-.65.27-2.11.74-4.73.74-6.02 0-9.76-3.71-9.76-9.69v-16.57h-5.91v-6.3h1.8c3.03 0 4.77-1.77 4.77-4.83v-5.1h7.22V494h6.64v6.44h-6.64v15.33c0 2.7 1.17 3.84 3.91 3.84 1.08 0 2.33-.2 2.6-.26m24.52 0c-.28.05-1.52.25-2.6.25-2.74 0-3.91-1.15-3.91-3.84v-15.33h6.63v-6.44h-6.63v-9.78h-7.22v5.1c0 3.06-1.74 4.83-4.77 4.83h-1.8v6.3h5.91v16.57c0 5.98 3.74 9.69 9.76 9.69 2.62 0 4.08-.47 4.72-.74l.1-.04v-6.61zm-48.88 6.67.03.2h-7.39l-.03-.12c-.07-.2-.3-1.35-.34-3.59-1.19 1.7-4.08 4.69-9.68 4.69-3.2 0-5.98-1.03-8.02-2.97a9.4 9.4 0 0 1-2.95-6.84c0-5.26 3.65-8.93 9.77-9.81l8.2-1.25c1.98-.28 2.21-1.36 2.21-2.14 0-2.94-2.34-4.7-5.87-4.7s-5.95 2.1-6.37 5.47l-7.27-1.65c.65-5.04 5.13-10.38 13.58-10.38 12.39 0 13.73 8.47 13.73 12.11v15.89c0 3.1.37 5 .38 5.09zm-8.2-14.5-8.14 1.23c-1.54.26-4.12 1.14-4.12 4.17 0 1.92 1.4 3.98 4.49 3.98 3.54 0 7.77-1.41 7.77-8.11zm64.31 14.8h7.92v-32.38h-7.92zM88.78 487.24a15.1 15.1 0 0 1 15.03 13.82 41 41 0 0 1 21.55-3.98 37 37 0 0 0-36.57-31.86 37 37 0 0 0-35.97 28.68 41 41 0 0 1 21.15 5.7 15.1 15.1 0 0 1 14.81-12.36m-36.76 11.6c-1.89 18.7 10.94 35.87 28.53 39.77v-.21c0-6.88 1.68-13.6 4.9-19.63-6.15-12.38-19.65-20.49-33.43-19.93m122.18 15.87-15-35.2-.04-.1h-10.8v46.91h8.02V492.8l14.07 33.32h7.24l14.2-33.46v33.67h8.15v-46.9h-11zM85.5 539.4c21.46 2.02 40.35-15.32 40.23-37v-.32c-21.67-2.55-41.01 15.4-40.22 37.32m367.63-29.68c0 2.04-.2 2.6-.2 2.6h-23.4a8.44 8.44 0 0 0 8.57 8q5.16-.01 7.25-4.01h7.55q-.6 2.05-1.58 3.81c-2.25 3.81-6.54 7.1-13.22 7.1a16.4 16.4 0 0 1-11.55-4.55c-3.26-3.18-4.98-7.59-4.98-12.75 0-4.78 1.7-9.16 4.8-12.3 2.91-2.97 6.9-4.67 10.94-4.67 9.76 0 15.82 6.41 15.82 16.77m-8.02-3.32c-.27-4.99-4.32-6.76-7.73-6.76-3.4 0-7.21 2.37-7.65 6.76zm-40.71-13.32c-3.93 0-7.36 1.78-9.32 4.78v-3.87h-7.75v32.34h7.95V507.7c0-4.5 2.55-7.4 6.48-7.4 5.59 0 6.42 4.35 6.42 6.94v19.1h7.95v-20.42c0-7.92-4.5-12.84-11.73-12.85m-37.57 20.85-9.07-19.87-.04-.1h-8.99l13.78 28.3-7.58 16.46h8.52l20.36-44.76h-8.45zm109.26 5.44c-.28.05-1.52.25-2.6.25-2.75 0-3.92-1.15-3.92-3.84v-15.33h6.65v-6.44h-6.65v-9.78h-7.21v5.1c0 3.06-1.75 4.83-4.77 4.83h-1.8v6.3h5.9v16.57c0 5.98 3.75 9.69 9.76 9.69 2.72 0 4.22-.52 4.73-.74l.1-.04v-6.61zm-180.12-41.6a5.13 5.13 0 0 0-5.12 5.16 5.04 5.04 0 0 0 5.12 5.09c2.9 0 5.19-2.23 5.19-5.09a5.17 5.17 0 0 0-5.19-5.15m12.55 48.56h7.92v-47.92h-7.92zm30.08-19.4h.01l-4.86-.98c-1.94-.38-3.09-1.58-3.09-3.18 0-1.98 1.95-3.52 4.44-3.52a5.4 5.4 0 0 1 5.76 4.65l.03.18 6.76-1.93-.02-.14c-.17-.99-.8-3.54-3.08-5.73s-5.47-3.33-9.45-3.33c-6.58 0-11.93 4.7-11.93 10.47 0 4.73 3.26 8.28 8.73 9.48l4.75 1.05c2.37.48 3.62 1.65 3.62 3.38 0 1.74-1.44 3.52-4.65 3.52-4.33 0-6.13-2.86-6.35-5.3l-.02-.2-6.96 1.93.01.14c.24 2.2 1.49 4.55 3.33 6.28 2.46 2.3 5.94 3.52 10.05 3.52 8.05 0 12.26-5.23 12.26-10.4s-3.4-8.6-9.34-9.88"/></svg>