<svg xmlns="http://www.w3.org/2000/svg" width="783" height="800" fill="none" viewBox="0 0 783 800"><path fill="#1e1a28" d="M84.55 777.63s-5.23 14-5.83 17.12c-.6 2.68-1.9 3.64 7.72 3.73 0 0 57.07.9 60.96 0 2.57-.6 5.78-4.15 4.04-20.04zM199.75 778.52s-.92 13.47 1.06 16.4c2 2.93 3.18 4.83 20.7 3.86 0 0 49.43.9 51-.37 1.57-1.28-7.44-20.82-7.44-20.82z"/><path fill="#1e1a28" d="M78.95 351.2c-.39 26.48-3.9 164.5-4.29 179.4-.6 14.92-1 141.8-1 155.87s-.39 91.37 1.39 93.89 75.5 4.4 79.25 1.68 0-127.5.6-142.42c.39-14.92 2.76-88.65.39-148.73s1.94-71.2 3.33-71.2 2.6-2.95 8.13 53.77 16.8 159.87 19.17 184.86c2.37 25.2 8.9 122.9 11.47 123.94 2.57 1.05 72.35-.2 74.71-1.05 2.37-.84-3.76-82.35-4.54-91.38s-16.6-209.44-17.4-220.16c-.78-10.7-7.9-122.68-7.9-122.68s-83.4.2-90.51.84c-7.32.42-72.8 3.36-72.8 3.36h.02z"/><path fill="#f8e0d8" d="M385.17 164.13c3.03-7.86 12.32-27.77 21.32-32.12s8.34 1.08 6.89 4.6c-1.52 3.68-6.2 14.25 5.56 4.98 5.13-4.05 11.57-7.54 17.62-8.83 3.76-.8 7.6 2.03 3.23 14.68-4.38 12.64-12.07 25.44-22.72 31.28s-10.02 3.63-10.02 3.63l-21.88-18.2z"/><path fill="#0c4fa1" d="M242.23 233.95c-40.17-21.47-67.76-39.36-72.32-59.93-1.92-8.69 1.45-21.5 13.12-27.7 9.97-5.3 18.33-3.98 25.6-.95 6.8 2.84 9.52 5.35 13.35 8.08 25.75 18.35 41.7 38.14 84.12 53.87 11.87 4.4 36.05-13.85 54.52-29.36 9.3-7.82 20.63-18.1 22.52-20.9l30.3 27.96c-7.5 7.9-48.08 59.07-98.81 70.1-19.76 4.29-57.76-13.33-72.42-21.16z"/><path fill="#0c4fa1" d="M241.62 316.65c.1 20.8 1.65 40.86 2.06 49.67 0 0-84.34 8.42-119 4.24 0 0-44.32-1.98-46.63-1.98 0 0 .56-36.51.52-57.27.3-31.69.93-58.62 1.77-81.3s-2.04-66.88 27.22-82c18.32-9.46 23.6-8.86 49.07-10.12 20.83-.84 50.38 2.35 62.38 13.48 15.36 14.06 17.2 44.36 19.33 73.43 1.4 32.78 2.46 64.55 3.28 91.85"/><path fill="#f8e0d8" d="M206.03 87.18c-.26-1.42-1.52-2.18-2.98-2.81.6-11.47-1.79-18.76-6.9-26.13-4.28-6.17-10.26-12.33-18.65-15.32-7.43-2.67-25.64-1.97-32.96.99-17.5 6.65-24.4 22.91-25.3 40.87-1.49.39-2.81.94-3.25 2.3-.96 2.28-1.44 4.46-.82 7 .58 2.03 1.89 3.31 4.5 5.05a50 50 0 0 0 7.67 22.99l.9 1.36c6.79 10.43 15.88 16.5 26.77 16.5h8.57c10.83 0 21.08-6.01 27.88-16.36l2.7-4.12a49.6 49.6 0 0 0 7.6-21.4c2.22-1.13 3.45-2.15 4.2-3.86.94-2.4.73-4.63.07-7.06M82.17 367.85c6.91 2.3 24.54 9.52 28.94 17.14 4.4 7.61 4.49 9.91 3.22 24.88-.29 3.38-2.64 7.9-13.72 4.63s-22.55-9.4-28.34-18.39-3.86-8.53-3.86-8.53z"/><path fill="#0c4fa1" d="M133.3 167.25c-2.11-13.78-9.2-23.07-19-22.2-26.25 6.3-58.07 28.67-84.35 65.56C20.35 224.07 0 256.77 0 276.88c.69 51.54 58.98 108.98 65.83 117.37l30.2-25.81c-1.92-1.16-16.57-17.96-27.34-32.12-15-27.99-24.66-46.86-24.66-59.44 9.34-35.54 29.47-51.46 66.78-73.67 0 0 12.95-7.16 18.37-15.7 5-7.88 5.19-13.3 4.12-20.26"/><path fill="#153f7b" d="M365.7 176.32C415.5 59.2 544.65 1.87 654.15 48.26s157.9 178.94 108.1 296.05c-42.83 100.7-144.3 157.2-241.51 141.57L433.5 774.17a35.04 35.04 0 0 1-45.12 22.93l-21.7-7.62a35.1 35.1 0 0 1-21.06-45.8l108.65-280.84c-95.55-53.13-135.3-176.63-88.56-286.52"/><path fill="#dfeef6" d="M714.49 324.1c37.83-89 1.13-189.69-81.98-224.9s-181.17 8.38-219 97.37-1.14 189.69 81.97 224.9 181.16-8.37 219-97.37"/></svg>