<svg xmlns="http://www.w3.org/2000/svg" width="293" height="800" fill="none" viewBox="0 0 293 800"><path fill="#f4ece6" d="M1.75 193.73A17 17 0 0 0 0 201.1v578.75C0 791.01 9 800 20.14 800h252.21c11.08 0 20.14-9 20.14-20.14V201.11c0-2.61-.6-5.1-1.75-7.38h-289"/><path fill="#faf7f4" d="M290.75 193.72h-289a16 16 0 0 1 3.63-5.03L131.02 69.83V9.54A9.54 9.54 0 0 1 140.54 0h11.42a9.54 9.54 0 0 1 9.54 9.54v60.3l33.85 32.02a3.8 3.8 0 0 1 .73-3.9l6.45-6.84a11.36 11.36 0 0 1 16.12-.47l43.65 41.1a11.4 11.4 0 0 1 .46 16.12l-6.44 6.84a3.7 3.7 0 0 1-4.44.74l35.12 33.24a18 18 0 0 1 3.63 5.03h.13z"/></svg>