<svg xmlns="http://www.w3.org/2000/svg" width="1590" height="1325" fill="none" viewBox="0 0 1590 1325"><path fill="#7F433B" d="M1544.59 888.59c-1.8-9.9-7.69-14.5-7.69-14.5S1387.53 760.1 1387.23 759.9c-9.2-7-25.09-59.89-29.39-74.88-7.6-26.6-15.1-55.9-14.9-84.09 36.39 38.3 87.68 62.59 144.57 62.79h1.7c7.4-58.79-12.8-114.68-49.49-155.67-2.8-4.1-30.19-28.5-41.39-35.4-53.09-35.89-137.97-79.28-181.36-92.78-67.49-21.1-187.66-13.7-259.74-8.2-30.6 2.3-66.99 12.3-97.48 8.9-28.4-3.2-84.68-49.69-115.77-63.58-34.8-15.5-90.58-23.4-144.57-25.3-1.9 0-2.6-2.5-1.1-3.6 15.5-11.6 61.89-54.99 72.58-166.37 2.2-22.4 5.2-105.38-27.39-119.57-13.7-6-45.89-3.1-52.89 56.79-1.7 14.8-3.4 30-9.6 43.59-1.9 4.1-5.1 8.5-10.3 6.9-2-.7-3.7-2.2-4.8-4-12.89-22.4-12.19-109.88-65.08-100.58-31.39 7.2-38.59 82.38-43.49 104.58-.4 1.9-5 12.1-12.1.8-16.4-26.3-11.1-60.4-29.29-85.69-8.9-12.4-25.6-22.4-39.49-16.2-28.9 12.9-28.3 53.4-28.2 62.6v98.27c0 15.9-6.9 31.2-18.69 41.8-31.5 28.1-88.58 14.6-99.88-27-3.5-12.5-10.5-32.6-29.19-32.1-21.2.5-35 52-38.29 68.4-.6 3-4.8 3.3-5.8.4-4.1-11.7-6.5-64.4-43.49-64.7-28.9-.3-30.6 55.1-34.4 66.1-1 2.8-4.99 2.6-5.69-.3-2-8.3-12.5-49-28.4-58-11.2-6.4-29.59-6.4-35.59 6.8-4.1 9.2-22.29 83.69 9.8 122.38 13.4 16.1 32.4 34.7 116.08 35 44.79.2 89.58-.1 134.36-.2 2.8 0 4.1 3.5 1.9 5.3-15.2 12.3-54.58 41.98-118.27 72.98-36.39 17.8-83.48 36.3-97.48 69.29-8.4 19.7-10.1 53.38-9.5 74.88.3 9.9 2.3 38.7 7.9 45.2 10.5 12.19 65.59 10.39 80.79 5.7 13.5-4.2 21.5-15.7 30.99-25.4 8.8-9 24.3-16.8 36.5-8.7 4.79 3.3 91.17 106.48 97.27 113.58 6.9 8.1 12.1 15.9 22.7 18.7 6.2 1.7 12.69 1.2 18.79-.8 23.9-7.9 37.59-67.5 39.29-75.7 1-5 2.6-14.1 8.4-15.89 8.5-2.6 76.58 49.79 79.08 55.19 6.9 14.9 2.3 39.4 3.6 56.19 2.9 37.4 20.9 47.39 38 77.18 15.29 26.7 33.18 63.9 44.98 92.38 1.3 3.1 13.2 132.38 13.2 132.38 0 .8.3 1.7.6 2.4l11.1 26.09c.2.5.3 1 .3 1.6l-.4 166.67-13.1 46.59c-.2.6-.4 1.1-.8 1.5l-45.1 53.19a4 4 0 0 0 3.1 6.6H631c1.9 0 3.3-1.7 3-3.5l-5.5-33.09 17.9-10.4c2.8-1.5 4.5-4.5 4.3-7.6l-7-104.48 2.2-103.38 14-131.67 6.4-29.7 14.6-1.2s14.89 105.58 14.99 105.88l15.8 38.99c.2.4.3.8.3 1.2l9.5 138.48-4.4 62.29c-.9 4.39-2.3 10.29-3.7 16.89-.1.6-.4 1.2-.8 1.7l-44.7 53.09c-2.2 2.6-.3 6.6 3.1 6.6h100.38c1.9 0 3.3-1.7 3-3.5l-5.5-33.09 17.9-10.4c2.8-1.5 4.5-4.5 4.3-7.6l-6.2-91.88-1.7-131.88c0-.5 0-1 .2-1.4l7.5-20.49c.5-1.4.8-2.9.7-4.4l-3.1-143.17c0-3 1-5.9 3-8.2 0 0 32.19-36.6 44.39-50.5 0 0 102.97-1.7 186.35-26.19 1-.3 2.1 0 2.9.8 13.8 13.9 140.27 140.78 157.77 158.87 1.3 1.3 2 3.1 2 4.9 0 15.5.5 90.78.3 99.88 0 .5 0 1.1-.2 1.6l-31.9 126.48-36.29 80.38h.2c0 .1-44.89 53.09-44.89 53.09a4 4 0 0 0 3.1 6.6h103.08c1.9 0 3.3-1.7 3-3.5l-5.5-33.09 19.89-10.4a8 8 0 0 0 3.8-4.3c1-2.5 77.79-241.65 82.68-256.05.5-1.4.7-2.9.7-4.4l.2-83.58c0-1.1-.2-2.1-.6-3.1l-39.99-95.78c0-.9-.1-1.8-.1-2.7 0 0 173.56 96.48 196.06 109.17 1.5.8 2.6 2.1 3.2 3.7l46.19 119.88c.2.5.4 1.1.4 1.7l24.39 194.36-3.8 8.4h.2c0 .1-44.89 53.09-44.89 53.09a4 4 0 0 0 3.1 6.6h103.08c1.9 0 3.3-1.7 3-3.5l-5.5-33.09 17.9-10.4a8.12 8.12 0 0 0 4.29-7.6l-44.99-381.63-.4-.1Z"/></svg>