<svg xmlns="http://www.w3.org/2000/svg" width="300" height="262" viewBox="0 0 300 262">
  <path fill="#153f7b" d="m13.4 109.57c-5.3 5.93-16.65 18.38-12.5 33.03 4.13 14.66 16.65 22.08 24.72 23.35 8.08 1.26 35.65-10.58 38.96-12.17 3.31-1.6 37.95-15.67 46.15-19.35 8.22-3.66 13.04-7.77 13.22-12.38.17-4.62-1.17-11.36-17.24-17.57-16.06-6.2-34.12-11.48-41.87-12.78s-19.11-.12-29.94 4.87c-10.83 5-17.33 8.33-21.5 12.99zm242.85-42.5c7.48 2.74 23.37 8.36 26.62 23.24 3.26 14.88-4.27 27.33-10.8 32.25-6.52 4.92-36.43 7.48-40.1 7.64-3.66.15-40.84 4.07-49.81 4.7-8.98.64-15.17-.7-17.5-4.7-2.33-3.98-4.32-10.56 6.92-23.61s24.68-26.22 30.9-31.01c6.22-4.8 16.8-9.12 28.7-9.82s19.21-.83 25.07 1.31zm-153.79 11.95c-6.13-4.14-18.63-11.61-28-21.3-9.39-9.67-17.14-17.94-18.7-26.04-1.57-8.1-1.32-15.05 4.87-21.38 6.18-6.35 14.35-11 24.45-10.21 10.11.8 22.2 7.34 28.32 11.58a56.64 56.64 0 0 1 18.64 21.36c6.62 13.1 9.3 24.9 11.58 35.14s4.67 24.23-1.94 28.8c-3.02 2.08-4.47 1.43-9.06-.27-4.6-1.7-24.85-14.09-30.17-17.67v-.01zm86.54 89.38c-5.44-4.16-26.27-19.64-31.6-22.77-5.31-3.14-7.93-4.04-11.58-2-3.64 2.04-6.17 5.63-6.43 9.15s-1.25 9.03 1.06 23.94c2.31 14.9 5.95 26.69 7.92 31.07 1.97 4.39 4.97 13.77 19.07 24.9s30.59 14.13 41.36 11.4c10.77-2.72 18.53-11.17 21.12-23.96 2.58-12.78-4.56-21.5-11.32-27.3s-24.2-20.28-29.61-24.43z"/>
</svg>