<svg xmlns="http://www.w3.org/2000/svg" width="1269" height="800" fill="none" viewBox="0 0 1269 800"><path fill="#116e6b" d="M0 466.03a20.4 20.4 0 0 1 20.38-20.38h230.59V800H0z"/><path fill="#9bcab9" d="M69.55 689.3a21.02 21.02 0 0 1 42.07 0v33.44c0 1.9-1.54 3.43-3.44 3.43h-35.2a3.43 3.43 0 0 1-3.43-3.43zM139.95 689.3c0-11.61 9.42-21.02 21.04-21.02s21.03 9.4 21.03 21.01v33.45c0 1.9-1.54 3.43-3.43 3.43h-35.2a3.43 3.43 0 0 1-3.44-3.43zM48.51 539.21c0-11.6 9.42-21 21.04-21s21.03 9.4 21.03 21v79.76c0 1.9-1.54 3.43-3.43 3.43h-35.2a3.43 3.43 0 0 1-3.44-3.43zM160.99 539.21c0-11.6 9.41-21 21.03-21s21.04 9.4 21.04 21v79.76c0 1.9-1.54 3.43-3.44 3.43h-35.2a3.43 3.43 0 0 1-3.43-3.43z"/><path fill="#116e6b" d="M1017.82 445.65h230.59a20.4 20.4 0 0 1 20.38 20.38V800h-250.97z"/><path fill="#9bcab9" d="M1087.37 689.3a21.03 21.03 0 0 1 42.07 0v33.44c0 1.9-1.54 3.43-3.44 3.43h-35.2a3.43 3.43 0 0 1-3.43-3.43zM1157.77 689.3a21.03 21.03 0 0 1 42.07 0v33.44c0 1.9-1.54 3.43-3.43 3.43h-35.21a3.43 3.43 0 0 1-3.43-3.43zM1066.33 539.21a21.03 21.03 0 0 1 42.07 0v79.76c0 1.9-1.53 3.43-3.43 3.43h-35.2a3.43 3.43 0 0 1-3.44-3.43zM1178.81 539.21c0-11.6 9.41-21 21.03-21s21.04 9.4 21.04 21v79.76c0 1.9-1.54 3.43-3.44 3.43h-35.2a3.43 3.43 0 0 1-3.43-3.43z"/><path fill="#054449" d="M621.25 77.4h25.33v117.06h-25.33zM634.4 280.08c-134.86 0-264.04 7.96-383.43 22.5V800h766.85V302.58c-119.4-14.55-248.57-22.5-383.43-22.5"/><path fill="#68b096" d="M328.24 570.09a18.88 18.88 0 1 0-18.89-18.87 18.9 18.9 0 0 0 18.9 18.87M481.5 570.09a18.88 18.88 0 1 0-18.89-18.87 18.9 18.9 0 0 0 18.89 18.87M634.76 570.09a18.88 18.88 0 1 0-18.89-18.87 18.9 18.9 0 0 0 18.89 18.87M788.02 570.09a18.88 18.88 0 1 0-18.9-18.87 18.9 18.9 0 0 0 18.9 18.87M941.28 570.09a18.88 18.88 0 1 0-18.9-18.87 18.9 18.9 0 0 0 18.9 18.87M596.98 390.42a37.76 37.76 0 0 1 37.78-37.73 37.76 37.76 0 0 1 37.78 37.73v91.33c0 3.8-3.08 6.87-6.87 6.87h-61.82a6.86 6.86 0 0 1-6.87-6.87zM750.24 390.42a37.76 37.76 0 0 1 37.78-37.73 37.76 37.76 0 0 1 37.77 37.73v91.33c0 3.8-3.07 6.87-6.86 6.87H757.1a6.86 6.86 0 0 1-6.87-6.87zM903.5 390.42a37.76 37.76 0 0 1 37.77-37.73 37.76 37.76 0 0 1 37.78 37.73v91.33c0 3.8-3.07 6.87-6.87 6.87h-61.81a6.86 6.86 0 0 1-6.87-6.87zM443.72 390.42a37.76 37.76 0 0 1 37.78-37.73 37.76 37.76 0 0 1 37.78 37.73v91.33c0 3.8-3.07 6.87-6.87 6.87h-61.82a6.86 6.86 0 0 1-6.87-6.87zM290.46 390.42a37.76 37.76 0 0 1 37.78-37.73 37.76 37.76 0 0 1 37.78 37.73v91.33c0 3.8-3.07 6.87-6.87 6.87h-61.82a6.86 6.86 0 0 1-6.87-6.87zM596.98 651.12a37.76 37.76 0 0 1 37.78-37.73 37.76 37.76 0 0 1 37.78 37.73v108.92c0 3.79-3.08 6.86-6.87 6.86h-61.82a6.86 6.86 0 0 1-6.87-6.86zM750.24 651.12a37.76 37.76 0 0 1 37.78-37.73 37.76 37.76 0 0 1 37.77 37.73v108.92c0 3.79-3.07 6.86-6.86 6.86H757.1a6.86 6.86 0 0 1-6.87-6.86zM903.5 651.12a37.76 37.76 0 0 1 37.77-37.73 37.76 37.76 0 0 1 37.78 37.73v108.92c0 3.79-3.07 6.86-6.87 6.86h-61.81a6.86 6.86 0 0 1-6.87-6.86zM443.72 651.12a37.76 37.76 0 0 1 37.78-37.73 37.76 37.76 0 0 1 37.78 37.73v108.92c0 3.79-3.07 6.86-6.87 6.86h-61.82a6.86 6.86 0 0 1-6.87-6.86zM290.46 651.12a37.76 37.76 0 0 1 37.78-37.73 37.76 37.76 0 0 1 37.78 37.73v108.92c0 3.79-3.07 6.86-6.87 6.86h-61.82a6.86 6.86 0 0 1-6.87-6.86z"/><path fill="#dfeef6" d="M740.46 80.84h-119.2V0h119.2c3.2 0 4.86 3.81 2.66 6.14l-27.49 29.3a7.3 7.3 0 0 0 0 9.97l27.5 29.29a3.65 3.65 0 0 1-2.67 6.14M634.76 280.16c134.98 0 264.28 7.94 383.79 22.48v-.02l-371.82-120a39 39 0 0 0-23.95 0l-371.81 120v.02c119.5-14.54 248.81-22.48 383.79-22.48"/></svg>