<svg xmlns="http://www.w3.org/2000/svg" width="1123" height="801" fill="none" viewBox="0 0 1123 801"><path fill="#f9c4aa" d="m1111.86 172.18-27.78-88.28c-19.33-62.54-85.83-97.86-148.53-78.67L751.98 63c-61.83 19.84-96.14 85.68-77.3 147.58-41.85-27.46-98.35-26.49-139.44 6.44L387.95 332.37c-25.87 19.96-41.03 48.5-44.96 78.66-27.12-11.33-58.49-12.75-87.98-1.34l-179.15 70.4c-61.04 24.15-90.73 93.38-66.55 154.25l33.77 86.13c23.54 61.11 92.42 91.66 153.7 68.15l179.14-70.4c49.42-19.72 78.32-69.1 74.44-119.42 42.16 30.5 101.3 30.73 143.92-3.3l147.3-115.36c31.78-24.39 47.64-61.9 46.14-99.13a119 119 0 0 0 63.73-1.57l183.57-57.78c62.47-20.07 96.93-87.05 76.84-149.36z"/></svg>