<svg xmlns="http://www.w3.org/2000/svg" width="397" height="763" fill="none" viewBox="0 0 397 763"><path fill="#68b096" d="M134.53 659.02q8.54 17.08 25.62 26.7 17.1 9.61 41.64 9.62 35.24 0 55.52-16.02t20.29-47q0-19.21-10.68-34.18-11.74-14.95-37.37-28.84-26.7-13.87-77.94-33.1-75.8-27.78-113.17-63.02Q0 437.94 0 381.33q0-36.31 17.08-66.22 17.09-29.9 53.38-51.28 13.59-8.24 29.73-14.73-24.67-14.87-41.47-32.27-32.03-32.05-32.03-80.11 0-58.73 45.9-98.27Q118.53.01 196.47 0c51.96 0 90.39 12.47 121.7 37.39q47 38.45 49.11 105.74h-93.95q-2.14-35.24-21.36-55.54T195.38 67.3q-35.24 0-54.45 16.02-20.3 16.04-20.3 47 0 20.3 11.75 34.17 10.68 13.89 37.37 27.77 25.62 13.88 76.87 34.19 49.11 18.15 82.2 38.45 33.1 21.37 50.19 50.2 17.07 28.85 17.08 66.23 0 37.4-17.08 67.3-17.08 30.98-52.32 51.27a176 176 0 0 1-30.33 13.7q25.46 15.14 43.14 32.24 30.97 32.03 30.96 80.1 0 58.76-45.9 97.2-45.9 39.54-123.85 39.53c-51.96 0-91.1-12.82-121.71-38.46Q32 686.84 30.96 619.54h93.95q1.08 22.44 9.62 39.53zM300 381.32q0-37.4-27.76-61.95-28.82-23.5-74.73-23.5-45.9 0-72.6 24.56-26.69 24.58-26.69 60.88c0 24.2 9.61 45.21 28.83 60.88q27.75 24.56 72.6 24.57c29.89 0 55.15-8.19 73.66-24.57q26.7-24.57 26.7-60.88"/></svg>