<svg xmlns="http://www.w3.org/2000/svg" width="266" height="812" fill="none" viewBox="0 0 266 812"><path fill="#054449" d="M118.42 812c14.57 0 26.39-12.9 26.39-28.83s-11.82-28.83-26.4-28.83-26.39 12.9-26.39 28.83S103.84 812 118.42 812"/><path fill="#f4ece6" d="m144.82 786.82 36.14-78.26H55.86l36.13 78.26z"/><path fill="#116e6b" d="M180.96 107.71v600.84H55.86V107.71H81.3a60.1 60.1 0 0 1-23.16-47.46 60.26 60.26 0 1 1 97.37 47.47h25.45z"/><path fill="#f4ece6" d="M265.05 99.45v220.02c0 6.26-5.08 11.34-11.34 11.34h-23.84a11.35 11.35 0 0 1-11.35-11.34v-173.5c0-6.25-5.08-11.34-11.34-11.34H11.35A11.35 11.35 0 0 1 0 123.3V99.45C0 93.18 5.08 88.1 11.35 88.1H253.7c6.26 0 11.34 5.08 11.34 11.35"/></svg>