<svg xmlns="http://www.w3.org/2000/svg" width="135" height="248" fill="none" viewBox="0 0 135 248"><path fill="#C58F79" d="M17.55 50.71c-.94-2.44-3.82-8.62-6.61-9.97-2.8-1.35-2.6.34-2.14 1.43.47 1.14 1.92 4.42-1.73 1.54a14.11 14.11 0 0 0-5.46-2.74c-1.17-.25-2.36.63-1 4.56 1.35 3.92 3.74 7.9 7.04 9.7 3.3 1.82 3.11 1.13 3.11 1.13l6.8-5.65Z"/><path fill="#9ECCED" d="M61.9 72.38c12.46-6.67 21.02-12.22 22.44-18.6.6-2.7-.45-6.68-4.07-8.6a8.67 8.67 0 0 0-7.94-.3c-2.11.89-2.96 1.67-4.14 2.51-8 5.7-12.94 11.84-26.1 16.72-3.69 1.37-11.19-4.3-16.92-9.11-2.89-2.43-6.4-5.62-6.99-6.49l-9.4 8.68c2.33 2.46 14.92 18.33 30.66 21.75 6.13 1.34 17.92-4.13 22.47-6.56Z"/><path fill="#1E1A28" d="M110.74 241.34s1.63 4.35 1.81 5.31c.19.84.6 1.13-2.4 1.16 0 0-17.7.28-18.9 0-.8-.18-1.8-1.29-1.26-6.22l20.76-.25ZM75 241.62s.29 4.18-.33 5.09c-.62.9-.99 1.5-6.42 1.2 0 0-15.34.27-15.83-.12-.48-.4 2.31-6.46 2.31-6.46l20.27.29Z"/><path fill="#054449" d="M112.48 109c.12 8.21 1.2 51.05 1.33 55.67.19 4.63.3 44.01.3 48.38 0 4.37.13 28.35-.42 29.14-.55.78-23.43 1.36-24.59.52-1.16-.85 0-39.57-.18-44.2-.12-4.63-.86-27.51-.12-46.16.73-18.65-.6-22.1-1.04-22.1-.43 0-.8-.91-2.52 16.69s-5.21 49.62-5.95 57.37c-.73 7.82-2.76 38.14-3.56 38.47-.8.32-22.44-.07-23.18-.33-.73-.26 1.17-25.56 1.41-28.36.24-2.8 5.15-65 5.4-68.33.24-3.32 2.45-38.07 2.45-38.07s25.88.06 28.08.26c2.27.13 22.59 1.04 22.59 1.04Z"/><path fill="#9ECCED" d="M112.05 98.27c.03 6.46.5 12.68.64 15.42 0 0-26.17 2.61-36.92 1.31 0 0-13.76-.61-14.47-.61 0 0 .17-11.33.16-17.78.1-9.83.29-18.19.55-25.23.26-7.04-.64-20.75 8.44-25.45 5.69-2.93 7.33-2.74 15.23-3.13 6.46-.27 15.63.72 19.35 4.18 4.77 4.36 5.34 13.77 6 22.79.44 10.17.76 20.03 1.02 28.5Z"/><path fill="#054449" d="M72.83 62.07a3.43 3.43 0 0 0-1.77-.47 3.09 3.09 0 0 1 6.06.26 3.43 3.43 0 0 0-1.8.33 1.26 1.26 0 0 0-2.5-.12Zm4.32.2a3.04 3.04 0 0 0-3.36 3.1 3.09 3.09 0 0 0 3.36-3.07v-.02ZM71 62.02a3.1 3.1 0 0 0 2.38 3.3v-.01c0-.58.14-1.13.4-1.63A3.04 3.04 0 0 0 71 62Z"/><path fill="#C58F79" d="M101.2 27.06c-.09-.44-.48-.68-.93-.88.18-3.56-.56-5.82-2.14-8.1-1.33-1.92-3.19-3.83-5.79-4.76-2.3-.83-7.95-.61-10.22.3-5.44 2.07-7.57 7.12-7.85 12.7-.47.11-.88.28-1.01.7A3.3 3.3 0 0 0 73 29.2c.18.64.59 1.04 1.4 1.58a15.5 15.5 0 0 0 2.38 7.13l.28.42c2.1 3.24 4.93 5.12 8.3 5.12h2.66c3.36 0 6.54-1.86 8.65-5.08l.84-1.27a15.38 15.38 0 0 0 2.36-6.65c.69-.34 1.07-.66 1.3-1.2.3-.74.23-1.43.02-2.18Z"/><path fill="#1E1A28" d="M93.97 14.02a15.08 15.08 0 0 0-4.36-1.65 4.4 4.4 0 0 0 1.55-1.29l.33-.43c.5-.67.83-1.48.93-2.33l.1-.83a4.84 4.84 0 0 0-.78-3.25l-.25-.36a3.1 3.1 0 0 0-2.15-1.42c-1.76-.39-3-.05-3.88.26a4.59 4.59 0 0 0-2.99 4.11l-.05.93a4.8 4.8 0 0 0 .95 3.17l.1.14c.4.52.85.94 1.36 1.23-3.3.56-6.6 2.52-8.35 5.07-2.75 4.6-2.29 5.29-2.63 8-.04.35.02.7.05 1.04a12.87 12.87 0 0 0 13.74-7.5c1.96 4.77 6.53 8.22 11.64 7.46.32-.05.67-.15.98-.2.08-.64.06-1.2.06-1.87.05-3.73-2.33-8.16-6.35-10.28Z"/><path fill="#C58F79" d="M108.7 113.44c-2.16.72-7.66 2.97-9.03 5.35-1.37 2.37-1.4 3.09-1 7.76.08 1.06.81 2.46 4.27 1.44 3.46-1.02 7.04-2.93 8.84-5.73 1.8-2.8 1.2-2.67 1.2-2.67l-4.28-6.15Z"/><path fill="#9ECCED" d="M92.74 50.84c.66-4.3 2.87-7.2 5.93-6.92 8.2 1.96 18.11 8.94 26.31 20.45 3 4.2 9.35 14.4 9.35 20.68-.22 16.08-18.4 34-20.54 36.62l-9.42-8.05c.6-.36 5.17-5.6 8.53-10.02 4.68-8.73 7.7-14.62 7.7-18.55-2.92-11.09-9.2-16.05-20.84-22.99 0 0-4.04-2.23-5.73-4.9a8 8 0 0 1-1.29-6.32Z"/><path fill="#054449" d="m.72 27.84 14.57-2.71a.88.88 0 0 1 1.02.68l4.44 20.67c.1.47-.19.93-.65 1.04l-14.38 3.6a.88.88 0 0 1-1.07-.67L.02 28.9a.88.88 0 0 1 .7-1.06Z"/></svg>