<svg xmlns="http://www.w3.org/2000/svg" width="133" height="248" viewBox="0 0 133 248">
  <path fill="#f9c4aa" d="m112.95 96.7c2.5-.76 9.16-2.3 11.95-.94 2.79 1.37 1.33 2.25.2 2.57-1.2.33-4.68 1.22-.16 2.32 1.98.47 4.06 1.38 5.54 2.62.92.76.97 2.25-2.97 3.6-3.94 1.36-8.54 1.93-12.01.44-3.47-1.48-2.81-1.76-2.81-1.76z"/>
  <path fill="#054449" d="m88.32 80.43c-5.15-8.38-5.9-10.18-8.78-17.2-1.8-4.38-4.74-9.37-7.53-12.05-4.11-3.95-6.01-5.82-10.76-6.86-2.7-.6-6.52 1.4-7.32 5.57-.8 4.16 3.22 8.37 4.45 9.44s3.82 2.8 8.5 10.3c3.65 5.84 3.3 6.44 8.86 18.66 2.72 5.54 5.01 7.9 9.74 10.51 5.06 2.8 12.4 5.68 27.9 9.26a799.1 799.1 0 0 0 1.06-12.93c-18.27-5.35-23.91-11.1-26.12-14.7z"/>
  <path fill="#1e1a28" d="m24.73 241.33s-1.62 4.35-1.8 5.32c-.2.84-.6 1.13 2.39 1.16 0 0 17.75.28 18.95 0 .8-.18 1.8-1.29 1.26-6.23zm35.82.27s-.29 4.2.33 5.1c.62.92.99 1.5 6.44 1.2 0 0 15.37.28 15.86-.11.48-.4-2.32-6.47-2.32-6.47l-20.31.29z"/>
  <path fill="#153f7b" d="m22.76 108.74c-.12 8.23-.98 51.15-1.1 55.78-.19 4.64-.31 44.09-.31 48.47 0 4.37-.12 28.4.43 29.19.55.78 23.47 1.37 24.64.52s0-39.64.19-44.28c.12-4.64.86-27.57.12-46.25s.6-22.13 1.03-22.13c.44 0 .81-.92 2.53 16.71 1.72 17.64 5.22 49.71 5.96 57.48.74 7.84 2.77 38.21 3.57 38.54.8.32 22.5-.07 23.23-.33.74-.26-1.17-25.6-1.41-28.41-.25-2.81-5.17-65.12-5.41-68.46-.25-3.32-2.46-38.14-2.46-38.14s-25.93.06-28.14.26c-2.28.13-22.87 1.05-22.87 1.05z"/>
  <path fill="#cde5f2" d="m21.34 170.65 1.37-57.04 51.43-1.03 4.12 57.16z"/>
  <path fill="#054449" d="m73.53 98c.03 6.46.52 12.7.65 15.44 0 0-26.23 2.62-37 1.32 0 0-13.79-.62-14.5-.62 0 0 .17-11.35.16-17.8.1-9.86.29-18.23.55-25.28.26-7.06-.64-20.8 8.46-25.5 5.7-2.94 7.34-2.75 15.26-3.14 6.48-.27 15.67.72 19.4 4.19 4.77 4.37 5.34 13.79 6 22.83.44 10.19.77 20.07 1.03 28.56z"/>
  <path fill="#cde5f2" d="m22.68 115.68.23-25.43s4.96-.82 6.53-1.15c1.56-.32 1.82-43.68 1.82-43.68s2.29-.98 3.55-1.42c.32-.11 1.95 25.21 2.15 27.42 0 0 19.94-.45 20.85-.58 0 0 .48-21.58.6-22.95l.44-4.6s3.09.5 3.87.96 1.15 32.72 1.8 43.58c0 0-.38.16 2.08.3 1.64.03 6.83.4 6.83.4l.79 26.23z"/>
  <path fill="#c58f79" d="m128.1 93.44c-22.56-7.75-44.69-2.62-48.15-1.78a720 720 0 0 0 -4.16-2.16c-4.3-2.23-7.26-2.57-7.73-2.54-.21.3-1.19 2.42-2.41 4.7-1.4 2.6-2.92 5.22-2.92 5.22l1.12.76c-5.89 2.42-12.26 4.78-17.77 7.45-6.87 3.32-12.04 5.58-17.81 8.77-2.73-.67-4.82-1.07-7.67-1.83-4.09-1.36-12.42-3.98-12.73-3.54-.23.64 1.4 4.2 3.8 13.32.95 4.18 2.31 15.5 2.89 15.54.7.1 9.88-9.71 14.7-15.6 3.41.3 7.73.55 11.98.45-.65.5-1.2.9-1.3 1.06.1.25 1.32 1.32 2.44 2.84 1.2 1.64 2.4 3.4 2.59 3.51a47.19 47.19 0 0 0 8.32-7.47c8.46.13 15.5-.27 23.96-1.47 33.2-4.74 46.36-16.34 51.46-24.36l.01-.02.16-.25c1-1.71-.17-2.37-.79-2.6z"/>
  <path fill="#f9c4aa" d="m25.69 113.65c2.16.72 7.67 2.97 9.04 5.36 1.38 2.38 1.4 3.1 1.01 7.78-.09 1.05-.82 2.46-4.29 1.44-3.46-1.02-7.05-2.94-8.86-5.75-1.8-2.8-1.2-2.67-1.2-2.67z"/>
  <path fill="#054449" d="m41.67 50.94c-.66-4.3-2.87-7.21-5.94-6.94-8.2 1.97-18.15 8.96-26.37 20.5-3 4.2-9.36 14.41-9.36 20.7.22 16.12 18.44 34.08 20.58 36.7l9.44-8.07c-.6-.36-5.18-5.61-8.55-10.04-4.69-8.75-7.7-14.65-7.7-18.58 2.91-11.11 9.2-16.09 20.87-23.03 0 0 4.05-2.24 5.74-4.9a8.02 8.02 0 0 0 1.3-6.34z"/>
  <path fill="#cde5f2" d="m30.93 67.1c.26-10.88.33-21.7.33-21.7s2.29-.98 3.54-1.42c.33-.11 1.96 25.21 2.15 27.42.2 2.21-6.27 6.37-6.02-4.3z"/>
  <path fill="#f9c4aa" d="m62.43 27.1c-.08-.44-.47-.67-.92-.87.18-3.57-.56-5.83-2.15-8.12-1.33-1.92-3.19-3.84-5.8-4.77-2.3-.82-7.97-.6-10.25.31-5.44 2.07-7.58 7.12-7.86 12.71-.46.12-.88.3-1.01.71a3.3 3.3 0 0 0 -.26 2.18c.18.63.59 1.03 1.4 1.57.22 2.6 1.04 5.09 2.39 7.15l.27.42c2.12 3.24 4.95 5.13 8.33 5.13h2.67c3.36 0 6.55-1.87 8.66-5.09l.84-1.28a15.4 15.4 0 0 0 2.37-6.65c.69-.35 1.07-.67 1.3-1.2.3-.75.23-1.44.02-2.2z"/>
  <path fill="#1e1a28" d="m66.15 21.54c-.7-2.75-3.89-4.15-3.89-4.15s1.97-2.4-.49-4.15c-2.46-1.76-4.5-.74-4.5-.74s.06-2.1-2.95-3.23c-3-1.13-4.93.56-4.93.56s-2.3-1.66-5.37-.56c-3.07 1.11-2.95 3.32-2.95 3.32s-4.77-.37-6.69 2.22a3.54 3.54 0 0 0 0 4.6s-3.28 1.12-3.28 3.88 3.28 3.96 3.28 3.96l.95-.86.79-.18c4.1-1 7.38-3.12 9.27-5.64 3.4 3.12 8.38 4.9 13.6 4.7.52 1.2 1.41 2.45 2.92 2.45 4.76 0 4.82-3.95 4.24-6.18z"/>
</svg>