<svg xmlns="http://www.w3.org/2000/svg" width="792" height="801" fill="none" viewBox="0 0 792 801"><rect width="370.06" height="493.41" x="423.67" y="228.7" fill="#b4cea0" rx="21.45" transform="rotate(6 423.67 228.7)"/><rect width="370.06" height="493.41" x="380.77" y="271.61" fill="#faf7f4" rx="21.45" transform="rotate(6 380.77 271.6)"/><path fill="#b4cea0" d="M483.04 524.88a55.6 55.6 0 0 1 61.15-49.45l6.7-63.82c-65.86-6.92-124.87 40.78-131.78 106.55a119 119 0 0 0 20.62 80.6l52.16-37.55a55.3 55.3 0 0 1-8.85-36.33"/><path fill="#68b096" d="M532.57 585.95a55.6 55.6 0 0 1-40.68-24.74l-52.16 37.55a119.7 119.7 0 0 0 86.14 51.03 119.7 119.7 0 0 0 88.09-26.09l-40.33-50a55.5 55.5 0 0 1-41.06 12.25"/><path fill="#116e6b" d="M593.73 536.52a55.4 55.4 0 0 1-20.1 37.18l40.33 50a119.3 119.3 0 0 0 43.7-80.46z"/><path fill="#f8de9c" d="m619.52 519.75 63.93 6.72c6.9-65.77-40.88-124.7-106.76-131.62l-6.7 63.82a55.6 55.6 0 0 1 49.53 61.08"/><path fill="#1e1a28" d="M196.58 777.63s-5.24 14-5.83 17.12c-.6 2.69-1.9 3.64 7.71 3.73 0 0 57.08.9 60.97 0 2.57-.6 5.78-4.15 4.04-20.04l-66.9-.8M311.78 778.53s-.92 13.47 1.06 16.4c2 2.93 3.18 4.82 20.7 3.86 0 0 49.43.9 51-.38 1.57-1.27-7.44-20.82-7.44-20.82z"/><path fill="#b4cea0" d="M190.98 351.2c-.4 26.47-3.9 164.5-4.3 179.4-.59 14.92-.99 141.8-.99 155.87s-.4 91.37 1.38 93.9c1.78 2.51 75.5 4.4 79.26 1.67 3.76-2.72 0-127.5.6-142.42.39-14.92 2.76-88.65.39-148.73-2.38-60.08 1.93-71.2 3.33-71.2 1.39 0 2.6-2.95 8.13 53.77s16.8 159.87 19.17 184.86c2.37 25.2 8.9 122.9 11.47 123.94 2.57 1.06 72.35-.2 74.71-1.04 2.37-.84-3.76-82.36-4.54-91.4-.79-9.03-16.6-209.44-17.4-220.16-.78-10.7-7.9-122.68-7.9-122.68s-83.4.21-90.52.84c-7.31.42-72.8 3.36-72.8 3.36h.02z"/><path fill="#7f433b" d="m58.05 312.46.83 28.46s2.11.87-9.04 5.65c-11.16 4.79-25.98 2.95-38.63-1.4s-12.52-9.13-9.56-11.6c4.75-3.96 11.47-6.88 17.82-8.43 14.55-3.52 3.35-6.37-.5-7.44-3.66-1.03-8.34-3.86.64-8.26s30.38.57 38.44 3.03"/><path fill="#abe1cd" d="M140.94 249.84c16.56-26.97 17.92-30.02 32.98-52.35 8.52-12.63 14.18-22.83 23.13-31.43 13.24-12.7 19.36-18.71 34.61-22.07 8.69-1.92 20.99 4.52 23.54 17.91s-10.34 26.91-14.3 30.35-16.95 15.38-27.34 30.18c-12.73 18.13-5.04 9.2-31.43 49.72-10.82 16.63-16.87 29.8-32.08 38.22-16.27 9-43.57 28.58-93.43 40.1-.8-7.12-4.13-43.8-4.13-43.8 58.76-17.2 81.34-45.25 88.45-56.83"/><path fill="#7f433b" d="M497.2 164.13c3.03-7.87 12.32-27.78 21.32-32.12 9-4.35 8.34 1.07 6.89 4.6-1.53 3.68-6.2 14.25 5.55 4.97 5.14-4.05 11.58-7.53 17.63-8.82 3.76-.81 7.6 2.02 3.23 14.67-4.38 12.64-12.08 25.44-22.72 31.28-10.65 5.84-10.03 3.63-10.03 3.63z"/><path fill="#abe1cd" d="M354.25 233.94c-40.16-21.47-67.75-39.36-72.31-59.93-1.93-8.69 1.44-21.5 13.1-27.7 9.98-5.3 18.34-3.98 25.61-.94 6.8 2.83 9.53 5.34 13.35 8.07 25.75 18.35 41.7 38.14 84.13 53.87 11.86 4.4 36.04-13.84 54.52-29.36 9.3-7.82 20.63-18.1 22.52-20.9l30.29 27.96c-7.49 7.91-48.08 59.07-98.81 70.1-19.75 4.3-57.76-13.33-72.41-21.16z"/><path fill="#abe1cd" d="M353.64 316.66c.1 20.8 1.65 40.85 2.07 49.67 0 0-84.34 8.41-119 4.24 0 0-44.33-1.99-46.63-1.99 0 0 .55-36.5.51-57.27.3-31.69.94-58.61 1.78-81.3s-2.05-66.88 27.21-82c18.32-9.46 23.6-8.86 49.07-10.12 20.84-.84 50.39 2.35 62.4 13.48 15.35 14.06 17.18 44.36 19.31 73.43 1.41 32.78 2.46 64.56 3.3 91.86z"/><path fill="#054449" d="M304.23 201.72a13 13 0 0 0-6.75-1.81 11.79 11.79 0 0 1 23.14 1 13 13 0 0 0-6.87 1.27 4.81 4.81 0 0 0-9.52-.46m16.51.78a11.6 11.6 0 0 0-12.83 11.84 11.8 11.8 0 0 0 12.83-11.74zm-23.51-1.02a11.8 11.8 0 0 0 9.1 12.6v-.06c0-2.18.53-4.31 1.56-6.22a11.6 11.6 0 0 0-10.66-6.32"/><path fill="#7f433b" d="M318.05 87.18c-.27-1.42-1.52-2.18-2.99-2.81.6-11.47-1.79-18.76-6.89-26.13-4.29-6.17-10.27-12.33-18.65-15.32-7.44-2.67-25.65-1.97-32.96.99-17.51 6.65-24.4 22.91-25.3 40.87-1.5.39-2.82.94-3.25 2.3-.97 2.29-1.45 4.46-.82 7 .58 2.03 1.88 3.31 4.49 5.05a50 50 0 0 0 7.67 23l.9 1.36c6.8 10.42 15.89 16.49 26.77 16.49h8.58c10.82 0 21.08-6.01 27.88-16.36l2.7-4.12a49.6 49.6 0 0 0 7.6-21.4c2.22-1.13 3.45-2.15 4.19-3.86.94-2.4.74-4.63.08-7.06"/><path fill="#1e1a28" d="M330 69.26c-2.26-8.83-12.5-13.34-12.5-13.34s6.34-7.72-1.58-13.35-14.45-2.37-14.45-2.37.17-6.74-9.5-10.38c-9.69-3.64-15.87 1.78-15.87 1.78s-7.4-5.33-17.26-1.78c-9.87 3.56-9.48 10.68-9.48 10.68s-15.37-1.18-21.53 7.12 0 14.83 0 14.83-10.57 3.56-10.57 12.45c0 8.9 10.57 12.75 10.57 12.75l3.06-2.79q1.26-.26 2.52-.56c13.18-3.24 23.76-10.03 29.82-18.14 10.92 10.03 26.96 15.76 43.76 15.1 1.64 3.87 4.52 7.9 9.37 7.9 15.32 0 15.5-12.7 13.65-19.88z"/></svg>