<svg xmlns="http://www.w3.org/2000/svg" width="403" height="296" fill="none" viewBox="0 0 403 296"><path fill="#1e1a28" d="M396.4 274.57s5.16 13.7 5.74 16.75c.58 2.63 1.87 3.57-7.6 3.65 0 0-43.9.88-47.73 0-2.53-.59-5.81-4.63-4.1-20.17l53.6-.8zM247.67 273.12c-1.97 5.15-7.44 19.82-6.4 20.69l.04.02c.18.14 1.07.25 2.46.33l44.1.02v-.03c4.37-.43 5.16-1.62 6.2-3.2 1.43-2.1 2.67-14.85 2.94-17.84h-49.34"/><path fill="#7f433b" d="m370.6 184.9 16.89-6.36s.03-1.55 5.5 4.66c5.46 6.23 7.82 16.16 8.13 25.2.32 9.07-3.41 9.92-5.91 9.43-11.12-2.11-12.78-2.65-17.51-7.54s-6.72-19.71-7.12-25.42h.02l.02.02h-.02M210.55 148.58l11.9 18.27s1.84-.37-4.06 7.7c-5.91 8.07-17 13.43-27.6 16.19-10.58 2.75-12.55-1.42-12.66-4.5-.43-13.66-.22-15.75 4.3-22.61 4.53-6.87 21.48-13.08 28.1-15.05v.03-.02z"/><path fill="#f9cc76" d="M369.26 113.8c-5.4-13.58-23.93-19.67-37.6-21.57-2.22-.3-4.47-.6-6.71-.65 0 0-14.94-.45-18.16-1.28-7.31-1.9-22.53 2.86-34.62 10.04-5.64 3.42-9.26 5.52-12.21 7.69 0 0-53.94 35.58-68.3 45.07-.62.4 15.05 34.59 15.05 34.59l51.35-20.4 1.36 12.7 84.04-1.2 31.24 17.37 23.66-9.44v-.02c-.05-.15-29.1-72.86-29.1-72.9"/><path fill="#da573b" d="M401.23 275.78 400.1 272 341.28 94.16q-.01 0-.05-.02a84 84 0 0 0-14.1-2.43l-.02.02 9.85 51.13-41.42 5.61s-9.98-38.85-13.3-53.22a89 89 0 0 0-10.08 5.1l-2.23 1.35 6.69 52.3-18.6 13.38-16.43 109.66c-.1.7.43 1.3 1.12 1.3h55.43c.62 0 1.19-.43 1.33-1.03l12.83-54.2a1.35 1.35 0 0 1 2.55-.24l24.26 54.73c.22.5.72.81 1.27.8h59.73c.92 0 1.4-1.73 1.12-2.6z"/><path fill="#7f433b" d="M350.03 57.12c.21 2.42 0 4.57-1.31 6.67a6.3 6.3 0 0 1-3.19 2.4 44 44 0 0 1-3.29 9.94l-2.03 4.31c-5.09 10.82-14.1 18.01-24.5 19.53l-8.23 1.2c-10.46 1.53-20.05-2.98-28.04-11.97l-1.05-1.17a47.7 47.7 0 0 1-10.58-20.85c-2.75-1.29-4.18-2.33-5.02-4.2-.95-2.32-.79-4.46-.18-6.8.23-1.35 1.43-2.06 2.81-2.65-1.65-17.26 2.7-33.74 18.59-42.54 6.62-3.85 24.02-7.08 31.54-5.6 8.48 1.68 15.08 6.7 20.07 12 5.94 6.3 9.25 12.93 10.27 23.94 1.5.39 2.81.94 3.26 2.27.97 2.22 1.48 4.33.9 6.75a6.4 6.4 0 0 1-2.36 3.39q0 .07-.03.12c1.29.86 2.36 1.81 2.36 3.19l.02.03v.03z"/><path fill="#1e1a28" d="M359.28 38.17c-2.14-8.3-11.72-12.53-11.72-12.53s5.96-7.25-1.48-12.51c-7.44-5.3-13.56-2.21-13.56-2.21s.15-6.33-8.93-9.74-14.88 1.67-14.88 1.67-6.93-5.01-16.2-1.67c-9.26 3.36-8.9 10-8.9 10s-14.42-1.1-20.2 6.68c-5.78 7.79 0 13.9 0 13.9s-9.91 3.37-9.91 11.7 9.91 11.97 9.91 11.97l2.87-2.63q1.19-.23 2.36-.53c12.35-3.03 22.29-9.41 27.98-17.02 10.26 9.4 25.3 14.79 41.07 14.18 1.55 3.62 4.24 7.4 8.81 7.4 14.37 0 14.55-11.91 12.79-18.66l.02-.02h-.04zM217.82 89.49c-3.63-.25-9.13-.65-12.36-2.26-4.68-2.26-7.77-7.42-11.25-11.03-17.36-17.88-44.31-17.74-61.03 1.29-3.66 4.19-6.28 10.56-7.58 17.7-13.37 4.47-23.97 16.26-25.73 31.23 9.24 2.3 18.55.97 26.49-3-13.01 35.92-31.74 45.34-31.74 45.34-13.58 10.71-29.82 18.84-40.32 32.56-13.26 17.34-17.86 40.95-10.74 61.83.57 1.76 2.9 7.35 3.38 8.2-10.75-4.97-20.78-8.3-26.35-17.22-3.55-5.8-5.42-20.78-5.32-30.88 0-2.26-12.21-5.48-14.37 9.5-2.2 14.96-2.73 41.65 27.24 53.44 25.88 10.06 47.69 8.63 53.4 8.77h53.08a3.24 3.24 0 0 0 3.24-3.22v-5.66c0-2.83-.8-5.55-2.34-7.88-1.62-2.5-3.8-3.8-6.14-5.3.46.32 8.4-5.3 10.81-7.02l5.29 26.76a3.3 3.3 0 0 0 2.9 2.36h59.38a3.24 3.24 0 0 0 3.23-3.22v-5.48c0-4.84-3.95-8.71-8.73-8.71h-2.02c-2.51-9.1-6.4-23.79-7.9-31.67-4.2-21.85-6.15-80.35-6.3-82.53-.78-11.54-4.77-21.53 7.52-28.44 7.58-4.2 16.31-7.42 24.08-11.43 6.14-3.23 10.6-7.24 12.36-14.12V94.82c0-4.44-9.2-5.15-12.22-5.3zm-48.3 188.17h-.07q-.72-.5-1.23-1.68c-.72-2.08-3.55-20.31-4.02-26.51a143 143 0 0 0 4.67-3.62c1.12 9.1 6.4 31.85 6.4 31.85h-5.75z"/></svg>