<svg xmlns="http://www.w3.org/2000/svg" width="1024" height="800" fill="none" viewBox="0 0 1024 800"><path fill="#B4CEA0" d="M287.66 203.93v34.4c17.28-8.6 34.63-20.23 53.8-26.12 38.1-11.69 68.45 7.13 74.92 44.83 4.97 29.02-22.93 61.59-58.2 55.36-33.6-4.36-48.05-25.37-46.66-63.8-20.78 11.19-28.92 47.14-23.43 106.11 16.01-8.6 27.62-20.4 45.77-26.24 28.28-9.14 56.55-8.49 77.7 17.6 15.32 18.9 19.72 53.99.35 75.22-17.63 19.3-53 23.61-76.12 8.35-14.61-9.61-30.1-34.37-22.66-62.26a44.93 44.93 0 0 1 3.17-7.97c-9.5 2.41-19.6 18.3-21.3 32.1-4.62 37.46-3.85 70.81-4.67 109.18 16.31-16.9 33.19-31.21 55-38.43 31.3-10.39 60.46-9.62 84.11 17.22 16.83 19.11 18.01 47.37 4.24 72-8.7 15.54-35.72 29.58-61.56 25.3-35.65-5.92-50.7-42.66-42.2-78.84-23.12 18.5-32.13 42.04-33.12 68.6-1.02 27.38-.43 54.8-.2 82.16.1 11.44-1.16 19.1-16.5 19.1-13.93 0-14.72-8.5-14.67-18.63.09-25.07.68-50.15-.28-75.22-.72-19.5-2.6-39.2-13.54-54-3.29 16.2-4.01 28.43-11.13 40.19-12.12 20.08-33.37 25.14-56.26 22.3-22.68-2.85-34.38-18.08-40.07-37.8-8.03-27.77 4.21-56.2 28.55-68.14 23.48-11.54 58.57-12.62 80.82 15.68 3.63 4.6 6.85 9.55 11.88 16.6 0-39.62-1.1-72.41-2.7-109.63-.95-22.07-26.08-46.94-47.92-52.29 7.21 8.87 11.34 17.22 14.47 27.13 5.06 23.29-3.2 40.49-19.67 54.62-16.8 14.4-37.33 17.35-56.54 9.2-31.99-13.63-40.9-46.26-25.97-78.02 12.04-25.61 42.25-37.71 73.62-34.6 30.62 5.22 35.27 5.24 62.54 24.33 5.26-37.91 2.54-90.48-18.29-108.94 1.25 7.09 1.18 11.33.84 19.43-2.24 22.08-12.06 32.12-35.83 38.67-26.56 7.28-52.92-2.22-62.6-23.66-9.7-21.53-7.4-52.33 14.4-67.8 22.5-15.93 62.28-12.61 85.9 7.93 6.32 5.5 12.58 11.06 18.37 16.11v-27.2c-38.74-14.37-48.36-43.08-43.1-68.99 6.33-30.94 33.8-48.36 67.19-44.62 26.56 3.03 47.08 26.32 47.8 54.26.8 30.38-18.82 53.92-50.25 59.17v.05Z"/><path fill="#68B096" d="M445.56 782.04c2.77-15.35 2.4-107.62-1.47-116.54-3.87-8.93-9.56-11.3-25.63-11.51-16.1-.2-194.05.35-199.6.55-5.56.2-23.08 3.02-33.62 18.69-10.54 15.66-10.9 14.2-13.87 14.6-2.97.4-31.56.96-33.18.96v75.44s29.2-.28 33.53.71c3 .7 6.75 2.71 14.76 15.95 6.45 10.69 19.83 15.54 26.97 15.8 7.14.28 201.14.14 205.47 0 4.34-.13 24.14-.75 26.64-14.63v-.02Z"/><path fill="#1E1A28" d="M88.06 772.86V756.4c-10.66-3.66-26.43-3.66-32.4-3.88-5.98-.21-29.2.86-37.96-1.07C8.96 749.5 0 740.66 0 727.76c0-12.9 11.5-23.26 17.91-24.55 6.39-1.3 20.47-1.71 36.68-1.5 16.2.22 29-3.23 33.47-4.51v-15.87c0-1.82 1.25-3.27 3.05-3.27 1.8 0 47.09-.9 47.09-.9v99.19H91.1c-2.15 0-3.05-1.74-3.05-3.46v-.03Z"/><path fill="#68B096" d="M389.01 653.95h114.02v142.93H389.01z"/><path fill="#F9C4AA" d="M770.16 311.33c8.07-2.46 29.5-7.44 38.48-3.03 8.98 4.4 4.3 7.23.63 8.26-3.84 1.07-15.06 3.92-.5 7.45 6.37 1.54 13.09 4.47 17.84 8.44 2.97 2.47 3.1 7.25-9.56 11.6-12.67 4.36-27.5 6.2-38.67 1.41-11.17-4.77-9.05-5.66-9.05-5.66l.83-28.48Z"/><path fill="#DA573B" d="M690.88 258.94c-16.58-27-19.01-32.78-28.26-55.36-5.8-14.11-15.26-30.2-24.23-38.8-13.25-12.73-19.37-18.74-34.64-22.1-8.7-1.92-21 4.53-23.56 17.93-2.57 13.41 10.35 26.93 14.32 30.38 3.96 3.44 12.28 9.02 27.36 33.16 11.74 18.8 10.6 20.75 28.5 60.1 8.77 17.81 16.15 25.4 31.38 33.82 16.28 9 39.93 18.28 89.84 29.81.8-7.12 3.4-41.63 3.4-41.63-58.82-17.22-77-35.71-84.1-47.3Z"/><path fill="#1E1A28" d="M486.18 776.91s-5.24 14.02-5.83 17.13c-.6 2.7-1.9 3.66 7.72 3.74 0 0 57.13.9 61.02 0 2.57-.6 5.79-4.15 4.05-20.05l-66.97-.82ZM601.5 777.8s-.93 13.49 1.05 16.42c2 2.94 3.19 4.83 20.73 3.87 0 0 49.48.89 51.05-.38 1.57-1.28-7.45-20.84-7.45-20.84l-65.4.94h.01Z"/><path fill="#153F7B" d="M480.57 350.07c-.38 26.5-3.9 164.65-4.29 179.57-.6 14.93-1 141.94-1 156.03 0 14.08-.39 91.45 1.39 93.97 1.78 2.52 75.58 4.41 79.33 1.69 3.76-2.73 0-127.63.6-142.57.39-14.93 2.76-88.73.39-148.87-2.38-60.13 1.94-71.26 3.33-71.26 1.4 0 2.6-2.96 8.14 53.82 5.54 56.77 16.81 160.02 19.19 185.03 2.37 25.24 8.9 123.02 11.48 124.07 2.58 1.05 72.42-.21 74.78-1.05 2.38-.84-3.76-82.44-4.54-91.48-.79-9.05-16.62-209.64-17.4-220.37-.8-10.72-7.92-122.8-7.92-122.8s-83.5.2-90.6.84c-7.33.42-72.88 3.37-72.88 3.37h.02l-.01.01Z"/><path fill="#DA573B" d="M643.28 315.49c.1 20.81 1.65 40.89 2.07 49.71 0 0-84.42 8.42-119.11 4.24 0 0-44.37-1.98-46.68-1.98 0 0 .55-36.55.51-57.33.3-31.71.94-58.67 1.78-81.37.84-22.7-2.05-66.95 27.24-82.09 18.34-9.46 23.63-8.86 49.12-10.12 20.86-.84 50.43 2.34 62.45 13.49 15.37 14.07 17.2 44.4 19.34 73.5 1.4 32.81 2.46 64.62 3.29 91.95Z"/><path fill="#F9C4AA" d="M353.22 311.33c-8.07-2.46-29.5-7.44-38.48-3.03-8.98 4.4-4.3 7.23-.63 8.26 3.83 1.07 15.06 3.92.5 7.45-6.37 1.54-13.09 4.47-17.84 8.44-2.97 2.47-3.1 7.25 9.56 11.6 12.67 4.36 27.5 6.2 38.67 1.41 11.17-4.77 9.05-5.66 9.05-5.66l-.83-28.48Z"/><path fill="#DA573B" d="M432.5 258.94c16.58-27 19-32.78 28.26-55.36 5.8-14.11 15.26-30.2 24.23-38.8 13.25-12.73 19.37-18.74 34.64-22.1 8.7-1.92 21 4.53 23.56 17.93 2.57 13.41-10.35 26.93-14.32 30.38-3.97 3.44-12.28 9.02-27.36 33.16-11.74 18.8-10.6 20.75-28.5 60.1-8.77 17.81-16.15 25.4-31.38 33.82-16.28 9-39.93 18.28-89.84 29.81-.8-7.12-3.4-41.63-3.4-41.63 58.82-17.22 77-35.71 84.1-47.3Z"/><path fill="#F9C4AA" d="M607.66 87.27c-.26-1.43-1.52-2.2-2.99-2.82.6-11.48-1.79-18.78-6.9-26.15-4.29-6.18-10.27-12.35-18.66-15.34-7.45-2.67-25.68-1.97-33 .99-17.52 6.65-24.42 22.93-25.32 40.91-1.5.39-2.82.94-3.26 2.3-.96 2.29-1.45 4.47-.82 7 .58 2.04 1.89 3.33 4.5 5.07a50 50 0 0 0 7.68 23l.9 1.37c6.8 10.44 15.9 16.51 26.8 16.51h8.58c10.83 0 21.1-6.01 27.9-16.38l2.71-4.12a49.6 49.6 0 0 0 7.6-21.42c2.23-1.12 3.46-2.15 4.2-3.86.94-2.4.74-4.64.08-7.06Z"/><path fill="#1E1A28" d="M629.66 100.99c-1.17-6.05-8.48-13.91-11-17.84-6.67-10.43-9.43-15.79-9.43-15.79-7.27-14.88-23.08-27.19-41.04-28.05-9.26-.44-19.04-.27-27.84 4.92-.05.02.05-.03 0 0-12.75 6.37-22.77 23.22-20.3 38.15.14.83.3 1.65.5 2.46 1.5-.05 3.18.32 4.51-.53 6.14-3.9 14.37-12.36 19.08-22.03 14.13 21.37 42.67 29.03 60.51 22.12v.05c1.47.64 2.73 1.4 3 2.83.66 2.42.86 4.67-.08 7.07-.75 1.71-1.98 2.74-4.21 3.86a49.56 49.56 0 0 1-7.62 21.45l-2.71 4.13a39.89 39.89 0 0 1-7.75 8.75c.54 1.8 4.11 11.53 17.62 8.74 14.25-2.95 14.07-4.3 20.2-10.84 6.76-7.22 9.21-15.8 6.57-29.45Z"/><path fill="#F9C4AA" d="M999.47 594.08h.02c2.96 5.91 5.55 12.16 13.26 11.42 5.28.06 8.37-3.05 9.02-8.15.85-6.82-2.05-10.31-11.07-13.23 1.53-4.06 5.55-3.74 8.78-4.83-3.64-3.81-11.05-3.98-14.25.47-3.41 5.97-10.38 8.45-14.6 13.17-43.51-29.46-98.35-22.88-148.18-20.48-38.52 3.49-78.87 9.92-112.46 30.24-17.09 11.57-31.2 20.84-45.02 37.01-10.4-12.46-28.43-19.12-45.19-15.46a83.7 83.7 0 0 0 0 3.68 46.81 46.81 0 0 0 25.37 39.52c-8.67 9.66-9.92 32.02-25.97 28.34-10.63-1.47-9.87 3.16-6.4 12.68 2.63 6.76 9.27 16.4 19.25 18 23.53 5.78 51.5 5.6 75.55 6.71 0 0 11.21 41.73 11.48 47.95.11 2.67-1.55 14.18-1.9 16.96-.17 1.26.48 1.86 1 1.86s13.78-.06 15.97 0c1.3.02 1.7-.6 1.8-1.2l12.63-65.22c1.4-.08 1.56-.1 2.19-.1 0 0 16.62 39.35 17.52 43.83.57 2.91.38 20.83.4 21.68 0 .79.58 1.03.86 1.03h15.6c.9 0 1.2-.38 1.43-1.12 4.15-12.92 5.66-53.42 6.48-65.53 33.8.52 56.17 1.25 96.35-.03 0 0 10.28 41.3 10.2 46.47-.03 1.94-2.4 17.84-2.51 18.71-.11.68.1 1.48.73 1.48.55 0 13.02.02 16.92 0 .82 0 1.48-.58 1.73-1.61 4.18-17.13 9.87-48.3 11.23-64.45l3.09 1.83s10.63 31.14 10.66 37.5c0 2.4-2.08 18.9-2.81 24.6-.17 1.28.57 2.15 1.47 2.15.8 0 13.01.08 16.62 0 .8 0 1.37-.51 1.53-1.12 6.86-24.98 13.78-59.37 21.27-82.44.36-1.2 1.86-3.28 2.62-4.42 25.51-34.75 22.78-80.02-5.08-111.44-2.35-2.54-1.17-4.94 2.4-6.44v-.02Zm8.06-3.93c4.95-.03 10.74 3.76 5.93 8.4-5.44 2.48-8.06-3.88-5.93-8.4Z"/><path fill="#9ECCED" d="M879.7 43.6c6.48 11.64 11.35 20.48 16.23 29.29 17.2 32.75 35.35 64.86 51.58 97.93 13.96 28.03 25.63 57.32 30.17 88.5a140.78 140.78 0 0 1-.98 49.43c-4.53 22.98-18.17 39.36-38.59 50.37-33.4 18.27-67.16 18.59-100.56-.31-12.64-6.92-24.98-14.49-33.73-26.14-10.38-13.54-15.9-28.66-16.88-45.98-1.3-28.66 6.16-55.74 13.96-83.13 4.86-17.02 12.96-32.76 20.77-48.8 15.9-32.13 32.75-63.92 48.98-96.05 2.6-4.1 5.19-8.17 9.08-15.11h-.03Z"/><path fill="#C58F79" d="M762.33 467.93c2.12-2.47 3.83-3.03 6.71-7.58 2.88-4.56 18.98-29.24 23.77-34.74 4.79-5.49 21.87-21.94 35.87-31.22 15.1-10.02 26.4-18.35 43.09-20.81 16.68-2.47 26.9-1.52 31.78 2.98 9.82 9.1 35.93 32.43 48.2 48.33 12.26 15.91 14.92 20.79 14.92 21.35 0 .56-2.12 4.62-2.12 4.62s1.54 1.33 4.21.76c2.68-.57 31.8-17.47 38.89-18.4 7.08-.95 7.28 3.59 9.96 8.33 2.68 4.75 6.73 19.17 5.58 26.56-1.15 7.38-6.44 18.89-9.88 22.5-3.45 3.6-4.22 8.9-11.7 5.3-7.47-3.6-24.03-15.87-26.53-16.44-2.5-.57-6.9-1.14-8.82-.38 0 0 2.93 3.76 2.93 4.51 0 .76-6.95 20.69-16.15 33.38-9.2 12.7-27.03 35.8-30.67 39.21-3.63 3.42-24.17 14.21-29.52 14.78-5.36.57-12.45-1.13-30.66-9.84s-50.99-26.34-55.01-28.8c-4.02-2.45-9.09-7.43-15.35-14.17-3.16-3.4-8.42-8-15.51-15.38-7.1-7.4-9.02-10.99-14-12.7-4.98-1.7-5.17-1.7-5.94-5.87-.77-4.16 1.15-4.35 5.17-5.11 4.03-.76 5.95-.95 5.95-.95s-4.02-2.09-5.18-3.97c-1.15-1.89 0-6.25 0-6.25h.01Z"/></svg>