<svg xmlns="http://www.w3.org/2000/svg" width="601" height="894" fill="none" viewBox="0 0 601 894"><rect width="435.92" height="357.6" x="165" y="536.4" fill="#0c4fa1" rx="8.87"/><rect width="329.52" height="134.47" x="218.2" y="693.77" fill="#dfeef6" rx="5.91"/><rect width="387.15" height="14.78" x="189.38" y="647.96" fill="#dfeef6" rx="7.39"/><circle cx="521.4" cy="592.92" r="24.01" fill="#dfeef6"/><circle cx="429.04" cy="592.92" r="24.01" fill="#dfeef6"/><circle cx="336.69" cy="592.92" r="24.01" fill="#dfeef6"/><circle cx="244.43" cy="592.92" r="24.01" fill="#dfeef6"/><path fill="#0c4fa1" d="M593.77 192.72h-421.6a7.17 7.17 0 0 1-7.17-7.17v-24c0-4.33 1.98-8.46 5.35-11.18L305.36 71.5a14.3 14.3 0 0 0 5.35-11.17V7.28a7.17 7.17 0 0 1 7.17-7.17h130.15a7.17 7.17 0 0 1 7.18 7.17v53c0 4.33 1.97 8.46 5.34 11.17l135.02 78.87a14.3 14.3 0 0 1 5.35 11.18v24a7.17 7.17 0 0 1-7.17 7.17z"/><path fill="#faf7f4" d="M138 509h69v385h-69z"/><path fill="#1e1a28" d="M83.74 872.48s-5.24 14.04-5.84 17.16c-.6 2.7-1.9 3.66 7.73 3.75 0 0 57.22.9 61.12 0 2.58-.6 5.8-4.17 4.05-20.1zM199.23 873.38s-.92 13.5 1.06 16.44c2 2.94 3.2 4.83 20.77 3.87 0 0 49.55.89 51.12-.38 1.57-1.28-7.46-20.87-7.46-20.87z"/><path fill="#054449" d="M78.13 444.98c-.4 26.53-3.9 164.9-4.3 179.85-.6 14.95-1 142.16-1 156.26 0 14.11-.4 91.6 1.38 94.13 1.8 2.52 75.7 4.41 79.46 1.68 3.77-2.73 0-127.82.6-142.78.39-14.96 2.77-88.87.39-149.1-2.38-60.24 1.94-71.38 3.34-71.38s2.6-2.96 8.15 53.9S183 727.81 185.37 752.86c2.38 25.28 8.91 123.21 11.5 124.26s72.53-.2 74.9-1.05c2.38-.84-3.77-82.56-4.55-91.62-.8-9.06-16.65-209.97-17.44-220.71-.79-10.73-7.93-122.99-7.93-122.99s-83.62.2-90.74.84c-7.34.42-72.98 3.37-72.98 3.37h.01z"/><path fill="#9bcab9" d="M241.16 410.64c.09 20.8 1.65 40.87 2.06 49.7 0 0-84.4 8.41-119.07 4.23 0 0-44.35-1.98-46.66-1.98 0 0 .55-36.53.51-57.3.3-31.71.94-58.66 1.78-81.35.84-22.7-2.05-66.92 27.23-82.06 18.33-9.46 23.62-8.86 49.1-10.12 20.85-.84 50.42 2.34 62.43 13.48 15.37 14.08 17.2 44.4 19.33 73.48 1.41 32.8 2.47 64.6 3.3 91.91z"/><path fill="#c58f79" d="M230.33 460.48c-6.95 2.32-24.68 9.58-29.1 17.25s-4.53 9.97-3.25 25.03c.29 3.4 2.65 7.94 13.8 4.65s22.69-9.46 28.51-18.5 3.89-8.58 3.89-8.58l-13.84-19.85"/><path fill="#9bcab9" d="M178.89 258.67c2.13-13.86 9.26-23.22 19.12-22.34 26.41 6.35 58.42 28.85 84.86 65.96 9.65 13.54 30.13 46.44 30.13 66.66-.7 51.86-59.34 109.64-66.23 118.09l-30.38-25.97c1.94-1.16 16.67-18.07 27.5-32.32 15.1-28.15 24.81-47.14 24.81-59.8-9.39-35.75-29.65-51.76-67.18-74.11 0 0-13.03-7.2-18.48-15.8-5.03-7.92-5.22-13.38-4.15-20.37"/><path fill="#c58f79" d="M205.4 181.4c-.25-1.42-1.51-2.18-2.98-2.81.6-11.5-1.8-18.81-6.91-26.2-4.3-6.19-10.3-12.36-18.7-15.36-7.45-2.67-25.71-1.97-33.05 1-17.55 6.66-24.45 22.96-25.35 40.97-1.5.39-2.83.94-3.27 2.3-.96 2.3-1.45 4.48-.82 7.01.58 2.05 1.9 3.34 4.5 5.08.71 8.38 3.36 16.4 7.7 23.05l.9 1.36c6.8 10.45 15.93 16.54 26.84 16.54h8.6c10.85 0 21.13-6.03 27.94-16.4l2.71-4.13a50 50 0 0 0 7.62-21.47c2.22-1.12 3.46-2.14 4.2-3.85.95-2.41.74-4.65.08-7.08"/><path fill="#1e1a28" d="M217.4 163.44c-2.28-8.86-12.53-13.38-12.53-13.38s6.35-7.73-1.6-13.38c-7.94-5.64-14.48-2.37-14.48-2.37s.18-6.76-9.53-10.4c-9.7-3.66-15.9 1.78-15.9 1.78s-7.41-5.35-17.3-1.79c-9.9 3.57-9.52 10.7-9.52 10.7s-15.4-1.18-21.57 7.15 0 14.87 0 14.87-10.6 3.57-10.6 12.48 10.6 12.78 10.6 12.78l3.07-2.8q1.26-.25 2.52-.57c13.22-3.24 23.82-10.05 29.9-18.17 10.94 10.05 27.03 15.8 43.86 15.14 1.65 3.87 4.54 7.92 9.4 7.92 15.36 0 15.53-12.75 13.68-19.94z"/><path fill="#054449" d="M191.77 296.05a13 13 0 0 0-6.76-1.8 11.8 11.8 0 0 1 23.16 1c-2.37-.2-4.75.23-6.88 1.26a4.81 4.81 0 0 0-9.53-.46m16.52.78a11.6 11.6 0 0 0-12.84 11.85 11.8 11.8 0 0 0 12.84-11.75zm-23.53-1.02a11.8 11.8 0 0 0 9.1 12.62v-.06c0-2.19.54-4.32 1.57-6.23a11.6 11.6 0 0 0-10.67-6.33"/><path fill="#68b096" d="M178.08 433.57 65.1 528.2c-.96.82-2.42.63-3.13-.4L2.52 444c-.64-.9-.5-2.12.32-2.85l100.12-90.28c.86-.79 2.2-.73 2.99.1l20.39 21.1c.54.57 1.34.8 2.08.59l9.28-2.45c.77-.21 1.6.04 2.14.6l22.26 24.07c.6.64.75 1.59.38 2.39l-3.64 7.66c-.35.75-.25 1.63.3 2.28l19.27 23.3c.76.9.62 2.27-.28 3.03z"/><path fill="#c58f79" d="M86.35 460.48c6.96 2.32 24.7 9.58 29.12 17.25s4.51 9.97 3.24 25.03c-.29 3.4-2.65 7.94-13.8 4.65s-22.7-9.46-28.51-18.5c-5.83-9.03-3.89-8.58-3.89-8.58z"/><path fill="#9bcab9" d="M137.8 258.67c-2.13-13.86-9.26-23.22-19.12-22.34-26.41 6.35-58.42 28.85-84.86 65.96-9.65 13.54-30.13 46.44-30.13 66.66.7 51.86 59.33 109.64 66.23 118.09l30.37-25.97c-1.93-1.16-16.66-18.07-27.5-32.32C57.7 400.6 48 381.61 48 368.95c9.39-35.75 29.64-51.76 67.18-74.11 0 0 13.03-7.2 18.47-15.8 5.04-7.92 5.23-13.38 4.15-20.37z"/></svg>