<svg xmlns="http://www.w3.org/2000/svg" width="509" height="801" fill="none" viewBox="0 0 509 801"><path fill="#f9c4aa" d="M342.62 328.94h25.99v25.99h-25.99z"/><path fill="#cde5f2" d="M135.38 2.38a3 3 0 0 0-1-.9c-1.22-.66-8.9-1.63-11.36-1.46-.58.04-1.2.13-1.61.55-.53.54-.47 1.42-.36 2.17 1.28 8.77 3.78 17.28 5.75 25.9.98 4.32 1.83 8.67 2.3 13.07.3 2.7.28 5.36-.44 8A21.8 21.8 0 0 1 121 61.36c-3.7 2.8-8.3 4.03-12.91 4.03-6.68 0-12.6-3.46-16.86-8.43a33 33 0 0 1-3.79-5.44c-.6-1.09-2-5.49-2.4-6.49-.5-1.24-2.11-3.42-3.64-3.42-1.17 0-4.15.93-4.15 7.4 0 6.45 4.84 32.76 31.77 35.51 26.94 2.75 35.12-19.7 36.42-33.42.42-4.45-.08-8.82-.67-13.24a151 151 0 0 0-7.38-30.44c-.57-1.62-.97-3.64-2-5.04"/><path fill="#f9c4aa" d="M170.68 388.98a6.3 6.3 0 0 0 2.78-6.69c-9.2-41.13-10.06-56.35-17.87-73.29-6.32-13.69-18.5-35.3-37.2-63.2a10 10 0 0 1-1.21-8.81c3.65-11.01 12.13-40.35 10.77-73.22-1.24-30.08-10.25-54.39-5.16-72.9 5.16-18.83 3.34-38.23.22-44.5-3.4-6.84-14.15-5.18-24.65-5.12-8.55.04-10.1 33.75-11.08 41.64a4 4 0 0 0 0 .98c.78 5.04 6.6 48.2-16.23 71.25-27 27.26-71.07 38.25-71.05 72.15 0 78.9 38.92 102.61 44.31 219.31a3.1 3.1 0 0 0 2.24 2.85c17.9 5.3 24.15 2.8 51.38 2.03a3.1 3.1 0 0 0 2.72-1.8c2.43-5.27 4.36-9.2 8.77-15.2q.65-.87 1.67-1.15c7.38-1.92 20.32-5.12 28.24-6.37a3 3 0 0 0 2.5-2.45c.99-5.07 3.15-13.53 5.6-19.58a5 5 0 0 1 1.97-2.32c7.42-4.76 16.38-10.45 21.32-13.59v-.03z"/><path fill="#cde5f2" d="M302.84 2.38a3 3 0 0 0-1-.9c-1.22-.66-8.9-1.63-11.36-1.46-.58.04-1.2.13-1.61.55-.53.54-.47 1.42-.36 2.17 1.28 8.77 3.78 17.28 5.75 25.9.98 4.32 1.83 8.67 2.3 13.07.3 2.7.29 5.36-.44 8a21.8 21.8 0 0 1-7.67 11.65c-3.7 2.8-8.3 4.03-12.91 4.03-6.68 0-12.6-3.46-16.86-8.43a33 33 0 0 1-3.79-5.44c-.6-1.09-2-5.49-2.4-6.49-.5-1.24-2.11-3.42-3.65-3.42-1.16 0-4.14.93-4.14 7.4 0 6.45 4.84 32.76 31.77 35.51 26.94 2.75 35.13-19.7 36.42-33.42.42-4.45-.08-8.82-.67-13.24a151 151 0 0 0-7.38-30.44c-.57-1.62-.97-3.64-2-5.04"/><path fill="#f9c4aa" d="M338.14 388.98a6.3 6.3 0 0 0 2.78-6.69c-9.2-41.13-10.06-56.35-17.87-73.29-6.32-13.69-18.5-35.3-37.2-63.2a10 10 0 0 1-1.21-8.81c3.65-11.01 12.13-40.35 10.77-73.22-1.24-30.08-10.25-54.39-5.16-72.9 5.16-18.83 3.34-38.23.22-44.5-3.4-6.84-14.15-5.18-24.65-5.12-8.55.04-10.1 33.75-11.08 41.64q-.04.49 0 .98c.78 5.04 6.6 48.2-16.23 71.25-27 27.26-71.07 38.25-71.05 72.15 0 78.9 38.92 102.61 44.31 219.31a3.1 3.1 0 0 0 2.24 2.85c17.9 5.3 24.15 2.8 51.38 2.03a3.1 3.1 0 0 0 2.72-1.8c2.43-5.27 4.36-9.2 8.77-15.2q.65-.87 1.67-1.15c7.38-1.92 20.32-5.12 28.24-6.37a3 3 0 0 0 2.5-2.45c.99-5.07 3.15-13.53 5.6-19.58a5 5 0 0 1 1.97-2.32c7.42-4.76 16.38-10.45 21.32-13.59v-.03z"/><path fill="#cde5f2" d="M470.3 2.38a3 3 0 0 0-1-.9c-1.22-.66-8.9-1.63-11.37-1.46-.57.04-1.2.13-1.6.55-.53.54-.47 1.42-.36 2.17 1.27 8.77 3.78 17.28 5.74 25.9.99 4.32 1.84 8.67 2.3 13.07.3 2.7.3 5.36-.43 8a21.8 21.8 0 0 1-7.67 11.65c-3.71 2.8-8.3 4.03-12.92 4.03-6.67 0-12.59-3.46-16.85-8.43a33 33 0 0 1-3.79-5.44c-.6-1.09-2-5.49-2.4-6.49-.5-1.24-2.12-3.42-3.65-3.42-1.17 0-4.15.93-4.15 7.4 0 6.45 4.84 32.76 31.78 35.51s35.12-19.7 36.42-33.42c.42-4.45-.08-8.82-.67-13.24a151 151 0 0 0-7.38-30.44c-.57-1.62-.98-3.64-2-5.04"/><path fill="#f9c4aa" d="M505.6 388.98a6.3 6.3 0 0 0 2.78-6.69c-9.2-41.13-10.06-56.35-17.87-73.29-6.32-13.69-18.51-35.3-37.2-63.2a10 10 0 0 1-1.21-8.81c3.65-11.01 12.13-40.35 10.76-73.22-1.23-30.08-10.24-54.39-5.15-72.9 5.16-18.83 3.34-38.23.22-44.5-3.4-6.84-14.15-5.18-24.65-5.12-8.55.04-10.1 33.75-11.08 41.64q-.04.49 0 .98c.78 5.04 6.6 48.2-16.23 71.25-27 27.26-71.07 38.25-71.05 72.15 0 78.9 38.92 102.61 44.31 219.31a3.1 3.1 0 0 0 2.24 2.85c17.9 5.3 24.15 2.8 51.37 2.03a3.1 3.1 0 0 0 2.73-1.8c2.43-5.27 4.36-9.2 8.77-15.2q.65-.87 1.67-1.15c7.38-1.92 20.32-5.12 28.24-6.37a3 3 0 0 0 2.5-2.45c.99-5.07 3.15-13.53 5.6-19.58a5 5 0 0 1 1.96-2.32c7.43-4.76 16.38-10.45 21.32-13.59v-.03z"/><path fill="#c58f79" d="M411.3 545.1c-2.28 4.63-7.47 17.07-6.01 23.04s2.5 7.13 10.21 13.83c1.74 1.51 5.03 2.53 8.9-4.66 3.86-7.2 6.54-16 5.12-23.34-1.44-7.34-2.16-6.14-2.16-6.14z"/><path fill="#fff" d="M353.05 364.4c.14-4.29 2.98-16.39 14.4-12.87 11.75 3.63 24.43 8.23 36.55 25.67 11.67 16.77 21.65 39.25 24.57 82.17 3.24 47.75 4.36 91.58 4.42 92.3l-28.16-.61c-.06-.71-.11-35.51-5.53-98.31-1.52-17.67-6.6-36.88-12.91-46.08-4.1-5.98-9.74-13.36-13.5-16.72 0 0-6.53-4.54-11.45-8.09-8.02-5.78-8.57-11.9-8.39-17.44z"/><path fill="#1e1a28" d="M285.14 785.44s-3.58 9.59-4 11.72c-.4 1.84-1.3 2.5 5.3 2.56 0 0 39.08.61 41.74 0 1.76-.41 3.96-2.85 2.77-13.73zM364.03 786.06s-.63 9.22.73 11.23c1.37 2 2.18 3.3 14.18 2.64 0 0 33.85.61 34.93-.26s-5.1-14.26-5.1-14.26z"/><path fill="#054449" d="M281.3 493.4c-.26 18.12-2.67 112.65-2.93 122.86-.41 10.21-.68 97.11-.68 106.75s-.28 62.57.94 64.3 51.71 3.02 54.28 1.15 0-87.32.4-97.54c.27-10.22 1.9-60.71.27-101.86s1.33-48.76 2.29-48.76c.95 0 1.78-2.02 5.57 36.82s11.5 109.49 13.12 126.6c1.63 17.27 6.1 84.17 7.86 84.89s49.55-.14 51.17-.72c1.62-.57-2.58-56.4-3.11-62.59-.54-6.19-11.37-143.43-11.91-150.77s-5.42-84.02-5.42-84.02-57.12.14-62 .57c-5 .29-49.85 2.3-49.85 2.3h.01z"/><path fill="#c58f79" d="M184.41 364.93c-2.08-5.38-8.44-19.02-14.6-22-6.17-2.97-5.72.74-4.72 3.16 1.04 2.52 4.24 9.76-3.8 3.4-3.53-2.77-7.94-5.16-12.08-6.04-2.58-.56-5.2 1.39-2.21 10.05s8.27 17.42 15.56 21.42 6.87 2.48 6.87 2.48z"/><path fill="#fff" d="M282.3 412.75c27.51-14.7 46.4-26.96 49.53-41.05 1.32-5.95-.99-14.72-8.98-18.97-6.83-3.63-12.56-2.73-17.54-.65-4.65 1.95-6.52 3.67-9.14 5.53-17.64 12.57-28.55 26.12-57.61 36.9-8.13 3-24.69-9.48-37.34-20.11-6.37-5.35-14.13-12.4-15.42-14.3l-20.75 19.13c5.13 5.42 32.93 40.46 67.67 48.01 13.53 2.94 39.56-9.13 49.6-14.49z"/><path fill="#9bcab9" d="M392.82 469.9c.07 14.24 1.13 27.98 1.42 34.02 0 0-57.76 5.76-81.5 2.9 0 0-30.36-1.36-31.94-1.36 0 0 .38-25 .36-39.22.2-21.7.64-40.15 1.21-55.68.58-15.54-1.4-45.8 18.64-56.16 12.55-6.48 16.17-6.07 33.6-6.93 14.28-.58 34.51 1.6 42.73 9.23 10.52 9.63 11.78 30.38 13.24 50.3.96 22.44 1.68 44.2 2.25 62.9"/><path fill="#fff" d="m391 406.67-1.67-44.44c-15.63-11.76-33.7-13.78-37.29-14.07a.6.6 0 0 0-.63.59c.32 15.33 6.26 303.62 9.44 315.39.13.43.5.71.97.71h48.9c.57 0 1.03-.49.97-1.09L391 408.39zM324.41 507.15q.04-5.41.12-10.7c1-20.21-3.06-134.45-3.97-148.03a.6.6 0 0 0-.63-.54c-8.9.89-18.73 4.26-25.27 10.49-5.58 5.3-8.53 12.7-10.15 20.08-1.62 7.39-2.02 15.15-2.18 22.77 0 .32-22.3 261.95-22.3 261.95a1 1 0 0 0 .98 1.09h61.65c.46 0 .86-.3.96-.74 2.7-10.77.21-88.69.8-156.37z"/><path fill="#054449" d="M367.74 381.74a9 9 0 0 0-4.67-1.25 8.17 8.17 0 0 1 16.04.7 9 9 0 0 0-4.76.87 3.34 3.34 0 0 0-6.6-.32m11.45.54a8.04 8.04 0 0 0-8.9 8.2 8.2 8.2 0 0 0 8.9-8.13zm-16.3-.7a8.2 8.2 0 0 0 6.31 8.74v-.05c0-1.51.37-3 1.08-4.32a8.1 8.1 0 0 0-7.39-4.38"/><path fill="#c58f79" d="M368.22 312.78c-.18-.98-1.04-1.5-2.05-1.93.41-7.86-1.22-12.86-4.72-17.9-2.94-4.24-7.04-8.46-12.78-10.5-5.1-1.83-17.58-1.35-22.6.67-11.99 4.56-16.71 15.7-17.32 28.01-1.03.27-1.94.64-2.23 1.57a7.3 7.3 0 0 0-.57 4.8c.4 1.4 1.3 2.27 3.08 3.47.49 5.72 2.3 11.2 5.26 15.75l.61.93c4.66 7.15 10.9 11.3 18.35 11.3h5.88c7.42 0 14.44-4.11 19.1-11.2l1.86-2.83a34 34 0 0 0 5.2-14.67c1.52-.76 2.36-1.47 2.87-2.64.65-1.64.51-3.17.06-4.83"/><path fill="#1e1a28" d="M366.09 310.86v.03c.74.33 1.4.7 1.78 1.27 1-3.7.89-10.07.89-10.07l-.49-4.77c-5.32-9.41-15.6-16.94-27.17-17.5-6.35-.3-13.05-.18-19.08 3.39-8.73 4.38-15.6 15.99-13.91 26.26q.14.86.35 1.7c1.02-.04 2.17.22 3.09-.37 4.2-2.68 9.84-8.5 13.07-15.17 9.68 14.72 29.24 20 41.47 15.24z"/><path fill="#fff" d="M367.46 307.22s-1.14-2.1-5.36-5.9c-3.22-2.9-14.83-9.43-29.6-7.7-14.76 1.73-22.48 13.28-24.74 14.02-.78.26-.23-11.58-.23-11.58s2.1-10.22 10.37-16.4c8.8-6.55 16.87-9.47 29.58-5.97 21 5.8 22.36 22.1 21.14 34.1l-1.16-.6z"/></svg>