<svg xmlns="http://www.w3.org/2000/svg" width="127" height="248" viewBox="0 0 127 248">
  <path fill="#f9c4aa" d="m10.62 131.37c1.04 2.1 3.4 7.74 2.73 10.45-.67 2.7-1.14 3.23-4.64 6.27-.78.69-2.27 1.15-4.03-2.11-1.75-3.27-2.97-7.26-2.32-10.6.65-3.32.98-2.78.98-2.78z"/>
  <path fill="#054449" d="m37.04 49.4c-.06-1.94-1.35-7.43-6.53-5.83-5.33 1.64-11.08 3.73-16.58 11.64-5.29 7.6-9.82 17.8-11.14 37.27-1.47 21.66-1.98 41.54-2 41.86l12.77-.27c.02-.32.04-16.1 2.5-44.6.7-8 3-16.72 5.86-20.9 1.86-2.7 4.42-6.05 6.13-7.57 0 0 2.96-2.06 5.19-3.67 3.63-2.63 3.88-5.4 3.8-7.92z"/>
  <path fill="#f9c4aa" d="m106.9 96.7c2.51-.76 9.17-2.3 11.96-.94 2.79 1.37 1.33 2.25.2 2.57-1.2.33-4.68 1.22-.16 2.32 1.98.47 4.06 1.38 5.54 2.62.92.76.97 2.25-2.97 3.6-3.94 1.36-8.54 1.93-12.01.44-3.47-1.48-2.81-1.76-2.81-1.76l.26-8.85z"/>
  <path fill="#054449" d="m82.28 80.43c-5.15-8.38-5.9-10.18-8.78-17.2-1.8-4.38-4.74-9.37-7.53-12.05-4.11-3.95-6.01-5.82-10.76-6.86-2.7-.6-6.52 1.4-7.32 5.57-.8 4.16 3.22 8.37 4.45 9.44 1.24 1.07 3.82 2.8 8.5 10.3 3.65 5.84 3.3 6.44 8.86 18.66 2.72 5.54 5.01 7.9 9.74 10.51 5.06 2.8 12.4 5.68 27.9 9.26a799.1 799.1 0 0 0 1.06-12.93c-18.27-5.35-23.91-11.1-26.12-14.7z"/>
  <path fill="#1e1a28" d="m18.7 241.33s-1.63 4.35-1.82 5.32c-.18.84-.59 1.13 2.4 1.16 0 0 17.75.28 18.96 0 .8-.18 1.8-1.29 1.25-6.23l-20.8-.25zm35.81.27s-.28 4.2.33 5.1c.62.92 1 1.5 6.44 1.2 0 0 15.37.28 15.86-.11.48-.4-2.32-6.47-2.32-6.47l-20.31.29z"/>
  <path fill="#153f7b" d="m16.72 108.74c-.12 8.23-.98 51.15-1.1 55.78-.19 4.64-.3 44.09-.3 48.47 0 4.37-.13 28.4.42 29.19.55.78 23.48 1.37 24.64.52 1.17-.85 0-39.64.19-44.28.12-4.64.86-27.57.12-46.25s.6-22.13 1.03-22.13c.44 0 .81-.92 2.53 16.71 1.72 17.64 5.23 49.71 5.96 57.48.74 7.84 2.77 38.21 3.57 38.54.8.32 22.5-.07 23.23-.33.74-.26-1.17-25.6-1.41-28.41-.25-2.81-5.17-65.12-5.41-68.46-.25-3.32-2.46-38.14-2.46-38.14s-25.93.06-28.14.26c-2.28.13-22.87 1.05-22.87 1.05z"/>
  <path fill="#cde5f2" d="m15.3 170.65 1.37-57.03 51.43-1.04 4.12 57.16z"/>
  <path fill="#054449" d="m67.45 98c.03 6.46.51 12.7.64 15.44 0 0-26.22 2.62-37 1.32 0 0-13.78-.62-14.5-.62 0 0 .17-11.35.16-17.8.1-9.86.3-18.23.55-25.28.27-7.06-.63-20.8 8.47-25.5 5.7-2.94 7.33-2.75 15.25-3.14 6.48-.27 15.67.72 19.4 4.19 4.78 4.37 5.34 13.79 6 22.83.45 10.19.77 20.07 1.03 28.56z"/>
  <path fill="#cde5f2" d="m16.6 115.68.22-25.43s4.96-.82 6.53-1.15c1.56-.32 1.82-43.68 1.82-43.68s2.3-.98 3.55-1.42c.33-.11 1.95 25.21 2.15 27.42 0 0 19.95-.45 20.86-.58 0 0 .47-21.58.6-22.95l.43-4.6s3.1.5 3.87.96c.78.46 1.16 32.72 1.8 43.58 0 0-.37.16 2.08.3 1.64.03 6.83.4 6.83.4l.8 26.23-51.55.92z"/>
  <path fill="#cde5f2" d="m24.9 67.1c.25-10.88.32-21.7.32-21.7s2.29-.98 3.54-1.42c.33-.1 1.96 25.21 2.15 27.42.2 2.21-6.27 6.37-6.02-4.3z"/>
  <path fill="#f9c4aa" d="m56.54 27.1c-.08-.44-.47-.67-.93-.87.2-3.57-.55-5.83-2.14-8.12-1.33-1.92-3.19-3.84-5.8-4.77-2.3-.82-7.97-.6-10.25.31-5.44 2.07-7.58 7.12-7.86 12.71-.47.12-.88.3-1.01.71a3.3 3.3 0 0 0 -.26 2.18c.18.63.59 1.03 1.4 1.57.22 2.6 1.04 5.09 2.38 7.15l.28.42c2.12 3.24 4.94 5.13 8.33 5.13h2.66c3.37 0 6.56-1.87 8.67-5.09l.84-1.28a15.4 15.4 0 0 0 2.36-6.65c.7-.35 1.08-.67 1.3-1.2.3-.75.24-1.44.03-2.2z"/>
  <path fill="#1e1a28" d="m60.26 21.54c-.7-2.75-3.89-4.15-3.89-4.15s1.97-2.4-.5-4.15c-2.45-1.76-4.48-.74-4.48-.74s.05-2.1-2.96-3.23c-3-1.13-4.93.56-4.93.56s-2.3-1.66-5.37-.56c-3.07 1.11-2.95 3.32-2.95 3.32s-4.77-.37-6.69 2.22a3.54 3.54 0 0 0 0 4.6s-3.28 1.12-3.28 3.88 3.28 3.96 3.28 3.96l.95-.86.79-.18c4.1-1 7.38-3.12 9.27-5.64 3.4 3.12 8.38 4.9 13.6 4.7.51 1.2 1.41 2.45 2.92 2.45 4.76 0 4.81-3.95 4.24-6.18z"/>
</svg>