<svg xmlns="http://www.w3.org/2000/svg" width="768" height="800" fill="none" viewBox="0 0 768 800"><path fill="#c58f79" d="M152.33 585.46c3.6-1.08 13.16-3.28 17.16-1.33s1.92 3.18.28 3.64c-1.7.47-6.71 1.72-.22 3.28 2.84.68 5.84 1.97 7.96 3.71 1.32 1.1 1.39 3.2-4.26 5.12-5.66 1.92-12.27 2.73-17.25.62s-4.04-2.5-4.04-2.5z"/><path fill="#68b096" d="M116.97 562.38c-7.4-11.89-8.49-14.44-12.61-24.39-2.59-6.21-6.81-13.3-10.81-17.09-5.91-5.6-8.64-8.25-15.45-9.73-3.88-.85-9.37 2-10.51 7.9s4.61 11.86 6.38 13.38 5.48 3.97 12.21 14.6c5.24 8.29 4.73 9.15 12.72 26.48 3.9 7.84 7.2 11.19 14 14.9 7.25 3.96 17.8 8.05 40.07 13.13.35-3.14 1.51-18.34 1.51-18.34-26.24-7.59-34.34-15.73-37.51-20.84"/><path fill="#c58f79" d="M14.14 634.66c1.48 2.98 4.86 10.99 3.91 14.83s-1.63 4.59-6.66 8.9c-1.13.97-3.27 1.63-5.79-3-2.51-4.64-4.26-10.3-3.34-15.02.94-4.72 1.41-3.95 1.41-3.95l10.46-1.76"/><path fill="#68b096" d="M52.09 518.4c-.1-2.76-1.94-10.55-9.38-8.28-7.66 2.33-15.92 5.3-23.82 16.51-7.6 10.8-14.1 25.26-16 52.88C.76 610.23.03 638.42 0 638.89l18.35-.4c.04-.45.07-22.84 3.6-63.25 1-11.37 4.3-23.72 8.42-29.65 2.67-3.84 6.34-8.59 8.8-10.75 0 0 4.25-2.92 7.45-5.2 5.23-3.73 5.59-7.66 5.47-11.23"/><path fill="#1e1a28" d="M25.65 790.54s-2.34 6.17-2.6 7.55c-.27 1.18-.85 1.6 3.44 1.64 0 0 25.49.4 27.22 0 1.15-.26 2.58-1.83 1.8-8.83zM77.09 790.94s-.41 5.93.47 7.23c.9 1.29 1.42 2.12 9.25 1.7 0 0 22.07.4 22.77-.17.7-.56-3.32-9.18-3.32-9.18z"/><path fill="#054449" d="M23.15 602.52c-.18 11.67-1.74 72.53-1.92 79.1-.26 6.58-.44 62.52-.44 68.73 0 6.2-.18 40.28.62 41.4.8 1.1 33.71 1.94 35.38.73 1.68-1.2 0-56.21.27-62.8.18-6.57 1.23-39.08.18-65.57-1.06-26.49.86-31.39 1.48-31.39s1.16-1.3 3.63 23.7c2.47 25.01 7.5 70.5 8.56 81.51 1.06 11.12 3.97 54.19 5.13 54.65 1.14.47 32.3-.09 33.35-.46s-1.67-36.31-2.02-40.3-7.42-92.34-7.77-97.07-3.53-54.09-3.53-54.09-37.24.1-40.42.37c-3.26.19-32.5 1.49-32.5 1.49"/><path fill="#68b096" d="M95.73 587.29c.05 9.17.74 18.01.92 21.9 0 0-37.65 3.7-53.13 1.87 0 0-19.8-.88-20.82-.88 0 0 .25-16.1.23-25.25.13-13.97.42-25.84.8-35.84.37-10-.92-29.5 12.14-36.16 8.18-4.17 10.54-3.9 21.91-4.46 9.3-.37 22.5 1.03 27.86 5.94 6.86 6.2 7.67 19.56 8.63 32.38.63 14.45 1.1 28.46 1.47 40.5"/><path fill="#054449" d="M73.67 536.61a6 6 0 0 0-3.01-.8 5.25 5.25 0 0 1 5.12-4 5.24 5.24 0 0 1 5.2 4.45c-1.05-.1-2.11.1-3.06.56a2.14 2.14 0 0 0-2.14-1.94c-.89 0-1.87.57-2.11 1.73m7.37.35a5.15 5.15 0 0 0-5.73 5.22 5.24 5.24 0 0 0 5.73-5.18zm-10.5-.45a5.2 5.2 0 0 0 4.07 5.56v-.03q0-1.46.7-2.75a5.2 5.2 0 0 0-4.77-2.78"/><path fill="#c58f79" d="M79.84 486.76c-.12-.63-.68-.97-1.33-1.24.27-5.06-.8-8.28-3.08-11.52-1.91-2.73-4.58-5.44-8.33-6.76-3.32-1.18-11.45-.87-14.72.44-7.81 2.93-10.89 10.1-11.29 18.02-.67.17-1.26.41-1.45 1a4.6 4.6 0 0 0-.37 3.1c.26.9.84 1.46 2 2.23.32 3.68 1.5 7.2 3.43 10.13l.4.6c3.04 4.6 7.1 7.28 11.96 7.28h3.83c4.83 0 9.41-2.66 12.45-7.22l1.2-1.81a22 22 0 0 0 3.4-9.44c.99-.5 1.54-.95 1.87-1.7.42-1.06.33-2.04.03-3.11"/><path fill="#1e1a28" d="M69.44 468.24c-1.99-1.04-4.04-1.95-6.27-2.35a6 6 0 0 0 2.23-1.82l.47-.62c.73-.95 1.2-2.1 1.34-3.31l.14-1.18a6.8 6.8 0 0 0-1.12-4.62l-.35-.51a4.5 4.5 0 0 0-3.1-2 9.6 9.6 0 0 0-5.58.36 6.5 6.5 0 0 0-4.3 5.84l-.08 1.32c-.1 1.63.4 3.23 1.36 4.5l.16.2a7 7 0 0 0 1.95 1.75c-4.76.8-9.5 3.57-12.01 7.2-3.97 6.52-3.3 7.51-3.79 11.37-.06.5.03.98.07 1.47q1.44.24 2.94.24c7.45 0 13.88-4.45 16.82-10.88 2.83 6.77 9.4 11.67 16.77 10.59.46-.07.95-.22 1.4-.28.12-.92.1-1.7.1-2.66.06-5.3-3.36-11.6-9.15-14.61"/><path fill="#153f7b" d="M166.83 584.77c-16.07 26.42-15.72 55.88-15.62 60.49l-3.89 4.67c-4 4.83-5.27 8.49-5.36 9.1.32.34 2.73 2.17 5.28 4.35 2.9 2.5 5.78 5.15 5.78 5.15l1.27-1.2c1.43 8.12 2.65 16.85 4.5 24.58 2.29 9.61 3.72 16.8 6.14 25-1.6 3.27-2.69 5.8-4.44 9.2-2.85 4.8-8.48 14.62-8 15.14.73.47 5.69-.61 17.89-1.12 5.55-.03 20.25 1.4 20.45.67.32-.87-9.53-15.22-15.64-22.97 1.33-4.22 2.84-9.62 3.9-15.04.45.96.8 1.77.97 1.95.35-.07 2.03-1.3 4.27-2.3 2.4-1.08 4.97-2.1 5.16-2.31-1.1-3.2-5.28-10.42-7.13-12.61 2.5-10.7 3.96-19.72 4.78-30.77 3.23-43.36-7.77-63.27-16.5-71.96l-.03-.02-.28-.27c-1.88-1.75-3.04-.44-3.5.27"/><path fill="#da573b" d="M236.6 399.6h457.44v399.6H236.6z"/><rect width="21.03" height="336.51" x="271.25" y="431.15" fill="#e58976" rx="10.11"/><rect width="21.03" height="336.51" x="344.87" y="431.15" fill="#e58976" rx="10.11"/><rect width="21.03" height="336.51" x="418.48" y="431.15" fill="#e58976" rx="10.11"/><rect width="21.03" height="336.51" x="492.09" y="431.15" fill="#e58976" rx="10.11"/><rect width="21.03" height="336.51" x="565.7" y="431.15" fill="#e58976" rx="10.11"/><rect width="21.03" height="336.51" x="639.31" y="431.15" fill="#e58976" rx="10.11"/><path fill="#f9cc76" d="M310.22 0h457.44v399.6H310.22z"/><rect width="21.03" height="336.51" x="344.87" y="31.55" fill="#fbdb9f" rx="10.11"/><rect width="21.03" height="336.51" x="418.48" y="31.55" fill="#fbdb9f" rx="10.11"/><rect width="21.03" height="336.51" x="492.09" y="31.55" fill="#fbdb9f" rx="10.11"/><rect width="21.03" height="336.51" x="565.7" y="31.55" fill="#fbdb9f" rx="10.11"/><rect width="21.03" height="336.51" x="639.31" y="31.55" fill="#fbdb9f" rx="10.11"/><rect width="21.03" height="336.51" x="712.92" y="31.55" fill="#fbdb9f" rx="10.11"/></svg>