<svg xmlns="http://www.w3.org/2000/svg" width="418" height="800" fill="none" viewBox="0 0 418 800"><path fill="#f9c4aa" d="M359 311.96c8.1-2.46 29.6-7.45 38.63-3.03 9.02 4.42 4.31 7.25.63 8.28-3.85 1.07-15.12 3.92-.5 7.46 6.4 1.55 13.14 4.48 17.91 8.45 2.98 2.48 3.12 7.27-9.6 11.64-12.72 4.36-27.61 6.2-38.83 1.4-11.22-4.78-9.08-5.67-9.08-5.67z"/><path fill="#cde5f2" d="M279.39 259.47c-16.65-27.05-19.09-32.85-28.38-55.48-5.81-14.13-15.32-30.26-24.32-38.88-13.31-12.75-19.46-18.77-34.8-22.14-8.72-1.92-21.08 4.54-23.65 17.97s10.4 26.99 14.38 30.44 12.34 9.04 27.48 33.23c11.79 18.84 10.65 20.8 28.62 60.21 8.8 17.85 16.21 25.46 31.5 33.9 16.35 9.02 40.09 18.31 90.2 29.87.8-7.14 3.42-41.72 3.42-41.72-59.06-17.25-77.3-35.79-84.45-47.4"/><path fill="#1e1a28" d="M73.85 778.48S68.6 792.52 68 795.64c-.6 2.7-1.91 3.66 7.75 3.75 0 0 57.36.9 61.27 0 2.58-.6 5.81-4.17 4.06-20.1zM189.64 779.37s-.93 13.5 1.06 16.45 3.2 4.84 20.82 3.87c0 0 49.67.9 51.25-.38s-7.48-20.88-7.48-20.88l-65.66.94"/><path fill="#153f7b" d="M68.23 350.77c-.4 26.55-3.92 164.99-4.31 179.94-.6 14.96-1 142.22-1 156.33s-.4 91.64 1.38 94.17c1.8 2.53 75.89 4.42 79.66 1.69 3.77-2.74 0-127.89.6-142.85.39-14.96 2.77-88.91.39-149.17s1.95-71.41 3.35-71.41 2.61-2.96 8.17 53.93 16.88 160.34 19.27 185.4c2.38 25.29 8.93 123.27 11.53 124.32 2.58 1.05 72.7-.21 75.08-1.05 2.39-.84-3.77-82.6-4.56-91.66s-16.69-210.07-17.48-220.82c-.8-10.74-7.94-123.04-7.94-123.04s-83.84.2-90.98.84c-7.35.41-73.16 3.37-73.16 3.37h.01z"/><path fill="#cde5f2" d="M231.6 316.12c.1 20.86 1.66 40.97 2.07 49.82 0 0-84.76 8.44-119.6 4.25 0 0-44.55-2-46.86-2 0 0 .55-36.61.52-57.43.3-31.78.94-58.8 1.78-81.54s-2.06-67.08 27.35-82.25c18.42-9.49 23.72-8.88 49.32-10.15 20.94-.84 50.64 2.35 62.7 13.52 15.44 14.1 17.28 44.5 19.42 73.65 1.42 32.88 2.48 64.75 3.3 92.13"/><path fill="#153f7b" d="M168.22 321.85c3.2-13.28 4.68-27.1 5.84-41.1a92 92 0 0 0-2.12-28.05 893 893 0 0 0-8.6-43.62c-3-13.53-5.05-25.34-8.5-35.26 2.37-4.33 4.37-8.8 6.73-13.09 3.92-6.72 7.33-13.4 11.45-21.01-9.85.88-18.5 1.64-27.14 2.56-8.44.8-16.33-2.16-24.97-2.32 1.96 4.32 13.77 21.49 21.97 32.46-3 9.56-5.32 18.57-8.72 35.7-4.45 17.72-7.57 33.77-9.09 51.62-1.92 22.45-.88 43.98 4.6 64.35 4.33 18.61 9 27.78 20.9 38.5 7.44-10.44 14.08-25.89 17.65-40.74"/><path fill="#f9c4aa" d="M195.83 87.45c-.26-1.43-1.52-2.2-3-2.83.6-11.5-1.8-18.82-6.92-26.2-4.31-6.2-10.32-12.37-18.75-15.37-7.47-2.67-25.77-1.97-33.13.99-17.6 6.67-24.52 22.98-25.42 41-1.5.39-2.83.94-3.27 2.3-.97 2.3-1.45 4.48-.83 7.01.59 2.05 1.9 3.34 4.52 5.08a50 50 0 0 0 7.71 23.06l.9 1.36c6.83 10.46 15.97 16.55 26.91 16.55h8.62c10.88 0 21.19-6.03 28.02-16.41l2.72-4.13a50 50 0 0 0 7.63-21.47c2.23-1.13 3.47-2.15 4.22-3.86.94-2.41.74-4.65.08-7.08"/><path fill="#1e1a28" d="M173.03 43.96c-5.82-3.13-11.87-5.77-18.74-5.97q-2.42-.3-4.9-.3c-12.71 0-26.75 7.29-33.54 17.4-9.02 15.28-7.5 17.6-8.6 26.61-.15 1.16.05 2.32.14 3.46q3.27.55 6.69.56c16.93 0 31.53-10.43 38.23-25.48 6.42 15.85 21.37 27.32 38.1 24.8 1.05-.17 2.1-.14 3.14-.26.25-2.17.25-4.38.27-6.63.13-12.4-7.64-27.12-20.79-34.19"/><path fill="#f4ece6" d="m175.3 281.14-98.5-12.4a5.9 5.9 0 0 0-6.55 4.92l-21.82 138.9a5.9 5.9 0 0 0 4.73 6.7l97.53 18.36c3.24.6 6.4-1.6 6.92-4.88l22.74-144.84a5.83 5.83 0 0 0-5.09-6.72z"/><path fill="#f9c4aa" d="M80.38 357.78c6.76 2.25 24 9.32 28.3 16.77s4.4 9.7 3.16 24.35c-.28 3.3-2.58 7.72-13.43 4.52-10.83-3.2-22.05-9.2-27.71-17.99s-3.78-8.35-3.78-8.35z"/><path fill="#cde5f2" d="M130.4 161.5c-2.07-13.48-9-22.58-18.59-21.73-25.68 6.18-56.8 28.06-82.52 64.16C19.91 217.1 0 249.09 0 268.76.67 319.2 57.7 375.4 64.4 383.62l29.53-25.25c-1.87-1.13-16.2-17.57-26.73-31.43-14.69-27.39-24.13-45.86-24.13-58.17C52.2 234 71.9 218.43 108.4 196.69c0 0 12.66-7 17.96-15.36 4.9-7.7 5.08-13.02 4.04-19.82"/></svg>