<svg xmlns="http://www.w3.org/2000/svg" width="653" height="859" fill="none" viewBox="0 0 653 859"><path fill="#1e1a28" d="M392.76 773.6s5.2 13.94 5.8 17.03c.6 2.68 1.9 3.63-7.67 3.72 0 0-56.78.9-60.65 0-2.56-.6-5.75-4.13-4.03-19.93zM278.16 774.5s.91 13.4-1.06 16.32-3.16 4.8-20.6 3.84c0 0-49.17.88-50.73-.38-1.56-1.27 7.4-20.71 7.4-20.71z"/><path fill="#0c4fa1" d="M398.33 349.39c.4 26.33 3.88 163.64 4.27 178.47.6 14.84.99 141.06.99 155.06s.4 90.9-1.37 93.4c-1.78 2.5-75.12 4.39-78.85 1.67-3.74-2.7 0-126.84-.6-141.68-.38-14.84-2.74-88.19-.38-147.96s-1.93-70.83-3.31-70.83-2.6-2.93-8.1 53.5-16.7 159.03-19.07 183.9c-2.36 25.07-8.84 122.25-11.4 123.3s-71.98-.21-74.33-1.05c-2.36-.83 3.74-81.93 4.51-90.91.79-9 16.52-208.36 17.3-219.02.8-10.65 7.87-122.05 7.87-122.05s82.98.21 90.05.84c7.28.41 72.42 3.34 72.42 3.34h-.01z"/><path fill="#054449" d="M396.95 315.02c.1 20.69 1.64 40.64 2.05 49.41 0 0-83.9 8.37-118.38 4.21 0 0-44.1-1.97-46.4-1.97 0 0 .56-36.32.52-56.97.3-31.52.93-58.31 1.77-80.88.83-22.56-2.04-66.53 27.07-81.58 18.23-9.4 23.48-8.8 48.82-10.06 20.73-.83 50.12 2.33 62.06 13.4 15.28 14 17.1 44.14 19.23 73.06 1.4 32.6 2.44 64.22 3.27 91.38z"/><path fill="#f9c4aa" d="M109.86 309.99c-8.04-2.45-29.37-7.41-38.32-3.02s-4.28 7.2-.62 8.23c3.82 1.06 15 3.9.49 7.42-6.34 1.53-13.03 4.45-17.76 8.4-2.96 2.46-3.1 7.21 9.52 11.55s27.38 6.17 38.5 1.4c11.13-4.75 9.02-5.63 9.02-5.63z"/><path fill="#054449" d="M188.8 257.83c16.51-26.88 18.93-32.65 28.15-55.13 5.76-14.05 15.19-30.07 24.12-38.64 13.2-12.66 19.29-18.65 34.5-22 8.65-1.9 20.9 4.51 23.45 17.86s-10.3 26.82-14.25 30.25-12.24 8.98-27.25 33.02c-11.7 18.72-10.56 20.66-28.38 59.83-8.73 17.74-16.09 25.3-31.25 33.68-16.21 8.97-39.75 18.2-89.45 29.69-.8-7.1-3.39-41.46-3.39-41.46 58.57-17.14 76.67-35.56 83.75-47.1"/><path fill="#68b096" d="M243.84 244.43a54.5 54.5 0 0 0-31.61-7.99q-17.26.8-35.6 12.26-26.34 16.45-34.01 37.9-7.68 21.43 6.78 44.58 8.97 14.36 23.94 20.56 15.75 5.69 41.39 4.1 26.42-2.1 73.7-11.66 69.6-14.63 113.98-5.75 45.2 8.4 71.62 50.7 16.95 27.13 18.16 57.45 1.2 30.33-15.95 63.24a180 180 0 0 1-15.33 24.9q25.37-.42 46.05 4.74 38.9 9 61.34 44.9 27.43 43.9 11.58 94.87-16.36 50.17-74.6 86.56c-38.83 24.26-73.37 32.89-108.4 28.9q-53.06-6.8-86.08-56.1l70.21-43.87q18.05 25.34 41.9 31.53 23.83 6.19 51.75-11.26 26.33-16.45 33.2-37.4 7.69-21.45-6.78-44.58-9.47-15.17-24.73-20.05-14.46-5.4-40.89-3.3-25.62 1.58-73.4 10.34-45.17 9.36-79.38 9.65-34.7-.5-60.94-14.08t-43.69-41.51q-17.45-27.94-18.65-58.26-1.71-31.12 15.15-62.74a155 155 0 0 1 16.27-24.4q-26.1.58-47.3-3.95-38.1-9.47-60.53-45.4-27.44-43.9-11.09-94.06 15.85-50.98 74.1-87.36c38.82-24.27 74.06-32.96 108.9-28.1q52.57 6 84.76 55.78l-70.2 43.87q-11.28-16.26-25.64-25.04zm6.02 284.78q17.45 27.94 49.66 33.33 32.51 4.1 66.82-17.33t42.77-52.26-8.48-57.95c-11.3-18.09-28.3-29.3-49.96-32.03q-32.22-5.4-65.72 15.54c-22.34 13.95-37.4 31.87-43.57 52.75q-8.48 30.83 8.48 57.95"/><path fill="#f9c4aa" d="M383.67 363.63c-6.91 2.3-24.55 9.51-28.94 17.14-4.4 7.61-4.5 9.91-3.23 24.89.29 3.38 2.64 7.89 13.73 4.62s22.55-9.4 28.34-18.39c5.8-8.98 3.86-8.53 3.86-8.53z"/><path fill="#054449" d="M332.52 162.98c2.12-13.78 9.2-23.08 19.01-22.2 26.26 6.3 58.09 28.67 84.37 65.57 9.6 13.47 29.96 46.17 29.96 66.28-.7 51.55-59 109-65.85 117.4l-30.2-25.82c1.92-1.15 16.57-17.96 27.34-32.13 15.02-27.99 24.67-46.87 24.67-59.45-9.34-35.54-29.48-51.46-66.8-73.68 0 0-12.95-7.16-18.37-15.7-5-7.88-5.2-13.31-4.12-20.27z"/><path fill="#f9c4aa" d="M362.15 86.73c-.26-1.42-1.51-2.18-2.97-2.8.6-11.41-1.78-18.67-6.86-26-4.26-6.14-10.21-12.26-18.55-15.24-7.4-2.65-25.52-1.95-32.8.98-17.41 6.62-24.27 22.8-25.16 40.67-1.49.38-2.8.93-3.24 2.28-.95 2.28-1.44 4.44-.81 6.96.58 2.03 1.87 3.3 4.47 5.04a50 50 0 0 0 7.63 22.86l.89 1.36c6.76 10.37 15.81 16.4 26.64 16.4h8.53c10.77 0 20.97-5.97 27.73-16.27l2.7-4.1a49 49 0 0 0 7.55-21.3c2.2-1.1 3.43-2.12 4.17-3.82.94-2.39.74-4.6.08-7.02"/><path fill="#1e1a28" d="M338.98 44.94c-4.44-2.35-9-4.4-13.98-5.3a14 14 0 0 0 4.96-4.11l1.06-1.39a15.3 15.3 0 0 0 3-7.49l.3-2.64a15.5 15.5 0 0 0-2.5-10.43l-.78-1.16c-1.71-2.55-3.6-3.78-6.9-4.52a21.2 21.2 0 0 0-12.45.81c-5.44 1.9-9.23 7.13-9.58 13.2l-.17 2.97a15.4 15.4 0 0 0 3.04 10.15l.35.45q1.88 2.52 4.35 3.94c-10.61 1.82-21.19 8.08-26.76 16.25-8.85 14.73-7.35 16.96-8.44 25.65-.14 1.12.06 2.23.14 3.34q3.21.53 6.56.53c16.6 0 30.92-10.05 37.48-24.56 6.3 15.28 20.96 26.34 37.35 23.9 1.03-.15 2.13-.5 3.14-.61.25-2.1.2-3.85.21-6.02.13-11.95-7.5-26.15-20.38-32.96"/></svg>