<svg xmlns="http://www.w3.org/2000/svg" width="1725" height="874" fill="none" viewBox="0 0 1725 874"><path fill="#68b096" d="M1591.61 625.1v63.97c20.99-57.62 63.58-79.15 121.15-77.23 8.19 57.92-42.1 111.9-119.85 124.67v72.72c3.92-7.86 6.62-14 9.89-19.74 24.37-42.72 68.81-60.94 121.02-61.6 6.73 36.8-16.9 88.85-52.56 113.02-62.9 42.62-149.36 41.32-197.45-11.69-25.09-27.71-36.87-60.47-37.69-97.58 43.13-11.07 95.22 16.09 131.16 87.78v-79.61c-32.91-2.93-63.7-11.2-86.5-36.67-22.5-25.13-29.95-56.2-31.88-89.04 38.24-8.18 98.17 21.9 119.14 89.53v-78.51c0-.2-.08-1.53.47-1.77s22.16.14 22.67.18.41 1.2.41 1.59z"/><path fill="#f9cc76" d="M1716.88 468.65c-9.45 39.95-36.91 67.91-65.74 94.23-12.06 10.98-25.92 20.32-39.86 28.87-18.17 11.14-38.25 12.61-57.19 2.92-47.49-24.33-87.38-57.27-110.71-107.11a108 108 0 0 1-8.29-27.03c-2.83-16.18 6.52-23.06 26-22 30.91 1.71 56.91 30.2 79.07 57.38.6-20.3.27-44.68 3.94-64.37 2.79-14.84 9.33-27.18 18.54-39.62 7.77-9.65 17.49-14.58 29.77-.28 10.58 11.84 14.4 23.22 16.22 35.58 3.28 21.91 3.24 44.3 4.58 66.2 19.62-23.44 42.17-46.67 75.48-53.92 9.28-2.01 22.39-1.62 26.98 3.42s3.49 16.08 1.21 25.73"/><path fill="#c58f79" d="M1153.86 238.14c-3.02-7.82-12.25-27.64-21.2-31.96s-8.29 1.07-6.85 4.58c1.52 3.66 6.16 14.18-5.52 4.95-5.11-4.03-11.51-7.5-17.52-8.78-3.75-.81-7.57 2.01-3.22 14.6 4.36 12.58 12.01 25.32 22.59 31.13s9.97 3.6 9.97 3.6l21.75-18.11h-.01z"/><path fill="#0c4fa1" d="M1295.97 307.62c39.93-21.37 67.36-39.18 71.9-59.65 1.91-8.64-1.44-21.39-13.04-27.56-9.91-5.27-18.22-3.96-25.45-.94-6.76 2.82-9.47 5.32-13.28 8.03-25.6 18.27-41.45 37.96-83.63 53.61-11.8 4.38-35.84-13.77-54.21-29.21-9.25-7.78-20.51-18-22.38-20.8l-30.12 27.82c7.44 7.88 47.8 58.79 98.23 69.76 19.64 4.28 57.43-13.26 71.99-21.05z"/><path fill="#1e1a28" d="M1452.48 849.42s5.2 13.94 5.79 17.03c.59 2.68 1.89 3.63-7.67 3.72 0 0-56.74.9-60.61 0-2.56-.6-5.75-4.13-4.02-19.94zM1337.94 850.3s.92 13.4-1.05 16.33c-1.99 2.91-3.17 4.8-20.59 3.84 0 0-49.14.88-50.7-.38s7.4-20.72 7.4-20.72z"/><path fill="#cde5f2" d="M1458.04 425.05c.39 26.34 3.88 163.7 4.26 178.53.6 14.84.99 141.12.99 155.12s.4 90.93-1.37 93.43-75.06 4.39-78.79 1.68c-3.74-2.72 0-126.9-.6-141.74-.38-14.85-2.74-88.22-.38-148 2.35-59.8-1.93-70.86-3.31-70.86s-2.59-2.94-8.09 53.5c-5.5 56.45-16.7 159.1-19.06 183.97-2.36 25.09-8.84 122.3-11.4 123.35s-71.93-.2-74.28-1.04c-2.36-.84 3.74-81.97 4.51-90.95.79-9 16.51-208.43 17.3-219.1s7.85-122.09 7.85-122.09 82.93.2 90 .84c7.27.4 72.37 3.34 72.37 3.34h-.01z"/><path fill="#c58f79" d="M1445.91 439.29c-6.91 2.3-24.53 9.52-28.93 17.15s-4.49 9.92-3.22 24.9c.28 3.38 2.64 7.9 13.72 4.62 11.07-3.27 22.53-9.4 28.32-18.4 5.79-8.98 3.86-8.53 3.86-8.53z"/><path fill="#0c4fa1" d="M1394.79 238.57c2.12-13.78 9.2-23.09 19-22.22 26.24 6.32 58.04 28.7 84.32 65.6 9.58 13.48 29.93 46.19 29.93 66.3-.69 51.58-58.95 109.05-65.8 117.45l-30.18-25.83c1.91-1.16 16.56-17.97 27.32-32.14 15-28 24.65-46.88 24.65-59.47-9.33-35.56-29.46-51.49-66.75-73.71 0 0-12.95-7.17-18.36-15.71-5-7.88-5.19-13.31-4.12-20.27z"/><path fill="#0c4fa1" d="M1456.66 390.66c.09 20.7 1.64 40.66 2.05 49.43 0 0-83.85 8.38-118.31 4.22 0 0-44.07-1.98-46.36-1.98 0 0 .55-36.33.51-57 .3-31.52.93-58.32 1.77-80.9.83-22.57-2.04-66.55 27.05-81.6 18.22-9.42 23.47-8.82 48.79-10.07 20.72-.84 50.09 2.33 62.02 13.4 15.28 14 17.09 44.16 19.22 73.1a7220 7220 0 0 1 3.26 91.4"/><path fill="#c58f79" d="M1421.87 162.3c-.26-1.43-1.51-2.19-2.97-2.81.6-11.42-1.77-18.67-6.85-26-4.26-6.15-10.21-12.27-18.54-15.25-7.39-2.65-25.5-1.96-32.78.98-17.4 6.62-24.25 22.8-25.14 40.68-1.49.39-2.81.94-3.24 2.28-.95 2.28-1.44 4.45-.81 6.97.58 2.03 1.87 3.3 4.46 5.03a50 50 0 0 0 7.63 22.88l.89 1.36c6.76 10.37 15.8 16.41 26.62 16.41h8.53c10.76 0 20.96-5.98 27.71-16.28l2.69-4.1a49 49 0 0 0 7.55-21.3c2.21-1.12 3.43-2.14 4.17-3.83.94-2.4.74-4.61.08-7.03"/><path fill="#1e1a28" d="M1433.76 144.47c-2.26-8.8-12.43-13.29-12.43-13.29s6.3-7.67-1.58-13.28-14.36-2.36-14.36-2.36.17-6.7-9.45-10.33c-9.63-3.62-15.77 1.78-15.77 1.78s-7.35-5.31-17.17-1.78c-9.81 3.55-9.42 10.63-9.42 10.63s-15.27-1.18-21.4 7.09 0 14.76 0 14.76-10.51 3.54-10.51 12.39c0 8.84 10.51 12.69 10.51 12.69l3.04-2.78a67 67 0 0 0 2.51-.56c13.1-3.23 23.61-9.98 29.64-18.05 10.86 9.98 26.81 15.68 43.5 15.03 1.64 3.85 4.51 7.86 9.32 7.86 15.23 0 15.41-12.65 13.57-19.8M1309.75 850.47s5.13 13.62 5.7 16.65c.58 2.62 1.86 3.55-7.55 3.63 0 0-43.64.88-47.45 0-2.51-.59-5.77-4.6-4.07-20.05l53.28-.8zM1161.9 849.03c-1.96 5.12-7.39 19.7-6.35 20.56l.03.02c.18.14 1.06.25 2.44.33l43.84.02v-.03c4.35-.43 5.13-1.61 6.18-3.17 1.41-2.1 2.64-14.77 2.91-17.74h-49.05"/><path fill="#7f433b" d="m1284.1 761.33 16.79-6.32s.03-1.54 5.47 4.63c5.42 6.2 7.77 16.06 8.08 25.06s-3.39 9.85-5.88 9.36c-11.05-2.1-12.7-2.63-17.4-7.5-4.71-4.85-6.68-19.58-7.08-25.26h.02l.02.02h-.02M1125 725.23l11.83 18.16s1.83-.37-4.04 7.65-16.89 13.35-27.42 16.1c-10.53 2.73-12.49-1.42-12.6-4.48-.42-13.58-.22-15.65 4.29-22.47 4.49-6.83 21.34-13 27.93-14.96v.03z"/><path fill="#f9cc76" d="M1282.77 690.65c-5.36-13.5-23.79-19.55-37.38-21.44-2.21-.3-4.44-.59-6.67-.65 0 0-14.85-.45-18.05-1.27-7.27-1.88-22.4 2.84-34.42 9.98-5.6 3.4-9.2 5.49-12.13 7.64l-67.9 44.8c-.61.41 14.96 34.39 14.96 34.39l51.05-20.27 1.35 12.62 83.54-1.2 31.06 17.27 23.51-9.38v-.02c-.05-.15-28.92-72.43-28.92-72.47"/><path fill="#da573b" d="m1314.55 851.67-1.12-3.77-58.48-176.77q-.01 0-.05-.02a84 84 0 0 0-14.01-2.41l-.02.01 9.79 50.83-41.17 5.58s-9.93-38.62-13.23-52.9a89 89 0 0 0-10.02 5.06l-2.21 1.35 6.65 51.98-18.49 13.3-16.33 109.01c-.1.69.42 1.3 1.11 1.3h55.1c.62 0 1.18-.43 1.32-1.03l12.76-53.88c.29-1.26 2.01-1.4 2.53-.23l24.12 54.4c.21.49.71.8 1.26.79h59.37c.92 0 1.41-1.71 1.12-2.59"/><path fill="#7f433b" d="M1263.65 634.31c.21 2.4 0 4.54-1.3 6.63a6.2 6.2 0 0 1-3.17 2.39 44 44 0 0 1-3.27 9.88l-2.02 4.28c-5.06 10.76-14.01 17.9-24.35 19.42l-8.18 1.19c-10.4 1.52-19.93-2.96-27.88-11.9l-1.04-1.16a47.4 47.4 0 0 1-10.52-20.73c-2.73-1.28-4.15-2.32-4.99-4.17-.94-2.31-.78-4.44-.18-6.76.23-1.35 1.42-2.05 2.8-2.64-1.64-17.16 2.68-33.54 18.48-42.28 6.58-3.83 23.87-7.04 31.35-5.57 8.43 1.67 14.99 6.66 19.95 11.93 5.9 6.26 9.19 12.85 10.21 23.8 1.49.38 2.79.93 3.24 2.25.96 2.2 1.47 4.3.89 6.71a6.3 6.3 0 0 1-2.34 3.37q0 .07-.03.12c1.28.85 2.34 1.8 2.34 3.17l.02.03z"/><path fill="#1e1a28" d="M1272.85 615.47c-2.13-8.25-11.65-12.45-11.65-12.45s5.92-7.21-1.47-12.44c-7.4-5.26-13.48-2.2-13.48-2.2s.15-6.29-8.88-9.68-14.79 1.66-14.79 1.66-6.89-4.98-16.11-1.66c-9.2 3.34-8.84 9.95-8.84 9.95s-14.34-1.1-20.08 6.63c-5.75 7.75 0 13.83 0 13.83s-9.85 3.34-9.85 11.62 9.85 11.9 9.85 11.9l2.85-2.62q1.18-.22 2.35-.52c12.27-3.01 22.15-9.36 27.81-16.92 10.2 9.35 25.15 14.7 40.83 14.1 1.54 3.6 4.21 7.36 8.75 7.36 14.29 0 14.47-11.85 12.72-18.56l.02-.02h-.04zM1132.23 666.49c-3.61-.25-9.08-.64-12.29-2.25-4.65-2.24-7.72-7.37-11.18-10.97-17.26-17.76-44.05-17.62-60.66 1.29-3.65 4.16-6.25 10.5-7.54 17.59-13.29 4.45-23.83 16.16-25.58 31.05a38 38 0 0 0 26.33-3c-12.93 35.72-31.54 45.09-31.54 45.09-13.5 10.65-29.66 18.73-40.09 32.37-13.18 17.23-17.75 40.7-10.68 61.46.57 1.75 2.9 7.3 3.36 8.15-10.68-4.94-20.65-8.26-26.19-17.12-3.53-5.77-5.39-20.66-5.28-30.7 0-2.24-12.15-5.45-14.3 9.44-2.17 14.88-2.7 41.41 27.09 53.13 25.72 10 47.4 8.58 53.08 8.72h52.77a3.2 3.2 0 0 0 3.21-3.2v-5.63c0-2.81-.79-5.52-2.32-7.83-1.61-2.5-3.79-3.78-6.11-5.27.46.32 8.36-5.27 10.75-6.98l5.25 26.6a3.3 3.3 0 0 0 2.9 2.35h59.01a3.2 3.2 0 0 0 3.22-3.2v-5.46c0-4.8-3.93-8.65-8.68-8.65h-2c-2.5-9.04-6.36-23.64-7.86-31.48-4.18-21.72-6.11-79.87-6.25-82.04-.79-11.47-4.76-21.4 7.46-28.28 7.54-4.16 16.22-7.37 23.94-11.35 6.11-3.21 10.54-7.2 12.29-14.04V671.8c0-4.41-9.15-5.13-12.15-5.27zm-48.02 187.05h-.07q-.71-.49-1.21-1.67c-.72-2.07-3.54-20.2-4-26.35 1.6-1.21 3.21-2.42 4.64-3.6 1.11 9.05 6.36 31.66 6.36 31.66h-5.72z"/><path fill="#054449" d="M76 431.82h711.64V874H76z"/><path fill="#054449" d="M854.43 438.62H9.2c-8.2 0-12.29-9.93-6.47-15.65L421.03 4.45a15.3 15.3 0 0 1 21.57 0l418.3 418.63a9.14 9.14 0 0 1-6.47 15.65z"/><path fill="#116e6b" d="M497.45 494c0-5.73 4.64-10.37 10.37-10.37h152c5.72 0 10.36 4.64 10.36 10.37v380H497.45z"/><path fill="#054449" d="M117.45 65.64c0-5.73 4.64-10.37 10.37-10.37h152c5.72 0 10.36 4.64 10.36 10.37v269.45H117.45z"/><rect width="172.73" height="172.73" x="193.45" y="483.63" fill="#116e6b" rx="10.36"/></svg>