<svg xmlns="http://www.w3.org/2000/svg" width="247" height="248" viewBox="0 0 247 248"><clipPath id="a">
  <path d="m106.22 56.08h-106.22v191.88h106.22z"/></clipPath>
  <path fill="#1e1a28" d="m130.23 241.35s-1.62 4.34-1.8 5.3c-.2.84-.6 1.13 2.38 1.16 0 0 17.7.28 18.9 0 .8-.18 1.8-1.29 1.26-6.21zm35.72.27s-.29 4.18.33 5.09c.62.9.98 1.5 6.42 1.2 0 0 15.32.27 15.81-.12.49-.4-2.3-6.46-2.3-6.46l-20.27.3z"/>
  <path fill="#68b096" d="m128.5 109.12c-.13 8.21-1.22 51-1.34 55.63-.18 4.62-.3 43.97-.3 48.33s-.13 28.33.42 29.11 23.41 1.37 24.58.52c1.16-.84 0-39.53.18-44.16.12-4.62.86-27.49.12-46.11-.73-18.63.6-22.08 1.03-22.08.44 0 .81-.92 2.53 16.67 1.71 17.59 5.2 49.57 5.94 57.32.74 7.82 2.76 38.1 3.56 38.43s22.43-.06 23.16-.32c.74-.26-1.16-25.54-1.4-28.34-.25-2.8-5.15-64.94-5.4-68.27-.24-3.31-2.45-38.03-2.45-38.03s-25.86.06-28.07.26c-2.27.12-22.57 1.04-22.57 1.04z"/>
  <path fill="#c58f79" d="m81.4 66.12-4.2 7.74s.43.57-3.35.08c-3.78-.48-7.52-3.3-10.3-6.47-2.76-3.16-1.98-4.41-.79-4.6 1.91-.32 4.2-.04 6.16.55 4.51 1.35 1.9-1.17 1.03-2.07-.84-.85-1.67-2.35 1.46-2.1 3.12.23 8.17 4.94 9.98 6.87z"/>
  <path fill="#f9cc76" d="m148.3 58.59c-1.26 1.48-3.39 3.22-11.14 7.43-6.04 3.28-6.69 5.52-16.92 10.42-5.61 2.7-9.1 4.6-15.5 4.53-5.28-.05-16.9-1.12-29-4.52.86-2.04 5.46-12.57 5.46-12.57 9.3 2.16 21.95 2.57 24.87 2.46 1.7-.06 5.68-1.8 7.57-2.85 7.67-5.01 8.36-6.16 14.29-10.83 3.7-2.93 7.81-6.48 11.52-7.71 2.68-.96 3.83-1.26 5.5-1.4 1.68-.16 5.65.57 6.78 5.62.98 4.4-2.15 7.92-3.42 9.42z"/>
  <path fill="#c58f79" d="m226.76 66.12 4.2 7.74s-.43.57 3.35.08c3.78-.48 7.52-3.3 10.3-6.47 2.76-3.16 1.98-4.41.79-4.6-1.91-.32-4.2-.04-6.16.55-4.51 1.35-1.9-1.17-1.03-2.07.84-.85 1.67-2.35-1.46-2.1-3.12.23-8.17 4.94-9.98 6.87z"/>
  <path fill="#f9cc76" d="m159.85 58.59c1.27 1.48 3.4 3.22 11.15 7.43 6.04 3.28 6.69 5.52 16.92 10.42 5.61 2.7 9.1 4.6 15.5 4.53 5.28-.05 16.9-1.12 29-4.52-.86-2.04-5.46-12.57-5.46-12.57-9.3 2.16-21.95 2.57-24.87 2.46-1.7-.06-5.68-1.8-7.56-2.85-7.68-5.01-8.37-6.16-14.3-10.83-3.7-2.93-7.81-6.48-11.52-7.71-2.68-.96-3.83-1.26-5.5-1.4-1.68-.16-5.65.57-6.78 5.62-.98 4.4 2.15 7.92 3.42 9.42z"/>
  <path fill="#f9cc76" d="m178.87 98.19c.03 6.45.51 12.66.64 15.4 0 0-26.15 2.6-36.9 1.31 0 0-13.74-.61-14.46-.61 0 0 .17-11.33.16-17.76.1-9.83.3-18.18.55-25.21.26-7.03-.63-20.74 8.44-25.43 5.68-2.93 7.32-2.74 15.22-3.13 6.46-.26 15.62.72 19.34 4.17 4.76 4.37 5.33 13.76 6 22.77.43 10.17.76 20.02 1.01 28.49z"/>
  <path fill="#68b096" d="m128.15 115.82.23-25.36s4.95-.82 6.51-1.14c1.56-.33 1.82-43.57 1.82-43.57s2.28-.98 3.54-1.42c.32-.1 1.95 25.15 2.14 27.35 0 0 19.9-.45 20.8-.58 0 0 .47-21.52.6-22.88l.44-4.59s3.07.5 3.85.96c.78.45 1.15 32.63 1.8 43.45 0 0-.38.17 2.08.3 1.63.03 6.8.41 6.8.41l.79 26.15z"/>
  <path fill="#b4cea0" d="m105.8 200.03c-1.12-8.47-3.34-15.66-7.6-21.93-4.27-6.26-13.18-20.64-15.78-27.27-2.6-6.64-8.16-33.55-9.09-39.63-.92-6.08-2.78-16.77-7.8-18.06-5-1.29-12.05-4.97-17.62-.37-5.56 4.61-10.2 7.74-15.2 20.1-5.02 12.34-9.84 29.48-11.88 34.27-2.04 4.8-4.83 15.11-10.76 23.78-5.94 8.66-8.72 14.37-9.47 19.16-.74 4.8-1.86 13.27 4.08 27.1 5.94 13.82 15.77 23.95 30.43 28.38 14.65 4.42 32.65 1.65 37.1.18 4.46-1.48 21.34-9.58 23.75-12.53 2.42-2.95 12.44-13.46 9.84-33.18z"/>
  <path fill="#054449" d="m74.34 100.23c9.66 22.58 28.26 30.8 28.26 30.8s7.25-26.72-1.4-47.27c-10.77-18.17-28-17.03-28-17.03s-8.54 10.93 1.13 33.5z"/>
  <path fill="#054449" d="m76.76 61.7c-.3.14-4.97 3.94-6.42 5.16a20.12 20.12 0 0 0 -5.86 8.12c-1.75 4.42-1.68 10.02-1.14 12.38.57 2.5.89 4.35 1.33 5.57-2.62-.76-5.7-1.98-8.8-2.3.17-1.36.65-2.98 1.4-5.01.9-2.5 3.36-11.17 4.05-12.91.69-1.75 9.25-16.63 10.34-16.63 1.16 0 1.81.15 2.12.38.3.22 3.52 3.1 3.6 3.41.07.3-.3 1.67-.62 1.82z"/>
  <path fill="#c58f79" d="m167.83 27.03c-.08-.44-.47-.67-.92-.87.19-3.56-.56-5.82-2.14-8.1-1.33-1.92-3.18-3.82-5.78-4.75-2.3-.83-7.95-.61-10.22.3-5.43 2.07-7.57 7.1-7.84 12.68-.47.12-.88.29-1.01.7-.3.72-.45 1.4-.26 2.18.18.63.59 1.03 1.4 1.57.21 2.59 1.03 5.07 2.37 7.13l.28.42c2.1 3.23 4.93 5.11 8.3 5.11h2.66c3.36 0 6.54-1.86 8.65-5.07l.84-1.28a15.37 15.37 0 0 0 2.35-6.63c.69-.35 1.07-.67 1.3-1.2.3-.74.23-1.43.03-2.19z"/>
  <path fill="#1e1a28" d="m174.65 31.28c-.36-1.87-2.63-4.3-3.4-5.52-2.07-3.23-2.93-4.9-2.93-4.9-2.25-4.6-7.15-8.42-12.71-8.68-2.87-.14-5.9-.09-8.63 1.52 0 0 .02 0 0 0-3.94 1.97-7.05 7.2-6.28 11.82.04.26.1.51.15.76.46-.01.99.1 1.4-.16 1.9-1.21 4.45-3.83 5.9-6.83 4.38 6.62 13.23 9 18.75 6.86v.01c.46.2.85.43.93.88.2.75.27 1.44-.02 2.19-.24.53-.62.85-1.3 1.2a15.35 15.35 0 0 1 -2.37 6.64l-.84 1.28c-.7 1.05-1.5 1.96-2.4 2.7.17.56 1.28 3.58 5.46 2.71 4.41-.9 4.36-1.33 6.26-3.35 2.1-2.24 2.85-4.9 2.03-9.13z"/>
</svg>