<svg xmlns="http://www.w3.org/2000/svg" width="421" height="800" fill="none" viewBox="0 0 421 800"><path fill="#c58f79" d="M388.42 427.07c-3.33 6.76-10.92 24.97-8.78 33.69s3.66 10.43 14.93 20.22c2.54 2.2 7.35 3.7 13-6.82s9.58-23.4 7.5-34.13c-2.1-10.72-3.16-8.97-3.16-8.97l-23.47-3.99z"/><path fill="#fff" d="M303.25 162.85c.21-6.27 4.36-23.97 21.05-18.82 17.19 5.3 35.73 12.03 53.46 37.53 17.05 24.53 31.65 57.4 35.91 120.16 4.74 69.82 6.39 133.9 6.47 134.95l-41.18-.89c-.08-1.04-.16-51.92-8.08-143.75-2.23-25.84-9.65-53.92-18.88-67.38-6-8.74-14.24-19.53-19.75-24.44 0 0-9.54-6.64-16.73-11.83-11.73-8.46-12.53-17.4-12.27-25.51z"/><path fill="#1e1a28" d="M203.95 778.52s-5.24 14.02-5.84 17.13c-.6 2.7-1.9 3.66 7.72 3.75 0 0 57.16.9 61.05 0 2.58-.6 5.8-4.17 4.06-20.07l-67-.81M319.31 779.4s-.92 13.5 1.06 16.43c2 2.93 3.2 4.83 20.74 3.87 0 0 49.5.89 51.07-.38 1.57-1.28-7.45-20.85-7.45-20.85z"/><path fill="#054449" d="M198.34 351.47c-.4 26.5-3.9 164.73-4.3 179.66-.6 14.94-1 142-1 156.1s-.39 91.5 1.39 94.02 75.61 4.4 79.37 1.68 0-127.69.6-142.63c.39-14.94 2.76-88.77.39-148.94-2.38-60.17 1.94-71.3 3.33-71.3s2.6-2.96 8.15 53.84c5.54 56.8 16.82 160.1 19.2 185.13 2.37 25.24 8.9 123.07 11.48 124.12 2.57 1.06 72.45-.2 74.82-1.05 2.37-.84-3.76-82.47-4.55-91.52S370.6 480.84 369.8 470.1a51263 51263 0 0 1-7.91-122.85s-83.53.2-90.65.84c-7.33.41-72.9 3.37-72.9 3.37h.01z"/><path fill="#c58f79" d="M56.66 163.64c-3.04-7.88-12.35-27.82-21.36-32.17s-8.35 1.08-6.9 4.61c1.53 3.68 6.2 14.27-5.56 4.98-5.15-4.06-11.6-7.55-17.65-8.84-3.77-.81-7.62 2.03-3.24 14.7s12.1 25.47 22.75 31.32 10.04 3.63 10.04 3.63zh-.01"/><path fill="#fff" d="M199.8 233.55c40.22-21.5 67.85-39.42 72.42-60.02 1.93-8.7-1.45-21.53-13.13-27.74-9.98-5.3-18.36-3.98-25.64-.94-6.8 2.84-9.54 5.35-13.37 8.08-25.8 18.38-41.76 38.2-84.24 53.95-11.89 4.4-36.1-13.87-54.6-29.4-9.33-7.83-20.67-18.12-22.55-20.93l-30.34 28c7.5 7.92 48.15 59.15 98.95 70.2 19.78 4.3 57.84-13.35 72.52-21.2z"/><path fill="#9bcab9" d="M361.4 317.11c.1 20.83 1.66 40.91 2.08 49.74 0 0-84.47 8.43-119.17 4.24 0 0-44.4-1.98-46.7-1.98 0 0 .55-36.57.51-57.36.3-31.73.94-58.7 1.78-81.41.84-22.72-2.05-66.97 27.26-82.12 18.34-9.47 23.63-8.87 49.14-10.13 20.86-.84 50.46 2.34 62.47 13.5 15.39 14.08 17.22 44.42 19.36 73.53 1.4 32.83 2.46 64.65 3.29 91.99z"/><path fill="#fff" d="m358.75 224.66-2.44-64.98c-22.86-17.2-49.28-20.15-54.53-20.58a.85.85 0 0 0-.92.87c.46 22.42 9.14 443.97 13.8 461.17.18.64.74 1.05 1.4 1.05h71.51c.84 0 1.51-.72 1.43-1.59l-30.25-373.44zM261.37 371.59q.06-7.91.17-15.65c1.46-29.56-4.46-196.6-5.8-216.46a.84.84 0 0 0-.93-.79c-13 1.3-27.37 6.24-36.94 15.34-8.16 7.76-12.47 18.58-14.84 29.37s-2.95 22.15-3.18 33.3c0 .46-32.62 383.03-32.62 383.03-.08.85.6 1.6 1.43 1.6h90.15c.67 0 1.26-.45 1.4-1.09 3.95-15.75.32-129.68 1.17-228.65z"/><path fill="#054449" d="M324.74 188.21a13 13 0 0 0-6.84-1.83 11.94 11.94 0 0 1 23.46 1.02c-2.4-.2-4.82.23-6.97 1.28a4.88 4.88 0 0 0-9.65-.47m16.74.8c-7-.83-13.26 4.95-13.01 12a11.96 11.96 0 0 0 13-11.9zm-23.84-1.05a12 12 0 0 0 9.23 12.8v-.08c0-2.21.54-4.37 1.58-6.31-2-3.99-6.36-6.59-10.8-6.4"/><path fill="#c58f79" d="M325.43 87.36c-.26-1.42-1.52-2.19-3-2.82.6-11.5-1.78-18.8-6.9-26.18-4.3-6.19-10.28-12.35-18.69-15.36-7.45-2.66-25.7-1.96-33.03 1-17.54 6.66-24.45 22.96-25.34 40.96-1.5.39-2.83.94-3.26 2.3-.97 2.29-1.46 4.47-.83 7 .59 2.05 1.9 3.33 4.5 5.08a50 50 0 0 0 7.7 23.03l.89 1.37c6.81 10.44 15.92 16.52 26.83 16.52h8.6c10.84 0 21.12-6.02 27.93-16.39l2.7-4.13a50 50 0 0 0 7.62-21.45c2.22-1.12 3.46-2.14 4.2-3.85.94-2.4.74-4.65.08-7.08"/><path fill="#1e1a28" d="M322.31 84.57v.05c1.1.47 2.07 1.01 2.6 1.85 1.47-5.41 1.31-14.73 1.31-14.73l-.71-6.97c-7.79-13.77-22.8-24.78-39.74-25.58-9.28-.44-19.08-.27-27.9 4.95-12.76 6.4-22.8 23.37-20.33 38.4q.2 1.25.5 2.47c1.5-.05 3.18.33 4.53-.52 6.15-3.92 14.38-12.44 19.1-22.18 14.16 21.51 42.76 29.23 60.64 22.27z"/><path fill="#fff" d="M324.32 79.24s-1.67-3.06-7.84-8.62c-4.7-4.24-21.68-13.8-43.27-11.27s-32.88 19.42-36.19 20.5c-1.13.39-.33-16.94-.33-16.94s3.07-14.94 15.16-23.97c12.87-9.59 24.66-13.85 43.25-8.73 30.7 8.47 32.7 32.32 30.91 49.85l-1.7-.85z"/></svg>