<svg xmlns="http://www.w3.org/2000/svg" width="451" height="800" fill="none" viewBox="0 0 451 800"><path fill="#c58f79" d="M342.37 311.83c8.08-2.47 29.56-7.45 38.57-3.04s4.31 7.25.63 8.28c-3.84 1.07-15.1 3.93-.5 7.46 6.39 1.55 13.12 4.48 17.9 8.45 2.96 2.48 3.1 7.26-9.6 11.63-12.7 4.36-27.57 6.2-38.77 1.4-11.2-4.78-9.07-5.66-9.07-5.66z"/><path fill="#fff" d="M262.88 259.35c-16.63-27.04-19.06-32.84-28.34-55.45-5.8-14.13-15.3-30.25-24.29-38.87-13.28-12.74-19.42-18.76-34.73-22.13-8.72-1.92-21.06 4.54-23.62 17.97s10.38 26.97 14.36 30.42 12.31 9.03 27.43 33.22c11.77 18.83 10.63 20.78 28.58 60.19 8.79 17.84 16.19 25.44 31.46 33.88 16.32 9.01 40.03 18.3 90.06 29.86.8-7.14 3.41-41.7 3.41-41.7-58.97-17.25-77.18-35.78-84.32-47.39"/><path fill="#1e1a28" d="M57.65 778.16s-5.25 14.05-5.85 17.16c-.6 2.7-1.9 3.66 7.74 3.75 0 0 57.28.9 61.18 0 2.58-.6 5.8-4.17 4.06-20.1zM173.26 779.06s-.93 13.5 1.06 16.44 3.2 4.84 20.78 3.87c0 0 49.6.9 51.18-.38s-7.47-20.87-7.47-20.87z"/><path fill="#054449" d="M52.03 350.63c-.4 26.54-3.91 164.92-4.3 179.86-.6 14.96-1 142.17-1 156.28 0 14.1-.4 91.6 1.38 94.13 1.79 2.52 75.78 4.42 79.54 1.68 3.77-2.73 0-127.83.6-142.79.39-14.95 2.77-88.87.39-149.1-2.38-60.24 1.94-71.39 3.34-71.39s2.61-2.96 8.16 53.9S157 633.5 159.38 658.55c2.38 25.27 8.92 123.22 11.51 124.26 2.58 1.06 72.6-.2 74.98-1.04s-3.77-82.58-4.56-91.63c-.79-9.06-16.66-209.98-17.45-220.73-.8-10.73-7.94-123-7.94-123s-83.7.21-90.84.85c-7.34.41-73.05 3.37-73.05 3.37h.01z"/><path fill="#9bcab9" d="M215.16 315.99c.1 20.85 1.66 40.95 2.07 49.8 0 0-84.64 8.43-119.42 4.24 0 0-44.48-1.99-46.8-1.99 0 0 .56-36.6.52-57.42.3-31.76.94-58.76 1.78-81.5s-2.05-67.05 27.32-82.22c18.38-9.48 23.68-8.88 49.24-10.14 20.91-.84 50.57 2.35 62.6 13.51 15.42 14.1 17.26 44.48 19.4 73.63a7294 7294 0 0 1 3.3 92.09"/><path fill="#c58f79" d="M31.77 423.73c3.34 6.76 10.94 24.98 8.8 33.7-2.15 8.72-3.67 10.44-14.96 20.24-2.54 2.2-7.36 3.7-13.02-6.83S3 447.43 5.1 436.7c2.1-10.74 3.16-8.99 3.16-8.99l23.5-3.98z"/><path fill="#fff" d="M117.07 159.36c-.21-6.28-4.37-23.98-21.08-18.83-17.21 5.3-35.79 12.04-53.54 37.55-17.08 24.54-31.7 57.43-35.97 120.22C1.74 368.16.08 432.3 0 433.33l41.25-.88c.08-1.05.15-51.96 8.1-143.84 2.22-25.85 9.65-53.95 18.9-67.42 6-8.74 14.26-19.53 19.78-24.45 0 0 9.55-6.64 16.76-11.84 11.74-8.46 12.54-17.4 12.28-25.52zM212.96 223.1l-4.15-59.64c-20.85-24.65-49.65-25.8-54.92-26.22a.85.85 0 0 0-.92.86c.46 22.46 9.17 444.53 13.83 461.76.18.64.74 1.05 1.41 1.05h71.66c.84 0 1.51-.72 1.44-1.6l-26.93-332.09z"/><path fill="#fff" d="M117.07 159.13c-.21-6.28-4.36-23.98-21.08-18.84-17.2 5.31-35.78 12.04-53.54 37.55-17.07 24.54-31.7 57.43-35.97 120.22C1.73 367.93.1 432.06 0 433.1l41.25-.9c.08-1.03.15-51.95 8.1-143.82 2.22-25.85 9.65-53.95 18.9-67.43 6-8.75 14.26-19.53 19.78-24.45 0 0 9.56-6.65 16.75-11.83 11.74-8.46 12.55-17.4 12.28-25.53z"/><path fill="#fff" d="M116.19 137.97c-.06-.48-.45-.84-.93-.8-.45.05-15.49.5-27.16 5.07-3.75 1.47-15.02 6.74-15.25 7.53l-21.94 74.51-.63 25.25-.07 152.19c-5 97.67-10.12 197.23-10.12 197.23-.08.85.6 1.6 1.43 1.6h77.31c.68 0 1.27-.44 1.42-1.09 3.95-15.76-1.28-440.07-4.08-461.5z"/><path fill="#054449" d="M176.9 188.16a13.3 13.3 0 0 0-6.85-1.83 11.97 11.97 0 0 1 23.51 1.02c-2.4-.2-4.82.23-6.98 1.28a4.89 4.89 0 0 0-9.68-.47m16.78.8a11.78 11.78 0 0 0-13.04 12 12 12 0 0 0 13.04-11.9zm-23.89-1.05a12 12 0 0 0 9.25 12.8v-.06c0-2.22.54-4.38 1.58-6.33-2-3.98-6.37-6.59-10.83-6.4"/><path fill="#c58f79" d="M179.45 87.4c-.27-1.42-1.53-2.19-3-2.82.6-11.5-1.8-18.8-6.91-26.2-4.3-6.18-10.3-12.35-18.72-15.36-7.46-2.67-25.74-1.97-33.08 1C100.17 50.67 93.25 66.98 92.35 85c-1.5.38-2.83.94-3.26 2.3-.97 2.3-1.45 4.47-.83 7.01.59 2.05 1.9 3.33 4.51 5.08a50 50 0 0 0 7.7 23.04l.9 1.37c6.82 10.45 15.95 16.53 26.87 16.53h8.6c10.87 0 21.16-6.02 27.98-16.4l2.72-4.13a50 50 0 0 0 7.62-21.46c2.23-1.12 3.47-2.15 4.2-3.86.95-2.4.75-4.64.09-7.08"/><path fill="#1e1a28" d="M176.39 84.38v.05c1.1.48 2.07 1.02 2.61 1.86 1.47-5.42 1.3-14.75 1.3-14.75l-.7-6.98c-7.81-13.78-22.86-24.8-39.83-25.61-9.3-.45-19.12-.28-27.96 4.95-12.8 6.41-22.86 23.4-20.39 38.45q.2 1.25.52 2.48c1.5-.05 3.18.33 4.53-.53 6.16-3.92 14.42-12.45 19.15-22.2 14.19 21.54 42.85 29.26 60.77 22.3z"/><path fill="#fff" d="M178.4 79.04s-1.68-3.06-7.85-8.63c-4.72-4.24-21.73-13.8-43.38-11.27-21.64 2.53-32.95 19.43-36.26 20.52-1.14.38-.33-16.96-.33-16.96s3.07-14.96 15.2-24c12.89-9.6 24.7-13.87 43.33-8.75 30.78 8.48 32.78 32.37 30.99 49.92l-1.7-.86z"/><path fill="#f9c4aa" d="M447.6 305.55c-4.96 20.06-22.43 26.55-41.43 28.57-23.83 2.56-47.09 3.87-71.17 4.87-3.2.13-7.27-1.04-9.88-2.3-10.8-5.21-17.62-14.4-20.6-26.07-7.96-31.11 16.53-63.38 48.35-71.68 16.42-4.27 33.56-6.36 50.27-3.88 14.26 2.12 26.9 9.2 36.53 19.17 5.97 6.19 9.22 14.03 9.95 22.5.85 9.72.3 19.5-2.01 28.82"/><path fill="#da573b" d="M437.63 273.73c-2.15-7.62-8.41-14.08-15.49-18.27-12.25-7.27-26.27-11.16-40.58-10.37-4.21.24-8.62 1.96-10.73 5.42-4.3 7.07 2.11 16.58 4.72 26.99a21.7 21.7 0 0 1-6.58 21.7l-10.83 9.88c-4.4 4-5.23 12.14-.47 16.24 4.04 3.5 11.4 2.6 16.37 2.57 8.7-.06 17.35-1.21 25.83-3.05 8.5-1.84 17.94-3.56 25-8.95 7-5.35 10.62-13.1 12.63-21.46 1.6-6.68 2.24-14.04.14-20.7"/><path fill="#da573b" d="M356.37 296.27c4.36-.09 7.28-2.44 8.58-5.91 2.92-7.06 1.81-14.4-.57-21.49-1.68-5.01-3.16-9.97-5.45-14.58-5.07-10.2-23.98 2.78-29.22 7.92-3.71 3.64-4.77 10.2-1.4 14.16l8.18 9.68c4.92 5.83 11.4 10.21 19.9 10.22zM340.36 324.49a45 45 0 0 1 5.6-13.14c6.73-11.18-7.16-6.47-20.4-27.9-.63-1.06-2.65-2.39-3.75-2.44-4.46-.2-7.47 7.53-8.05 12.13-1.68 13.41 2.45 32.6 18.1 35.9 3.73.78 7.6-.74 8.5-4.55"/></svg>