<svg xmlns="http://www.w3.org/2000/svg" width="433" height="800" fill="none" viewBox="0 0 433 800"><path fill="#1e1a28" d="M203.66 778.5s-5.23 14.04-5.83 17.15c-.6 2.7-1.9 3.65 7.72 3.74 0 0 57.07.9 60.96 0 2.57-.6 5.79-4.16 4.05-20.07zM318.87 779.4s-.93 13.49 1.06 16.43 3.18 4.83 20.7 3.86c0 0 49.44.9 51-.37 1.57-1.28-7.44-20.86-7.44-20.86l-65.33.94"/><path fill="#054449" d="M198.06 351.33c-.39 26.52-3.9 164.78-4.29 179.71-.6 14.95-1 142.05-1 156.15s-.39 91.53 1.39 94.05 75.5 4.41 79.26 1.68c3.75-2.73 0-127.72.6-142.67.38-14.94 2.75-88.8.38-148.99-2.37-60.18 1.94-71.32 3.33-71.32s2.6-2.96 8.14 53.86c5.53 56.82 16.8 160.15 19.17 185.18 2.37 25.26 8.89 123.12 11.47 124.16 2.57 1.06 72.35-.2 74.71-1.04 2.37-.85-3.76-82.5-4.54-91.55-.79-9.06-16.6-209.81-17.4-220.55-.78-10.72-7.9-122.9-7.9-122.9s-83.41.22-90.52.85c-7.32.41-72.8 3.37-72.8 3.37h.02z"/><path fill="#f9c4aa" d="M56.58 163.69c-3.04-7.88-12.33-27.83-21.33-32.18s-8.34 1.08-6.89 4.61c1.53 3.68 6.2 14.27-5.55 4.98-5.14-4.06-11.58-7.55-17.63-8.84-3.76-.81-7.6 2.03-3.23 14.7 4.38 12.67 12.07 25.48 22.72 31.34 10.65 5.84 10.03 3.63 10.03 3.63z"/><path fill="#fff" d="M199.52 233.62c40.17-21.5 67.76-39.44 72.32-60.04 1.92-8.7-1.44-21.54-13.11-27.75-9.97-5.3-18.33-3.99-25.6-.94-6.8 2.84-9.53 5.35-13.36 8.08-25.75 18.39-41.7 38.21-84.12 53.97-11.87 4.4-36.05-13.87-54.53-29.41-9.3-7.83-20.63-18.13-22.52-20.93l-30.3 28c7.5 7.92 48.09 59.17 98.82 70.22 19.75 4.3 57.76-13.35 72.42-21.2z"/><path fill="#9bcab9" d="M360.9 317.21c.1 20.84 1.65 40.92 2.07 49.76 0 0-84.35 8.43-119 4.24 0 0-44.33-1.98-46.64-1.98 0 0 .55-36.58.52-57.38.3-31.74.93-58.71 1.77-81.44s-2.05-67 27.22-82.14c18.32-9.48 23.6-8.87 49.07-10.14 20.84-.84 50.39 2.35 62.39 13.5 15.36 14.1 17.19 44.45 19.32 73.57 1.41 32.83 2.47 64.66 3.3 92.01z"/><path fill="#fff" d="m358.7 224.73-2.43-65c-22.83-17.2-49.21-20.16-54.46-20.59a.85.85 0 0 0-.92.86c.46 22.44 9.14 444.12 13.78 461.32.18.64.74 1.05 1.41 1.05h71.4c.84 0 1.51-.72 1.43-1.59l-30.2-373.55z"/><path fill="#f9c4aa" d="M324.96 87.39c-.26-1.43-1.51-2.2-2.98-2.83.6-11.5-1.79-18.8-6.9-26.18-4.29-6.2-10.27-12.36-18.66-15.37-7.44-2.66-25.66-1.96-32.99 1-17.51 6.66-24.4 22.96-25.3 40.97-1.5.39-2.83.94-3.26 2.3-.97 2.3-1.45 4.47-.82 7.01.58 2.04 1.88 3.33 4.5 5.07a50 50 0 0 0 7.67 23.05l.9 1.36c6.8 10.45 15.9 16.53 26.79 16.53h8.58c10.83 0 21.1-6.02 27.9-16.4l2.7-4.12a50 50 0 0 0 7.6-21.46c2.22-1.12 3.45-2.15 4.2-3.86.94-2.4.74-4.64.08-7.07"/><path fill="#fff" d="M266.49 78.68h25.1l18.52 2.11 12.05 4.22c10.48-31.62-24.77-52.6-48.45-52.6-24.93 0-41.87 36.99-35.41 50.66l28.19-4.38"/><path fill="#9bcab9" d="M273.56 95.37c-32.05 1-35.6-13.05-35.6-13.05s51.5-12.93 84.33 2.31c0 0-.25 2.41-2.21 3.03-6.7 2.14-24.29 6.66-46.5 7.7z"/><path fill="#fff" d="M260.95 371.7q.06-7.9.17-15.65c1.46-29.56-4.45-196.65-5.78-216.52a.84.84 0 0 0-.93-.8c-13 1.31-27.34 6.25-36.9 15.36-8.14 7.75-12.45 18.57-14.82 29.38s-2.94 22.15-3.18 33.3c0 .46-32.56 383.15-32.56 383.15-.08.85.59 1.59 1.43 1.59h90.01c.67 0 1.26-.44 1.41-1.08 3.94-15.76.31-129.72 1.16-228.72"/><path fill="#68b096" d="m230.7 390.02 110.86 97.78c.94.83 2.41.68 3.15-.34l61.71-82.55c.66-.9.56-2.11-.25-2.87l-98.1-93.08a2.14 2.14 0 0 0-2.99.03l-20.96 20.65a2.1 2.1 0 0 1-2.11.54l-9.24-2.7c-.76-.23-1.6 0-2.16.56l-22.92 23.57c-.61.64-.79 1.58-.44 2.4l3.46 7.76c.33.77.2 1.66-.36 2.3l-19.9 22.88c-.79.89-.69 2.26.2 3.05z"/><path fill="#f9c4aa" d="M350.1 366.17c-6.96 2.32-24.75 9.61-29.18 17.3-4.44 7.69-4.53 10.01-3.25 25.12.28 3.41 2.66 7.97 13.84 4.67s22.75-9.5 28.59-18.56c5.83-9.07 3.9-8.62 3.9-8.62l-13.88-19.9z"/><path fill="#fff" d="M317.7 141.27c26.48 6.37 58.58 28.94 85.1 66.19 9.67 13.58 30.2 46.58 30.2 66.88-.7 52.03-59.5 110.01-66.4 118.48l-30.47-26.05c1.94-1.17 16.71-18.13 27.57-32.43 15.15-28.24 24.88-47.3 24.88-60-9.41-35.87-29.73-51.94-67.37-74.36-.08-.05-11.84-6.58-17.67-14.62v-36.13c3.45-5.44 8.33-8.48 14.16-7.96"/><path fill="#054449" d="M324.74 188.27a13 13 0 0 0-6.83-1.83 11.93 11.93 0 0 1 23.43 1.02c-2.4-.21-4.81.23-6.96 1.28a4.87 4.87 0 0 0-9.64-.47m16.72.8c-7-.83-13.25 4.95-13 12a11.95 11.95 0 0 0 13-11.9zm-23.8-1.05a12 12 0 0 0 9.2 12.8v-.08c0-2.21.55-4.37 1.58-6.31a11.8 11.8 0 0 0-10.79-6.41"/></svg>