<svg xmlns="http://www.w3.org/2000/svg" width="573" height="800" fill="none" viewBox="0 0 573 800"><path fill="#1e1a28" d="M83.73 778.5s-5.24 14.03-5.84 17.15c-.6 2.7-1.9 3.65 7.73 3.74 0 0 57.22.9 61.12 0 2.57-.6 5.8-4.16 4.05-20.09zM199.21 779.38s-.92 13.5 1.07 16.44 3.19 4.84 20.76 3.87c0 0 49.54.9 51.11-.37 1.58-1.28-7.45-20.87-7.45-20.87z"/><path fill="#054449" d="M78.12 351.02c-.4 26.54-3.9 164.9-4.3 179.83-.6 14.96-1 142.15-1 156.26s-.4 91.59 1.39 94.11c1.78 2.53 75.69 4.42 79.45 1.69 3.76-2.74 0-127.82.6-142.77.38-14.96 2.76-88.87.38-149.1s1.95-71.36 3.34-71.36c1.4 0 2.6-2.96 8.16 53.9 5.54 56.85 16.83 160.25 19.21 185.3 2.38 25.27 8.91 123.2 11.5 124.25s72.52-.2 74.9-1.05c2.37-.84-3.77-82.56-4.56-91.61-.79-9.06-16.64-209.95-17.43-220.7-.8-10.73-7.93-122.97-7.93-122.97s-83.61.2-90.74.84c-7.33.41-72.97 3.37-72.97 3.37h.02z"/><path fill="#9bcab9" d="M241.13 316.6c.1 20.8 1.65 40.87 2.06 49.69 0 0-84.38 8.42-119.05 4.24 0 0-44.35-1.98-46.66-1.98 0 0 .55-36.54.51-57.3.3-31.71.94-58.65 1.78-81.35S77.72 163 107 147.86c18.33-9.47 23.62-8.86 49.1-10.12 20.84-.84 50.4 2.34 62.41 13.48 15.37 14.07 17.2 44.39 19.34 73.47 1.4 32.8 2.46 64.59 3.29 91.9z"/><path fill="#f8e0d8" d="M205.4 87.4c-.27-1.43-1.53-2.2-3-2.83.6-11.5-1.79-18.8-6.9-26.18-4.3-6.2-10.3-12.37-18.7-15.37-7.45-2.67-25.71-1.97-33.04 1-17.55 6.66-24.46 22.96-25.36 40.97-1.5.39-2.83.94-3.26 2.3-.97 2.3-1.45 4.48-.83 7.01.59 2.05 1.9 3.33 4.5 5.08.72 8.38 3.36 16.39 7.7 23.04l.9 1.36c6.81 10.46 15.93 16.54 26.84 16.54h8.6c10.85 0 21.13-6.03 27.94-16.4l2.71-4.13a50 50 0 0 0 7.62-21.46c2.22-1.12 3.45-2.15 4.2-3.86.94-2.4.74-4.64.08-7.07"/><path fill="#ed9a32" d="M227.44 101.13c-1.19-6.05-8.5-13.93-11.02-17.86-6.69-10.45-9.45-15.81-9.45-15.81-7.28-14.9-23.11-27.23-41.1-28.1-9.27-.43-19.07-.26-27.88 4.93-.05.02.05-.03 0 0-12.76 6.38-22.8 23.26-20.33 38.21q.2 1.25.5 2.46c1.5-.05 3.19.32 4.52-.53 6.15-3.9 14.38-12.38 19.1-22.06 14.15 21.4 42.73 29.07 60.6 22.15v.05c1.48.64 2.74 1.4 3 2.83.67 2.43.87 4.68-.08 7.09-.75 1.7-1.98 2.74-4.2 3.86a50 50 0 0 1-7.64 21.49l-2.72 4.13a40 40 0 0 1-7.75 8.76c.54 1.8 4.11 11.55 17.64 8.75 14.27-2.95 14.09-4.3 20.24-10.85 6.76-7.23 9.22-15.83 6.57-29.5"/><path fill="#054449" d="M191.75 202.04a13 13 0 0 0-6.75-1.82 11.8 11.8 0 0 1 23.15 1.01 13 13 0 0 0-6.88 1.27 4.81 4.81 0 0 0-9.52-.46m16.52.78a11.6 11.6 0 0 0-12.84 11.84 11.8 11.8 0 0 0 12.84-11.74zm-23.53-1.03a11.8 11.8 0 0 0 9.1 12.62v-.06c0-2.19.54-4.32 1.57-6.23a11.6 11.6 0 0 0-10.67-6.33"/><path fill="#68b096" d="M178.06 341.43 65.1 436.06c-.96.8-2.42.62-3.13-.41l-59.45-83.8c-.64-.9-.5-2.1.32-2.85l100.11-90.26c.86-.79 2.2-.73 2.99.1l20.39 21.1c.54.57 1.34.8 2.08.58l9.28-2.45c.77-.2 1.6.04 2.14.61l22.26 24.06c.6.65.75 1.59.37 2.39l-3.64 7.66c-.34.75-.24 1.64.3 2.28l19.27 23.3c.76.9.63 2.27-.28 3.03z"/><path fill="#f8e0d8" d="M86.35 366.44c6.95 2.31 24.68 9.57 29.1 17.24s4.52 9.97 3.25 25.03c-.29 3.4-2.66 7.94-13.8 4.65s-22.69-9.46-28.51-18.5-3.89-8.58-3.89-8.58l13.84-19.84"/><path fill="#9bcab9" d="M137.79 164.64c-2.13-13.86-9.26-23.21-19.12-22.33-26.41 6.34-58.42 28.84-84.86 65.95C24.16 221.8 3.7 254.7 3.7 274.92c.69 51.85 59.33 109.63 66.22 118.07l30.38-25.96c-1.94-1.17-16.67-18.07-27.5-32.32-15.1-28.15-24.81-47.13-24.81-59.8 9.4-35.74 29.65-51.75 67.18-74.1 0 0 13.02-7.2 18.47-15.79 5.03-7.92 5.23-13.38 4.15-20.38"/><rect width="227.82" height="227.82" x="344.27" y="572.09" fill="#c58f79" rx="7.67"/><path fill="#f8e0d8" d="M267.48 425.77c-3.34 6.77-10.93 24.97-8.79 33.7 2.14 8.71 3.67 10.43 14.94 20.22 2.54 2.21 7.35 3.71 13-6.82s9.58-23.4 7.5-34.13c-2.1-10.73-3.17-8.98-3.17-8.98l-23.47-3.99z"/><path fill="#9bcab9" d="M182.3 161.51c.2-6.27 4.35-23.97 21.05-18.83 17.19 5.3 35.73 12.04 53.46 37.54 17.06 24.53 31.66 57.4 35.92 120.18 4.74 69.83 6.39 133.93 6.47 134.97l-41.19-.89c-.08-1.04-.15-51.93-8.08-143.77-2.22-25.84-9.64-53.93-18.88-67.4-6-8.74-14.24-19.52-19.75-24.43 0 0-9.55-6.65-16.74-11.84-11.72-8.46-12.53-17.4-12.26-25.51z"/><path fill="#68b096" d="m414.4 463.43.35 24.4c1.05-2.17 1.79-3.88 2.68-5.49 6.59-11.87 18.56-16.92 32.66-17.1 1.81 10.21-4.57 24.66-14.17 31.37-16.98 11.84-40.32 11.46-53.3-3.24-6.78-7.68-9.98-16.8-10.18-27.08 11.64-3.07 25.69 4.46 35.39 24.37l.2-27.23s0-.44.13-.49c.15-.07 5.98.03 6.13.05.15 0 .1.33.1.44"/><path fill="#f9cc76" d="M448.24 423.78c-2.55 11.08-9.95 18.83-17.73 26.11a73 73 0 0 1-10.74 8 15.9 15.9 0 0 1-15.94.53c-12.58-6.72-23.11-15.79-29.34-29.42a30 30 0 0 1-2.24-7.49c-.77-4.48 1.76-6.39 7.01-6.08 8.35.48 15.36 8.35 21.33 15.9.15-5.64.08-12.39 1.07-17.84.74-4.1 2.53-7.54 5-10.98 2.1-2.67 4.72-4.02 8.04-.07a17.7 17.7 0 0 1 4.36 9.85c.9 6.06.87 12.28 1.22 18.34 5.28-6.5 11.38-12.91 20.36-14.92 2.5-.56 6.05-.46 7.27.94 1.23 1.4.94 4.46.33 7.13"/><path fill="#7f433b" d="M449.42 506.93v12.26c0 1.05-.84 1.89-1.89 1.89h-4.84c-.76 6.03-4.18 37.08-5.65 46.34-.54 3.34-2.63 5.1-6.04 5.1h-39.1c-3.06 0-5.3-1.81-5.81-4.87-1.48-8.78-5.4-42.93-5.97-46.6h-5.14a1.9 1.9 0 0 1-1.89-1.88v-12.3c0-1.04.84-1.88 1.89-1.88h72.55c1.05 0 1.89.84 1.89 1.89z"/><path fill="#68b096" d="m508.43 463.42.36 24.4c1.05-2.17 1.79-3.88 2.68-5.49 6.59-11.87 18.56-16.92 32.66-17.1 1.81 10.21-4.57 24.66-14.17 31.37-16.98 11.85-40.32 11.46-53.3-3.24-6.79-7.68-9.98-16.8-10.18-27.08 11.64-3.06 25.69 4.47 35.39 24.38l.2-27.24s0-.44.13-.49c.15-.07 5.98.03 6.13.06.15 0 .1.33.1.43"/><path fill="#f9cc76" d="M542.28 423.77c-2.55 11.08-9.95 18.83-17.73 26.11a73 73 0 0 1-10.74 8 15.9 15.9 0 0 1-15.94.54c-12.58-6.73-23.11-15.8-29.34-29.43a30 30 0 0 1-2.24-7.48c-.77-4.49 1.76-6.4 7.01-6.1 8.34.5 15.36 8.36 21.33 15.9.15-5.63.07-12.38 1.07-17.83.74-4.1 2.53-7.54 5-10.98 2.1-2.67 4.72-4.02 8.04-.07a17.7 17.7 0 0 1 4.36 9.86c.9 6.06.87 12.27 1.22 18.33 5.28-6.49 11.38-12.91 20.36-14.92 2.5-.56 6.05-.46 7.27.94s.94 4.46.33 7.13"/><path fill="#7f433b" d="M543.46 506.92v12.27c0 1.04-.84 1.88-1.89 1.88h-4.84c-.76 6.03-4.18 37.08-5.65 46.34-.54 3.34-2.63 5.1-6.04 5.1h-39.1c-3.06 0-5.3-1.81-5.82-4.87-1.47-8.78-5.4-42.93-5.96-46.6h-5.14a1.9 1.9 0 0 1-1.89-1.88v-12.3c0-1.04.84-1.88 1.89-1.88h72.55c1.05 0 1.89.84 1.89 1.89z"/></svg>