<svg xmlns="http://www.w3.org/2000/svg" width="381" height="800" fill="none" viewBox="0 0 381 800"><path fill="#7f433b" d="M135.48 2.38a3 3 0 0 0-1-.9c-1.22-.66-8.9-1.63-11.37-1.46-.58.04-1.2.13-1.61.55-.53.54-.47 1.42-.36 2.17 1.28 8.77 3.79 17.29 5.75 25.91.98 4.32 1.83 8.67 2.3 13.07.3 2.71.3 5.37-.43 8.01a21.8 21.8 0 0 1-7.68 11.66c-3.71 2.8-8.3 4.02-12.92 4.02-6.69 0-12.6-3.46-16.87-8.43a33 33 0 0 1-3.8-5.44c-.6-1.1-2-5.5-2.4-6.5-.5-1.24-2.11-3.41-3.64-3.41-1.17 0-4.16.93-4.16 7.39s4.85 32.78 31.8 35.53 35.15-19.7 36.45-33.43c.42-4.45-.08-8.83-.68-13.24a151 151 0 0 0-7.38-30.46c-.57-1.62-.97-3.64-2-5.04"/><path fill="#c58f79" d="M170.8 389a6.3 6.3 0 0 0 2.79-6.7c-9.2-41.13-10.07-56.35-17.89-73.29-6.32-13.69-18.52-35.3-37.22-63.2a10 10 0 0 1-1.22-8.81c3.66-11.01 12.14-40.36 10.78-73.22-1.23-30.09-10.25-54.39-5.16-72.9 5.16-18.83 3.34-38.23.22-44.5-3.4-6.85-14.16-5.18-24.67-5.12-8.56.03-10.1 33.75-11.08 41.64a4 4 0 0 0 0 .98c.78 5.04 6.6 48.2-16.25 71.25C44.1 182.4-.02 193.38 0 227.28c0 78.9 38.95 102.6 44.35 219.31a3.1 3.1 0 0 0 2.23 2.85c17.92 5.3 24.17 2.8 51.42 2.03a3.1 3.1 0 0 0 2.72-1.8c2.44-5.27 4.37-9.2 8.78-15.21q.65-.86 1.67-1.14c7.38-1.93 20.34-5.12 28.27-6.37a3 3 0 0 0 2.5-2.45c.99-5.08 3.15-13.53 5.6-19.58a5 5 0 0 1 1.97-2.33c7.43-4.75 16.39-10.44 21.33-13.58v-.04z"/><path fill="#1e1a28" d="M224.13 785.3s-3.58 9.6-3.99 11.73c-.4 1.84-1.3 2.5 5.28 2.56 0 0 39.04.61 41.7 0 1.76-.41 3.95-2.85 2.77-13.73zM302.93 785.91s-.63 9.23.73 11.24 2.17 3.3 14.16 2.64c0 0 33.81.61 34.88-.26s-5.08-14.26-5.08-14.26z"/><path fill="#054449" d="M220.3 493.22c-.27 18.13-2.67 112.67-2.94 122.87-.4 10.22-.68 97.13-.68 106.77s-.27 62.58.95 64.3c1.22 1.74 51.65 3.03 54.21 1.16s0-87.33.4-97.55c.28-10.22 1.9-60.72.28-101.87-1.63-41.16 1.32-48.77 2.27-48.77.96 0 1.78-2.02 5.57 36.83 3.78 38.85 11.49 109.5 13.11 126.62 1.62 17.26 6.08 84.17 7.85 84.9 1.76.71 49.49-.15 51.1-.73 1.63-.57-2.57-56.4-3.1-62.6-.54-6.18-11.36-143.45-11.9-150.8-.54-7.33-5.4-84.02-5.4-84.02s-57.06.14-61.93.57c-5 .29-49.8 2.3-49.8 2.3h.02z"/><path fill="#f9c4aa" d="M123.52 364.91c-2.08-5.38-8.43-19.02-14.59-22s-5.7.74-4.71 3.15c1.04 2.52 4.24 9.76-3.8 3.41-3.51-2.78-7.92-5.16-12.06-6.05-2.57-.55-5.2 1.4-2.2 10.06s8.25 17.42 15.53 21.42 6.86 2.49 6.86 2.49z"/><path fill="#fff" d="M221.3 412.73c27.47-14.7 46.34-26.96 49.46-41.05 1.32-5.95-.98-14.73-8.97-18.97-6.82-3.63-12.54-2.73-17.5-.65-4.66 1.94-6.53 3.66-9.14 5.53-17.62 12.57-28.52 26.13-57.55 36.9-8.11 3.01-24.65-9.48-37.3-20.11-6.36-5.35-14.1-12.4-15.4-14.31l-20.72 19.14c5.12 5.42 32.89 40.46 67.6 48.02 13.5 2.94 39.5-9.13 49.53-14.5z"/><path fill="#9bcab9" d="M331.69 469.88c.06 14.25 1.12 27.99 1.4 34.03 0 0-57.69 5.76-81.4 2.9 0 0-30.31-1.36-31.9-1.36 0 0 .39-25 .36-39.23.2-21.7.64-40.15 1.22-55.68.57-15.54-1.4-45.81 18.61-56.17 12.53-6.48 16.15-6.07 33.57-6.93 14.25-.58 34.46 1.6 42.67 9.23 10.51 9.63 11.76 30.39 13.22 50.3.96 22.45 1.69 44.21 2.25 62.91"/><path fill="#fff" d="m330.18 406.65-1.67-44.44c-15.61-11.76-33.66-13.78-37.24-14.07a.6.6 0 0 0-.63.58c.31 15.34 6.24 303.67 9.42 315.43.13.44.5.72.97.72h48.84c.57 0 1.03-.49.97-1.08l-20.66-255.42z"/><path fill="#f9c4aa" d="M307.1 312.74c-.18-.97-1.04-1.5-2.04-1.93.41-7.86-1.22-12.86-4.72-17.9-2.93-4.24-7.02-8.46-12.76-10.5-5.1-1.83-17.56-1.35-22.57.67-11.98 4.56-16.7 15.7-17.3 28.02-1.03.26-1.94.64-2.24 1.57a7.3 7.3 0 0 0-.56 4.8c.4 1.4 1.3 2.27 3.08 3.46.48 5.73 2.29 11.2 5.25 15.76l.61.93c4.65 7.14 10.88 11.3 18.33 11.3h5.87c7.4 0 14.43-4.11 19.08-11.2l1.85-2.83a34 34 0 0 0 5.2-14.67c1.52-.77 2.36-1.47 2.87-2.64.64-1.64.5-3.18.06-4.84"/><path fill="#fff" d="M267.1 306.8h17.18l12.66 1.44 8.25 2.89c7.16-21.62-16.95-35.97-33.15-35.97-17.05 0-28.64 25.29-24.22 34.64z"/><path fill="#9bcab9" d="M271.94 318.21c-21.92.68-24.35-8.92-24.35-8.92s35.23-8.84 57.68 1.58c0 0-.17 1.65-1.51 2.07-4.58 1.46-16.61 4.56-31.8 5.27z"/><path fill="#fff" d="M263.32 507.15q.03-5.41.11-10.7c1-20.22-3.05-134.47-3.95-148.05a.6.6 0 0 0-.64-.54c-8.89.88-18.7 4.26-25.24 10.49-5.57 5.3-8.51 12.7-10.13 20.09-1.62 7.38-2.02 15.14-2.18 22.77 0 .31-22.28 261.98-22.28 261.98a1 1 0 0 0 .98 1.09h61.58c.45 0 .86-.3.96-.74 2.7-10.77.21-88.7.8-156.4z"/><path fill="#68b096" d="m242.63 519.68 75.82 66.85c.65.57 1.65.47 2.16-.23l42.2-56.45c.46-.6.4-1.44-.17-1.96l-67.09-63.64a1.47 1.47 0 0 0-2.05.02l-14.34 14.12c-.38.38-.94.52-1.44.37l-6.32-1.85a1.5 1.5 0 0 0-1.48.39l-15.68 16.11a1.5 1.5 0 0 0-.3 1.64l2.37 5.31c.22.52.14 1.13-.25 1.56l-13.6 15.66c-.55.6-.48 1.54.13 2.08z"/><path fill="#f9c4aa" d="M324.3 503.37c-4.77 1.58-16.93 6.57-19.97 11.83s-3.1 6.84-2.22 17.17c.2 2.33 1.82 5.45 9.47 3.2s15.56-6.5 19.55-12.7 2.67-5.89 2.67-5.89z"/><path fill="#fff" d="M302.13 349.59c18.12 4.35 40.07 19.79 58.2 45.25 6.63 9.3 20.67 31.86 20.67 45.74-.48 35.57-40.7 75.22-45.42 81l-20.84-17.8c1.32-.8 11.43-12.4 18.86-22.18 10.36-19.31 17.02-32.34 17.02-41.02-6.44-24.53-20.34-35.52-46.08-50.85-.06-.03-8.1-4.5-12.1-10v-24.7c2.37-3.72 5.7-5.8 9.69-5.44"/><path fill="#054449" d="M306.95 381.72a9 9 0 0 0-4.67-1.25 8.16 8.16 0 0 1 16.02.7 9 9 0 0 0-4.76.87 3.33 3.33 0 0 0-6.6-.32m11.43.54a8.04 8.04 0 0 0-8.88 8.2 8.2 8.2 0 0 0 8.88-8.13zm-16.28-.71a8.2 8.2 0 0 0 6.3 8.75v-.05c0-1.51.37-3 1.08-4.32a8 8 0 0 0-7.38-4.38"/></svg>