<svg xmlns="http://www.w3.org/2000/svg" width="139" height="248" fill="none" viewBox="0 0 139 248"><path fill="#C58F79" d="M106.22 96.7c2.5-.76 9.17-2.3 11.96-.94 2.8 1.37 1.34 2.25.2 2.57-1.2.33-4.69 1.22-.15 2.32 1.97.47 4.06 1.38 5.54 2.62.93.76.97 2.25-2.97 3.6-3.94 1.36-8.55 1.93-12.03.44-3.47-1.48-2.81-1.76-2.81-1.76l.26-8.85Z"/><path fill="#054449" d="M81.56 80.43c-5.16-8.38-5.92-10.18-8.8-17.2-1.8-4.38-4.74-9.37-7.53-12.05-4.12-3.95-6.03-5.82-10.78-6.86-2.7-.6-6.53 1.4-7.32 5.57-.8 4.16 3.22 8.37 4.45 9.44 1.23 1.07 3.82 2.8 8.51 10.3 3.65 5.84 3.3 6.44 8.87 18.66 2.72 5.54 5.02 7.9 9.76 10.51 5.06 2.8 12.42 5.68 27.94 9.26a803.1 803.1 0 0 0 1.06-12.93c-18.3-5.35-23.95-11.1-26.16-14.7Z"/><path fill="#C58F79" d="M9.86 131.4c1.03 2.1 3.4 7.75 2.73 10.46-.67 2.7-1.14 3.24-4.64 6.28-.8.68-2.29 1.15-4.04-2.12-1.76-3.27-2.98-7.26-2.33-10.59.65-3.33.98-2.79.98-2.79l7.3-1.23Z"/><path fill="#054449" d="M36.32 49.42c-.07-1.95-1.35-7.44-6.54-5.84-5.34 1.64-11.1 3.73-16.6 11.65C7.87 62.83 3.33 73.03 2 92.5.54 114.17.03 134.06 0 134.38l12.8-.27c.02-.32.04-16.11 2.5-44.6.7-8.02 3-16.74 5.87-20.91 1.87-2.72 4.43-6.06 6.14-7.59 0 0 2.96-2.06 5.2-3.67 3.64-2.62 3.9-5.4 3.8-7.91Z"/><path fill="#1E1A28" d="M17.88 241.33s-1.62 4.35-1.81 5.32c-.19.84-.6 1.13 2.4 1.16 0 0 17.77.28 18.98 0 .8-.18 1.8-1.29 1.26-6.23l-20.83-.25ZM53.75 241.6s-.28 4.2.33 5.1c.62.92 1 1.5 6.45 1.2 0 0 15.39.28 15.88-.11.49-.4-2.32-6.47-2.32-6.47l-20.34.29Z"/><path fill="#DA573B" d="M16.14 108.74c-.12 8.23-1.21 51.15-1.33 55.78-.19 4.64-.31 44.09-.31 48.47 0 4.37-.13 28.4.43 29.19.55.78 23.5 1.37 24.67.52 1.17-.85 0-39.64.19-44.28.12-4.64.86-27.57.12-46.25s.6-22.13 1.04-22.13c.43 0 .8-.92 2.53 16.71 1.72 17.64 5.23 49.71 5.97 57.48.73 7.84 2.76 38.21 3.57 38.54.8.32 22.52-.07 23.26-.33.74-.26-1.17-25.6-1.42-28.41-.24-2.81-5.17-65.12-5.41-68.46-.25-3.32-2.46-38.14-2.46-38.14s-25.97.06-28.18.26c-2.28.13-22.67 1.05-22.67 1.05Z"/><path fill="#054449" d="M66.75 98c.03 6.46.52 12.7.64 15.44 0 0-26.25 2.62-37.04 1.32 0 0-13.8-.62-14.52-.62 0 0 .17-11.35.16-17.8.1-9.86.29-18.23.55-25.28.26-7.06-.64-20.8 8.47-25.5 5.7-2.94 7.35-2.75 15.28-3.14 6.49-.27 15.69.72 19.42 4.19 4.79 4.37 5.36 13.79 6.02 22.83.44 10.19.77 20.07 1.02 28.56Z"/><path fill="#E2F1DF" d="M51.37 62.26a4.09 4.09 0 0 0-2.1-.56 3.67 3.67 0 0 1 7.2.3 4.09 4.09 0 0 0-2.14.4 1.5 1.5 0 0 0-2.96-.14Zm5.14.24a3.61 3.61 0 0 0-4 3.68c2.13.2 4-1.5 4-3.65v-.03Zm-7.32-.32a3.67 3.67 0 0 0 2.83 3.93v-.03c0-.67.17-1.34.49-1.93a3.62 3.62 0 0 0-3.32-1.97Z"/><path fill="#F9C4AA" d="M55.67 27.1c-.08-.44-.47-.67-.93-.87.19-3.57-.55-5.83-2.14-8.12-1.34-1.92-3.2-3.84-5.81-4.77-2.32-.82-7.99-.6-10.26.31-5.45 2.07-7.6 7.12-7.88 12.71-.46.12-.88.3-1.01.71a3.3 3.3 0 0 0-.26 2.18c.18.63.59 1.03 1.4 1.57.22 2.6 1.04 5.09 2.39 7.15l.28.42c2.12 3.24 4.95 5.13 8.34 5.13h2.67c3.37 0 6.56-1.87 8.68-5.09l.84-1.28a15.4 15.4 0 0 0 2.36-6.65c.7-.35 1.08-.67 1.3-1.2.3-.74.24-1.44.03-2.2Z"/><path fill="#1E1A28" d="M57.15 28.31a59.12 59.12 0 0 0-2.45-7.38A13.19 13.19 0 0 0 48.52 14c-1.61-.9-3.1-1.66-4.89-1.87a12.9 12.9 0 0 0-2.06-.16c-3.92 0-8.25 2.2-10.34 5.27a26.12 26.12 0 0 0-2.46 4.04c-1.02 2-2.17 4.97-2.8 7.11l-1.54 5.56c.57 1.3 3.43 2.21 5.5 1.63-.62-1.48-1-3.09-1.14-4.74-.81-.54-1.22-.94-1.4-1.57a3.3 3.3 0 0 1 .26-2.17c.13-.42.54-.6 1.01-.71v-.03a12.98 12.98 0 0 0 13.8-7.53c2.01 4.8 6.65 8.24 11.81 7.44.16-.03.31-.04.47-.05v.04c.45.2.84.43.92.87.2.75.27 1.45-.02 2.2-.23.52-.61.84-1.3 1.19a15.8 15.8 0 0 1-1.42 4.96c2.04.4 3.81.85 5.5-.88l-1.27-6.28Z"/><path fill="#9ECCED" d="m114.19 18.33 4.03 7.45c4.28 8.34 8.8 16.51 12.84 24.93 3.48 7.14 6.38 14.6 7.5 22.53.66 4.17.57 8.42-.23 12.59-1.13 5.85-4.53 10.02-9.6 12.82-8.32 4.66-16.72 4.73-25.04-.08-3.14-1.76-6.21-3.69-8.4-6.65a20.88 20.88 0 0 1-4.2-11.7c-.32-7.3 1.54-14.2 3.48-21.17 1.21-4.33 3.23-8.34 5.17-12.42 3.96-8.18 8.15-16.28 12.2-24.46.64-1.04 1.28-2.08 2.25-3.84Z"/></svg>