<svg xmlns="http://www.w3.org/2000/svg" width="621" height="1085" viewBox="0 0 621 1085"><path fill="#1E1A28" d="M103.9 1055.39s-7.1 19.02-7.92 23.25c-.8 3.65-2.58 4.95 10.48 5.07 0 0 77.53 1.22 82.82 0 3.5-.81 7.85-5.65 5.5-27.22l-90.89-1.1h.01ZM260.4 1056.6s-1.26 18.29 1.44 22.28c2.7 3.98 4.32 6.55 28.13 5.24 0 0 67.14 1.21 69.27-.51 2.13-1.73-10.1-28.28-10.1-28.28l-88.75 1.27Z"/><path fill="#0C4FA1" d="M96.3 476.1c-.54 35.96-5.3 223.46-5.83 243.7-.81 20.27-1.35 192.63-1.35 211.75 0 19.12-.54 124.12 1.87 127.54 2.42 3.42 102.57 5.99 107.67 2.28 5.1-3.7 0-173.2.8-193.47.54-20.27 3.76-120.42.54-202.04-3.23-81.62 2.63-96.72 4.52-96.72 1.9 0 3.53-4.01 11.05 73.04 7.52 77.05 22.82 217.17 26.04 251.12 3.22 34.25 12.08 166.95 15.58 168.37 3.5 1.43 98.28-.28 101.5-1.42 3.22-1.14-5.11-111.88-6.17-124.15-1.07-12.28-22.56-284.51-23.63-299.07-1.07-14.54-10.74-166.65-10.74-166.65s-113.31.27-122.97 1.14c-9.94.56-98.89 4.56-98.89 4.56h.02l-.02.02Z"/><path fill="#054449" d="M317.27 429.16c.13 28.25 2.25 55.5 2.8 67.47 0 0-114.56 11.43-161.64 5.76 0 0-60.22-2.7-63.35-2.7 0 0 .75-49.6.7-77.8a4049.9 4049.9 0 0 1 2.41-110.43c1.14-30.82-2.78-90.85 36.97-111.4 24.89-12.85 32.06-12.03 66.66-13.74 28.3-1.14 68.45 3.18 84.75 18.3 20.87 19.1 23.35 60.27 26.25 99.76 1.91 44.53 3.34 87.7 4.46 124.78Z"/><path fill="#C58F79" d="m508.92 374.22 7.42 37.86s-2.58 1.8 13.85 4.74c16.44 2.95 35.8-3.98 51.52-13.56 15.7-9.57 14.09-15.85 9.37-18.21-7.58-3.8-17.49-5.63-26.5-5.75-20.6-.25-6.4-7.4-1.56-9.98 4.63-2.48 10.07-7.64-3.32-10.74-13.4-3.1-40.68 9.96-50.77 15.65l-.01-.01Z"/><path fill="#054449" d="M239.07 255.03c3.34 7.87 9.98 17.92 36.86 45.68 20.94 21.63 20.73 31.86 57.09 65.77 19.92 18.58 31.98 31.11 58.84 39.23 22.16 6.7 72.12 17.49 127.14 19.12-.9-9.67-6.31-59.7-6.31-59.7-41.72-3.15-95.14-18.02-107.2-22.31-7.01-2.5-21.38-14.95-27.9-21.83-25.52-31.03-26.9-36.71-45.55-64.04-11.67-17.08-24.17-37.32-38.05-47.32-9.94-7.51-14.38-10.27-21.17-13.09-6.8-2.81-24.36-5-35.69 14.64-9.87 17.1-1.42 35.92 1.94 43.84Z"/><path fill="#C58F79" d="M268.92 118.43c-.35-1.93-2.06-2.97-4.05-3.82.82-15.59-2.43-25.49-9.36-35.5-5.82-8.38-13.95-16.75-25.34-20.82-10.1-3.61-34.84-2.66-44.78 1.35-23.78 9.04-33.14 31.13-34.36 55.53-2.03.52-3.83 1.28-4.42 3.11-1.3 3.11-1.97 6.07-1.12 9.5.8 2.78 2.57 4.52 6.1 6.88.97 11.36 4.55 22.22 10.43 31.23l1.22 1.85c9.23 14.16 21.59 22.4 36.37 22.4h11.65c14.7 0 28.64-8.15 37.87-22.22l3.68-5.6c5.52-8.38 9.06-18.43 10.31-29.07 3.02-1.52 4.7-2.91 5.7-5.23 1.28-3.26 1-6.3.1-9.59Z"/><path fill="#1E1A28" d="M264.5 102.53c-2.34-20.64-13.66-38.17-35.92-45.4-11.35-3.68-25.26-5.46-37.23-2.5-1.23.3-2.1.18-4.35.66-20.43 4.36-42 31.75-37.34 56.67.24 1.2.51 2.38.81 3.53 2.2-.02 4.7.55 6.65-.63 10.07-6.08 23.84-20.3 29.83-36.13 7.33 27.49 52.9 39.36 73.72 37.46 1.75-.17 3.3-.97 4.94-1.55-.04-3.68-.68-8.36-1.1-12.1Z"/><path fill="#F9CC76" d="M115.02 578.58c-.91-.7-3.73-4.94-4.08-6.12-5.36-17.9 15.86-68.85 23.2-87.54 35.11-89.18 83.56-177.16 126.35-263.08 14.96-30.06 35.21-85.43 59.33-107.26 9.56-8.66 17.25-.58 24.56 7.27 34.75 37.44 66.92 97.1 96.2 140.61C495.12 343.48 554 421.72 604.63 505.27c4.98 8.25 13.85 15.69 13.81 26.01-.02 8.2-5.51 15.44-13.56 16.94-23.12 4.31-395.15 26.9-449.5 31.46-8.86.75-33.75 4-40.37-1.14v.04Z"/><path fill="#C58F79" d="M112.23 495.54c9.44 3.14 33.52 13 39.52 23.41 6 10.4 6.14 13.54 4.4 33.99-.39 4.61-3.6 10.78-18.74 6.31-15.13-4.46-30.8-12.84-38.7-25.1-7.9-12.28-5.28-11.67-5.28-11.67l18.79-26.94Z"/><path fill="#054449" d="M182.07 221.56c-2.89-18.82-12.56-31.52-25.96-30.33-35.85 8.62-79.3 39.17-115.2 89.55C27.8 299.17 0 343.82 0 371.28c.94 70.4 80.55 148.85 89.91 160.31l41.24-35.25c-2.62-1.58-22.62-24.52-37.33-43.87-20.5-38.22-33.68-64-33.68-81.18 12.75-48.54 40.25-70.28 91.21-100.62 0 0 17.69-9.78 25.08-21.44 6.84-10.76 7.1-18.17 5.63-27.67h.01ZM329.04 422.52c-9.12-93.5-8.92-95.45-14.36-189.09.2-2.12 2.58-4.06 4.55-4.54 8.72-1.4 31.9-4.65 36.76 2.51 1.19 1.76 2.3 9.12 2.64 11.74 7.54 56.36 9.68 142.98 8.85 171.67-.19 6.38-1.1 15.04-8.1 17.54-5.05 1.8-28.05 1.58-30.34-9.81v-.02Zm34.35 38.63c-6.28-5.85-17.93-4.12-24.87-.26-12.9 7.19-16.72 31.06-3.6 39.63 17.06 11.15 46.86-1.36 40.69-23.42-1.74-6.24-9.7-13.61-12.22-15.97v.02Z"/></svg>