<svg xmlns="http://www.w3.org/2000/svg" width="815" height="801" fill="none" viewBox="0 0 815 801"><path fill="#68b096" d="M679.94 552.85v64.36c21.12-57.97 63.96-79.63 121.88-77.7 8.24 58.27-42.35 112.57-120.56 125.41v73.17c3.94-7.91 6.65-14.08 9.95-19.86 24.51-42.98 69.22-61.31 121.74-61.97 6.77 37.01-17 89.38-52.87 113.69-63.28 42.88-150.26 41.57-198.64-11.75-25.23-27.89-37.09-60.84-37.91-98.18 43.39-11.12 95.79 16.2 131.94 88.32v-80.1c-33.1-2.94-64.08-11.26-87.02-36.88-22.63-25.28-30.12-56.54-32.07-89.58 38.47-8.22 98.76 22.05 119.86 90.07v-78.98c0-.2-.08-1.54.47-1.77.55-.24 22.3.13 22.8.17.53.04.41 1.21.41 1.6z"/><path fill="#f9cc76" d="M805.97 395.47c-9.5 40.19-37.13 68.32-66.14 94.79-12.13 11.05-26.07 20.44-40.1 29.04-18.27 11.21-38.48 12.7-57.52 2.95-47.78-24.49-87.91-57.62-111.37-107.76a109 109 0 0 1-8.35-27.2c-2.85-16.27 6.56-23.19 26.15-22.12 31.1 1.72 57.26 30.37 79.55 57.72.6-20.43.27-44.95 3.96-64.75 2.81-14.93 9.39-27.35 18.66-39.87 7.81-9.7 17.59-14.65 29.94-.27 10.64 11.91 14.5 23.35 16.32 35.8 3.3 22.04 3.26 44.55 4.61 66.58 19.74-23.57 42.42-46.94 75.93-54.23 9.33-2.03 22.52-1.64 27.14 3.43 4.61 5.07 3.51 16.18 1.22 25.89"/><path fill="#c58f79" d="M239.58 163.58c-3.03-7.87-12.32-27.8-21.33-32.16s-8.34 1.08-6.89 4.61c1.53 3.68 6.2 14.26-5.55 4.98-5.14-4.06-11.58-7.55-17.63-8.84-3.76-.8-7.6 2.03-3.23 14.7 4.38 12.65 12.07 25.46 22.72 31.31s10.03 3.63 10.03 3.63z"/><path fill="#0c4fa1" d="M382.54 233.47c40.17-21.5 67.77-39.41 72.33-60 1.92-8.7-1.45-21.53-13.12-27.73-9.97-5.3-18.33-3.99-25.6-.95-6.8 2.84-9.53 5.36-13.35 8.08-25.76 18.38-41.7 38.19-84.14 53.93-11.87 4.4-36.05-13.86-54.53-29.39-9.3-7.82-20.63-18.11-22.52-20.91l-30.3 27.98c7.49 7.92 48.09 59.13 98.82 70.18 19.76 4.3 57.77-13.35 72.43-21.19z"/><path fill="#1e1a28" d="M539.98 778.52s5.23 14.02 5.83 17.13c.6 2.7 1.9 3.65-7.71 3.74 0 0-57.09.9-60.98 0-2.57-.6-5.78-4.16-4.04-20.06zM424.77 779.4s.92 13.49-1.07 16.42-3.18 4.83-20.7 3.87c0 0-49.44.89-51.01-.38s7.44-20.84 7.44-20.84z"/><path fill="#cde5f2" d="M545.58 351.6c.4 26.5 3.9 164.68 4.29 179.6.6 14.94 1 141.96 1 156.05s.4 91.47-1.38 94c-1.79 2.52-75.52 4.4-79.27 1.68s0-127.65-.6-142.59c-.39-14.93-2.76-88.74-.39-148.9 2.38-60.14-1.94-71.27-3.33-71.27s-2.6-2.96-8.13 53.83-16.8 160.04-19.17 185.06c-2.38 25.24-8.9 123.04-11.48 124.09-2.57 1.05-72.35-.2-74.72-1.05-2.37-.84 3.76-82.45 4.54-91.5s16.6-209.67 17.4-220.4c.79-10.72 7.9-122.82 7.9-122.82s83.43.2 90.54.84c7.31.42 72.8 3.37 72.8 3.37h-.01z"/><path fill="#c58f79" d="M533.37 365.93c-6.95 2.32-24.67 9.58-29.1 17.25-4.41 7.66-4.51 9.98-3.24 25.05.3 3.4 2.66 7.94 13.8 4.65s22.68-9.46 28.5-18.5c5.82-9.05 3.88-8.6 3.88-8.6z"/><path fill="#0c4fa1" d="M481.95 164.01c2.13-13.86 9.25-23.22 19.11-22.34 26.4 6.35 58.4 28.86 84.83 66 9.64 13.54 30.11 46.45 30.11 66.69-.7 51.88-59.3 109.7-66.2 118.14l-30.36-25.98c1.93-1.16 16.66-18.07 27.48-32.33 15.1-28.17 24.8-47.17 24.8-59.83-9.38-35.77-29.63-51.8-67.15-74.15 0 0-13.02-7.21-18.46-15.8-5.04-7.93-5.23-13.4-4.15-20.4z"/><path fill="#0c4fa1" d="M544.19 317.02c.1 20.82 1.65 40.9 2.06 49.72 0 0-84.35 8.42-119.01 4.24 0 0-44.34-1.98-46.64-1.98 0 0 .55-36.56.51-57.34.3-31.72.94-58.68 1.78-81.39.84-22.7-2.05-66.95 27.22-82.1 18.32-9.46 23.6-8.86 49.08-10.12 20.83-.84 50.39 2.34 62.4 13.49 15.35 14.08 17.18 44.41 19.32 73.52 1.4 32.81 2.46 64.62 3.29 91.95z"/><path fill="#c58f79" d="M509.2 87.28c-.27-1.42-1.53-2.19-3-2.82.6-11.48-1.78-18.78-6.89-26.15-4.28-6.18-10.26-12.35-18.65-15.35-7.44-2.66-25.65-1.96-32.97 1-17.5 6.66-24.4 22.94-25.3 40.92-1.49.39-2.81.94-3.25 2.3-.96 2.29-1.45 4.47-.82 7 .58 2.04 1.88 3.32 4.5 5.07a50 50 0 0 0 7.67 23l.9 1.37c6.79 10.44 15.89 16.52 26.77 16.52h8.58c10.82 0 21.08-6.02 27.88-16.38l2.7-4.13a50 50 0 0 0 7.6-21.43c2.22-1.12 3.45-2.14 4.2-3.85.94-2.4.74-4.64.08-7.07"/><path fill="#1e1a28" d="M521.15 69.34c-2.27-8.85-12.5-13.36-12.5-13.36s6.34-7.72-1.59-13.36-14.45-2.37-14.45-2.37.18-6.75-9.5-10.4c-9.69-3.64-15.87 1.79-15.87 1.79s-7.4-5.34-17.26-1.79c-9.88 3.57-9.49 10.7-9.49 10.7s-15.36-1.19-21.53 7.12c-6.16 8.31 0 14.85 0 14.85S408.4 66.1 408.4 75s10.57 12.76 10.57 12.76l3.07-2.8q1.26-.25 2.52-.56c13.18-3.24 23.75-10.04 29.82-18.15 10.92 10.04 26.97 15.77 43.76 15.12 1.65 3.86 4.53 7.9 9.38 7.9 15.32 0 15.5-12.72 13.65-19.9zM396.4 779.57s5.16 13.7 5.74 16.75c.58 2.63 1.87 3.57-7.6 3.65 0 0-43.9.88-47.73 0-2.53-.59-5.81-4.63-4.1-20.17l53.6-.8.09.56zM247.67 778.12c-1.97 5.15-7.44 19.82-6.4 20.69l.04.02c.18.14 1.07.25 2.46.33l44.1.02v-.03c4.37-.43 5.16-1.62 6.2-3.2 1.43-2.1 2.67-14.85 2.94-17.84h-49.34"/><path fill="#7f433b" d="m370.6 689.9 16.89-6.36s.03-1.55 5.5 4.66c5.46 6.23 7.82 16.16 8.13 25.2.32 9.07-3.41 9.92-5.91 9.43-11.12-2.11-12.78-2.65-17.51-7.54s-6.72-19.71-7.12-25.42h.02l.02.02h-.02M210.55 653.58l11.9 18.27s1.84-.37-4.06 7.7c-5.91 8.07-17 13.43-27.6 16.19-10.58 2.75-12.55-1.42-12.66-4.5-.43-13.66-.22-15.75 4.3-22.61 4.53-6.87 21.48-13.08 28.1-15.05v.03-.02z"/><path fill="#f9cc76" d="M369.26 618.8c-5.4-13.58-23.93-19.67-37.6-21.57-2.22-.3-4.47-.6-6.71-.65 0 0-14.94-.45-18.16-1.28-7.31-1.9-22.53 2.86-34.62 10.04-5.64 3.42-9.26 5.52-12.21 7.69 0 0-53.94 35.58-68.3 45.07-.62.4 15.05 34.59 15.05 34.59l51.35-20.4 1.36 12.7 84.04-1.2 31.24 17.37 23.66-9.44v-.02c-.05-.15-29.1-72.86-29.1-72.9"/><path fill="#da573b" d="M401.23 780.78 400.1 777l-58.83-177.83q-.01 0-.05-.02a84 84 0 0 0-14.1-2.43l-.02.02 9.85 51.13-41.42 5.61s-9.98-38.85-13.3-53.22a89 89 0 0 0-10.08 5.1l-2.23 1.35 6.69 52.3-18.6 13.38-16.43 109.66c-.1.7.43 1.3 1.12 1.3h55.43c.62 0 1.19-.43 1.33-1.03l12.83-54.2a1.35 1.35 0 0 1 2.55-.24l24.26 54.73c.22.5.72.81 1.27.8h59.73c.92 0 1.4-1.73 1.12-2.6z"/><path fill="#7f433b" d="M350.03 562.12c.21 2.42 0 4.57-1.31 6.67a6.3 6.3 0 0 1-3.19 2.4 44 44 0 0 1-3.29 9.94l-2.03 4.31c-5.09 10.82-14.1 18.01-24.5 19.53l-8.23 1.2c-10.46 1.53-20.05-2.98-28.04-11.97l-1.05-1.17a47.7 47.7 0 0 1-10.58-20.85c-2.75-1.29-4.18-2.33-5.02-4.2-.95-2.32-.79-4.46-.18-6.8.23-1.35 1.43-2.06 2.81-2.65-1.65-17.26 2.7-33.74 18.59-42.54 6.62-3.85 24.02-7.08 31.54-5.6 8.48 1.68 15.08 6.7 20.07 12 5.94 6.3 9.25 12.93 10.27 23.94 1.5.39 2.81.94 3.26 2.27.97 2.22 1.48 4.33.9 6.75a6.4 6.4 0 0 1-2.36 3.39q0 .07-.03.12c1.29.86 2.36 1.81 2.36 3.19l.02.03v.03z"/><path fill="#1e1a28" d="M359.28 543.17c-2.14-8.3-11.72-12.53-11.72-12.53s5.96-7.25-1.48-12.51c-7.44-5.3-13.56-2.21-13.56-2.21s.15-6.33-8.93-9.74-14.88 1.67-14.88 1.67-6.93-5.01-16.2-1.67c-9.26 3.36-8.9 10-8.9 10s-14.42-1.1-20.2 6.68c-5.78 7.79 0 13.9 0 13.9s-9.91 3.37-9.91 11.7 9.91 11.97 9.91 11.97l2.87-2.63q1.19-.23 2.36-.53c12.35-3.03 22.29-9.41 27.98-17.02 10.26 9.4 25.3 14.79 41.07 14.18 1.55 3.62 4.24 7.4 8.81 7.4 14.37 0 14.55-11.91 12.79-18.66l.02-.02h-.04zM217.82 594.49c-3.63-.25-9.13-.65-12.36-2.26-4.68-2.26-7.77-7.41-11.25-11.03-17.36-17.88-44.31-17.74-61.03 1.29-3.66 4.19-6.28 10.56-7.58 17.7-13.37 4.47-23.97 16.26-25.73 31.23 9.24 2.3 18.55.97 26.49-3-13.01 35.92-31.74 45.34-31.74 45.34-13.58 10.71-29.82 18.84-40.32 32.56-13.26 17.34-17.86 40.95-10.74 61.83.57 1.76 2.9 7.35 3.38 8.2-10.75-4.97-20.78-8.3-26.35-17.22-3.55-5.8-5.42-20.78-5.32-30.88 0-2.26-12.21-5.48-14.37 9.5-2.2 14.96-2.73 41.65 27.24 53.44 25.88 10.06 47.69 8.63 53.4 8.77h53.08a3.24 3.24 0 0 0 3.24-3.22v-5.66c0-2.83-.8-5.55-2.34-7.88-1.62-2.5-3.8-3.8-6.14-5.3.46.32 8.4-5.3 10.81-7.02l5.29 26.76a3.3 3.3 0 0 0 2.9 2.36h59.38a3.24 3.24 0 0 0 3.23-3.22v-5.49c0-4.83-3.95-8.7-8.73-8.7h-2.02c-2.51-9.1-6.4-23.79-7.9-31.67-4.2-21.85-6.15-80.35-6.3-82.53-.78-11.54-4.77-21.53 7.52-28.44 7.58-4.2 16.31-7.42 24.08-11.43 6.14-3.23 10.6-7.24 12.36-14.12v-14.58c0-4.44-9.2-5.15-12.22-5.3zm-48.3 188.17h-.07q-.72-.5-1.23-1.68c-.72-2.08-3.55-20.31-4.02-26.51 1.62-1.22 3.23-2.44 4.67-3.62 1.12 9.1 6.4 31.85 6.4 31.85h-5.75z"/></svg>