<svg xmlns="http://www.w3.org/2000/svg" width="378" height="800" fill="none" viewBox="0 0 378 800"><path fill="#c58f79" d="M103.4 739.2c.6-27.3 5-184.34 5.69-209.52a2.6 2.6 0 0 1 2.58-2.52c5.02-.01 14.34-.04 19.33-.03a2.6 2.6 0 0 1 2.58 2.58c.02 25.35.58 181.78.53 209.4a3.9 3.9 0 0 0 3.89 3.88h14.59a3.9 3.9 0 0 0 3.89-3.85c.23-27.55 2.53-184.65 2.77-209.48a2.6 2.6 0 0 1 2.56-2.55c5.29-.04 15.38-.06 20.85 0 1.4 0 2.53 1.13 2.55 2.53.47 25.08 3.58 182.85 3.95 209.52a3.9 3.9 0 0 0 3.9 3.83h14.03c2.16 0 3.9-1.76 3.88-3.93-.25-28.38-.75-185.66-.75-209.4a2.6 2.6 0 0 1 2.52-2.59c5.22-.12 16.97-.37 22.43-.23 1.4.03 2.51 1.17 2.52 2.57.1 22 1.55 180.93 1.7 209.7a3.9 3.9 0 0 0 3.89 3.87h15.12a3.9 3.9 0 0 0 3.89-3.85c.38-38.22 2.73-192.38 1.19-214.42-1.87-26.7-8.12-31.57-26.05-32.65-.3 0-34.1.23-47.08.07a2.6 2.6 0 0 1-2.55-2.74l19.35-341.1c3.17-16.2 16.84-27.18 25.57-40.37 10.3-15.57 17.65-33.04 22.32-51.08 3.63-14 9.66-36.13-1.94-47.74l.03.03c-3.82-2.94-22.08-5.42-55.79-7.57-50.06-3.17-53.11-.72-54.63.45-10.69 8.33-7.72 28.3-8.47 40.16-1.26 19.6 9.86 40.92 24.52 66.74 8.48 14.93 12.38 26 13 36.84-.19 3.24-16.62 308.23-18.58 343.95a2.55 2.55 0 0 1-2.53 2.41c-8.05.05-34.03.18-42.17-.02-11.57-.19-24.06 7.65-25.51 25.8-.79 10.52-1.68 191.3-1.97 221.18a3.9 3.9 0 0 0 3.89 3.93H99.5a3.9 3.9 0 0 0 3.89-3.8M167.27 66l-.51-1.34c-6.14-16.1-7.06-23.66-6.74-27.15.05-.65.6-1.14 1.29-1.18q.82-.04 1.9-.04c13.92 0 58.69 4.22 67.18 6.43.53.14.9.53.98 1.02.92 6.45-1.71 23.07-7.79 33.39l-1.33 2.3c-6.55 11.27-13.34 22.93-24.5 21.61-11.37-1.31-23.94-18.63-30.49-35.05z"/><path fill="#7f433b" d="M372.87 800c2.86 0 5.13-2.3 5.13-5.1V787c0-53.7-41.72-97.74-94.74-101.7-2.13-.18-4-1.31-5.1-3.17A102.6 102.6 0 0 0 189.8 632c-37.64 0-72.86 21.6-90.22 53.41a6.4 6.4 0 0 1-5.04 3.35C41.44 694.22 0 738.83 0 793.13v1.75a5.1 5.1 0 0 0 5.13 5.1h367.72z"/></svg>
