<svg xmlns="http://www.w3.org/2000/svg" width="145" height="812" fill="none" viewBox="0 0 145 812"><path fill="#7F433B" d="M.09 811.82h12.04s1-71.98 1.5-84.01c.51-12.04 2.26-89.78 2.26-97.3 0-7.52 1.26-8.52 5.27-8.27s15.8 0 20.06.5c4.26.5 4.76 1.26 4.26 8.27-.5 7.02-.75 101.82-.75 119.12 0 17.3.5 61.7.5 61.7h12.04s.76-76.25.26-93.3c-.5-17.05 1.25-86.27 1.25-91.28 0-5 2.76-4.76 5.27-4.76s17.8 0 22.14.25c4.33.25 3.7 2.75 3.44 6.77-.25 4 0 65.7.5 90.27.5 24.59 1.94 91.9 1.94 91.9l11.8.24c.5-7.53-2.2-173.13-2.06-180.4.14-7.27.36-9.79 3.87-9.79 3.5 0 16.8.5 20.8 1.51 4.02 1 2.76 6.28 2.76 8.03 0 1.75-.5 74.72-.25 86.51.25 11.8.5 92.3.76 93.5.25 1.23 12.52 0 12.52 0s1.75-163.49.23-185.86c-1.51-22.36-6.2-22.36-18.53-23.13-12.34-.77-36.78-1.54-36.78-1.54s4.39-143.44 5.16-161.18c.78-17.74 15.43-279.95 14.65-307.72-.77-27.75 6.18-30.84 13.89-42.41 7.71-11.58 21.03-44 22.36-57.85.75-7.79 2.4-20.36-2.94-24.55C134.98 2.84 55-1.86 51.84.76c-3.14 2.62-2.62 16.24-3.66 33-1.05 16.78 7.33 35.12 18.33 55.02 11 19.92 10.86 29.94 10.86 43.27 0 13.32-15.34 468.86-15.34 468.86s-31.35.25-42.13 0c-10.78-.25-16.55 8.78-17.3 18.56-.76 9.78-2.43 112.29-2.56 133.9-.12 21.62.05 58.45.05 58.45ZM65.47 53.66c-5.24-14.14-7.34-24.1-5.24-28.81 2.1-4.72 31.98-1.2 37.2-.53 14.7 1.9 29.35 2.1 30.92 7.34 1.57 5.24-.52 22.54-6.82 33.53-6.28 11.01-13.1 24.64-26.2 23.06-13.1-1.57-24.63-20.44-29.87-34.59Z"/></svg>