<svg xmlns="http://www.w3.org/2000/svg" width="941" height="786" fill="none" viewBox="0 0 941 786"><path fill="#C58F79" d="M545.54 347.53c-.45-5.62.95-8.4-1.13-17.52-2.09-9.13-12.82-59.12-13.75-71.7-.92-12.6-.33-53.67 5.33-82.16 6.1-30.75 9.62-54.76 26.92-78.16 17.3-23.37 30.95-34.68 42.42-35.08 23.15-.78 83.68-3.94 118.2.69 34.53 4.62 43.75 7.37 44.44 8.06.68.68 3.1 8.27 3.1 8.27s3.5-.24 6.07-4.2c2.56-3.95 17.27-60.25 24.76-70.07 7.49-9.79 13.3-4.45 22.4-1.9 9.1 2.57 31.77 15.37 39.45 25.87 7.68 10.5 15.4 31.1 15.62 39.73.2 8.63 5.83 16.1-7.73 20.79-13.55 4.69-48.82 9.79-52.56 12.13-3.74 2.35-9.81 7.02-11.23 10.29 0 0 8.2 1.04 9.12 2 .92.92 16.97 33.91 21.35 60.75 4.41 26.83 11.1 77.01 10.85 85.64-.23 8.63-11.99 46.96-17.81 54.19-5.83 7.23-16.6 13.77-49.49 25.27-32.91 11.5-94.55 29.77-102.46 31.66-7.92 1.88-20.21 1.93-36.16 1.29-8.04-.34-20.1.42-37.82 0-17.73-.45-24.5-2.52-32.68 1.44-8.18 3.98-8.41 4.22-14.46 0-6.06-4.2-3.96-6.75 0-12.6 3.96-5.84 6.07-8.42 6.07-8.42s-7.47 2.34-11.19 1.42c-3.72-.93-7.67-7.68-7.67-7.68h.04Z"/><path fill="#7F433B" d="M940.44 544.8c-14.76 5.28-45.16 10.6-57.49 6.94-17.1-5.07-26.8-20.3-39.88-35.53-7.01-8.16-25.5-21.38-35.7-29.33-8.56-6.66-42.05-18.46-54.28-20.12-14.88-2.04-48.48-3.41-84.14-1.26-28.54 1.76-60.36 3.77-71.71 2.16-11.4-1.61-58.87-14.25-67.66-18.77-6.5-3.32-15.85-8.2-23.44-15.41-7.65-7.75-17.63-18.59-19.8-21.83-3.13-4.55-17.64-30.04-22.75-34.73-.74-.69-2.23-2.04-4.18-3.77 2-1.47 3.42-2.51 3.77-2.89 2.04-1.87 3.41-6.28 1.14-10.67-2.27-4.38-9.08-11.85-12.44-14.15-4.4-3.03-22.54-13.98-30.29-15.22-4.9-.78-6.32 2.4-6.73 5.55-.28-.05-.35 0-.52 0-4.22-.12-31.94 3.86-35.83 5.76-3.88 1.9-21.73 23.5-24.12 24.25-2.4.74-36.05 7.06-39.2 8.32-3.15 1.26-4.1 3.44-3.31 9.17.78 5.72 3 21.9 5.11 25.04 2.11 3.12 8.44 9.76 16.21 12.01 7.78 2.28 36.97 8.66 43.49 13.99 6.56 5.36 14.76 19.6 17.27 28.85 2.4 8.77 7.66 25.53 12.44 43.45.57 3 1.19 6.56 1.95 11.07 2.67 15.57 11.8 40.77 18.76 52.57 5.67 9.58 15.93 32.83 20.43 44.95h-.28c2.34 6.61 5.07 13.91 6.73 34.2 2.34 28.92 6 75.83 6.04 82.61 0 7.94-2.75 17.61-6.11 29.09-.8 2.8-3.58 3.48-4.79 5.71-2.06 3.72-2.06 9.65-1.61 12.9.45 3.36 3.03 5.3 4.98 5.3h18.83c.5 0 2.75-.5 3.58-2.06 4.13-8.1 15.17-36.08 15.86-42.64 1.54-14.32 8.15-84.15 10.56-109.99.93.07 1.9.12 2.85.21 2.3 15.17 5.3 35.06 5.8 38.78.74 5.93 6.92 52.46 7.75 62.23.69 8.22-2.39 30.5-4.1 32.54-1.32 1.6-2.03 2.28-2.96 3.77-2.18 3.44-1.99 7.54-1.42 12.5.28 2.22 2.32 4.57 4.1 4.57h20.52c1.75 0 4.27-2.28 5.14-4.1 3.37-6.73 11.3-44.87 11.54-49.54.24-4.96 2.56-71.97 3.99-100.41 30.85-1.54 93.5-4.56 130.28-6.57 14.08 32.4 33.44 77.44 35.03 82.75 1.3 4.39 1.47 16.55 1.37 24.96-.05 6.26-7.77 29.04-8.27 30.72-.5 1.66-3.44 3.3-5.12 6.5a11.87 11.87 0 0 0-1.13 8.65c.8 3.53 1.9 7.06 4.38 7.06h20.38c4.67 0 6.5-7.65 6.5-7.65s20.18-73.15 20.18-78.63c0-5.14-6.9-40.01-7.77-46.13 13.25 23.82 25.57 46.37 27.1 50.51 1.6 4.3 2.85 18.14 2.85 24.99 0 6-5.66 33.26-6.56 34.73-.86 1.49-2.8 2.96-4.22 5.64-1.33 2.44-1.94 6.97-1.59 11.52.21 2.56 2.47 5.02 4.39 5.02h20.83c5.38 0 6.2-6.85 6.2-6.85s16.43-77.32 16.43-83.46c0-6.14-7.78-46.34-7.92-51.03-.07-4.15 7.3-36.51 8.56-44.66 1.13-6.12 1.7-23.14 1.7-23.14.45-12.16-2.03-37.8-2.03-38.04 6.73 8.43 15.97 19.2 23.83 24.79 10.79 7.66 23.72 17.45 39.32 18.66 15.62 1.2 39.48-5.48 45.69-7.64 19.38-6.68 15.56-28.73 15.56-28.73l-.04-.05h-.03Z"/><path fill="#68B096" d="M206.7 683.24c-4.05 7.12-7.35 14.73-12.2 24.49l-1.6-53.04h-.03c0-.46.14-1.9-.5-1.95-.63-.04-27.27-.5-27.94-.2-.66.3-.57 1.95-.57 2.18l-.94 65.64C118.64 631.43 54.44 597.76 1.27 611.49c1 46.03 15.52 86.66 46.46 121.02 59.28 65.73 165.83 67.34 243.37 14.5 43.96-29.98 73.06-94.52 64.77-140.16-64.35.83-119.11 23.43-149.15 76.4h-.03Z"/><path fill="#F9CC76" d="M356.03 239.06c-11.92 50.71-46.55 86.18-82.91 119.57-15.2 13.94-32.69 25.8-50.28 36.64-22.92 14.15-48.26 16-72.12 3.72-59.9-30.9-110.22-72.7-139.62-135.93C6.09 252.3 2.64 240.5.62 228.77c-3.56-20.53 8.23-29.26 32.8-27.9 39 2.15 71.78 38.3 99.73 72.8.76-25.77.34-56.7 4.98-81.7 3.52-18.83 11.76-34.5 23.39-50.27 9.8-12.24 22.04-18.5 37.55-.35 13.34 15.03 18.17 29.47 20.46 45.16 4.14 27.81 4.1 56.2 5.8 84 24.73-29.73 53.16-59.22 95.2-68.4 11.69-2.56 28.22-2.07 34.01 4.31 5.79 6.39 4.41 20.42 1.52 32.66l-.03-.02Z"/><path fill="#68B096" d="M326.8 469.09c-63.6-2.14-110.64 21.8-133.84 85.83V483.8c0-.41.14-1.7-.46-1.75-.3 0-6.89-.13-13.23-.23v135.7l15.16-3.86v-6.06c85.88-14.2 141.44-74.19 132.39-138.57l-.02.05ZM31.72 469.09c63.6-2.14 110.64 21.8 133.84 85.83V483.8c0-.44-.14-1.72.46-1.77.3 0 6.89-.14 13.23-.23v135.7l-15.16-3.86v-6.06C78.2 593.38 22.65 533.38 31.7 469.02l.02.07Z"/><path fill="#68B096" d="m196.63 621.78-1.28-181.1h-.02c0-.51.16-2.14-.58-2.21-.71-.05-30.73-.57-31.49-.25-.76.32-.64 2.2-.64 2.45l-.9 229.71-.36 113.78c11.82.53 23.81.1 35.8-1.28l-.53-161.12v.02Z"/></svg>