<svg xmlns="http://www.w3.org/2000/svg" width="827" height="774" fill="none" viewBox="0 0 827 774"><path fill="#9ECCED" d="M529.27 3.65C585.26-10.6 642.2 23.24 656.45 79.22l.39 1.6a69.75 69.75 0 0 1-12.8 118.5c3.47 6.8 6.25 14.1 8.21 21.81 14.25 55.98-19.58 112.92-75.57 127.17a104.36 104.36 0 0 1-84.79-14.98c-16.12 33.29-48.69 60.5-90.51 71.15-70.04 17.83-139.51-17.57-155.17-79.07-13.8-54.19 18.8-110.55 74.66-135.38a94.64 94.64 0 0 1 63.67-128.96 94.35 94.35 0 0 1 71.5 10.23 104.52 104.52 0 0 1 73.23-67.64Z"/><path fill="#116E6B" d="M761.39 235.1s-118.47-7.6-119.03-7.33c-77.46 25.96-156.99 46.19-233.4 75.15-1 .35-2.2.44-3.2.03l-247.5-93.11a3.87 3.87 0 0 0-3.63.26c-24.34 12.5-48.86 24.87-72.91 38.08-1.92 1.14-4.4.26-2.98 3.5l171.04 108.75a4.6 4.6 0 0 1-.7 8.1l-83.57 33.76a4.3 4.3 0 0 1-4.04-.27l-85.8-48.42s-1-.41-1.65-.59c-10.02-1.07-31.2 9.57-44.16 14.6a4.57 4.57 0 0 0-2.22 6.56L81 464.6a5 5 0 0 0 2.39 1.98l114.07 43.42c1 .4 2.07.35 3.07 0l195.73-64.15c1.03-.2 1.92-.38 2.92.04 78.95 27.85 156.8 60.22 236.65 84.84.65.17 47.82 2.3 63.93-1.5 4.69-1.09 33.91-22.99 38.52-27.58a4.64 4.64 0 0 0-.52-7.25L581.45 391.92a4.57 4.57 0 0 1 1.13-8.2s105.46-34.73 105.88-34.97l68.12-49.85s5.28-4.26 5.82-5.44c11.63-13.96 14.17-36.69 14.17-36.69 1.2-17.86-10.52-21.36-14.95-22.02l-.23.36Z"/><path fill="#032C30" d="M270.1 398.83c22.15-16.66 38.34 22.43 10.67 25.93-12.56 1.57-21.05-18.05-10.66-25.93ZM329.75 377.97c22.14-16.66 38.33 22.43 10.67 25.93-12.57 1.57-21.06-18.05-10.67-25.93ZM389.34 357.05c22.14-16.66 38.33 22.43 10.67 25.93-12.56 1.57-21.06-18.05-10.67-25.93ZM448.96 336.05c22.14-16.66 38.33 22.43 10.67 25.93-12.56 1.57-21.06-18.05-10.67-25.93ZM508.7 315.14c22.14-16.65 38.33 22.44 10.67 25.94-12.57 1.57-21.06-18.05-10.67-25.94ZM568.34 294.25c22.13-16.65 38.33 22.44 10.66 25.94-12.56 1.57-21.05-18.05-10.66-25.94ZM627.98 273.37c22.14-16.66 38.33 22.43 10.67 25.93-12.57 1.57-21.06-18.05-10.67-25.93ZM223.49 445.78a15.04 15.04 0 1 0-5.86-29.5 15.04 15.04 0 0 0 5.86 29.5Z"/><path fill="#9ECCED" d="M322.5 595.28a68 68 0 0 1 67.98 69.07 45.33 45.33 0 0 1-53.32 69.8 68 68 0 0 1-60 35.98 67.68 67.68 0 0 1-36.48-10.6c-15.5 8.68-34.84 13.83-55.8 13.83-50.98 0-92.3-30.44-92.3-68 0-33.62 33.12-61.54 76.62-67.02a61.5 61.5 0 0 1 52.91-30.1 61.34 61.34 0 0 1 43.4 17.9 67.94 67.94 0 0 1 56.98-30.86Z"/></svg>