<svg xmlns="http://www.w3.org/2000/svg" width="1865" height="800" fill="none" viewBox="0 0 1865 800"><path fill="#9ecced" d="M1765.84 736.8c11.86-5.84 12.95-22.32 1.89-29.57l-389.8-255.7a12.05 12.05 0 0 1 2.06-21.22c75.85-30.86 329.17-136.22 357.14-152.11 126.52-71.85 127.66-162.42 127.66-162.42 2.97-44.47-26.21-53.2-37.22-54.85 0 0-193.21-11.79-278.31-16.65a96 96 0 0 0-33.51 4.02c-73.93 22.5-379.94 116.13-544.33 174.33a80.3 80.3 0 0 1-55.18-.57C809.37 181.7 425.09 36.6 333.44 2.06a32 32 0 0 0-26.22 1.61L137.86 92.39a10.03 10.03 0 0 0-.73 17.36l417.67 265.6a10.04 10.04 0 0 1-1.65 17.77l-187.4 75.5a64.2 64.2 0 0 1-55.48-3.6 82152 82152 0 0 0-196.82-110.45 24.1 24.1 0 0 0-21.5-.96l-82.4 36.6a16.05 16.05 0 0 0-7.36 22.76c25.71 44 98.77 168.96 124.25 211.76a40 40 0 0 0 20.23 16.99l257.6 97.92a64.3 64.3 0 0 0 42.87 1l451.09-148.07a68.3 68.3 0 0 1 44.33.6c181.46 65.1 540.89 195.24 547.28 197.25a280 280 0 0 0 56.09 8.93c40.25 2.24 108.19-2.02 109.19-2.12 8.2-1.02 22.09-4.22 36.79-13.22l73.93-47.2"/><path fill="#0c4fa1" d="M455.11 530.3c55.17-41.52 95.52 55.85 26.58 64.53-31.29 3.92-52.42-44.94-26.58-64.54M603.33 478.04c55.16-41.5 95.51 55.86 26.57 64.54-31.28 3.92-52.42-44.94-26.57-64.54M751.9 426.1c55.16-41.5 95.46 55.86 26.57 64.6-31.29 3.91-52.47-44.95-26.58-64.6M900.36 374.01c55.17-41.51 95.47 55.86 26.57 64.54-31.28 3.92-52.46-44.94-26.57-64.54M1048.88 321.7c55.16-41.5 95.46 55.86 26.57 64.55-31.28 3.92-52.47-44.95-26.57-64.54M1197.71 269.65c55.17-41.45 95.47 55.86 26.58 64.6-31.29 3.91-52.47-44.95-26.58-64.6M1346.23 217.66c55.16-41.45 95.51 55.86 26.57 64.6-31.28 3.91-52.41-44.95-26.57-64.6M1494.79 165.68c55.18-41.52 95.52 55.85 26.58 64.59-31.29 3.91-52.47-44.95-26.58-64.6"/></svg>