<svg xmlns="http://www.w3.org/2000/svg" width="363" height="801" fill="none" viewBox="0 0 363 801"><path fill="#68b096" d="m196.03 294.27 1.66 113.15c4.85-10.06 8.29-18 12.43-25.45 30.55-55.04 86.07-78.47 151.43-79.3 8.4 47.34-21.2 114.33-65.71 145.46-78.73 54.92-186.94 53.14-247.09-15.03-31.5-35.62-46.3-77.88-47.24-125.58 53.99-14.2 119.1 20.72 164.1 113.03l.94-126.28s0-2.01.6-2.25c.7-.35 27.7.12 28.4.24.72 0 .48 1.54.48 2"/><path fill="#f9cc76" d="M352.99 110.45c-11.83 51.37-46.13 87.28-82.2 121.06-15.15 14.05-32.42 26.1-49.8 37.08a73.9 73.9 0 0 1-73.93 2.48C88.74 239.9 39.89 197.85 11.03 134.66A140 140 0 0 1 .63 99.93C-2.94 79.15 8.77 70.3 33.14 71.7c38.68 2.25 71.2 38.74 98.89 73.7.7-26.1.35-57.4 4.96-82.67 3.43-19.02 11.71-34.96 23.19-50.9 9.7-12.4 21.88-18.67 37.25-.36 13.25 15.24 17.98 29.76 20.23 45.7 4.14 28.12 4.02 56.94 5.68 85.05C247.83 112.1 276.1 82.33 317.74 73c11.6-2.6 28.03-2.12 33.7 4.37 5.69 6.5 4.39 20.67 1.55 33.07"/><path fill="#7f433b" d="M358.44 495.96v56.88c0 4.84-3.9 8.73-8.74 8.73h-22.45c-3.54 27.97-19.37 171.93-26.22 214.89-2.48 15.45-12.17 23.6-28 23.6H91.71c-14.17 0-24.57-8.38-26.93-22.54-6.85-40.71-25.04-199.07-27.64-216.07H13.28a8.7 8.7 0 0 1-8.74-8.73v-57c0-4.83 3.9-8.73 8.74-8.73H349.7c4.84 0 8.74 3.9 8.74 8.74z"/></svg>