<svg xmlns="http://www.w3.org/2000/svg" width="1236" height="628" fill="none" viewBox="0 0 1236 628"><path fill="#F4ECE6" d="M1211.83 283.97c4.9 0-33.8 159.56-33.8 159.56-.3 13.8-1 27.61-3 41.32-4.1 29.3-13.1 57.92-19.2 86.73-2.9 13.8-7.3 39.61-9.5 50.72-.6 3.1-3.3 5.3-6.4 5.3h-165.6c-1.8 0-3.2-1.5-3.2-3.2v-6.7c0-15.51 12-28.41 27.2-29.82 0 0 3.61 0 10.61-3.5.8-.4 19.4-12.5 21.2-24.1 10-66.33-7.2-108.05-7.2-108.05h-10.5s-27.8 103.94-55.3 147.36c-5 7.9-11.3 20.4-19.3 26.3a9.43 9.43 0 0 1-5.7 1.81h-144.3c-1.8 0-3.2-1.5-3.2-3.2v-6.7c0-16.41 13.3-29.91 29.7-30.01 5.6 0 11.1-1.4 15.9-4.4 5.5-3.4 10.2-7 13.3-11.11 9.1-12 11.3-30.81 14-45.62 3.8-20.4 10.4-65.02 11.7-76.53.2-1.6 0-3.3-.3-4.9l-4.4-16.6c-.8-3-3.6-5-6.7-4.8-33.2 2.4-68.2.7-99.5-1.5a3.2 3.2 0 0 0-3.4 2.8c-.4 2.7-.8 5.1-1.1 6.9-10.7 50.92-29.5 102.13-42.9 152.65-1.7 6.5-4.7 28.11-8.7 38.92-.9 2.6-3.4 4.3-6.1 4.3H526.16c-1.8 0-3.2-1.5-3.2-3.2v-10.4c0-14.61 12-26.51 26.6-26.41 4.4 0 8.7-1.3 12.6-3.3 4.7-2.5 9-5.1 12.4-8.2 11.2-10.51 12-37.12 11.5-54.53h-.2l-1.6-49.52c-2.5-3.1-13.6-14.4-18.1-16.3-3.4 15.6-3 30.2-11.3 44.51-16.5 28.41-34.9 47.82-58 69.83-3.9 3.8-7.7 7.9-10.4 12.5-7.2 13.9-9.1 29.01-14 41.02-1 2.5-3.4 4.1-6 4.1h-148.1c-1.8 0-3.2-1.5-3.2-3.2v-6.7a30.1 30.1 0 0 1 30-30.01s10.9.3 18.6-1.9c3.8-1.1 6.8-3.9 8.2-7.6 5.2-14.11 23.6-64.93 26.7-79.74 3.7-17.9 6-37.61 5.4-55.92-.3-8.4-7.7-78.33-8.8-91.03-31.2-5.4-175.09 25.4-211.69 38.21-23.8 8.2-47.5 15.6-72 22.1-82.7 22.12-89.7-6-92.7-9.3-7.4 1.6-16.9-2.4-18.6-10-1.5-6.8 3.7-15.3 6.6-21.2 4.4-8.8 40.5-56.23 45.3-62.23-.5-1.5-.9-2.8-1.1-3.7-1.1-3.3-1.8-9.3-1-12.6 4.4-19.01 44.4-57.03 59.7-69.63-2.4-16.7.4-34.31 9.4-50.12.2 0 .4.2.6.3a80.36 80.36 0 0 1 32.3 24.91c15.3-11.6 49.6-38.71 61.3-43.62 15.3-6.4 72.6-29.7 86.9-34.51 59.6-19.8 106-63.92 168.3-76.63 43.7-8.9 81.19 6.5 121.49 13.1 51.3-15.2 104.8-28.9 157.4-38.9C812.04 5.76 881.43-6.45 947.43 3.86c178.59 27.9 256.09 105.74 273.19 164.56 8.5 29.2 11.1 42.31 14.4 72.42 1 9.5 6.1 43.52-23.1 43.62l-.1-.5Z"/></svg>