<svg xmlns="http://www.w3.org/2000/svg" width="725" height="800" fill="none" viewBox="0 0 725 800"><path fill="#FAF7F4" d="M.09 15a15 15 0 0 1 15-15h693.99a15 15 0 0 1 15 15v451a15 15 0 0 1-15 15H15.09a15 15 0 0 1-15-15V15Z"/><path fill="#F9CC76" d="m63.74 91.07 49.09-8.67 8.66 49.09-49.09 8.66-8.66-49.08ZM402.84 86.8l49.83-.87.88 49.83-49.84.88-.87-49.84ZM577.39 85.05l49.08-8.66 8.66 49.08-49.08 8.66-8.66-49.08ZM226.88 124.55l49.08-8.66 8.67 49.08-49.09 8.66-8.66-49.08ZM90.25 388.21l49.08-8.66 8.66 49.08-49.08 8.67-8.66-49.09ZM620.65 171.9l49.09-8.66 8.65 49.08-49.08 8.66-8.66-49.08ZM130.92 252.34l49.65 4.34-4.34 49.65-49.65-4.33 4.34-49.66ZM368.95 232.65l49.08-8.66 8.66 49.08-49.08 8.66-8.66-49.08ZM513.11 240.42l49.09-8.66 8.66 49.09-49.09 8.66-8.66-49.09Z"/><path fill="#F9C4AA" d="M217.82 538.72c2.32 4.7 7.6 17.36 6.12 23.42-1.5 6.06-2.55 7.25-10.4 14.07-1.77 1.53-5.12 2.57-9.06-4.75-3.93-7.32-6.66-16.27-5.21-23.73 1.46-7.46 2.2-6.24 2.2-6.24l16.34-2.77Z"/><path fill="#054449" d="M277.13 354.99c-.15-4.36-3.04-16.67-14.66-13.1-11.97 3.7-24.88 8.38-37.22 26.1-11.88 17.06-22.05 39.92-25.01 83.56-3.3 48.55-4.45 93.12-4.51 93.84l28.68-.61c.06-.73.1-36.11 5.63-99.96 1.55-17.97 6.71-37.5 13.14-46.86 4.18-6.08 9.92-13.58 13.75-17 0 0 6.65-4.61 11.66-8.22 8.16-5.88 8.72-12.1 8.54-17.74v-.01Z"/><path fill="#1E1A28" d="M235.81 785.05s-3.65 9.76-4.07 11.93c-.41 1.87-1.32 2.54 5.39 2.6 0 0 39.82.62 42.54 0 1.79-.42 4.03-2.9 2.82-13.97l-46.69-.56h.01ZM316.2 785.67s-.65 9.38.74 11.43c1.39 2.04 2.22 3.36 14.45 2.69 0 0 34.49.62 35.58-.26 1.1-.9-5.2-14.51-5.2-14.51l-45.58.65Z"/><path fill="#68B096" d="M231.9 487.92c-.27 18.45-2.72 114.62-2.99 125-.41 10.4-.7 98.8-.7 108.61 0 9.8-.27 63.66.97 65.42 1.24 1.75 52.69 3.07 55.3 1.17 2.63-1.9 0-88.84.42-99.24.27-10.4 1.93-61.76.27-103.63-1.65-41.86 1.35-49.6 2.32-49.6.98 0 1.82-2.06 5.68 37.46 3.86 39.52 11.72 111.39 13.38 128.8 1.65 17.57 6.2 85.63 8 86.36 1.8.74 50.48-.14 52.13-.73 1.66-.58-2.62-57.38-3.16-63.67-.55-6.3-11.6-145.94-12.14-153.4-.55-7.46-5.52-85.48-5.52-85.48s-58.2.14-63.16.58c-5.1.29-50.8 2.34-50.8 2.34h.01v.01Z"/><path fill="#054449" d="M345.33 463.85c.07 14.49 1.16 28.46 1.44 34.6 0 0-58.85 5.87-83.03 2.96 0 0-30.93-1.38-32.54-1.38 0 0 .39-25.44.36-39.9.21-22.09.65-40.85 1.24-56.65.58-15.81-1.43-46.6 18.99-57.14 12.78-6.6 16.47-6.17 34.24-7.05 14.54-.59 35.16 1.63 43.53 9.39 10.72 9.8 12 30.91 13.49 51.17.98 22.83 1.71 44.97 2.29 64Z"/><path fill="#F9C4AA" d="M360.55 538.72c-2.32 4.7-7.6 17.36-6.11 23.42 1.49 6.06 2.55 7.25 10.4 14.07 1.77 1.53 5.11 2.57 9.05-4.75 3.93-7.32 6.67-16.27 5.22-23.73-1.46-7.46-2.2-6.24-2.2-6.24l-16.35-2.77Z"/><path fill="#054449" d="M301.25 354.99c.14-4.36 3.03-16.67 14.65-13.1 11.97 3.7 24.88 8.38 37.23 26.1 11.87 17.06 22.04 39.92 25 83.56 3.3 48.55 4.45 93.12 4.51 93.84l-28.68-.61c-.05-.73-.1-36.11-5.63-99.96-1.54-17.97-6.7-37.5-13.14-46.86-4.17-6.08-9.92-13.58-13.75-17 0 0-6.65-4.61-11.65-8.22-8.17-5.88-8.73-12.1-8.54-17.74v-.01Z"/><path fill="#F9C4AA" d="M313.46 284.82c-2.51-4.6-7.16-8.6-13.01-10.68-5.2-1.86-17.9-1.37-23 .69-12.22 4.63-17.03 15.96-17.66 28.48-1.04.27-1.97.65-2.27 1.6a7.38 7.38 0 0 0-.57 4.87c.4 1.43 1.31 2.32 3.13 3.53.5 5.82 2.34 11.4 5.36 16.02l.62.95c4.75 7.26 11.1 11.49 18.69 11.49h5.98c7.55 0 14.71-4.19 19.45-11.4l1.89-2.87c2.84-4.3 5.03-9.97 5.76-18.56 1.19-13.9-1.54-18.94-4.37-24.12Z"/><path fill="#7F433B" d="M315.38 288.57c.67 18.57-34.64 26.01-52.43 31.49-6.51 2-5.96 20.6-41.44 32.76-27.54 5.9-26.36-21.54-26.36-21.54 5.3-31.25 46.02-6.32 61.02-21.74.05-5.63 3.11-17.21 5.58-22.48 4.29-9.14 13.72-14.33 27.33-15.27 11.57-.8 22.03 5.43 26.3 16.78Z"/><path fill="#1E1A28" d="M513.7 785.05s-3.66 9.76-4.07 11.93c-.42 1.87-1.33 2.54 5.38 2.6 0 0 39.82.62 42.54 0 1.8-.42 4.03-2.9 2.82-13.97l-46.68-.56ZM594.08 785.67s-.64 9.38.74 11.43c1.4 2.04 2.22 3.36 14.45 2.69 0 0 34.49.62 35.58-.26 1.1-.9-5.19-14.51-5.19-14.51l-45.59.65Z"/><path fill="#153F7B" d="M509.79 487.92c-.28 18.45-2.72 114.62-3 125-.41 10.4-.69 98.8-.69 108.61 0 9.8-.28 63.66.96 65.42 1.25 1.75 52.69 3.07 55.3 1.17 2.63-1.9 0-88.84.42-99.24.27-10.4 1.93-61.76.27-103.63-1.65-41.86 1.36-49.6 2.33-49.6s1.81-2.06 5.67 37.46 11.72 111.39 13.38 128.8c1.66 17.57 6.2 85.63 8 86.36 1.8.74 50.49-.14 52.14-.73 1.65-.58-2.63-57.38-3.17-63.67-.55-6.3-11.59-145.94-12.14-153.4-.55-7.46-5.51-85.48-5.51-85.48s-58.2.14-63.17.58c-5.1.29-50.8 2.34-50.8 2.34h.02l-.01.01Z"/><path fill="#F9C4AA" d="M623.21 463.85c.07 14.49 1.15 28.46 1.44 34.6 0 0-58.85 5.87-83.03 2.96 0 0-30.93-1.38-32.54-1.38 0 0 .39-25.44.36-39.9.21-22.09.65-40.85 1.24-56.65.58-15.81-1.43-46.6 18.99-57.14 12.78-6.6 16.47-6.17 34.24-7.05 14.54-.59 35.16 1.63 43.53 9.39 10.72 9.8 12 30.91 13.49 51.17.98 22.83 1.71 44.97 2.29 64Z"/><path fill="#C58F79" d="M656.68 524.89c-1.47 5.03-4.47 18.42-1.95 24.13 2.52 5.71 3.77 6.7 12.68 12.05 2 1.2 5.49 1.64 8.1-6.25 2.6-7.9 3.73-17.18 1-24.27-2.72-7.1-3.24-5.77-3.24-5.77l-16.58.1v.01Z"/><path fill="#F9C4AA" d="M566.37 354.25c-.61-4.32.1-16.94 12.16-15.44 12.43 1.56 25.96 3.92 41.2 19.24 14.65 14.74 28.63 35.48 39.13 77.94 11.68 47.24 20.55 90.93 20.74 91.64L651.24 532c-.18-.7-6.37-35.54-22.9-97.46-4.64-17.43-13.12-35.76-21.08-43.87-5.16-5.26-12.12-11.65-16.5-14.34 0 0-7.34-3.4-12.9-6.08-9.06-4.38-10.69-10.4-11.49-15.99Z"/><path fill="#C58F79" d="M418.63 358.24c-1.93-5.08-7.84-17.94-13.57-20.75-5.72-2.8-5.3.7-4.38 2.98.97 2.37 3.94 9.2-3.53 3.2-3.27-2.6-7.36-4.86-11.21-5.7-2.4-.52-4.84 1.32-2.06 9.49 2.8 8.17 7.68 16.43 14.45 20.2 6.77 3.78 6.38 2.35 6.38 2.35l13.92-11.76Z"/><path fill="#F9C4AA" d="M509.54 403.34c25.54-13.87 43.09-25.43 46-38.71 1.21-5.62-.93-13.9-8.35-17.9-6.34-3.42-11.66-2.57-16.28-.6-4.33 1.82-6.06 3.45-8.5 5.2-16.37 11.86-26.51 24.65-53.5 34.8-7.55 2.85-22.92-8.94-34.68-18.96-5.91-5.05-13.12-11.69-14.31-13.5l-19.27 18.06c4.76 5.11 30.58 38.16 62.84 45.29 12.56 2.77 36.74-8.61 46.06-13.67h-.01Z"/><path fill="#C58F79" d="M592.21 284.7c-2.58-4.59-7.35-8.57-13.34-10.65-5.33-1.85-18.37-1.37-23.61.68-12.52 4.62-17.46 15.91-18.1 28.4 0 3.3 0 4.07.3 9.95a33.95 33.95 0 0 0 5.5 15.96l.63.94c4.87 7.24 11.38 11.45 19.16 11.45h6.13c7.75 0 15.09-4.17 19.96-11.36l1.93-2.86c2.91-4.28 5.16-9.93 5.91-18.5 1.22-13.86-1.58-18.88-4.48-24.04l.01.02Z"/><path fill="#1E1A28" d="M578.82 271a26.43 26.43 0 0 1 13.05 10.46l1.47 2.22a30.36 30.36 0 0 1 4.68 20.04l-.57 5.08a29.87 29.87 0 0 1-5.63 14.4l-1.98 2.67c-4.98 6.7-12.48 10.58-20.41 10.58h-6.27c-7.96 0-14.62-3.92-19.6-10.67l-.64-.88a30.06 30.06 0 0 1-5.7-19.5l.3-5.73c.64-11.66 7.78-21.7 18-25.35 5.36-1.9 17.97-5.26 23.31-3.34l-.01.01Z"/></svg>