<svg xmlns="http://www.w3.org/2000/svg" width="850" height="837" fill="none" viewBox="0 0 850 837"><path fill="#9BCAB9" d="M266.19 703.23c0-23.47-.2-44.49 0-65.58.72-69.61 3.09-139.13 23.63-206.34 4.93-16.16 11.85-31.57 22.4-46.18 10.54-14.6 20.24-19.88 33.98-17.63 13.73 2.25 21.17 13.3 26.4 32.24 5.25 18.93 3.62 62.88-1.16 95.67-9.97 69-25.76 135.36-37.42 204.98 11.83-29.69 21.06-57.9 33.76-87.23 19.95-45.9 41.2-92.2 64.18-136.62 10.66-20.6 19.42-32.92 36.24-49.35 6.5-6.3 22.8-18.23 38.72-11.8 8.7 3.53 12.91 15.88 13.88 24.87 7.8 72.88-23.58 136.06-60.02 196.28-39.94 65.97-110 173.92-164.59 195.73-15.3 7.06-51.27 6.09-65.92-2.07-18.05-10.03-50.05-43.47-69.4-67.5C103.33 691.38 46.14 618.17 10.9 533.14c-7.13-15.21-18.75-53.07-3.17-69.72 11.94-12.76 25.93-8.14 38.63 0 34.33 24.3 54.5 52.66 75.08 88.33 21.32 36.92 49.6 90.65 72.77 127.32-9.14-31.8-27.4-79.66-34.83-111.88-12.79-55.36-34.22-109-17.52-165.57 3.68-12.42 20.74-32.09 36.51-33.55 15.77-1.46 26.17 13 35.24 30s24 79.13 30.94 122.35c9.3 57.99 19.64 178.9 21.6 182.8h.04v.01Z"/><path fill="#C58F79" d="M739.1 341.41c8.17-2.51 29.91-7.54 39.02-3.08 9.12 4.45 4.36 7.34.64 8.37-3.89 1.08-15.28 3.96-.5 7.54 6.46 1.58 13.26 4.52 18.12 8.55 3.02 2.5 3.15 7.33-9.71 11.75-12.87 4.43-27.91 6.27-39.24 1.45-11.35-4.86-9.18-5.73-9.18-5.73l.84-28.88v.03Z"/><path fill="#F9C4AA" d="M658.65 288.34c-16.85-27.37-19.3-33.24-28.68-56.09-5.86-14.3-15.48-30.62-24.6-39.33-13.46-12.9-19.66-19-35.14-22.41-8.8-1.95-21.3 4.59-23.92 18.19-2.61 13.6 10.52 27.3 14.54 30.79 4.02 3.48 12.47 9.14 27.78 33.6 11.92 19.07 10.75 21.04 28.91 60.88 8.91 18.06 16.38 25.76 31.83 34.3 16.52 9.12 40.5 18.53 91.13 30.23.8-7.24 3.45-42.18 3.45-42.18-59.67-17.46-78.13-36.22-85.33-47.91h.03v-.07Z"/><path fill="#F9C4AA" d="M658.65 288.34c-16.85-27.37-19.3-33.24-28.68-56.09-5.86-14.3-15.48-30.62-24.6-39.33-13.46-12.9-19.66-19-35.14-22.41-8.8-1.95-21.3 4.59-23.92 18.19-2.61 13.6 10.52 27.3 14.54 30.79 4.02 3.48 12.47 9.14 27.78 33.6 11.92 19.07 10.75 21.04 28.91 60.88 8.91 18.06 16.38 25.76 31.83 34.3 16.52 9.12 40.5 18.53 91.13 30.23.8-7.24 3.45-42.18 3.45-42.18-59.67-17.46-78.13-36.22-85.33-47.91h.03v-.07Z"/><path fill="#1E1A28" d="M450.96 813.34s-5.33 14.2-5.93 17.36c-.6 2.71-1.94 3.68 7.84 3.78 0 0 57.96.9 61.91 0 2.62-.6 5.87-4.22 4.13-20.33l-67.95-.84v.03ZM567.96 814.15s-.94 13.67 1.07 16.65c2.04 2.98 3.25 4.9 21.04 3.92 0 0 50.19.9 51.8-.37 1.6-1.3-7.58-21.14-7.58-21.14l-66.37.94h.04Z"/><path fill="#054449" d="M444.5 380.68c-.4 26.87-3.22 166.85-3.62 181.99-.6 15.14-1 143.83-1 158.1 0 14.28-.41 92.68 1.4 95.25 1.8 2.55 76.69 4.5 80.5 1.71 3.83-2.78 0-129.32.61-144.46.4-15.15 2.82-89.93.4-150.87-2.4-60.94 1.98-72.2 3.39-72.2 1.4 0 2.64-2.98 8.27 54.54 5.63 57.53 17.06 162.16 19.47 187.52 2.41 25.6 9.04 124.7 11.66 125.7 2.61 1.08 73.47-.2 75.88-1.06 2.42-.88-3.82-83.56-4.62-92.7-.8-9.19-16.89-212.46-17.69-223.31-.8-10.86-8.04-124.43-8.04-124.43s-84.7.2-91.94.84c-7.43.4-74.67 3.41-74.67 3.41v-.03Z"/><path fill="#F9C4AA" d="M524.03 164.28c21.18-.84 51.16 2.38 63.36 13.67 15.6 14.27 17.45 45 19.63 74.47a6289.4 6289.4 0 0 1 2.26 59.01c.23 1.5.69 3.67 1.42 5.4 11.54 14.07 18.37 31.45 18.37 50.25 0 46.87-42.4 84.86-94.68 84.86-52.3 0-94.67-37.99-94.67-84.86 0-9.59 1.78-18.8 5.05-27.4.3-31.95.93-59.06 1.8-81.96.44-11.83-.1-29.45 3.28-45.84.03-.13 6.23-34.15 21.45-39.4l7.5-2.68 9.35-2.54v1.14c9.65-3.25 17.72-3.22 35.88-4.12Z"/><path fill="#153F7B" d="M830.99 0c.59 2.97.68 5.8.9 8.9 5.82 79.63 15.88 211.38 17.1 239.18 1.25 28.56 5.48 25.81-21.3 48.96-13.25 11.43-22.51 38.7-23.19 65.67-2.68 115.85 9.01 217.33 15.15 345.77 2.9 28.3 2.72 56.81 4.5 85.33 1.8 28.08-22.8 47.24-49.41 39.44-17.22-5.12-27.96-20.27-26.4-40.32 3.36-45.01 6.13-90.24 10.6-135.25 7.65-113.32 10.4-197.6 9.06-295.4-.45-28.29-11.13-53.92-24.91-65.24-23.82-19.56-21.4-19.96-20.68-43.8.86-28.5 4.56-68.1 7.01-100.62 3.35-47.4 6.93-94.6 10.51-142.14.23-3.35.55-7.27.77-10.48h7.82c.35 4.98.36 9.8.36 14.7-.44 61.94-.87 122-1.54 183.93-.11 9.21 2.73 16 7.5 16 4.34 0 7.92-6.3 7.68-16.54 1.56-63.28 2.9-123.24 4.48-186.28.09-4.7.2-7.57.63-11.81h8.46c.48 4.57.66 8.7.66 12.92l1.34 183.8c-.06 12.75 3.54 17.46 7.6 17.46 4.08 0 7.2-4.89 7.39-16.57.44-61.93 1.11-124.1 1.78-186.03.13-4.31.31-7.18.58-11.58h8.62c.4 5.2.57 7.18.78 12.7 1.11 44.56 2.01 89.12 3.13 133.68.44 20.05-.45 38.6.67 58.66-.06 4 4.37 9.6 8.26 9.6 3.9 0 7.84-5.8 7.6-14.57-.44-62.38-1.1-119.62-1.55-182 0-4.23-.1-11.63.2-18.07H831Z"/><path fill="#C58F79" d="M450.96 396.12c7.07 2.35 25.1 9.72 29.55 17.52 4.49 7.78 4.6 10.16 3.28 25.44-.3 3.45-2.71 8.07-14.03 4.72-11.33-3.35-23.06-9.62-28.95-18.8-5.93-9.18-3.95-8.7-3.95-8.7l14.07-20.18h.03Z"/><path fill="#F9C4AA" d="M503.23 191.15c-2.18-14.07-9.42-23.59-19.44-22.68-26.83 6.46-59.37 29.31-86.2 67-9.82 13.77-30.59 47.14-30.59 67.71.7 52.67 60.27 111.37 67.27 119.95l30.86-26.37c-1.98-1.17-16.95-18.36-27.9-32.83-15.35-28.62-25.24-47.88-25.24-60.75 9.55-36.31 30.13-52.56 68.25-75.28 0 0 13.24-7.3 18.8-16.05 5.12-8.04 5.32-13.6 4.22-20.7h-.03Z"/><path fill="#1E1A28" d="M534.01 115.5a40.19 40.19 0 0 0-.36-4.06c-2.78-.3-5.63-.4-8.55-.3-29.48 1.27-55.65 25.76-51.2 53.87.21 1.34.18 2.72.38 4.06 2.78.3 5.63.3 8.54.3 15.95.07 34.18-11.43 43.12-28.48 4.32-8.24 8.51-15.54 8.07-25.43v.04Z"/><path fill="#C58F79" d="M574.22 114.36c-.27-1.44-1.54-2.21-3.05-2.85.6-11.63-1.8-19.03-7-26.5-4.36-6.27-10.42-12.53-18.96-15.55-7.58-2.71-26.07-1.97-33.48 1-17.79 6.74-24.79 23.26-25.7 41.45-1.5.4-2.87.94-3.3 2.31-.98 2.31-1.48 4.53-.85 7.1.6 2.08 1.91 3.39 4.56 5.13a50.54 50.54 0 0 0 7.8 23.32l.91 1.37c6.9 10.6 16.15 16.76 27.17 16.76h8.71c11 0 21.41-6.1 28.31-16.62l2.75-4.19a50.35 50.35 0 0 0 7.7-21.71c2.25-1.14 3.53-2.18 4.26-3.92.97-2.45.74-4.7.07-7.17h.07l.03.07Z"/><path fill="#1E1A28" d="M551.17 70.37c-5.9-3.19-12-5.83-18.96-6.07-1.65-.2-3.29-.3-4.96-.3-12.87 0-27.04 7.37-33.88 17.62-9.1 15.45-7.57 17.8-8.7 26.9-.14 1.18.06 2.35.13 3.52 2.2.37 4.45.57 6.77.57 17.12 0 30.82-11.59 38.63-25.76 6.8 13.43 21.6 27.64 38.5 25.1 1.06-.17 2.1-.14 3.17-.27.27-2.22.27-4.43.27-6.7.14-12.54-7.74-27.44-21-34.58l.03-.03Z"/></svg>