<svg xmlns="http://www.w3.org/2000/svg" width="484" height="836" fill="none" viewBox="0 0 484 836"><path fill="#C58F79" d="M372.78 341.41c8.18-2.51 29.92-7.54 39.03-3.08 9.12 4.45 4.36 7.34.64 8.37-3.89 1.08-15.28 3.96-.5 7.54 6.46 1.58 13.26 4.52 18.12 8.55 3.02 2.5 3.15 7.33-9.71 11.75-12.87 4.43-27.91 6.27-39.24 1.45-11.36-4.86-9.18-5.73-9.18-5.73l.84-28.88v.03Z"/><path fill="#F9C4AA" d="M292.34 288.34c-16.85-27.37-19.3-33.24-28.68-56.09-5.86-14.3-15.48-30.62-24.6-39.33-13.46-12.9-19.66-19-35.14-22.41-8.8-1.95-21.3 4.59-23.92 18.19-2.61 13.6 10.52 27.3 14.54 30.79 4.02 3.48 12.47 9.14 27.78 33.6 11.92 19.07 10.75 21.04 28.91 60.88 8.91 18.06 16.38 25.76 31.83 34.3 16.52 9.12 40.5 18.53 91.13 30.23.8-7.24 3.45-42.18 3.45-42.18-59.67-17.46-78.13-36.22-85.33-47.91h.03v-.07Z"/><path fill="#F9C4AA" d="M292.34 288.34c-16.85-27.37-19.3-33.24-28.68-56.09-5.86-14.3-15.48-30.62-24.6-39.33-13.46-12.9-19.66-19-35.14-22.41-8.8-1.95-21.3 4.59-23.92 18.19-2.61 13.6 10.52 27.3 14.54 30.79 4.02 3.48 12.47 9.14 27.78 33.6 11.92 19.07 10.75 21.04 28.91 60.88 8.91 18.06 16.38 25.76 31.83 34.3 16.52 9.12 40.5 18.53 91.13 30.23.8-7.24 3.45-42.18 3.45-42.18-59.67-17.46-78.13-36.22-85.33-47.91h.03v-.07Z"/><path fill="#1E1A28" d="M84.65 813.34s-5.33 14.2-5.93 17.36c-.6 2.71-1.94 3.68 7.84 3.78 0 0 57.96.9 61.91 0 2.62-.6 5.87-4.22 4.12-20.33l-67.94-.84v.03ZM201.64 814.15s-.93 13.67 1.08 16.65c2.04 2.98 3.25 4.9 21.04 3.92 0 0 50.19.9 51.8-.37 1.6-1.3-7.58-21.14-7.58-21.14l-66.37.94h.03Z"/><path fill="#054449" d="M78.19 380.68c-.4 26.87-3.22 166.85-3.62 181.99-.6 15.14-1 143.83-1 158.1 0 14.28-.41 92.68 1.4 95.25 1.8 2.55 76.69 4.5 80.5 1.71 3.83-2.78 0-129.32.61-144.46.4-15.15 2.81-89.93.4-150.87-2.4-60.94 1.98-72.2 3.39-72.2 1.4 0 2.64-2.98 8.27 54.54 5.63 57.53 17.06 162.16 19.47 187.52 2.41 25.6 9.04 124.7 11.66 125.7 2.61 1.08 73.47-.2 75.88-1.06 2.42-.88-3.82-83.56-4.62-92.7-.8-9.19-16.89-212.46-17.69-223.31-.8-10.86-8.04-124.43-8.04-124.43s-84.7.2-91.94.84c-7.43.4-74.68 3.41-74.68 3.41v-.03Z"/><path fill="#F9C4AA" d="M157.72 164.28c21.18-.84 51.16 2.38 63.36 13.67 15.6 14.27 17.45 45 19.63 74.47.88 20.33 1.62 40.26 2.26 59.01.23 1.5.69 3.68 1.42 5.4 11.54 14.07 18.37 31.45 18.37 50.25 0 46.87-42.4 84.86-94.68 84.86-52.3 0-94.67-37.99-94.67-84.86 0-9.59 1.78-18.8 5.05-27.4.3-31.95.93-59.06 1.8-81.96.44-11.83-.1-29.45 3.28-45.84 0 0 6.2-34.13 21.45-39.4l7.5-2.68 9.35-2.54v1.14c9.65-3.25 17.72-3.22 35.88-4.12Z"/><path fill="#153F7B" d="M464.68 0c.59 2.97.68 5.8.9 8.9 5.82 79.63 15.88 211.38 17.1 239.18 1.25 28.56 5.48 25.81-21.31 48.96-13.24 11.43-22.5 38.7-23.18 65.67-2.68 115.85 9.01 217.33 15.15 345.77 2.9 28.3 2.72 56.81 4.5 85.33 1.8 28.08-22.8 47.24-49.42 39.44-17.21-5.12-27.95-20.27-26.39-40.32 3.36-45.01 6.13-90.24 10.6-135.25 7.65-113.32 10.4-197.6 9.06-295.4-.45-28.29-11.13-53.92-24.92-65.24-23.81-19.56-21.38-19.96-20.67-43.8.86-28.5 4.55-68.1 7.01-100.62 3.35-47.4 6.93-94.6 10.51-142.14.23-3.35.55-7.27.77-10.48h7.82c.35 4.98.36 9.8.36 14.7-.44 61.94-.87 122-1.54 183.93-.11 9.21 2.73 16 7.5 16 4.34 0 7.92-6.3 7.68-16.54 1.56-63.28 2.9-123.24 4.48-186.28.09-4.7.2-7.57.63-11.81h8.46c.48 4.57.66 8.7.66 12.92l1.34 183.8c-.06 12.75 3.54 17.46 7.6 17.46 4.08 0 7.2-4.89 7.38-16.57.45-61.93 1.12-124.1 1.8-186.03.12-4.31.3-7.18.57-11.58h8.62c.4 5.2.57 7.18.77 12.7 1.12 44.56 2.02 89.12 3.13 133.68.45 20.05-.44 38.6.68 58.66-.06 4 4.37 9.6 8.26 9.6 3.9 0 7.84-5.8 7.6-14.57-.44-62.38-1.1-119.62-1.55-182 0-4.23-.1-11.63.2-18.07h7.84Z"/><path fill="#C58F79" d="M84.65 396.12c7.07 2.35 25.1 9.72 29.55 17.52 4.49 7.78 4.59 10.16 3.28 25.44-.3 3.45-2.71 8.07-14.04 4.72-11.32-3.35-23.05-9.62-28.94-18.8-5.93-9.18-3.96-8.7-3.96-8.7l14.08-20.18h.03Z"/><path fill="#F9C4AA" d="M136.91 191.15c-2.17-14.07-9.4-23.59-19.43-22.68-26.83 6.46-59.37 29.31-86.2 67-9.82 13.77-30.6 47.14-30.6 67.71.71 52.67 60.28 111.37 67.28 119.95l30.86-26.37c-1.98-1.17-16.95-18.36-27.9-32.83-15.35-28.62-25.24-47.88-25.24-60.75 9.55-36.31 30.12-52.56 68.25-75.28 0 0 13.24-7.3 18.8-16.05 5.12-8.04 5.32-13.6 4.22-20.7h-.03Z"/><path fill="#1E1A28" d="M167.7 115.5a40.48 40.48 0 0 0-.36-4.06 60 60 0 0 0-8.55-.3c-29.48 1.27-55.65 25.76-51.2 53.87.21 1.34.18 2.72.38 4.06 2.78.3 5.63.3 8.54.3 15.95.07 34.17-11.43 43.12-28.48 4.32-8.24 8.51-15.54 8.07-25.43v.04Z"/><path fill="#C58F79" d="M207.9 114.36c-.26-1.44-1.53-2.21-3.04-2.85.6-11.63-1.8-19.03-7-26.5-4.36-6.27-10.42-12.53-18.97-15.55-7.57-2.71-26.06-1.97-33.47 1-17.79 6.74-24.79 23.26-25.7 41.45-1.5.4-2.87.94-3.31 2.31-.97 2.31-1.47 4.53-.84 7.1.6 2.08 1.91 3.39 4.56 5.13a50.55 50.55 0 0 0 7.8 23.32l.91 1.37c6.9 10.6 16.15 16.76 27.17 16.76h8.71c11 0 21.41-6.1 28.31-16.62l2.75-4.19a50.35 50.35 0 0 0 7.7-21.71c2.25-1.14 3.52-2.18 4.26-3.92.97-2.45.74-4.7.07-7.17h.06l.04.07Z"/><path fill="#1E1A28" d="M184.86 70.37c-5.9-3.19-12-5.83-18.97-6.07-1.64-.2-3.28-.3-4.95-.3-12.87 0-27.04 7.37-33.88 17.62-9.1 15.45-7.57 17.8-8.7 26.9-.14 1.18.06 2.35.13 3.52 2.2.37 4.45.57 6.77.57 17.12 0 30.82-11.59 38.62-25.76 6.8 13.43 21.62 27.64 38.5 25.1 1.07-.17 2.11-.14 3.18-.27.27-2.22.27-4.43.27-6.7.14-12.54-7.74-27.44-21-34.58l.03-.03Z"/></svg>