<svg xmlns="http://www.w3.org/2000/svg" width="374" height="378" fill="none" viewBox="0 0 374 378"><path fill="#C58F79" d="M354.19 43.16c-5.9-.41-14.84-1.06-20.1-3.68-7.6-3.68-12.63-12.08-18.3-17.98-28.22-29.12-72.05-28.89-99.22 2.1-5.96 6.83-10.23 17.22-12.33 28.84-21.74 7.3-38.98 26.5-41.84 50.9a62.24 62.24 0 0 0 43.07-4.91c-21.16 58.54-51.6 73.89-51.6 73.89-22.1 17.45-48.5 30.7-65.57 53.05-21.56 28.25-29.04 66.72-17.47 100.74.93 2.86 4.73 11.97 5.5 13.37-17.48-8.11-33.79-13.54-42.84-28.08-5.79-9.45-8.83-33.85-8.65-50.3 0-3.68-19.87-8.94-23.38 15.46-3.56 24.4-4.44 67.88 44.3 87.08 42.07 16.4 77.55 14.07 86.84 14.3h86.3a5.27 5.27 0 0 0 5.27-5.25v-9.22c0-4.61-1.29-9.05-3.8-12.84-2.63-4.09-6.2-6.19-10-8.64.77.52 13.68-8.64 17.6-11.44l8.59 43.6a5.4 5.4 0 0 0 4.73 3.85h96.54a5.27 5.27 0 0 0 5.26-5.25v-8.93a14.2 14.2 0 0 0-14.2-14.19h-3.28c-4.09-14.82-10.4-38.75-12.85-51.6-6.84-35.6-10-130.9-10.23-134.47-1.28-18.79-7.77-35.07 12.22-46.34 12.32-6.83 26.52-12.08 39.15-18.62 9.99-5.25 17.24-11.79 20.1-23V51.86c0-7.24-14.96-8.4-19.87-8.64l.06-.05Zm-78.54 306.6h-.12a6.08 6.08 0 0 1-1.98-2.75c-1.17-3.39-5.79-33.1-6.55-43.2 2.63-1.98 5.26-3.96 7.6-5.89 1.81 14.83 10.4 51.89 10.4 51.89h-9.35v-.06Z"/></svg>