<svg xmlns="http://www.w3.org/2000/svg" width="649" height="800" fill="none" viewBox="0 0 649 800"><path fill="#fff" d="m354.05 58.97-.85 16.6c-4.63 92.53-11.77 185.03-18.54 277.44-5.4 73.41-11.26 146.83-16.5 220.21-.51 7.32-5.76 10-12.3 10.4q-58.23 3.57-116.46 7.28c-32.65 2.07-101.35 6.7-117.22 7.24a1.88 1.88 0 0 1-1.74-2.74C155.32 429.46 240 264 322.14 96.54l26.92-54.9c1.42-2.91 5.81-1.8 5.7 1.43l-.7 15.91zM616.5 569.04H385.2c-1.66 0-3.01 1.35-3.01 3l.05 49.11-17.78 2.42V5.26c1.03-3.4 4.8-4.85 7.55-5.2 2.4-.31 6.2.7 7.66 3.04 1.7 2.72 1.5 6.12 1.75 9.18l.72 8.42c.1 1.24.51 2.45 1.2 3.48l45.44 69.14c21.03 32 39.89 65.04 57.8 98.9 20.93 39.6 39.8 80.1 57.32 121.37 19.09 44.92 35.4 90.78 49.88 137.4 11.05 35.57 20.53 71.28 29.48 107.31 1.32 5.3-1.68 9.03-6.78 10.72z"/><path fill="#fff" d="M378.99 558.19h26.64v32.69h-26.64z"/><path fill="#da573b" d="M499.72 671.84H357.7v-34.78s17.02-49.64 26.08-57.5 21-13.75 21-13.75h32.44s16.37 10.22 24.23 16.64c7.88 6.42 7.85 7.93 12.3 13.5 4.44 5.54 13.8 29 13.8 29l12.16 46.9z"/><path fill="#68b096" d="M586.71 663.39c-3.03-6.48-7.5-15.74-9.91-19.44-3.88-5.94-9.88-13-17.07-20.13-7.2-7.13-22.3-14.06-22.3-14.06l-20.17-1.95-12.08-1.18s-12.44 4.68-22.19 11.61-31.43 54.56-31.43 54.56h-.02c71.4 67.22 128.91 47.37 135.17 40.06 4.42-5.16 4.19-24.24 3.67-35.04-.64-8.15-3.65-14.44-3.65-14.44z"/><path fill="#f9cc76" d="m346.78 635.24-.01 27.33-142 7.33 12.17-46.76s9.35-23.37 13.8-28.92c4.45-5.53 4.42-7.04 12.29-13.45s24.22-16.57 24.22-16.57h32.46s11.94 5.87 21 13.7 26.06 57.32 26.06 57.32z"/><path fill="#1e1a28" d="M439.7 520.84s3.68 7 10.86 13.63c7.39 6.8 8.6 9.33 9.48 13.37 2.01 9.15.14 14.89-4.99 19.71-4.65 4.38-4.5 5.28-15.33 7.25-11.28 2.06-13.42-6.04-13.42-6.04s7.66-15.58 6.34-20.93c-1.31-5.35-7.15-16.78-7.15-16.78"/><path fill="#f9c4aa" d="M420.23 508.56a26.5 26.5 0 0 1 13.04 10.48l1.47 2.23a30.5 30.5 0 0 1 4.7 20.09l-.59 5.08a30 30 0 0 1-5.62 14.42l-1.97 2.67c-4.97 6.7-12.48 10.6-20.4 10.6h-6.28c-7.96 0-14.61-3.92-19.58-10.69l-.65-.88a30.3 30.3 0 0 1-5.71-19.55l.32-5.74c.63-11.68 7.76-21.75 17.98-25.4 5.35-1.92 17.96-5.28 23.3-3.34z"/><path fill="#f9c4aa" d="M438.66 537.87c1.3.43 2.46.95 2.7 1.92.58 1.6.79 3.06 0 4.63-.69 1.26-1.9 1.92-4.3 2.75l1.6-9.32zM380.1 537.87c-1.41.23-2.67.55-3.1 1.45-.85 1.44-1.3 2.85-.76 4.49.5 1.33 1.64 2.19 3.94 3.36l-.1-9.32z"/><path fill="#1e1a28" d="M399.14 510.58c-.02-.62-.81-3.18-.97-3.8-1.2.02 1.21-.22 0 0-12.4 2.28-23.58 16.93-21.18 29.85q.18.93.42 1.82c1.2-.01 2.55.26 3.63-.36 7.39-4.3 18.5-16.26 18.11-27.5z"/><path fill="#1e1a28" d="M395.88 507.32q-1.46.52-2.84 1.19c.39 2 .5 4.23 1.66 6 9.84 15 28.09 33.94 48.32 26.53.97-.35.65 0 1.32-1.35.07-2.49 1.17-5.36-.45-10.1-6.99-20.42-27.78-29.67-48-22.26zM313.32 513.13l3.22 8.28a85 85 0 0 1 4.43 15.62l2.36 12.84q-6.22 4.95-14.46 1.12l5.09-19.89M255.76 513.13l-3.87 8.12a84 84 0 0 0-5.6 15.42l-3.28 12.75c6.52 4.68 10.88 3.99 14.78 2.13l-3.89-20.36"/><path fill="#7f433b" d="M295.16 501.2a26.6 26.6 0 0 1 13.11 10.58l1.48 2.26a31 31 0 0 1 4.71 20.28l-.58 5.14a30.4 30.4 0 0 1-5.65 14.57l-1.99 2.7c-5 6.76-12.53 10.7-20.5 10.7h-6.3c-8 0-14.69-3.97-19.7-10.8l-.66-.88a30.7 30.7 0 0 1-5.73-19.74l.31-5.8c.64-11.79 7.82-21.95 18.1-25.65 5.37-1.92 18.05-5.33 23.41-3.37z"/><path fill="#1e1a28" d="M288.96 499q-.01-1.26-.1-2.5-2.49-.4-5.06-.41a31.83 31.83 0 0 0-31.68 34.39c1.64.26 3.43 1 5.04.4 20.71-7.68 31.78-14.27 31.78-31.88z"/><path fill="#1e1a28" d="M286.56 496.09q-1.2 0-2.36.1A30.08 30.08 0 0 0 316.2 531q.38-2.35.38-4.78a30.1 30.1 0 0 0-30.03-30.13"/><path fill="#1e1a28" d="M286.56 496.09q-1.2 0-2.36.1A30.08 30.08 0 0 0 316.2 531q.38-2.35.38-4.78a30.1 30.1 0 0 0-30.03-30.13"/><path fill="#7f433b" d="M313.35 531.12c1.3.44 2.46.96 2.71 1.93.58 1.6.78 3.06 0 4.62-.7 1.26-1.91 1.93-4.3 2.76l1.6-9.32zM254.8 530.8c-1.3.24-2.46.55-2.84 1.45-.8 1.45-1.2 2.86-.7 4.5.46 1.33 1.5 2.18 3.63 3.36l-.1-9.32z"/><path fill="#f8e0d8" d="M544.9 547.32A28 28 0 0 1 556.29 561l1.06 2.64a32.4 32.4 0 0 1 .61 21.9l-1.68 5.2a32 32 0 0 1-8.94 13.84l-2.64 2.36c-6.62 5.93-15.26 8.4-23.54 6.74l-6.53-1.33c-8.3-1.69-12.57-6.82-16.32-14.9l-.5-1.06a32 32 0 0 1-1.8-21.57l1.56-5.9c3.16-12.04 12.74-21.02 24.17-22.67 5.99-.86 18.02-2.08 23.18 1.07"/><path fill="#f8e0d8" d="M557.53 581.72c1.32.7 2.46 1.46 2.52 2.49.28 1.71.18 3.22-1 4.62-1.03 1.12-2.5 1.55-5.29 1.87l3.77-9z"/><path fill="#ed9a32" d="M542 550.4c.12-.59 1.31-2.87 1.57-3.41-1.16-.44 1.18.24 0 0 11.78 4.4 20.4 20.28 16 32.08q-.33.86-.7 1.65c-1.18-.24-2.54-.2-3.5-1-6.57-5.42-15.55-18.75-13.38-29.33z"/><path fill="#ed9a32" d="M548.12 549.33q1.35.93 2.6 1.95a41 41 0 0 1-3.28 5.73c-12.94 18.85-36.5 17.55-50.89 13.26 0 0-.12-.5-.08-.73-.48-2.34 2.46-11.04 3.72-12.88 12.94-18.86 29.07-20.26 47.91-7.32z"/><path fill="#153f7b" d="M646.66 647.37c5.18 1.6.57 8.08-2.46 13.14-4.67 7.76-10 15.14-15.7 22.2-11.13 13.77-23.76 26.38-37.22 37.9a292 292 0 0 1-98.53 55.61c-42.2 13.95-87.33 20.26-131.68 22.04-78.13 3.12-160.99 2.13-236.5-20.08-24.5-7.2-47.33-17.97-68.02-32.8a151 151 0 0 1-35.95-36.2 144 144 0 0 1-13.16-23.1c-2.41-5.3-14.41-25.5-1.68-25.56l325.98-1.27c25.96-1 281.27-9.93 310.19-12.18 2.09-.16 3.63-.04 4.72.3z"/></svg>