<svg xmlns="http://www.w3.org/2000/svg" width="800" height="800" fill="none" viewBox="0 0 800 800"><path fill="#f9c4aa" d="M400 800c220.91 0 400-179.09 400-400S620.91 0 400 0 0 179.09 0 400s179.09 400 400 400"/><path fill="#f4ece6" d="M524.24 448.66c22.1-22.1 27.48-52.57 12-68.04s-45.93-10.1-68.03 12-27.49 52.57-12.01 68.05 45.94 10.1 68.04-12.01M365.92 269.37c19.68-24.29 24.46-53.02 10.7-64.17s-40.88-.5-60.55 23.8-24.46 53.03-10.7 64.18 40.88.49 60.55-23.8M725.2 516.93c13.26-13.26 17.44-30.58 9.34-38.69s-25.43-3.92-38.7 9.34c-13.25 13.26-17.44 30.58-9.33 38.69 8.1 8.1 25.43 3.92 38.69-9.34M192.45 381.13a52.83 52.83 0 1 0 0-105.66 52.83 52.83 0 0 0 0 105.66M393.7 542.44c13.25-14.7-.5-48.68-30.7-75.88s-65.42-37.3-78.67-22.6c-13.25 14.72.5 48.7 30.7 75.89 30.2 27.2 65.42 37.3 78.67 22.6M259.33 623.38c38.19-13.9 62.5-43.42 54.3-65.94-8.2-22.53-45.8-29.52-83.98-15.62-38.2 13.9-62.5 43.43-54.3 65.95 8.19 22.52 45.8 29.51 83.98 15.61M563.5 300.63c14.66-28.78-2.06-66.68-37.34-84.66s-75.77-9.22-90.44 19.56c-14.66 28.79 2.05 66.7 37.33 84.67 35.28 17.98 75.78 9.22 90.44-19.57M644.98 600.68c11.35-22.28-8.05-54.92-43.33-72.9-35.28-17.97-73.09-14.48-84.44 7.8-11.36 22.28 8.04 54.92 43.32 72.9s73.1 14.49 84.45-7.8M222.4 199.34c27.4-12.77 43.17-36.9 35.24-53.9s-36.56-20.43-63.94-7.66c-27.4 12.77-43.17 36.9-35.24 53.9s36.55 20.43 63.94 7.66M448.23 731.6c9.9-17.14-4.76-44.13-32.73-60.28-27.98-16.16-58.68-15.35-68.58 1.8s4.75 44.14 32.73 60.29 58.68 15.35 68.58-1.8M686.45 302.91c23.6-11 37.04-32.18 30-47.3-7.06-15.1-31.9-18.43-55.52-7.42-23.6 11.01-37.04 32.19-29.99 47.3s31.9 18.43 55.5 7.42M118.3 473.51c14.17-6.6 17.45-29.57 7.32-51.29s-29.83-33.97-44-27.37c-14.16 6.6-17.43 29.57-7.3 51.3 10.12 21.71 29.82 33.97 43.99 27.36M470.89 150.72c10.58-24.93-10.38-57.7-46.83-73.17s-74.58-7.8-85.17 17.14 10.38 57.7 46.83 73.18c36.45 15.47 74.58 7.8 85.17-17.15"/></svg>