<svg xmlns="http://www.w3.org/2000/svg" width="1477" height="600" fill="none" viewBox="0 0 1477 600"><path fill="#f9c4aa" d="M1388.8 119.22c44.31 47.46 47.47 121.69 4.92 172.94a849 849 0 0 1-238.73 198.67C1023.92 564.43 880.47 600 738.48 600c-246.54 0-488.82-107.05-655.34-307.94-42.48-51.25-39.3-125.42 4.99-172.84L4.82 92.54A6.96 6.96 0 0 1 2.5 80.58L97.1 1.61a6.93 6.93 0 0 1 11.3 4.48l11.14 88.38c53.76-30.36 123.13-18.92 164.02 30.4 182.13 219.72 495.1 277.67 744.15 137.8a590 590 0 0 0 165.77-137.86c40.89-49.23 110.19-60.64 163.92-30.3l11.14-88.39a6.93 6.93 0 0 1 11.31-4.48l94.58 78.94a6.96 6.96 0 0 1-2.31 11.96z"/></svg>