<svg xmlns="http://www.w3.org/2000/svg" width="924" height="800" fill="none" viewBox="0 0 924 800"><path fill="#116e6b" d="M923.81 22.53v552.04a22.6 22.6 0 0 1-22.53 22.53H562.4c-8.79 0-16 7.1-16 16v80.77c0 8.8 7.1 16 16 16h124.83a22.6 22.6 0 0 1 22.53 22.53v45.07A22.6 22.6 0 0 1 687.23 800H236.59a22.6 22.6 0 0 1-22.54-22.53V732.4a22.6 22.6 0 0 1 22.54-22.53H361.4c8.8 0 16-7.1 16-16V613.1c0-8.8-7.1-16-16-16H22.53A22.6 22.6 0 0 1 0 574.57V22.53A22.6 22.6 0 0 1 22.53 0h878.75a22.6 22.6 0 0 1 22.53 22.53"/><rect width="788.62" height="405.58" x="67.6" y="95.39" fill="#faf7f4" rx="45.12"/><rect width="304.18" height="67.6" x="495.7" y="185.52" fill="#f9c4aa" rx="11.28"/><rect width="304.18" height="67.6" x="495.7" y="331.98" fill="#f9c4aa" rx="11.28"/><path fill="#054449" d="M217.09 151.5c-44.06-19.53-81.9-7.2-81.9-7.2s25.13 47.18 65.03 65.14c39.78 11.87 63.15-11.94 63.15-11.94s-2.2-26.48-46.27-46zm47.03 13.64 4.2 44.38v29.38a68 68 0 0 1 7.15 7.7c.17-.7 1.48-5.86 5.44-12.33v-69.13z"/><path fill="#da573b" d="M275.44 246.69s9.23-41.85 66.95-41.85 71.3 44.21 80.53 71.16c9.23 26.93 6.18 56.84-9.24 96.23-15.4 39.4-64.35 66.53-78.2 70.25-5.4 1.44-20.82 4.45-33.05-.87-16.93-5.3-13.85 2.38-48.28 2.38s-92.26-21.32-113.31-95.65c0 0-16.62-61.04 13.74-99.36 17.13-21.62 26.83-26.86 62.52-29.83s58.42 27.53 58.42 27.53h-.1z"/></svg>