<svg xmlns="http://www.w3.org/2000/svg" width="872" height="800" fill="none" viewBox="0 0 872 800"><path fill="#c58f79" d="M449.73 12.04c82-22.35 166.9 35.05 176.57 119.4-81.48 20.22-164.27-35.14-176.4-118.2zM366.03 414.29c85-.38 152.14 77.04 139.65 161.02-83.94-1.56-149.59-76.45-139.8-159.81zM468.73 668.32c82-22.35 166.9 35.05 176.57 119.4-81.48 20.22-164.28-35.14-176.4-118.2q-.1-.6-.17-1.2M547.6 467.37c25.9-80.92 120.3-120.85 196.34-83.01-27.42 79.32-118.95 118.6-195.23 83.52zM401.03 284.74C461.9 225.46 564 234.51 613.37 303.6c-61.46 57.17-160.73 48.88-211.6-17.88zM167.26 423.2c1.11-84.96 79.71-150.74 163.49-136.78-3.03 83.87-79.08 148.18-162.28 136.94q-.6-.08-1.21-.17M1.18 193.3c70.25-47.82 169.22-21.18 205.84 55.43-70.46 45.63-166.78 20.24-205.29-54.35q-.28-.53-.55-1.08M220.83 21.3c84.48-9.25 159.36 60.73 155.72 145.55-83.64 7.23-156.76-60.4-155.74-144.32q0-.62.02-1.23M257.24 799.67c-26.62-80.69 26.28-168.46 110.03-182.53 24.46 80.29-26.5 165.85-108.84 182.3zM63.02 545.7c50.85-68.08 153.1-75.1 212.68-14.58-51.76 66.07-151.1 73.41-211.8 15.43q-.45-.42-.88-.85M650.95 641.07c21.64-82.17 113.82-126.98 191.73-93.17-23.23 80.65-112.58 124.65-190.6 93.62zM774.57 285.33C705.6 235.69 696.8 133.6 756.27 73c67 50.58 76.07 149.75 19.13 211.43z"/></svg>