<svg xmlns="http://www.w3.org/2000/svg" width="1508" height="717" fill="none" viewBox="0 0 1508 717"><path fill="#DA573B" d="M378.56 273.04h188.71V375.3H378.56z"/><path fill="#F9C4AA" d="M385.97 281.64h6.4v85.25h-6.4zM404.58 281.64h6.4v85.25h-6.4zM423.19 281.64h6.4v85.25h-6.4zM441.8 281.64h6.4v85.25h-6.4zM460.41 281.64h6.4v85.25h-6.4zM479.02 281.64h6.4v85.25h-6.4zM497.63 281.64h6.4v85.25h-6.4zM516.24 281.64h6.4v85.25h-6.4zM534.85 281.64h6.4v85.25h-6.4zM553.47 281.64h6.4v85.25h-6.4z"/><path fill="#DA573B" d="M176.9 164.16h188.71v102.26H176.9z"/><path fill="#F9C4AA" d="M184.31 172.77h6.4v85.25h-6.4zM202.92 172.77h6.4v85.25h-6.4zM221.53 172.77h6.4v85.25h-6.4zM240.14 172.77h6.4v85.25h-6.4zM258.75 172.77h6.4v85.25h-6.4zM277.36 172.77h6.4v85.25h-6.4zM295.97 172.77h6.4v85.25h-6.4zM314.58 172.77h6.4v85.25h-6.4zM333.19 172.77h6.4v85.25h-6.4zM351.8 172.77h6.4v85.25h-6.4z"/><path fill="#DA573B" d="M778.64 55.15h188.71v102.26H778.64z"/><path fill="#F9C4AA" d="M786.05 63.75h6.4V149h-6.4zM804.65 63.75h6.4V149h-6.4zM823.27 63.75h6.4V149h-6.4zM841.88 63.75h6.4V149h-6.4zM860.49 63.75h6.4V149h-6.4zM879.1 63.75h6.4V149h-6.4zM897.71 63.75h6.4V149h-6.4zM916.32 63.75h6.4V149h-6.4zM934.93 63.75h6.4V149h-6.4zM953.54 63.75h6.4V149h-6.4z"/><path fill="#DA573B" d="M778.64 273.2h188.71v102.26H778.64z"/><path fill="#F9C4AA" d="M786.05 281.8h6.4v85.25h-6.4zM804.65 281.8h6.4v85.25h-6.4zM823.27 281.8h6.4v85.25h-6.4zM841.88 281.8h6.4v85.25h-6.4zM860.49 281.8h6.4v85.25h-6.4zM879.1 281.8h6.4v85.25h-6.4zM897.71 281.8h6.4v85.25h-6.4zM916.32 281.8h6.4v85.25h-6.4zM934.93 281.8h6.4v85.25h-6.4zM953.54 281.8h6.4v85.25h-6.4z"/><path fill="#F9CC76" d="M176.9 273.08h188.63V375.3H176.9z"/><path fill="#F8DE9C" d="M184.3 281.68h6.4v85.21h-6.4zM202.91 281.68h6.4v85.21h-6.4zM221.51 281.68h6.4v85.21h-6.4zM240.11 281.68h6.4v85.21h-6.4zM258.72 281.68h6.4v85.21h-6.4zM277.32 281.68h6.4v85.21h-6.4zM295.92 281.68h6.4v85.21h-6.4zM314.53 281.68h6.4v85.21h-6.4zM333.13 281.68h6.4v85.21h-6.4zM351.73 281.68h6.4v85.21h-6.4z"/><path fill="#9ECCED" d="M580.15 55.15h188.63v102.22H580.15z"/><path fill="#DFEEF6" d="M587.56 63.75h6.4v85.21h-6.4zM606.16 63.75h6.4v85.21h-6.4zM624.76 63.75h6.4v85.21h-6.4zM643.37 63.75h6.4v85.21h-6.4zM661.97 63.75h6.4v85.21h-6.4zM680.57 63.75h6.4v85.21h-6.4zM699.18 63.75h6.4v85.21h-6.4zM717.78 63.75h6.4v85.21h-6.4zM736.38 63.75h6.4v85.21h-6.4zM754.98 63.75h6.4v85.21h-6.4z"/><path fill="#9ECCED" d="M378.88 164.17h188.63v102.22H378.88z"/><path fill="#DFEEF6" d="M386.28 172.78h6.4v85.21h-6.4zM404.88 172.77h6.4v85.21h-6.4zM423.48 172.77h6.4v85.21h-6.4zM442.09 172.77h6.4v85.21h-6.4zM460.69 172.77h6.4v85.21h-6.4zM479.3 172.77h6.4v85.21h-6.4zM497.9 172.77h6.4v85.21h-6.4zM516.5 172.77h6.4v85.21h-6.4zM535.1 172.77h6.4v85.21h-6.4zM553.71 172.78h6.4v85.21h-6.4z"/><path fill="#9ECCED" d="M778.64 164.17h188.63v102.22H778.64z"/><path fill="#DFEEF6" d="M786.04 172.78h6.4v85.21h-6.4zM804.65 172.78h6.4v85.21h-6.4zM823.25 172.78h6.4v85.21h-6.4zM841.85 172.78h6.4v85.21h-6.4zM860.45 172.77h6.4v85.21h-6.4zM879.06 172.77h6.4v85.21h-6.4zM897.66 172.77h6.4v85.21h-6.4zM916.26 172.77h6.4v85.21h-6.4zM934.87 172.77h6.4v85.21h-6.4zM953.47 172.77h6.4v85.21h-6.4z"/><path fill="#F9CC76" d="M580.22 273.04h188.63v102.22H580.22z"/><path fill="#F8DE9C" d="M587.63 281.64h6.4v85.21h-6.4zM606.23 281.64h6.4v85.21h-6.4zM624.83 281.64h6.4v85.21h-6.4zM643.44 281.64h6.4v85.21h-6.4zM662.04 281.64h6.4v85.21h-6.4zM680.64 281.64h6.4v85.21h-6.4zM699.25 281.64h6.4v85.21h-6.4zM717.85 281.64h6.4v85.21h-6.4zM736.45 281.64h6.4v85.21h-6.4zM755.05 281.64h6.4v85.21h-6.4z"/><path fill="#F9CC76" d="M580.86 164.17h188.63v102.22H580.86z"/><path fill="#F8DE9C" d="M588.26 172.77h6.4v85.21h-6.4zM606.86 172.78h6.4v85.21h-6.4zM625.46 172.78h6.4v85.21h-6.4zM644.06 172.78h6.4v85.21h-6.4zM662.67 172.78h6.4v85.21h-6.4zM681.27 172.78h6.4v85.21h-6.4zM699.88 172.78h6.4v85.21h-6.4zM718.48 172.78h6.4v85.21h-6.4zM737.08 172.78h6.4v85.21h-6.4zM755.68 172.77h6.4v85.21h-6.4z"/><path fill="#0C4FA1" d="M1050.1 111.82h254.39v211.76H1050.1z"/><path fill="#153F7B" d="M1371.24 296.3c-184.09-7.93-439.65-29.12-643.59 66.28-256.16-6.12-574.2-16.26-637.39-22.65-8.34-.92-7.86 4.45-7.16 7.1 43.44 122.78 124.06 190.23 156.03 222.04 32.72 32.53 963.42 15.75 1085.72 15.75 25.51-64.12 35.72-151.42 51.77-282.94.59-5.5-5.36-5.6-5.36-5.6l-.02.01ZM1037.52 102.73h280.25v9.09h-280.25z"/><path fill="#153F7B" d="M1217.62 0h37.16l18.26 107.63h-71.29L1217.62 0Z"/><path fill="#0C4FA1" d="M176 503.9h1171.56l-16.15 96.44L240.72 580.6l-64.73-76.7ZM1217.64 0h37.23l6.45 38.44h-49.35L1217.64 0Z"/><path fill="#153F7B" d="M1113.93 140.4c1.24.15 2.1.86 2.23 2.72.2 2.82.21 13.34.33 15.45.25 4.51-.12 19.63-.33 22.55-.11 1.53-.75 2.64-1.82 2.98-1.73.56-4.84.29-6.74.35-9.61.33-9.32.06-10.62-.04-3.26-.28-2.54-5.3-2.37-9.3.14-3.45-.67-30.9.38-33 .83-1.64 2.64-1.27 3.93-1.25 5.56.13 11.7-.86 15.01-.46ZM1257.93 140.4c1.23.15 2.09.86 2.23 2.72.2 2.82.21 13.34.33 15.45.25 4.51-.12 19.63-.33 22.55-.11 1.53-.76 2.64-1.83 2.98-1.72.56-4.83.29-6.73.35-9.62.33-9.32.06-10.63-.04-3.26-.28-2.53-5.3-2.36-9.3.14-3.45-.68-30.9.38-33 .83-1.64 2.64-1.27 3.93-1.25 5.56.13 11.7-.86 15.01-.46ZM1145.07 140.4c-1.24.15-2.1.86-2.24 2.72-.2 2.82-.2 13.34-.32 15.45-.26 4.51.12 19.63.32 22.55.11 1.53.76 2.64 1.83 2.98 1.73.56 4.84.29 6.74.35 9.61.33 9.32.06 10.62-.04 3.26-.28 2.54-5.3 2.37-9.3-.15-3.45.67-30.9-.39-33-.82-1.64-2.64-1.27-3.92-1.25-5.56.13-11.71-.86-15.01-.46ZM1193.07 140.4c-1.24.15-2.1.86-2.24 2.72-.2 2.82-.21 13.34-.32 15.45-.26 4.51.12 19.63.32 22.55.11 1.53.76 2.64 1.83 2.98 1.73.56 4.84.29 6.74.35 9.61.33 9.31.06 10.62-.04 3.26-.28 2.54-5.3 2.37-9.3-.15-3.45.67-30.9-.39-33-.83-1.64-2.64-1.27-3.92-1.25-5.57.13-11.71-.86-15.02-.46h.01Z"/><path fill="#CDE5F2" d="M247.68 716.74h1259.41c-11.29-110.02-52.81-180.5-132.04-180.5-79.23 0-103.26 43.32-142.57 43.32-57.66 0-59.05-43.33-154.1-43.33s-114.27 43.33-175.07 43.33-96.51-41.2-147.82-43.33c-95.39-3.95-123.35 43.33-169.83 43.33-46.48 0-75.13-43.33-133.83-43.33-58.7 0-74.78 43.33-138.03 43.33s-86.48-57.16-170.18-36.34C59.92 564.05 15.57 679.72 0 716.74H247.68Z"/></svg>