<svg xmlns="http://www.w3.org/2000/svg" width="965" height="800" fill="none" viewBox="0 0 965 800"><path fill="#9ecced" d="M171.86 150.76c-1.67-8.92 5.14-18.27 14.22-18.27H949.9a14.5 14.5 0 0 1 13.27 20.38L798.85 524.29a14.5 14.5 0 0 1-13.2 8.64h-529.8c-6.97 0-13-3.69-14.3-10.6L171.88 150.7z"/><path fill="#4698d3" d="m800.78 601.8-528.06-3.73-92.65-546.73C176.7 31.33 160.22 15.59 140 13.07L35.72.24A31.9 31.9 0 0 0 .24 27.95a31.9 31.9 0 0 0 27.71 35.47l91.44 11.21L212.33 623a46.24 46.24 0 0 0 45.35 38.6l542.91 3.76h2.97a31.95 31.95 0 0 0 28.82-31.44 31.87 31.87 0 0 0-31.59-32.1"/><path fill="#153f7b" d="M286.43 799.99a73.2 73.2 0 0 0 73.18-73.19 73.18 73.18 0 1 0-146.36 0A73.2 73.2 0 0 0 286.43 800"/><path fill="#faf7f4" d="M286.43 749.51a22.71 22.71 0 1 0 0-45.42 22.71 22.71 0 0 0 0 45.42"/><path fill="#153f7b" d="M750.77 799.99a73.18 73.18 0 1 0 0-146.37 73.18 73.18 0 1 0 0 146.37"/><path fill="#faf7f4" d="M750.77 749.51a22.71 22.71 0 1 0 0-45.42 22.71 22.71 0 0 0 0 45.42"/></svg>