<svg xmlns="http://www.w3.org/2000/svg" width="856" height="800" fill="none" viewBox="0 0 856 800"><path fill="#116e6b" d="m41.32 377.86 35.65 385.22A40.7 40.7 0 0 0 117.51 800h618.03c21.04 0 38.6-16 40.54-36.92l35.64-385.22z"/><rect width="856" height="88.56" y="289.3" fill="#68b096" rx="17.73"/><rect width="83.05" height="445.45" fill="#116e6b" rx="17.73" transform="rotate(44 355.79 880.53)"/><path fill="#faf7f4" d="M448.4 330.74a20.16 20.16 0 1 0 28.01-29 20.16 20.16 0 0 0-28 29M245 470.18c0-15.12-11.9-27.37-26.57-27.37s-26.57 12.25-26.57 27.37v228.64c0 15.12 11.9 27.38 26.57 27.38s26.56-12.26 26.56-27.38zM383.72 470.18c0-15.12-11.89-27.37-26.56-27.37s-26.57 12.25-26.57 27.37v228.64c0 15.12 11.9 27.38 26.57 27.38s26.56-12.26 26.56-27.38zM522.46 470.18c0-15.12-11.9-27.37-26.57-27.37s-26.57 12.25-26.57 27.37v228.64c0 15.12 11.9 27.38 26.57 27.38s26.57-12.26 26.57-27.38zM661.19 470.18c0-15.12-11.9-27.37-26.57-27.37s-26.57 12.25-26.57 27.37v228.64c0 15.12 11.9 27.38 26.57 27.38s26.57-12.26 26.57-27.38z"/></svg>