<svg xmlns="http://www.w3.org/2000/svg" width="240" height="169" fill="none" viewBox="0 0 240 169"><path fill="#f9c4aa" d="M67.48 14.02C38.11 22.5-4.96 65.68.47 94.68S28.34 168.85 85.69 169s102.11-6.58 119.94-19.43c34.4-24.72 50.87-100.69 11.47-131.9-32.07-25.4-91.3-20.48-149.62-3.65"/><path fill="#da573b" d="M28.36 53.92c-7.4 3.56-22.62 25.96-17.78 39.42 4.84 13.45 12.04 39.79 29.81 50.88 17.78 11.1 47.48 13.94 61.99 13.3 14.5-.63 40.38 4.99 38.13-10.45-2.25-15.4-1.83-55.94-15.97-64.79-14.14-8.84-20.96-44.74-36.6-47.02S72.12 47.43 59.78 55.23s-18.75-7.38-31.42-1.28zM109.21 39.37c1.58 7.56 12.83 30 20.52 34.41 7.69 4.42 62.52 10.72 60.38 2.45s-27.64-34.38-43.96-38.64c-7.38-1.93-38.32-4.83-36.94 1.78M159.33 87.56c-15.13.08-15.55 11.94-14.68 22.02.83 10.08 37.9 2.8 42.78-3.68s-9.68-18.37-28.06-18.3zM198.74 109.51c-6.8 3.95-46.17 14.7-48.03 19.58s-9.07 21.19 1.56 22.46c10.63 1.28 44.39-1.46 46.1-13.03s8.36-33.7.37-29.04z"/></svg>