<svg xmlns="http://www.w3.org/2000/svg" width="1116" height="800" fill="none" viewBox="0 0 1116 800"><path fill="#f9c4aa" d="M1097.81 545.17c-37.72 152.84-170.35 202.23-314.53 217.68-180.91 19.43-357.51 29.42-540.35 37.07-24.3 1-55.19-7.92-74.98-17.5-82.02-39.74-133.82-109.7-156.47-198.64C-48.9 346.74 137 100.84 378.62 37.66 503.27 5.11 633.38-10.8 760.23 8.11c108.26 16.1 204.3 70.1 277.35 146.05 45.36 47.13 70 106.9 75.58 171.47 6.44 73.96 2.19 148.45-15.35 219.54"/><path fill="#da573b" d="M1022.1 302.66c-16.35-58.03-63.89-107.26-117.58-139.22-93.02-55.38-199.47-85.02-308.11-78.94-31.98 1.79-65.48 14.9-81.43 41.23-32.64 53.92 16.02 126.38 35.81 205.65 15.43 61.73-3.37 122.8-49.98 165.42l-82.23 75.17c-33.43 30.57-39.65 92.5-3.57 123.8 30.72 26.67 86.6 19.78 124.33 19.52 66-.4 131.68-9.2 196.1-23.23 64.48-14.02 136.18-27.12 189.8-68.15 53.16-40.76 80.57-99.85 95.87-163.5 12.18-50.89 17.01-107 1.05-157.75z"/><path fill="#da573b" d="M405.2 474.42c33.1-.66 55.22-18.58 65.08-45.06 22.18-53.75 13.79-109.67-4.26-163.68-12.8-38.2-24.05-75.95-41.44-111.12-38.43-77.73-182.05 21.2-221.82 60.33-28.17 27.73-36.17 77.73-10.66 107.9l62.15 73.77c37.37 44.4 86.53 77.79 151.02 77.86zM283.6 689.42c8.65-36.35 22.64-67.07 42.5-100.1 51.16-85.2-54.3-49.3-154.76-212.64-4.88-8.03-20.2-18.11-28.51-18.51-33.86-1.53-56.76 57.32-61.12 92.42-12.8 102.17 18.61 248.39 137.41 273.47 28.32 5.97 57.62-5.58 64.49-34.64"/></svg>