<svg xmlns="http://www.w3.org/2000/svg" width="183" height="835" fill="none" viewBox="0 0 183 835"><path fill="#153F7B" d="M.03 171.82c-.67 36.54 10.02 69.52 31.4 98.93 8.9 12.26 18.03 24.51 26.71 37 13.8 19.82 19.82 41.44 20.26 65.72 1.34 104.95-5.12 209.23-15.36 313.51a4384.36 4384.36 0 0 0-9.35 107.62c-1.34 16.94 7.57 30.53 21.6 36.77 14.69 6.68 30.94 4 42.3-6.91 9.35-8.7 12.69-19.83 11.57-32.31-3.34-38.1-6.45-76.2-10.02-114.3-10.01-104.28-16.25-208.79-14.24-313.51.44-17.83 5.78-34.32 15.36-49.25 6.68-10.24 13.13-20.72 20.93-30.08 40.96-48.57 48.98-104.05 36.29-164.21-6.9-32.31-17.37-63.06-37.18-89.8-30.73-41.44-67.02-41.22-97.75 0C16.95 65.54.03 121.69.03 171.82Z"/></svg>