<svg xmlns="http://www.w3.org/2000/svg" width="585" height="800" fill="none" viewBox="0 0 585 800"><path fill="#b4cea0" d="M349.2 456.69c-32.44-149.44 78.69-296.61 231.16-306.04C609 298.96 501.75 442.53 351.38 456.49q-1.1.12-2.19.2M300.77 373.24C162.63 307.83 113.9 130.14 199.47 3.68c134.94 67.73 183.18 240.16 102.48 367.71q-.58.94-1.18 1.85"/><path fill="#b4cea0" d="M306.24 331.13H276.8v249.15h29.44z"/><path fill="#b4cea0" d="m403.23 393.98-26-13.8-99.09 186.46 26 13.8z"/><path fill="#7f433b" d="M563.5 800c4.32 0 7.76-3.5 7.76-7.75v-12.01c0-81.51-63.06-148.34-143.16-154.38a9.7 9.7 0 0 1-7.7-4.8 155 155 0 0 0-133.53-76.1c-56.88 0-110.12 32.8-136.36 81.1a9.8 9.8 0 0 1-7.63 5.09C62.65 639.45 0 707.17 0 789.57v2.68c0 4.32 3.5 7.75 7.76 7.75H563.5"/></svg>