<svg xmlns="http://www.w3.org/2000/svg" width="817" height="787" fill="none" viewBox="0 0 817 787"><path fill="#F9CC76" d="M90.57 699.7c-.77-2.16-.33-17.09-.25-20.94.78-50.2 14.65-104.63 29.02-152.6 8.23-27.48 21.58-57.43 28.03-84.52 1.75-7.34 1.82-13-1.6-19.93-43.2-45.71-97.2-84.6-141.15-129.14-8.07-8.18-2.44-13.37 6.58-16.66 40.6-11.03 82.67-16.48 123.5-26.24 10.45-2.5 36.13-7.36 42.24-15.18 4.55-5.81 6.6-16.5 8.6-23.75 16.37-59.03 24.35-121.02 40.78-180.05 5.05-18.08 10.9-41.69 33.86-25L429.4 162.35c3.63.3 8.15.65 11.66-.03 19.92-3.85 56.72-21.98 78.5-29.38 27.19-9.23 54.98-19.05 82.59-26.83 17.81-5.02 50.92-19.44 49.51 10.39-2.9 60.26-20.73 126.02-25.16 186.87.1 11.76 4.41 17.69 12.96 25.15 52.74 46.02 116.96 85.46 170.77 131 17.67 17.4-6.05 27.33-20.64 32.47-55.01 19.4-124.4 28.63-178 51.28-19.67 8.31-23.21 15.8-30.81 35-25.35 64.1-42.01 135.37-66.33 200.26-1.96 5.4-5.75 9.04-11.55 6.9L345.06 637.53c-5.96-5.4-13.54-6.22-21.13-5.42-16.73 1.74-46.07 12.4-63.26 17.68-52.92 16.27-104.73 36.38-156.22 56.57-5.62 1.31-11.84-1-13.88-6.67Z"/></svg>