<svg xmlns="http://www.w3.org/2000/svg" width="755" height="800" fill="none" viewBox="0 0 755 800"><path fill="#F9CC76" d="M2.19 426.69c-3.66-6-2.13-21 .2-28.04 4.68-14.24 129.82-83.3 153.4-96.35 34.45-19 71.06-35.38 106.78-51.7 8.1-39.15-11.44-224.67 12.3-243.32 3.7-2.88 11.44-3.77 16.32-2.73 23.64 5.11 105.3 85.98 127.56 108.11 10.95 10.87 14.5 28.83 29.75 30.72 18.95.54 199.35-122.26 248-137 73.68-22.27 65.14 16.83 42.3 69.57-36.82 84.94-113.94 163.43-157.71 245.65 40.12 75.71 113.05 129.8 152.67 205.66 6.96 13.3 25.61 41.43 8.39 53.19-44.76 30.51-255.06-68.57-276.48-54.98L320.9 800c-29.06.8-31.09-289.86-56.85-315.12-35.08-34.38-249.04-37-261.91-58.2h.05Z"/></svg>