<svg xmlns="http://www.w3.org/2000/svg" width="862" height="912" fill="none" viewBox="0 0 862 912"><path fill="#F9CC76" d="M610.57 112.55c-.96-1.59-.56-5.54.05-7.4 1.24-3.75 34.23-21.97 40.45-25.41 9.08-5.01 18.74-9.33 28.16-13.64 2.13-10.33-3.02-59.26 3.24-64.18.97-.76 3.02-1 4.3-.72 6.24 1.35 27.77 22.68 33.64 28.52 2.88 2.86 3.82 7.6 7.84 8.1 5 .14 52.57-32.25 65.4-36.14 19.42-5.87 17.17 4.44 11.14 18.35-9.7 22.4-30.04 43.11-41.58 64.8 10.58 19.97 29.81 34.23 40.26 54.25 1.83 3.5 6.75 10.92 2.2 14.03-11.8 8.04-67.24-18.1-72.89-14.5L694.61 211c-7.67.22-8.2-76.45-15-83.11-9.24-9.07-65.66-9.76-69.05-15.35h.01ZM335.25 749.58c-.48-1.34-.2-10.63-.16-13.03.5-31.23 9.12-65.09 18.06-94.93 5.12-17.1 13.42-35.73 17.44-52.58 1.08-4.57 1.13-8.09-1-12.4-26.88-28.44-60.46-52.63-87.81-80.34-5.02-5.09-1.52-8.32 4.1-10.37 25.25-6.85 51.42-10.24 76.82-16.32 6.5-1.55 22.48-4.58 26.28-9.44 2.83-3.62 4.1-10.27 5.35-14.77 10.18-36.73 15.15-75.3 25.37-112.01 3.14-11.25 6.78-25.94 21.07-15.56l105.27 97.46c2.26.19 5.07.4 7.25-.02 12.4-2.4 35.29-13.67 48.84-18.28 16.91-5.74 34.2-11.85 51.38-16.69 11.08-3.12 31.68-12.1 30.8 6.46-1.8 37.5-12.9 78.4-15.65 116.26.06 7.31 2.74 11 8.05 15.64 32.82 28.63 72.77 53.17 106.24 81.5 11 10.83-3.76 17-12.84 20.2-34.22 12.07-77.39 17.81-110.74 31.9-12.23 5.17-14.43 9.83-19.16 21.77-15.77 39.89-26.14 84.22-41.26 124.6-1.23 3.34-3.58 5.61-7.19 4.28l-98.2-92c-3.7-3.37-8.41-3.87-13.14-3.37-10.4 1.08-28.66 7.7-39.35 11-32.92 10.12-65.15 22.63-97.19 35.19-3.49.81-7.36-.63-8.63-4.15ZM282.56 205.81c1.73-1.68 2.5-6.8 2.32-9.34-.35-5.14-36.04-38.73-42.77-45.07-9.82-9.24-20.59-17.8-31.07-26.26.64-13.7 22.89-73.78 16.6-82-1-1.27-3.49-2.22-5.2-2.29-8.28-.3-42.28 19.68-51.55 25.16-4.56 2.68-7.27 8.36-12.49 7.7-6.34-1.43-55.82-57.59-70.73-66.62-22.57-13.66-23.06.08-19.95 19.56 5 31.39 23.95 64.04 31.5 95.1-19.75 21.8-48.57 33.61-68.17 55.5-3.44 3.83-12.03 11.6-7.3 16.98 12.27 13.95 90.53-1.19 96.49 5.15L145 303c9.58 2.73 34.95-93.8 45.65-100.03 14.57-8.46 85.85 8.8 91.93 2.85h-.02Z"/></svg>