<svg xmlns="http://www.w3.org/2000/svg" width="436" height="894" fill="none" viewBox="0 0 436 894"><rect width="435.92" height="357.6" y="536.4" fill="#0c4fa1" rx="8.87"/><rect width="329.52" height="134.47" x="53.2" y="693.77" fill="#dfeef6" rx="5.91"/><rect width="387.15" height="14.78" x="24.38" y="647.96" fill="#dfeef6" rx="7.39"/><circle cx="356.4" cy="592.92" r="24.01" fill="#dfeef6"/><circle cx="264.04" cy="592.92" r="24.01" fill="#dfeef6"/><circle cx="171.69" cy="592.92" r="24.01" fill="#dfeef6"/><circle cx="79.43" cy="592.92" r="24.01" fill="#dfeef6"/><path fill="#0c4fa1" d="M428.77 192.72H7.17A7.17 7.17 0 0 1 0 185.55v-24c0-4.33 1.98-8.46 5.35-11.18L140.36 71.5a14.3 14.3 0 0 0 5.35-11.17V7.28a7.17 7.17 0 0 1 7.17-7.17h130.15a7.17 7.17 0 0 1 7.18 7.17v53c0 4.33 1.97 8.46 5.34 11.17l135.02 78.87a14.3 14.3 0 0 1 5.35 11.18v24a7.17 7.17 0 0 1-7.18 7.17z"/></svg>