<svg xmlns="http://www.w3.org/2000/svg" width="927" height="929" fill="none" viewBox="0 0 927 929"><rect width="440.45" height="103.57" x="382.56" y="567.45" fill="#f4ece6" rx="11.26"/><rect width="440.45" height="103.57" x="447.09" y="463.88" fill="#68b096" rx="11.26"/><ellipse cx="770.49" cy="515.66" fill="#f9cc76" rx="32.26" ry="32.27"/><rect width="440.45" height="174.86" x="486.11" y="671.01" fill="#f9cc76" rx="11.26"/><path fill="#faf7f4" d="M719.46 671.01h57.78v174.86h-57.78zM809.5 671.01h45.77v174.86H809.5z"/><path fill="#054449" d="M113.58 845.72c13.98 8.24 32.6 2.53 41.6-12.74s4.96-34.33-9.02-42.57c-13.98-8.23-32.61-2.53-41.6 12.75s-4.96 34.33 9.02 42.56"/><path fill="#f4ece6" d="M153.13 836.48 232 781.85l-120-70.69-9.55 95.48z"/><path fill="#116e6b" d="M571.48 205.55 232.02 781.84l-120-70.69 339.46-576.29 24.41 14.38a67 67 0 0 1 4.6-58.6 67.08 67.08 0 1 1 66.58 100.54l24.41 14.38z"/><path fill="#f4ece6" d="M656.8 245.13 532.5 456.16a12.63 12.63 0 0 1-17.3 4.47l-22.87-13.46a12.63 12.63 0 0 1-4.47-17.3l98.02-166.4c3.54-6 1.53-13.75-4.47-17.29L393.58 135.54a12.63 12.63 0 0 1-4.47-17.3l13.47-22.86c3.54-6 11.28-8 17.29-4.47l232.46 136.93c6 3.54 8 11.28 4.47 17.3"/></svg>