<svg xmlns="http://www.w3.org/2000/svg" width="806" height="800" fill="none" viewBox="0 0 806 800"><path fill="#f9cc76" d="M403 596.68c108.61 0 196.67-88.06 196.67-196.68S511.61 203.32 403 203.32 206.31 291.38 206.31 400 294.37 596.68 403 596.68M238.3 193.56c1.35 13.2-32.73 36.14-41.6 35.69-9.41-.55-20.62-8.33-26.8-14.54L116 160.63c-4.93-5.03-13.98-18.13-12.36-24.5 2.95-11.3 26.44-34.55 37.92-36.05 6.1-.82 17.14 7.19 22.14 12.12l63.57 63.14c4.2 4.2 10.48 13.1 11.03 18.22M5.02 429.3c-10.3-8.34-2.6-48.7 4-54.7 7.02-6.3 20.44-8.75 29.21-8.78l76.35-.13c7.05.04 22.71 2.82 26.08 8.46 5.93 10.05 5.84 43.1-1.16 52.33-3.73 4.9-17.17 7.1-24.22 7.19l-89.6.61c-5.95 0-16.68-1.8-20.69-5zM158.55 688.09c-5.73 5.3-17.76 12.74-23.42 10.94-12.64-4.21-40.27-36.87-32.29-46.38 14.71-17.49 80.53-87.38 93.72-85.92 11.66 1.27 34.08 24.58 34.26 40.27.1 7.74-8.23 22.07-14.53 27.91l-57.65 53.2h-.1zM368.24 772.7l.62-85.11c.09-7.05 2.3-20.47 7.18-24.22 9.2-7 42.24-7.1 52.31-1.16 5.64 3.36 8.44 19.06 8.46 26.08l-.13 76.38c-.03 8.75-2.5 22.2-8.78 29.22-5.98 6.58-46.36 9.78-54.68-.52-3.2-4-5.03-14.74-5-20.7h.02zM704.8 659.98c1.33 13.19-32.75 36.13-41.61 35.7-9.42-.54-20.63-8.34-26.81-14.53l-53.88-54.09c-4.94-5.02-14-18.12-12.37-24.5 2.96-11.3 26.44-34.54 37.92-36.04 6.1-.82 17.14 7.19 22.15 12.12l63.56 63.14c4.21 4.2 10.49 13.1 11.03 18.22zM779.43 434.28l-89.6-.61c-7.05-.1-20.46-2.3-24.21-7.19-7-9.2-7.1-42.26-1.16-52.33 3.36-5.64 19.05-8.44 26.07-8.46l76.35.13c8.75 0 22.2 2.5 29.22 8.78 6.57 5.98 14.3 46.38 4 54.7-4 3.21-14.74 5.03-20.7 5zM627.5 222.15c-5.74 5.3-17.76 12.74-23.42 10.94-12.64-4.2-40.27-36.87-32.29-46.4 14.71-17.49 80.53-87.38 93.72-85.92 11.66 1.27 34.08 24.58 34.26 40.27.1 7.74-8.23 22.07-14.53 27.91l-57.65 53.2zM436.79 27.33l-.62 85.08c-.09 7.05-2.3 20.47-7.18 24.22-9.2 7.01-42.24 7.1-52.31 1.16-5.64-3.36-8.44-19.05-8.46-26.08l.13-76.38c0-8.75 2.5-22.2 8.78-29.22 5.98-6.58 46.33-9.78 54.68.52 3.2 4 5.02 14.74 5 20.7z"/></svg>