<svg xmlns="http://www.w3.org/2000/svg" width="1067" height="833" fill="none" viewBox="0 0 1067 833"><path fill="#116e6b" d="M552.96 237.42 758.9 137l259.07 531.17a59.23 59.23 0 0 1-27.27 79.2l-99.45 48.51a59.23 59.23 0 0 1-79.2-27.27z"/><rect width="278.38" height="140.39" x="469.28" y="122.04" fill="#ed9a32" rx="24.68" transform="rotate(-26 469.28 122.04)"/><path fill="#153f7b" d="M540.86 371.2c-.62 103.73-.92 207.43-1.54 311.16 0 30.07-1.24 62.92-20.89 85.91-24.29 28.24-66.4 30.07-103.56 30.07a62369 62369 0 0 0-288.88 0c-37.19 0-79.3-1.83-103.56-30.07-19.68-23.02-20.9-55.84-20.9-85.91C.93 578.63.63 474.93 0 371.2c0-32.83 0-66.6 9.53-97.9 9.53-31.61 30.74-61.38 61.16-73.04 11.36-4.3 23.97-6.45 33.5-14.12 8.9-7.37 7.36-16.87 7.36-30.37h317.76c0 13.5-1.54 23.03 7.37 30.37 9.53 7.67 22.13 9.83 33.5 14.12 30.41 11.66 51.63 41.43 61.15 73.04 9.53 31.3 9.53 65.05 9.53 97.9"/><rect width="392" height="106.68" x="74.43" y="49.09" fill="#1e1a28" rx="17.37"/></svg>