<svg xmlns="http://www.w3.org/2000/svg" width="218" height="302" fill="none" viewBox="0 0 218 302"><path fill="#153F7B" d="M214.16 90.37c-3.84-12.74-12.39-24.74-24.65-29.44-4.58-1.73-9.66-2.6-13.5-5.69-3.6-2.96-2.97-6.8-2.97-12.24H43.48c0 7.3.37 8.53-2.73 11.38-3.47 3.21-8.17 4.45-12.5 6.43a43.85 43.85 0 0 0-13.01 8.78C6.19 78.13 1.49 89.88.62 102.37c-1.12 16.7-.25 33.77-.25 50.46C.25 187.1 0 221.48 0 255.74c0 12.12.37 25.36 8.42 34.39 9.3 10.39 24.9 11.25 38.77 11.25 40.01.25 80.02.37 120.03.62 14.98 0 31.95-.74 41.74-12.12 7.92-9.28 8.42-22.51 8.42-34.63.25-41.81.37-83.62.62-125.42 0-13.24 0-26.84-3.84-39.46Z"/><path fill="#1E1A28" d="M189 24.6V13.43c0-3.35-.12-7.08-2.36-9.7C183.91.5 179.2.26 174.97.26h-29.66C109.8.12 74.44 0 39.06 0c-2.23 0-4.84 0-6.45 1.74-1.5 1.5-1.74 3.98-1.87 6.09L30 25.85v12.93c0 2.36 2.6 4.22 5.83 4.22h147.21c3.23 0 5.84-1.86 5.84-4.23V24.61h.12Z"/></svg>