<svg xmlns="http://www.w3.org/2000/svg" width="577" height="800" fill="none" viewBox="0 0 577 800"><path fill="#153f7b" d="M577 343.92c-.66 110.75-.98 221.48-1.64 332.24 0 32.1-1.32 67.18-22.29 91.73-25.91 30.15-70.83 32.1-110.48 32.1-37.85-.23-271.68-.23-308.18 0-39.68 0-84.6-1.95-110.48-32.1-21-24.58-22.29-59.63-22.29-91.73C.98 565.4.66 454.67 0 343.92c0-35.05 0-71.1 10.16-104.53 10.17-33.75 32.8-65.54 65.25-77.99 12.12-4.58 25.57-6.88 35.73-15.07 9.5-7.87 7.86-18.01 7.86-32.42h339c0 14.4-1.65 24.58 7.86 32.42 10.16 8.19 23.6 10.49 35.73 15.07 32.45 12.45 55.08 44.24 65.25 77.99C577 272.82 577 308.85 577 343.92"/><rect width="418.19" height="113.91" x="79.4" fill="#1e1a28" rx="18.53"/></svg>