<svg xmlns="http://www.w3.org/2000/svg" width="672" height="528" fill="none" viewBox="0 0 672 528"><path fill="#153F7B" d="M334.35 177.23c-6-19.89-19.34-38.62-38.48-45.96-7.16-2.7-15.08-4.05-21.08-8.88-5.6-4.64-4.64-10.62-4.64-19.12H67.88c0 11.4.58 13.33-4.26 17.77-5.41 5.02-12.76 6.95-19.53 10.04a68.47 68.47 0 0 0-20.3 13.7C9.67 158.12 2.32 176.47.97 195.97c-1.74 26.07-.39 52.72-.39 78.79C.38 328.24 0 381.92 0 435.4c0 18.92.58 39.58 13.15 53.68 14.5 16.22 38.87 17.57 60.53 17.57 62.46.39 124.92.58 187.38.97 23.4 0 49.9-1.16 65.17-18.93 12.38-14.48 13.15-35.14 13.15-54.06.39-65.27.58-130.54.97-195.81 0-20.66 0-41.9-6-61.6Z"/><path fill="#1E1A28" d="M295.07 74.56V57.09c0-5.24-.2-11.06-3.68-15.13-4.26-5.05-11.63-5.43-18.22-5.43h-46.31c-55.42-.2-110.65-.4-165.88-.4-3.49 0-7.56 0-10.07 2.72-2.33 2.33-2.72 6.21-2.91 9.51L46.84 76.5v20.17c0 3.7 4.07 6.6 9.1 6.6h229.83c5.04 0 9.1-2.9 9.1-6.6V74.56h.2Z"/><path fill="#116E6B" d="M477.6 86.85s.83-.4.85-.48l-131.9 64.34s3.8 7.51 4.65 9.16c4.58 9.38 18.55 38.39 18.55 38.39 1.17 2.4 25.9 52.5 36.75 75.11 14.88 31 30.27 61.8 45.2 92.65 17.53 36.2 35.12 72.02 52.68 108.03 5.92 12.13 10.63 24.67 23.66 30.9 6.53 3.14 14.24 3.33 21.38 1.86 11.36-2.32 23.22-7.86 33.63-12.88.78-.38 38.14-19.09 41.08-20.82 10-6.1 19.26-15.72 21.44-27.61 2.44-13.35-5.43-25.87-10.99-37.4-6.8-13.94-14.68-28.59-21.04-42.51l-50.1-102.72c-14.38-29.48-28.32-59.95-43.37-88.92-.74-1.52-42.68-86.75-42.48-87.1Z"/><path fill="#ED9A32" d="M327.19 146.62c1.74 2.44 3.87 4.44 6.63 5.6 1.82.74 3.68 1.42 5.66 1.49 5.21.31 10.02-3.07 14.55-5.28l8.13-3.96 22-10.73c17.62-8.6 35.27-17.14 52.96-25.7l26.83-13.1c8.27-4.03 17.65-6.66 21.64-15.84 1.83-4.24.03-9.45-1.77-13.38-2.87-6.39-20.12-40.87-23.13-47.8-2.06-4.72-8.46-10.6-13.47-11.62-2.22-.44-6.17-.53-8.28.5 0 0-29.44 14.6-38.5 19.03-4.87 2.37-9.67 4.29-14.4 6.96-6.42 3.56-51.1 24.92-52.54 25.69l-6.4 3.12c-7.24 3.53-17.85 6.76-22.6 13.64a20.33 20.33 0 0 0-2.4 5.43c-1.86 5.83-1.02 12.05 1.72 17.41.26.54 22.86 47.75 23.42 48.52l-.05.02Z"/></svg>