<svg xmlns="http://www.w3.org/2000/svg" width="113" height="321" fill="none" viewBox="0 0 113 321"><path fill="#116E6B" d="M103.37 57.03s.6 0 .63-.03H10s.07 5.4.1 6.58c0 6.69-.1 27.3-.1 27.3 0 1.72.18 37.5.07 53.57-.14 22.02.07 44.08 0 66.03-.07 25.76 0 51.32 0 76.98 0 8.65-.8 17.2 4.95 24.44 2.87 3.64 7.26 5.91 11.78 7.07 7.2 1.85 15.57 2 22.97 2.03.57 0 27.33-.28 29.5-.45 7.47-.7 15.5-3.65 20.1-9.88 5.16-7 4.14-16.42 4.17-24.6 0-9.95-.42-20.6-.17-30.4v-73.2c0-21 .52-42.47 0-63.36 0-1.09-.21-61.94 0-62.08Z"/><path fill="#ED9A32" d="M0 49.21c.32 1.9.98 3.64 2.25 5.08.84.95 1.71 1.86 2.84 2.45 2.9 1.65 6.63 1.05 9.85 1.05h21.47c12.56 0 25.12.04 37.71.07h19.12c5.9 0 12.04 1.12 16.91-3.04 2.25-1.93 2.67-5.43 2.74-8.2.14-4.49-.1-29.18.1-34.02.14-3.29-1.9-8.47-4.49-10.47-1.16-.88-3.4-2.03-4.9-2.03 0 0-21.06.14-27.51.14-3.47 0-6.77-.25-10.24-.04-4.7.25-36.42 0-37.47.04h-4.56c-5.16 0-12.17-1.12-16.84 1.5A13.04 13.04 0 0 0 4.07 4.2a14.74 14.74 0 0 0-3.9 10.5c0 .4-.24 33.91-.13 34.51H0Z"/></svg>