<svg xmlns="http://www.w3.org/2000/svg" width="398" height="482" fill="none" viewBox="0 0 398 482"><path fill="#054449" d="M0 149.25h222.28v66.4H0z"/><circle cx="37.91" cy="182.45" r="20.01" fill="#abe1cd"/><path fill="#032c30" d="M0 215.65h222.28v66.4H0z"/><circle cx="37.91" cy="248.85" r="20.01" fill="#abe1cd"/><path fill="#054449" d="M0 282.05h222.28v66.4H0z"/><circle cx="37.91" cy="315.25" r="20.01" fill="#abe1cd"/><path fill="#032c30" d="M0 348.45h222.28v66.4H0z"/><circle cx="37.91" cy="381.65" r="20.01" fill="#abe1cd"/><path fill="#054449" d="M0 414.85h222.28v66.4H0z"/><circle cx="37.91" cy="448.05" r="20.01" fill="#abe1cd"/><path fill="#9bcab9" d="M259.5 481.25c76.5 0 138.5-62.01 138.5-138.5s-62-138.5-138.5-138.5-138.5 62-138.5 138.5c0 76.49 62 138.5 138.5 138.5"/><path fill="#faf7f4" d="M259.02 447.82c57.77 0 104.6-46.83 104.6-104.6s-46.83-104.59-104.6-104.59-104.59 46.83-104.59 104.6 46.83 104.59 104.6 104.59"/><path fill="#116e6b" d="M252.31 271.14a5.73 5.73 0 0 1 6.28 5.13l6.1 60.9h50.57a5.73 5.73 0 0 1 0 11.46h-60.94l-7.14-71.22a5.73 5.73 0 0 1 5.13-6.27"/><path fill="#b4cea0" fill-rule="evenodd" d="M159.88 35.42a39.2 39.2 0 0 1 54.95-3.55l20.22 17.57 5.38-6.18 63.2 54.93a45.4 45.4 0 0 1 4.39 64.04l-23.04 26.5a45.4 45.4 0 0 1-64.02 4.56l-63.2-54.94 5.38-6.18-20.22-17.58a39.2 39.2 0 0 1-3.8-55.3l20.42-23.49zM148.45 67.4a26.8 26.8 0 0 0 2.6 37.84l20.22 17.58 55.65-64.02-20.22-17.58a26.8 26.8 0 0 0-37.83 2.7z" clip-rule="evenodd"/><path fill="#116e6b" d="M224.4 112.8c6.04-6.94 15.46-8.64 21.04-3.8 3.49 3.04 4.65 7.91 3.56 12.83l21.08 18.33-12.23 14.07-21.09-18.32c-4.72 1.76-9.7 1.29-13.19-1.74-5.58-4.85-5.2-14.41.84-21.36"/></svg>