<svg xmlns="http://www.w3.org/2000/svg" width="715" height="800" fill="none" viewBox="0 0 715 800"><path fill="#054449" d="m178.16 79.32 434.06 157.99a8.6 8.6 0 0 1 5.15 11.04L566.51 388.1a8.6 8.6 0 0 1-11.04 5.14L121.4 235.27z"/><rect width="113.5" height="252.15" x="86.24" fill="#68b096" rx="8.61" transform="rotate(20 86.24 0)"/><path fill="#116e6b" d="m609.02 271.31 78.32 28.51a28.7 28.7 0 0 1 17.16 36.8l-14.75 40.55a28.7 28.7 0 0 1-36.8 17.16l-78.33-28.51zM128.6 795.71 366.38 330a2.04 2.04 0 0 1 3.75.29L522.27 794.6a7.8 7.8 0 0 0 7.43 5.39h41.08a3.9 3.9 0 0 0 3.69-5.11l-177.2-540.86a24.7 24.7 0 0 0-21.84-16.94c-1.14-.07-2.28.02-3.5 0l-1.48.05a24.8 24.8 0 0 0-19 13.27L73.71 794.33a3.9 3.9 0 0 0 3.46 5.67h44.44a7.8 7.8 0 0 0 6.93-4.23z"/></svg>