<svg xmlns="http://www.w3.org/2000/svg" width="1466" height="800" fill="none" viewBox="0 0 1466 800"><path fill="#054449" d="M1288.68 575.26c-61.97 0-112.37 50.39-112.37 112.37S1226.7 800 1288.68 800s112.37-50.4 112.37-112.37-50.39-112.37-112.37-112.37"/><path fill="#da573b" d="M1465.8 422.99c-1.5 18.8-5.66 64.02-11.98 82.63-7.18 21.15-21.45 64.87-34.66 83.1-2.75 3.68-7.65 4.34-11.71 2.27-15.02-7.75-40.61-22.85-67.24-32.77a141.5 141.5 0 0 0-54.78-11.05c-50.99 0-95.76 27.1-120.68 67.71a32 32 0 0 1-27.2 15.2h-124.66c-26.44 0-28.52-36.92-34.85-73.65a406 406 0 0 0-10.1-44.2C939.99 391.17 827.6 300.9 701.82 300.9c-125.79 0-231.75 84.99-263.47 200.67-.29.76-4.63 19.55-18.61 17l-4.34-.95a14.47 14.47 0 0 1-11.24-17l3.87-18.88c22.38-141 140.43-250.16 285.58-258.75a10 10 0 0 0 .38-2.27l6.42-154.97c0-32.2 34.56-19.92 105.1-19.92l278.03 8.88c6.13.18 11.04 5 11.52 11.04l16.62 232.22c.38 5.19 4.06 9.53 9.06 10.76 142.22 35.7 263.76 71.68 337.99 102.28l-.1.28a11.7 11.7 0 0 1 7.17 11.71"/><path fill="#054449" d="M937.5 565.98c0 129.29-104.83 234.01-234.03 234.01S469.45 695.17 469.45 565.98s104.82-234.02 234.02-234.02 234.02 104.82 234.02 234.02"/><path fill="#f4ece6" d="M737.89 644.68a85.9 85.9 0 0 0 44.29-113.13 85.9 85.9 0 0 0-113.14-44.29 85.9 85.9 0 1 0 68.85 157.42"/><path fill="#fff" d="m1026.02 101.44-240.62-6.9a11.9 11.9 0 0 0-12.19 10.77l-10.1 106.52a12.2 12.2 0 0 0 10.76 13.23c46.66 5.1 132.3 23.23 183.68 64.5a15.7 15.7 0 0 0 9.73 3.48h58.36a11.9 11.9 0 0 0 11.9-11.9h.1v-167.8c0-6.42-5.2-11.71-11.62-11.9"/><path fill="#da573b" d="M440.77 491.99q-1.55 4.93-2.93 9.93c-.26.8-4.28 17-16.2 17H28.64a13.3 13.3 0 0 1-13.39-13.25v-13.39c0-7.36 6.03-13.38 13.39-13.38h379.63a305 305 0 0 1 32.51-94.03z"/><path fill="#f9cc76" d="M257.3 44.54c49.35.24 98.4 26.12 97.98 90.93l10.55 218.39c-.28 46.13-46.93 75.62-84.32 75.44l-135.06-.76c-70.2-.44-81.82-44.84-81.34-134.33l5.52-160.24c.28-46.13 36.84-90.21 86.29-89.83l100.32.64z"/><path fill="#f4ece6" d="M98.64 536.97c2.77 5.09 4.84 8.95 6.92 12.8 7.33 14.3 15.07 28.33 21.99 42.78 5.95 12.25 10.92 25.04 12.86 38.66a63 63 0 0 1-.42 21.6c-1.93 10.04-7.74 17.2-16.45 22-14.24 7.99-28.63 8.13-42.87-.13-5.39-3.02-10.65-6.33-14.38-11.42a36 36 0 0 1-7.19-20.09c-.55-12.52 2.62-24.35 5.95-36.32 2.07-7.43 5.53-14.31 8.85-21.32 6.78-14.03 13.97-27.92 20.89-41.96 1.1-1.79 2.2-3.57 3.86-6.6M217.8 536.97c2.77 5.09 4.84 8.95 6.93 12.8 7.33 14.3 15.06 28.33 21.98 42.78 5.95 12.25 10.93 25.04 12.86 38.66 1.1 7.16.97 14.45-.41 21.6-1.94 10.04-7.75 17.2-16.45 22-14.24 7.99-28.63 8.13-42.87-.13-5.39-3.02-10.65-6.33-14.38-11.42a36 36 0 0 1-7.2-20.09c-.55-12.52 2.63-24.35 5.96-36.32 2.07-7.43 5.52-14.31 8.85-21.32 6.78-14.03 13.96-27.92 20.88-41.96 1.1-1.79 2.21-3.57 3.87-6.6zM336.25 536.97c2.76 5.09 4.83 8.95 6.91 12.8 7.34 14.3 15.07 28.33 22 42.78 5.94 12.25 10.91 25.04 12.85 38.66a63 63 0 0 1-.41 21.6c-1.94 10.04-7.75 17.2-16.46 22-14.24 7.99-28.62 8.13-42.87-.13-5.38-3.02-10.64-6.33-14.37-11.42a36 36 0 0 1-7.2-20.09c-.55-12.52 2.63-24.35 5.95-36.32 2.08-7.43 5.53-14.31 8.86-21.32 6.78-14.03 13.96-27.92 20.88-41.96 1.1-1.79 2.2-3.57 3.87-6.6z"/></svg>