<svg xmlns="http://www.w3.org/2000/svg" width="940" height="670" fill="none" viewBox="0 0 940 670"><path fill="#054449" d="M783.19 470.95c-54.86 0-99.47 44.63-99.47 99.53S728.32 670 783.2 670s99.47-44.64 99.47-99.52c0-54.9-44.6-99.53-99.47-99.53"/><path fill="#da573b" d="M939.97 336.09c-1.33 16.65-5.01 56.7-10.61 73.18-6.36 18.74-18.98 57.46-30.68 73.6-2.43 3.26-6.77 3.85-10.36 2.01-13.3-6.86-35.95-20.24-59.52-29.02a125 125 0 0 0-48.48-9.78c-45.14 0-84.76 24-106.83 59.97a28.4 28.4 0 0 1-24.07 13.46H539.08c-23.4 0-25.25-32.7-30.85-65.24a360 360 0 0 0-8.94-39.14C474.55 307.9 375.07 227.94 263.73 227.94c-111.33 0-205.12 75.28-233.2 177.74-.26.67-4.1 17.3-16.48 15.05l-3.84-.84a12.8 12.8 0 0 1-9.95-15.05l3.43-16.73c19.8-124.88 124.3-221.56 252.77-229.17.17-.67.34-1.34.34-2l5.69-137.26c0-28.52 30.59-17.64 93.03-17.64L601.6 9.9c5.43.16 9.78 4.43 10.2 9.78l14.7 205.67a10.6 10.6 0 0 0 8.03 9.53C760.42 266.5 868 298.36 933.71 325.47l-.09.25a10.4 10.4 0 0 1 6.35 10.37"/><path fill="#054449" d="M472.34 462.73c0 114.5-92.79 207.26-207.14 207.26-114.36 0-207.15-92.84-207.15-207.26 0-114.43 92.79-207.26 207.15-207.26 114.35 0 207.14 92.83 207.14 207.26"/><path fill="#f4ece6" d="M295.66 532.44a76.1 76.1 0 0 0 39.2-100.2A76 76 0 0 0 234.73 393a76.1 76.1 0 0 0-39.2 100.2 76 76 0 0 0 100.14 39.23"/><path fill="#fff" d="M550.7 51.3 337.7 45.2a10.53 10.53 0 0 0-10.78 9.53l-8.95 94.34a10.8 10.8 0 0 0 9.53 11.72c41.3 4.51 117.11 20.57 162.59 57.12a14 14 0 0 0 8.6 3.09h51.66c5.77 0 10.54-4.68 10.54-10.54h.08V61.84A10.6 10.6 0 0 0 550.7 51.3"/></svg>