<svg xmlns="http://www.w3.org/2000/svg" width="1344" height="800" fill="none" viewBox="0 0 1344 800"><path fill="#f4ece6" d="M1343.36 318.65c0-24.47-5.4-47.67-15.05-68.5a79 79 0 0 0-5.48-11.56c-36.14-61.27-120.12-120.04-161.55-146.57-10.58-6.78-23.99.92-23.99 13.48v434.13c0 5.4-4.38 9.79-9.79 9.79H9.79A9.8 9.8 0 0 0 0 559.2v126.08c0 5.4 4.38 9.8 9.79 9.8h131.58c5.11 0 9.4-3.94 9.75-9.04 4.76-66.23 60-118.49 127.44-118.49 67.45 0 122.68 52.26 127.44 118.5a9.76 9.76 0 0 0 9.75 9.02h365.62c5.11 0 9.4-3.93 9.75-9.03 4.76-66.23 60-118.49 127.44-118.49 67.45 0 122.68 52.26 127.44 118.5a9.76 9.76 0 0 0 9.75 9.02h254.97a32.63 32.63 0 0 0 32.63-32.63z"/><path fill="#9ecced" d="M1343.36 482.32V318.65q-.01-7.88-.75-15.58h-135.9a26.1 26.1 0 0 0-26.11 26.1v145c0 4.5 3.66 8.15 8.16 8.15z"/><path fill="#ed9a32" d="M1303.7 587.14v15.95a19.64 19.64 0 0 0 19.58 19.58h20.08v-55.1h-20.08a19.64 19.64 0 0 0-19.58 19.58"/><path fill="#da573b" d="M1099.31 0H16.61A16.34 16.34 0 0 0 .28 16.34V509.7c0 9.02 7.32 16.33 16.35 16.33H1099.3c9.03 0 16.35-7.31 16.35-16.33V16.33c0-9.03-7.32-16.34-16.35-16.34"/><path fill="#1e1a28" d="M918.56 800c57.85 0 104.75-46.9 104.75-104.75S976.41 590.5 918.56 590.5s-104.75 46.9-104.75 104.75S860.71 800 918.56 800M278.56 800c57.85 0 104.75-46.9 104.75-104.75S336.4 590.5 278.56 590.5s-104.75 46.9-104.75 104.75S220.71 800 278.56 800"/><path fill="#f9c4aa" d="M66.76 63.31a19 19 0 1 1 37.99 0V463.9a19 19 0 0 1-37.99 0zM171.51 63.31a19 19 0 1 1 37.99 0V463.9a19 19 0 1 1-37.99 0zM276.26 63.31a19 19 0 1 1 37.98 0V463.9a19 19 0 1 1-37.98 0zM381 63.31a19 19 0 1 1 38 0V463.9a19 19 0 1 1-38 0zM485.76 63.31a19 19 0 1 1 37.98 0V463.9a19 19 0 1 1-37.98 0zM590.5 63.31a19 19 0 1 1 37.99 0V463.9a19 19 0 0 1-37.99 0zM695.25 63.31a19 19 0 1 1 37.99 0V463.9a19 19 0 0 1-37.99 0zM800 63.31a19 19 0 1 1 37.99 0V463.9a19 19 0 0 1-37.99 0zM904.75 63.31a19 19 0 1 1 37.98 0V463.9a19 19 0 0 1-37.98 0zM1009.5 63.31a18.99 18.99 0 1 1 37.98 0V463.9a18.99 18.99 0 1 1-37.98 0z"/></svg>