<svg xmlns="http://www.w3.org/2000/svg" width="141" height="256" viewBox="0 0 141 256">
  <path fill="#F9CC76" d="M120.37 219.91c-4.6 11.91-18.8 16.39-22.41 17.3-3.61.86-6.93-.1-9.02 4.92-2.1 5.02-1.93 13.66-3.23 13.66-.4.46-1.37.16-2.18-.74-.82-.9-.75-10.95-.75-10.95-.28-4.5-2.58-6.06-4.17-6.62-.35-.1-.7-.18-1.07-.27-.27-.03-.43-.03-.43-.03l.06-.03c-6.69-1.46-17.06-2.18-20.77-4.64-5.06-3.37-8.16-6.79-9.5-13.65-.56-6.8-.81-10.17 1.84-14.33 2.63-4.15 2.97-3.83 5.7-6.56 2.65-2.64 11.68-7.76 22.19-9.31 10.5-1.55 22.54-1.33 25.38-.77 4.5.53 13.8 4.93 16.08 8 2.28 3.05 6.9 12.13 2.28 24.04v-.02Z"/>
  <path fill="#054449" d="M138.97 71.86c-2.19-3.12-5-5.06-8.96-4.83-.9.06-1.8.29-2.68.54-2.57.74-5.22 1.36-7.66 2.42-4.4 1.96-6.64 6.06-8.99 9.94-1.64 2.7-2.35 5.77-2.75 8.92-.54 4.44-1.2 8.86-1.77 13.3-.28 2.2-.47 4.38-.76 6.54-.55 4.32-1.2 8.63-1.71 12.98-.35 3-.51 6.06-.78 9.08-.03.29-.07.54-.13.8a26.13 26.13 0 0 1-5.86 10.47 29.71 29.71 0 0 0-6.96 12.25l-.03-.08-.43 1.8-.05.21a336.96 336.96 0 0 0-3.73 18.13c-.04-.86-.07-1.73-.15-2.6-.64-7.66-.28-15.43-.16-23.15.07-2.87 1.49-5.25 3.86-7.02a52.06 52.06 0 0 0 4.84-3.94 3.82 3.82 0 0 0 1.2-4.15c-.67-2.51-2.41-3.68-4.54-4.64-.73-.32-1.64-.77-2.02-1.42a4.86 4.86 0 0 1 .29-5.84 41.37 41.37 0 0 1 6.24-5.8c2.5-1.96 5-4.03 5.44-7.3a16.76 16.76 0 0 0-7.76-16.4c-2.6-1.58-4.56-3.73-5.35-6.66-.35-1.33-.41-3.34.32-4.25 1.68-2 3.8-3.71 6.02-5.12 3.07-1.93 6.47-3.42 8.11-6.86a82.17 82.17 0 0 0 3.9-9.36 24.8 24.8 0 0 0 1.3-7c.12-2.3-.17-4.7-.65-6.98-.8-3.64-3.95-8.15-9.02-7.91-4.02.16-7.6 1.49-11.01 3.34-4.65 2.54-8.5 6-10.22 11.24-.6 1.9-.94 3.9-1.3 5.9-.6 3.45-1.32 6.89-1.6 10.37-.52 6.44.16 12.82 1.07 19.19.7 4.92 1.03 9.94 1.51 14.95.07.47.23.92.26 1.42.29 3.05.67 6.15.78 9.24.06 1.68-.32 3.4-.57 5.08-.16 1.06-.51 2.13-.77 3.18-.2.03-.35.03-.54.07-.23-1.2-.51-2.38-.67-3.58-.61-4.48-1.3-8.96-1.8-13.43-.58-4.86-.93-9.75-1.46-14.64a51.17 51.17 0 0 0-.7-4.42c-.79-3.74-1.55-7.46-2.38-11.2-.67-2.96-1.3-5.94-2.22-8.8-1.23-3.74-2.73-7.4-4.15-11.08-2.06-5.34-3.96-10.76-6.24-16a317.04 317.04 0 0 0-8.41-17.62 86.83 86.83 0 0 0-5.83-9.62c-1.68-2.48-3.42-5.05-5.67-6.92C31.93 1.53 27.44-.37 22.53.06c-2.6.23-5.25 1.23-7.73 2.25-3.96 1.65-7.18 4.32-9.98 7.66C2.02 13.22.48 16.4.1 20.86c-.16 1.82-.11 2.86.01 4.28a16.8 16.8 0 0 0 1.17 4.93c.8 2 1.58 4.22 3.07 5.62 2.44 2.32 5.34 4.16 8.2 5.97 1.77 1.12 3.86 1.68 5.76 2.57 4.84 2.25 6.28 6.76 3.61 11.33-1.16 2-2.47 3.97-3.6 6-1.65 2.96-2.94 6.06-1.55 9.5.9 2.19 1.77 4.5 4.6 4.92 1.16.16 2.3.42 3.47.38 5.32-.16 10.6-.51 15.89-.6 5.15-.1 8.57 5.59 7.25 10.3-.77 2.68-2.64 4.58-4.44 6.51-2.03 2.16-3.35 4.6-3 7.63.16 1.61.7 3.18 1.23 4.73a6.3 6.3 0 0 0 4.4 4.22c.83.26 1.8.16 2.7.1 2.29-.16 4.57-.7 6.83-.55 3.07.23 4.52 1.17 5.26 3.62.78 2.57 1.32 5.2-1.42 7.24a41.79 41.79 0 0 0-4.55 4c-2.57 2.57-3.58 5.96-2.57 9.27 1.38 4.6 4.96 7.69 9.37 9.33 2.84 1.06 6.01 1.25 9.02 1.94 2.97.67 5.63 2 7.18 4.8 2.06 3.77 2.57 7.94 2.94 12.1.32 3.58.48 7.18.64 10.79-2.69-7.74-8.15-14.63-11.5-18.37a34.73 34.73 0 0 0-2.57-2.72l-.25-.24a35.18 35.18 0 0 0-9.7-6.31c-6.64-2.93-11.23-7.79-14.01-14.46-1.1-2.67-2.03-5.46-3.1-8.18-1.23-3.12-3.67-4.93-6.8-5.63-3.6-.76-6.21.9-8.24 3.87-1.93 2.8-2.7 7.27-.28 10.47 1.6 2.13 3.95 3.15 6.24 4.25 1.93.93 3.99 1.97 4.47 4.22.64 3 .22 5.84-2.12 8.16a31.69 31.69 0 0 0-3.7 4.31c-.97 1.36-.65 2.7.47 3.9a10.44 10.44 0 0 0 7.6 3.12c4.21.07 8.14-1.68 12.2-2.73 2-.51 4.06-.83 6.12-.9 1.9-.06 3.1 1.24 3.04 2.93 0 .83-.16 1.71-.42 2.5-.6 2.1-.41 2.94 1.58 3.62 1.3.42 2.86.55 4.19.26 2.73-.58 4.9-.48 7.15 1.65 3.67 3.51 5.19 8 6.42 12.56.8 3.06.57 6.38.76 9.56.02.32-.03.58-.12.79 4-.48 8.12-.74 11.78-.83a1.82 1.82 0 0 1-.16-.6c-.2-1.93-.61-3.83-.55-5.74.1-3.48.23-7.01.79-10.47.57-3.64 2.84-6.31 6.08-8.09 1.32-.7 2.6-1.45 3.8-2.32 1.03-.73 1.13-1.93.8-3.05-.3-1.05-1.17-1.39-2.22-1.52-1.97-.22-2.75-1.45-2.16-3.3 1.23-3.99 4.4-5.86 8.05-6.94 2.31-.68 4.53-1.3 6.3-3.12 2.1-2.2 2.35-3.03.9-5.57-1.2-2.12-.83-3.58 1.39-4.5 1.6-.68 3.38-.96 4.96-1.68 1.42-.64 2.97-1.36 3.96-2.48 1.55-1.74 1.13-4.7-.51-6.8-2.1-2.66-1.9-5.05.7-6.47 2.03-1.12 4.18-2 6.3-2.96 1.97-.9 4.03-1.84 4.5-4.16.61-2.98-.22-5.43-2.93-7.33-1.68-1.17-3.03-2.9-4.25-4.57-1.23-1.71-.64-4.45 1.1-5.57a46.5 46.5 0 0 1 7.03-4.06c2.78-1.2 4.7-3.08 5.41-5.8.77-2.86.74-5.9-1.13-8.57l.03-.06Z"/>
</svg>