<svg xmlns="http://www.w3.org/2000/svg" width="825" height="856" fill="none" viewBox="0 0 825 856"><path fill="#f9cc76" d="M378.55 690.57c-14.46 37.4-59.15 51.46-70.49 54.32-11.35 2.7-21.8-.3-28.37 15.46s-6.07 42.87-10.14 42.87c-1.25 1.46-4.32.5-6.88-2.31s-2.36-34.39-2.36-34.39c-.85-14.1-8.08-19.02-13.1-20.78q-1.63-.43-3.36-.86c-.85-.1-1.35-.1-1.35-.1l.2-.1c-21.04-4.56-53.67-6.82-65.33-14.55-15.9-10.6-25.65-21.31-29.87-42.87-1.77-21.32-2.56-31.93 5.78-44.98 8.28-13.05 9.33-12.05 17.92-20.63 8.33-8.28 36.75-24.35 69.78-29.22s70.9-4.17 79.83-2.41c14.15 1.66 43.37 15.46 50.56 25.1 7.18 9.59 21.68 38.1 7.18 75.5z"/><path fill="#054449" d="M437.04 225.65c-6.87-9.8-15.7-15.87-28.16-15.16-2.86.2-5.67.9-8.44 1.7-8.08 2.3-16.41 4.27-24.1 7.58-13.86 6.17-20.88 19.03-28.26 31.23-5.17 8.48-7.38 18.12-8.64 28-1.7 13.96-3.76 27.82-5.57 41.77-.9 6.88-1.5 13.76-2.41 20.54-1.7 13.56-3.76 27.1-5.37 40.76-1.1 9.4-1.6 19.03-2.46 28.52-.1.9-.2 1.7-.4 2.5-3.67 12.36-9.74 23.56-18.43 32.9a93 93 0 0 0-21.88 38.44l-.1-.25-1.36 5.67-.15.66a1056 1056 0 0 0-11.75 56.93c-.1-2.72-.2-5.43-.45-8.19-2-24.05-.9-48.44-.5-72.7.2-8.98 4.67-16.46 12.15-22.03a164 164 0 0 0 15.21-12.35c3.67-3.31 5.27-7.38 3.76-13.05-2.1-7.88-7.58-11.55-14.25-14.56-2.32-1-5.18-2.41-6.38-4.47-3.77-6.08-3.46-13.15.9-18.32 5.68-6.78 12.66-12.76 19.64-18.22 7.88-6.18 15.71-12.66 17.12-22.95 2.7-19.83-6.68-40.66-24.4-51.46-8.18-4.97-14.36-11.75-16.82-20.93-1.1-4.17-1.3-10.5 1-13.36 5.27-6.27 11.95-11.64 18.93-16.06 9.64-6.08 20.34-10.75 25.5-21.54 4.57-9.59 8.95-19.43 12.26-29.42a78 78 0 0 0 4.07-21.94c.4-7.28-.5-14.76-2.01-21.94-2.51-11.44-12.45-25.6-28.37-24.85-12.65.5-23.9 4.68-34.64 10.5-14.6 7.98-26.76 18.82-32.13 35.29-1.9 5.97-2.96 12.25-4.07 18.52-1.9 10.85-4.16 21.63-5.07 32.58-1.6 20.23.5 40.26 3.37 60.24 2.2 15.46 3.26 31.23 4.77 46.94.2 1.5.7 2.92.8 4.47.9 9.6 2.11 19.33 2.46 29.02.2 5.27-1 10.7-1.8 15.96-.5 3.31-1.61 6.68-2.42 10-.6.09-1.1.09-1.7.2-.7-3.77-1.61-7.49-2.11-11.25-1.91-14.06-4.07-28.12-5.67-42.17-1.8-15.26-2.91-30.62-4.57-45.98-.5-4.67-1.3-9.29-2.21-13.86-2.46-11.75-4.87-23.44-7.48-35.2-2.11-9.28-4.07-18.61-6.98-27.6-3.87-11.75-8.59-23.25-13.05-34.79-6.48-16.77-12.45-33.79-19.63-50.25a995 995 0 0 0-26.46-55.33 273 273 0 0 0-18.32-30.22c-5.27-7.78-10.74-15.86-17.82-21.73C100.42 4.8 86.3-1.16 70.85.19c-8.18.7-16.52 3.87-24.3 7.08C34.1 12.44 23.96 20.82 15.17 31.3 6.38 41.51 1.5 51.45.31 65.51c-.48 5.7-.34 8.98.05 13.45.5 5.27 1.61 10.59 3.67 15.46 2.5 6.27 4.97 13.25 9.64 17.66 7.68 7.28 16.82 13.06 25.8 18.73 5.58 3.52 12.15 5.27 18.13 8.08 15.21 7.08 19.73 21.24 11.35 35.6-3.67 6.27-7.78 12.44-11.35 18.82-5.17 9.28-9.24 19.03-4.87 29.82 2.86 6.88 5.57 14.16 14.46 15.46 3.67.5 7.28 1.3 10.95 1.2 16.72-.5 33.33-1.6 49.95-1.9 16.21-.3 26.96 17.56 22.8 32.38-2.41 8.38-8.3 14.35-13.96 20.43-6.38 6.77-10.55 14.46-9.44 23.94.5 5.07 2.2 9.99 3.87 14.86 2.2 6.88 7.18 11.25 13.86 13.25 2.6.8 5.67.5 8.48.3 7.18-.5 14.35-2.2 21.48-1.7 9.64.7 14.22 3.66 16.52 11.35 2.47 8.08 4.17 16.36-4.46 22.74a131 131 0 0 0-14.31 12.55c-8.09 8.08-11.25 18.72-8.09 29.11 4.37 14.46 15.62 24.15 29.47 29.32 8.94 3.31 18.93 3.92 28.37 6.08 9.34 2.1 17.72 6.27 22.59 15.06 6.48 11.84 8.08 24.95 9.24 38 1 11.25 1.5 22.54 2 33.89-8.43-24.3-25.6-45.94-36.14-57.69a109 109 0 0 0-8.09-8.53c-.45-.45-.8-.75-.8-.75a111 111 0 0 0-30.47-19.83c-20.89-9.19-35.35-24.45-44.08-45.39-3.47-8.38-6.38-17.17-9.75-25.7-3.87-9.79-11.54-15.46-21.38-17.67-11.35-2.4-19.54 2.81-25.9 12.15-6.08 8.79-8.5 22.84-.9 32.88 5.06 6.68 12.44 9.9 19.62 13.36 6.08 2.9 12.55 6.17 14.06 13.25 2 9.39.7 18.32-6.68 25.6a99 99 0 0 0-11.65 13.56c-3 4.26-2 8.48 1.5 12.24 6.48 6.78 15.12 9.7 23.9 9.8 13.25.2 25.6-5.28 38.4-8.59a89 89 0 0 1 19.24-2.8c5.97-.2 9.74 3.86 9.54 9.18 0 2.6-.5 5.37-1.31 7.88-1.9 6.58-1.3 9.19 4.97 11.35 4.07 1.3 8.99 1.7 13.16.8 8.59-1.8 15.41-1.5 22.5 5.18 11.54 11.04 16.3 25.1 20.17 39.45 2.51 9.59 1.81 20.03 2.41 30.02q.06 1.5-.4 2.46c12.6-1.5 25.55-2.3 37.05-2.6q-.36-.74-.5-1.86c-.6-6.08-1.9-12.05-1.7-18.03.3-10.94.7-22.03 2.45-32.88 1.81-11.45 8.94-19.83 19.13-25.4 4.17-2.21 8.18-4.57 11.95-7.28 3.26-2.32 3.56-6.08 2.5-9.59-.9-3.31-3.66-4.36-6.97-4.77-6.18-.7-8.63-4.57-6.78-10.34 3.87-12.55 13.86-18.43 25.3-21.84 7.28-2.1 14.27-4.07 19.83-9.8 6.58-6.87 7.38-9.48 2.81-17.46-3.76-6.68-2.6-11.25 4.38-14.16 5.06-2.1 10.63-3 15.6-5.27 4.48-2 9.34-4.27 12.46-7.78 4.87-5.47 3.56-14.76-1.6-21.34-6.58-8.38-5.98-15.86 2.2-20.33 6.37-3.51 13.16-6.28 19.83-9.29 6.18-2.8 12.65-5.77 14.16-13.05 1.9-9.39-.7-17.06-9.24-23.04-5.27-3.66-9.54-9.09-13.36-14.35-3.87-5.37-2-13.96 3.47-17.47 7.07-4.68 14.3-9.4 22.09-12.76 8.74-3.76 14.8-9.69 17.02-18.22 2.41-8.99 2.31-18.53-3.57-26.9l.1-.21"/><path fill="#f9c4aa" d="M633.36 799.78c-60.11 16.97-103.1-19.04-136.63-65.68-42.1-58.5-80.09-117.38-118.5-178.87-5.1-8.18-8.06-20.56-8.62-29.26-2.34-36.05 11.67-67.6 37.92-92.84 69.97-67.27 191.17-51.45 260.23 19.4 35.61 36.56 66.55 78.26 84.85 125.66 15.62 40.45 15.78 84.12 3.87 124.18-7.4 24.86-23.2 45.07-44.38 59.65-24.25 16.72-50.78 29.86-78.74 37.76"/><path fill="#da573b" d="M702.21 726.15c16.82-17.01 24.5-43.04 25.03-67.8.91-42.9-9.69-85.38-33.04-121.61-6.87-10.67-17.94-19.64-30.15-19.97-24.99-.67-40.47 30.3-63.94 52.66-18.28 17.41-43.03 22.91-66.85 15.2l-42.02-13.58c-17.09-5.52-39.67 4.48-43.4 23.04-3.2 15.81 10.1 33.71 17.58 46.66 13.05 22.66 28.93 43.56 46.37 63 17.45 19.46 36 41.59 60.64 52.02 24.47 10.32 50.21 8.18 75.17.97 19.93-5.78 40.24-15.12 54.63-30.57z"/><path fill="#da573b" d="M522.28 547.32c6.7 11.27 17.2 15.38 28.27 13.58 22.89-2.9 40.54-16.75 55.64-33.56 10.68-11.9 21.5-23.17 30.23-36.06 19.3-28.48-42.93-58.55-64.2-64.58-15.09-4.27-33.9 2.78-39.32 17.48l-13.29 35.87c-8 21.58-9.91 45.06 2.68 67.29zM424.32 547.58c14.23-4.15 27.56-5.35 42.85-4.99 39.4.92 6.38-28.37 43.08-95 1.82-3.26 2.3-10.5.8-13.45-6.09-11.96-30.87-8.31-43.83-2.93-37.75 15.62-82.05 55.1-67.47 100.95 3.48 10.92 13.2 18.75 24.57 15.42"/></svg>