<svg xmlns="http://www.w3.org/2000/svg" width="955" height="800" fill="none" viewBox="0 0 955 800"><path fill="#abe1cd" d="M0 25.77A25.77 25.77 0 0 1 25.77 0h903.3a25.77 25.77 0 0 1 25.77 25.77v111.86H0z"/><path fill="#faf7f4" d="M0 137.63h954.84v636.6A25.77 25.77 0 0 1 929.07 800H25.77A25.77 25.77 0 0 1 0 774.23z"/><rect width="163.44" height="163.44" x="722.58" y="335.48" fill="#68b096" rx="17.18"/><circle cx="860.22" cy="68.82" r="25.81" fill="#68b096"/><circle cx="782.8" cy="68.82" r="25.81" fill="#68b096"/><circle cx="705.38" cy="68.82" r="25.81" fill="#68b096"/><rect width="584.95" height="524.73" x="68.82" y="206.45" fill="#b4cea0" rx="25.77"/><circle cx="361.29" cy="421.51" r="103.23" fill="#e2f1df"/><path fill="#e2f1df" d="M206.45 653.63c0-56.94 46.16-103.1 103.1-103.1h103.48c56.94 0 103.1 46.16 103.1 103.1v77.55H206.45z"/><rect width="163.44" height="163.44" x="722.58" y="567.75" fill="#9bcab9" rx="17.18"/><circle cx="804.3" cy="640.87" r="30.11" fill="#abe1cd"/><path fill="#abe1cd" d="M756.99 713.94a34.37 34.37 0 0 1 34.37-34.36h25.89a34.37 34.37 0 0 1 34.36 34.36v17.25H757z"/></svg>