<svg xmlns="http://www.w3.org/2000/svg" width="555" height="801" fill="none" viewBox="0 0 555 801"><path fill="#1e1a28" d="M197 779.38s-5.24 14.03-5.84 17.15c-.6 2.7-1.9 3.65 7.74 3.74 0 0 57.2.9 61.1 0 2.57-.6 5.79-4.16 4.05-20.08zM312.46 780.27s-.92 13.5 1.06 16.44c2 2.94 3.2 4.84 20.76 3.87 0 0 49.54.9 51.1-.38 1.58-1.28-7.45-20.86-7.45-20.86z"/><path fill="#054449" d="M191.4 352c-.4 26.53-3.91 164.86-4.3 179.8-.6 14.95-1 142.11-1 156.21s-.4 91.58 1.38 94.1c1.79 2.52 75.67 4.41 79.43 1.68s0-127.78.6-142.74c.4-14.95 2.77-88.84.4-149.05-2.39-60.22 1.93-71.36 3.33-71.36s2.6-2.96 8.15 53.89 16.83 160.22 19.21 185.26c2.38 25.27 8.91 123.18 11.5 124.23 2.57 1.05 72.5-.21 74.87-1.05s-3.76-82.54-4.54-91.6c-.8-9.06-16.65-209.9-17.44-220.65-.79-10.72-7.92-122.95-7.92-122.95s-83.6.21-90.72.85c-7.33.4-72.96 3.36-72.96 3.36h.02z"/><path fill="#f8e0d8" d="M58.18 313.17 59 341.7s2.12.88-9.06 5.67-26.03 2.95-38.72-1.41-12.54-9.15-9.57-11.62c4.76-3.98 11.48-6.9 17.86-8.45 14.58-3.54 3.35-6.39-.5-7.46-3.68-1.03-8.36-3.87.63-8.28s30.45.57 38.53 3.04"/><path fill="#9bcab9" d="M141.25 250.4c16.6-27.03 17.96-30.09 33.06-52.46 8.53-12.66 14.2-22.89 23.18-31.5 13.27-12.74 19.4-18.76 34.69-22.12 8.7-1.92 21.03 4.53 23.59 17.95 2.56 13.43-10.37 26.97-14.34 30.42-3.97 3.44-16.98 15.4-27.4 30.25-12.75 18.17-5.04 9.21-31.5 49.83-10.84 16.66-16.9 29.86-32.15 38.3-16.3 9.01-43.66 28.64-93.64 40.19-.8-7.14-4.14-43.9-4.14-43.9 58.9-17.25 81.52-45.35 88.65-56.96"/><path fill="#f8e0d8" d="M498.3 164.5c3.04-7.88 12.35-27.84 21.37-32.2 9.03-4.35 8.36 1.08 6.9 4.62-1.52 3.69-6.2 14.28 5.57 4.98 5.15-4.06 11.6-7.55 17.67-8.84 3.77-.81 7.62 2.03 3.24 14.7-4.4 12.68-12.1 25.5-22.77 31.36-10.67 5.84-10.05 3.63-10.05 3.63z"/><path fill="#9bcab9" d="M355.04 234.46c-40.25-21.51-67.9-39.45-72.47-60.06-1.93-8.7 1.44-21.55 13.14-27.76 9.99-5.31 18.37-3.99 25.66-.95 6.81 2.84 9.54 5.36 13.38 8.1 25.8 18.39 41.79 38.22 84.3 53.98 11.9 4.41 36.14-13.87 54.65-29.42 9.33-7.84 20.68-18.13 22.57-20.94l30.36 28.01c-7.5 7.93-48.18 59.2-99.03 70.26-19.8 4.3-57.89-13.36-72.57-21.2z"/><path fill="#9bcab9" d="M354.42 317.36c.1 20.84 1.65 40.94 2.06 49.78 0 0-84.52 8.43-119.25 4.25 0 0-44.43-2-46.74-2 0 0 .55-36.58.51-57.4.3-31.75.94-58.73 1.78-81.47.85-22.73-2.05-67.03 27.28-82.18 18.36-9.49 23.66-8.88 49.18-10.14 20.88-.84 50.5 2.35 62.52 13.5 15.4 14.1 17.23 44.47 19.37 73.6 1.41 32.85 2.47 64.7 3.3 92.06z"/><path fill="#054449" d="M304.9 202.16a13 13 0 0 0-6.77-1.81 11.82 11.82 0 0 1 23.2 1.01c-2.38-.2-4.77.23-6.9 1.27a4.82 4.82 0 0 0-9.54-.47m16.54.79a11.63 11.63 0 0 0-12.86 11.86c6.86.64 12.9-4.87 12.86-11.76zm-23.57-1.03c-.6 5.95 3.5 11.4 9.13 12.64v-.06c0-2.2.54-4.33 1.56-6.24a11.7 11.7 0 0 0-10.69-6.34"/><path fill="#f8e0d8" d="M318.76 87.38c-.26-1.43-1.52-2.2-3-2.82.6-11.5-1.78-18.8-6.9-26.19-4.3-6.19-10.29-12.35-18.7-15.36-7.44-2.66-25.7-1.96-33.03 1-17.54 6.66-24.45 22.96-25.35 40.96-1.5.4-2.82.94-3.26 2.3-.97 2.3-1.45 4.48-.82 7.01.58 2.05 1.89 3.33 4.5 5.08a50 50 0 0 0 7.69 23.03l.9 1.37c6.8 10.45 15.92 16.53 26.83 16.53h8.6c10.84 0 21.12-6.02 27.94-16.4l2.7-4.12a50 50 0 0 0 7.62-21.46c2.22-1.12 3.46-2.15 4.2-3.86.95-2.4.74-4.64.08-7.07"/><path fill="#ed9a32" d="M340.8 101.11c-1.19-6.05-8.5-13.93-11.02-17.86-6.69-10.44-9.44-15.8-9.44-15.8-7.29-14.9-23.12-27.23-41.1-28.1-9.27-.43-19.07-.26-27.87 4.93-.05.03.04-.03 0 0-12.77 6.38-22.8 23.26-20.33 38.2q.2 1.24.5 2.46c1.5-.05 3.18.33 4.52-.53 6.15-3.9 14.38-12.37 19.1-22.06 14.14 21.4 42.72 29.08 60.59 22.16v.05c1.47.63 2.73 1.4 3 2.82.66 2.43.86 4.68-.08 7.09-.75 1.7-1.99 2.74-4.22 3.86a50 50 0 0 1-7.63 21.48l-2.71 4.13a40 40 0 0 1-7.75 8.76c.53 1.8 4.1 11.55 17.63 8.75 14.27-2.95 14.09-4.3 20.24-10.85 6.76-7.22 9.21-15.83 6.57-29.49"/><path fill="#032c30" d="M230.5 50.25c8.71-12.33 23.26-21.42 45.26-20.13C297.37 31.4 310.95 40.91 318.6 53c7.38 11.65 8.81 24.97 7.91 33.85l-15-1.52c.64-6.32-.47-16.07-5.65-24.26-4.93-7.77-13.97-14.88-31-15.88-16.66-.98-26.27 5.59-32.05 13.77-6.12 8.66-8.28 19.69-8.28 27.13h-15.08c0-9.65 2.67-23.98 11.04-35.83M220.47 126.17c-1.16 3.85-2.04 9.56-1.28 14.24.38 2.3 1.1 4.01 2.05 5.16.86 1.05 2.14 1.91 4.33 2.23a84 84 0 0 0 14.9.99 35 35 0 0 0 4.04-.36q.72-.12 1.12-.22l.37-.1 3.71 9.34c-1.82.72-4.88 1.24-8.87 1.39-4.15.15-9.7-.07-16.7-1.09a16.5 16.5 0 0 1-10.66-5.78c-2.44-2.95-3.65-6.53-4.2-9.94-1.1-6.72.15-14.06 1.55-18.74z"/><rect width="33.98" height="19.42" x="243" y="144.16" fill="#054449" rx="9.71"/><ellipse cx="323.62" cy="102.89" fill="#054449" rx="16.99" ry="26.7"/><ellipse cx="220.96" cy="102.89" fill="#054449" rx="16.99" ry="26.7"/></svg>