<svg xmlns="http://www.w3.org/2000/svg" width="800" height="800" fill="none" viewBox="0 0 800 800"><path fill="#054449" d="M780.51 223.37c16.07 34.4 10.28 71.08-12.84 81.86-16.74 7.8-38.01-.08-54.59-18.04a12.05 12.05 0 0 0-13.93-2.94l-25.72 12a11.8 11.8 0 0 0-6.25 14.44 280 280 0 0 1 6.59 156.43 11.8 11.8 0 0 0 7.47 13.88l26.39 9.61c4.95 1.8 10.4.04 13.64-4.11 14.93-19.34 35.41-29.08 52.78-22.74 24 8.73 32.94 44.77 19.93 80.44-13 35.7-42.96 57.52-66.97 48.8-17.37-6.34-26.8-26.94-25.8-51.36a12 12 0 0 0-7.8-11.92l-26.57-9.65a11.85 11.85 0 0 0-14.64 5.79A279.3 279.3 0 0 1 546 640.83a11.8 11.8 0 0 0-4.53 15.15l11.96 25.68a12 12 0 0 0 12.54 6.71c24.25-3.15 45.61 4.49 53.42 21.23 10.78 23.16-8.35 54.93-42.8 71s-71.08 10.28-81.87-12.84c-7.8-16.74.09-38.02 18.05-54.6a12.05 12.05 0 0 0 2.93-13.92l-12.12-25.98a11.84 11.84 0 0 0-14.4-6.29 279.7 279.7 0 0 1-156 5.96 11.8 11.8 0 0 0-13.93 7.47l-9.95 27.27a12.1 12.1 0 0 0 4.12 13.64c19.34 14.94 29.07 35.41 22.74 52.78-8.73 24-44.77 32.94-80.44 19.93-35.7-13-57.53-42.96-48.8-66.96 6.34-17.37 26.94-26.82 51.36-25.8a12 12 0 0 0 11.92-7.81l10.07-27.66a11.84 11.84 0 0 0-5.75-14.64 279.6 279.6 0 0 1-114.13-105.74 11.83 11.83 0 0 0-15.15-4.53l-26.94 12.59A12 12 0 0 0 111.6 566c3.15 24.26-4.5 45.62-21.23 53.42-23.17 10.78-54.93-8.35-71-42.8S9.08 505.55 32.2 494.77c16.74-7.8 38.02.08 54.59 18.04a12.05 12.05 0 0 0 13.93 2.94l27.23-12.72a11.84 11.84 0 0 0 6.3-14.39 279.6 279.6 0 0 1-6.21-155.08 11.8 11.8 0 0 0-7.47-13.9L92.33 309.4a12.1 12.1 0 0 0-13.64 4.11c-14.94 19.34-35.41 29.08-52.78 22.74-24-8.73-32.94-44.77-19.93-80.43 13-35.71 42.96-57.53 66.96-48.8 17.37 6.33 26.82 26.93 25.8 51.35a12 12 0 0 0 7.81 11.92l28.41 10.32a11.83 11.83 0 0 0 14.64-5.79 279.4 279.4 0 0 1 105.03-114.34c5.12-3.1 7-9.65 4.49-15.1l-12.59-26.98a12 12 0 0 0-12.54-6.72c-24.26 3.15-45.62-4.49-53.42-21.23-10.78-23.16 8.35-54.92 42.8-71s71.08-10.28 81.86 12.84c7.8 16.75-.08 38.02-18.04 54.6a12.05 12.05 0 0 0-2.94 13.93l12.6 26.97a11.8 11.8 0 0 0 14.43 6.26 279.3 279.3 0 0 1 155.5-6.84 11.8 11.8 0 0 0 13.85-7.51l9.94-27.36c1.8-4.95.04-10.4-4.11-13.64-19.34-14.94-29.08-35.41-22.74-52.78 8.72-24 44.77-32.94 80.43-19.93 35.71 13 57.53 42.96 48.8 66.96-6.33 17.37-26.94 26.82-51.36 25.8a12 12 0 0 0-11.91 7.81l-9.95 27.32c-2.05 5.66.42 12 5.84 14.64a279.6 279.6 0 0 1 115.17 105.5 11.8 11.8 0 0 0 15.11 4.48l25.72-12a12 12 0 0 0 6.72-12.55c-3.15-24.25 4.49-45.6 21.23-53.41 23.16-10.78 54.92 8.35 71 42.8z"/></svg>