<svg xmlns="http://www.w3.org/2000/svg" width="1061" height="800" fill="none" viewBox="0 0 1061 800"><path fill="#4698d3" d="M987.35 254.17h-161.5a73.3 73.3 0 0 0-73.28 73.29V601.4a4.6 4.6 0 0 1-4.6 4.58h-84.26c-7.11 0-12.8-5.75-12.8-12.8V406.25a57.1 57.1 0 0 0-57.06-57.07H476.8a4.6 4.6 0 0 1-4.59-4.59V73.28A73.3 73.3 0 0 0 398.94 0H124.08A73.3 73.3 0 0 0 50.8 73.29v653.43A73.3 73.3 0 0 0 124.08 800h274.8a73.3 73.3 0 0 0 73.28-73.28V431.18a4.6 4.6 0 0 1 4.59-4.59h83.75c7.1 0 12.8 5.76 12.8 12.8v186.96a57.1 57.1 0 0 0 57.06 57.07h117.55a4.6 4.6 0 0 1 4.6 4.58v75.3a36.74 36.74 0 0 0 36.64 36.63h234.78a36.74 36.74 0 0 0 36.64-36.64V327.46a73.3 73.3 0 0 0-73.28-73.29z"/><path fill="#153f7b" d="M314.34 100.04a4.5 4.5 0 0 0-4.59-4.46h-32.5a4.6 4.6 0 0 0-4.6 4.59v101.98a4.6 4.6 0 0 1-4.58 4.58H55.38a4.6 4.6 0 0 1-4.58-4.58v-98.23a4.6 4.6 0 0 0-4.6-4.6H4.6a4.6 4.6 0 0 0-4.59 4.6L3.75 795.4a4.55 4.55 0 0 0 4.59 4.52h37.74a4.6 4.6 0 0 0 4.59-4.59l.25-153.42a4.6 4.6 0 0 1 4.6-4.59h221.53a4.6 4.6 0 0 1 4.59 4.6v153.41a4.6 4.6 0 0 0 4.59 4.6h38.7a4.6 4.6 0 0 0 4.6-4.66L314.4 100.04zm-41.68 481.65a4.6 4.6 0 0 1-4.6 4.59H55.52a4.6 4.6 0 0 1-4.59-4.59V431.31a4.6 4.6 0 0 1 4.6-4.59h212.55a4.6 4.6 0 0 1 4.58 4.59zm0-192.65a4.6 4.6 0 0 1-4.6 4.6H55.52a4.6 4.6 0 0 1-4.59-4.6V250.3a4.6 4.6 0 0 1 4.6-4.59h212.55a4.6 4.6 0 0 1 4.58 4.6z"/><path fill="#0c4fa1" d="M865.3 477.95c-54.28 23-79.7 85.81-56.65 140.01 23.04 54.2 85.94 79.57 140.22 56.57s79.69-85.81 56.65-140.01-85.95-79.57-140.22-56.57m118.47 65.78a82 82 0 0 1 6.55 30.87l-75.02-9.2-29.53-69.48c39.4-10.44 81.62 9.29 98 47.82m-119.74-38.6 29.14 68.57-45.7 60.54a83 83 0 0 1-17.08-25.5c-16.38-38.52-1.25-82.56 33.63-103.6m75.6 147.69a83.2 83.2 0 0 1-73.4-4.22l45.2-59.9L987.4 598a83 83 0 0 1-47.75 54.81"/></svg>