<svg xmlns="http://www.w3.org/2000/svg" width="713" height="547" fill="none" viewBox="0 0 713 547"><path fill="#9ecced" d="M450.1 359.6H22.13a22.13 22.13 0 1 0 0 44.26H450.1a49.5 49.5 0 0 1 49.46 49.45 49.5 49.5 0 0 1-49.46 49.46 49.5 49.5 0 0 1-48.55-39.95 22.12 22.12 0 1 0-43.44 8.44c8.53 43.9 47.23 75.74 91.99 75.74 51.67 0 93.72-42.02 93.72-93.7s-42.03-93.71-93.72-93.71zM595.03 37.85c-65.05 0-117.97 52.92-117.97 117.96a22.1 22.1 0 0 0 44.17 0c0-40.7 33.11-73.81 73.82-73.81s73.82 33.1 73.82 73.8c0 40.71-33.11 73.82-73.82 73.82H22.1a22.08 22.08 0 1 0 0 44.17h573.15C660.22 273.68 713 220.8 713 155.83c0-64.98-52.92-117.96-117.97-117.96z"/><path fill="#9ecced" d="M0 121.36a22.1 22.1 0 0 1 22.09-22.09H377.6a27.6 27.6 0 0 0 27.57-27.56 27.57 27.57 0 0 0-48.14-18.34 22.1 22.1 0 0 1-32.96-29.4A71.8 71.8 0 0 1 377.6 0c39.56 0 71.74 32.17 71.74 71.73s-32.09 71.62-71.56 71.73H22.07A22.1 22.1 0 0 1 0 121.38z"/></svg>