<svg xmlns="http://www.w3.org/2000/svg" width="284" height="256" viewBox="0 0 284 256">
  <path fill="#68b096" d="m144.78 183.14c0-12.79-.1-24.23 0-35.72.4-37.92 1.68-75.78 12.86-112.4 2.68-8.8 6.44-17.19 12.18-25.14 5.73-7.96 11.01-10.84 18.48-9.6 7.47 1.22 11.52 7.24 14.36 17.55 2.85 10.31 1.97 34.25-.63 52.11-5.43 37.59-14.01 73.73-20.35 111.65 6.43-16.17 11.45-31.53 18.36-47.51 10.85-25 22.4-50.22 34.9-74.42 5.8-11.21 10.57-17.93 19.72-26.88 3.53-3.43 12.4-9.92 21.06-6.42 4.73 1.92 7.02 8.65 7.55 13.54 4.25 39.7-12.83 74.11-32.65 106.91-21.72 35.94-59.82 94.73-89.52 106.62-8.32 3.84-27.88 3.3-35.86-1.13-9.81-5.47-27.22-23.68-37.74-36.77-31.3-38.84-62.4-78.73-81.57-125.04-3.88-8.28-10.2-28.89-1.73-37.97 6.49-6.95 14.1-4.43 21 0 18.7 13.24 29.66 28.68 40.85 48.11 11.6 20.1 26.98 49.38 39.59 69.35-4.98-17.33-14.91-43.4-18.95-60.94-6.96-30.16-18.61-59.37-9.53-90.18 2-6.77 11.28-17.48 19.86-18.28 8.57-.8 14.23 7.08 19.16 16.35 4.94 9.26 13.06 43.1 16.83 66.64 5.06 31.58 10.69 97.44 11.75 99.56h.02z"/>
</svg>