<svg xmlns="http://www.w3.org/2000/svg" width="436" height="179" fill="none" viewBox="0 0 436 179"><path fill="#3D3D3D" d="M434.94 126.65c-.74-1.11-3.87-4.9-3.87-4.9s-4.14-15.39-4.14-16.35l-.16-31.17s.45-.53.49-1.48c.04-.94-.08-5.26-.08-5.26s-.02-.18-.1-.44v-.04c-.2-.82-12.88-26.83-17.7-37.23-9.62-19.85-15.13-23.32-16.98-23.9-18.78-1.75-46.94-4.01-63.14-4.63C298.16.06 221.22 0 221.22 0c-53.9.8-73.88 2.13-81.62 3.44-17.12 2.9-25.65 8.94-25.65 8.94l-.03.02c5.84.1 8.76-.18 8.93-.2A684.05 684.05 0 0 0 91.2 35.1a363.83 363.83 0 0 0-30.21 26.2l-.92.98-13.6.77c-13.36.36-17.42 2.88-17.42 2.88C13.09 72.48 10.1 86.34 8.21 94.79c-2.19 9.77-2.13 15.66-2.13 15.74a31.28 31.28 0 0 0-5.16 4.9c-.12.16-.34.52-.4 1.08C0 120.92 0 141.84 0 145.93c0 .08.2 9.37 4.47 10.44 10.3 2.99 26.1 4.23 26.1 4.23l80.7-2.96 201.42-1.83 99.66-1.56s1.38-.02 2.67-.55l17.74-8.6s2.34-.17 2.32-2c0-1 .14-5.23.26-7.49s.3-6.97.3-6.97.04-.86-.7-1.97v-.01Z"/><path fill="#DEDEDE" d="m115.29 11.58-1.36.86-.24.1-3.1 1.92a450.63 450.63 0 0 0-35.7 24.92C64.08 47.44 53.35 56.1 45.97 63.69l12.13 1.64 67.33-53.81-10.14.06ZM131.41 20.4l-23.47 32.15s-2.77 3.6-8.74 3.72c-5.98.12-20.95.83-20.95.83s-2.83.07.25-2.77c3.09-2.83 27.02-23.9 41.62-33.08 0 0 2.2-1.73 4.52-1.85 2.9-.15 6.18-.08 6.18-.08s1.6.06.6 1.07Z"/><path fill="#E2F1DF" d="M258.19 96.08h.47l.52 1.97.58-1.97h.4l.55 1.97.53-1.97h.47l-.77 2.47h-.46l-.54-1.8-.54 1.8h-.45l-.76-2.47Zm3.78 0h.47l.53 1.97.58-1.97h.4l.55 1.97.52-1.97h.48l-.77 2.47h-.47l-.53-1.8-.55 1.8h-.44l-.77-2.47Zm3.79 0h.47l.52 1.97.58-1.97h.4l.56 1.97.52-1.97h.47l-.77 2.47h-.46l-.54-1.8-.54 1.8h-.45l-.76-2.47Zm3.63 2.4a.3.3 0 0 1-.1-.22.3.3 0 0 1 .1-.22.3.3 0 0 1 .22-.1c.09 0 .15.04.22.1a.3.3 0 0 1 .09.22.3.3 0 0 1-.09.22.3.3 0 0 1-.22.1.3.3 0 0 1-.22-.1Zm1.04-2.4h.42l.03.3a.82.82 0 0 1 .7-.33c.17 0 .32.04.46.12.13.07.24.18.31.34a.77.77 0 0 1 .35-.34c.15-.09.32-.13.5-.13.3 0 .52.1.7.28.16.18.25.45.25.8v1.43h-.46v-1.38c0-.23-.05-.4-.15-.53a.53.53 0 0 0-.43-.18.56.56 0 0 0-.45.19c-.1.13-.16.3-.16.55v1.34h-.46v-1.37c0-.24-.04-.42-.14-.53-.1-.12-.23-.18-.41-.18a.54.54 0 0 0-.45.19c-.1.13-.15.3-.15.55v1.34h-.46v-2.47.01Zm4.44 2.31a.62.62 0 0 1-.23-.5c0-.22.09-.39.24-.52.16-.14.38-.22.68-.25l.7-.08v-.2a.35.35 0 0 0-.14-.28c-.08-.08-.2-.11-.38-.11a.8.8 0 0 0-.36.06.51.51 0 0 0-.22.21l-.37-.2c.08-.16.2-.28.36-.35.16-.08.37-.12.61-.12.3 0 .54.08.7.23a.8.8 0 0 1 .24.6v1.67h-.41l-.05-.37a.75.75 0 0 1-.3.3.98.98 0 0 1-.47.1.94.94 0 0 1-.61-.18Zm1.2-.38c.12-.12.18-.3.18-.53v-.06l-.66.08a.67.67 0 0 0-.35.12.3.3 0 0 0-.12.25c0 .09.04.18.1.24.08.06.18.1.3.1.24 0 .42-.07.54-.2Zm2.2.56a.8.8 0 0 1-.59-.21c-.14-.14-.22-.35-.22-.64v-1.27h-.35v-.37h.35v-.69h.47v.7h.63v.36h-.63v1.21c0 .19.04.31.11.39.07.07.18.1.31.1h.21v.37c-.08.03-.18.04-.3.04Zm1.8 0a.8.8 0 0 1-.58-.21c-.14-.14-.22-.35-.22-.64v-1.27h-.36v-.37h.36v-.69h.47v.7h.63v.36h-.63v1.21c0 .19.03.31.1.39.08.07.19.1.32.1h.21v.37c-.08.03-.19.04-.3.04Zm.83-3.01a.28.28 0 0 1-.08-.2.3.3 0 0 1 .08-.23.29.29 0 0 1 .22-.09c.09 0 .15.03.21.09a.3.3 0 0 1 .1.22c0 .08-.04.16-.1.21a.31.31 0 0 1-.21.09.29.29 0 0 1-.22-.09Zm0 .52h.45v2.47h-.46v-2.47Zm1.14-1.13h.46v3.6h-.46v-3.6Zm1.36 3.5a.93.93 0 0 1-.38-.4l.38-.2c.07.12.15.2.25.24.1.05.23.08.37.08.16 0 .28-.03.37-.1a.28.28 0 0 0 .13-.24.22.22 0 0 0-.07-.17.46.46 0 0 0-.2-.1l-.3-.08-.09-.03a2.17 2.17 0 0 1-.38-.13.85.85 0 0 1-.28-.2.48.48 0 0 1-.12-.34.6.6 0 0 1 .13-.39c.08-.11.2-.2.34-.25a1.28 1.28 0 0 1 1.04.03c.15.09.27.2.36.36l-.38.19a.37.37 0 0 0-.2-.2.81.81 0 0 0-.33-.07.64.64 0 0 0-.33.09.24.24 0 0 0-.13.22c0 .08.03.14.1.18.06.04.16.08.28.1l.17.05c.19.04.34.1.46.14.12.05.22.13.3.22.08.1.13.22.13.38 0 .15-.04.28-.12.39-.08.11-.2.2-.35.26-.16.06-.33.1-.54.1-.24 0-.44-.05-.6-.14v.01Zm2.8-.01-.97-2.36h.48l.74 1.87.75-1.87h.49l-1.48 3.45h-.46l.46-1.1Zm1.91-2.36h.42l.03.31c.08-.1.18-.2.3-.25a.9.9 0 0 1 .4-.1c.3 0 .53.1.7.28.17.18.26.45.26.8v1.43h-.46v-1.38c0-.23-.05-.4-.15-.53-.1-.12-.24-.18-.43-.18a.56.56 0 0 0-.45.19c-.1.13-.16.3-.16.55v1.34h-.45v-2.47.01Zm3.21 2.34c-.18-.11-.32-.26-.43-.46a1.43 1.43 0 0 1 0-1.3 1.16 1.16 0 0 1 1.03-.6c.22 0 .43.04.6.14.18.1.32.24.42.42.1.18.15.38.15.6l-.02.26h-1.83c0 .14.05.27.1.37.07.1.15.18.26.24.1.05.22.08.36.08a1 1 0 0 0 .4-.08.7.7 0 0 0 .29-.23l.38.17c-.12.17-.27.3-.46.4a1.37 1.37 0 0 1-1.25-.02Zm1.17-1.66a.61.61 0 0 0-.24-.22.69.69 0 0 0-.66 0 .7.7 0 0 0-.24.22c-.06.1-.1.21-.13.35h1.35a.64.64 0 0 0-.09-.34Zm2.06 1.8a.8.8 0 0 1-.58-.2c-.14-.14-.22-.35-.22-.64v-1.27h-.35v-.37h.35v-.69h.47v.7h.63v.36h-.63v1.21c0 .19.04.31.11.39.07.07.18.1.3.1h.22v.37c-.08.03-.18.04-.3.04Zm.74-.08a.3.3 0 0 1-.1-.22.3.3 0 0 1 .1-.22.3.3 0 0 1 .22-.1c.08 0 .15.04.22.1a.3.3 0 0 1 .09.22.3.3 0 0 1-.31.31.3.3 0 0 1-.22-.09Zm1.04-2.4h.41l.04.31a.9.9 0 0 1 .3-.25.9.9 0 0 1 .4-.1c.3 0 .53.1.7.28.16.18.25.45.25.8v1.43h-.46v-1.38c0-.23-.04-.4-.14-.53-.1-.12-.25-.18-.43-.18a.56.56 0 0 0-.45.19c-.11.13-.16.3-.16.55v1.34h-.46v-2.47.01Zm3.22 2.34c-.2-.1-.33-.24-.44-.44-.1-.19-.16-.42-.16-.67 0-.26.06-.48.17-.67.1-.19.25-.34.44-.44a1.34 1.34 0 0 1 1.26 0c.19.1.34.25.45.44.1.2.16.42.16.67 0 .25-.05.48-.17.66-.1.2-.26.35-.45.45-.19.1-.4.15-.63.15a1.3 1.3 0 0 1-.63-.15Zm1-.35c.11-.06.2-.16.28-.28.07-.13.1-.3.1-.48s-.03-.34-.1-.47a.73.73 0 0 0-.66-.38.78.78 0 0 0-.36.1.67.67 0 0 0-.27.28c-.07.13-.1.3-.1.47 0 .19.03.35.1.48a.7.7 0 0 0 .27.28.79.79 0 0 0 .75 0h-.01Z"/><path fill="#DEDEDE" d="M427.25 72.75c.04-.94-.08-5.26-.08-5.26s-.02-.18-.1-.44v-.04c-.05-.18-.68-1.54-1.69-3.67h-21.81l4.85 10.89h18.33s.45-.53.5-1.48ZM33.12 73.4s-.66.08-1.7.24a5.47 5.47 0 0 0-2.88 1.52 34.52 34.52 0 0 0-9.41 14.96 69.11 69.11 0 0 1 9.7-6.64c.4-.24 9.26-5.47 31.24-8.27v-3.48c-9.3.34-20.95.91-26.95 1.68ZM207.33 12.4l-5 44.38s-48.38 1.69-69.17 2.3l1.1-25.67s9.2-13.98 13.35-19.84c4.97-.13 59.72-1.17 59.72-1.17Z"/><path fill="#3D3D3D" d="M141.79 56.69c3.28-.25 2.7-4.27 2.7-4.27-.73-8-1.41-9.64-2.15-11.67-.83-2.23-3.06-2.62-3.9-2.7h-.34c-6.16 0-8.71 2.21-11.18 4.43-3.94 3.7-3.7 9.7-3.7 9.7l-1.78.06s-.76.06-.9.1c-.29.11-.44.29-.44.29s-.49.86-.7 1.44c-.2.57-.04.98-.04.98s1.1 1.12 1.6 1.53c.49.41 1.16.44 1.16.44l5.13-.04c4.96-.04 12.05-.12 14.35-.28l.19-.01Z"/><path fill="#000" d="m394.54 147.25-.02.06c.03-1.12.06-2.25.06-3.34 0-22.98-16.64-41.6-41.18-41.6s-41.17 18.62-41.17 41.6c0 1.62.03 3.28.09 4.96l-200.5 2.13c.12-2.42.18-4.8.18-7.09 0-22.98-16.64-41.6-41.18-41.6s-41.17 18.62-41.17 41.6c0 2.68.08 5.46.25 8.3l-.01-.12-16.16.14s-2.63-.08-5.09.58c-1.54.41-3.6.92-6.83 1.1.64 1.18 1.49 2.1 2.66 2.38l-.01.02c10.06 2.85 26.1 4.2 26.1 4.2l9.67-.35a34.44 34.44 0 0 0 62.25-2.22l218.4-2.3a34.46 34.46 0 0 0 32.54 23.12c15.06 0 28.3-10 32.78-23.82l26.14-.78s1.5-.02 2.85-.63l18.89-8.91c-15.8 1.66-39.55 2.55-39.55 2.55l.01.02Z"/><path fill="#000" d="M374.57 43.23h.01c-1.62-7.84-4.65-16.82-9.02-26.7-2.41-5.45-10.23-6.12-10.57-6.15l-2.65-.17a978.35 978.35 0 0 0-45.21-2.03h-.01c-14.17-.33-30.15-.46-47.52-.38-13.47.06-28.53.22-44.76.47L146.2 9.7a.4.4 0 0 0-.32.17c-17 23.9-27.23 42.57-29.98 47.72-.17.35-4.2 8.6-4.2 12.63l.06 47.8c0 .08.02.15.06.21a50.3 50.3 0 0 1 6.87 25.75v7h.8v-7c0-9.4-2.39-18.4-6.92-26.06l-.05-47.7c-.02-3.84 4.07-12.18 4.1-12.25 2.73-5.12 12.9-23.67 29.8-47.46L214.4 9.1c-.54 6.06-3.83 43.02-4.6 57.91h.06c-.11 1.43-.08 11.17.35 83.03 0 .22.19.4.4.4a.4.4 0 0 0 .41-.4c0-.81-.48-81.32-.42-82.95v-.03c.15-2.72.37-6.2.65-10.08l20.81-.73c26.56-.93 54.02-1.9 76.5-2.38l.74 67.72a49.23 49.23 0 0 0-5.05 22.12c0 1.33.02 3.87.06 5.36 0 .22.2.38.4.38h.02c.22 0 .4-.19.4-.41-.05-1.48-.07-4-.07-5.33 0-7.84 1.69-15.2 5-21.86a.42.42 0 0 0 .05-.18l-.75-67.83c22.4-.48 41.47-.71 58.3-.71 2.7 0 4.7-.89 5.9-2.65a8.52 8.52 0 0 0 1.3-4.79c0-.9-.06-1.93-.3-2.43v-.02ZM232.04 55.4l-20.72.73c1.25-17.4 3.49-42.43 3.9-47.08 16.09-.25 31.03-.4 44.4-.47 17.2-.08 33.06.05 47.13.38.27 4.33 1.85 29.5 1.81 44.05-22.48.49-49.95 1.46-76.51 2.4ZM372.91 50c-1.06 1.52-2.83 2.3-5.25 2.3-16.82 0-35.9.23-58.29.7.03-14.51-1.52-39.5-1.8-44.01C329 9.5 342.45 10.37 352.3 11l2.64.17c.08 0 7.68.66 9.9 5.67 4.34 9.83 7.36 18.75 8.96 26.53l.05.12c.15.48.74 4.09-.94 6.5Z"/><path fill="#E2F1DF" d="M151.97 97.72h.02v.85h-.01c-.08.04-.27.1-.61.1-.78 0-1.26-.48-1.26-1.25V95.3h-.77v-.8h.23c.4 0 .62-.24.62-.63v-.66h.94v1.26h.85v.83h-.85v1.97c0 .35.15.5.5.5.14 0 .3-.03.34-.04Zm3.17 0c-.03.01-.2.04-.34.04-.35 0-.5-.15-.5-.5V95.3h.86v-.83h-.86V93.2h-.94v.66c0 .4-.22.62-.61.62h-.24v.81h.77v2.13c0 .77.48 1.25 1.26 1.25.34 0 .53-.06.61-.1h.02v-.85h-.03Zm-6.32.86v.03h-.96v-.02a1.98 1.98 0 0 1-.05-.46c-.15.22-.52.6-1.25.6-.41 0-.77-.13-1.04-.38a1.2 1.2 0 0 1-.38-.88c0-.67.48-1.15 1.27-1.26l1.06-.16c.25-.04.28-.17.28-.28 0-.37-.3-.6-.76-.6-.45 0-.77.27-.82.7l-.94-.2c.08-.66.66-1.34 1.76-1.34 1.6 0 1.77 1.09 1.77 1.55v2.05c0 .4.05.64.05.65Zm-1.06-1.86-1.06.16c-.2.03-.53.14-.53.53 0 .25.18.51.58.51.46 0 1-.18 1-1.04v-.16Zm8.32 1.9h1.02v-4.16h-1.02v4.16Zm-26.25-5.03c.86 0 1.82.61 1.94 1.78.86-.42 1.83-.6 2.8-.51a4.78 4.78 0 0 0-9.4-.41c.97 0 1.91.25 2.74.73a1.95 1.95 0 0 1 1.92-1.59Zm-4.76 1.5a4.8 4.8 0 0 0 3.7 5.11v-.03c0-.88.21-1.74.63-2.52a4.72 4.72 0 0 0-4.33-2.56Zm15.81 2.04-1.94-4.53v-.01h-1.4v6.03h1.04v-4.31l1.82 4.28h.94l1.83-4.3v4.33h1.06V92.6h-1.42l-1.93 4.54Zm-11.47 3.17a4.79 4.79 0 0 0 5.2-4.76v-.04a4.7 4.7 0 0 0-5.2 4.8Zm47.57-3.82c0 .27-.02.34-.02.34h-3.03c.03.59.5 1.03 1.1 1.03.45 0 .76-.18.94-.52h.98c-.05.18-.12.34-.2.5-.3.48-.85.9-1.71.9-.58 0-1.1-.2-1.5-.58-.42-.4-.64-.98-.64-1.64 0-.62.22-1.18.62-1.58a2 2 0 0 1 1.41-.6c1.27 0 2.05.82 2.05 2.15Zm-1.04-.42c-.03-.65-.56-.87-1-.87-.44 0-.93.3-.99.87h2Zm-5.26-1.72c-.51 0-.96.23-1.21.62v-.5h-1v4.16h1.03v-2.4c0-.57.32-.95.83-.95.73 0 .83.56.83.9v2.45h1.03V96c0-1.02-.58-1.66-1.51-1.66Zm-4.87 2.69-1.17-2.56v-.01h-1.17l1.78 3.64-.98 2.12h1.1l2.64-5.76h-1.1l-1.1 2.57Zm14.14.7c-.03 0-.2.03-.33.03-.36 0-.51-.15-.51-.5V95.3h.86v-.83h-.86V93.2h-.93v.66c0 .4-.23.62-.62.62h-.24v.81h.77v2.13c0 .77.48 1.25 1.26 1.25.36 0 .55-.07.62-.1v-.85h-.02Zm-23.3-5.36c-.38 0-.67.3-.67.67 0 .36.29.65.66.65.38 0 .67-.29.67-.65 0-.37-.3-.67-.67-.67Zm1.62 6.25h1.02v-6.17h-1.02v6.17Zm3.9-2.5Zm-.01 0-.63-.12c-.25-.05-.4-.2-.4-.41 0-.25.25-.45.58-.45.62 0 .73.5.74.6v.02l.88-.25v-.02c-.02-.13-.1-.45-.4-.74a1.7 1.7 0 0 0-1.22-.42c-.86 0-1.55.6-1.55 1.34 0 .61.43 1.07 1.13 1.22l.62.14c.3.06.47.21.47.43 0 .23-.2.46-.6.46-.57 0-.8-.37-.83-.69v-.02l-.9.25v.01c.03.29.2.59.43.81.32.3.77.46 1.3.46 1.04 0 1.59-.68 1.59-1.34 0-.67-.44-1.1-1.21-1.27Z"/></svg>