<svg xmlns="http://www.w3.org/2000/svg" width="200" height="179" fill="none" viewBox="0 0 200 179"><path fill="#3D3D3D" d="M198.68 38.96c-1.32-2.78-4.23-3.7-4.23-3.7-2.93-1-7.54-.86-10.19-.86-2.65 0-2.75 2.7-2.9 3.56-.12.75-.1 4.45 0 7.16h-2.18a6693.1 6693.1 0 0 0-12.05-39.23l-.04-.08s-.76-2.4-3.54-3.32c0 0-20.95-2.49-63.55-2.49-42.6 0-63.54 2.5-63.54 2.5-2.78.91-3.54 3.31-3.54 3.31l-.04.09c-1.39 4.32-8.1 26.3-12.05 39.22h-2.18c.1-2.7.13-6.4 0-7.16-.14-.85-.24-3.55-2.9-3.55s-7.26-.14-10.2.85c0 0-2.89.93-4.22 3.7-1.85 3.9-2.3 14.91 2.14 15.23 1.32.1 9.12.32 14.45.46-.07.04-.32 1.11-.32 1.11s-3.25 3.25-5.49 9.35v5.9c-.9-1.17-1.53-1.9-1.57-1.82-.21.38-.68.93-.76 1.69-.08.76-1.22 11.4-3.54 20.5a47.7 47.7 0 0 0-.88 8.25c-.12 5.43-.54 28.14 1.11 40.93.86 6.6 1.23 7.5 1.23 7.5s-.08.33.84.46c1.06.14 12.63 2.84 22.81 3.76 3.75.34 19.96 1.47 29.18 1.73 9.23.26 69.71.25 78.93 0 9.22-.25 25.44-1.39 29.18-1.73 10.19-.92 21.75-3.62 22.82-3.76.92-.13.84-.47.84-.47s.37-.89 1.22-7.5c1.66-12.78 1.24-35.48 1.11-40.92a47.58 47.58 0 0 0-.88-8.25c-2.3-9.1-3.45-19.74-3.53-20.5-.09-.76-.55-1.3-.76-1.69-.2-.38-.23-.84-.27-.9-.2.83-.69 1.85-1.33 2.98V65.1c-2.2-5.96-5.35-9.2-5.49-9.33.01 0-.24-1.1-.3-1.12 5.33-.15 13.13-.37 14.46-.47 4.43-.32 4-11.33 2.13-15.22h.02ZM33.12 5.9v.01l-.22-.01h.22Z"/><path fill="#000" d="M194.52 142.24v.16c0 3.83-.2 12.47-.5 19.24-.3 6.86-.98 10.92-1.3 12.86-.4 2.38-1.6 3.2-2.44 3.61-.7.34-17.95.34-18.65 0-.86-.4-2.04-1.23-2.43-3.6-.33-1.95-1.01-6.01-1.3-12.87-.08-1.59-.14-3.29-.2-5v-.1c-28.43.2-106.94.2-135.37 0v.1l-.2 5c-.3 6.86-.98 10.92-1.3 12.86-.4 2.38-1.59 3.2-2.43 3.61-.7.34-17.96.34-18.66 0-.85-.4-2.03-1.23-2.43-3.6a98 98 0 0 1-1.3-12.87c-.3-6.77-.5-15.4-.51-19.24v-.16c0-2.3.08-6.31.2-10.62.19 3.24.44 6.3.78 8.93.85 6.6 1.22 7.5 1.22 7.5s-.05.29.68.42c.06.01.1.03.16.03 1.07.15 12.63 2.84 22.82 3.77 3.74.34 19.96 1.47 29.18 1.73 9.22.25 24.24.01 39.46.01 15.23 0 30.25.24 39.47-.01 9.22-.25 25.44-1.4 29.18-1.73 10.19-.93 21.75-3.62 22.82-3.77.06 0 .1-.02.16-.03.74-.13.68-.43.68-.43s.37-.88 1.22-7.49c.34-2.63.59-5.7.78-8.93.12 4.31.2 8.33.2 10.62h.01Z"/><path fill="#DEDEDE" d="M173.46 51.03a2903.87 2903.87 0 0 0-12.15-40.29c-.66-2.14-3.35-1.9-3.35-1.9-9.71-.03-106.19-.03-115.9 0 0 0-2.7-.24-3.35 1.9-2.43 7.88-8.37 27.25-12.15 40.3 0 0-1.37 3.05 2.52 3.32 4.35.35 10.58.67 19.4.8 5.08.06 97.96.06 103.05 0 8.82-.13 15.04-.45 19.4-.8 3.89-.27 2.51-3.33 2.51-3.33h.02ZM58.44 72.72s-33.36-4.67-40.49-5.94c-1.17-.2-2-.36-2.35-.44-2.53-.57-3.35-1.5-3.35-1.5s-1.43.93-1.43 3.46c.61 2.4 3.55 6.56 6.2 9.96 2.41 3.08 4.58 5.54 4.58 5.54s8.18.57 12.22.73c4.04.16 5.96-.44 5.96-.44 6.45-1.84 19.75-7.18 19.75-7.18l-1.1-4.19h.01ZM187.78 64.85s-.82.92-3.35 1.49c-.36.08-1.18.23-2.36.44-7.13 1.27-40.49 5.94-40.49 5.94l-1.1 4.19s13.32 5.34 19.75 7.18c0 0 1.93.6 5.97.44 4.04-.16 12.22-.73 12.22-.73s2.17-2.46 4.57-5.54c2.66-3.4 5.6-7.56 6.2-9.96 0-2.53-1.42-3.45-1.42-3.45Z"/><path fill="#3D3D3D" d="M102.14 92.13a9.33 9.33 0 1 0-4.26-18.15 9.33 9.33 0 0 0 4.27 18.15Z"/><path fill="#000" d="M189.48 69.2c-.21-.39-.23-.85-.27-.9l-.03-.3c-2.13 5.03-10.97 15.41-11.06 15.51-.12.13-12.6 13-16.64 16.23l-1.24 1.02c-3.4 2.81-6.33 5.24-16.2 5.97-11.84.86-28.3 1.38-44.03 1.38-15.74 0-32.2-.52-44.03-1.38-9.88-.73-12.81-3.16-16.2-5.97l-1.25-1.02c-4.04-3.23-16.51-16.1-16.62-16.2-.1-.12-9.35-10.94-11.06-15.72-.02.16-.03.3-.03.48-.04.04-.05.51-.27.9l-.01.01C13.06 74.47 20.9 83.64 21.3 84.1c.51.52 12.63 13.03 16.71 16.3.43.33.84.67 1.24 1 3.5 2.91 6.54 5.42 16.68 6.16 11.85.87 28.33 1.39 44.09 1.39 15.76 0 32.23-.52 44.08-1.39 10.15-.74 13.18-3.25 16.68-6.15l1.24-1.02c4.07-3.26 16.2-15.77 16.73-16.32.37-.43 8.04-9.45 10.78-14.81l-.05-.07Z"/><path fill="#fff" d="M123.16 126.79h-46.3c-.95 0-1.72.77-1.72 1.72v7.53c0 .95.77 1.72 1.72 1.72h46.3c.95 0 1.73-.77 1.73-1.72v-7.53c0-.95-.78-1.72-1.73-1.72Z"/><path fill="#000" d="M123.17 138.18H76.84a2.13 2.13 0 0 1-2.13-2.14v-7.53c0-1.18.96-2.14 2.13-2.14h46.32c1.17 0 2.13.96 2.13 2.14v7.53c0 1.19-.96 2.14-2.13 2.14ZM76.86 127.2c-.71 0-1.3.59-1.3 1.31v7.53c0 .72.58 1.31 1.3 1.31h46.31c.72 0 1.3-.58 1.3-1.3v-7.54c0-.71-.58-1.3-1.3-1.3H76.86Z"/></svg>