<svg xmlns="http://www.w3.org/2000/svg" width="436" height="179" fill="none" viewBox="0 0 436 179"><path fill="#3D3D3D" d="M.7 126.65c.75-1.11 3.87-4.9 3.87-4.9s4.15-15.39 4.15-16.35l.16-31.17s-.45-.53-.49-1.48c-.04-.94.08-5.26.08-5.26s.02-.18.1-.44v-.04c.2-.82 12.88-26.83 17.69-37.23C35.89 9.93 41.39 6.46 43.24 5.88 62.03 4.13 90.2 1.87 106.4 1.25 137.5.06 214.43 0 214.43 0c53.89.8 73.88 2.13 81.62 3.44 17.12 2.9 25.64 8.94 25.64 8.94l.04.02c-5.85.1-8.76-.18-8.93-.2a683.92 683.92 0 0 1 31.65 22.9 363.72 363.72 0 0 1 30.2 26.2l.93.98 13.6.77c13.36.36 17.42 2.88 17.42 2.88 15.96 6.55 18.95 20.41 20.84 28.86 2.18 9.77 2.12 15.66 2.12 15.74a31.3 31.3 0 0 1 5.17 4.9c.12.16.33.52.4 1.08.52 4.4.52 25.32.52 29.41 0 .08-.21 9.37-4.47 10.44-10.31 2.99-26.1 4.23-26.1 4.23l-80.7-2.96-201.42-1.83-99.66-1.56s-1.38-.02-2.67-.55l-17.74-8.6s-2.34-.17-2.32-2c0-1-.14-5.23-.26-7.49S0 128.63 0 128.63s-.03-.86.7-1.97v-.01Z"/><path fill="#DEDEDE" d="m320.36 11.58 1.36.86.23.1 3.1 1.92a450.7 450.7 0 0 1 35.7 24.92c10.82 8.06 21.54 16.73 28.92 24.31l-12.12 1.64-67.33-53.81 10.14.06ZM304.23 20.4l23.47 32.15s2.77 3.6 8.75 3.72c5.98.12 20.94.83 20.94.83s2.84.07-.25-2.77c-3.08-2.83-27-23.9-41.61-33.08 0 0-2.2-1.73-4.53-1.85-2.89-.15-6.17-.08-6.17-.08s-1.61.06-.6 1.07ZM8.4 72.75c-.04-.94.08-5.26.08-5.26s.02-.18.1-.44v-.04c.05-.18.68-1.54 1.69-3.67h21.81l-4.85 10.89H8.89s-.45-.53-.49-1.48ZM402.52 73.4s.67.08 1.71.24a5.46 5.46 0 0 1 2.87 1.52 34.52 34.52 0 0 1 9.42 14.96 69.14 69.14 0 0 0-9.7-6.64c-.41-.24-9.26-5.47-31.24-8.27v-3.48c9.29.34 20.95.91 26.95 1.68ZM228.32 12.4l5 44.38s48.37 1.69 69.17 2.3l-1.1-25.67s-9.2-13.98-13.35-19.84c-4.98-.13-59.72-1.17-59.72-1.17Z"/><path fill="#3D3D3D" d="M293.86 56.69c-3.29-.25-2.7-4.27-2.7-4.27.73-8 1.41-9.64 2.15-11.67.83-2.23 3.06-2.62 3.9-2.7h.34c6.16 0 8.7 2.21 11.18 4.43 3.94 3.7 3.7 9.7 3.7 9.7l1.78.06s.76.06.89.1c.3.11.44.29.44.29s.5.86.7 1.44c.21.57.04.98.04.98s-1.09 1.12-1.58 1.53c-.5.41-1.17.44-1.17.44l-5.13-.04c-4.96-.04-12.05-.12-14.35-.28l-.19-.01Z"/><path fill="#000" d="m41.1 147.25.03.06c-.03-1.12-.06-2.25-.06-3.34 0-22.98 16.64-41.6 41.18-41.6s41.17 18.62 41.17 41.6c0 1.62-.03 3.28-.1 4.96l200.51 2.13c-.12-2.42-.19-4.8-.19-7.09 0-22.98 16.65-41.6 41.19-41.6S406 120.99 406 143.97c0 2.68-.09 5.46-.25 8.3v-.12l16.16.14s2.63-.08 5.1.58c1.53.41 3.6.92 6.83 1.1-.64 1.18-1.5 2.1-2.66 2.38l.01.02c-10.06 2.85-26.11 4.2-26.11 4.2l-9.66-.35a34.44 34.44 0 0 1-62.25-2.22l-218.4-2.3a34.46 34.46 0 0 1-32.55 23.12c-15.05 0-28.29-10-32.77-23.82l-26.15-.78s-1.5-.02-2.84-.63l-18.9-8.91c15.8 1.66 39.55 2.55 39.55 2.55v.02Z"/><path fill="#000" d="M61.08 43.23h-.02c1.62-7.84 4.66-16.82 9.03-26.7 2.41-5.45 10.23-6.12 10.56-6.15l2.66-.17c9.91-.64 23.48-1.52 45.21-2.03 14.17-.33 30.16-.46 47.53-.38 13.46.06 28.52.22 44.76.47l68.64 1.44a.4.4 0 0 1 .32.17c17 23.9 27.23 42.57 29.97 47.72.18.35 4.21 8.6 4.2 12.63l-.06 47.8c0 .08-.02.15-.05.21a50.3 50.3 0 0 0-6.87 25.75v7h-.8v-7c0-9.4 2.39-18.4 6.92-26.06l.05-47.7c.01-3.84-4.07-12.18-4.1-12.25-2.73-5.12-12.9-23.67-29.8-47.46L221.24 9.1c.55 6.06 3.84 43.02 4.61 57.91h-.06c.1 1.43.07 11.17-.36 83.03a.4.4 0 0 1-.8 0c0-.81.48-81.32.41-82.95v-.02c-.14-2.73-.37-6.2-.64-10.09l-20.82-.73c-26.56-.93-54.02-1.9-76.49-2.38l-.75 67.72a49.23 49.23 0 0 1 5.05 22.12c0 1.33-.02 3.87-.06 5.36a.4.4 0 0 1-.4.38h-.01a.4.4 0 0 1-.4-.41c.05-1.48.07-4 .07-5.33 0-7.84-1.7-15.2-5.01-21.86a.42.42 0 0 1-.04-.18l.74-67.83c-22.4-.48-41.46-.71-58.3-.71-2.7 0-4.68-.89-5.9-2.65a8.52 8.52 0 0 1-1.3-4.79c0-.9.06-1.93.3-2.43v-.02ZM203.6 55.4l20.73.73c-1.26-17.4-3.49-42.42-3.9-47.08a4113.4 4113.4 0 0 0-44.4-.47c-17.2-.08-33.06.05-47.13.38-.28 4.33-1.85 29.5-1.82 44.05 22.48.49 49.95 1.46 76.52 2.4ZM62.74 50c1.05 1.52 2.82 2.3 5.24 2.3 16.83 0 35.9.23 58.3.7-.04-14.51 1.52-39.5 1.8-44.01-21.44.51-34.9 1.38-44.73 2.02l-2.65.17c-.07 0-7.67.66-9.89 5.67-4.34 9.83-7.36 18.75-8.97 26.53 0 .04-.02.08-.04.12-.15.48-.74 4.09.93 6.5Z"/><path fill="#E2F1DF" d="M280.4 98.01h.03v.97l-.01.01c-.1.04-.3.1-.67.1-.85 0-1.38-.54-1.38-1.42V95.2h-.83v-.93h.25c.43 0 .67-.26.67-.71v-.76h1.03v1.45h.93v.95h-.94v2.27c0 .4.17.57.56.57.15 0 .33-.03.36-.04Zm3.47 0c-.04 0-.21.04-.37.04-.38 0-.55-.17-.55-.57v-2.27h.94v-.95h-.94V92.8h-1.02v.76c0 .45-.25.71-.67.71H281v.93h.84v2.46c0 .88.53 1.43 1.38 1.43.37 0 .57-.07.66-.11h.02V98h-.03Zm-6.9.99v.03h-1.05V99a2.4 2.4 0 0 1-.05-.53c-.17.25-.58.7-1.37.7-.45 0-.85-.16-1.13-.45a1.42 1.42 0 0 1-.42-1c0-.79.52-1.33 1.38-1.46l1.16-.19c.28-.04.31-.2.31-.31 0-.44-.33-.7-.83-.7-.5 0-.84.31-.9.81l-1.02-.24c.09-.75.72-1.54 1.91-1.54 1.76 0 1.94 1.26 1.94 1.8v2.35c0 .45.06.74.06.75Zm-1.17-2.15-1.15.19c-.22.03-.58.16-.58.61 0 .29.2.6.63.6.5 0 1.1-.22 1.1-1.21v-.19Zm9.1 2.2H286v-4.8h-1.12v4.8Zm-28.68-5.8c.95 0 1.99.71 2.13 2.05.94-.48 2-.68 3.04-.59a5.32 5.32 0 0 0-5.17-4.71 5.29 5.29 0 0 0-5.08 4.24c1.05 0 2.09.29 2.99.85a2.16 2.16 0 0 1 2.1-1.83Zm-5.2 1.73a5.49 5.49 0 0 0 4.04 5.88v-.03c0-1.02.24-2.01.7-2.9a5.12 5.12 0 0 0-4.73-2.95Zm17.28 2.34-2.12-5.2v-.02h-1.54v6.94h1.14v-4.96l1.99 4.93h1.02l2-4.95v4.98h1.16V92.1h-1.55l-2.1 5.22Zm-12.54 3.66c3.03.3 5.7-2.27 5.69-5.48v-.05c-3.07-.37-5.8 2.28-5.69 5.53Zm51.97-4.4c0 .3-.03.39-.03.39h-3.3c.03.68.55 1.18 1.2 1.18.49 0 .83-.2 1.03-.6v.01h1.06a2.06 2.06 0 0 1-2.1 1.61c-.61 0-1.2-.24-1.62-.67a2.62 2.62 0 0 1-.7-1.89c0-.7.24-1.35.68-1.82.4-.44.97-.69 1.54-.69 1.38 0 2.24.95 2.24 2.48Zm-1.14-.49c-.03-.74-.6-1-1.09-1-.48 0-1.02.35-1.08 1h2.17Zm-5.75-1.97c-.56 0-1.04.26-1.32.7v-.56h-1.1v4.78h1.13v-2.76c0-.66.36-1.09.92-1.09.79 0 .9.64.9 1.03v2.82h1.13v-3.02c0-1.17-.64-1.9-1.66-1.9Zm-5.31 3.09-1.28-2.94-.01-.02h-1.27l1.95 4.19-1.07 2.44h1.2l2.88-6.63h-1.2l-1.2 2.96Zm15.44.8c-.04 0-.21.04-.36.04-.4 0-.56-.17-.56-.57v-2.27h.94v-.95h-.94V92.8h-1.02v.76c0 .45-.24.71-.67.71h-.26v.93h.84v2.46c0 .88.53 1.43 1.38 1.43.38 0 .6-.08.67-.11h.01V98h-.03Zm-25.46-6.15c-.4 0-.72.34-.72.76a.73.73 0 1 0 1.45 0 .75.75 0 0 0-.73-.76Zm1.78 7.18h1.11v-7.09h-1.11v7.1Zm4.25-2.87Zm0 0-.69-.14c-.27-.06-.44-.24-.44-.48 0-.29.28-.52.63-.52.69 0 .8.58.82.7v.02l.96-.29v-.02a1.58 1.58 0 0 0-.44-.85 1.8 1.8 0 0 0-1.34-.49c-.93 0-1.68.7-1.68 1.55 0 .7.46 1.23 1.23 1.4l.67.16c.34.07.51.24.51.5s-.2.52-.65.52c-.62 0-.87-.42-.9-.78v-.03l-.99.28v.02c.04.33.21.68.47.93.35.34.84.52 1.43.52 1.13 0 1.73-.77 1.73-1.54 0-.76-.48-1.27-1.32-1.46Z"/></svg>