<svg xmlns="http://www.w3.org/2000/svg" width="200" height="179" fill="none" viewBox="0 0 200 179"><path fill="#000" d="M194 125.2c-.24 2.72-.55 5.36-.94 7.81-.51 3.2-1.56 10.15-1.56 10.15l-.03.57H8.56l-.04-.57S7.47 136.2 6.96 133c-.4-2.46-.7-5.1-.93-7.8-.25 6.42-.42 13.85-.43 17.33v.16c0 3.84.21 12.53.51 19.33.3 6.89.98 10.96 1.3 12.92.4 2.4 1.6 3.22 2.44 3.63.7.33 17.95.33 18.65 0 .86-.41 2.04-1.24 2.43-3.63.33-1.96 1-6.03 1.3-12.92.13-2.88.24-6.1.33-9.15h134.91a584 584 0 0 0 .32 9.15c.3 6.89.98 10.96 1.3 12.92.4 2.4 1.6 3.22 2.44 3.63.7.33 17.95.33 18.65 0 .86-.41 2.04-1.24 2.43-3.63.33-1.96 1.01-6.03 1.3-12.92.3-6.8.5-15.49.52-19.33v-.16c0-3.48-.18-10.91-.43-17.33Z"/><path fill="#3D3D3D" d="M198.68 39.5c-1.32-2.78-4.22-3.7-4.22-3.7-2.94-1-7.54-.86-10.2-.86-2.65 0-2.74 2.7-2.89 3.55-.13.76-.1 4.46 0 7.16h-1.97c-3.56-17.77-8.31-32.08-11.47-39.73 0 0-.78-2.45-3.6-3.39 0 0-21.34-2.53-64.7-2.53S34.95 2.55 34.95 2.55c-2.83.93-3.6 3.38-3.6 3.38-2.56 6.17-7.83 27.12-10.91 39.74h-1.8c.11-2.71.14-6.4 0-7.16-.13-.86-.23-3.56-2.89-3.56s-7.26-.14-10.2.86c0 0-2.89.92-4.22 3.7-1.85 3.9-2.3 14.9 2.14 15.22 1.34.1 9.34.33 14.66.47l-.08.36-.03.23c-1.28.92-3.7 3.1-5.5 7.36-.37 1-.64 2.17-.64 3.4 0 3.3-.37 9.67-1 12.83-.6 2.98-1.01 5.37-2.67 9.73-.99 3.2-2.23 4.16-2.6 9.04-.39 4.88-.67 22.35 1.34 34.88.51 3.2 1.6 10.72 1.6 10.72h182.91s1.08-7.52 1.6-10.72c2-12.53 1.72-30 1.34-34.88-.38-4.88-1.63-5.85-2.6-9.04-1.67-4.36-2.08-6.74-2.67-9.73-.63-3.16-1-9.54-1-12.82 0-1.3-.31-2.52-.7-3.56-.41-.94-.84-1.78-1.3-2.52l-.16-.23a16.2 16.2 0 0 0-3.39-4l-1.3-.92-.17-.1h.05-.03c5.3-.15 14-.4 15.4-.5 4.43-.32 4-11.33 2.13-15.22l.02-.02Z"/><path fill="#DEDEDE" d="M151.26 45.2c-.06 0 6 .06 7.71-3.41-.12.06 1.71-1.84.25-8.15-1.45-6.32-4.36-15.67-4.36-15.67s-.95-5.57-10.62-6.46c-9.66-.88-24.3-1.37-44.23-1.37-19.94 0-34.58.49-44.24 1.37-9.67.89-10.62 6.46-10.62 6.46s-2.9 9.35-4.36 15.67c-1.45 6.32.38 8.2.25 8.15 1.7 3.47 7.77 3.4 7.7 3.4 4.8.28 97.72.28 102.52 0Z"/><path fill="#E2F1DF" d="M40 94.84h.48l.54 2.02.6-2.02h.4l.56 2.01.55-2.01h.47l-.78 2.53h-.47l-.55-1.85-.56 1.85h-.45L40 94.84Zm3.88 0h.48l.54 2.02.6-2.02h.4l.57 2.01.54-2.01h.48l-.79 2.53h-.47l-.55-1.85-.55 1.85h-.46l-.79-2.53Zm3.88 0h.48l.54 2.02.59-2.02h.4l.57 2.01.54-2.01h.48l-.78 2.53h-.48l-.54-1.85-.56 1.85h-.45l-.8-2.53Zm3.72 2.46a.31.31 0 0 1-.1-.23c0-.1.04-.17.1-.23.06-.06.14-.1.23-.1a.3.3 0 0 1 .22.1.3.3 0 0 1 .1.23.3.3 0 0 1-.1.23.31.31 0 0 1-.22.1.33.33 0 0 1-.23-.1Zm1.07-2.46h.43l.03.31a.84.84 0 0 1 .72-.35c.18 0 .34.04.48.12.14.08.25.2.33.36.07-.16.19-.28.35-.35.16-.08.33-.12.51-.12.3 0 .54.1.71.28.18.2.27.46.27.82v1.46h-.48v-1.4c0-.24-.05-.42-.15-.54-.1-.13-.25-.19-.44-.19a.59.59 0 0 0-.46.2c-.11.13-.17.31-.17.56v1.37h-.47v-1.4a.92.92 0 0 0-.14-.55c-.09-.12-.24-.18-.43-.18-.2 0-.35.06-.46.2a.9.9 0 0 0-.16.56v1.37h-.47v-2.53Zm4.55 2.36a.63.63 0 0 1-.23-.52c0-.21.08-.4.23-.52.16-.13.4-.23.7-.26l.71-.08v-.2a.38.38 0 0 0-.12-.3c-.1-.07-.22-.1-.4-.1a.8.8 0 0 0-.36.06.53.53 0 0 0-.23.22l-.39-.21a.8.8 0 0 1 .38-.37c.17-.08.37-.12.62-.12.32 0 .56.08.72.24a.8.8 0 0 1 .25.62v1.7h-.43l-.04-.38a.8.8 0 0 1-.3.3.98.98 0 0 1-.49.11 1 1 0 0 1-.63-.18v-.01Zm1.23-.39c.12-.13.18-.31.18-.55v-.07l-.67.09a.7.7 0 0 0-.36.13.3.3 0 0 0-.12.25c0 .1.04.18.11.25.08.06.18.1.32.1.23 0 .41-.07.54-.2Zm2.25.57a.81.81 0 0 1-.6-.22c-.15-.13-.22-.36-.22-.66v-1.29h-.36v-.38h.36v-.7h.47v.7h.66v.38h-.66v1.25c0 .18.04.3.12.38.07.08.18.12.32.12.08 0 .16 0 .22-.02v.4c-.09.02-.2.03-.31.03Zm1.85 0a.81.81 0 0 1-.59-.22c-.15-.13-.23-.36-.23-.66v-1.29h-.37v-.38h.37v-.7h.47v.7h.66v.38h-.66v1.25c0 .18.05.3.12.38.08.08.18.12.32.12.09 0 .16 0 .22-.02v.4c-.09.02-.19.03-.3.03Zm.86-3.08a.29.29 0 0 1-.1-.22.3.3 0 0 1 .32-.32.3.3 0 0 1 .31.32c0 .08-.03.16-.09.22a.3.3 0 0 1-.22.09.3.3 0 0 1-.22-.1Zm-.02.54h.47v2.53h-.47v-2.53Zm1.18-1.17h.47v3.69h-.47v-3.69Zm1.4 3.6a.95.95 0 0 1-.39-.42l.38-.2c.07.13.16.2.27.26.1.05.23.07.38.07.16 0 .28-.03.37-.1a.3.3 0 0 0 .14-.24.24.24 0 0 0-.08-.18.44.44 0 0 0-.19-.1l-.31-.08c-.03-.01-.06-.03-.1-.03a2.99 2.99 0 0 1-.4-.13.78.78 0 0 1-.28-.2.53.53 0 0 1-.12-.36c0-.15.04-.28.13-.4.09-.1.2-.2.35-.26a1.28 1.28 0 0 1 1.06.03c.16.09.28.21.36.37l-.38.2a.38.38 0 0 0-.2-.21.84.84 0 0 0-.34-.07.62.62 0 0 0-.34.08.25.25 0 0 0-.13.23c0 .09.03.14.1.18.06.04.16.09.29.11l.17.05c.2.04.35.1.47.14.13.05.23.13.32.22.08.1.12.23.12.4 0 .14-.04.27-.12.39a.9.9 0 0 1-.36.27c-.16.07-.34.1-.55.1a1.3 1.3 0 0 1-.62-.14v.02Zm2.87-.02-1-2.42h.5l.75 1.92.77-1.92h.5l-1.51 3.54h-.49l.48-1.13Zm1.96-2.41h.43l.04.32a.86.86 0 0 1 .72-.36c.3 0 .53.1.7.27.18.2.26.46.26.82v1.47h-.47v-1.4c0-.25-.05-.43-.15-.55-.1-.13-.25-.2-.44-.2-.2.01-.36.07-.46.2a.9.9 0 0 0-.16.57v1.38h-.48v-2.53h.01Zm3.3 2.4a1.24 1.24 0 0 1-.45-.47c-.11-.2-.16-.43-.16-.68 0-.25.05-.47.15-.66a1.2 1.2 0 0 1 1.06-.63 1.15 1.15 0 0 1 1.04.58c.11.19.16.4.16.64 0 .09 0 .18-.02.26h-1.88c.01.14.05.27.11.38.07.1.16.18.27.24.1.06.23.08.36.08.15 0 .28-.02.42-.08a.64.64 0 0 0 .3-.24l.38.18c-.12.18-.27.32-.47.41a1.39 1.39 0 0 1-1.28-.02Zm1.19-1.7a.61.61 0 0 0-.24-.24.7.7 0 0 0-.67 0 .73.73 0 0 0-.25.23.84.84 0 0 0-.13.35h1.39a.63.63 0 0 0-.1-.34Zm2.1 1.84a.81.81 0 0 1-.58-.22c-.15-.13-.23-.36-.23-.66v-1.29h-.36v-.38h.36v-.7h.47v.7h.66v.38h-.66v1.25c0 .18.04.3.12.38.08.08.18.12.32.12.08 0 .16 0 .22-.02v.4c-.09.02-.2.03-.31.03Zm.76-.08a.3.3 0 0 1-.1-.23c0-.1.04-.17.1-.23.06-.06.14-.1.23-.1a.3.3 0 0 1 .22.1.34.34 0 0 1 0 .46.31.31 0 0 1-.22.1.33.33 0 0 1-.23-.1Zm1.08-2.46h.43l.03.32a.86.86 0 0 1 .72-.36c.3 0 .54.1.71.27.18.2.26.46.26.82v1.47h-.47v-1.4c0-.25-.05-.43-.15-.55-.1-.13-.25-.2-.44-.2-.2.01-.36.07-.46.2-.11.14-.16.32-.16.57v1.38h-.47v-2.53Zm3.3 2.4c-.2-.1-.35-.26-.46-.45-.1-.2-.16-.42-.16-.69 0-.26.06-.48.17-.69.11-.2.26-.34.45-.45.2-.1.41-.16.65-.16.23 0 .46.05.65.16.2.1.35.25.46.45.11.2.17.43.17.7 0 .26-.06.48-.17.68a1.21 1.21 0 0 1-1.1.62c-.24 0-.46-.06-.66-.16v-.01Zm1.02-.36a.77.77 0 0 0 .29-.3c.07-.12.1-.28.1-.48 0-.2-.03-.35-.1-.48a.75.75 0 0 0-.67-.39.82.82 0 0 0-.37.1.75.75 0 0 0-.28.29c-.07.13-.1.29-.1.48 0 .2.03.36.1.49a.7.7 0 0 0 .64.39c.14 0 .27-.04.39-.1Z"/><path fill="#3D3D3D" d="M102.15 92.67a9.33 9.33 0 1 0-4.27-18.16 9.33 9.33 0 0 0 4.27 18.16Z"/><path fill="#DEDEDE" d="M183.13 66.3c-.62-6.87-4.28-7.38-4.28-7.38h-7.33l1.1 13h10.98l-.46-5.62h-.01ZM16.89 66.3c.63-6.87 4.28-7.38 4.28-7.38h7.33c-.08.83-1.05 12.33-1.09 13H16.42l.46-5.62h.02-.01Z"/><path fill="#000" d="M170.42 71.84v-.14a.45.45 0 0 0-.42-.38h-6.73s-1.96-.02-3.9-.84c-2.2-.94-12.46-6.34-12.56-6.4l-.34-.17h-92.9l-.35.18c-.1.04-10.36 5.45-12.56 6.38-1.94.82-3.88.84-3.9.84h-6.72c-.21 0-.4.17-.41.39v.14c-.27 4.36-.62 32.74-.54 34.9l.02.65c.06 2.26.14 4.82 1.74 7.73.06.1 5.35 9.05 15.08 9.05 3.54 0 7.28.04 12.02.08 8.81.1 20.88.22 42.08.22s33.26-.13 42.08-.22c4.73-.04 8.47-.08 12.02-.08 9.73 0 15.03-8.96 15.08-9.05 1.6-2.9 1.67-5.47 1.74-7.73l.02-.65c.07-2.16-.27-30.55-.53-34.91h-.02Zm-.3 34.88-.03.66c-.06 2.17-.13 4.62-1.63 7.33-.05.09-5.12 8.64-14.35 8.64-3.55 0-7.3.04-12.03.08-8.8.09-20.87.21-42.07.21s-33.25-.12-42.07-.21c-4.73-.05-8.48-.09-12.03-.09-9.24 0-14.3-8.54-14.35-8.62-1.5-2.72-1.57-5.18-1.63-7.35l-.02-.66c-.08-2.11.25-29.55.51-34.58h6.33s2.12 0 4.23-.9c2.25-.96 12.53-6.37 12.62-6.42l.16-.09h92.5l.15.09c.1.05 10.35 5.45 12.62 6.41 2.12.9 4.2.91 4.23.91h6.33c.26 5.04.6 32.46.52 34.58v.01Z"/><path fill="#fff" d="M123.17 107.62H76.86c-.95 0-1.72.77-1.72 1.72v7.53c0 .95.77 1.72 1.72 1.72h46.3c.96 0 1.73-.77 1.73-1.72v-7.53c0-.95-.77-1.72-1.72-1.72Z"/><path fill="#000" d="M123.17 119.01H76.85a2.13 2.13 0 0 1-2.13-2.14v-7.53c0-1.18.96-2.14 2.13-2.14h46.32c1.18 0 2.13.96 2.13 2.14v7.53c0 1.18-.96 2.14-2.13 2.14Zm-46.3-10.97c-.72 0-1.31.58-1.31 1.3v7.54c0 .72.58 1.3 1.3 1.3h46.31c.72 0 1.31-.58 1.31-1.3v-7.53c0-.72-.58-1.31-1.3-1.31H76.85Z"/><path fill="#E2F1DF" d="M137.34 96.54h.02v.68h-.01c-.07.03-.22.08-.5.08-.61 0-1-.39-1-1v-1.7h-.61v-.65h.18c.32 0 .5-.18.5-.5v-.52h.74v1h.69v.67h-.69v1.57c0 .28.13.4.4.4.12 0 .25-.02.28-.03Zm2.53 0c-.03 0-.16.03-.27.03-.28 0-.4-.12-.4-.4V94.6h.69v-.67h-.7v-1h-.74v.52c0 .32-.18.5-.5.5h-.18v.65h.61v1.7c0 .61.39 1 1.01 1 .27 0 .43-.05.5-.08v-.68h-.02Zm-5.05.69v.02h-.76v-.02c-.01-.02-.04-.13-.04-.36-.12.17-.42.48-1 .48-.33 0-.62-.1-.83-.3a.96.96 0 0 1-.3-.71c0-.54.37-.92 1-1.01l.85-.13c.2-.03.23-.14.23-.22 0-.3-.24-.48-.6-.48-.37 0-.62.21-.66.56l-.75-.17c.06-.52.52-1.06 1.4-1.06 1.28 0 1.42.87 1.42 1.24v1.63c0 .32.04.52.04.53Zm-.85-1.5-.84.13c-.16.03-.43.12-.43.43 0 .2.15.41.47.41.36 0 .8-.14.8-.83v-.13Zm6.65 1.53h.82v-3.33h-.82v3.33Zm-20.97-4.02c.7 0 1.45.49 1.56 1.42a4.25 4.25 0 0 1 2.22-.4 3.82 3.82 0 0 0-7.5-.34c.77 0 1.53.2 2.2.59.17-.85.88-1.27 1.52-1.27Zm-3.8 1.2a3.83 3.83 0 0 0 2.95 4.08v-.02c0-.71.17-1.4.5-2.02a3.77 3.77 0 0 0-3.45-2.05Zm12.63 1.62-1.55-3.62h-1.12v4.82h.83V93.8l1.45 3.42h.75l1.47-3.43v3.46h.84v-4.83h-1.13l-1.54 3.63Zm-9.17 2.54a3.82 3.82 0 0 0 4.16-3.8v-.04a3.76 3.76 0 0 0-4.16 3.84Zm38-3.05-.01.27h-2.42c.03.47.4.82.88.82.36 0 .61-.14.75-.41h.78c-.04.14-.1.27-.16.39-.23.39-.68.73-1.37.73a1.7 1.7 0 0 1-1.2-.47 1.77 1.77 0 0 1-.5-1.31c0-.5.17-.94.5-1.27.3-.3.7-.47 1.12-.47 1.01 0 1.64.65 1.64 1.72Zm-.82-.34c-.03-.52-.45-.7-.8-.7a.78.78 0 0 0-.8.7h1.6Zm-4.21-1.37c-.4 0-.76.18-.96.49v-.4h-.8v3.33h.82v-1.92c0-.46.26-.76.67-.76.58 0 .66.45.66.71v1.97h.82v-2.1c0-.82-.46-1.32-1.21-1.32Zm-3.88 2.14-.94-2.04v-.01h-.94l1.43 2.9-.78 1.7h.88l2.1-4.6h-.87l-.88 2.05Zm11.3.56c-.04 0-.17.03-.28.03-.28 0-.4-.12-.4-.4V94.6h.68v-.67h-.68v-1h-.75v.52c0 .32-.18.5-.5.5h-.18v.65h.61v1.7c0 .61.39 1 1.01 1 .28 0 .44-.06.49-.08h.01v-.68h-.02Zm-18.63-4.27c-.3 0-.53.23-.53.53 0 .29.23.52.53.52.3 0 .54-.23.54-.52 0-.3-.24-.53-.54-.53Zm1.3 4.99h.82v-4.93h-.82v4.93Zm3.11-2Zm0 0-.5-.1c-.2-.04-.32-.16-.32-.33 0-.2.2-.36.46-.36.5 0 .58.4.6.48v.02l.7-.2v-.01a1.1 1.1 0 0 0-.33-.6 1.36 1.36 0 0 0-.97-.33c-.68 0-1.24.48-1.24 1.07 0 .49.34.85.9.98l.5.1c.24.05.37.17.37.35 0 .18-.15.36-.48.36-.45 0-.63-.3-.66-.54v-.02l-.72.2v.01c.03.23.16.47.35.65.25.23.61.36 1.04.36.83 0 1.26-.54 1.26-1.07s-.35-.89-.96-1.02Z"/></svg>