<svg xmlns="http://www.w3.org/2000/svg" width="510" height="179" fill="none" viewBox="0 0 510 179"><path fill="#3D3D3D" d="M508.34 120.01a8.73 8.73 0 0 1-1.8-2.15l1.98-25.72v-.01c.04-.66.27-10.13-.32-12.05l-4.35-9.26s0-.74 1.03-1.92 1.92-6.05 1.92-6.05.94-9.1-1.86-12.93-8.77-7.96-8.77-7.96l-3.54-2.88v.04L469.58 20.4l-4.32-3.51-6.25-5.08c-9.58-.96-29.56-2.98-58.08-5.96 0 0-46.34-5.87-105.68-5.84 0 0-56.5-.42-91.1 11.67 0 0-30.28 8.82-85.07 39.45l-10.59.94c-4.57.68-36.46 2.07-67.31 11.28-24.5 6.99-30.44 12.64-30.44 12.64s-2.03 1.32-3.7 3.71c0-.12-2.13 2.65-2.59 6.64-.49 4 .94 7.2.96 7.12.1.15.2.29.33.4.33.37.88 1.63-.15 3.25s-5.13 9.58-5.13 9.58S0 108 0 109.48c0 .98.83 33.11.83 33.11.08 1.44.8 6.59 7.22 7.92 11.15 2.27 36.14 7.57 36.14 7.57l6.24-8.36 80.15-1.39 5.76 3.84H351.7l6.88-6.47 82.56-4.45 6.5 6.5s45.69-1.4 61.63-14.9c0-2.24-.14-12.12-.94-12.85v.01Z"/><path fill="#3D3D3D" d="m276.56 10.36-1.16.05-10.5 40.4 22.56-1.25 2.93-39.5c-4.72.04-9.36.13-13.83.3Z"/><path fill="#DEDEDE" d="M295.66 10.03c-1.76 0-3.52 0-5.27.02l-2.93 39.5c27.23-1.53 53.56-3.1 56.39-3.36 1.69-.15 4.78-.51 8.22-.94l1.48-32.69a700.27 700.27 0 0 0-57.9-2.54h.01ZM56.9 73.29c-.83-.54-3.2-1.67-3.83-1.77-.64-.1-2.8-.3-4.48-.1-1.68.2-22.6 2.32-34.62 7.73 0 0-.74 3.14-1.35 7.1 0 0 6.15 4.69 7.38 5.48 1.23.79 3.13.64 3.13.64s5.95-.84 8.56-1.38c2.6-.55 4.6-1.55 4.6-1.55 2.37-1.34 20.56-14.47 20.56-14.47s.88-1.14.05-1.67v-.01ZM462.28 17.31c-.45.96-.31 2.68 1.5 5.83 3.82 6.59 15.59 15.94 15.59 15.94s1.38 1.23 3.3 1.28c1.44.04 7.23.18 11-.43l-28.4-23.05s-1.12.15-2.98.43ZM133.71 47.76s2.84.14 6.37-1.93c26.03-15.11 51.62-26.26 63.5-30.17 0 0 2.27-.78.62-1.28l-4.31-1.31c-1.33.45-3 1.05-4.94 1.77-.67.25-1.38.51-2.12.8l-.49.18-1.09.42-.55.21-1.89.75-.83.33-1.09.43-1.68.68-1.1.45-1.15.48-1.48.62-1.55.65-1.21.52-1.4.6-1.73.76-1.57.68-1.33.6-1.7.76-1.9.85-1.56.71c-.5.22-.97.45-1.47.68l-2.52 1.17-1.47.7-1.67.8-1.57.74-2.7 1.3-1.7.84a317.51 317.51 0 0 0-6.32 3.14c-.62.3-1.24.62-1.86.94l-1.88.95-2.87 1.47-2 1.04-2 1.05-2.19 1.15-2.92 1.55-2.13 1.14-2.04 1.1-3.5 1.9 9-.23v.01Z"/><path fill="#E2F1DF" d="M289.73 85.58h.56l.63 2.36.7-2.36h.46l.68 2.35.63-2.35h.55l-.9 2.95h-.56l-.65-2.16-.64 2.16h-.54l-.92-2.95Zm4.53 0h.56l.63 2.36.7-2.36h.46l.67 2.35.63-2.35h.56l-.91 2.95H297l-.65-2.16-.64 2.16h-.54l-.92-2.95Zm4.54 0h.56l.63 2.36.69-2.36h.47l.67 2.35.63-2.35h.56l-.91 2.95h-.56l-.64-2.16-.65 2.16h-.53l-.92-2.95Zm4.34 2.87a.38.38 0 0 1-.1-.27.38.38 0 0 1 .37-.38c.1 0 .19.04.26.12.07.07.11.16.11.26a.38.38 0 0 1-.64.27Zm1.26-2.87h.5l.04.36a1 1 0 0 1 .35-.3c.15-.07.3-.1.48-.1.22 0 .4.04.56.14.17.1.3.23.38.4.1-.17.23-.3.41-.4.18-.1.39-.14.6-.14.36 0 .64.1.83.33.2.22.31.53.31.95v1.71h-.55v-1.64c0-.28-.06-.49-.18-.64-.12-.14-.3-.2-.51-.2a.7.7 0 0 0-.55.22c-.13.15-.2.37-.2.66v1.6h-.54v-1.64c0-.28-.06-.5-.17-.64-.11-.14-.28-.2-.5-.2-.23 0-.4.07-.54.22-.13.15-.19.37-.19.66v1.6h-.55v-2.95h.02Zm5.31 2.75a.72.72 0 0 1-.27-.6c0-.25.1-.45.29-.62.19-.16.45-.26.8-.3l.84-.1v-.23a.42.42 0 0 0-.14-.34c-.1-.08-.26-.13-.46-.13a1 1 0 0 0-.43.08.55.55 0 0 0-.26.25l-.46-.24c.1-.2.23-.34.43-.43.2-.1.44-.14.73-.14.37 0 .65.1.85.27.2.19.29.43.29.73v2h-.5l-.05-.45a.91.91 0 0 1-.37.36 1.2 1.2 0 0 1-.56.11c-.31 0-.55-.07-.73-.22Zm1.44-.45c.15-.15.22-.36.22-.63v-.1l-.8.11a.8.8 0 0 0-.4.15.36.36 0 0 0-.15.3c0 .11.05.2.13.28.09.08.22.11.37.11.27 0 .48-.07.63-.22Zm2.63.67a.98.98 0 0 1-.7-.25c-.17-.16-.26-.42-.26-.76v-1.52h-.43v-.44h.43v-.82h.55v.82h.77v.45h-.77v1.45c0 .21.04.37.13.46.1.09.21.13.37.13l.26-.01v.45c-.1.04-.23.05-.37.05l.02-.01Zm2.16 0a.98.98 0 0 1-.7-.25c-.16-.16-.26-.42-.26-.76v-1.52h-.42v-.44h.42v-.82h.55v.82h.78v.45h-.78v1.45c0 .21.05.37.14.46.1.09.2.13.37.13l.26-.01v.45c-.1.04-.23.05-.37.05l.01-.01Zm1-3.61a.34.34 0 0 1-.1-.25c0-.1.03-.2.1-.27a.35.35 0 0 1 .26-.11c.1 0 .2.04.26.1.07.08.1.17.1.28a.35.35 0 0 1-.36.35.35.35 0 0 1-.26-.1Zm-.01.64h.55v2.95h-.55v-2.95Zm1.38-1.37h.55v4.31h-.56v-4.3Zm1.63 4.2c-.2-.1-.35-.27-.46-.49l.45-.23c.08.15.19.24.3.3.13.05.28.08.45.08.19 0 .33-.04.44-.1.1-.08.15-.17.15-.3a.27.27 0 0 0-.09-.2.64.64 0 0 0-.23-.13l-.36-.1-.11-.03a2.4 2.4 0 0 1-.46-.15.87.87 0 0 1-.33-.24.6.6 0 0 1-.14-.4c0-.17.05-.33.15-.47.1-.13.24-.23.4-.3a1.53 1.53 0 0 1 1.24.04 1 1 0 0 1 .42.42l-.45.23a.46.46 0 0 0-.24-.24.9.9 0 0 0-.39-.08c-.16 0-.3.03-.4.1a.3.3 0 0 0-.15.26c0 .1.04.16.12.21.08.05.19.1.35.14l.2.04c.22.06.4.12.55.18.14.05.25.14.36.26.1.11.15.26.15.45 0 .18-.05.33-.14.46a.97.97 0 0 1-.42.32c-.18.07-.4.11-.64.11-.3 0-.54-.04-.72-.15v.01Zm3.35-.01-1.17-2.82h.59l.88 2.24.89-2.24h.58l-1.76 4.13h-.57l.56-1.3v-.01Zm2.3-2.82h.5l.04.37c.1-.14.2-.23.35-.31.14-.07.3-.11.49-.11.34 0 .62.1.83.33.2.22.3.54.3.95v1.71h-.56v-1.64c0-.28-.05-.5-.17-.63-.12-.15-.3-.22-.52-.22a.67.67 0 0 0-.54.22c-.12.15-.18.37-.18.67v1.6h-.56v-2.95h.01Zm3.84 2.8c-.22-.14-.4-.32-.52-.55-.13-.24-.2-.5-.2-.8 0-.29.07-.54.19-.77.13-.23.29-.4.51-.53a1.48 1.48 0 0 1 1.45 0c.21.1.38.28.5.5.11.2.18.45.18.72 0 .1-.01.22-.03.31h-2.19c.01.17.06.3.14.43.08.13.18.23.3.29.13.06.27.1.43.1.17 0 .33-.03.49-.1a.78.78 0 0 0 .34-.28l.45.22c-.13.2-.32.36-.54.48-.23.1-.47.17-.73.17-.28 0-.54-.06-.76-.2h-.01Zm1.4-2a.73.73 0 0 0-.28-.27.84.84 0 0 0-.4-.1.8.8 0 0 0-.38.1.87.87 0 0 0-.3.27.89.89 0 0 0-.15.4h1.62a.77.77 0 0 0-.11-.4Zm2.46 2.17a.98.98 0 0 1-.69-.25c-.17-.16-.27-.42-.27-.76v-1.52h-.42v-.44h.42v-.82h.55v.82h.78v.45h-.78v1.45c0 .21.05.37.14.46.1.09.21.13.37.13l.26-.01v.45c-.1.04-.23.05-.37.05l.01-.01Zm.89-.1a.38.38 0 0 1-.12-.27.38.38 0 0 1 .38-.38c.1 0 .2.04.26.12.07.07.11.16.11.26a.38.38 0 0 1-.63.27Zm1.25-2.87h.5l.04.37c.1-.14.21-.23.36-.31.14-.07.3-.11.48-.11.35 0 .63.1.83.33.2.22.3.54.3.95v1.71h-.55v-1.64c0-.28-.06-.5-.17-.63-.12-.15-.3-.22-.52-.22a.67.67 0 0 0-.54.22c-.13.15-.19.37-.19.67v1.6h-.55v-2.95Zm3.85 2.8c-.22-.13-.4-.3-.52-.53-.13-.23-.19-.5-.19-.8 0-.3.06-.57.19-.8.13-.23.3-.41.53-.54.23-.13.47-.19.75-.19.27 0 .53.06.76.19.23.13.4.3.53.54.14.22.2.5.2.8 0 .3-.06.57-.2.8-.13.23-.3.41-.53.54-.23.12-.48.19-.76.19-.27 0-.53-.07-.75-.2h-.01Zm1.2-.42a.85.85 0 0 0 .34-.34c.09-.16.13-.34.13-.57 0-.23-.04-.41-.13-.57a.94.94 0 0 0-.33-.34.89.89 0 0 0-.89 0 .81.81 0 0 0-.32.34c-.08.16-.12.34-.12.57 0 .23.04.4.12.57.08.15.18.26.31.34a.9.9 0 0 0 .9 0Z"/><path fill="#DEDEDE" d="M502.37 51.64c-2.6.16-50.46 0-50.46 0s-2.73.15-4.41 1.86c-1.1 1.13-.93 3.75.88 5.17 2.06 1.62 13.93 10.29 13.93 10.29h23.57s2.72-.05 5.04-2.67a474.9 474.9 0 0 0 11.44-14.65h.01Z"/><path fill="#000" d="M90.3 86.8c-28.38 0-48.37 21.92-48.37 49.2 0 5.15.78 12.74 2.2 21.67l-.01.31h.07l.02.11.1-.12 9.46-.6a41.82 41.82 0 0 0 75.35-4.74l7.23-.46h1.22c.73-6.14 1.11-11.65 1.11-16.17 0-27.28-19.84-49.21-48.37-49.21Z"/><path fill="#3D3D3D" stroke="#3D3D3D" stroke-miterlimit="10" stroke-width="1.5" d="m353.55 12.57-1.47 32.69 3.19-.4 1.1-32.05-2.8-.24h-.02Z"/><path fill="#000" d="M274.47 152.18h.95l-4.44-64.49V74.17l12.54-64-.97.04-12.5 63.83-.01.1v13.6l4.42 64.45.01-.01ZM151.63 152.18v-.08c-5-36.26-5.9-57.77-6.05-65.33a115 115 0 0 1 1.25-17.63c.28-1.58 4.27-10.93 6.4-15.78l3.93-2.36c.22-.13.3-.43.16-.65a.47.47 0 0 0-.65-.15l-4.05 2.44a.46.46 0 0 0-.2.21c-.24.58-6.14 14.03-6.52 16.12a114.8 114.8 0 0 0-1.26 17.81c.15 7.58 1.05 29.11 6.05 65.4h.94ZM391.85 45.43c-.56-1.61-3-5.21-3.1-5.36a.48.48 0 0 0-.66-.13.48.48 0 0 0-.13.66c.03.03 2.5 3.64 3 5.14.52 1.51.83 4.13-.67 7.94-1.56 3.93-19.05 41.44-19.22 41.82a.48.48 0 0 0 .42.68c.19 0 .35-.1.43-.28.72-1.54 17.68-37.92 19.24-41.88 1.61-4.08 1.27-6.93.7-8.59Z"/><path fill="#000" d="M447.67 147.74c.4-4.38.61-8.28.61-11.53 0-27.37-19.77-49.53-48.74-49.53-28.98 0-48.74 22.16-48.74 49.53 0 4.36.93 15.96.93 15.96l8.7-.33a41.85 41.85 0 0 0 79.45-3.73l7.8-.36-.01-.01Z"/><path fill="#DEDEDE" d="M216.11 18.68c-6.94 2.14-19.71 6.92-35.72 14.42-1.13.53-14.8 7.21-20.88 10.46l-2.96 7.12c4.82.61 23.21 2.73 25 2.86 2.94.22 6.32.33 10.31.33 7.97 0 17.92-.42 30.52-.96l8.3-.35c7.23-.3 19.9-.95 34.2-1.73l10.5-40.4c-6.82.36-42.23 2.5-59.28 8.26h.01ZM384.5 17.42l-.13-.05-.1-.06s-3.43-1.6-12.2-2.87c-1.57-.23-3.3-.45-5.23-.65-3.48-.35-6.98-.67-10.47-.98l-1.1 32.05c6.54-.82 13.16-1.69 13.27-1.7A10972.87 10972.87 0 0 1 412.1 37c-6.7-5.75-20.42-17-27.6-19.6v.02Z"/><path fill="#3D3D3D" d="M189.47 43.04c-1.77-5.1-5.39-6.2-5.69-6.2-.23-.01-3.2.03-3.87.1-10.6 1.45-14.84 9.31-14.84 9.31s1.08 3.63 1.22 4.25c.13.59-.17.59-.27.63l-1.95.55-1.58 1.4-4.59 3.98c-.76.6.83 2.07 1.64 2.77.81.7 1.92.85 1.92.85s10.25-.17 11.22-.17c.96 0 1.38-.72 1.38-.72s2.6-3.42 3.17-4.05c.75-.81 1.35-.79 1.35-.79h6.31c1.05 0 1.69-.37 1.69-.37l2.4-1.62c.81-.54.84-1.17.84-1.17.41-4.84-.31-8.72-.35-8.76Z"/><path fill="#E2F1DF" d="M189.94 87.65h.03v1l-.01.01c-.1.04-.33.11-.73.11-.93 0-1.5-.56-1.5-1.48v-2.53h-.91v-.96h.28c.46 0 .73-.27.73-.74v-.78h1.1v1.5h1.03v.98h-1.02v2.34c0 .41.18.59.6.59.17 0 .36-.03.4-.04Zm3.77 0c-.04 0-.24.04-.4.04-.42 0-.6-.18-.6-.59v-2.34h1.02v-.98h-1.02v-1.5h-1.11v.78c0 .47-.27.74-.73.74h-.28v.96h.9v2.53c0 .92.58 1.48 1.5 1.48.4 0 .63-.07.73-.1l.02-.02v-1h-.03Zm-7.51 1.02v.03h-1.13l-.01-.02a2.4 2.4 0 0 1-.05-.55c-.18.26-.63.72-1.49.72-.5 0-.92-.16-1.23-.45-.3-.28-.46-.65-.46-1.05 0-.8.57-1.36 1.5-1.5l1.26-.19c.31-.04.35-.2.35-.33 0-.45-.36-.71-.9-.71-.55 0-.92.32-.98.83l-1.12-.25c.1-.77.78-1.59 2.08-1.59 1.9 0 2.11 1.3 2.11 1.85v2.43c0 .48.06.77.06.78Zm-1.26-2.21-1.25.18c-.24.04-.64.18-.64.64 0 .3.22.6.7.6.54 0 1.19-.2 1.19-1.23v-.2Zm9.88 2.25h1.22v-4.94h-1.22v4.94Zm-31.17-5.97c1.03 0 2.16.73 2.3 2.12 1.03-.5 2.18-.71 3.32-.61a5.68 5.68 0 0 0-11.15-.49c1.15 0 2.27.3 3.25.87a2.32 2.32 0 0 1 2.28-1.89ZM158 84.52a5.7 5.7 0 0 0 4.38 6.07v-.03c0-1.05.26-2.08.76-3a5.6 5.6 0 0 0-5.14-3.04Zm18.78 2.42-2.3-5.38-.01-.01h-1.66v7.16h1.23V83.6l2.16 5.1h1.11l2.19-5.12v5.14h1.25v-7.16h-1.7l-2.27 5.39Zm-13.63 3.77c3.3.31 6.2-2.34 6.18-5.65V85a5.59 5.59 0 0 0-6.18 5.7Zm56.5-4.53c0 .3-.04.4-.04.4h-3.6c.05.7.61 1.22 1.33 1.22.52 0 .9-.21 1.11-.62h1.16c-.06.21-.14.4-.24.59-.35.58-1 1.08-2.03 1.08-.69 0-1.32-.25-1.78-.7a2.64 2.64 0 0 1-.77-1.94c0-.73.27-1.4.74-1.88a2.38 2.38 0 0 1 1.68-.72c1.5 0 2.44.98 2.44 2.57Zm-1.24-.51c-.04-.76-.66-1.03-1.19-1.03-.52 0-1.1.36-1.17 1.03h2.36Zm-6.25-2.04c-.6 0-1.14.27-1.44.73v-.59h-1.19v4.94h1.22v-2.84c0-.69.4-1.13 1-1.13.86 0 .99.66.99 1.06v2.91h1.22V85.6c0-1.22-.7-1.97-1.8-1.97Zm-5.78 3.19-1.4-3.04v-.01h-1.38l2.12 4.32-1.17 2.52h1.31l3.13-6.84h-1.3l-1.3 3.05Zm16.8.83c-.05 0-.24.04-.4.04-.43 0-.6-.18-.6-.59v-2.34h1.01v-.98h-1.02v-1.5h-1.1v.78c0 .47-.28.74-.74.74h-.28v.96h.91v2.53c0 .92.58 1.48 1.5 1.48.42 0 .65-.08.73-.1l.01-.02v-1h-.03Zm-27.69-6.35a.79.79 0 0 0-.79.78c0 .44.34.78.8.78.44 0 .79-.34.79-.78a.8.8 0 0 0-.8-.78Zm1.93 7.41h1.22V81.4h-1.22v7.32Zm4.63-2.96Zm0 0-.75-.15c-.3-.06-.48-.24-.48-.49 0-.3.3-.53.69-.53.74 0 .86.59.88.7v.03l1.04-.29V85a1.61 1.61 0 0 0-.47-.88c-.35-.34-.84-.5-1.46-.5-1 0-1.83.71-1.83 1.6 0 .72.5 1.26 1.34 1.44l.73.16c.37.08.56.26.56.52s-.22.54-.72.54c-.66 0-.94-.44-.97-.81v-.03l-1.07.3v.01c.03.34.23.7.51.96.38.35.91.54 1.54.54 1.24 0 1.89-.8 1.89-1.59s-.52-1.31-1.44-1.5Z"/></svg>