<svg xmlns="http://www.w3.org/2000/svg" width="510" height="179" fill="none" viewBox="0 0 510 179"><path fill="#3D3D3D" d="M.94 120.01a8.7 8.7 0 0 0 1.8-2.15L.77 92.14v-.01C.72 91.47.5 82 1.08 80.08l4.35-9.26s0-.74-1.03-1.92-1.92-6.05-1.92-6.05-.94-9.1 1.86-12.93 8.77-7.96 8.77-7.96l3.54-2.88v.04L39.7 20.4l4.32-3.51 6.25-5.08c9.58-.96 29.56-2.98 58.08-5.96 0 0 46.34-5.87 105.68-5.84 0 0 56.5-.42 91.1 11.67 0 0 30.28 8.82 85.07 39.45l10.59.94c4.57.68 36.46 2.07 67.31 11.28 24.5 6.99 30.44 12.64 30.44 12.64s2.03 1.32 3.7 3.71c0-.12 2.13 2.65 2.59 6.64.49 4-.94 7.2-.96 7.12-.1.15-.2.29-.33.4-.33.37-.88 1.63.15 3.25s5.13 9.58 5.13 9.58.46 1.32.46 2.8c0 .98-.83 33.11-.83 33.11-.07 1.44-.8 6.59-7.22 7.92-11.15 2.27-36.14 7.57-36.14 7.57l-6.24-8.36-80.15-1.39-5.76 3.84H157.57l-6.88-6.47-82.56-4.45-6.5 6.5s-45.69-1.4-61.63-14.9c0-2.24.14-12.12.94-12.85v.01Z"/><path fill="#3D3D3D" d="m232.72 10.36 1.16.05 10.5 40.4-22.56-1.25-2.93-39.5c4.72.04 9.36.13 13.83.3Z"/><path fill="#DEDEDE" d="M213.62 10.03c1.76 0 3.52 0 5.26.02l2.94 39.5a5217.9 5217.9 0 0 1-56.39-3.36c-1.69-.15-4.78-.51-8.22-.94l-1.48-32.69a700.29 700.29 0 0 1 57.9-2.54h-.01ZM452.37 73.29c.84-.54 3.2-1.67 3.84-1.77.64-.1 2.8-.3 4.48-.1 1.68.2 22.6 2.32 34.62 7.73 0 0 .74 3.14 1.35 7.1 0 0-6.15 4.69-7.38 5.48-1.23.79-3.13.64-3.13.64s-5.95-.84-8.56-1.38c-2.6-.55-4.6-1.55-4.6-1.55-2.37-1.34-20.56-14.47-20.56-14.47s-.88-1.14-.05-1.67v-.01ZM47 17.31c.45.96.31 2.68-1.5 5.83-3.82 6.59-15.59 15.94-15.59 15.94s-1.37 1.23-3.3 1.28c-1.44.04-7.23.18-11-.43l28.41-23.05s1.11.15 2.97.43ZM375.57 47.76s-2.84.14-6.37-1.93c-26.03-15.11-51.62-26.26-63.5-30.17 0 0-2.27-.78-.62-1.28l4.31-1.31c1.33.45 3 1.05 4.94 1.77.67.25 1.38.51 2.12.8l.49.18 1.08.42.56.21 1.89.75.83.33 1.09.43 1.68.68 1.1.45a166.46 166.46 0 0 0 2.63 1.1l1.55.65 1.21.52 1.4.6 1.73.76 1.57.68 1.33.6 1.7.76 1.9.85 1.57.71 1.46.68 2.52 1.17 1.47.7 1.67.8 1.57.74 2.7 1.3 1.7.84a338.45 338.45 0 0 1 6.32 3.14c.62.3 1.24.62 1.86.94l1.88.95 2.87 1.47 2 1.04 2 1.05 2.19 1.15 2.92 1.55 2.14 1.14 2.03 1.1 3.5 1.9-9-.23v.01ZM6.9 51.64c2.62.16 50.47 0 50.47 0s2.73.15 4.41 1.86c1.1 1.13.93 3.75-.88 5.17a1249.02 1249.02 0 0 1-13.93 10.29H23.4s-2.72-.05-5.04-2.67A475.23 475.23 0 0 1 6.92 51.64H6.9Z"/><path fill="#000" d="M418.98 86.8c28.38 0 48.37 21.92 48.37 49.2 0 5.15-.78 12.74-2.2 21.67l.02.31h-.08l-.02.11-.1-.12-9.46-.6a41.82 41.82 0 0 1-75.35-4.74l-7.23-.46h-1.22A140.89 140.89 0 0 1 370.6 136c0-27.28 19.84-49.21 48.37-49.21Z"/><path fill="#3D3D3D" stroke="#3D3D3D" stroke-miterlimit="10" stroke-width="1.5" d="m155.73 12.57 1.47 32.69-3.19-.4-1.1-32.05 2.8-.24h.02Z"/><path fill="#000" d="M234.81 152.18h-.95l4.44-64.49V74.17l-12.54-64 .97.04 12.5 63.83.01.1v13.6l-4.42 64.45-.01-.01ZM357.65 152.18v-.08c5-36.26 5.9-57.77 6.05-65.33a115 115 0 0 0-1.25-17.63c-.28-1.58-4.27-10.93-6.4-15.78L352.12 51a.46.46 0 0 1-.16-.65c.14-.22.43-.3.65-.15l4.05 2.44c.1.05.15.12.2.21.25.58 6.14 14.03 6.52 16.12.37 2.1 1.41 10.54 1.26 17.81-.15 7.58-1.04 29.11-6.05 65.4h-.94ZM117.43 45.43c.56-1.61 3-5.21 3.1-5.36a.48.48 0 0 1 .66-.13c.21.15.27.44.13.66-.03.03-2.5 3.64-3 5.14-.52 1.51-.83 4.13.67 7.94 1.56 3.93 19.05 41.44 19.22 41.82a.48.48 0 0 1-.42.68.46.46 0 0 1-.43-.28c-.72-1.54-17.68-37.92-19.24-41.88-1.62-4.08-1.27-6.93-.7-8.59Z"/><path fill="#000" d="M61.61 147.74c-.4-4.38-.61-8.28-.61-11.53 0-27.37 19.77-49.53 48.75-49.53 28.97 0 48.73 22.16 48.73 49.53 0 4.36-.93 15.96-.93 15.96l-8.7-.33a41.85 41.85 0 0 1-79.45-3.73l-7.8-.36.01-.01Z"/><path fill="#DEDEDE" d="M293.17 18.68c6.94 2.14 19.71 6.92 35.72 14.42 1.13.53 14.8 7.21 20.88 10.46l2.96 7.12c-4.82.61-23.21 2.73-25 2.86-2.94.22-6.32.33-10.31.33-7.97 0-17.92-.42-30.52-.96l-8.3-.35c-7.23-.3-19.9-.95-34.2-1.73l-10.5-40.4c6.82.36 42.23 2.5 59.28 8.26h-.01ZM124.77 17.42l.14-.05.1-.06s3.43-1.6 12.2-2.87c1.57-.23 3.3-.45 5.23-.65 3.48-.35 6.98-.67 10.47-.98l1.1 32.05c-6.54-.82-13.16-1.69-13.26-1.7A10972.87 10972.87 0 0 0 97.17 37c6.7-5.75 20.42-17 27.6-19.6v.02Z"/><path fill="#3D3D3D" d="M319.81 43.04c1.77-5.1 5.39-6.2 5.69-6.2.23-.01 3.2.03 3.87.1 10.6 1.45 14.84 9.31 14.84 9.31s-1.08 3.63-1.22 4.25c-.13.59.17.59.27.63l1.94.55 1.59 1.4 4.59 3.98c.76.6-.83 2.07-1.64 2.77-.81.7-1.92.85-1.92.85s-10.25-.17-11.22-.17c-.96 0-1.38-.72-1.38-.72s-2.6-3.42-3.17-4.05c-.75-.81-1.35-.79-1.35-.79h-6.31a3.55 3.55 0 0 1-1.69-.37l-2.4-1.62c-.81-.54-.84-1.17-.84-1.17-.41-4.84.31-8.72.35-8.76Z"/><path fill="#E2F1DF" d="M319.4 87.01h.03v.97l-.01.01c-.1.04-.3.1-.67.1-.85 0-1.38-.54-1.38-1.42V84.2h-.83v-.93h.25c.43 0 .67-.26.67-.71v-.76h1.03v1.45h.93v.95h-.94v2.27c0 .4.17.57.56.57.15 0 .33-.03.36-.04Zm3.47 0c-.04 0-.21.04-.37.04-.38 0-.55-.17-.55-.57v-2.27h.94v-.95h-.94V81.8h-1.02v.76c0 .45-.25.71-.67.71H320v.93h.84v2.46c0 .88.53 1.43 1.38 1.43.37 0 .57-.07.66-.11h.02V87h-.03Zm-6.9.99v.03h-1.05V88a2.4 2.4 0 0 1-.05-.53c-.17.25-.58.7-1.37.7-.45 0-.85-.16-1.13-.45a1.42 1.42 0 0 1-.42-1c0-.79.52-1.33 1.38-1.46l1.16-.19c.28-.04.31-.2.31-.31 0-.44-.33-.7-.83-.7-.5 0-.84.31-.9.81l-1.02-.24c.09-.75.72-1.54 1.91-1.54 1.76 0 1.94 1.26 1.94 1.8v2.35c0 .45.06.74.06.75Zm-1.17-2.15-1.15.19c-.22.03-.58.16-.58.61 0 .29.2.6.63.6.5 0 1.1-.22 1.1-1.21v-.19Zm9.1 2.2H325v-4.8h-1.12v4.8Zm-28.68-5.8c.95 0 1.99.71 2.13 2.05.94-.48 2-.68 3.04-.59a5.32 5.32 0 0 0-5.17-4.71 5.29 5.29 0 0 0-5.08 4.24c1.05 0 2.09.29 2.99.85a2.16 2.16 0 0 1 2.1-1.83Zm-5.2 1.73a5.49 5.49 0 0 0 4.04 5.88v-.03c0-1.02.24-2.01.7-2.9a5.12 5.12 0 0 0-4.73-2.95Zm17.28 2.34-2.12-5.2v-.02h-1.54v6.94h1.14v-4.96l1.99 4.93h1.02l2-4.95v4.98h1.16V81.1h-1.55l-2.1 5.22Zm-12.54 3.66c3.03.3 5.7-2.27 5.69-5.48v-.05c-3.07-.37-5.8 2.28-5.69 5.53Zm51.97-4.4c0 .3-.03.39-.03.39h-3.3c.03.68.55 1.18 1.2 1.18.49 0 .83-.2 1.03-.6v.01h1.06a2.06 2.06 0 0 1-2.1 1.61c-.61 0-1.2-.24-1.62-.67a2.62 2.62 0 0 1-.7-1.89c0-.7.24-1.35.68-1.82.4-.44.97-.69 1.54-.69 1.38 0 2.24.95 2.24 2.48Zm-1.14-.49c-.03-.74-.6-1-1.09-1-.48 0-1.02.35-1.08 1h2.17Zm-5.75-1.97c-.56 0-1.04.26-1.32.7v-.56h-1.1v4.78h1.13v-2.76c0-.66.36-1.09.92-1.09.79 0 .9.64.9 1.03v2.82h1.13v-3.02c0-1.17-.64-1.9-1.66-1.9Zm-5.31 3.09-1.28-2.94-.01-.02h-1.27l1.95 4.19-1.07 2.44h1.2l2.88-6.63h-1.2l-1.2 2.96Zm15.44.8c-.04 0-.21.04-.36.04-.4 0-.56-.17-.56-.57v-2.27h.94v-.95h-.94V81.8h-1.02v.76c0 .45-.24.71-.67.71h-.26v.93h.84v2.46c0 .88.53 1.43 1.38 1.43.38 0 .6-.08.67-.11h.01V87h-.03Zm-25.46-6.15c-.4 0-.72.34-.72.76a.73.73 0 1 0 1.45 0 .75.75 0 0 0-.73-.76Zm1.78 7.18h1.11v-7.09h-1.11v7.1Zm4.25-2.87Zm0 0-.69-.14c-.27-.06-.44-.24-.44-.48 0-.29.28-.52.63-.52.69 0 .8.58.82.7v.02l.96-.29v-.02a1.58 1.58 0 0 0-.44-.85 1.8 1.8 0 0 0-1.34-.49c-.93 0-1.68.7-1.68 1.55 0 .7.46 1.23 1.23 1.4l.67.16c.34.07.51.24.51.5s-.2.52-.65.52c-.62 0-.87-.42-.9-.78v-.03l-.99.28v.02c.04.33.21.68.47.93.35.34.84.52 1.43.52 1.13 0 1.73-.77 1.73-1.54 0-.76-.48-1.27-1.32-1.46ZM181.68 87.44l-.85-2.14h-.55l1.12 2.7-.54 1.25h.54l1.7-3.95h-.57l-.85 2.14Zm15.9-2.18c-.27 0-.51.06-.73.18-.2.12-.38.29-.5.5-.12.23-.18.48-.18.77 0 .3.06.55.18.77.12.22.28.38.5.5.2.12.45.18.72.18.27 0 .51-.06.72-.17.22-.13.4-.3.52-.51.13-.22.19-.48.19-.77 0-.29-.06-.54-.19-.76-.12-.22-.3-.4-.5-.51a1.48 1.48 0 0 0-.74-.18Zm-9.58 0a1.32 1.32 0 0 0-1.18.7c-.11.21-.17.46-.17.73 0 .28.06.54.17.77a1.33 1.33 0 0 0 1.22.7c.25 0 .49-.05.7-.16.22-.11.4-.26.53-.46l-.43-.2a.8.8 0 0 1-.34.26c-.14.06-.3.1-.46.1a.85.85 0 0 1-.4-.1.77.77 0 0 1-.42-.7h2.1l.01-.29c0-.26-.05-.5-.17-.7-.1-.2-.27-.36-.47-.48-.2-.11-.43-.17-.69-.17Zm-9.1 0c-.22 0-.4.03-.57.1a.92.92 0 0 0-.4.3.72.72 0 0 0-.13.44c0 .16.04.3.13.4.09.1.2.18.32.23a2.89 2.89 0 0 0 .55.17l.34.1c.09.02.16.06.21.11.06.05.1.12.1.2 0 .12-.05.2-.16.28-.1.07-.24.1-.41.1-.17 0-.31-.02-.43-.08a.7.7 0 0 1-.3-.28l-.43.22c.1.21.25.37.44.46.18.1.41.15.7.15.23 0 .43-.03.6-.1a.91.91 0 0 0 .4-.31c.1-.13.14-.28.14-.44a.63.63 0 0 0-.14-.44.84.84 0 0 0-.35-.25 4.19 4.19 0 0 0-.52-.16l-.2-.05a1.29 1.29 0 0 1-.33-.12.24.24 0 0 1-.1-.21c0-.11.04-.2.14-.26a.7.7 0 0 1 .39-.1c.13 0 .25.03.36.08.12.05.2.13.24.23l.43-.22a.92.92 0 0 0-.4-.4c-.19-.1-.4-.15-.63-.15Zm13.26 2.17a.36.36 0 0 0-.36.36c0 .1.04.2.1.26.08.07.16.1.26.1s.18-.03.25-.1.1-.15.11-.26c0-.1-.04-.18-.1-.25a.33.33 0 0 0-.26-.1Zm-30 0a.36.36 0 0 0-.36.36c0 .1.03.2.1.26.07.07.16.1.26.1s.18-.03.25-.1.1-.15.1-.26c0-.1-.03-.18-.1-.25a.33.33 0 0 0-.25-.1Zm7.1-2.17c-.27 0-.5.04-.7.13a.85.85 0 0 0-.41.41l.43.23c.06-.1.15-.19.26-.24.1-.05.24-.07.4-.07.2 0 .34.04.44.12.1.08.14.2.14.33v.22l-.8.1c-.33.03-.6.13-.77.28a.75.75 0 0 0-.27.6c0 .24.09.43.26.57.17.14.4.2.7.2.22 0 .4-.03.54-.1a.85.85 0 0 0 .34-.34l.05.42h.48v-1.9a.9.9 0 0 0-.28-.7c-.19-.17-.45-.26-.8-.26Zm20.87.04h-.4v.42h.4v1.45c0 .33.08.57.25.73.17.16.4.24.66.24.14 0 .26-.02.35-.05v-.43l-.24.01a.5.5 0 0 1-.36-.12c-.09-.09-.13-.23-.13-.44v-1.39h.73v-.42h-.73v-.8h-.53v.8Zm-16.79 0h-.4v.42h.4v1.45c0 .33.09.57.25.73.17.16.4.24.66.24.14 0 .26-.02.35-.05v-.43a1.6 1.6 0 0 1-.24.01.5.5 0 0 1-.36-.12c-.09-.09-.13-.23-.13-.44v-1.39h.73v-.42h-.73v-.8h-.53v.8Zm-2.1 0h-.4v.42h.4v1.45c0 .33.09.57.26.73.17.16.39.24.66.24.13 0 .25-.02.35-.05v-.43l-.25.01a.5.5 0 0 1-.35-.12c-.1-.09-.13-.23-.13-.44v-1.39h.73v-.42h-.73v-.8h-.54v.8Zm23.22-.04a.94.94 0 0 0-.8.4l-.04-.36h-.48v2.82h.52v-1.54c0-.27.06-.48.18-.63.12-.14.3-.22.52-.22.21 0 .38.07.49.21.11.14.17.34.17.61v1.57h.52v-1.64c0-.4-.1-.7-.29-.9-.19-.22-.45-.32-.79-.32Zm-9.52 0a1 1 0 0 0-.46.1.92.92 0 0 0-.34.3l-.04-.36h-.48v2.82h.52v-1.54c0-.27.06-.48.18-.63.12-.14.3-.22.52-.22.22 0 .38.07.49.21.11.14.17.34.17.61v1.57h.52v-1.64c0-.4-.1-.7-.28-.9-.2-.22-.46-.32-.8-.32Zm-8.38 2.86h.53V84h-.53v4.12Zm-1.34 0h.52V85.3h-.52v2.82Zm-10.77-2.86a.94.94 0 0 0-.8.39l-.04-.35h-.48v2.82h.53V86.6c0-.28.06-.49.18-.63a.62.62 0 0 1 .5-.22c.22 0 .38.07.49.2.1.14.16.34.16.61v1.57h.52V86.6c0-.28.06-.49.19-.63.12-.15.3-.22.52-.22.21 0 .38.07.49.2.11.14.17.34.17.61v1.57h.52v-1.64c0-.4-.1-.7-.3-.9-.18-.22-.45-.32-.78-.32-.21 0-.4.04-.58.13a.88.88 0 0 0-.4.4.88.88 0 0 0-.36-.4 1.03 1.03 0 0 0-.53-.13Zm-3.84 2.3-.63-2.26h-.45l-.67 2.26-.6-2.26h-.54l.88 2.82h.51l.62-2.06.62 2.06h.53l.88-2.82h-.54l-.6 2.25Zm-4.36 0-.64-2.26h-.45l-.66 2.26-.6-2.26h-.54l.88 2.82h.51l.62-2.06.62 2.06h.53l.87-2.82h-.53l-.6 2.25Zm-3.75-2.26-.6 2.25-.65-2.25h-.45l-.66 2.26-.6-2.26H149l.88 2.82h.5l.63-2.06.62 2.06h.53l.87-2.82h-.53Zm17.32 1.6c0 .26-.07.46-.21.6-.14.15-.34.22-.6.22a.53.53 0 0 1-.35-.1.35.35 0 0 1-.13-.28c0-.12.05-.2.14-.28a.77.77 0 0 1 .4-.15l.75-.1v.09Zm27.75-1.17a.85.85 0 0 1 .75.44c.08.14.12.33.12.54 0 .21-.04.4-.12.54a.8.8 0 0 1-.32.33.87.87 0 0 1-.43.11.86.86 0 0 1-.43-.1.8.8 0 0 1-.3-.34 1.18 1.18 0 0 1-.11-.54c0-.21.03-.4.1-.54a.82.82 0 0 1 .73-.44Zm-9.57-.01a.76.76 0 0 1 .66.36c.06.11.1.24.1.38h-1.54a.95.95 0 0 1 .14-.39.8.8 0 0 1 .28-.26.7.7 0 0 1 .36-.1Zm-12.52-1.62c-.1 0-.18.03-.24.1a.35.35 0 0 0-.1.25c0 .1.03.18.1.24.06.07.15.1.24.1.1 0 .19-.03.25-.1.07-.06.1-.14.1-.24 0-.1-.03-.19-.1-.25a.34.34 0 0 0-.25-.1Z"/></svg>