<svg xmlns="http://www.w3.org/2000/svg" width="152" height="152" viewBox="0 0 152 152"><path fill="currentcolor" d="m144.4 15.36-4.4-.03c-18.2 0-33.66 13.07-36.67 30.37H48.68C45.53 26.68 27.13 13.57 7.6 15.36c-.27 20.75 16.74 38.37 38 37.92h60.8c21.27.45 38.27-17.17 38-37.92ZM16.15 23.2c12.1 1.69 22 10.6 24.72 22.2-12.09-1.67-21.99-10.59-24.72-22.2Zm94.99 22.2c2.72-11.6 12.62-20.51 24.72-22.2-2.74 11.62-12.64 20.53-24.72 22.2Zm-8.54 15.48h7.6v41.76A34.22 34.22 0 0 1 76 136.8a34.22 34.22 0 0 1-34.2-34.16V60.88h7.6v41.76A26.61 26.61 0 0 0 76 129.2a26.62 26.62 0 0 0 26.6-26.57V60.88ZM57 81.76a5.7 5.7 0 1 1 11.4 0 5.7 5.7 0 0 1-11.4 0Zm32.3 5.7a5.7 5.7 0 1 1 0-11.4 5.7 5.7 0 0 1 0 11.4Z"/></svg>