<svg id="pants" x="-119" y="305" xmlns="http://www.w3.org/2000/svg" width="271" height="615" fill="none" viewBox="0 0 271 615"><path fill="var(--color-shoes)" d="M15.25 584.98S8.15 604 7.34 608.21c-.81 3.65-2.58 4.95 10.47 5.07 0 0 77.47 1.22 82.75 0 3.49-.8 7.85-5.64 5.49-27.2l-90.81-1.1h.01ZM171.62 586.2s-1.25 18.27 1.44 22.25c2.71 3.98 4.32 6.55 28.11 5.24 0 0 67.09 1.21 69.22-.5 2.13-1.74-10.1-28.27-10.1-28.27l-88.68 1.27h.01Z"/><path fill="var(--color-under)" d="M7.65 6.15c-.53 35.93-5.3 223.28-5.82 243.51C1.02 269.91.48 442.14.48 461.24c0 19.1-.54 124.02 1.87 127.44 2.42 3.42 102.49 5.98 107.58 2.28 5.1-3.7 0-173.07.8-193.32.54-20.25 3.76-120.33.54-201.88-3.22-81.55 2.63-96.64 4.52-96.64 1.89 0 3.53-4 11.04 72.98 7.5 77 22.8 217 26.02 250.92 3.22 34.22 12.07 166.82 15.57 168.24 3.49 1.43 98.2-.28 101.4-1.42 3.23-1.14-5.1-111.79-6.15-124.05-1.07-12.27-22.54-284.29-23.61-298.84A69246.12 69246.12 0 0 1 229.33.43S116.1.71 106.46 1.57c-9.93.56-98.81 4.56-98.81 4.56h.02l-.02.02Z"/></svg>