<svg x="12" y="0" xmlns="http://www.w3.org/2000/svg" width="401" height="464" fill="none" viewBox="0 0 401 464"><path fill="var(--color-skin)" d="M126.81 388.27c-4.52 9.16-14.8 33.82-11.9 45.63s4.96 14.13 20.23 27.4c3.44 2.99 9.95 5.02 17.61-9.24 7.65-14.27 12.97-31.7 10.15-46.23-2.84-14.53-4.28-12.16-4.28-12.16l-31.79-5.4z"/><path fill="var(--color-over)" d="M51.12 10.35s33.17 18.94 51.6 43.57c23.1 33.23 47.55 79.36 53.32 164.38a13659.5 13659.5 0 0 0 13.62 181.6l-55.79-1.2c-.1-1.4-1.67-65.81-12.4-190.2-3.71-42.9-16.03-82.98-33.63-96.21z"/></svg>