<svg x="-425" y="0" xmlns="http://www.w3.org/2000/svg" width="401" height="460" fill="none" viewBox="0 0 401 460"><path fill="var(--color-skin)" d="M329.75 304.47c9.43 3.14 33.5 13 39.5 23.4 6 10.38 6.12 13.52 4.4 33.95-.4 4.61-3.6 10.77-18.74 6.31-15.12-4.46-30.77-12.83-38.67-25.09-7.9-12.26-5.27-11.65-5.27-11.65l18.77-26.92h.01Z"/><path fill="var(--color-over)" d="M350.63 9.68c-10.67 5.58-56.28 29.85-92.15 80.2-13.09 18.37-40.87 63-40.87 90.43.94 70.34 80.5 148.73 89.84 160.18l41.21-35.22c-2.62-1.58-22.6-24.5-37.3-43.84-20.49-38.19-33.66-63.95-33.66-81.12 7.55-28.71 20.25-48.04 39.94-65.32L350.63 9.68Z"/></svg>