<svg x="-425" y="0" xmlns="http://www.w3.org/2000/svg" width="401" height="460" fill="none" viewBox="0 0 401 460"><path fill="var(--color-skin)" d="m94.33 103.19-18.4 33.88s1.92 2.49-14.62.38c-16.56-2.11-32.96-14.5-45.08-28.33-12.1-13.83-8.68-19.33-3.47-20.17 8.35-1.36 18.35-.14 26.96 2.44 19.73 5.92 8.33-5.15 4.48-9.05-3.67-3.74-7.31-10.3 6.39-9.24 13.69 1.05 35.8 21.65 43.72 30.09h.02Z"/><path fill="var(--color-over)" d="M336.62 104.18c-26.44 14.36-29.3 24.18-74.1 45.64-24.54 11.76-39.78 20.1-67.82 19.8-23.13-.22-74-4.88-126.95-19.77C71.5 140.9 91.62 94.8 91.62 94.8c40.72 9.47 96.1 11.27 108.88 10.78 7.44-.28 24.85-7.86 33.13-12.47 33.6-21.95 36.62-26.96 62.57-47.44 16.24-12.8 38.68-27.4 54.69-36l-14.27 94.5Z"/></svg>