<svg x="-425" y="0" height="466" viewBox="0 0 401 466" width="401" xmlns="http://www.w3.org/2000/svg"><path d="m103.7 46.34c-4.13-10.67-16.74-37.7-28.96-43.6-12.22-5.9-11.32 1.46-9.34 6.26 2.07 5 8.41 19.34-7.54 6.75-6.97-5.5-15.7-10.23-23.92-11.98-5.1-1.1-10.33 2.75-4.39 19.92 5.95 17.16 16.4 34.53 30.84 42.46 14.44 7.91 13.61 4.91 13.61 4.91l29.7-24.7z" fill="var(--color-skin)"/><path d="m297.84 140.74a819.51 819.51 0 0 0 38.21-21.53l14.58-103.53c-9.68 5.03-20.21 12.02-25.4 15.72-34.97 24.91-56.5 51.83-114.09 73.19-16.1 5.97-48.93-18.8-74-39.86-12.64-10.6-28-24.56-30.57-28.36l-41.12 37.94c10.16 10.74 65.26 80.19 134.12 95.16 26.81 5.82 78.4-18.1 98.3-28.72z" fill="var(--color-over)"/></svg>