<svg x="12" y="0" xmlns="http://www.w3.org/2000/svg" width="401" height="461" fill="none" viewBox="0 0 401 461"><path fill="var(--color-skin)" d="m267.8 232.64-1.12 38.62s-2.87 1.19 12.27 7.68c15.15 6.49 35.26 4 52.44-1.91 17.18-5.9 16.99-12.4 12.97-15.74-6.45-5.38-15.56-9.34-24.2-11.44-19.74-4.8-4.53-8.65.68-10.1 4.98-1.4 11.33-5.24-.85-11.21-12.2-5.98-41.24.77-52.18 4.1Z"/><path fill="var(--color-over)" d="M155.3 147.63c-22.5-36.61-24.33-40.75-44.77-71.06-11.56-17.14-19.25-31-31.4-42.66-11.7-11.23-19.38-18.63-28.97-23.66l6.57 100.18c17.27 24.6 6.83 12.48 42.65 67.49 14.69 22.56 22.9 40.45 43.55 51.87 22.08 12.2 59.14 38.79 126.82 54.43 1.09-9.66 5.6-59.46 5.6-59.46-79.75-23.35-110.4-61.41-120.05-77.13Z"/></svg>