<svg x="12" y="0" xmlns="http://www.w3.org/2000/svg" width="401" height="461" fill="none" viewBox="0 0 401 461"><path fill="var(--color-skin)" d="m307.98 103.55 18.4 33.88s-1.92 2.5 14.62.38c16.56-2.1 32.95-14.5 45.07-28.33 12.11-13.83 8.7-19.33 3.48-20.17-8.36-1.36-18.35-.14-26.97 2.44-19.73 5.92-8.32-5.15-4.48-9.05 3.67-3.74 7.32-10.29-6.38-9.24-13.69 1.05-35.8 21.65-43.72 30.1h-.02Z"/><path fill="var(--color-over)" d="M64.66 104.74c26.43 14.36 29.3 24.18 74.1 45.64 24.54 11.76 39.78 20.1 67.82 19.81 23.13-.23 74-4.89 126.94-19.78a9813.98 9813.98 0 0 0-23.87-55.04c-40.72 9.47-96.09 11.27-108.88 10.78-7.43-.28-24.85-7.86-33.12-12.47-33.6-21.95-36.62-26.96-62.58-47.44-16.23-12.79-38.67-27.39-54.68-36l14.27 94.5Z"/></svg>