<svg x="12" y="0" xmlns="http://www.w3.org/2000/svg" width="401" height="466" fill="none" viewBox="0 0 401 466"><path fill="var(--color-skin)" d="M297.58 45.91c4.12-10.67 16.73-37.7 28.95-43.6 12.22-5.9 11.32 1.46 9.35 6.25-2.07 5-8.4 19.34 7.54 6.75 6.97-5.5 15.71-10.23 23.92-11.98 5.11-1.1 10.33 2.75 4.4 19.92-5.96 17.16-16.4 34.53-30.85 42.46-14.44 7.92-13.6 4.92-13.6 4.92l-29.7-24.7v-.02Z"/><path fill="var(--color-over)" d="M103.44 140.3a819.26 819.26 0 0 1-38.22-21.53L50.65 15.25c9.68 5.03 20.21 12.02 25.4 15.72 34.96 24.9 56.5 51.83 114.08 73.18 16.12 5.97 48.94-18.79 74.02-39.85 12.63-10.6 28-24.56 30.56-28.36l41.12 37.94c-10.16 10.74-65.26 80.18-134.12 95.15-26.81 5.83-78.4-18.09-98.3-28.72h.03Z"/></svg>