<svg x="-425" y="0" xmlns="http://www.w3.org/2000/svg" width="401" height="460" fill="none" viewBox="0 0 401 460"><path fill="var(--color-skin)" d="m132.47 232.07 1.13 38.62s2.87 1.2-12.27 7.68c-15.15 6.5-35.26 4-52.44-1.9s-17-12.4-12.97-15.75c6.45-5.38 15.56-9.34 24.19-11.44 19.75-4.79 4.54-8.65-.67-10.1-4.98-1.4-11.33-5.24.85-11.2 12.19-5.99 41.24.76 52.18 4.1Z"/><path fill="var(--color-over)" d="M244.98 147.06c22.49-36.6 24.33-40.75 44.77-71.06 11.56-17.14 19.25-30.99 31.4-42.66 11.7-11.23 19.38-18.62 28.97-23.66l-6.57 100.18c-17.27 24.61-6.83 12.48-42.65 67.5-14.7 22.55-22.9 40.44-43.55 51.86-22.08 12.21-59.14 38.8-126.82 54.43-1.1-9.66-5.61-59.46-5.61-59.46 79.76-23.35 110.4-61.4 120.06-77.13Z"/></svg>