<svg x="-425" y="0" xmlns="http://www.w3.org/2000/svg" width="401" height="461" fill="none" viewBox="0 0 401 461"><path fill="var(--color-skin)" d="M284.33 385.8c4.52 9.17 14.8 33.83 11.9 45.64-2.9 11.8-4.96 14.13-20.23 27.4-3.44 2.99-9.95 5.02-17.6-9.24-7.66-14.27-12.98-31.7-10.16-46.23 2.84-14.53 4.28-12.16 4.28-12.16l31.8-5.4h.01Z"/><path fill="var(--color-over)" d="M350.39 9.65s-37.95 23.92-51.61 43.58c-23.1 33.23-42.88 77.75-48.65 162.77-6.42 94.58-8.65 181.4-8.77 182.8l55.79-1.2c.1-1.4.2-70.33 10.95-194.72 3-35 14.66-55.9 25.57-91.28L350.39 9.65Z"/></svg>