<svg x="12" y="0" xmlns="http://www.w3.org/2000/svg" width="401" height="461" fill="none" viewBox="0 0 401 461"><path fill="var(--color-skin)" d="M71.53 305.04c-9.43 3.14-33.5 12.99-39.5 23.39-6 10.39-6.12 13.53-4.4 33.96.4 4.6 3.6 10.77 18.74 6.3 15.12-4.45 30.77-12.82 38.67-25.08 7.9-12.26 5.27-11.65 5.27-11.65l-18.77-26.92h-.01Z"/><path fill="var(--color-over)" d="M50.65 10.25c10.67 5.58 56.28 29.85 92.15 80.2 13.09 18.37 40.87 62.99 40.87 90.43-.94 70.34-80.5 148.73-89.84 160.18l-41.21-35.22c2.62-1.58 22.6-24.51 37.3-43.84 20.49-38.2 33.66-63.95 33.66-81.12-7.55-28.72-20.26-48.04-39.94-65.33L50.65 10.25Z"/></svg>