<svg id="hode" x="-63" y="-130" xmlns="http://www.w3.org/2000/svg" width="126" height="134" fill="none" viewBox="0 0 126 134"><path fill="var(--color-skin)" d="M124.35 62.34c-.35-1.93-2.06-2.97-4.05-3.82.82-15.57-2.42-25.47-9.35-35.46C105.13 14.67 97 6.32 85.63 2.25 75.53-1.36 50.82-.41 40.9 3.59 17.11 12.62 7.77 34.7 6.54 59.1c-2.03.51-3.83 1.27-4.41 3.1-1.31 3.11-1.97 6.07-1.12 9.5.8 2.77 2.56 4.5 6.1 6.87.96 11.34 4.54 22.2 10.41 31.2l1.22 1.85C27.97 125.76 40.32 134 55.09 134h11.64c14.7 0 28.62-8.16 37.84-22.2l3.68-5.6c5.51-8.38 9.06-18.42 10.3-29.05 3.02-1.52 4.69-2.91 5.7-5.23 1.28-3.26 1-6.29.1-9.58Z"/></svg>