<svg xmlns="http://www.w3.org/2000/svg">
  <symbol id="pants" x="-119" y="305" width="271" height="615" viewBox="0 0 271 615">
    <path fill="var(--color-shoes)" d="M15.25 584.98S8.15 604 7.34 608.21c-.81 3.65-2.58 4.95 10.47 5.07 0 0 77.47 1.22 82.75 0 3.49-.8 7.85-5.64 5.49-27.2l-90.81-1.1h.01ZM171.62 586.2s-1.25 18.27 1.44 22.25c2.71 3.98 4.32 6.55 28.11 5.24 0 0 67.09 1.21 69.22-.5 2.13-1.74-10.1-28.27-10.1-28.27l-88.68 1.27h.01Z"/>
    <path fill="var(--color-under)" d="M7.65 6.15c-.53 35.93-5.3 223.28-5.82 243.51C1.02 269.91.48 442.14.48 461.24c0 19.1-.54 124.02 1.87 127.44 2.42 3.42 102.49 5.98 107.58 2.28 5.1-3.7 0-173.07.8-193.32.54-20.25 3.76-120.33.54-201.88-3.22-81.55 2.63-96.64 4.52-96.64 1.89 0 3.53-4 11.04 72.98 7.5 77 22.8 217 26.02 250.92 3.22 34.22 12.07 166.82 15.57 168.24 3.49 1.43 98.2-.28 101.4-1.42 3.23-1.14-5.1-111.79-6.15-124.05-1.07-12.27-22.54-284.29-23.61-298.84A69246.12 69246.12 0 0 1 229.33.43S116.1.71 106.46 1.57c-9.93.56-98.81 4.56-98.81 4.56h.02l-.02.02Z"/>
  </symbol>
  <g id="overdel">
    <title>Overdel</title>
    <symbol id="overdel-genser" x="-113" y="0" width="226" height="318" viewBox="0 0 226 318">
      <title>Genser</title>
      <path fill="var(--color-over)" d="M222.43 242.6c.13 28.2 2.24 55.4 2.8 67.35 0 0-114.48 11.41-161.52 5.75 0 0-60.17-2.7-63.3-2.7 0 0 .75-49.5.7-77.66.4-42.97 1.27-79.48 2.4-110.25C4.67 94.33-1.85 32.16 37.87 11.66 62.73-1.18 72.5 1.88 107.06.17c21.5-.86 49.99 1.42 69.8 11.49 41.67 21.17 38.33 68.5 41.12 106.37 1.9 44.45 3.34 87.54 4.46 124.56h-.01Z"/>
    </symbol>
    <symbol id="overdel-forkle" x="-120" y="0" width="249" height="560" viewBox="0 0 249 560">
      <title>Forkle</title>
      <path fill="var(--color-over)" d="M228.57 242.6c.14 28.2 2.25 55.4 2.8 67.35 0 0-114.48 11.41-161.52 5.75 0 0-60.17-2.7-63.3-2.7 0 0 .75-49.5.7-77.66.41-42.97 1.27-79.48 2.41-110.25C10.8 94.33 4.3 32.16 44.01 11.66 68.88-1.18 78.64 1.88 113.21.17c21.5-.86 49.99 1.42 69.8 11.49 41.67 21.17 38.33 68.5 41.12 106.37 1.9 44.45 3.34 87.54 4.46 124.56h-.02Z"/>
      <path fill="var(--color-apron)" d="M7.55 208.8s21.67-3.57 28.5-5c6.83-1.41 7.97-193.46 7.97-193.46s9.86-4.8 15.35-6.7c1.43-.48 8.66 113.4 9.51 123.04 0 0 87.09-1.99 91.06-2.55 0 0 2.06-94.12 2.63-100.06l1.95-20.01s14.26 3.75 17.67 5.73c3.41 2 4.2 141.1 7.06 188.45 0 0-1.68.71 9.06 1.3 7.16.13 29.8 1.8 29.8 1.8L248.52 556 0 560l7.54-351.2Z"/>
    </symbol>
    <symbol id="overdel-gravid" x="-120" y="0" xmlns="http://www.w3.org/2000/svg" width="253" height="384" viewBox="0 0 253 384">
      <title>Gravid</title>
      <path fill="var(--color-over)" d="M228.57 242.6c.13 28.2 2.25 55.4 2.8 67.35 0 0-114.48 11.41-161.52 5.75 0 0-60.17-2.7-63.3-2.7 0 0 .75-49.5.7-77.66.41-42.97 1.27-79.48 2.41-110.25C10.8 94.33 4.3 32.16 44.01 11.66 68.88-1.18 78.64 1.88 113.21.17c21.5-.86 49.99 1.42 69.8 11.49 41.67 21.17 38.33 68.5 41.12 106.37 1.9 44.45 3.34 87.54 4.46 124.56h-.02Z"/>
      <path fill="var(--color-over)" d="M126.61 383.34c69.62 0 126.1-50.6 126.1-113.03s-56.43-113.03-126.1-113.03C56.94 157.28.51 207.88.51 270.3s56.43 113.03 126.1 113.03Z"/>
    </symbol>
    <symbol id="overdel-seletop" x="-113" y="0" width="227" height="345" viewBox="0 0 227 345">
      <title>Seletop</title>
      <path fill="var(--color-over)" d="M222.575 242.594C222.705 270.798 224.815 297.992 225.375 309.951C225.375 309.951 110.895 321.36 63.8547 315.695C63.8547 315.695 3.68469 313.008 0.554688 313.008C0.554688 313.008 1.30469 263.495 1.25469 235.341C1.66469 192.371 2.52469 155.856 3.66469 125.095C4.80469 94.3335 -1.70919 32.1583 38.0108 11.6476C62.8808 -1.1803 72.6447 1.88053 107.215 0.172139C128.713 -0.693683 157.198 1.58509 177.016 11.6561C218.683 32.8305 215.339 80.1673 218.125 118.031C220.035 162.479 221.465 205.569 222.585 242.594H222.575Z"/>
      <path fill="var(--color-under)" d="M1.5544 208.804C1.5544 208.804 23.2244 205.227 30.0544 203.808C36.8844 202.39 38.0244 10.3424 38.0244 10.3424C38.0244 10.3424 47.875 5.54643 53.365 3.63823C54.795 3.15868 62.0344 117.04 62.8844 126.681C62.8844 126.681 149.964 124.693 153.944 124.133C153.944 124.133 156.004 30.0117 156.574 24.0673C157.144 18.1129 158.52 4.05839 158.52 4.05839C158.52 4.05839 172.78 7.80525 176.19 9.79338C179.6 11.7815 180.394 150.898 183.244 198.243C183.244 198.243 181.574 198.953 192.304 199.542C199.464 199.672 222.114 201.331 222.114 201.331L226.762 344.507H0.0644259L1.5544 208.804Z"/>
    </symbol>
    <symbol id="overdel-skjorte" x="-113" y="0" width="226" height="318" viewBox="0 0 226 318">
      <title>Slips</title>
      <path fill="var(--color-over)" d="M222.57 242.6c.14 28.2 2.25 55.4 2.8 67.35 0 0-114.48 11.41-161.52 5.75 0 0-60.17-2.7-63.3-2.7 0 0 .75-49.5.7-77.66.41-42.97 1.27-79.48 2.41-110.25C4.8 94.33-1.7 32.16 38.01 11.66 62.88-1.18 72.64 1.88 107.21.17c21.5-.86 49.99 1.42 69.8 11.49 41.67 21.17 38.33 68.5 41.12 106.37 1.9 44.45 3.34 87.54 4.46 124.56h-.02Z"/>
      <path fill="var(--color-under)" d="M142.16 241.57c4.16-17.28 6.07-35.22 7.58-53.43 1.07-12.6-.14-24.81-2.74-36.48-2.96-17.9-7.2-38.74-11.2-56.7-3.9-17.59-6.53-32.93-11.03-45.8 3.07-5.65 5.67-11.48 8.76-17 5.12-8.73 9.54-17.44 14.86-27.3-12.82 1.15-24.03 2.14-35.3 3.33-10.99 1.05-21.24-2.83-32.44-3.03 2.56 5.6 17.88 27.94 28.55 42.17-3.9 12.46-6.9 24.15-11.31 46.4-5.76 23.06-9.83 43.92-11.82 67.1-2.5 29.17-1.12 57.18 5.96 83.67 5.63 24.19 11.7 36.11 27.17 50.02 9.7-13.57 18.29-33.67 22.96-52.95Z"/>
    </symbol>
  </g>
  <g id="hand-hoyre">
    <title>Høyre arm</title>
    <symbol id="hand-hoyre-ned" x="-425" y="1.5" width="401" height="461" viewBox="0 0 401 461">
      <title>Ned</title>
      <path fill="var(--color-skin)" d="M284.33 385.8c4.52 9.17 14.8 33.83 11.9 45.64-2.9 11.8-4.96 14.13-20.23 27.4-3.44 2.99-9.95 5.02-17.6-9.24-7.66-14.27-12.98-31.7-10.16-46.23 2.84-14.53 4.28-12.16 4.28-12.16l31.8-5.4h.01Z"/>
      <path fill="var(--color-over)" d="M350.39 9.65s-37.95 23.92-51.61 43.58c-23.1 33.23-42.88 77.75-48.65 162.77-6.42 94.58-8.65 181.4-8.77 182.8l55.79-1.2c.1-1.4.2-70.33 10.95-194.72 3-35 14.66-55.9 25.57-91.28L350.39 9.65Z"/>
    </symbol>
    <symbol id="hand-hoyre-inn" x="-425" y="1.5" width="401" height="460" viewBox="0 0 401 460">
      <title>Inn</title>
      <path fill="var(--color-skin)" d="M329.75 304.47c9.43 3.14 33.5 13 39.5 23.4 6 10.38 6.12 13.52 4.4 33.95-.4 4.61-3.6 10.77-18.74 6.31-15.12-4.46-30.77-12.83-38.67-25.09-7.9-12.26-5.27-11.65-5.27-11.65l18.77-26.92h.01Z"/>
      <path fill="var(--color-over)" d="M350.63 9.68c-10.67 5.58-56.28 29.85-92.15 80.2-13.09 18.37-40.87 63-40.87 90.43.94 70.34 80.5 148.73 89.84 160.18l41.21-35.22c-2.62-1.58-22.6-24.5-37.3-43.84-20.49-38.19-33.66-63.95-33.66-81.12 7.55-28.71 20.25-48.04 39.94-65.32L350.63 9.68Z"/>
    </symbol>
    <symbol id="hand-hoyre-opp" x="-425" y="1.5" height="466" viewBox="0 0 401 466" width="401">
      <title>Opp</title>
      <path fill="var(--color-skin)" d="m103.7 46.34c-4.13-10.67-16.74-37.7-28.96-43.6-12.22-5.9-11.32 1.46-9.34 6.26 2.07 5 8.41 19.34-7.54 6.75-6.97-5.5-15.7-10.23-23.92-11.98-5.1-1.1-10.33 2.75-4.39 19.92 5.95 17.16 16.4 34.53 30.84 42.46 14.44 7.91 13.61 4.91 13.61 4.91l29.7-24.7z"/>
      <path fill="var(--color-over)" d="m297.84 140.74a819.51 819.51 0 0 0 38.21-21.53l14.58-103.53c-9.68 5.03-20.21 12.02-25.4 15.72-34.97 24.91-56.5 51.83-114.09 73.19-16.1 5.97-48.93-18.8-74-39.86-12.64-10.6-28-24.56-30.57-28.36l-41.12 37.94c10.16 10.74 65.26 80.19 134.12 95.16 26.81 5.82 78.4-18.1 98.3-28.72z"/>
    </symbol>
    <symbol id="hand-hoyre-rett" x="-425" y="1.5" width="401" height="460" viewBox="0 0 401 460">
      <title>Rett</title>
      <path fill="var(--color-skin)" d="m94.33 103.19-18.4 33.88s1.92 2.49-14.62.38c-16.56-2.11-32.96-14.5-45.08-28.33-12.1-13.83-8.68-19.33-3.47-20.17 8.35-1.36 18.35-.14 26.96 2.44 19.73 5.92 8.33-5.15 4.48-9.05-3.67-3.74-7.31-10.3 6.39-9.24 13.69 1.05 35.8 21.65 43.72 30.09h.02Z"/>
      <path fill="var(--color-over)" d="M336.62 104.18c-26.44 14.36-29.3 24.18-74.1 45.64-24.54 11.76-39.78 20.1-67.82 19.8-23.13-.22-74-4.88-126.95-19.77C71.5 140.9 91.62 94.8 91.62 94.8c40.72 9.47 96.1 11.27 108.88 10.78 7.44-.28 24.85-7.86 33.13-12.47 33.6-21.95 36.62-26.96 62.57-47.44 16.24-12.8 38.68-27.4 54.69-36l-14.27 94.5Z"/>
    </symbol>
    <symbol id="hand-hoyre-ut" x="-425" y="1.5" width="401" height="460" viewBox="0 0 401 460">
      <title>Ut</title>
      <path fill="var(--color-skin)" d="m132.47 232.07 1.13 38.62s2.87 1.2-12.27 7.68c-15.15 6.5-35.26 4-52.44-1.9s-17-12.4-12.97-15.75c6.45-5.38 15.56-9.34 24.19-11.44 19.75-4.79 4.54-8.65-.67-10.1-4.98-1.4-11.33-5.24.85-11.2 12.19-5.99 41.24.76 52.18 4.1Z"/>
      <path fill="var(--color-over)" d="M244.98 147.06c22.49-36.6 24.33-40.75 44.77-71.06 11.56-17.14 19.25-30.99 31.4-42.66 11.7-11.23 19.38-18.62 28.97-23.66l-6.57 100.18c-17.27 24.61-6.83 12.48-42.65 67.5-14.7 22.55-22.9 40.44-43.55 51.86-22.08 12.21-59.14 38.8-126.82 54.43-1.1-9.66-5.61-59.46-5.61-59.46 79.76-23.35 110.4-61.4 120.06-77.13Z"/>
    </symbol>
  </g>
  <g id="hand-venstre">
    <title>Venstre arm</title>
    <symbol id="hand-venstre-ut" x="12" y=".6" width="401" height="461" viewBox="0 0 401 461">
      <title>Ut</title>
      <path fill="var(--color-skin)" d="m267.8 232.64-1.12 38.62s-2.87 1.19 12.27 7.68c15.15 6.49 35.26 4 52.44-1.91 17.18-5.9 16.99-12.4 12.97-15.74-6.45-5.38-15.56-9.34-24.2-11.44-19.74-4.8-4.53-8.65.68-10.1 4.98-1.4 11.33-5.24-.85-11.21-12.2-5.98-41.24.77-52.18 4.1Z"/>
      <path fill="var(--color-over)" d="M155.3 147.63c-22.5-36.61-24.33-40.75-44.77-71.06-11.56-17.14-19.25-31-31.4-42.66-11.7-11.23-19.38-18.63-28.97-23.66l6.57 100.18c17.27 24.6 6.83 12.48 42.65 67.49 14.69 22.56 22.9 40.45 43.55 51.87 22.08 12.2 59.14 38.79 126.82 54.43 1.09-9.66 5.6-59.46 5.6-59.46-79.75-23.35-110.4-61.41-120.05-77.13Z"/>
    </symbol>
    <symbol id="hand-venstre-inn" x="12" y=".6" width="401" height="461" viewBox="0 0 401 461">
      <title>Inn</title>
      <path fill="var(--color-skin)" d="M71.53 305.04c-9.43 3.14-33.5 12.99-39.5 23.39-6 10.39-6.12 13.53-4.4 33.96.4 4.6 3.6 10.77 18.74 6.3 15.12-4.45 30.77-12.82 38.67-25.08 7.9-12.26 5.27-11.65 5.27-11.65l-18.77-26.92h-.01Z"/>
      <path fill="var(--color-over)" d="M50.65 10.25c10.67 5.58 56.28 29.85 92.15 80.2 13.09 18.37 40.87 62.99 40.87 90.43-.94 70.34-80.5 148.73-89.84 160.18l-41.21-35.22c2.62-1.58 22.6-24.51 37.3-43.84 20.49-38.2 33.66-63.95 33.66-81.12-7.55-28.72-20.26-48.04-39.94-65.33L50.65 10.25Z"/>
    </symbol>
    <symbol id="hand-venstre-ned" x="12" y=".6" width="401" height="464" viewBox="0 0 401 464">
      <title>Ned</title>
      <path fill="var(--color-skin)" d="M126.81 388.27c-4.52 9.16-14.8 33.82-11.9 45.63s4.96 14.13 20.23 27.4c3.44 2.99 9.95 5.02 17.61-9.24 7.65-14.27 12.97-31.7 10.15-46.23-2.84-14.53-4.28-12.16-4.28-12.16l-31.79-5.4z"/>
      <path fill="var(--color-over)" d="M51.12 10.35s33.17 18.94 51.6 43.57c23.1 33.23 47.55 79.36 53.32 164.38a13659.5 13659.5 0 0 0 13.62 181.6l-55.79-1.2c-.1-1.4-1.67-65.81-12.4-190.2-3.71-42.9-16.03-82.98-33.63-96.21z"/>
    </symbol>
    <symbol id="hand-venstre-opp" x="12" y=".6" width="401" height="466" viewBox="0 0 401 466">
      <title>Opp</title>
      <path fill="var(--color-skin)" d="M297.58 45.91c4.12-10.67 16.73-37.7 28.95-43.6 12.22-5.9 11.32 1.46 9.35 6.25-2.07 5-8.4 19.34 7.54 6.75 6.97-5.5 15.71-10.23 23.92-11.98 5.11-1.1 10.33 2.75 4.4 19.92-5.96 17.16-16.4 34.53-30.85 42.46-14.44 7.92-13.6 4.92-13.6 4.92l-29.7-24.7v-.02Z"/>
      <path fill="var(--color-over)" d="M103.44 140.3a819.26 819.26 0 0 1-38.22-21.53L50.65 15.25c9.68 5.03 20.21 12.02 25.4 15.72 34.96 24.9 56.5 51.83 114.08 73.18 16.12 5.97 48.94-18.79 74.02-39.85 12.63-10.6 28-24.56 30.56-28.36l41.12 37.94c-10.16 10.74-65.26 80.18-134.12 95.15-26.81 5.83-78.4-18.09-98.3-28.72h.03Z"/>
    </symbol>
    <symbol id="hand-venstre-rett" x="12" y=".6" width="401" height="461" viewBox="0 0 401 461">
      <title>Rett</title>
      <path fill="var(--color-skin)" d="m307.98 103.55 18.4 33.88s-1.92 2.5 14.62.38c16.56-2.1 32.95-14.5 45.07-28.33 12.11-13.83 8.7-19.33 3.48-20.17-8.36-1.36-18.35-.14-26.97 2.44-19.73 5.92-8.32-5.15-4.48-9.05 3.67-3.74 7.32-10.29-6.38-9.24-13.69 1.05-35.8 21.65-43.72 30.1h-.02Z"/>
      <path fill="var(--color-over)" d="M64.66 104.74c26.43 14.36 29.3 24.18 74.1 45.64 24.54 11.76 39.78 20.1 67.82 19.81 23.13-.23 74-4.89 126.94-19.78a9813.98 9813.98 0 0 0-23.87-55.04c-40.72 9.47-96.09 11.27-108.88 10.78-7.43-.28-24.85-7.86-33.12-12.47-33.6-21.95-36.62-26.96-62.58-47.44-16.23-12.79-38.67-27.39-54.68-36l14.27 94.5Z"/>
    </symbol>
  </g>
  <g id="head">
    <title>Hode</title>
    <symbol id="head-topp" x="-109" y="-186" width="218" height="223" viewBox="0 0 218 223">
      <title>Topp</title>
      <path fill="var(--color-skin)" d="M170.63 118.34c-.36-1.93-2.06-2.97-4.05-3.82.81-15.57-2.43-25.47-9.36-35.46-5.81-8.39-13.93-16.74-25.31-20.81-10.1-3.61-34.82-2.66-44.75 1.34-23.76 9.03-33.11 31.1-34.33 55.5-2.03.52-3.83 1.27-4.42 3.1-1.3 3.11-1.96 6.07-1.11 9.5.79 2.77 2.56 4.5 6.1 6.87.95 11.34 4.54 22.2 10.4 31.2l1.22 1.85C74.25 181.76 86.6 190 101.37 190h11.64c14.7 0 28.61-8.16 37.84-22.2l3.67-5.6c5.52-8.38 9.06-18.42 10.31-29.05 3.02-1.52 4.69-2.91 5.7-5.23 1.27-3.26 1-6.29.1-9.58Z"/>
      <path fill="var(--color-hair)" d="M139.02 61.32c-6.06-3.2-12.28-6.01-19.07-7.23a19.24 19.24 0 0 0 6.77-5.61l1.44-1.9a20.91 20.91 0 0 0 4.08-10.21l.42-3.6c.59-5.03-.63-10.11-3.4-14.23l-1.07-1.59c-2.34-3.48-4.92-5.16-9.42-6.17a28.98 28.98 0 0 0-16.98 1.11c-7.43 2.59-12.6 9.73-13.07 18l-.24 4.06c-.28 5 1.2 9.93 4.15 13.84l.47.63c1.72 2.27 3.7 4.09 5.95 5.37-14.49 2.48-28.91 11.02-36.53 22.17-12.06 20.1-10.02 23.14-11.5 35-.2 1.53.07 3.05.18 4.56 2.92.47 5.9.72 8.96.72 22.65 0 42.18-13.72 51.14-33.5 8.58 20.84 28.59 35.92 50.96 32.6 1.4-.21 2.9-.67 4.28-.84.35-2.86.26-5.25.29-8.21.17-16.3-10.23-35.68-27.81-44.97Z"/>
    </symbol>
    <symbol id="head-skallet" x="-109" y="-186" width="218" height="223" viewBox="0 0 218 223">
      <title>Skallet</title>
      <path fill="var(--color-skin)" d="M170.63 118.34c-.36-1.93-2.06-2.97-4.05-3.82.81-15.57-2.43-25.47-9.36-35.46-5.81-8.39-13.93-16.74-25.31-20.81-10.1-3.61-34.82-2.66-44.75 1.34-23.76 9.03-33.11 31.1-34.33 55.5-2.03.52-3.83 1.27-4.42 3.1-1.3 3.11-1.96 6.07-1.11 9.5.79 2.77 2.56 4.5 6.1 6.87.95 11.34 4.54 22.2 10.4 31.2l1.22 1.85C74.25 181.76 86.6 190 101.37 190h11.64c14.7 0 28.61-8.16 37.84-22.2l3.67-5.6c5.52-8.38 9.06-18.42 10.31-29.05 3.02-1.52 4.69-2.91 5.7-5.23 1.27-3.26 1-6.29.1-9.58Z"/>
    </symbol>
    <symbol id="head-sideskill" x="-109" y="-186" width="218" height="223" viewBox="0 0 218 223">
      <title>Sideskill</title>
      <path fill="var(--color-skin)" d="M170.63 118.34c-.36-1.93-2.06-2.97-4.05-3.82.81-15.57-2.43-25.47-9.36-35.46-5.81-8.39-13.93-16.74-25.31-20.81-10.1-3.61-34.82-2.66-44.75 1.34-23.76 9.03-33.11 31.1-34.33 55.5-2.03.52-3.83 1.27-4.42 3.1-1.3 3.11-1.96 6.07-1.11 9.5.79 2.77 2.56 4.5 6.1 6.87.95 11.34 4.54 22.2 10.4 31.2l1.22 1.85C74.25 181.76 86.6 190 101.37 190h11.64c14.7 0 28.61-8.16 37.84-22.2l3.67-5.6c5.52-8.38 9.06-18.42 10.31-29.05 3.02-1.52 4.69-2.91 5.7-5.23 1.27-3.26 1-6.29.1-9.58Z"/>
      <path fill="var(--color-hair)" d="M166.21 102.45c-2.34-20.63-13.65-38.14-35.9-45.36-11.34-3.68-25.23-5.46-37.19-2.5-1.23.3-2.1.18-4.35.66-20.42 4.35-41.97 31.72-37.3 56.63.23 1.2.5 2.37.8 3.52 2.2-.02 4.7.54 6.64-.63 10.06-6.08 23.82-20.29 29.81-36.1 7.33 27.46 52.87 39.33 73.66 37.43 1.75-.17 3.3-.97 4.94-1.55-.04-3.68-.68-8.35-1.1-12.1Z"/>
    </symbol>
    <symbol id="head-sideknute" x="-109" y="-186" width="218" height="223" viewBox="0 0 218 223">
      <title>Sideknute</title>
      <path fill="var(--color-skin)" d="M170.63 118.34c-.36-1.93-2.06-2.97-4.05-3.82.81-15.57-2.43-25.47-9.36-35.46-5.81-8.39-13.93-16.74-25.31-20.81-10.1-3.61-34.82-2.66-44.75 1.34-23.76 9.03-33.11 31.1-34.33 55.5-2.03.52-3.83 1.27-4.42 3.1-1.3 3.11-1.96 6.07-1.11 9.5.79 2.77 2.56 4.5 6.1 6.87.95 11.34 4.54 22.2 10.4 31.2l1.22 1.85C74.25 181.76 86.6 190 101.37 190h11.64c14.7 0 28.61-8.16 37.84-22.2l3.67-5.6c5.52-8.38 9.06-18.42 10.31-29.05 3.02-1.52 4.69-2.91 5.7-5.23 1.27-3.26 1-6.29.1-9.58Z"/>
      <path fill="var(--color-hair)" d="M200.47 136.95c-1.6-8.2-11.5-18.87-14.92-24.19-9.05-14.15-12.78-21.42-12.78-21.42-9.87-20.17-31.3-36.87-55.67-38.03-12.55-.6-25.82-.37-37.74 6.67-.07.03.06-.04 0 0-17.29 8.64-30.88 31.5-27.54 51.74.2 1.12.42 2.23.7 3.32 2.01-.06 4.3.45 6.1-.7 8.33-5.3 19.48-16.77 25.87-29.89 19.16 29 57.86 39.38 82.07 30v.08c1.99.85 3.7 1.89 4.05 3.82.9 3.3 1.17 6.34-.1 9.6-1.02 2.32-2.69 3.7-5.71 5.23-1.25 10.65-4.8 20.7-10.33 29.1l-3.68 5.59a54.06 54.06 0 0 1-10.5 11.86c.73 2.44 5.57 15.64 23.89 11.85 19.32-4 19.07-5.82 27.4-14.7 9.15-9.78 12.48-21.43 8.9-39.93Z"/>
    </symbol>
    <symbol id="head-midtskill" x="-109" y="-186" width="218" height="223" viewBox="0 0 218 223">
      <title>Midtskill</title>
      <path fill="var(--color-skin)" d="M170.63 118.34c-.36-1.93-2.06-2.97-4.05-3.82.81-15.57-2.43-25.47-9.36-35.46-5.81-8.39-13.93-16.74-25.31-20.81-10.1-3.61-34.82-2.66-44.75 1.34-23.76 9.03-33.11 31.1-34.33 55.5-2.03.52-3.83 1.27-4.42 3.1-1.3 3.11-1.96 6.07-1.11 9.5.79 2.77 2.56 4.5 6.1 6.87.95 11.34 4.54 22.2 10.4 31.2l1.22 1.85C74.25 181.76 86.6 190 101.37 190h11.64c14.7 0 28.61-8.16 37.84-22.2l3.67-5.6c5.52-8.38 9.06-18.42 10.31-29.05 3.02-1.52 4.69-2.91 5.7-5.23 1.27-3.26 1-6.29.1-9.58Z"/>
      <path fill="var(--color-hair)" d="M139.83 59.5c-7.86-4.24-16.02-7.82-25.3-8.1-2.18-.26-4.39-.4-6.63-.4-17.16 0-36.13 9.87-45.3 23.56-12.17 20.67-10.11 23.8-11.62 36-.19 1.58.08 3.14.2 4.7 2.95.48 5.96.74 9.04.74 22.87 0 42.59-14.11 51.63-34.47 8.67 21.44 28.87 36.96 51.46 33.54 1.4-.22 2.83-.17 4.23-.34.34-2.94.35-5.92.37-8.97.18-16.77-10.32-36.7-28.08-46.26Z"/>
    </symbol>
    <symbol id="head-kroller" x="-109" y="-186" width="218" height="223" viewBox="0 0 218 223">
      <title>Krøller</title>
      <path fill="var(--color-skin)" d="M170.62 118.34c-.36-1.93-2.06-2.97-4.05-3.82.81-15.57-2.43-25.47-9.35-35.46-5.82-8.39-13.94-16.74-25.32-20.81-10.1-3.61-34.82-2.66-44.75 1.34-23.76 9.03-33.11 31.1-34.33 55.5-2.03.52-3.83 1.27-4.41 3.1-1.31 3.11-1.97 6.07-1.12 9.5.79 2.77 2.56 4.5 6.1 6.87.96 11.34 4.54 22.2 10.41 31.2l1.22 1.85C74.24 181.76 86.59 190 101.36 190H113c14.7 0 28.62-8.16 37.84-22.2l3.67-5.6c5.52-8.38 9.06-18.42 10.31-29.05 3.02-1.52 4.69-2.91 5.7-5.23 1.27-3.26 1-6.29.1-9.58Z"/>
      <path fill="var(--color-hair)" d="M186.85 94.02c-3.08-12-16.97-18.12-16.97-18.12s8.6-10.47-2.15-18.12c-10.75-7.64-19.6-3.2-19.6-3.2s.23-9.16-12.91-14.1c-13.15-4.94-21.53 2.42-21.53 2.42s-10.04-7.24-23.44-2.42c-13.4 4.83-12.87 14.5-12.87 14.5s-20.85-1.61-29.22 9.66c-8.36 11.27 0 20.13 0 20.13s-14.34 4.84-14.34 16.9c0 12.07 14.34 17.31 14.34 17.31l4.16-3.79c1.14-.24 2.28-.48 3.42-.77 17.9-4.4 32.24-13.6 40.47-24.61 14.83 13.61 36.6 21.39 59.4 20.5 2.23 5.25 6.15 10.72 12.72 10.72 20.8 0 21.04-17.25 18.53-27v-.01Z"/>
    </symbol>
    <symbol id="head-hestehale" x="-109" y="-186" width="218" height="223" viewBox="0 0 218 223">
      <title>Hestehale</title>
      <path fill="var(--color-skin)" d="M170.63 118.34c-.36-1.93-2.06-2.97-4.05-3.82.81-15.57-2.43-25.47-9.36-35.46-5.81-8.39-13.93-16.74-25.31-20.81-10.1-3.61-34.82-2.66-44.75 1.34-23.76 9.03-33.11 31.1-34.33 55.5-2.03.52-3.83 1.27-4.42 3.1-1.3 3.11-1.96 6.07-1.11 9.5.79 2.77 2.56 4.5 6.1 6.87.95 11.34 4.54 22.2 10.4 31.2l1.22 1.85C74.25 181.76 86.6 190 101.37 190h11.64c14.7 0 28.61-8.16 37.84-22.2l3.67-5.6c5.52-8.38 9.06-18.42 10.31-29.05 3.02-1.52 4.69-2.91 5.7-5.23 1.27-3.26 1-6.29.1-9.58Z"/>
      <path fill="var(--color-hair)" d="m65.03 167.6-1.22-1.85c-5.48-8.41-8.97-18.44-10.2-28.97-12.81 13.09-20 30.63-17.03 49.39.28 1.8.24 3.63.47 5.43 3.73.42 7.5.39 11.39.39 10.03.03 20.74-3.36 30.52-9.34-5.21-3.74-9.88-8.82-13.94-15.05ZM139.84 59.49c-7.87-4.24-16.03-7.82-25.31-8.1-2.17-.25-4.38-.4-6.62-.4-17.17 0-36.13 9.88-45.3 23.57-12.18 20.68-10.12 23.8-11.62 36-.2 1.58.08 3.14.19 4.69 2.95.49 5.96.75 9.04.75 22.87 0 41.2-15.5 51.64-34.47 9.06 17.97 28.86 36.96 51.45 33.55 1.4-.22 2.84-.17 4.23-.34.35-2.94.35-5.92.37-8.97.18-16.77-10.33-36.7-28.08-46.26v-.02Z"/>
    </symbol>
    <symbol id="head-hestehale-profil" x="-183" y="-186" width="292" height="223" viewBox="0 0 292 223">
      <title>Hestehale i profil</title>
      <path fill="var(--color-skin)" d="M230.93 79.06c-4.89-8.96-13.93-16.74-25.31-20.8-10.1-3.62-34.82-2.67-44.75 1.34-23.76 9.03-33.1 31.1-34.33 55.48-2.03.53-3.83 1.28-4.42 3.1-1.3 3.12-1.96 6.08-1.11 9.51.79 2.77 2.56 4.5 6.1 6.87.95 11.35 4.54 22.2 10.4 31.2l1.22 1.85c9.23 14.15 21.58 22.4 36.35 22.4h11.64c14.7 0 28.61-8.17 37.84-22.22l3.67-5.59c5.52-8.38 9.79-19.41 11.21-36.16 2.3-27.09-3-36.89-8.5-46.98Z"/>
      <path fill="var(--color-hair)" d="M234.68 86.36c1.3 36.19-67.4 50.68-102 61.34-12.67 3.9-11.59 40.15-80.61 63.84C-1.5 223.03.79 169.56.79 169.56c10.3-60.88 89.52-12.31 118.7-42.35.1-10.96 6.06-33.53 10.87-43.8 8.33-17.79 26.67-27.9 53.16-29.73 22.5-1.55 42.85 10.57 51.16 32.68Z"/>
    </symbol>
    <symbol id="head-halvlangt" x="-109" y="-186" width="218" height="223" viewBox="0 0 218 223">
      <title>Halvlangt</title>
      <path fill="var(--color-skin)" d="M170.63 118.34c-.36-1.93-2.06-2.97-4.05-3.82.81-15.57-2.43-25.47-9.36-35.46-5.81-8.39-13.93-16.74-25.31-20.81-10.1-3.61-34.82-2.66-44.75 1.34-23.76 9.03-33.11 31.1-34.33 55.5-2.03.52-3.83 1.27-4.42 3.1-1.3 3.11-1.96 6.07-1.11 9.5.79 2.77 2.56 4.5 6.1 6.87.95 11.34 4.54 22.2 10.4 31.2l1.22 1.85C74.25 181.76 86.6 190 101.37 190h11.64c14.7 0 28.61-8.16 37.84-22.2l3.67-5.6c5.52-8.38 9.06-18.42 10.31-29.05 3.02-1.52 4.69-2.91 5.7-5.23 1.27-3.26 1-6.29.1-9.58Z"/>
      <path fill="var(--color-hair)" d="M177.07 123.59c-2.31-9.62-6.4-21.44-10.66-32.2-4.45-12.09-14.2-23.66-26.97-30.3-7.02-3.92-13.48-7.28-21.29-8.16 0-.01 0 .01 0 0a56.14 56.14 0 0 0-9-.73c-17.09 0-35.97 9.64-45.1 23.02-6.03 8.83-9.15 13.93-10.7 17.64-4.46 8.77-9.46 21.7-12.2 31.05l-6.73 24.28c2.49 5.68 14.94 9.65 23.95 7.09a70.46 70.46 0 0 1-4.94-20.69c-3.54-2.36-5.3-4.1-6.1-6.86-.84-3.43-.19-6.38 1.12-9.48.59-1.83 2.39-2.58 4.42-3.1V115c2.87.46 5.8.7 8.8.7 22.72 0 42.33-13.74 51.36-33.57 8.76 20.94 29.01 36 51.5 32.48.68-.1 1.35-.16 2.03-.2l-.01.16c1.99.85 3.7 1.89 4.05 3.82.9 3.28 1.16 6.31-.11 9.56-1.02 2.32-2.68 3.7-5.69 5.22-.9 7.67-3 15.04-6.19 21.69 8.91 1.7 16.65 3.67 24-3.86l-5.55-27.41v-.01Z"/>
    </symbol>
    <symbol id="head-caps-skallet" x="-109" y="-186" width="227" height="223" viewBox="0 0 227 223">
      <title>Caps og skallet</title>
      <path fill="var(--color-skin)" d="M170.63 118.34c-.36-1.93-2.06-2.97-4.05-3.82.81-15.57-2.43-25.47-9.36-35.46-5.81-8.39-13.93-16.74-25.31-20.81-10.1-3.61-34.82-2.66-44.75 1.34-23.76 9.03-33.11 31.1-34.33 55.5-2.03.52-3.83 1.27-4.42 3.1-1.3 3.11-1.96 6.07-1.11 9.5.79 2.77 2.56 4.5 6.1 6.87.95 11.34 4.54 22.2 10.4 31.2l1.22 1.85C74.25 181.76 86.6 190 101.37 190h11.64c14.7 0 28.61-8.16 37.84-22.2l3.67-5.6c5.52-8.38 9.06-18.42 10.31-29.05 3.02-1.52 4.69-2.91 5.7-5.23 1.27-3.26 1-6.29.1-9.58Z"/>
      <path fill="var(--color-caps)" d="m49.47 106.13 177.45-49.89s-3.4-5.4-7.96-5.4c-4.55 0-63.7 13.6-63.7 13.6S135.85 30.3 87.02 48.2c-45.56 16.7-37.55 57.94-37.55 57.94Z"/>
    </symbol>
    <symbol id="head-caps-sideskill" x="-109" y="-186" width="227" height="223" viewBox="0 0 227 223">
      <title>Caps og sideskill</title>
      <path fill="var(--color-skin)" d="M170.63 118.34c-.36-1.93-2.06-2.97-4.05-3.82.81-15.57-2.43-25.47-9.36-35.46-5.81-8.39-13.93-16.74-25.31-20.81-10.1-3.61-34.82-2.66-44.75 1.34-23.76 9.03-33.11 31.1-34.33 55.5-2.03.52-3.83 1.27-4.42 3.1-1.3 3.11-1.96 6.07-1.11 9.5.79 2.77 2.56 4.5 6.1 6.87.95 11.34 4.54 22.2 10.4 31.2l1.22 1.85C74.25 181.76 86.6 190 101.37 190h11.64c14.7 0 28.61-8.16 37.84-22.2l3.67-5.6c5.52-8.38 9.06-18.42 10.31-29.05 3.02-1.52 4.69-2.91 5.7-5.23 1.27-3.26 1-6.29.1-9.58Z"/>
      <path fill="var(--color-hair)" d="M166.21 102.45c-2.34-20.63-13.65-38.14-35.9-45.36-11.34-3.68-25.23-5.46-37.19-2.5-1.23.3-2.1.18-4.35.66-20.42 4.35-41.97 31.72-37.3 56.63.23 1.2.5 2.37.8 3.52 2.2-.02 4.7.54 6.64-.63 10.06-6.08 23.82-20.29 29.81-36.1 7.33 27.46 52.87 39.33 73.66 37.43 1.75-.17 3.3-.97 4.94-1.55-.04-3.68-.68-8.35-1.1-12.1Z"/>
      <path fill="var(--color-caps)" d="m49.47 106.13 177.45-49.89s-3.4-5.4-7.96-5.4c-4.55 0-63.7 13.6-63.7 13.6S135.85 30.3 87.02 48.2c-45.56 16.7-37.55 57.94-37.55 57.94Z"/>
    </symbol>
    <symbol id="head-caps-sideknute" x="-109" y="-186" width="227" height="223" viewBox="0 0 227 223">
      <title>Caps og sideknute</title>
      <path fill="var(--color-skin)" d="M170.63 118.34c-.36-1.93-2.06-2.97-4.05-3.82.81-15.57-2.43-25.47-9.36-35.46-5.81-8.39-13.93-16.74-25.31-20.81-10.1-3.61-34.82-2.66-44.75 1.34-23.76 9.03-33.11 31.1-34.33 55.5-2.03.52-3.83 1.27-4.42 3.1-1.3 3.11-1.96 6.07-1.11 9.5.79 2.77 2.56 4.5 6.1 6.87.95 11.34 4.54 22.2 10.4 31.2l1.22 1.85C74.25 181.76 86.6 190 101.37 190h11.64c14.7 0 28.61-8.16 37.84-22.2l3.67-5.6c5.52-8.38 9.06-18.42 10.31-29.05 3.02-1.52 4.69-2.91 5.7-5.23 1.27-3.26 1-6.29.1-9.58Z"/>
      <path fill="var(--color-hair)" d="M200.47 136.95c-1.6-8.2-11.5-18.87-14.92-24.19-9.05-14.15-12.78-21.42-12.78-21.42-9.87-20.17-31.3-36.87-55.67-38.03-12.55-.6-25.82-.37-37.74 6.67-.07.03.06-.04 0 0-17.29 8.64-30.88 31.5-27.54 51.74.2 1.12.42 2.23.7 3.32 2.01-.06 4.3.45 6.1-.7 8.33-5.3 19.48-16.77 25.87-29.89 19.16 29 57.86 39.38 82.07 30v.08c1.99.85 3.7 1.89 4.05 3.82.9 3.3 1.17 6.34-.1 9.6-1.02 2.32-2.69 3.7-5.71 5.23-1.25 10.65-4.8 20.7-10.33 29.1l-3.68 5.59a54.06 54.06 0 0 1-10.5 11.86c.73 2.44 5.57 15.64 23.89 11.85 19.32-4 19.07-5.82 27.4-14.7 9.15-9.78 12.48-21.43 8.9-39.93Z"/>
      <path fill="var(--color-caps)" d="m49.47 106.13 177.45-49.89s-3.4-5.4-7.96-5.4c-4.55 0-63.7 13.6-63.7 13.6S135.85 30.3 87.02 48.2c-45.56 16.7-37.55 57.94-37.55 57.94Z"/>
    </symbol>
    <symbol id="head-caps-midtskill" x="-109" y="-186" width="227" height="223" viewBox="0 0 227 223">
      <title>Caps og midtskill</title>
      <path fill="var(--color-skin)" d="M170.63 118.34c-.36-1.93-2.06-2.97-4.05-3.82.81-15.57-2.43-25.47-9.36-35.46-5.81-8.39-13.93-16.74-25.31-20.81-10.1-3.61-34.82-2.66-44.75 1.34-23.76 9.03-33.11 31.1-34.33 55.5-2.03.52-3.83 1.27-4.42 3.1-1.3 3.11-1.96 6.07-1.11 9.5.79 2.77 2.56 4.5 6.1 6.87.95 11.34 4.54 22.2 10.4 31.2l1.22 1.85C74.25 181.76 86.6 190 101.37 190h11.64c14.7 0 28.61-8.16 37.84-22.2l3.67-5.6c5.52-8.38 9.06-18.42 10.31-29.05 3.02-1.52 4.69-2.91 5.7-5.23 1.27-3.26 1-6.29.1-9.58Z"/>
      <path fill="var(--color-hair)" d="M139.83 59.5c-7.86-4.24-16.02-7.82-25.3-8.1-2.18-.26-4.39-.4-6.63-.4-17.16 0-36.13 9.87-45.3 23.56-12.17 20.67-10.11 23.8-11.62 36-.19 1.58.08 3.14.2 4.7 2.95.48 5.96.74 9.04.74 22.87 0 42.59-14.11 51.63-34.47 8.67 21.44 28.87 36.96 51.46 33.54 1.4-.22 2.83-.17 4.23-.34.34-2.94.35-5.92.37-8.97.18-16.77-10.32-36.7-28.08-46.26Z"/>
      <path fill="var(--color-caps)" d="m49.47 106.13 177.45-49.89s-3.4-5.4-7.96-5.4c-4.55 0-63.7 13.6-63.7 13.6S135.85 30.3 87.02 48.2c-45.56 16.7-37.55 57.94-37.55 57.94Z"/>
    </symbol>
    <symbol id="head-caps-hestehale" x="-109" y="-186" width="227" height="223" viewBox="0 0 227 223">
      <title>Caps og hestehale</title>
      <path fill="var(--color-skin)" d="M170.63 118.34c-.36-1.93-2.06-2.97-4.05-3.82.81-15.57-2.43-25.47-9.36-35.46-5.81-8.39-13.93-16.74-25.31-20.81-10.1-3.61-34.82-2.66-44.75 1.34-23.76 9.03-33.11 31.1-34.33 55.5-2.03.52-3.83 1.27-4.42 3.1-1.3 3.11-1.96 6.07-1.11 9.5.79 2.77 2.56 4.5 6.1 6.87.95 11.34 4.54 22.2 10.4 31.2l1.22 1.85C74.25 181.76 86.6 190 101.37 190h11.64c14.7 0 28.61-8.16 37.84-22.2l3.67-5.6c5.52-8.38 9.06-18.42 10.31-29.05 3.02-1.52 4.69-2.91 5.7-5.23 1.27-3.26 1-6.29.1-9.58Z"/>
      <path fill="var(--color-hair)" d="m65.03 167.6-1.22-1.85c-5.48-8.41-8.97-18.44-10.2-28.97-12.81 13.09-20 30.63-17.03 49.39.28 1.8.24 3.63.47 5.43 3.73.42 7.5.39 11.39.39 10.03.03 20.74-3.36 30.52-9.34-5.21-3.74-9.88-8.82-13.94-15.05ZM139.84 59.49c-7.87-4.24-16.03-7.82-25.31-8.1-2.17-.25-4.38-.4-6.62-.4-17.17 0-36.13 9.88-45.3 23.57-12.18 20.68-10.12 23.8-11.62 36-.2 1.58.08 3.14.19 4.69 2.95.49 5.96.75 9.04.75 22.87 0 41.2-15.5 51.64-34.47 9.06 17.97 28.86 36.96 51.45 33.55 1.4-.22 2.84-.17 4.23-.34.35-2.94.35-5.92.37-8.97.18-16.77-10.33-36.7-28.08-46.26v-.02Z"/>
      <path fill="var(--color-caps)" d="m49.47 106.13 177.45-49.89s-3.4-5.4-7.96-5.4c-4.55 0-63.7 13.6-63.7 13.6S135.85 30.3 87.02 48.2c-45.56 16.7-37.55 57.94-37.55 57.94Z"/>
    </symbol>
    <symbol id="head-caps-hestehale-profil" x="-183" y="-186" width="299" height="223" viewBox="0 0 299 223">
      <title>Caps og hestehale i profil</title>
      <path fill="var(--color-skin)" d="M230.93 79.06c-4.89-8.96-13.93-16.74-25.31-20.8-10.1-3.62-34.82-2.67-44.75 1.34-23.76 9.03-33.1 31.1-34.33 55.48-2.03.53-3.83 1.28-4.42 3.1-1.3 3.12-1.96 6.08-1.11 9.51.79 2.77 2.56 4.5 6.1 6.87.95 11.35 4.54 22.2 10.4 31.2l1.22 1.85c9.23 14.15 21.58 22.4 36.35 22.4h11.64c14.7 0 28.61-8.17 37.84-22.22l3.67-5.59c5.52-8.38 9.79-19.41 11.21-36.16 2.3-27.09-3-36.89-8.5-46.98Z"/>
      <path fill="var(--color-hair)" d="M234.68 86.36c1.3 36.19-67.4 50.68-102 61.34-12.67 3.9-11.59 40.15-80.61 63.84C-1.5 223.03.79 169.56.79 169.56c10.3-60.88 89.52-12.31 118.7-42.35.1-10.96 6.06-33.53 10.87-43.8 8.33-17.79 26.67-27.9 53.16-29.73 22.5-1.55 42.85 10.57 51.16 32.68Z"/>
      <path fill="var(--color-caps)" d="m121.47 106.13 177.45-49.89s-3.4-5.4-7.96-5.4c-4.55 0-63.7 13.6-63.7 13.6S207.85 30.3 159.02 48.2c-45.56 16.7-37.55 57.94-37.55 57.94Z"/>
    </symbol>
    <symbol id="head-caps-halvlangt" x="-109" y="-186" width="227" height="223" viewBox="0 0 227 223">
      <title>Caps og halvlangt</title>
      <path fill="var(--color-skin)" d="M170.63 118.34c-.36-1.93-2.06-2.97-4.05-3.82.81-15.57-2.43-25.47-9.36-35.46-5.81-8.39-13.93-16.74-25.31-20.81-10.1-3.61-34.82-2.66-44.75 1.34-23.76 9.03-33.11 31.1-34.33 55.5-2.03.52-3.83 1.27-4.42 3.1-1.3 3.11-1.96 6.07-1.11 9.5.79 2.77 2.56 4.5 6.1 6.87.95 11.34 4.54 22.2 10.4 31.2l1.22 1.85C74.25 181.76 86.6 190 101.37 190h11.64c14.7 0 28.61-8.16 37.84-22.2l3.67-5.6c5.52-8.38 9.06-18.42 10.31-29.05 3.02-1.52 4.69-2.91 5.7-5.23 1.27-3.26 1-6.29.1-9.58Z"/>
      <path fill="var(--color-hair)" d="M177.07 123.59c-2.31-9.62-6.4-21.44-10.66-32.2-4.45-12.09-14.2-23.66-26.97-30.3-7.02-3.92-13.48-7.28-21.29-8.16 0-.01 0 .01 0 0a56.14 56.14 0 0 0-9-.73c-17.09 0-35.97 9.64-45.1 23.02-6.03 8.83-9.15 13.93-10.7 17.64-4.46 8.77-9.46 21.7-12.2 31.05l-6.73 24.28c2.49 5.68 14.94 9.65 23.95 7.09a70.46 70.46 0 0 1-4.94-20.69c-3.54-2.36-5.3-4.1-6.1-6.86-.84-3.43-.19-6.38 1.12-9.48.59-1.83 2.39-2.58 4.42-3.1V115c2.87.46 5.8.7 8.8.7 22.72 0 42.33-13.74 51.36-33.57 8.76 20.94 29.01 36 51.5 32.48.68-.1 1.35-.16 2.03-.2l-.01.16c1.99.85 3.7 1.89 4.05 3.82.9 3.28 1.16 6.31-.11 9.56-1.02 2.32-2.68 3.7-5.69 5.22-.9 7.67-3 15.04-6.19 21.69 8.91 1.7 16.65 3.67 24-3.86l-5.55-27.41v-.01Z"/>
      <path fill="var(--color-caps)" d="m49.47 106.13 177.45-49.89s-3.4-5.4-7.96-5.4c-4.55 0-63.7 13.6-63.7 13.6S135.85 30.3 87.02 48.2c-45.56 16.7-37.55 57.94-37.55 57.94Z"/>
    </symbol>
    <symbol id="head-skaut-skallet" x="-109" y="-186" width="227" height="223" viewBox="0 0 227 223">
      <title>Skaut og skallet</title>
      <path fill="var(--color-skin)" d="M170.63 118.34c-.36-1.93-2.06-2.97-4.05-3.82.81-15.57-2.43-25.47-9.36-35.46-5.81-8.39-13.93-16.74-25.31-20.81-10.1-3.61-34.82-2.66-44.75 1.34-23.76 9.03-33.11 31.1-34.33 55.5-2.03.52-3.83 1.27-4.42 3.1-1.3 3.11-1.96 6.07-1.11 9.5.79 2.77 2.56 4.5 6.1 6.87.95 11.34 4.54 22.2 10.4 31.2l1.22 1.85C74.25 181.76 86.6 190 101.37 190h11.64c14.7 0 28.61-8.16 37.84-22.2l3.67-5.6c5.52-8.38 9.06-18.42 10.31-29.05 3.02-1.52 4.69-2.91 5.7-5.23 1.27-3.26 1-6.29.1-9.58Z"/>
      <path fill="var(--color-hat)" d="M165.46 106.9s-2.21-4.05-10.39-11.42c-6.23-5.62-28.74-18.3-57.37-14.94-28.63 3.35-43.6 25.74-47.98 27.18-1.5.5-.44-22.46-.44-22.46s4.07-19.81 20.1-31.78c17.06-12.71 32.7-18.37 57.34-11.58 40.72 11.23 43.36 42.85 41 66.1l-2.26-1.14v.04Z"/>
    </symbol>
    <symbol id="head-skaut-sideskill" x="-109" y="-186" width="227" height="223" viewBox="0 0 227 223">
      <title>Skaut og sideskill</title>
      <path fill="var(--color-skin)" d="M170.63 118.34c-.36-1.93-2.06-2.97-4.05-3.82.81-15.57-2.43-25.47-9.36-35.46-5.81-8.39-13.93-16.74-25.31-20.81-10.1-3.61-34.82-2.66-44.75 1.34-23.76 9.03-33.11 31.1-34.33 55.5-2.03.52-3.83 1.27-4.42 3.1-1.3 3.11-1.96 6.07-1.11 9.5.79 2.77 2.56 4.5 6.1 6.87.95 11.34 4.54 22.2 10.4 31.2l1.22 1.85C74.25 181.76 86.6 190 101.37 190h11.64c14.7 0 28.61-8.16 37.84-22.2l3.67-5.6c5.52-8.38 9.06-18.42 10.31-29.05 3.02-1.52 4.69-2.91 5.7-5.23 1.27-3.26 1-6.29.1-9.58Z"/>
      <path fill="var(--color-hair)" d="M166.21 102.45c-2.34-20.63-13.65-38.14-35.9-45.36-11.34-3.68-25.23-5.46-37.19-2.5-1.23.3-2.1.18-4.35.66-20.42 4.35-41.97 31.72-37.3 56.63.23 1.2.5 2.37.8 3.52 2.2-.02 4.7.54 6.64-.63 10.06-6.08 23.82-20.29 29.81-36.1 7.33 27.46 52.87 39.33 73.66 37.43 1.75-.17 3.3-.97 4.94-1.55-.04-3.68-.68-8.35-1.1-12.1Z"/>
      <path fill="var(--color-hat)" d="M165.46 106.9s-2.21-4.05-10.39-11.42c-6.23-5.62-28.74-18.3-57.37-14.94-28.63 3.35-43.6 25.74-47.98 27.18-1.5.5-.44-22.46-.44-22.46s4.07-19.81 20.1-31.78c17.06-12.71 32.7-18.37 57.34-11.58 40.72 11.23 43.36 42.85 41 66.1l-2.26-1.14v.04Z"/>
    </symbol>
    <symbol id="head-skaut-sideknute" x="-109" y="-186" width="227" height="223" viewBox="0 0 227 223">
      <title>Skaut og sideknute</title>
      <path fill="var(--color-skin)" d="M170.63 118.34c-.36-1.93-2.06-2.97-4.05-3.82.81-15.57-2.43-25.47-9.36-35.46-5.81-8.39-13.93-16.74-25.31-20.81-10.1-3.61-34.82-2.66-44.75 1.34-23.76 9.03-33.11 31.1-34.33 55.5-2.03.52-3.83 1.27-4.42 3.1-1.3 3.11-1.96 6.07-1.11 9.5.79 2.77 2.56 4.5 6.1 6.87.95 11.34 4.54 22.2 10.4 31.2l1.22 1.85C74.25 181.76 86.6 190 101.37 190h11.64c14.7 0 28.61-8.16 37.84-22.2l3.67-5.6c5.52-8.38 9.06-18.42 10.31-29.05 3.02-1.52 4.69-2.91 5.7-5.23 1.27-3.26 1-6.29.1-9.58Z"/>
      <path fill="var(--color-hair)" d="M200.47 136.95c-1.6-8.2-11.5-18.87-14.92-24.19-9.05-14.15-12.78-21.42-12.78-21.42-9.87-20.17-31.3-36.87-55.67-38.03-12.55-.6-25.82-.37-37.74 6.67-.07.03.06-.04 0 0-17.29 8.64-30.88 31.5-27.54 51.74.2 1.12.42 2.23.7 3.32 2.01-.06 4.3.45 6.1-.7 8.33-5.3 19.48-16.77 25.87-29.89 19.16 29 57.86 39.38 82.07 30v.08c1.99.85 3.7 1.89 4.05 3.82.9 3.3 1.17 6.34-.1 9.6-1.02 2.32-2.69 3.7-5.71 5.23-1.25 10.65-4.8 20.7-10.33 29.1l-3.68 5.59a54.06 54.06 0 0 1-10.5 11.86c.73 2.44 5.57 15.64 23.89 11.85 19.32-4 19.07-5.82 27.4-14.7 9.15-9.78 12.48-21.43 8.9-39.93Z"/>
      <path fill="var(--color-hat)" d="M165.46 106.9s-2.21-4.05-10.39-11.42c-6.23-5.62-28.74-18.3-57.37-14.94-28.63 3.35-43.6 25.74-47.98 27.18-1.5.5-.44-22.46-.44-22.46s4.07-19.81 20.1-31.78c17.06-12.71 32.7-18.37 57.34-11.58 40.72 11.23 43.36 42.85 41 66.1l-2.26-1.14v.04Z"/>
    </symbol>
    <symbol id="head-skaut-midtskill" x="-109" y="-186" width="227" height="223" viewBox="0 0 227 223">
      <title>Skaut og midtskill</title>
      <path fill="var(--color-skin)" d="M170.63 118.34c-.36-1.93-2.06-2.97-4.05-3.82.81-15.57-2.43-25.47-9.36-35.46-5.81-8.39-13.93-16.74-25.31-20.81-10.1-3.61-34.82-2.66-44.75 1.34-23.76 9.03-33.11 31.1-34.33 55.5-2.03.52-3.83 1.27-4.42 3.1-1.3 3.11-1.96 6.07-1.11 9.5.79 2.77 2.56 4.5 6.1 6.87.95 11.34 4.54 22.2 10.4 31.2l1.22 1.85C74.25 181.76 86.6 190 101.37 190h11.64c14.7 0 28.61-8.16 37.84-22.2l3.67-5.6c5.52-8.38 9.06-18.42 10.31-29.05 3.02-1.52 4.69-2.91 5.7-5.23 1.27-3.26 1-6.29.1-9.58Z"/>
      <path fill="var(--color-hair)" d="M139.83 59.5c-7.86-4.24-16.02-7.82-25.3-8.1-2.18-.26-4.39-.4-6.63-.4-17.16 0-36.13 9.87-45.3 23.56-12.17 20.67-10.11 23.8-11.62 36-.19 1.58.08 3.14.2 4.7 2.95.48 5.96.74 9.04.74 22.87 0 42.59-14.11 51.63-34.47 8.67 21.44 28.87 36.96 51.46 33.54 1.4-.22 2.83-.17 4.23-.34.34-2.94.35-5.92.37-8.97.18-16.77-10.32-36.7-28.08-46.26Z"/>
      <path fill="var(--color-hat)" d="M165.46 106.9s-2.21-4.05-10.39-11.42c-6.23-5.62-28.74-18.3-57.37-14.94-28.63 3.35-43.6 25.74-47.98 27.18-1.5.5-.44-22.46-.44-22.46s4.07-19.81 20.1-31.78c17.06-12.71 32.7-18.37 57.34-11.58 40.72 11.23 43.36 42.85 41 66.1l-2.26-1.14v.04Z"/>
    </symbol>
    <symbol id="head-skaut-hestehale" x="-109" y="-186" width="227" height="223" viewBox="0 0 227 223">
      <title>Skaut og hestehale</title>
      <path fill="var(--color-skin)" d="M170.63 118.34c-.36-1.93-2.06-2.97-4.05-3.82.81-15.57-2.43-25.47-9.36-35.46-5.81-8.39-13.93-16.74-25.31-20.81-10.1-3.61-34.82-2.66-44.75 1.34-23.76 9.03-33.11 31.1-34.33 55.5-2.03.52-3.83 1.27-4.42 3.1-1.3 3.11-1.96 6.07-1.11 9.5.79 2.77 2.56 4.5 6.1 6.87.95 11.34 4.54 22.2 10.4 31.2l1.22 1.85C74.25 181.76 86.6 190 101.37 190h11.64c14.7 0 28.61-8.16 37.84-22.2l3.67-5.6c5.52-8.38 9.06-18.42 10.31-29.05 3.02-1.52 4.69-2.91 5.7-5.23 1.27-3.26 1-6.29.1-9.58Z"/>
      <path fill="var(--color-hair)" d="m65.03 167.6-1.22-1.85c-5.48-8.41-8.97-18.44-10.2-28.97-12.81 13.09-20 30.63-17.03 49.39.28 1.8.24 3.63.47 5.43 3.73.42 7.5.39 11.39.39 10.03.03 20.74-3.36 30.52-9.34-5.21-3.74-9.88-8.82-13.94-15.05ZM139.84 59.49c-7.87-4.24-16.03-7.82-25.31-8.1-2.17-.25-4.38-.4-6.62-.4-17.17 0-36.13 9.88-45.3 23.57-12.18 20.68-10.12 23.8-11.62 36-.2 1.58.08 3.14.19 4.69 2.95.49 5.96.75 9.04.75 22.87 0 41.2-15.5 51.64-34.47 9.06 17.97 28.86 36.96 51.45 33.55 1.4-.22 2.84-.17 4.23-.34.35-2.94.35-5.92.37-8.97.18-16.77-10.33-36.7-28.08-46.26v-.02Z"/>
      <path fill="var(--color-hat)" d="M165.46 106.9s-2.21-4.05-10.39-11.42c-6.23-5.62-28.74-18.3-57.37-14.94-28.63 3.35-43.6 25.74-47.98 27.18-1.5.5-.44-22.46-.44-22.46s4.07-19.81 20.1-31.78c17.06-12.71 32.7-18.37 57.34-11.58 40.72 11.23 43.36 42.85 41 66.1l-2.26-1.14v.04Z"/>
    </symbol>
    <symbol id="head-skaut-halvlangt" x="-109" y="-186" width="227" height="223" viewBox="0 0 227 223">
      <title>Skaut og halvlangt</title>
      <path fill="var(--color-skin)" d="M170.63 118.34c-.36-1.93-2.06-2.97-4.05-3.82.81-15.57-2.43-25.47-9.36-35.46-5.81-8.39-13.93-16.74-25.31-20.81-10.1-3.61-34.82-2.66-44.75 1.34-23.76 9.03-33.11 31.1-34.33 55.5-2.03.52-3.83 1.27-4.42 3.1-1.3 3.11-1.96 6.07-1.11 9.5.79 2.77 2.56 4.5 6.1 6.87.95 11.34 4.54 22.2 10.4 31.2l1.22 1.85C74.25 181.76 86.6 190 101.37 190h11.64c14.7 0 28.61-8.16 37.84-22.2l3.67-5.6c5.52-8.38 9.06-18.42 10.31-29.05 3.02-1.52 4.69-2.91 5.7-5.23 1.27-3.26 1-6.29.1-9.58Z"/>
      <path fill="var(--color-hair)" d="M177.07 123.59c-2.31-9.62-6.4-21.44-10.66-32.2-4.45-12.09-14.2-23.66-26.97-30.3-7.02-3.92-13.48-7.28-21.29-8.16 0-.01 0 .01 0 0a56.14 56.14 0 0 0-9-.73c-17.09 0-35.97 9.64-45.1 23.02-6.03 8.83-9.15 13.93-10.7 17.64-4.46 8.77-9.46 21.7-12.2 31.05l-6.73 24.28c2.49 5.68 14.94 9.65 23.95 7.09a70.46 70.46 0 0 1-4.94-20.69c-3.54-2.36-5.3-4.1-6.1-6.86-.84-3.43-.19-6.38 1.12-9.48.59-1.83 2.39-2.58 4.42-3.1V115c2.87.46 5.8.7 8.8.7 22.72 0 42.33-13.74 51.36-33.57 8.76 20.94 29.01 36 51.5 32.48.68-.1 1.35-.16 2.03-.2l-.01.16c1.99.85 3.7 1.89 4.05 3.82.9 3.28 1.16 6.31-.11 9.56-1.02 2.32-2.68 3.7-5.69 5.22-.9 7.67-3 15.04-6.19 21.69 8.91 1.7 16.65 3.67 24-3.86l-5.55-27.41v-.01Z"/>
      <path fill="var(--color-hat)" d="M165.46 106.9s-2.21-4.05-10.39-11.42c-6.23-5.62-28.74-18.3-57.37-14.94-28.63 3.35-43.6 25.74-47.98 27.18-1.5.5-.44-22.46-.44-22.46s4.07-19.81 20.1-31.78c17.06-12.71 32.7-18.37 57.34-11.58 40.72 11.23 43.36 42.85 41 66.1l-2.26-1.14v.04Z"/>
    </symbol>
  </g>
  <g id="hoyre">
    <title>Høyre side</title>
    <symbol id="hoyre-gris" x="100" y="380" width="813" height="540" viewBox="0 0 813 540">
      <title>Gris</title>
      <path fill="#F9C4AA" d="M765.9 111.6h.06c6.12 12.3 11.5 25.28 27.5 23.75 10.93.12 17.34-6.34 18.7-16.94 1.75-14.17-4.25-21.43-22.96-27.5 3.17-8.44 11.5-7.76 18.2-10.03-7.54-7.93-22.9-8.27-29.54.97-7.08 12.41-21.54 17.57-30.26 27.37-90.24-61.21-203.95-47.55-307.28-42.56-79.87 7.25-163.53 20.63-233.2 62.86-35.42 24.03-64.67 43.3-93.35 76.91-21.54-25.9-58.95-39.73-93.7-32.13-.05 2.55-.05 5.1 0 7.65 1.6 36.05 22.68 66.6 52.6 82.13-17.96 20.07-20.57 66.55-53.84 58.9-22.05-3.07-20.47 6.57-13.27 26.35 5.45 14.06 19.22 34.07 39.9 37.41 48.81 12.02 106.8 11.62 156.68 13.95 0 0 23.24 86.72 23.8 99.64.23 5.56-3.23 29.48-3.96 35.26-.34 2.6 1.02 3.86 2.1 3.86 1.07 0 28.56-.12 33.1 0 2.72.05 3.51-1.25 3.74-2.5.28-1.53 26.19-135.53 26.19-135.53 2.89-.17 3.23-.22 4.53-.22 0 0 34.46 81.79 36.33 91.09 1.2 6.06.8 43.3.85 45.06 0 1.64 1.2 2.15 1.76 2.15h32.37c1.87 0 2.5-.8 2.94-2.32 8.62-26.87 11.74-111.04 13.44-136.21 70.12 1.08 116.48 2.6 199.8-.06 0 0 21.32 85.82 21.15 96.59-.06 4.02-5 37.07-5.22 38.88-.22 1.42.23 3.07 1.53 3.07 1.14 0 26.98.05 35.09 0 1.7 0 3.06-1.2 3.57-3.35 8.67-35.6 20.46-100.38 23.3-133.94l6.4 3.8s22.05 64.73 22.1 77.94c0 4.98-4.3 39.28-5.83 51.12-.34 2.67 1.19 4.48 3.06 4.48 1.64 0 26.98.17 34.46 0a3.23 3.23 0 0 0 3.18-2.32c14.23-51.92 28.57-123.4 44.1-171.35.73-2.5 3.85-6.8 5.44-9.19 52.88-72.21 47.21-166.3-10.55-231.6-4.87-5.27-2.43-10.26 5-13.38v-.05Zm16.73-8.16c10.25-.05 22.27 7.83 12.3 17.46-11.28 5.16-16.73-8.05-12.3-17.46Z"/>
    </symbol>
    <symbol id="hoyre-hest" x="150" y="-199" width="1371" height="1119" viewBox="0 0 1371 1119">
      <title>Hest</title>
      <path fill="#1E1A28" d="M1370.47 999.36c0-53.17-10.94-243.57-13.55-275.99-12.64-156.44-17.45-226.1-33.04-259.95-4.71-10.2-13.1-42.73-49.09-84.85s-49.26-45.18-74.76-57.76c-43.82-29.42-134.62-56.12-205.25-48.63-58.21 6.18-137.46 14.9-195.78 21.93-73.35 8.79-136.55 10.04-188.41-26.52-7.83-5.5-73.75-59.07-80.6-64-47.56-34.63-100.96-58.9-152.37-87.06-47.78-26.25-130.37-46.65-150.66-50.73-4.65-6.4-7.66-15.2-10.89-22.56a98.66 98.66 0 0 0-15.47-23.87c-.74-.9-1.53-1.75-2.32-2.5-6.35-6.68-13.5-12.3-21.15-16.32-7.48 17.92-7.08 40.82.23 61.85-3.29.28-8.16.96-13.77 2.43-8.5-23.24-26.36-42.34-46.43-48.86a78.31 78.31 0 0 0-1.92 24.55c0 1.02.1 2.04.28 3.11a88.97 88.97 0 0 0 6.52 25c2.43 5.56 5.61 11.56 7.48 17.52-16.27 18.19-29.42 39.67-42.06 60.7-22.33 37.41-39.9 77.49-63.03 114.16-18.87 29.76-30.1 50.05-19.5 84.86 4.93 16.15 13.5 21.6 24.77 26.24 21.03 8.67 50.45 7.54 57.2-7.14 4.13-9.07 9.69-19.16 17.57-24.66a677.88 677.88 0 0 1 68.36-41.55c13.77-7.14 29.41-11.62 44.72-14.34 5.16-.96 13.94 6 17.46 11.62 12.8 20.18 23.58 41.72 36.05 62.13 33.5 55.03 69.72 107.97 71.19 176.96 2.15 18.65 6.12 30.04 12.81 42.4 17.18 31.29 17.63 31.23 34.97 59.29 5.62 9.06 10.38 20.74 14.63 33.44 8.56 30.04 38.2 134.85 39.79 145.22 3.97 26.47-2.6 182.12-4.42 192.15a7889.65 7889.65 0 0 0-16.9 104.3c-.79 5.5.97 6.18 2.73 6.18h64.9c4.42 0 4.3-1.53 4.25-4.42l-8.33-39.17s0-15.65 1.19-18.48c1.13-2.83 20.74-13.55 23.58-20.8 1.92-4.88-1.99-154.58-1.36-163.42.62-8.84 15.64-51.92 17.34-61.5.74-4.14 1.7-38.6 2.67-81.74 14.05 39.46 28.9 81.97 29.64 86.84 1.42 9.3-4.14 182.63-5.78 192.16-1.7 9.52-15.7 95.45-17.06 104.29-.63 4.2.96 6.18 2.72 6.18h64.33c4.42 0 4.31-1.53 4.25-4.42l-7.65-39.17s.29-15.19 1.2-18.48c.9-3.23 20.85-13.54 24.08-20.8 2.44-5.44-3.12-154.57-2.15-163.42.96-8.84 15.59-47.44 17.63-61.5.9-6.17 2.1-55.66 3.23-110.8 26.19.05 62.24-.52 106.56-.97 106.17-1.65 165.85-9.87 216.36-14.57 21.03 43.02 55.83 121.19 57.87 131.39 2.38 12.19-3.17 177.42-5.78 192.15-2.61 14.8-15.82 95.4-17.06 104.3-.57 4.25.96 6.18 2.72 6.18h65.01c4.42 0 4.31-1.53 4.25-4.42l-8.33-39.17s-.56-13.89 1.19-18.48c1.76-4.53 22.73-15.53 23.75-20.8.97-5.05.57-85.14 1.02-100.73.4-15.53 19.28-113.08 20.52-124.19.8-7.31-5.38-83.1-8.27-128.27 17.79 42.74 57.02 125.27 59.06 133.37 2.38 9.58-4.53 185.01-5.78 192.16-1.25 7.14-15.48 95.45-17.06 104.29-.57 3.4.96 6.18 2.72 6.18h64.96c4.42 0 4.3-1.53 4.25-4.42l-8.28-39.17s-.91-13.03 1.19-18.48c2.1-5.44 21.03-13.43 23.58-20.8 2.55-7.37-1.25-87.86 1.14-100.72 2.38-12.87 19.49-113.08 20.51-124.2.91-10.37-9.97-137.96-9.8-158.88 3.06-24.71 5.72-41.2 8.44-55.1 4.37-14.1 8.85-26.97 12.98-46.25 7.77-29.75 9.07-74.87 6.58-107.47 9.52 40.53 12.3 101.47 11.96 168.58-.23 46.14 7.76 95.4 8.39 192.6.28 47.05-3.86 154.07-3.86 154.07l85.25 41.43-.11.29Z"/>
    </symbol>
    <symbol id="hoyre-kylling" x="100" y="380" width="541" height="541" viewBox="0 0 541 541">
      <title>Kylling</title>
      <path fill="#F9CC76" d="M279.84 329.54c-1.08-2.16-2.9-6.98-5.84-5.96l-65.81 26.82c-8.39 1.19-16.95 1.13-25.73-1.02-19.28-4.77-38.78-8.62-58.22-12.53-8.9-1.76-14.4-6.18-17.46-15.02-6.8-18.76-15.07-38.32-30.04-52.1-3.68-2.6-20.18-15.58-24.31-16.89 10.08-12.47-5.22-22.5-21.54-21.42-9.87 1.36-17.4 5.16-20.64 10.66-3 5.5-1.24 10.2-.22 17.28.34 1.87-.17 2.67-1.53 4.03-3 2.83-5.5 4.7-8 7.08-.05.06-.1.17 0 .29l.51 1.36c0 .11.17.17.23.17 3.97.28 7.77.34 11.73.56 2.67.17 3.4 1.02 2.84 3.97-2.21 9.13 1.19 21.37 12.98 19.56C15.52 336.96 15.8 367 33.89 409.8c16.6 28.74 37.75 67.96 76.3 84 3.8 1.2 5.04 2.5 5.32 5.16 0 0-11.73 29.3-14.28 31-2.55 1.7-6.63 1.93-12.02 2.73-6.23.9-3.9.45-9.58 1.75-3.28.8-4.42 3.4-4.36 4.37.05.96 0 1.81 1.36 1.81h51.35c2.38-.11 2.78-1.02 2.9-3.06.05-1.24.4-3.57-2.9-3.8l-11-1.41 13.61-34.07c4.08-.9 22.84-2.83 23.58-2.78 7.65.51 10.66 18.93 11.34 22.45.79 4.3 1.98 10.83 1.41 11.56-.85 1.14-3.23 2.27-6.46 2.78 0 0-8.16 1.36-11.73 2.1-3 .62-5.1 2.89-5.1 4.53 0 1.2.28 1.76 2.72 1.76h48.86c1.64 0 2.2-1.76 2.2-3.17 0-1.6-.22-2.9-1.52-3.35-3.97-1.47-10.43-1.53-15.65-2.32l-5.78-46.94c4.54-4.59 15.99-11.56 26.59-19.21 26.98-18.82 48.69-48.63 62.63-72.95 9.07-17.23 25.85-41.72 16.21-63.15l-.05-.05Z"/>
    </symbol>
    <symbol id="hoyre-hund" x="100" y="380" width="881" height="637" viewBox="0 0 881 637">
      <title>Hund</title>
      <path fill="#7F433B" d="M880.15 300.65c-20.63 7.37-63.15 14.8-80.38 9.69-23.92-7.08-37.47-28.34-55.77-49.65-9.81-11.4-35.66-29.88-49.94-40.98-11.96-9.3-58.78-25.8-75.9-28.12-20.8-2.83-67.8-4.76-117.67-1.76-39.9 2.44-84.4 5.27-100.27 3-15.93-2.26-82.3-19.89-94.6-26.24-9.08-4.65-22.17-11.45-32.77-21.54-10.71-10.82-24.66-25.96-27.72-30.5-4.36-6.34-24.65-41.94-31.8-48.51-1.02-.97-3.11-2.84-5.83-5.27a83.1 83.1 0 0 0 5.27-4.03c2.83-2.6 4.76-8.78 1.58-14.9-3.17-6.13-12.7-16.56-17.4-19.79C190.78 17.8 165.44 2.5 154.61.8c-6.86-1.08-8.84 3.34-9.4 7.76-.4-.05-.52 0-.75 0-5.89-.17-44.66 5.39-50.1 8.05-5.44 2.67-30.38 32.82-33.73 33.9-3.34 1.02-50.39 9.86-54.81 11.62-4.42 1.75-5.73 4.82-4.65 12.8 1.08 8 4.2 30.62 7.14 34.98 2.95 4.37 11.8 13.66 22.68 16.78 10.88 3.17 51.7 12.07 60.82 19.55 9.18 7.49 20.63 27.38 24.14 40.3 3.35 12.25 10.72 35.66 17.4 60.71.8 4.2 1.65 9.19 2.73 15.48 3.74 21.76 16.5 56.96 26.24 73.46 7.94 13.37 22.28 45.85 28.57 62.8h-.4c3.29 9.24 7.09 19.44 9.41 47.78 3.29 40.42 8.39 105.95 8.45 115.41 0 11.11-3.86 24.6-8.56 40.64-1.14 3.91-5 4.88-6.7 8-2.88 5.2-2.88 13.48-2.26 18.02.63 4.7 4.25 7.42 6.97 7.42h26.36c.68 0 3.85-.68 4.99-2.89 5.78-11.33 21.2-50.39 22.16-59.57 2.16-20 11.4-117.56 14.8-153.67 1.3.12 2.66.17 3.96.29 3.24 21.2 7.43 48.97 8.1 54.19 1.03 8.27 9.7 73.29 10.84 86.95.96 11.5-3.35 42.62-5.73 45.46-1.87 2.2-2.83 3.17-4.14 5.27-3.06 4.82-2.77 10.54-1.98 17.46.4 3.11 3.23 6.4 5.72 6.4h28.69c2.43 0 5.95-3.17 7.2-5.72 4.7-9.41 15.8-62.7 16.15-69.21.34-6.92 3.57-100.56 5.55-140.3 43.14-2.15 130.77-6.34 182.18-9.18 19.67 45.3 46.76 108.21 48.98 115.64 1.8 6.12 2.04 23.12 1.92 34.86-.05 8.73-10.88 40.58-11.56 42.9-.68 2.33-4.82 4.6-7.14 9.08a16.53 16.53 0 0 0-1.59 12.07c1.13 4.93 2.66 9.86 6.12 9.86h28.51c6.52 0 9.07-10.71 9.07-10.71s28.23-102.2 28.23-109.85c0-7.2-9.64-55.9-10.88-64.45 18.53 33.27 35.76 64.79 37.92 70.57 2.2 6 3.97 25.34 3.97 34.92 0 8.38-7.94 46.48-9.19 48.52-1.19 2.1-3.9 4.13-5.9 7.88-1.86 3.4-2.71 9.74-2.2 16.1.28 3.56 3.46 7.02 6.12 7.02h29.13c7.54 0 8.68-9.58 8.68-9.58s22.95-108.04 22.95-116.6c0-8.55-10.88-64.73-11.05-71.3-.11-5.78 10.2-51.02 11.96-62.4 1.59-8.57 2.38-32.32 2.38-32.32.62-17-2.83-52.82-2.83-53.17 9.4 11.8 22.33 26.82 33.33 34.64 15.07 10.71 33.15 24.37 54.98 26.07 21.82 1.7 55.2-7.65 63.88-10.66 27.1-9.35 21.76-40.13 21.76-40.13l-.05-.05Z"/>
    </symbol>
    <symbol id="hoyre-katt" x="100" y="380" width="541" height="541" viewBox="0 0 541 541">
      <title>Katt</title>
      <path fill="#C58F79" d="M451.89 463.44c-2.57-5.25-10.57-14.96-14.62-23.25-5.09-10.45-11.03-35.86-10.4-47.46 1.94-34.55 1.14-49.11-11.13-74.07-2.18-4.63-1.89-3.89-1.95-9.65-.11-5.77 5.54-11.08 9.94-23.25 4.4-12.16 10.11-41.52 14.1-68.3 5.03-33.59 1.2-45.58-7.99-68.88-8.9-22.5-25.7-27.13-32.9-29.59-7.2-2.51-25.7-6.05-25.47 3.03.29 9.14 6.34 8.85 14.68 12.45 8.28 3.6 14.9 16.1 19.65 31.81 6 20.05 3.02 33.76 2.22 51.46-.85 17.7-9.42 46.2-12.45 54.77-3.02 8.57-6.9 11.08-15.76 12.11-65.1 2.57-144.95 7.02-210.46 5.88l.29-.11c-16.85-.63-43.12-23.19-47.35-27.07-4.23-3.89-23.82-26.85-25.93-29.3-2.11-2.4-6.05-5.71-10.28-16.62-4.23-10.91-11.88-26.56-14.16-25.08-6.97 4.52-8.46 19.02-8.46 19.02-3.6-10.85-11.02-13.3-12.16-12.68-.74.4-1.32 11.49 0 16.91-1.32 2.4-23.76 10.28-27.36 12.97-3.6 2.74-4.85 9.36-6.62 12.67-1.83 3.32-13.6 7.26-16 10.11-2.4 2.86-.62 8.91 0 12.23.63 3.3 3.6 6.62 8.46 14.16 4.85 7.54 17.19 4.23 20.84 4.23 3.66 0 12.97 14.16 17.3 19.41 9.26 20.74 34.22 82.19 48.04 116.57-.51 14.22-8.5 81.33-10 85.1-1.6 4-9.7 16.05-12.05 18.5-1.14 1.2-5.94 4.29-5.42 10.06.51 5.76 2.57 8.73 4.4 8.73h13.76c4.28 0 5.66-3.37 8.34-6.5 2.68-3.15 12.5-14.97 15.3-20.05 2.12-3.77 25.6-51.23 38.39-76.94 6.85 18.51 16.39 45.35 18.33 50.6 3.08 8.23 23.99 33.65 26.27 40.44 2.4 4 1.83 11.25 7.82 12.45h8.06c1.83 0 7.48-4.4 8.1-7.53 5.5-12.68-12.33-27.76-17.41-39.01-4.86-8.4-6.34-10.97-6.45-13.25-.3-3.89 2.28-38.56 3.6-56.89 26.2-.63 57.68-1.6 83.6-2.51a942.99 942.99 0 0 1 10.86 32.61c2.45 7.82 7.48 22.73 8.62 28.56 1.43 7.42 2 10.45-1.65 14.16-3.43 3.54-22.9 22.5-25.13 23.59-5.49 2.8-8.74 6.34-8.8 11.2 0 5.48 2.63 9.02 5.88 9.02h13.71c3.08 0 8.34-5.31 17.65-12.74 8.22-6.57 36.38-30.21 39-37 2.46-6.35 0-14.97.98-21.43.68-4.68 5.7-22.95 10.28-38.95 6 8 10.9 14.57 12.39 16.5 10.57 13.89 35.98 23.6 45 28.56 9.43 5.2 13.88 11.09 12.17 17.82-1.37 5.32-5.48 25.02-6.51 26.96-.97 1.94-4.34 3.03-5.77 7.77-1.43 4.74-.17 10.9 4.63 12.22 0 0 14.16.29 18.16.29s7.48-10.63 9.25-15.77c2.11-6.05 15.82-50.48 10.62-61.05h-.05Z"/>
    </symbol>
    <symbol id="hoyre-ku" x="150" y="40" width="1484" height="889" viewBox="0 0 1484 889">
      <title>Ku</title>
      <path fill="#7F433B" d="M1483.13 597.13c.22-20.8-7.6-41.5-21.43-57.02-3.63-5.45-12.41-14.35-12.7-22.68l-.11.12c-2.32-93.59-2.83-246.69-10.26-334.83-4.19-21.76-36.28-58.27-49.03-66.66-11.9-10.6-26.53-19.1-41.09-20.52-27.15-3.51-190.97 2.84-220.78 7.77-205.93 14.85-570.06 27.15-779.33-16.55v.11a38029.3 38029.3 0 0 1-73.46-12.64C274.88 24.92 253.68.88 253.68.88c-40.24 7.77-45.17 42.35-45.17 42.35C189.97.32 150.69-.37 150.52 1c-12.13 21.25-6.46 56.8 1.36 72.95-1.7 5.67-7.2 13.43-23.13 28.62-29.64 28.23-27.54 47.33-29.64 56.46-2.1 9.12-72.04 121.41-84.06 134.1-18.99 19.8-20.07 52.78 2.83 65.65 29.48 17.85 34.18 10.65 58.16 8.61 23.98-2.04 21.94-6.12 28.51-11.73 6.58-5.61 5.61-5.1 16.84-5.61 11.22-.51 76.4-8.67 124.3-14.8 41.1-5.27 59.8 5.22 80.55 22.45v.11c36.39 27.6 42.4 88.37 70.57 141.43 6.57 20.74 26.98 58.15 59.74 71.93.8 4.2 20.3 166.98 25 208.13-.4 21.1-8.28 42.57-12.7 69.84v33.9c0 4.19 1.7 5.95 4.82 5.95l63.43-.12c3.28 0 4.42-3.12 4.81-4.87 11.23-48.3 8.73-69.44 11.57-145.28 1.3-33.33 2.77-78.1 3.45-100.9l15.65-15.98c9.8 29.08 19.04 73.4 20.24 83.27 2.43 35.42 1.07 119.82-7.77 151.68v27.38c0 2.89 1.13 4.7 3.06 4.7h65.07c3.18 0 4.99-1.7 5.61-3.68.97-3 5.05-23.24 7.09-36.28.4-2.38 3-90.8 3-90.8-.34-25.51-1.98-107.87 1.3-165.74 163.3 7.37 282.97 9.24 436.52 3.06 8.22 40.75 50.05 72.66 102.65 77.65 1.13 65.07-2.66 110.14-16.04 161.89-6.69 17.4-7.82 43.76-7.94 47.84-.05 2.04-.79 6.18 3.01 6.18h64.05c3.74 0 5.16-1.87 6.01-5.33 4.99-26.02 13.37-82.2 23.18-113.88 7.71-28.56 7.54-62.75 12.75-98.57l22.05 11.11h.12c6.23 17.63 12.86 39.74 14.85 49.43 5.67 37.47 10.99 110.47 3 149.98-.28 2.9.23 7.31 4.59 7.26 3.63-.06 56.57 0 60.88 0 5.5 0 6.24-4.7 6.69-6.98 14.45-50.95-2.21-148.22-4.82-216.98 4.08-39.67 1.82-172.65 1.76-215.22 2.66-66.77 7.03-98.17 10.48-199.18l14.29 137.17c.62 41.1 1.87 113.48-1.59 156.27-7.88 20.35-7.65 43.99.97 64.22 0 .29.11.51.28.68 7.31 17.24 20.69 31.97 37.35 41.21a85.12 85.12 0 0 0 18.25-52.83l-.22-.1-.17-.12Z"/>
    </symbol>
  </g>
</svg>