<svg xmlns="http://www.w3.org/2000/svg">
  <symbol id="pants" x="-119" y="305" width="271" height="615" viewBox="0 0 271 615">
    <path fill="var(--color-shoes)" d="M15.25 584.98S8.15 604 7.34 608.21c-.81 3.65-2.58 4.95 10.47 5.07 0 0 77.47 1.22 82.75 0 3.49-.8 7.85-5.64 5.49-27.2l-90.81-1.1h.01ZM171.62 586.2s-1.25 18.27 1.44 22.25c2.71 3.98 4.32 6.55 28.11 5.24 0 0 67.09 1.21 69.22-.5 2.13-1.74-10.1-28.27-10.1-28.27l-88.68 1.27h.01Z"/>
    <path fill="var(--color-under)" d="M7.65 6.15c-.53 35.93-5.3 223.28-5.82 243.51C1.02 269.91.48 442.14.48 461.24c0 19.1-.54 124.02 1.87 127.44 2.42 3.42 102.49 5.98 107.58 2.28 5.1-3.7 0-173.07.8-193.32.54-20.25 3.76-120.33.54-201.88-3.22-81.55 2.63-96.64 4.52-96.64 1.89 0 3.53-4 11.04 72.98 7.5 77 22.8 217 26.02 250.92 3.22 34.22 12.07 166.82 15.57 168.24 3.49 1.43 98.2-.28 101.4-1.42 3.23-1.14-5.1-111.79-6.15-124.05-1.07-12.27-22.54-284.29-23.61-298.84A69246.12 69246.12 0 0 1 229.33.43S116.1.71 106.46 1.57c-9.93.56-98.81 4.56-98.81 4.56h.02l-.02.02Z"/>
  </symbol>
  <g id="overdel">
    <title>Overdel</title>
    <symbol id="overdel-genser" x="-113" y="0" width="226" height="318" viewBox="0 0 226 318">
      <title>Genser</title>
      <path fill="var(--color-over)" d="M222.43 242.6c.13 28.2 2.24 55.4 2.8 67.35 0 0-114.48 11.41-161.52 5.75 0 0-60.17-2.7-63.3-2.7 0 0 .75-49.5.7-77.66.4-42.97 1.27-79.48 2.4-110.25C4.67 94.33-1.85 32.16 37.87 11.66 62.73-1.18 72.5 1.88 107.06.17c21.5-.86 49.99 1.42 69.8 11.49 41.67 21.17 38.33 68.5 41.12 106.37 1.9 44.45 3.34 87.54 4.46 124.56h-.01Z"/>
    </symbol>
    <symbol id="overdel-forkle" x="-120" y="0" width="249" height="560" viewBox="0 0 249 560">
      <title>Forkle</title>
      <path fill="var(--color-over)" d="M228.57 242.6c.14 28.2 2.25 55.4 2.8 67.35 0 0-114.48 11.41-161.52 5.75 0 0-60.17-2.7-63.3-2.7 0 0 .75-49.5.7-77.66.41-42.97 1.27-79.48 2.41-110.25C10.8 94.33 4.3 32.16 44.01 11.66 68.88-1.18 78.64 1.88 113.21.17c21.5-.86 49.99 1.42 69.8 11.49 41.67 21.17 38.33 68.5 41.12 106.37 1.9 44.45 3.34 87.54 4.46 124.56h-.02Z"/>
      <path fill="var(--color-apron)" d="M7.55 208.8s21.67-3.57 28.5-5c6.83-1.41 7.97-193.46 7.97-193.46s9.86-4.8 15.35-6.7c1.43-.48 8.66 113.4 9.51 123.04 0 0 87.09-1.99 91.06-2.55 0 0 2.06-94.12 2.63-100.06l1.95-20.01s14.26 3.75 17.67 5.73c3.41 2 4.2 141.1 7.06 188.45 0 0-1.68.71 9.06 1.3 7.16.13 29.8 1.8 29.8 1.8L248.52 556 0 560l7.54-351.2Z"/>
    </symbol>
    <symbol id="overdel-gravid" x="-120" y="0" xmlns="http://www.w3.org/2000/svg" width="253" height="384" viewBox="0 0 253 384">
      <title>Gravid</title>
      <path fill="var(--color-over)" d="M228.57 242.6c.13 28.2 2.25 55.4 2.8 67.35 0 0-114.48 11.41-161.52 5.75 0 0-60.17-2.7-63.3-2.7 0 0 .75-49.5.7-77.66.41-42.97 1.27-79.48 2.41-110.25C10.8 94.33 4.3 32.16 44.01 11.66 68.88-1.18 78.64 1.88 113.21.17c21.5-.86 49.99 1.42 69.8 11.49 41.67 21.17 38.33 68.5 41.12 106.37 1.9 44.45 3.34 87.54 4.46 124.56h-.02Z"/>
      <path fill="var(--color-over)" d="M126.61 383.34c69.62 0 126.1-50.6 126.1-113.03s-56.43-113.03-126.1-113.03C56.94 157.28.51 207.88.51 270.3s56.43 113.03 126.1 113.03Z"/>
    </symbol>
    <symbol id="overdel-seletop" x="-113" y="0" width="227" height="345" viewBox="0 0 227 345">
      <title>Seletop</title>
      <path fill="var(--color-over)" d="M222.575 242.594C222.705 270.798 224.815 297.992 225.375 309.951C225.375 309.951 110.895 321.36 63.8547 315.695C63.8547 315.695 3.68469 313.008 0.554688 313.008C0.554688 313.008 1.30469 263.495 1.25469 235.341C1.66469 192.371 2.52469 155.856 3.66469 125.095C4.80469 94.3335 -1.70919 32.1583 38.0108 11.6476C62.8808 -1.1803 72.6447 1.88053 107.215 0.172139C128.713 -0.693683 157.198 1.58509 177.016 11.6561C218.683 32.8305 215.339 80.1673 218.125 118.031C220.035 162.479 221.465 205.569 222.585 242.594H222.575Z"/>
      <path fill="var(--color-under)" d="M1.5544 208.804C1.5544 208.804 23.2244 205.227 30.0544 203.808C36.8844 202.39 38.0244 10.3424 38.0244 10.3424C38.0244 10.3424 47.875 5.54643 53.365 3.63823C54.795 3.15868 62.0344 117.04 62.8844 126.681C62.8844 126.681 149.964 124.693 153.944 124.133C153.944 124.133 156.004 30.0117 156.574 24.0673C157.144 18.1129 158.52 4.05839 158.52 4.05839C158.52 4.05839 172.78 7.80525 176.19 9.79338C179.6 11.7815 180.394 150.898 183.244 198.243C183.244 198.243 181.574 198.953 192.304 199.542C199.464 199.672 222.114 201.331 222.114 201.331L226.762 344.507H0.0644259L1.5544 208.804Z"/>
    </symbol>
    <symbol id="overdel-skjorte" x="-113" y="0" width="226" height="318" viewBox="0 0 226 318">
      <title>Slips</title>
      <path fill="var(--color-over)" d="M222.57 242.6c.14 28.2 2.25 55.4 2.8 67.35 0 0-114.48 11.41-161.52 5.75 0 0-60.17-2.7-63.3-2.7 0 0 .75-49.5.7-77.66.41-42.97 1.27-79.48 2.41-110.25C4.8 94.33-1.7 32.16 38.01 11.66 62.88-1.18 72.64 1.88 107.21.17c21.5-.86 49.99 1.42 69.8 11.49 41.67 21.17 38.33 68.5 41.12 106.37 1.9 44.45 3.34 87.54 4.46 124.56h-.02Z"/>
      <path fill="var(--color-under)" d="M142.16 241.57c4.16-17.28 6.07-35.22 7.58-53.43 1.07-12.6-.14-24.81-2.74-36.48-2.96-17.9-7.2-38.74-11.2-56.7-3.9-17.59-6.53-32.93-11.03-45.8 3.07-5.65 5.67-11.48 8.76-17 5.12-8.73 9.54-17.44 14.86-27.3-12.82 1.15-24.03 2.14-35.3 3.33-10.99 1.05-21.24-2.83-32.44-3.03 2.56 5.6 17.88 27.94 28.55 42.17-3.9 12.46-6.9 24.15-11.31 46.4-5.76 23.06-9.83 43.92-11.82 67.1-2.5 29.17-1.12 57.18 5.96 83.67 5.63 24.19 11.7 36.11 27.17 50.02 9.7-13.57 18.29-33.67 22.96-52.95Z"/>
    </symbol>
  </g>
  <g id="hand-hoyre">
    <title>Høyre</title>
    <symbol id="hand-hoyre-ned" x="-425" y="1.5" width="401" height="461" viewBox="0 0 401 461">
      <title>Ned</title>
      <path fill="var(--color-skin)" d="M284.33 385.8c4.52 9.17 14.8 33.83 11.9 45.64-2.9 11.8-4.96 14.13-20.23 27.4-3.44 2.99-9.95 5.02-17.6-9.24-7.66-14.27-12.98-31.7-10.16-46.23 2.84-14.53 4.28-12.16 4.28-12.16l31.8-5.4h.01Z"/>
      <path fill="var(--color-over)" d="M350.39 9.65s-37.95 23.92-51.61 43.58c-23.1 33.23-42.88 77.75-48.65 162.77-6.42 94.58-8.65 181.4-8.77 182.8l55.79-1.2c.1-1.4.2-70.33 10.95-194.72 3-35 14.66-55.9 25.57-91.28L350.39 9.65Z"/>
    </symbol>
    <symbol id="hand-hoyre-inn" x="-425" y="1.5" width="401" height="460" viewBox="0 0 401 460">
      <title>Inn</title>
      <path fill="var(--color-skin)" d="M329.75 304.47c9.43 3.14 33.5 13 39.5 23.4 6 10.38 6.12 13.52 4.4 33.95-.4 4.61-3.6 10.77-18.74 6.31-15.12-4.46-30.77-12.83-38.67-25.09-7.9-12.26-5.27-11.65-5.27-11.65l18.77-26.92h.01Z"/>
      <path fill="var(--color-over)" d="M350.63 9.68c-10.67 5.58-56.28 29.85-92.15 80.2-13.09 18.37-40.87 63-40.87 90.43.94 70.34 80.5 148.73 89.84 160.18l41.21-35.22c-2.62-1.58-22.6-24.5-37.3-43.84-20.49-38.19-33.66-63.95-33.66-81.12 7.55-28.71 20.25-48.04 39.94-65.32L350.63 9.68Z"/>
    </symbol>
    <symbol id="hand-hoyre-opp" x="-425" y="1.5" height="466" viewBox="0 0 401 466" width="401">
      <title>Opp</title>
      <path fill="var(--color-skin)" d="m103.7 46.34c-4.13-10.67-16.74-37.7-28.96-43.6-12.22-5.9-11.32 1.46-9.34 6.26 2.07 5 8.41 19.34-7.54 6.75-6.97-5.5-15.7-10.23-23.92-11.98-5.1-1.1-10.33 2.75-4.39 19.92 5.95 17.16 16.4 34.53 30.84 42.46 14.44 7.91 13.61 4.91 13.61 4.91l29.7-24.7z"/>
      <path fill="var(--color-over)" d="m297.84 140.74a819.51 819.51 0 0 0 38.21-21.53l14.58-103.53c-9.68 5.03-20.21 12.02-25.4 15.72-34.97 24.91-56.5 51.83-114.09 73.19-16.1 5.97-48.93-18.8-74-39.86-12.64-10.6-28-24.56-30.57-28.36l-41.12 37.94c10.16 10.74 65.26 80.19 134.12 95.16 26.81 5.82 78.4-18.1 98.3-28.72z"/>
    </symbol>
    <symbol id="hand-hoyre-rett" x="-425" y="1.5" width="401" height="460" viewBox="0 0 401 460">
      <title>Rett</title>
      <path fill="var(--color-skin)" d="m94.33 103.19-18.4 33.88s1.92 2.49-14.62.38c-16.56-2.11-32.96-14.5-45.08-28.33-12.1-13.83-8.68-19.33-3.47-20.17 8.35-1.36 18.35-.14 26.96 2.44 19.73 5.92 8.33-5.15 4.48-9.05-3.67-3.74-7.31-10.3 6.39-9.24 13.69 1.05 35.8 21.65 43.72 30.09h.02Z"/>
      <path fill="var(--color-over)" d="M336.62 104.18c-26.44 14.36-29.3 24.18-74.1 45.64-24.54 11.76-39.78 20.1-67.82 19.8-23.13-.22-74-4.88-126.95-19.77C71.5 140.9 91.62 94.8 91.62 94.8c40.72 9.47 96.1 11.27 108.88 10.78 7.44-.28 24.85-7.86 33.13-12.47 33.6-21.95 36.62-26.96 62.57-47.44 16.24-12.8 38.68-27.4 54.69-36l-14.27 94.5Z"/>
    </symbol>
    <symbol id="hand-hoyre-ut" x="-425" y="1.5" width="401" height="460" viewBox="0 0 401 460">
      <title>Ut</title>
      <path fill="var(--color-skin)" d="m132.47 232.07 1.13 38.62s2.87 1.2-12.27 7.68c-15.15 6.5-35.26 4-52.44-1.9s-17-12.4-12.97-15.75c6.45-5.38 15.56-9.34 24.19-11.44 19.75-4.79 4.54-8.65-.67-10.1-4.98-1.4-11.33-5.24.85-11.2 12.19-5.99 41.24.76 52.18 4.1Z"/>
      <path fill="var(--color-over)" d="M244.98 147.06c22.49-36.6 24.33-40.75 44.77-71.06 11.56-17.14 19.25-30.99 31.4-42.66 11.7-11.23 19.38-18.62 28.97-23.66l-6.57 100.18c-17.27 24.61-6.83 12.48-42.65 67.5-14.7 22.55-22.9 40.44-43.55 51.86-22.08 12.21-59.14 38.8-126.82 54.43-1.1-9.66-5.61-59.46-5.61-59.46 79.76-23.35 110.4-61.4 120.06-77.13Z"/>
    </symbol>
  </g>
  <g id="hand-venstre">
    <title>Venstre</title>
    <symbol id="hand-venstre-ut" x="12" y=".6" width="401" height="461" viewBox="0 0 401 461">
      <title>Ut</title>
      <path fill="var(--color-skin)" d="m267.8 232.64-1.12 38.62s-2.87 1.19 12.27 7.68c15.15 6.49 35.26 4 52.44-1.91 17.18-5.9 16.99-12.4 12.97-15.74-6.45-5.38-15.56-9.34-24.2-11.44-19.74-4.8-4.53-8.65.68-10.1 4.98-1.4 11.33-5.24-.85-11.21-12.2-5.98-41.24.77-52.18 4.1Z"/>
      <path fill="var(--color-over)" d="M155.3 147.63c-22.5-36.61-24.33-40.75-44.77-71.06-11.56-17.14-19.25-31-31.4-42.66-11.7-11.23-19.38-18.63-28.97-23.66l6.57 100.18c17.27 24.6 6.83 12.48 42.65 67.49 14.69 22.56 22.9 40.45 43.55 51.87 22.08 12.2 59.14 38.79 126.82 54.43 1.09-9.66 5.6-59.46 5.6-59.46-79.75-23.35-110.4-61.41-120.05-77.13Z"/>
    </symbol>
    <symbol id="hand-venstre-inn" x="12" y=".6" width="401" height="461" viewBox="0 0 401 461">
      <title>Inn</title>
      <path fill="var(--color-skin)" d="M71.53 305.04c-9.43 3.14-33.5 12.99-39.5 23.39-6 10.39-6.12 13.53-4.4 33.96.4 4.6 3.6 10.77 18.74 6.3 15.12-4.45 30.77-12.82 38.67-25.08 7.9-12.26 5.27-11.65 5.27-11.65l-18.77-26.92h-.01Z"/>
      <path fill="var(--color-over)" d="M50.65 10.25c10.67 5.58 56.28 29.85 92.15 80.2 13.09 18.37 40.87 62.99 40.87 90.43-.94 70.34-80.5 148.73-89.84 160.18l-41.21-35.22c2.62-1.58 22.6-24.51 37.3-43.84 20.49-38.2 33.66-63.95 33.66-81.12-7.55-28.72-20.26-48.04-39.94-65.33L50.65 10.25Z"/>
    </symbol>
    <symbol id="hand-venstre-ned" x="12" y=".6" width="401" height="464" viewBox="0 0 401 464">
      <title>Ned</title>
      <path fill="var(--color-skin)" d="M126.81 388.27c-4.52 9.16-14.8 33.82-11.9 45.63s4.96 14.13 20.23 27.4c3.44 2.99 9.95 5.02 17.61-9.24 7.65-14.27 12.97-31.7 10.15-46.23-2.84-14.53-4.28-12.16-4.28-12.16l-31.79-5.4z"/>
      <path fill="var(--color-over)" d="M51.12 10.35s33.17 18.94 51.6 43.57c23.1 33.23 47.55 79.36 53.32 164.38a13659.5 13659.5 0 0 0 13.62 181.6l-55.79-1.2c-.1-1.4-1.67-65.81-12.4-190.2-3.71-42.9-16.03-82.98-33.63-96.21z"/>
    </symbol>
    <symbol id="hand-venstre-opp" x="12" y=".6" width="401" height="466" viewBox="0 0 401 466">
      <title>Opp</title>
      <path fill="var(--color-skin)" d="M297.58 45.91c4.12-10.67 16.73-37.7 28.95-43.6 12.22-5.9 11.32 1.46 9.35 6.25-2.07 5-8.4 19.34 7.54 6.75 6.97-5.5 15.71-10.23 23.92-11.98 5.11-1.1 10.33 2.75 4.4 19.92-5.96 17.16-16.4 34.53-30.85 42.46-14.44 7.92-13.6 4.92-13.6 4.92l-29.7-24.7v-.02Z"/>
      <path fill="var(--color-over)" d="M103.44 140.3a819.26 819.26 0 0 1-38.22-21.53L50.65 15.25c9.68 5.03 20.21 12.02 25.4 15.72 34.96 24.9 56.5 51.83 114.08 73.18 16.12 5.97 48.94-18.79 74.02-39.85 12.63-10.6 28-24.56 30.56-28.36l41.12 37.94c-10.16 10.74-65.26 80.18-134.12 95.15-26.81 5.83-78.4-18.09-98.3-28.72h.03Z"/>
    </symbol>
    <symbol id="hand-venstre-rett" x="12" y=".6" width="401" height="461" viewBox="0 0 401 461">
      <title>Rett</title>
      <path fill="var(--color-skin)" d="m307.98 103.55 18.4 33.88s-1.92 2.5 14.62.38c16.56-2.1 32.95-14.5 45.07-28.33 12.11-13.83 8.7-19.33 3.48-20.17-8.36-1.36-18.35-.14-26.97 2.44-19.73 5.92-8.32-5.15-4.48-9.05 3.67-3.74 7.32-10.29-6.38-9.24-13.69 1.05-35.8 21.65-43.72 30.1h-.02Z"/>
      <path fill="var(--color-over)" d="M64.66 104.74c26.43 14.36 29.3 24.18 74.1 45.64 24.54 11.76 39.78 20.1 67.82 19.81 23.13-.23 74-4.89 126.94-19.78a9813.98 9813.98 0 0 0-23.87-55.04c-40.72 9.47-96.09 11.27-108.88 10.78-7.43-.28-24.85-7.86-33.12-12.47-33.6-21.95-36.62-26.96-62.58-47.44-16.23-12.79-38.67-27.39-54.68-36l14.27 94.5Z"/>
    </symbol>
  </g>
  <g id="haar">
    <title>Hode</title>
    <symbol id="haar-topp" x="-109" y="-186" width="218" height="223" viewBox="0 0 218 223">
      <title>Topp</title>
      <path fill="var(--color-skin)" d="M170.63 118.34c-.36-1.93-2.06-2.97-4.05-3.82.81-15.57-2.43-25.47-9.36-35.46-5.81-8.39-13.93-16.74-25.31-20.81-10.1-3.61-34.82-2.66-44.75 1.34-23.76 9.03-33.11 31.1-34.33 55.5-2.03.52-3.83 1.27-4.42 3.1-1.3 3.11-1.96 6.07-1.11 9.5.79 2.77 2.56 4.5 6.1 6.87.95 11.34 4.54 22.2 10.4 31.2l1.22 1.85C74.25 181.76 86.6 190 101.37 190h11.64c14.7 0 28.61-8.16 37.84-22.2l3.67-5.6c5.52-8.38 9.06-18.42 10.31-29.05 3.02-1.52 4.69-2.91 5.7-5.23 1.27-3.26 1-6.29.1-9.58Z"/>
      <path fill="var(--color-hair)" d="M139.02 61.32c-6.06-3.2-12.28-6.01-19.07-7.23a19.24 19.24 0 0 0 6.77-5.61l1.44-1.9a20.91 20.91 0 0 0 4.08-10.21l.42-3.6c.59-5.03-.63-10.11-3.4-14.23l-1.07-1.59c-2.34-3.48-4.92-5.16-9.42-6.17a28.98 28.98 0 0 0-16.98 1.11c-7.43 2.59-12.6 9.73-13.07 18l-.24 4.06c-.28 5 1.2 9.93 4.15 13.84l.47.63c1.72 2.27 3.7 4.09 5.95 5.37-14.49 2.48-28.91 11.02-36.53 22.17-12.06 20.1-10.02 23.14-11.5 35-.2 1.53.07 3.05.18 4.56 2.92.47 5.9.72 8.96.72 22.65 0 42.18-13.72 51.14-33.5 8.58 20.84 28.59 35.92 50.96 32.6 1.4-.21 2.9-.67 4.28-.84.35-2.86.26-5.25.29-8.21.17-16.3-10.23-35.68-27.81-44.97Z"/>
    </symbol>
    <symbol id="haar-skallet" x="-109" y="-186" width="218" height="223" viewBox="0 0 218 223">
      <title>Skallet</title>
      <path fill="var(--color-skin)" d="M170.63 118.34c-.36-1.93-2.06-2.97-4.05-3.82.81-15.57-2.43-25.47-9.36-35.46-5.81-8.39-13.93-16.74-25.31-20.81-10.1-3.61-34.82-2.66-44.75 1.34-23.76 9.03-33.11 31.1-34.33 55.5-2.03.52-3.83 1.27-4.42 3.1-1.3 3.11-1.96 6.07-1.11 9.5.79 2.77 2.56 4.5 6.1 6.87.95 11.34 4.54 22.2 10.4 31.2l1.22 1.85C74.25 181.76 86.6 190 101.37 190h11.64c14.7 0 28.61-8.16 37.84-22.2l3.67-5.6c5.52-8.38 9.06-18.42 10.31-29.05 3.02-1.52 4.69-2.91 5.7-5.23 1.27-3.26 1-6.29.1-9.58Z"/>
    </symbol>
    <symbol id="haar-sideskill" x="-109" y="-186" width="218" height="223" viewBox="0 0 218 223">
      <title>Sideskill</title>
      <path fill="var(--color-skin)" d="M170.63 118.34c-.36-1.93-2.06-2.97-4.05-3.82.81-15.57-2.43-25.47-9.36-35.46-5.81-8.39-13.93-16.74-25.31-20.81-10.1-3.61-34.82-2.66-44.75 1.34-23.76 9.03-33.11 31.1-34.33 55.5-2.03.52-3.83 1.27-4.42 3.1-1.3 3.11-1.96 6.07-1.11 9.5.79 2.77 2.56 4.5 6.1 6.87.95 11.34 4.54 22.2 10.4 31.2l1.22 1.85C74.25 181.76 86.6 190 101.37 190h11.64c14.7 0 28.61-8.16 37.84-22.2l3.67-5.6c5.52-8.38 9.06-18.42 10.31-29.05 3.02-1.52 4.69-2.91 5.7-5.23 1.27-3.26 1-6.29.1-9.58Z"/>
      <path fill="var(--color-hair)" d="M166.21 102.45c-2.34-20.63-13.65-38.14-35.9-45.36-11.34-3.68-25.23-5.46-37.19-2.5-1.23.3-2.1.18-4.35.66-20.42 4.35-41.97 31.72-37.3 56.63.23 1.2.5 2.37.8 3.52 2.2-.02 4.7.54 6.64-.63 10.06-6.08 23.82-20.29 29.81-36.1 7.33 27.46 52.87 39.33 73.66 37.43 1.75-.17 3.3-.97 4.94-1.55-.04-3.68-.68-8.35-1.1-12.1Z"/>
    </symbol>
    <symbol id="haar-sideknute" x="-109" y="-186" width="218" height="223" viewBox="0 0 218 223">
      <title>Sideknute</title>
      <path fill="var(--color-skin)" d="M170.63 118.34c-.36-1.93-2.06-2.97-4.05-3.82.81-15.57-2.43-25.47-9.36-35.46-5.81-8.39-13.93-16.74-25.31-20.81-10.1-3.61-34.82-2.66-44.75 1.34-23.76 9.03-33.11 31.1-34.33 55.5-2.03.52-3.83 1.27-4.42 3.1-1.3 3.11-1.96 6.07-1.11 9.5.79 2.77 2.56 4.5 6.1 6.87.95 11.34 4.54 22.2 10.4 31.2l1.22 1.85C74.25 181.76 86.6 190 101.37 190h11.64c14.7 0 28.61-8.16 37.84-22.2l3.67-5.6c5.52-8.38 9.06-18.42 10.31-29.05 3.02-1.52 4.69-2.91 5.7-5.23 1.27-3.26 1-6.29.1-9.58Z"/>
      <path fill="var(--color-hair)" d="M200.47 136.95c-1.6-8.2-11.5-18.87-14.92-24.19-9.05-14.15-12.78-21.42-12.78-21.42-9.87-20.17-31.3-36.87-55.67-38.03-12.55-.6-25.82-.37-37.74 6.67-.07.03.06-.04 0 0-17.29 8.64-30.88 31.5-27.54 51.74.2 1.12.42 2.23.7 3.32 2.01-.06 4.3.45 6.1-.7 8.33-5.3 19.48-16.77 25.87-29.89 19.16 29 57.86 39.38 82.07 30v.08c1.99.85 3.7 1.89 4.05 3.82.9 3.3 1.17 6.34-.1 9.6-1.02 2.32-2.69 3.7-5.71 5.23-1.25 10.65-4.8 20.7-10.33 29.1l-3.68 5.59a54.06 54.06 0 0 1-10.5 11.86c.73 2.44 5.57 15.64 23.89 11.85 19.32-4 19.07-5.82 27.4-14.7 9.15-9.78 12.48-21.43 8.9-39.93Z"/>
    </symbol>
    <symbol id="haar-midtskill" x="-109" y="-186" width="218" height="223" viewBox="0 0 218 223">
      <title>Midtskill</title>
      <path fill="var(--color-skin)" d="M170.63 118.34c-.36-1.93-2.06-2.97-4.05-3.82.81-15.57-2.43-25.47-9.36-35.46-5.81-8.39-13.93-16.74-25.31-20.81-10.1-3.61-34.82-2.66-44.75 1.34-23.76 9.03-33.11 31.1-34.33 55.5-2.03.52-3.83 1.27-4.42 3.1-1.3 3.11-1.96 6.07-1.11 9.5.79 2.77 2.56 4.5 6.1 6.87.95 11.34 4.54 22.2 10.4 31.2l1.22 1.85C74.25 181.76 86.6 190 101.37 190h11.64c14.7 0 28.61-8.16 37.84-22.2l3.67-5.6c5.52-8.38 9.06-18.42 10.31-29.05 3.02-1.52 4.69-2.91 5.7-5.23 1.27-3.26 1-6.29.1-9.58Z"/>
      <path fill="var(--color-hair)" d="M139.83 59.5c-7.86-4.24-16.02-7.82-25.3-8.1-2.18-.26-4.39-.4-6.63-.4-17.16 0-36.13 9.87-45.3 23.56-12.17 20.67-10.11 23.8-11.62 36-.19 1.58.08 3.14.2 4.7 2.95.48 5.96.74 9.04.74 22.87 0 42.59-14.11 51.63-34.47 8.67 21.44 28.87 36.96 51.46 33.54 1.4-.22 2.83-.17 4.23-.34.34-2.94.35-5.92.37-8.97.18-16.77-10.32-36.7-28.08-46.26Z"/>
    </symbol>
    <symbol id="haar-kroller" x="-109" y="-186" width="218" height="223" viewBox="0 0 218 223">
      <title>Krøller</title>
      <path fill="var(--color-skin)" d="M170.62 118.34c-.36-1.93-2.06-2.97-4.05-3.82.81-15.57-2.43-25.47-9.35-35.46-5.82-8.39-13.94-16.74-25.32-20.81-10.1-3.61-34.82-2.66-44.75 1.34-23.76 9.03-33.11 31.1-34.33 55.5-2.03.52-3.83 1.27-4.41 3.1-1.31 3.11-1.97 6.07-1.12 9.5.79 2.77 2.56 4.5 6.1 6.87.96 11.34 4.54 22.2 10.41 31.2l1.22 1.85C74.24 181.76 86.59 190 101.36 190H113c14.7 0 28.62-8.16 37.84-22.2l3.67-5.6c5.52-8.38 9.06-18.42 10.31-29.05 3.02-1.52 4.69-2.91 5.7-5.23 1.27-3.26 1-6.29.1-9.58Z"/>
      <path fill="var(--color-hair)" d="M186.85 94.02c-3.08-12-16.97-18.12-16.97-18.12s8.6-10.47-2.15-18.12c-10.75-7.64-19.6-3.2-19.6-3.2s.23-9.16-12.91-14.1c-13.15-4.94-21.53 2.42-21.53 2.42s-10.04-7.24-23.44-2.42c-13.4 4.83-12.87 14.5-12.87 14.5s-20.85-1.61-29.22 9.66c-8.36 11.27 0 20.13 0 20.13s-14.34 4.84-14.34 16.9c0 12.07 14.34 17.31 14.34 17.31l4.16-3.79c1.14-.24 2.28-.48 3.42-.77 17.9-4.4 32.24-13.6 40.47-24.61 14.83 13.61 36.6 21.39 59.4 20.5 2.23 5.25 6.15 10.72 12.72 10.72 20.8 0 21.04-17.25 18.53-27v-.01Z"/>
    </symbol>
    <symbol id="haar-hestehale" x="-109" y="-186" width="218" height="223" viewBox="0 0 218 223">
      <title>Hestehale</title>
      <path fill="var(--color-skin)" d="M170.63 118.34c-.36-1.93-2.06-2.97-4.05-3.82.81-15.57-2.43-25.47-9.36-35.46-5.81-8.39-13.93-16.74-25.31-20.81-10.1-3.61-34.82-2.66-44.75 1.34-23.76 9.03-33.11 31.1-34.33 55.5-2.03.52-3.83 1.27-4.42 3.1-1.3 3.11-1.96 6.07-1.11 9.5.79 2.77 2.56 4.5 6.1 6.87.95 11.34 4.54 22.2 10.4 31.2l1.22 1.85C74.25 181.76 86.6 190 101.37 190h11.64c14.7 0 28.61-8.16 37.84-22.2l3.67-5.6c5.52-8.38 9.06-18.42 10.31-29.05 3.02-1.52 4.69-2.91 5.7-5.23 1.27-3.26 1-6.29.1-9.58Z"/>
      <path fill="var(--color-hair)" d="m65.03 167.6-1.22-1.85c-5.48-8.41-8.97-18.44-10.2-28.97-12.81 13.09-20 30.63-17.03 49.39.28 1.8.24 3.63.47 5.43 3.73.42 7.5.39 11.39.39 10.03.03 20.74-3.36 30.52-9.34-5.21-3.74-9.88-8.82-13.94-15.05ZM139.84 59.49c-7.87-4.24-16.03-7.82-25.31-8.1-2.17-.25-4.38-.4-6.62-.4-17.17 0-36.13 9.88-45.3 23.57-12.18 20.68-10.12 23.8-11.62 36-.2 1.58.08 3.14.19 4.69 2.95.49 5.96.75 9.04.75 22.87 0 41.2-15.5 51.64-34.47 9.06 17.97 28.86 36.96 51.45 33.55 1.4-.22 2.84-.17 4.23-.34.35-2.94.35-5.92.37-8.97.18-16.77-10.33-36.7-28.08-46.26v-.02Z"/>
    </symbol>
    <symbol id="haar-hestehale-profil" x="-183" y="-186" width="292" height="223" viewBox="0 0 292 223">
      <title>Hestehale i profil</title>
      <path fill="var(--color-skin)" d="M230.93 79.06c-4.89-8.96-13.93-16.74-25.31-20.8-10.1-3.62-34.82-2.67-44.75 1.34-23.76 9.03-33.1 31.1-34.33 55.48-2.03.53-3.83 1.28-4.42 3.1-1.3 3.12-1.96 6.08-1.11 9.51.79 2.77 2.56 4.5 6.1 6.87.95 11.35 4.54 22.2 10.4 31.2l1.22 1.85c9.23 14.15 21.58 22.4 36.35 22.4h11.64c14.7 0 28.61-8.17 37.84-22.22l3.67-5.59c5.52-8.38 9.79-19.41 11.21-36.16 2.3-27.09-3-36.89-8.5-46.98Z"/>
      <path fill="var(--color-hair)" d="M234.68 86.36c1.3 36.19-67.4 50.68-102 61.34-12.67 3.9-11.59 40.15-80.61 63.84C-1.5 223.03.79 169.56.79 169.56c10.3-60.88 89.52-12.31 118.7-42.35.1-10.96 6.06-33.53 10.87-43.8 8.33-17.79 26.67-27.9 53.16-29.73 22.5-1.55 42.85 10.57 51.16 32.68Z"/>
    </symbol>
    <symbol id="haar-halvlangt" x="-109" y="-186" width="218" height="223" viewBox="0 0 218 223">
      <title>Halvlangt</title>
      <path fill="var(--color-skin)" d="M170.63 118.34c-.36-1.93-2.06-2.97-4.05-3.82.81-15.57-2.43-25.47-9.36-35.46-5.81-8.39-13.93-16.74-25.31-20.81-10.1-3.61-34.82-2.66-44.75 1.34-23.76 9.03-33.11 31.1-34.33 55.5-2.03.52-3.83 1.27-4.42 3.1-1.3 3.11-1.96 6.07-1.11 9.5.79 2.77 2.56 4.5 6.1 6.87.95 11.34 4.54 22.2 10.4 31.2l1.22 1.85C74.25 181.76 86.6 190 101.37 190h11.64c14.7 0 28.61-8.16 37.84-22.2l3.67-5.6c5.52-8.38 9.06-18.42 10.31-29.05 3.02-1.52 4.69-2.91 5.7-5.23 1.27-3.26 1-6.29.1-9.58Z"/>
      <path fill="var(--color-hair)" d="M177.07 123.59c-2.31-9.62-6.4-21.44-10.66-32.2-4.45-12.09-14.2-23.66-26.97-30.3-7.02-3.92-13.48-7.28-21.29-8.16 0-.01 0 .01 0 0a56.14 56.14 0 0 0-9-.73c-17.09 0-35.97 9.64-45.1 23.02-6.03 8.83-9.15 13.93-10.7 17.64-4.46 8.77-9.46 21.7-12.2 31.05l-6.73 24.28c2.49 5.68 14.94 9.65 23.95 7.09a70.46 70.46 0 0 1-4.94-20.69c-3.54-2.36-5.3-4.1-6.1-6.86-.84-3.43-.19-6.38 1.12-9.48.59-1.83 2.39-2.58 4.42-3.1V115c2.87.46 5.8.7 8.8.7 22.72 0 42.33-13.74 51.36-33.57 8.76 20.94 29.01 36 51.5 32.48.68-.1 1.35-.16 2.03-.2l-.01.16c1.99.85 3.7 1.89 4.05 3.82.9 3.28 1.16 6.31-.11 9.56-1.02 2.32-2.68 3.7-5.69 5.22-.9 7.67-3 15.04-6.19 21.69 8.91 1.7 16.65 3.67 24-3.86l-5.55-27.41v-.01Z"/>
    </symbol>
    <symbol id="haar-caps-skallet" x="-109" y="-186" width="227" height="223" viewBox="0 0 227 223">
      <title>Caps og skallet</title>
      <path fill="var(--color-skin)" d="M170.63 118.34c-.36-1.93-2.06-2.97-4.05-3.82.81-15.57-2.43-25.47-9.36-35.46-5.81-8.39-13.93-16.74-25.31-20.81-10.1-3.61-34.82-2.66-44.75 1.34-23.76 9.03-33.11 31.1-34.33 55.5-2.03.52-3.83 1.27-4.42 3.1-1.3 3.11-1.96 6.07-1.11 9.5.79 2.77 2.56 4.5 6.1 6.87.95 11.34 4.54 22.2 10.4 31.2l1.22 1.85C74.25 181.76 86.6 190 101.37 190h11.64c14.7 0 28.61-8.16 37.84-22.2l3.67-5.6c5.52-8.38 9.06-18.42 10.31-29.05 3.02-1.52 4.69-2.91 5.7-5.23 1.27-3.26 1-6.29.1-9.58Z"/>
      <path fill="var(--color-caps)" d="m49.47 106.13 177.45-49.89s-3.4-5.4-7.96-5.4c-4.55 0-63.7 13.6-63.7 13.6S135.85 30.3 87.02 48.2c-45.56 16.7-37.55 57.94-37.55 57.94Z"/>
    </symbol>
    <symbol id="haar-caps-sideskill" x="-109" y="-186" width="227" height="223" viewBox="0 0 227 223">
      <title>Caps og sideskill</title>
      <path fill="var(--color-skin)" d="M170.63 118.34c-.36-1.93-2.06-2.97-4.05-3.82.81-15.57-2.43-25.47-9.36-35.46-5.81-8.39-13.93-16.74-25.31-20.81-10.1-3.61-34.82-2.66-44.75 1.34-23.76 9.03-33.11 31.1-34.33 55.5-2.03.52-3.83 1.27-4.42 3.1-1.3 3.11-1.96 6.07-1.11 9.5.79 2.77 2.56 4.5 6.1 6.87.95 11.34 4.54 22.2 10.4 31.2l1.22 1.85C74.25 181.76 86.6 190 101.37 190h11.64c14.7 0 28.61-8.16 37.84-22.2l3.67-5.6c5.52-8.38 9.06-18.42 10.31-29.05 3.02-1.52 4.69-2.91 5.7-5.23 1.27-3.26 1-6.29.1-9.58Z"/>
      <path fill="var(--color-hair)" d="M166.21 102.45c-2.34-20.63-13.65-38.14-35.9-45.36-11.34-3.68-25.23-5.46-37.19-2.5-1.23.3-2.1.18-4.35.66-20.42 4.35-41.97 31.72-37.3 56.63.23 1.2.5 2.37.8 3.52 2.2-.02 4.7.54 6.64-.63 10.06-6.08 23.82-20.29 29.81-36.1 7.33 27.46 52.87 39.33 73.66 37.43 1.75-.17 3.3-.97 4.94-1.55-.04-3.68-.68-8.35-1.1-12.1Z"/>
      <path fill="var(--color-caps)" d="m49.47 106.13 177.45-49.89s-3.4-5.4-7.96-5.4c-4.55 0-63.7 13.6-63.7 13.6S135.85 30.3 87.02 48.2c-45.56 16.7-37.55 57.94-37.55 57.94Z"/>
    </symbol>
    <symbol id="haar-caps-sideknute" x="-109" y="-186" width="227" height="223" viewBox="0 0 227 223">
      <title>Caps og sideknute</title>
      <path fill="var(--color-skin)" d="M170.63 118.34c-.36-1.93-2.06-2.97-4.05-3.82.81-15.57-2.43-25.47-9.36-35.46-5.81-8.39-13.93-16.74-25.31-20.81-10.1-3.61-34.82-2.66-44.75 1.34-23.76 9.03-33.11 31.1-34.33 55.5-2.03.52-3.83 1.27-4.42 3.1-1.3 3.11-1.96 6.07-1.11 9.5.79 2.77 2.56 4.5 6.1 6.87.95 11.34 4.54 22.2 10.4 31.2l1.22 1.85C74.25 181.76 86.6 190 101.37 190h11.64c14.7 0 28.61-8.16 37.84-22.2l3.67-5.6c5.52-8.38 9.06-18.42 10.31-29.05 3.02-1.52 4.69-2.91 5.7-5.23 1.27-3.26 1-6.29.1-9.58Z"/>
      <path fill="var(--color-hair)" d="M200.47 136.95c-1.6-8.2-11.5-18.87-14.92-24.19-9.05-14.15-12.78-21.42-12.78-21.42-9.87-20.17-31.3-36.87-55.67-38.03-12.55-.6-25.82-.37-37.74 6.67-.07.03.06-.04 0 0-17.29 8.64-30.88 31.5-27.54 51.74.2 1.12.42 2.23.7 3.32 2.01-.06 4.3.45 6.1-.7 8.33-5.3 19.48-16.77 25.87-29.89 19.16 29 57.86 39.38 82.07 30v.08c1.99.85 3.7 1.89 4.05 3.82.9 3.3 1.17 6.34-.1 9.6-1.02 2.32-2.69 3.7-5.71 5.23-1.25 10.65-4.8 20.7-10.33 29.1l-3.68 5.59a54.06 54.06 0 0 1-10.5 11.86c.73 2.44 5.57 15.64 23.89 11.85 19.32-4 19.07-5.82 27.4-14.7 9.15-9.78 12.48-21.43 8.9-39.93Z"/>
      <path fill="var(--color-caps)" d="m49.47 106.13 177.45-49.89s-3.4-5.4-7.96-5.4c-4.55 0-63.7 13.6-63.7 13.6S135.85 30.3 87.02 48.2c-45.56 16.7-37.55 57.94-37.55 57.94Z"/>
    </symbol>
    <symbol id="haar-caps-midtskill" x="-109" y="-186" width="227" height="223" viewBox="0 0 227 223">
      <title>Caps og midtskill</title>
      <path fill="var(--color-skin)" d="M170.63 118.34c-.36-1.93-2.06-2.97-4.05-3.82.81-15.57-2.43-25.47-9.36-35.46-5.81-8.39-13.93-16.74-25.31-20.81-10.1-3.61-34.82-2.66-44.75 1.34-23.76 9.03-33.11 31.1-34.33 55.5-2.03.52-3.83 1.27-4.42 3.1-1.3 3.11-1.96 6.07-1.11 9.5.79 2.77 2.56 4.5 6.1 6.87.95 11.34 4.54 22.2 10.4 31.2l1.22 1.85C74.25 181.76 86.6 190 101.37 190h11.64c14.7 0 28.61-8.16 37.84-22.2l3.67-5.6c5.52-8.38 9.06-18.42 10.31-29.05 3.02-1.52 4.69-2.91 5.7-5.23 1.27-3.26 1-6.29.1-9.58Z"/>
      <path fill="var(--color-hair)" d="M139.83 59.5c-7.86-4.24-16.02-7.82-25.3-8.1-2.18-.26-4.39-.4-6.63-.4-17.16 0-36.13 9.87-45.3 23.56-12.17 20.67-10.11 23.8-11.62 36-.19 1.58.08 3.14.2 4.7 2.95.48 5.96.74 9.04.74 22.87 0 42.59-14.11 51.63-34.47 8.67 21.44 28.87 36.96 51.46 33.54 1.4-.22 2.83-.17 4.23-.34.34-2.94.35-5.92.37-8.97.18-16.77-10.32-36.7-28.08-46.26Z"/>
      <path fill="var(--color-caps)" d="m49.47 106.13 177.45-49.89s-3.4-5.4-7.96-5.4c-4.55 0-63.7 13.6-63.7 13.6S135.85 30.3 87.02 48.2c-45.56 16.7-37.55 57.94-37.55 57.94Z"/>
    </symbol>
    <symbol id="haar-caps-hestehale" x="-109" y="-186" width="227" height="223" viewBox="0 0 227 223">
      <title>Caps og hestehale</title>
      <path fill="var(--color-skin)" d="M170.63 118.34c-.36-1.93-2.06-2.97-4.05-3.82.81-15.57-2.43-25.47-9.36-35.46-5.81-8.39-13.93-16.74-25.31-20.81-10.1-3.61-34.82-2.66-44.75 1.34-23.76 9.03-33.11 31.1-34.33 55.5-2.03.52-3.83 1.27-4.42 3.1-1.3 3.11-1.96 6.07-1.11 9.5.79 2.77 2.56 4.5 6.1 6.87.95 11.34 4.54 22.2 10.4 31.2l1.22 1.85C74.25 181.76 86.6 190 101.37 190h11.64c14.7 0 28.61-8.16 37.84-22.2l3.67-5.6c5.52-8.38 9.06-18.42 10.31-29.05 3.02-1.52 4.69-2.91 5.7-5.23 1.27-3.26 1-6.29.1-9.58Z"/>
      <path fill="var(--color-hair)" d="m65.03 167.6-1.22-1.85c-5.48-8.41-8.97-18.44-10.2-28.97-12.81 13.09-20 30.63-17.03 49.39.28 1.8.24 3.63.47 5.43 3.73.42 7.5.39 11.39.39 10.03.03 20.74-3.36 30.52-9.34-5.21-3.74-9.88-8.82-13.94-15.05ZM139.84 59.49c-7.87-4.24-16.03-7.82-25.31-8.1-2.17-.25-4.38-.4-6.62-.4-17.17 0-36.13 9.88-45.3 23.57-12.18 20.68-10.12 23.8-11.62 36-.2 1.58.08 3.14.19 4.69 2.95.49 5.96.75 9.04.75 22.87 0 41.2-15.5 51.64-34.47 9.06 17.97 28.86 36.96 51.45 33.55 1.4-.22 2.84-.17 4.23-.34.35-2.94.35-5.92.37-8.97.18-16.77-10.33-36.7-28.08-46.26v-.02Z"/>
      <path fill="var(--color-caps)" d="m49.47 106.13 177.45-49.89s-3.4-5.4-7.96-5.4c-4.55 0-63.7 13.6-63.7 13.6S135.85 30.3 87.02 48.2c-45.56 16.7-37.55 57.94-37.55 57.94Z"/>
    </symbol>
    <symbol id="haar-caps-hestehale-profil" x="-183" y="-186" width="299" height="223" viewBox="0 0 299 223">
      <title>Caps og hestehale i profil</title>
      <path fill="var(--color-skin)" d="M230.93 79.06c-4.89-8.96-13.93-16.74-25.31-20.8-10.1-3.62-34.82-2.67-44.75 1.34-23.76 9.03-33.1 31.1-34.33 55.48-2.03.53-3.83 1.28-4.42 3.1-1.3 3.12-1.96 6.08-1.11 9.51.79 2.77 2.56 4.5 6.1 6.87.95 11.35 4.54 22.2 10.4 31.2l1.22 1.85c9.23 14.15 21.58 22.4 36.35 22.4h11.64c14.7 0 28.61-8.17 37.84-22.22l3.67-5.59c5.52-8.38 9.79-19.41 11.21-36.16 2.3-27.09-3-36.89-8.5-46.98Z"/>
      <path fill="var(--color-hair)" d="M234.68 86.36c1.3 36.19-67.4 50.68-102 61.34-12.67 3.9-11.59 40.15-80.61 63.84C-1.5 223.03.79 169.56.79 169.56c10.3-60.88 89.52-12.31 118.7-42.35.1-10.96 6.06-33.53 10.87-43.8 8.33-17.79 26.67-27.9 53.16-29.73 22.5-1.55 42.85 10.57 51.16 32.68Z"/>
      <path fill="var(--color-caps)" d="m121.47 106.13 177.45-49.89s-3.4-5.4-7.96-5.4c-4.55 0-63.7 13.6-63.7 13.6S207.85 30.3 159.02 48.2c-45.56 16.7-37.55 57.94-37.55 57.94Z"/>
    </symbol>
    <symbol id="haar-caps-halvlangt" x="-109" y="-186" width="227" height="223" viewBox="0 0 227 223">
      <title>Caps og halvlangt</title>
      <path fill="var(--color-skin)" d="M170.63 118.34c-.36-1.93-2.06-2.97-4.05-3.82.81-15.57-2.43-25.47-9.36-35.46-5.81-8.39-13.93-16.74-25.31-20.81-10.1-3.61-34.82-2.66-44.75 1.34-23.76 9.03-33.11 31.1-34.33 55.5-2.03.52-3.83 1.27-4.42 3.1-1.3 3.11-1.96 6.07-1.11 9.5.79 2.77 2.56 4.5 6.1 6.87.95 11.34 4.54 22.2 10.4 31.2l1.22 1.85C74.25 181.76 86.6 190 101.37 190h11.64c14.7 0 28.61-8.16 37.84-22.2l3.67-5.6c5.52-8.38 9.06-18.42 10.31-29.05 3.02-1.52 4.69-2.91 5.7-5.23 1.27-3.26 1-6.29.1-9.58Z"/>
      <path fill="var(--color-hair)" d="M177.07 123.59c-2.31-9.62-6.4-21.44-10.66-32.2-4.45-12.09-14.2-23.66-26.97-30.3-7.02-3.92-13.48-7.28-21.29-8.16 0-.01 0 .01 0 0a56.14 56.14 0 0 0-9-.73c-17.09 0-35.97 9.64-45.1 23.02-6.03 8.83-9.15 13.93-10.7 17.64-4.46 8.77-9.46 21.7-12.2 31.05l-6.73 24.28c2.49 5.68 14.94 9.65 23.95 7.09a70.46 70.46 0 0 1-4.94-20.69c-3.54-2.36-5.3-4.1-6.1-6.86-.84-3.43-.19-6.38 1.12-9.48.59-1.83 2.39-2.58 4.42-3.1V115c2.87.46 5.8.7 8.8.7 22.72 0 42.33-13.74 51.36-33.57 8.76 20.94 29.01 36 51.5 32.48.68-.1 1.35-.16 2.03-.2l-.01.16c1.99.85 3.7 1.89 4.05 3.82.9 3.28 1.16 6.31-.11 9.56-1.02 2.32-2.68 3.7-5.69 5.22-.9 7.67-3 15.04-6.19 21.69 8.91 1.7 16.65 3.67 24-3.86l-5.55-27.41v-.01Z"/>
      <path fill="var(--color-caps)" d="m49.47 106.13 177.45-49.89s-3.4-5.4-7.96-5.4c-4.55 0-63.7 13.6-63.7 13.6S135.85 30.3 87.02 48.2c-45.56 16.7-37.55 57.94-37.55 57.94Z"/>
    </symbol>
    <symbol id="haar-skaut-skallet" x="-109" y="-186" width="227" height="223" viewBox="0 0 227 223">
      <title>Skaut og skallet</title>
      <path fill="var(--color-skin)" d="M170.63 118.34c-.36-1.93-2.06-2.97-4.05-3.82.81-15.57-2.43-25.47-9.36-35.46-5.81-8.39-13.93-16.74-25.31-20.81-10.1-3.61-34.82-2.66-44.75 1.34-23.76 9.03-33.11 31.1-34.33 55.5-2.03.52-3.83 1.27-4.42 3.1-1.3 3.11-1.96 6.07-1.11 9.5.79 2.77 2.56 4.5 6.1 6.87.95 11.34 4.54 22.2 10.4 31.2l1.22 1.85C74.25 181.76 86.6 190 101.37 190h11.64c14.7 0 28.61-8.16 37.84-22.2l3.67-5.6c5.52-8.38 9.06-18.42 10.31-29.05 3.02-1.52 4.69-2.91 5.7-5.23 1.27-3.26 1-6.29.1-9.58Z"/>
      <path fill="var(--color-hat)" d="M165.46 106.9s-2.21-4.05-10.39-11.42c-6.23-5.62-28.74-18.3-57.37-14.94-28.63 3.35-43.6 25.74-47.98 27.18-1.5.5-.44-22.46-.44-22.46s4.07-19.81 20.1-31.78c17.06-12.71 32.7-18.37 57.34-11.58 40.72 11.23 43.36 42.85 41 66.1l-2.26-1.14v.04Z"/>
    </symbol>
    <symbol id="haar-skaut-sideskill" x="-109" y="-186" width="227" height="223" viewBox="0 0 227 223">
      <title>Skaut og sideskill</title>
      <path fill="var(--color-skin)" d="M170.63 118.34c-.36-1.93-2.06-2.97-4.05-3.82.81-15.57-2.43-25.47-9.36-35.46-5.81-8.39-13.93-16.74-25.31-20.81-10.1-3.61-34.82-2.66-44.75 1.34-23.76 9.03-33.11 31.1-34.33 55.5-2.03.52-3.83 1.27-4.42 3.1-1.3 3.11-1.96 6.07-1.11 9.5.79 2.77 2.56 4.5 6.1 6.87.95 11.34 4.54 22.2 10.4 31.2l1.22 1.85C74.25 181.76 86.6 190 101.37 190h11.64c14.7 0 28.61-8.16 37.84-22.2l3.67-5.6c5.52-8.38 9.06-18.42 10.31-29.05 3.02-1.52 4.69-2.91 5.7-5.23 1.27-3.26 1-6.29.1-9.58Z"/>
      <path fill="var(--color-hair)" d="M166.21 102.45c-2.34-20.63-13.65-38.14-35.9-45.36-11.34-3.68-25.23-5.46-37.19-2.5-1.23.3-2.1.18-4.35.66-20.42 4.35-41.97 31.72-37.3 56.63.23 1.2.5 2.37.8 3.52 2.2-.02 4.7.54 6.64-.63 10.06-6.08 23.82-20.29 29.81-36.1 7.33 27.46 52.87 39.33 73.66 37.43 1.75-.17 3.3-.97 4.94-1.55-.04-3.68-.68-8.35-1.1-12.1Z"/>
      <path fill="var(--color-hat)" d="M165.46 106.9s-2.21-4.05-10.39-11.42c-6.23-5.62-28.74-18.3-57.37-14.94-28.63 3.35-43.6 25.74-47.98 27.18-1.5.5-.44-22.46-.44-22.46s4.07-19.81 20.1-31.78c17.06-12.71 32.7-18.37 57.34-11.58 40.72 11.23 43.36 42.85 41 66.1l-2.26-1.14v.04Z"/>
    </symbol>
    <symbol id="haar-skaut-sideknute" x="-109" y="-186" width="227" height="223" viewBox="0 0 227 223">
      <title>Skaut og sideknute</title>
      <path fill="var(--color-skin)" d="M170.63 118.34c-.36-1.93-2.06-2.97-4.05-3.82.81-15.57-2.43-25.47-9.36-35.46-5.81-8.39-13.93-16.74-25.31-20.81-10.1-3.61-34.82-2.66-44.75 1.34-23.76 9.03-33.11 31.1-34.33 55.5-2.03.52-3.83 1.27-4.42 3.1-1.3 3.11-1.96 6.07-1.11 9.5.79 2.77 2.56 4.5 6.1 6.87.95 11.34 4.54 22.2 10.4 31.2l1.22 1.85C74.25 181.76 86.6 190 101.37 190h11.64c14.7 0 28.61-8.16 37.84-22.2l3.67-5.6c5.52-8.38 9.06-18.42 10.31-29.05 3.02-1.52 4.69-2.91 5.7-5.23 1.27-3.26 1-6.29.1-9.58Z"/>
      <path fill="var(--color-hair)" d="M200.47 136.95c-1.6-8.2-11.5-18.87-14.92-24.19-9.05-14.15-12.78-21.42-12.78-21.42-9.87-20.17-31.3-36.87-55.67-38.03-12.55-.6-25.82-.37-37.74 6.67-.07.03.06-.04 0 0-17.29 8.64-30.88 31.5-27.54 51.74.2 1.12.42 2.23.7 3.32 2.01-.06 4.3.45 6.1-.7 8.33-5.3 19.48-16.77 25.87-29.89 19.16 29 57.86 39.38 82.07 30v.08c1.99.85 3.7 1.89 4.05 3.82.9 3.3 1.17 6.34-.1 9.6-1.02 2.32-2.69 3.7-5.71 5.23-1.25 10.65-4.8 20.7-10.33 29.1l-3.68 5.59a54.06 54.06 0 0 1-10.5 11.86c.73 2.44 5.57 15.64 23.89 11.85 19.32-4 19.07-5.82 27.4-14.7 9.15-9.78 12.48-21.43 8.9-39.93Z"/>
      <path fill="var(--color-hat)" d="M165.46 106.9s-2.21-4.05-10.39-11.42c-6.23-5.62-28.74-18.3-57.37-14.94-28.63 3.35-43.6 25.74-47.98 27.18-1.5.5-.44-22.46-.44-22.46s4.07-19.81 20.1-31.78c17.06-12.71 32.7-18.37 57.34-11.58 40.72 11.23 43.36 42.85 41 66.1l-2.26-1.14v.04Z"/>
    </symbol>
    <symbol id="haar-skaut-midtskill" x="-109" y="-186" width="227" height="223" viewBox="0 0 227 223">
      <title>Skaut og midtskill</title>
      <path fill="var(--color-skin)" d="M170.63 118.34c-.36-1.93-2.06-2.97-4.05-3.82.81-15.57-2.43-25.47-9.36-35.46-5.81-8.39-13.93-16.74-25.31-20.81-10.1-3.61-34.82-2.66-44.75 1.34-23.76 9.03-33.11 31.1-34.33 55.5-2.03.52-3.83 1.27-4.42 3.1-1.3 3.11-1.96 6.07-1.11 9.5.79 2.77 2.56 4.5 6.1 6.87.95 11.34 4.54 22.2 10.4 31.2l1.22 1.85C74.25 181.76 86.6 190 101.37 190h11.64c14.7 0 28.61-8.16 37.84-22.2l3.67-5.6c5.52-8.38 9.06-18.42 10.31-29.05 3.02-1.52 4.69-2.91 5.7-5.23 1.27-3.26 1-6.29.1-9.58Z"/>
      <path fill="var(--color-hair)" d="M139.83 59.5c-7.86-4.24-16.02-7.82-25.3-8.1-2.18-.26-4.39-.4-6.63-.4-17.16 0-36.13 9.87-45.3 23.56-12.17 20.67-10.11 23.8-11.62 36-.19 1.58.08 3.14.2 4.7 2.95.48 5.96.74 9.04.74 22.87 0 42.59-14.11 51.63-34.47 8.67 21.44 28.87 36.96 51.46 33.54 1.4-.22 2.83-.17 4.23-.34.34-2.94.35-5.92.37-8.97.18-16.77-10.32-36.7-28.08-46.26Z"/>
      <path fill="var(--color-hat)" d="M165.46 106.9s-2.21-4.05-10.39-11.42c-6.23-5.62-28.74-18.3-57.37-14.94-28.63 3.35-43.6 25.74-47.98 27.18-1.5.5-.44-22.46-.44-22.46s4.07-19.81 20.1-31.78c17.06-12.71 32.7-18.37 57.34-11.58 40.72 11.23 43.36 42.85 41 66.1l-2.26-1.14v.04Z"/>
    </symbol>
    <symbol id="haar-skaut-hestehale" x="-109" y="-186" width="227" height="223" viewBox="0 0 227 223">
      <title>Skaut og hestehale</title>
      <path fill="var(--color-skin)" d="M170.63 118.34c-.36-1.93-2.06-2.97-4.05-3.82.81-15.57-2.43-25.47-9.36-35.46-5.81-8.39-13.93-16.74-25.31-20.81-10.1-3.61-34.82-2.66-44.75 1.34-23.76 9.03-33.11 31.1-34.33 55.5-2.03.52-3.83 1.27-4.42 3.1-1.3 3.11-1.96 6.07-1.11 9.5.79 2.77 2.56 4.5 6.1 6.87.95 11.34 4.54 22.2 10.4 31.2l1.22 1.85C74.25 181.76 86.6 190 101.37 190h11.64c14.7 0 28.61-8.16 37.84-22.2l3.67-5.6c5.52-8.38 9.06-18.42 10.31-29.05 3.02-1.52 4.69-2.91 5.7-5.23 1.27-3.26 1-6.29.1-9.58Z"/>
      <path fill="var(--color-hair)" d="m65.03 167.6-1.22-1.85c-5.48-8.41-8.97-18.44-10.2-28.97-12.81 13.09-20 30.63-17.03 49.39.28 1.8.24 3.63.47 5.43 3.73.42 7.5.39 11.39.39 10.03.03 20.74-3.36 30.52-9.34-5.21-3.74-9.88-8.82-13.94-15.05ZM139.84 59.49c-7.87-4.24-16.03-7.82-25.31-8.1-2.17-.25-4.38-.4-6.62-.4-17.17 0-36.13 9.88-45.3 23.57-12.18 20.68-10.12 23.8-11.62 36-.2 1.58.08 3.14.19 4.69 2.95.49 5.96.75 9.04.75 22.87 0 41.2-15.5 51.64-34.47 9.06 17.97 28.86 36.96 51.45 33.55 1.4-.22 2.84-.17 4.23-.34.35-2.94.35-5.92.37-8.97.18-16.77-10.33-36.7-28.08-46.26v-.02Z"/>
      <path fill="var(--color-hat)" d="M165.46 106.9s-2.21-4.05-10.39-11.42c-6.23-5.62-28.74-18.3-57.37-14.94-28.63 3.35-43.6 25.74-47.98 27.18-1.5.5-.44-22.46-.44-22.46s4.07-19.81 20.1-31.78c17.06-12.71 32.7-18.37 57.34-11.58 40.72 11.23 43.36 42.85 41 66.1l-2.26-1.14v.04Z"/>
    </symbol>
    <symbol id="haar-skaut-halvlangt" x="-109" y="-186" width="227" height="223" viewBox="0 0 227 223">
      <title>Skaut og halvlangt</title>
      <path fill="var(--color-skin)" d="M170.63 118.34c-.36-1.93-2.06-2.97-4.05-3.82.81-15.57-2.43-25.47-9.36-35.46-5.81-8.39-13.93-16.74-25.31-20.81-10.1-3.61-34.82-2.66-44.75 1.34-23.76 9.03-33.11 31.1-34.33 55.5-2.03.52-3.83 1.27-4.42 3.1-1.3 3.11-1.96 6.07-1.11 9.5.79 2.77 2.56 4.5 6.1 6.87.95 11.34 4.54 22.2 10.4 31.2l1.22 1.85C74.25 181.76 86.6 190 101.37 190h11.64c14.7 0 28.61-8.16 37.84-22.2l3.67-5.6c5.52-8.38 9.06-18.42 10.31-29.05 3.02-1.52 4.69-2.91 5.7-5.23 1.27-3.26 1-6.29.1-9.58Z"/>
      <path fill="var(--color-hair)" d="M177.07 123.59c-2.31-9.62-6.4-21.44-10.66-32.2-4.45-12.09-14.2-23.66-26.97-30.3-7.02-3.92-13.48-7.28-21.29-8.16 0-.01 0 .01 0 0a56.14 56.14 0 0 0-9-.73c-17.09 0-35.97 9.64-45.1 23.02-6.03 8.83-9.15 13.93-10.7 17.64-4.46 8.77-9.46 21.7-12.2 31.05l-6.73 24.28c2.49 5.68 14.94 9.65 23.95 7.09a70.46 70.46 0 0 1-4.94-20.69c-3.54-2.36-5.3-4.1-6.1-6.86-.84-3.43-.19-6.38 1.12-9.48.59-1.83 2.39-2.58 4.42-3.1V115c2.87.46 5.8.7 8.8.7 22.72 0 42.33-13.74 51.36-33.57 8.76 20.94 29.01 36 51.5 32.48.68-.1 1.35-.16 2.03-.2l-.01.16c1.99.85 3.7 1.89 4.05 3.82.9 3.28 1.16 6.31-.11 9.56-1.02 2.32-2.68 3.7-5.69 5.22-.9 7.67-3 15.04-6.19 21.69 8.91 1.7 16.65 3.67 24-3.86l-5.55-27.41v-.01Z"/>
      <path fill="var(--color-hat)" d="M165.46 106.9s-2.21-4.05-10.39-11.42c-6.23-5.62-28.74-18.3-57.37-14.94-28.63 3.35-43.6 25.74-47.98 27.18-1.5.5-.44-22.46-.44-22.46s4.07-19.81 20.1-31.78c17.06-12.71 32.7-18.37 57.34-11.58 40.72 11.23 43.36 42.85 41 66.1l-2.26-1.14v.04Z"/>
    </symbol>
  </g>
  <g id="hoyre">
    <title>Høyre side</title>
    <symbol id="gris" x="100" y="380" width="813" height="540" viewBox="0 0 813 540">
      <title>Gris</title>
      <path fill="#F9C4AA" d="M765.9 111.6h.06c6.12 12.3 11.5 25.28 27.5 23.75 10.93.12 17.34-6.34 18.7-16.94 1.75-14.17-4.25-21.43-22.96-27.5 3.17-8.44 11.5-7.76 18.2-10.03-7.54-7.93-22.9-8.27-29.54.97-7.08 12.41-21.54 17.57-30.26 27.37-90.24-61.21-203.95-47.55-307.28-42.56-79.87 7.25-163.53 20.63-233.2 62.86-35.42 24.03-64.67 43.3-93.35 76.91-21.54-25.9-58.95-39.73-93.7-32.13-.05 2.55-.05 5.1 0 7.65 1.6 36.05 22.68 66.6 52.6 82.13-17.96 20.07-20.57 66.55-53.84 58.9-22.05-3.07-20.47 6.57-13.27 26.35 5.45 14.06 19.22 34.07 39.9 37.41 48.81 12.02 106.8 11.62 156.68 13.95 0 0 23.24 86.72 23.8 99.64.23 5.56-3.23 29.48-3.96 35.26-.34 2.6 1.02 3.86 2.1 3.86 1.07 0 28.56-.12 33.1 0 2.72.05 3.51-1.25 3.74-2.5.28-1.53 26.19-135.53 26.19-135.53 2.89-.17 3.23-.22 4.53-.22 0 0 34.46 81.79 36.33 91.09 1.2 6.06.8 43.3.85 45.06 0 1.64 1.2 2.15 1.76 2.15h32.37c1.87 0 2.5-.8 2.94-2.32 8.62-26.87 11.74-111.04 13.44-136.21 70.12 1.08 116.48 2.6 199.8-.06 0 0 21.32 85.82 21.15 96.59-.06 4.02-5 37.07-5.22 38.88-.22 1.42.23 3.07 1.53 3.07 1.14 0 26.98.05 35.09 0 1.7 0 3.06-1.2 3.57-3.35 8.67-35.6 20.46-100.38 23.3-133.94l6.4 3.8s22.05 64.73 22.1 77.94c0 4.98-4.3 39.28-5.83 51.12-.34 2.67 1.19 4.48 3.06 4.48 1.64 0 26.98.17 34.46 0a3.23 3.23 0 0 0 3.18-2.32c14.23-51.92 28.57-123.4 44.1-171.35.73-2.5 3.85-6.8 5.44-9.19 52.88-72.21 47.21-166.3-10.55-231.6-4.87-5.27-2.43-10.26 5-13.38v-.05Zm16.73-8.16c10.25-.05 22.27 7.83 12.3 17.46-11.28 5.16-16.73-8.05-12.3-17.46Z"/>
    </symbol>
  </g>
</svg>