<svg x="-120" y="0" xmlns="http://www.w3.org/2000/svg" width="253" height="384" viewBox="0 0 253 384"><path fill="var(--color-over)" d="M228.57 242.6c.13 28.2 2.25 55.4 2.8 67.35 0 0-114.48 11.41-161.52 5.75 0 0-60.17-2.7-63.3-2.7 0 0 .75-49.5.7-77.66.41-42.97 1.27-79.48 2.41-110.25C10.8 94.33 4.3 32.16 44.01 11.66 68.88-1.18 78.64 1.88 113.21.17c21.5-.86 49.99 1.42 69.8 11.49 41.67 21.17 38.33 68.5 41.12 106.37 1.9 44.45 3.34 87.54 4.46 124.56h-.02Z"/><path fill="var(--color-over)" d="M126.61 383.34c69.62 0 126.1-50.6 126.1-113.03s-56.43-113.03-126.1-113.03C56.94 157.28.51 207.88.51 270.3s56.43 113.03 126.1 113.03Z"/></svg>