<svg x="-113" y="0" width="227" height="345" viewBox="0 0 227 345" xmlns="http://www.w3.org/2000/svg">
<path d="M222.575 242.594C222.705 270.798 224.815 297.992 225.375 309.951C225.375 309.951 110.895 321.36 63.8547 315.695C63.8547 315.695 3.68469 313.008 0.554688 313.008C0.554688 313.008 1.30469 263.495 1.25469 235.341C1.66469 192.371 2.52469 155.856 3.66469 125.095C4.80469 94.3335 -1.70919 32.1583 38.0108 11.6476C62.8808 -1.1803 72.6447 1.88053 107.215 0.172139C128.713 -0.693683 157.198 1.58509 177.016 11.6561C218.683 32.8305 215.339 80.1673 218.125 118.031C220.035 162.479 221.465 205.569 222.585 242.594H222.575Z" fill="var(--color-over)"/>
<path d="M1.5544 208.804C1.5544 208.804 23.2244 205.227 30.0544 203.808C36.8844 202.39 38.0244 10.3424 38.0244 10.3424C38.0244 10.3424 47.875 5.54643 53.365 3.63823C54.795 3.15868 62.0344 117.04 62.8844 126.681C62.8844 126.681 149.964 124.693 153.944 124.133C153.944 124.133 156.004 30.0117 156.574 24.0673C157.144 18.1129 158.52 4.05839 158.52 4.05839C158.52 4.05839 172.78 7.80525 176.19 9.79338C179.6 11.7815 180.394 150.898 183.244 198.243C183.244 198.243 181.574 198.953 192.304 199.542C199.464 199.672 222.114 201.331 222.114 201.331L226.762 344.507H0.0644259L1.5544 208.804Z" fill="var(--color-under)"/>
</svg>
