<svg x="-113" y="0" xmlns="http://www.w3.org/2000/svg" width="226" height="318" viewBox="0 0 226 318"><path fill="var(--color-over)" d="M222.57 242.6c.14 28.2 2.25 55.4 2.8 67.35 0 0-114.48 11.41-161.52 5.75 0 0-60.17-2.7-63.3-2.7 0 0 .75-49.5.7-77.66.41-42.97 1.27-79.48 2.41-110.25C4.8 94.33-1.7 32.16 38.01 11.66 62.88-1.18 72.64 1.88 107.21.17c21.5-.86 49.99 1.42 69.8 11.49 41.67 21.17 38.33 68.5 41.12 106.37 1.9 44.45 3.34 87.54 4.46 124.56h-.02Z"/><path fill="var(--color-under)" d="M142.16 241.57c4.16-17.28 6.07-35.22 7.58-53.43 1.07-12.6-.14-24.81-2.74-36.48-2.96-17.9-7.2-38.74-11.2-56.7-3.9-17.59-6.53-32.93-11.03-45.8 3.07-5.65 5.67-11.48 8.76-17 5.12-8.73 9.54-17.44 14.86-27.3-12.82 1.15-24.03 2.14-35.3 3.33-10.99 1.05-21.24-2.83-32.44-3.03 2.56 5.6 17.88 27.94 28.55 42.17-3.9 12.46-6.9 24.15-11.31 46.4-5.76 23.06-9.83 43.92-11.82 67.1-2.5 29.17-1.12 57.18 5.96 83.67 5.63 24.19 11.7 36.11 27.17 50.02 9.7-13.57 18.29-33.67 22.96-52.95Z"/></svg>