<svg x="-120" y="0" xmlns="http://www.w3.org/2000/svg" width="249" height="560" viewBox="0 0 249 560"><path fill="var(--color-over)" d="M228.57 242.6c.14 28.2 2.25 55.4 2.8 67.35 0 0-114.48 11.41-161.52 5.75 0 0-60.17-2.7-63.3-2.7 0 0 .75-49.5.7-77.66.41-42.97 1.27-79.48 2.41-110.25C10.8 94.33 4.3 32.16 44.01 11.66 68.88-1.18 78.64 1.88 113.21.17c21.5-.86 49.99 1.42 69.8 11.49 41.67 21.17 38.33 68.5 41.12 106.37 1.9 44.45 3.34 87.54 4.46 124.56h-.02Z"/><path fill="#153F7B" d="M7.55 208.8s21.67-3.57 28.5-5c6.83-1.41 7.97-193.46 7.97-193.46s9.85-4.8 15.34-6.7c1.44-.48 8.67 113.4 9.52 123.04 0 0 87.08-1.99 91.06-2.55 0 0 2.06-94.12 2.63-100.06.57-5.96 1.95-20.01 1.95-20.01s14.26 3.75 17.67 5.73c3.41 2 4.2 141.1 7.05 188.45 0 0-1.67.71 9.06 1.3 7.16.13 29.81 1.8 29.81 1.8l4.65 143.17H6.06l1.5-135.7Z"/><path fill="var(--color-apron)" d="M7.55 208.8s21.67-3.57 28.5-5c6.83-1.41 7.97-193.46 7.97-193.46s9.86-4.8 15.35-6.7c1.43-.48 8.66 113.4 9.51 123.04 0 0 87.09-1.99 91.06-2.55 0 0 2.06-94.12 2.63-100.06l1.95-20.01s14.26 3.75 17.67 5.73c3.41 2 4.2 141.1 7.06 188.45 0 0-1.68.71 9.06 1.3 7.16.13 29.8 1.8 29.8 1.8L248.52 556 0 560l7.54-351.2Z"/></svg>