<svg viewBox="0 0 298 248" xmlns="http://www.w3.org/2000/svg">
  <path fill="#68b096" d="m55.95 92.18v11.55c5.77-2.89 11.56-6.79 17.96-8.77 12.72-3.92 22.85 2.4 25 15.05 1.67 9.75-7.65 20.68-19.42 18.59-11.21-1.46-16.04-8.52-15.57-21.42-6.94 3.76-9.66 15.83-7.82 35.62 5.34-2.88 9.22-6.84 15.27-8.8 9.45-3.08 18.88-2.86 25.94 5.9 5.11 6.34 6.58 18.13.12 25.26-5.89 6.47-17.7 7.92-25.41 2.8-4.88-3.23-10.05-11.54-7.57-20.9.12-.41.55-1.74 1.06-2.68-3.17.81-6.54 6.15-7.1 10.77-1.55 12.58-1.3 23.78-1.57 36.66 5.45-5.67 11.08-10.48 18.36-12.9 10.45-3.49 20.18-3.23 28.08 5.78 5.62 6.42 6.01 15.9 1.41 24.17-2.9 5.22-11.92 9.93-20.54 8.5-11.9-2-16.93-14.33-14.1-26.47-7.69 6.21-10.7 14.11-11.05 23.03-.34 9.2-.14 18.4-.07 27.58.04 3.84-.38 6.4-5.5 6.4-4.65 0-4.91-2.84-4.9-6.24.03-8.42.23-16.84-.09-25.25-.24-6.55-.87-13.17-4.52-18.14-1.1 5.44-1.34 9.55-3.72 13.5-4.04 6.74-11.13 8.44-18.77 7.48-7.57-.95-11.48-6.06-13.38-12.69-2.68-9.32 1.4-18.86 9.53-22.87 7.84-3.87 19.55-4.24 26.98 5.26 1.2 1.55 2.28 3.2 3.96 5.57 0-13.3-.37-24.3-.9-36.8-.31-7.4-8.7-15.76-16-17.55a26.15 26.15 0 0 1 4.84 9.1c1.68 7.82-1.07 13.6-6.57 18.34-5.6 4.83-12.46 5.83-18.87 3.1-10.68-4.58-13.65-15.54-8.67-26.2 4.02-8.6 14.1-12.66 24.57-11.62 10.22 1.75 11.78 1.76 20.88 8.17 1.75-12.73.85-30.37-6.1-36.57.41 2.38.39 3.8.27 6.52-.74 7.41-4.02 10.78-11.96 12.98-8.86 2.45-17.66-.74-20.9-7.94-3.23-7.23-2.46-17.57 4.81-22.76 7.51-5.35 20.8-4.24 28.68 2.66l6.13 5.4v-9.12c-12.93-4.83-16.14-14.46-14.39-23.16 2.12-10.4 11.28-16.24 22.43-14.98 8.86 1.01 15.72 8.83 15.96 18.21.26 10.2-6.28 18.1-16.78 19.87z"/>
  <path fill="#7f433b" d="m191.4 96.64c2.5-.76 9.14-2.31 11.94-.94 2.78 1.37 1.33 2.24.19 2.57-1.2.33-4.68 1.21-.15 2.3 1.97.49 4.06 1.4 5.53 2.63.92.76.97 2.25-2.97 3.6-3.93 1.35-8.53 1.92-12 .44-3.47-1.49-2.8-1.76-2.8-1.76l.25-8.84z"/>
  <path fill="#f9cc76" d="m166.78 80.38c-5.15-8.38-5.9-10.18-8.77-17.19-1.8-4.38-4.74-9.37-7.52-12.04-4.12-3.95-6.02-5.82-10.76-6.86-2.7-.6-6.51 1.4-7.31 5.57-.8 4.16 3.21 8.36 4.45 9.42 1.23 1.07 3.8 2.8 8.49 10.3 3.64 5.84 3.3 6.44 8.85 18.65 2.72 5.53 5.01 7.89 9.74 10.5 5.05 2.8 12.39 5.68 27.88 9.26.25-2.21 1.06-12.93 1.06-12.93-18.26-5.34-23.9-11.08-26.1-14.68z"/>
  <path fill="#7f433b" d="m95.23 131.32c1.03 2.1 3.39 7.74 2.72 10.44-.66 2.7-1.13 3.24-4.63 6.27-.79.69-2.28 1.15-4.03-2.11-1.75-3.27-2.97-7.26-2.32-10.58.65-3.33.98-2.79.98-2.79l7.27-1.23z"/>
  <path fill="#f9cc76" d="m121.64 49.39c-.07-1.95-1.36-7.44-6.53-5.84-5.33 1.64-11.08 3.73-16.58 11.64-5.28 7.6-9.81 17.8-11.13 37.26-1.47 21.65-1.98 41.52-2 41.84l12.76-.27c.03-.33.05-16.1 2.5-44.58.7-8 3-16.72 5.86-20.9 1.86-2.7 4.42-6.05 6.12-7.57 0 0 2.96-2.06 5.2-3.67 3.63-2.62 3.88-5.4 3.8-7.9z"/>
  <path fill="#1e1a28" d="m103.24 241.33s-1.63 4.35-1.81 5.32c-.19.84-.6 1.13 2.4 1.16 0 0 17.73.28 18.94 0 .8-.18 1.8-1.29 1.25-6.22zm35.79.28s-.28 4.18.33 5.1c.62.9.99 1.5 6.43 1.2 0 0 15.36.27 15.85-.12.49-.4-2.31-6.47-2.31-6.47z"/>
  <path fill="#054449" d="m101.5 108.84c-.12 8.22-1.21 51.1-1.33 55.74-.19 4.63-.31 44.06-.31 48.43s-.13 28.39.43 29.17c.55.78 23.46 1.37 24.62.52 1.17-.84 0-39.61.19-44.25.12-4.63.86-27.54.12-46.21s.6-22.12 1.03-22.12c.44 0 .81-.92 2.53 16.7 1.72 17.63 5.22 49.68 5.96 57.44.73 7.83 2.76 38.19 3.56 38.51.8.33 22.48-.06 23.21-.32.74-.26-1.16-25.6-1.4-28.4-.25-2.8-5.17-65.08-5.41-68.4-.25-3.33-2.46-38.12-2.46-38.12s-25.91.06-28.12.26c-2.28.13-22.62 1.04-22.62 1.04z"/>
  <path fill="#f9cc76" d="m152 97.93c.04 6.46.52 12.7.65 15.43 0 0-26.2 2.62-36.98 1.32 0 0-13.77-.62-14.48-.62 0 0 .17-11.34.16-17.8.09-9.84.29-18.2.55-25.25s-.64-20.78 8.45-25.48c5.7-2.94 7.34-2.75 15.25-3.14 6.47-.26 15.66.72 19.38 4.18 4.78 4.37 5.34 13.79 6 22.82.45 10.18.77 20.06 1.03 28.54z"/>
  <path fill="#054449" d="m101.19 115.6.22-25.41s4.97-.82 6.53-1.15c1.56-.32 1.82-43.66 1.82-43.66s2.29-.98 3.55-1.41c.32-.11 1.95 25.2 2.14 27.4 0 0 19.94-.45 20.85-.58 0 0 .47-21.57.6-22.93l.43-4.6s3.09.5 3.87.96 1.15 32.7 1.8 43.55c0 0-.38.16 2.08.3 1.64.03 6.82.4 6.82.4l.79 26.21z"/>
  <path fill="#7f433b" d="m140.95 27.09c-.08-.44-.47-.68-.93-.88.19-3.56-.55-5.83-2.14-8.11-1.33-1.92-3.19-3.84-5.8-4.77-2.3-.82-7.96-.6-10.24.31-5.44 2.07-7.58 7.12-7.86 12.7-.46.12-.87.3-1 .71a3.3 3.3 0 0 0 -.26 2.18c.18.63.58 1.03 1.4 1.57.21 2.6 1.03 5.08 2.38 7.14l.28.43c2.1 3.24 4.93 5.12 8.32 5.12h2.66c3.36 0 6.55-1.87 8.66-5.08l.84-1.28a15.41 15.41 0 0 0 2.36-6.65c.7-.35 1.07-.67 1.3-1.2.3-.74.24-1.44.03-2.2z"/>
  <path fill="#1e1a28" d="m133.71 14.04a15.1 15.1 0 0 0 -4.36-1.66c.6-.3 1.12-.73 1.55-1.28l.33-.44c.5-.67.83-1.48.93-2.33l.1-.83a4.84 4.84 0 0 0 -.78-3.26l-.25-.36a3.1 3.1 0 0 0 -2.15-1.41c-1.77-.4-3-.06-3.89.25a4.6 4.6 0 0 0 -3 4.12l-.04.93a4.8 4.8 0 0 0 .94 3.17l.11.14c.4.52.85.94 1.36 1.23-3.31.57-6.62 2.52-8.36 5.08-2.76 4.6-2.29 5.3-2.63 8-.05.36.02.7.04 1.05a12.89 12.89 0 0 0 13.76-7.5c1.96 4.77 6.54 8.22 11.66 7.46.32-.05.67-.15.98-.2.08-.64.06-1.2.07-1.87.04-3.73-2.34-8.17-6.37-10.3z"/>
  <path fill="#f9c4aa" d="m288.7 167.3c.74 1.26 1.24 2.67 2.21 3.62.65.64 1.95.82 2.96.83 2.06.02 3.27-1.2 3.52-3.19.34-2.66-.8-4.03-4.32-5.17.6-1.59 2.17-1.46 3.42-1.89-1.41-1.49-4.3-1.55-5.55.18a11.5 11.5 0 0 1 -4.17 3.75c-.67.34-1.15 1.05-1.52 1.4-3.1-1.68-6.04-3.53-9.18-4.91-6.05-2.68-12.55-3.33-19.1-3.63a222 222 0 0 0 -29.53.54c-10.65.94-21.2 2.43-31.36 6.05-4.18 1.5-7.85 3.9-11.49 6.37-5.08 3.45-10.16 6.91-15.25 10.35-.8.54-1.98 1.85-3.32 3.52a18.27 18.27 0 0 0 -17.63-6.04 18.3 18.3 0 0 0 9.9 16.89c-.8 1.18-1.45 2.18-1.86 2.8a31.93 31.93 0 0 0 -2.03 3.77c-1.37 2.87-3.28 3.94-6.25 3.36v.03s-3.93-.69-3.39 1.7c.3 1.1.6 2.19.97 3.26l-.05.02a9.03 9.03 0 0 0 .61 1.33c.83 1.56 2.53 4.08 5.3 5.21.2.11.39.2.58.24a52.55 52.55 0 0 1 .71.16l.28.05c3.42.75 6.87 1.44 10.34 1.73 5.88.48 11.78.65 17.68.9h.37l1.46.07c.2 0 .4-.01.61-.04l1.15.01 1.68 16.42-2.07 10.78h10.13l2.25-25.3c.51-.5 1.02-1.1 1.5-1.73l4.2.06.68 5.59-2.76 21.38h9.43l2.75-7.37.7-19.44 5.58.1c9.56.51 26.6 1.27 39.03.91l1.92 5.58-3.45 19.19-.01.03.72 1h10.38l1.2-19.5-.13-6.34 2.35.72 1.68 4.9-3.45 19.19v.03l.72 1h10.38l.32-5.36c.5-2.51 6.08-24.35 6.01-27.32-.01-.48.43-1.08.82-1.46 3.47-3.4 6.37-7.18 8.07-11.79 1.93-5.2 1.4-10.48.4-15.73a32.6 32.6 0 0 0 -8.04-16.32c-.92-1-.46-1.93.93-2.5h.02zm3.14-1.56c1.23.2 2.53.27 2.98 1.57.16.47-.23 1.43-.67 1.72-.43.29-1.45.26-1.84-.07-.97-.82-.85-2-.47-3.22z"/>
</svg>