<svg xmlns="http://www.w3.org/2000/svg" width="125" height="248" viewBox="0 0 125 248">
  <path fill="#7f433b" d="m106 96.64c2.5-.76 9.15-2.31 11.94-.94s1.34 2.24.2 2.57c-1.2.33-4.68 1.21-.16 2.3 1.98.49 4.06 1.4 5.54 2.63.92.76.96 2.25-2.97 3.6s-8.53 1.92-12 .44c-3.47-1.49-2.81-1.76-2.81-1.76z"/>
  <path fill="#f9cc76" d="m81.39 80.38c-5.15-8.38-5.9-10.18-8.79-17.19-1.8-4.38-4.73-9.37-7.52-12.04-4.1-3.95-6-5.82-10.75-6.86-2.7-.6-6.52 1.4-7.31 5.57-.8 4.16 3.21 8.36 4.44 9.42 1.23 1.07 3.82 2.8 8.5 10.3 3.64 5.84 3.29 6.44 8.84 18.65 2.73 5.53 5.02 7.89 9.74 10.5 5.06 2.8 12.4 5.68 27.89 9.26.25-2.21 1.06-12.93 1.06-12.93-18.26-5.34-23.9-11.08-26.11-14.68z"/>
  <path fill="#7f433b" d="m9.84 131.32c1.03 2.1 3.38 7.74 2.72 10.44s-1.13 3.24-4.63 6.27c-.79.69-2.28 1.15-4.03-2.11-1.75-3.27-2.97-7.26-2.32-10.58.65-3.33.98-2.79.98-2.79l7.27-1.23z"/>
  <path fill="#f9cc76" d="m36.24 49.39c-.06-1.95-1.35-7.44-6.52-5.84-5.33 1.64-11.08 3.73-16.58 11.64-5.28 7.6-9.81 17.8-11.13 37.26-1.47 21.65-1.98 41.52-2.01 41.84l12.77-.27c.03-.33.05-16.1 2.5-44.58.7-8 3-16.72 5.86-20.9 1.86-2.7 4.42-6.05 6.12-7.57 0 0 2.96-2.06 5.2-3.67 3.63-2.62 3.88-5.4 3.8-7.9v-.01z"/>
  <path fill="#1e1a28" d="m17.85 241.33s-1.63 4.35-1.81 5.32c-.19.84-.6 1.13 2.4 1.16 0 0 17.73.28 18.94 0 .8-.18 1.8-1.29 1.25-6.22zm35.79.28s-.29 4.18.33 5.1c.62.9.99 1.5 6.43 1.2 0 0 15.36.27 15.85-.12.49-.4-2.31-6.47-2.31-6.47l-20.3.3z"/>
  <path fill="#054449" d="m16.1 108.84c-.11 8.22-1.2 51.1-1.32 55.74-.19 4.63-.31 44.06-.31 48.43s-.13 28.39.42 29.17c.56.78 23.47 1.37 24.63.52 1.17-.84 0-39.61.19-44.25.12-4.63.85-27.54.12-46.21-.74-18.67.6-22.12 1.03-22.12s.81-.92 2.53 16.7c1.72 17.63 5.22 49.68 5.95 57.44.74 7.83 2.77 38.19 3.57 38.51.8.33 22.48-.06 23.21-.32.74-.26-1.17-25.6-1.4-28.4-.25-2.8-5.17-65.07-5.41-68.4-.25-3.33-2.46-38.12-2.46-38.12s-25.91.06-28.12.26c-2.28.13-22.62 1.04-22.62 1.04z"/>
  <path fill="#f9cc76" d="m66.62 97.93c.03 6.46.5 12.7.64 15.43 0 0-26.2 2.62-36.98 1.32 0 0-13.77-.62-14.49-.62 0 0 .18-11.34.17-17.8.09-9.84.29-18.2.55-25.25s-.64-20.78 8.45-25.48c5.7-2.94 7.34-2.75 15.25-3.14 6.47-.26 15.65.72 19.38 4.18 4.78 4.37 5.34 13.79 6 22.82.44 10.18.77 20.06 1.03 28.54z"/>
  <path fill="#054449" d="m15.8 115.6.22-25.41s4.96-.82 6.53-1.15c1.56-.32 1.82-43.66 1.82-43.66s2.29-.98 3.55-1.41c.32-.11 1.95 25.2 2.14 27.4 0 0 19.94-.45 20.85-.58 0 0 .47-21.57.6-22.93l.43-4.6s3.09.5 3.87.96 1.15 32.7 1.8 43.55c0 0-.38.16 2.08.3 1.64.03 6.82.4 6.82.4l.79 26.21z"/>
  <path fill="#7f433b" d="m55.56 27.09c-.08-.44-.48-.68-.93-.88.19-3.56-.56-5.83-2.14-8.11-1.33-1.92-3.2-3.84-5.8-4.77-2.3-.82-7.97-.6-10.24.31-5.44 2.07-7.58 7.12-7.86 12.7-.46.12-.87.3-1 .71a3.3 3.3 0 0 0 -.26 2.18c.18.63.58 1.03 1.4 1.57.21 2.6 1.03 5.08 2.38 7.14l.27.43c2.12 3.24 4.94 5.12 8.32 5.12h2.67c3.36 0 6.55-1.87 8.66-5.08l.84-1.28a15.4 15.4 0 0 0 2.36-6.65c.69-.35 1.07-.67 1.3-1.2.3-.74.23-1.44.03-2.2z"/>
  <path fill="#1e1a28" d="m48.32 14.04a15.1 15.1 0 0 0 -4.37-1.66 4.4 4.4 0 0 0 1.55-1.28l.33-.44c.52-.67.84-1.48.94-2.33l.1-.83a4.84 4.84 0 0 0 -.78-3.26l-.25-.36a3.1 3.1 0 0 0 -2.15-1.41c-1.77-.4-3-.06-3.9.25a4.6 4.6 0 0 0 -2.98 4.12l-.06.93a4.81 4.81 0 0 0 .95 3.17l.11.14c.4.52.85.94 1.36 1.23-3.31.57-6.62 2.52-8.36 5.08-2.76 4.6-2.3 5.3-2.63 8-.05.36.01.7.04 1.05a12.89 12.89 0 0 0 13.76-7.5c1.96 4.77 6.54 8.22 11.66 7.46.32-.05.66-.15.98-.2.08-.64.06-1.2.07-1.87.04-3.73-2.34-8.17-6.37-10.3z"/>
</svg>