<svg fill="none" viewBox="0 0 152 249" xmlns="http://www.w3.org/2000/svg"><path d="m121.98 67.16 4.22 7.75s-.44.57 3.34.1c3.8-.5 7.55-3.33 10.33-6.5 2.77-3.16 1.99-4.42.8-4.62-1.92-.3-4.2-.03-6.18.56-4.52 1.36-1.9-1.18-1.03-2.07.84-.86 1.68-2.36-1.46-2.12-3.13.25-8.2 4.96-10.01 6.9z" fill="#f9c4aa"/><path d="m54.91 59.6c1.27 1.5 3.4 3.24 11.18 7.46 6.05 3.29 6.7 5.53 16.96 10.45 5.62 2.7 9.11 4.6 15.53 4.53 5.3-.05 16.95-1.12 29.07-4.53-.86-2.04-5.46-12.6-5.46-12.6-9.33 2.17-22 2.58-24.94 2.47-1.7-.06-5.69-1.8-7.58-2.86-7.7-5.02-8.39-6.17-14.33-10.86-3.72-2.93-7.83-6.5-11.55-7.73-2.68-.96-3.84-1.25-5.52-1.4-1.67-.15-5.66.57-6.79 5.64-.98 4.4 2.15 7.94 3.43 9.44z" fill="#da573b"/><path d="m25.68 114.61c2.16.72 7.67 2.98 9.04 5.36 1.38 2.38 1.4 3.1 1.01 7.78-.09 1.05-.82 2.46-4.29 1.44-3.46-1.02-7.04-2.94-8.85-5.74-1.81-2.81-1.21-2.67-1.21-2.67z" fill="#f9c4aa"/><path d="m41.66 51.92c-.66-4.3-2.88-7.2-5.94-6.94-8.2 1.98-18.15 8.97-26.36 20.5-3 4.19-9.36 14.42-9.36 20.69.22 16.11 18.43 34.06 20.57 36.68l9.44-8.06c-.6-.36-5.18-5.61-8.54-10.04-4.7-8.75-7.71-14.65-7.71-18.58 2.92-11.1 9.21-16.08 20.87-23.02 0 0 4.05-2.24 5.74-4.9a8.02 8.02 0 0 0 1.29-6.34z" fill="#da573b"/><path d="m24.72 242.26s-1.62 4.35-1.8 5.32c-.2.83-.6 1.13 2.39 1.16 0 0 17.74.28 18.95 0 .8-.19 1.8-1.3 1.26-6.23zm35.81.27s-.29 4.19.33 5.1.99 1.5 6.44 1.2c0 0 15.36.28 15.85-.12s-2.31-6.47-2.31-6.47l-20.31.3z" fill="#1e1a28"/><path d="m22.98 109.7c-.12 8.24-1.2 51.14-1.33 55.77-.18 4.64-.3 44.08-.3 48.45 0 4.38-.13 28.4.42 29.18.55.79 23.47 1.37 24.64.53 1.16-.85 0-39.64.18-44.27.12-4.64.86-27.56.12-46.23-.74-18.68.6-22.13 1.04-22.13.43 0 .8-.92 2.53 16.71 1.71 17.63 5.22 49.7 5.95 57.46.74 7.84 2.77 38.2 3.57 38.53.8.32 22.49-.07 23.22-.33.74-.26-1.17-25.6-1.4-28.4-.25-2.82-5.17-65.1-5.42-68.44-.24-3.33-2.45-38.13-2.45-38.13s-25.93.06-28.14.26c-2.27.13-22.63 1.04-22.63 1.04z" fill="#153f7b"/><path d="m73.51 98.97c.03 6.46.51 12.7.64 15.44 0 0-26.21 2.61-36.98 1.31 0 0-13.78-.61-14.5-.61 0 0 .17-11.35.16-17.8.1-9.85.3-18.22.55-25.27.26-7.05-.63-20.8 8.46-25.5 5.7-2.93 7.34-2.75 15.25-3.14 6.48-.26 15.67.73 19.4 4.2 4.77 4.36 5.34 13.78 6 22.82.44 10.19.77 20.06 1.02 28.55z" fill="#da573b"/><path d="m22.67 116.65.23-25.43s4.96-.82 6.53-1.14c1.56-.33 1.82-43.68 1.82-43.68s2.29-.98 3.55-1.42c.32-.1 1.95 25.21 2.14 27.42 0 0 19.94-.46 20.86-.58 0 0 .47-21.58.6-22.94l.43-4.6s3.09.5 3.87.96 1.15 32.71 1.8 43.56c0 0-.38.17 2.08.3 1.64.03 6.83.41 6.83.41l.78 26.21z" fill="#153f7b"/><path d="m59.31 18.65a10.7 10.7 0 0 0 -5.8-4.77c-2.3-.83-7.97-.6-10.24.3-5.44 2.08-7.58 7.13-7.86 12.72-.47.12-.88.29-1.01.7a3.3 3.3 0 0 0 -.26 2.18c.18.64.59 1.03 1.4 1.58.22 2.6 1.04 5.08 2.38 7.14l.28.42c2.11 3.24 4.94 5.13 8.32 5.13h2.67c3.36 0 6.55-1.87 8.66-5.08l.84-1.28c1.27-1.92 2.24-4.45 2.57-8.28.53-6.2-.69-8.45-1.95-10.76z" fill="#f9c4aa"/><path d="m60.17 20.32c.3 8.28-15.43 11.6-23.36 14.04-2.9.9-2.65 9.2-18.46 14.62-12.26 2.63-11.74-9.6-11.74-9.6 2.36-13.95 20.5-2.83 27.18-9.7.03-2.52 1.39-7.68 2.5-10.04 1.9-4.07 6.1-6.39 12.16-6.8a11.38 11.38 0 0 1 11.72 7.48zm58.01 228.41h2.76s.23-16.48.34-19.24c.12-2.75.52-20.56.52-22.28s.29-1.95 1.2-1.9c.92.06 3.62 0 4.6.12.97.12 1.09.29.97 1.9-.11 1.6-.17 23.31-.17 27.27 0 3.97.12 14.13.12 14.13h2.76s.17-17.46.05-21.36c-.11-3.9.3-19.76.3-20.9 0-1.15.62-1.1 1.2-1.1.57 0 4.07 0 5.07.06.99.06.84.63.78 1.55-.05.92 0 15.05.12 20.67l.44 21.05 2.7.05c.12-1.72-.5-39.64-.47-41.3.03-1.67.09-2.25.89-2.25s3.85.12 4.76.35c.92.23.64 1.43.64 1.83s-.12 17.12-.06 19.82.11 21.13.17 21.4c.06.29 2.87 0 2.87 0s.4-37.43.05-42.55c-.34-5.12-1.42-5.12-4.24-5.3-2.83-.18-8.43-.35-8.43-.35s1.01-32.85 1.19-36.91 3.53-64.11 3.35-70.47c-.17-6.35 1.42-7.06 3.18-9.71 1.77-2.65 4.82-10.08 5.12-13.25.18-1.78.55-4.66-.67-5.62s-19.54-2.04-20.26-1.44-.6 3.72-.84 7.56 1.68 8.04 4.2 12.6 2.49 6.86 2.49 9.9c0 3.06-3.51 107.37-3.51 107.37s-7.18.06-9.65 0-3.8 2.01-3.97 4.25-.55 25.72-.58 30.67.01 13.38.01 13.38zm14.97-173.61c-1.2-3.24-1.68-5.52-1.2-6.6s7.33-.28 8.52-.12c3.37.43 6.72.48 7.08 1.68s-.12 5.16-1.56 7.68-3 5.64-6 5.28-5.64-4.68-6.84-7.92z" fill="#7f433b"/><path d="m33.8 27.63 42.68-11.94s-.81-1.3-1.9-1.3c-1.1 0-15.33 3.26-15.33 3.26s-4.68-8.18-16.42-3.9c-10.96 4-9.04 13.88-9.04 13.88z" fill="#da573b"/></svg>