<svg viewBox="0 0 260 154" xmlns="http://www.w3.org/2000/svg">
  <path fill="#da573b" d="m222.63 106.3h-58.37v-14.3s7-20.4 10.72-23.64a46.87 46.87 0 0 1 8.63-5.64h13.33s6.73 4.2 9.96 6.83c3.23 2.64 3.22 3.26 5.05 5.55 1.83 2.28 5.67 11.92 5.67 11.92l5 19.28z"/>
  <path fill="#9ecced" d="m258.38 102.82c-1.24-2.66-3.08-6.47-4.07-7.99a54.22 54.22 0 0 0 -7.02-8.27c-2.96-2.93-9.17-5.78-9.17-5.78l-8.28-.8-4.97-.49s-5.11 1.93-9.12 4.77c-4 2.85-12.92 22.43-12.92 22.43 29.34 27.63 52.98 19.47 55.55 16.46 1.82-2.12 1.72-9.96 1.5-14.4-.25-3.35-1.5-5.93-1.5-5.93z"/>
  <path fill="#e2f1df" d="m70.68 91.21c0-6.34-.05-12.03 0-17.73.2-18.82.84-37.62 6.38-55.8 1.33-4.36 3.85-8.4 6.05-12.48 1.95-3.59 5.37-6.29 9.17-4.77 2.59 1.04 5.52 4.62 5.82 7.34 1.03 9.04 2.28 18.38 1 27.25-2.7 18.66-6.96 37.1-10.1 55.92 3.19-8.03 6.18-16.15 9.6-24.08 5.4-12.42 10.63-24.93 16.83-36.94 2.88-5.57 7.54-10.4 12.08-14.84 1.75-1.7 5.71-2.38 8.16-1.7 1.46.42 2.49 4.3 2.74 6.73 2.11 19.7-5.36 36.8-15.2 53.08-10.78 17.84-23.23 34.4-39.82 47.38-3.46 2.7-7.7 4.5-11.76 6.36-4.14 1.91-8.28 1.08-11.51-1.92-6.16-5.7-12.65-11.22-17.88-17.71-15.52-19.3-29.03-39.95-38.54-62.93a49.28 49.28 0 0 1 -3.66-13.38c-.27-2.53.96-6.5 2.84-7.64 1.83-1.11 5.96-.29 8.03 1.17 9.26 6.57 15.14 16.09 20.7 25.74 5.75 9.98 11.3 20.08 17.56 30-2.47-8.6-5.32-17.12-7.32-25.83-3.45-14.97-7-30.12-2.49-45.4 1-3.36 4.4-7.24 7.61-8.44 4.77-1.77 7.52 2.7 8.71 6.73 3.38 11.4 7.3 22.78 9.16 34.47 2.5 15.68 3.31 31.64 4.87 47.47.04.46.43.9.96 1.95z"/>
  <path fill="#e2f1df" d="m92.83 81.19h-2.4v2.02h2.4z"/>
  <path fill="#f9cc76" d="m159.77 91.25v6.83l-58.37 7.42 5-19.22s3.85-9.6 5.68-11.89c1.83-2.27 1.81-2.9 5.05-5.52 3.23-2.64 9.95-6.82 9.95-6.82h13.34a47 47 0 0 0 8.64 5.63c3.72 3.22 10.7 23.56 10.7 23.56z"/>
  <path fill="#1e1a28" d="m197.96 44.24s1.51 2.87 4.46 5.6c3.04 2.8 3.53 3.83 3.9 5.5.83 3.75.06 6.1-2.05 8.1-1.91 1.8-1.85 2.16-6.3 2.97-4.64.85-5.52-2.48-5.52-2.48s3.15-6.4 2.61-8.6-2.94-6.9-2.94-6.9"/>
  <path fill="#f9c4aa" d="m189.96 39.19a10.9 10.9 0 0 1 5.36 4.3l.6.92a12.53 12.53 0 0 1 1.93 8.25l-.24 2.1a12.3 12.3 0 0 1 -2.3 5.92l-.82 1.1a10.47 10.47 0 0 1 -8.39 4.36h-2.57c-3.28 0-6-1.62-8.05-4.4l-.27-.36a12.44 12.44 0 0 1 -2.35-8.04l.14-2.34c.27-4.8 3.2-8.95 7.4-10.45 2.2-.78 7.38-2.16 9.57-1.37v.02z"/>
  <path fill="#f9c4aa" d="m197.53 51.23c.54.18 1.01.4 1.11.8.24.65.33 1.25 0 1.9-.28.5-.78.78-1.76 1.12l.65-3.83zm-24.07 0c-.58.1-1.1.23-1.27.6-.35.59-.53 1.17-.31 1.84.2.55.67.9 1.62 1.38l-.04-3.83z"/>
  <path fill="#1e1a28" d="m181.29 40.02c0-.26-.33-1.31-.4-1.56-.49 0 .5-.1 0 0-5.1.93-9.7 6.95-8.7 12.26.05.26.1.5.17.75.49 0 1.05.1 1.49-.15 3.04-1.77 7.6-6.68 7.44-11.3z"/>
  <path fill="#1e1a28" d="m179.95 38.67c-.4.15-.79.31-1.17.5.16.82.21 1.73.69 2.46 4.04 6.17 11.54 13.95 19.85 10.9.4-.14.27 0 .55-.55.03-1.02.48-2.2-.19-4.15-2.87-8.4-11.42-12.2-19.72-9.15h-.01zm-33.93 2.39 1.32 3.4a35.12 35.12 0 0 1 1.82 6.43l.97 5.27c-1.7 1.36-3.68 1.51-5.94.46l2.09-8.17m-23.92-7.39-1.59 3.34a34.58 34.58 0 0 0 -2.3 6.34l-1.35 5.24c2.68 1.92 4.47 1.64 6.07.87l-1.6-8.36"/>
  <path fill="#7f433b" d="m138.55 36.16c2.18.8 4.06 2.31 5.4 4.35l.6.93a12.68 12.68 0 0 1 1.94 8.33l-.24 2.12a12.5 12.5 0 0 1 -2.32 5.98l-.82 1.11a10.51 10.51 0 0 1 -8.43 4.4h-2.59c-3.29 0-6.03-1.63-8.1-4.44l-.26-.36a12.6 12.6 0 0 1 -2.36-8.11l.13-2.38c.26-4.85 3.21-9.03 7.43-10.55 2.21-.79 7.42-2.19 9.63-1.38z"/>
  <path fill="#1e1a28" d="m136 35.26c0-.35-.01-.7-.04-1.03a13.08 13.08 0 0 0 -15.1 13.97c.68.1 1.42.4 2.08.16 8.5-3.16 13.06-5.87 13.06-13.1z M135.02 34.06c-.33 0-.65.02-.97.04a12.36 12.36 0 0 0 13.16 14.3 12.36 12.36 0 0 0 -12.19-14.35z M135.02 34.06c-.33 0-.65.02-.97.04a12.36 12.36 0 0 0 13.16 14.3 12.36 12.36 0 0 0 -12.19-14.35z"/>
  <path fill="#7f433b" d="m146.03 48.46c.54.18 1.01.4 1.11.8.24.65.33 1.25 0 1.9-.28.51-.78.78-1.76 1.12l.65-3.83zm-24.06-.13c-.54.1-1.02.22-1.17.6-.33.59-.5 1.17-.3 1.84.2.55.63.9 1.5 1.38l-.04-3.83z"/>
  <path fill="#f8e0d8" d="m241.2 55.11a11.55 11.55 0 0 1 4.68 5.63l.43 1.08a13.32 13.32 0 0 1 .25 9l-.7 2.14c-.71 2.2-1.99 4.18-3.67 5.69l-1.08.97a11.18 11.18 0 0 1 -9.67 2.77l-2.69-.55c-3.4-.7-5.16-2.8-6.7-6.12l-.2-.44a13.2 13.2 0 0 1 -.75-8.86l.64-2.43c1.3-4.94 5.23-8.64 9.94-9.32 2.45-.35 7.4-.85 9.52.44z"/>
  <path fill="#f8e0d8" d="m246.39 69.25c.54.3 1 .6 1.03 1.03.12.7.07 1.32-.4 1.9-.43.46-1.04.64-2.18.77z"/>
  <path fill="#ed9a32" d="m240 56.38c.06-.24.54-1.18.65-1.4-.48-.18.48.1 0 0 4.84 1.8 8.39 8.34 6.58 13.18-.1.24-.19.46-.3.68-.48-.1-1.04-.08-1.43-.4-2.7-2.24-6.4-7.72-5.5-12.06z"/>
  <path fill="#ed9a32" d="m242.52 55.94c.37.26.73.52 1.07.8-.38.8-.83 1.6-1.35 2.36-5.32 7.75-15 7.21-20.91 5.45 0 0-.06-.2-.04-.3-.2-.97 1.01-4.54 1.53-5.3 5.32-7.75 11.95-8.32 19.7-3z"/>
  <path fill="#68b096" d="m58.31 105.98c1.25-2.66 3.08-6.47 4.08-7.99a54.23 54.23 0 0 1 7.01-8.27c2.96-2.93 9.17-5.78 9.17-5.78l8.29-.8 4.96-.48s5.11 1.92 9.12 4.77c4.01 2.84 12.92 27.88 12.92 27.88l1.32 1.33c-29.34 27.62-52.98 19.46-55.55 16.45-1.82-2.12-3.04-16.74-2.82-21.18.26-3.34 1.5-5.93 1.5-5.93z"/>
  <path fill="#f9c4aa" d="m88.6 57.64c2.18.72 4.1 2.17 5.5 4.15l.63.9a12.61 12.61 0 0 1 2.2 8.24l-.17 2.1c-.18 2.2-.9 4.3-2.12 6.04l-.78 1.13a10.46 10.46 0 0 1 -8.25 4.65l-1.85.06c-3.27.1-6.06-1.43-8.2-4.15l-.28-.35a12.56 12.56 0 0 1 -2.62-8l.05-2.37c.11-4.83 2.9-9.08 7.05-10.73 2.17-.86 6.59-2.4 8.8-1.67h.03z"/>
  <path fill="#1e1a28" d="m94.5 62.26c1.21 7.55-12.7 13.35-19.86 16.4-2.62 1.12-1.48 7.76-15.67 15.28-14.2 7.53-13.44-7.16-13.44-7.16 1.56-13.01 20.43-5.36 25.93-12.35-.59-1.36-.36-5.3.57-11.46 1.4-3.32 3.79-5.38 7.58-5.64 7.77-1.11 13.78.44 14.9 4.93z"/>
  <path fill="#f4ece6" d="m159.9 153.69c43.4 0 78.57-13.33 78.57-29.78 0-16.44-35.18-29.77-78.56-29.77-43.4 0-78.57 13.33-78.57 29.77 0 16.45 35.18 29.78 78.56 29.78z"/>
  <path fill="#da573b" d="m206.47 114.62c-1.11 0-2.07.62-2.56 1.54v-3.59c-5.22.3-10.89.32-17.13 0 0 0 .73 5.7.99 8.31.48 4.92 6.35 5.74 6.35 5.74s5.23.81 7.35-2.29a15.21 15.21 0 0 0 2.4-5.6 2.88 2.88 0 1 0 2.6-4.11zm1.41 3.14a1.44 1.44 0 1 1 -2.83-.52 1.44 1.44 0 0 1 2.83.52zm-67.81-15.44c1.11 0 2.07.63 2.55 1.54v-3.58c5.22.29 10.89.31 17.13 0 0 0-.73 5.69-.99 8.3-.48 4.93-6.35 5.74-6.35 5.74s-5.23.82-7.35-2.28a15.2 15.2 0 0 1 -2.4-5.6 2.88 2.88 0 1 1 -2.6-4.12zm-1.4 3.13a1.44 1.44 0 1 0 2.82-.52 1.44 1.44 0 0 0 -2.83.52z"/>
</svg>