<svg xmlns="http://www.w3.org/2000/svg" width="194" height="248" viewBox="0 0 194 248">
  <path fill="#b4cea0" d="m52.55 221.54c0-4.64-.04-8.8 0-12.97.14-13.77.6-27.53 4.66-40.82.98-3.2 2.34-6.25 4.42-9.13 2.09-2.9 4-3.94 6.71-3.5 2.71.45 4.18 2.64 5.22 6.38 1.03 3.75.7 12.44-.23 18.93-1.97 13.65-5.09 26.78-7.4 40.55 2.34-5.88 4.17-11.46 6.67-17.26a445.44 445.44 0 0 1 12.67-27.02 33.53 33.53 0 0 1 7.16-9.77c1.28-1.24 4.5-3.6 7.64-2.33 1.72.7 2.55 3.14 2.74 4.92 1.54 14.42-4.66 26.91-11.85 38.83-7.88 13.05-21.71 34.4-32.49 38.72-3.02 1.4-10.12 1.2-13.01-.41-3.57-1.99-9.88-8.6-13.7-13.36-11.36-14.1-22.65-28.59-29.6-45.4-1.42-3.02-3.71-10.5-.63-13.8 2.35-2.52 5.11-1.6 7.62 0 6.78 4.8 10.76 10.42 14.82 17.47 4.21 7.3 9.8 17.94 14.37 25.19-1.8-6.3-5.41-15.76-6.88-22.13-2.52-10.95-6.75-21.56-3.46-32.75.73-2.46 4.1-6.35 7.21-6.64s5.17 2.57 6.96 5.94c1.79 3.36 4.74 15.65 6.1 24.2 1.84 11.47 3.88 35.38 4.27 36.16z"/>
  <path fill="#c58f79" d="m175.66 96.68c2.5-.77 9.15-2.31 11.94-.94 2.8 1.36 1.34 2.24.2 2.56-1.2.33-4.68 1.22-.15 2.31 1.97.48 4.06 1.4 5.54 2.63.92.76.96 2.25-2.97 3.6-3.94 1.35-8.54 1.92-12.01.44-3.47-1.49-2.81-1.76-2.81-1.76l.26-8.85z"/>
  <path fill="#f9cc76" d="m151.04 80.4c-5.15-8.37-5.9-10.17-8.78-17.18-1.8-4.38-4.74-9.38-7.52-12.05-4.12-3.95-6.02-5.82-10.76-6.86-2.7-.6-6.52 1.4-7.32 5.57-.8 4.16 3.22 8.36 4.45 9.43s3.81 2.8 8.5 10.3c3.64 5.83 3.29 6.44 8.85 18.66 2.72 5.53 5.01 7.88 9.74 10.5 5.06 2.8 12.4 5.68 27.9 9.26.25-2.21 1.05-12.93 1.05-12.93-18.26-5.35-23.9-11.1-26.11-14.7z"/>
  <path fill="#c58f79" d="m79.45 131.37c1.04 2.1 3.4 7.74 2.73 10.45-.67 2.7-1.14 3.23-4.63 6.27-.8.69-2.28 1.15-4.04-2.11-1.75-3.27-2.97-7.26-2.32-10.6.65-3.32.98-2.78.98-2.78z"/>
  <path fill="#f9cc76" d="m105.87 49.4c-.06-1.94-1.35-7.43-6.53-5.83-5.33 1.64-11.08 3.73-16.58 11.64-5.29 7.6-9.82 17.8-11.14 37.27-1.47 21.66-1.98 41.54-2 41.86l12.77-.27c.02-.32.05-16.1 2.5-44.6.7-8 3-16.72 5.86-20.9 1.86-2.7 4.42-6.05 6.13-7.57 0 0 2.96-2.06 5.19-3.67 3.64-2.63 3.89-5.4 3.8-7.92z"/>
  <path fill="#1e1a28" d="m87.47 241.26s-1.63 4.35-1.81 5.32c-.19.83-.6 1.13 2.4 1.16 0 0 17.73.28 18.94 0 .8-.19 1.8-1.3 1.26-6.23l-20.8-.25zm35.81.27s-.3 4.19.33 5.1c.62.91.98 1.5 6.43 1.2 0 0 15.37.28 15.85-.12.5-.4-2.31-6.47-2.31-6.47l-20.3.3z"/>
  <path fill="#da573b" d="m85.5 108.7c-.12 8.24-.98 51.14-1.1 55.77-.19 4.64-.31 44.08-.31 48.45 0 4.38-.13 28.4.42 29.18.56.79 23.47 1.37 24.64.53 1.17-.85 0-39.64.18-44.27.13-4.64.86-27.56.13-46.23-.74-18.68.6-22.13 1.03-22.13s.81-.92 2.53 16.71 5.22 49.7 5.96 57.46c.73 7.84 2.76 38.2 3.56 38.53.8.32 22.49-.07 23.22-.33.74-.26-1.16-25.6-1.4-28.4-.25-2.82-5.17-65.1-5.41-68.44-.25-3.33-2.46-38.13-2.46-38.13s-25.93.06-28.14.26c-2.27.13-22.85 1.04-22.85 1.04z"/>
  <path fill="#cde5f2" d="m84.07 170.6 1.38-57.02 51.4-1.03 4.13 57.14-56.9.91z"/>
  <path fill="#f9cc76" d="m136.25 97.97c.03 6.46.52 12.7.65 15.44 0 0-26.22 2.61-37 1.31 0 0-13.77-.61-14.49-.61 0 0 .18-11.35.16-17.8.1-9.85.3-18.22.56-25.27s-.64-20.8 8.46-25.5c5.69-2.93 7.33-2.75 15.25-3.14 6.47-.26 15.66.73 19.39 4.2 4.77 4.36 5.34 13.78 6 22.82.44 10.19.77 20.06 1.03 28.55z"/>
  <path fill="#cde5f2" d="m85.41 115.65.23-25.43s4.97-.82 6.53-1.14c1.56-.33 1.82-43.68 1.82-43.68s2.3-.98 3.55-1.42c.33-.1 1.95 25.21 2.15 27.42 0 0 19.94-.46 20.85-.58 0 0 .47-21.58.6-22.94l.43-4.6s3.1.5 3.87.96c.78.46 1.16 32.71 1.8 43.56 0 0-.37.17 2.08.3 1.64.03 6.83.41 6.83.41l.79 26.21-51.52.93z"/>
  <path fill="#c58f79" d="m125.2 27.1c-.09-.44-.48-.68-.94-.88.2-3.56-.55-5.83-2.14-8.12-1.33-1.92-3.19-3.83-5.8-4.76-2.3-.83-7.97-.61-10.24.3-5.44 2.07-7.58 7.13-7.86 12.71-.47.12-.88.3-1.01.71a3.3 3.3 0 0 0 -.26 2.18c.18.63.59 1.03 1.4 1.57.22 2.6 1.04 5.09 2.38 7.15l.28.42c2.11 3.24 4.94 5.13 8.32 5.13h2.67c3.36 0 6.55-1.87 8.66-5.09l.84-1.28a15.41 15.41 0 0 0 2.37-6.65c.69-.35 1.07-.67 1.3-1.2.3-.74.23-1.44.02-2.2z"/>
  <path fill="#1e1a28" d="m132.03 31.36c-.37-1.88-2.64-4.32-3.42-5.54-2.07-3.24-2.93-4.9-2.93-4.9-2.26-4.62-7.17-8.45-12.74-8.71-2.88-.14-5.92-.09-8.65 1.52-.01.01.02 0 0 0-3.96 1.98-7.07 7.22-6.3 11.85.04.26.1.51.16.76.46-.01.98.1 1.4-.16a18.23 18.23 0 0 0 5.92-6.84c4.39 6.64 13.25 9.02 18.79 6.87v.02c.46.2.85.43.93.87.2.76.27 1.45-.03 2.2-.23.53-.61.85-1.3 1.2a15.4 15.4 0 0 1 -2.37 6.66l-.84 1.28c-.7 1.06-1.5 1.97-2.4 2.72.16.55 1.27 3.58 5.47 2.71 4.42-.91 4.36-1.33 6.27-3.36 2.1-2.25 2.86-4.91 2.04-9.15z"/>
</svg>