<svg fill="none" viewBox="0 0 125 248" xmlns="http://www.w3.org/2000/svg"><path d="m106.07 96.7c2.5-.76 9.16-2.3 11.96-.94 2.78 1.37 1.33 2.25.19 2.57-1.2.33-4.68 1.22-.15 2.32 1.97.47 4.06 1.38 5.54 2.62.92.76.96 2.25-2.97 3.6-3.94 1.36-8.55 1.93-12.02.44-3.47-1.48-2.8-1.76-2.8-1.76z" fill="#c58f79"/><path d="m81.45 80.43c-5.16-8.38-5.91-10.18-8.78-17.2-1.8-4.38-4.74-9.37-7.53-12.05-4.12-3.95-6.02-5.82-10.76-6.86-2.7-.6-6.52 1.4-7.32 5.57-.8 4.16 3.22 8.37 4.45 9.44s3.82 2.8 8.5 10.3c3.65 5.84 3.3 6.44 8.85 18.66 2.73 5.54 5.02 7.9 9.75 10.51 5.06 2.8 12.4 5.68 27.9 9.26a799.1 799.1 0 0 0 1.06-12.93c-18.27-5.35-23.91-11.1-26.12-14.7z" fill="#f9c4aa"/><path d="m9.84 131.4c1.04 2.1 3.4 7.75 2.73 10.46-.67 2.7-1.14 3.24-4.64 6.28-.78.68-2.27 1.15-4.03-2.12-1.75-3.27-2.97-7.26-2.32-10.59s.98-2.79.98-2.79l7.28-1.23z" fill="#c58f79"/><path d="m36.27 49.42c-.06-1.95-1.35-7.44-6.53-5.84-5.33 1.64-11.09 3.73-16.59 11.65-5.29 7.6-9.82 17.8-11.14 37.28-1.47 21.66-1.98 41.55-2.01 41.87l12.78-.27c.02-.32.05-16.11 2.5-44.6.7-8.02 3-16.74 5.86-20.91 1.86-2.72 4.42-6.06 6.13-7.59 0 0 2.96-2.06 5.2-3.67 3.63-2.62 3.88-5.4 3.8-7.91z" fill="#f9c4aa"/><path d="m17.86 241.33s-1.63 4.35-1.81 5.32c-.19.84-.6 1.13 2.4 1.16 0 0 17.74.28 18.95 0 .8-.18 1.8-1.29 1.26-6.23zm35.82.27s-.29 4.2.33 5.1c.62.92.99 1.5 6.44 1.2 0 0 15.36.28 15.85-.11.49-.4-2.31-6.47-2.31-6.47l-20.31.29z" fill="#1e1a28"/><path d="m16.12 108.74c-.12 8.23-1.21 51.15-1.33 55.78-.19 4.64-.31 44.09-.31 48.47 0 4.37-.13 28.4.42 29.19.56.78 23.48 1.37 24.65.52s0-39.64.18-44.28c.12-4.64.86-27.57.12-46.25-.73-18.68.6-22.13 1.04-22.13.43 0 .8-.92 2.53 16.71 1.72 17.64 5.22 49.71 5.96 57.48.74 7.84 2.76 38.21 3.57 38.54.8.32 22.49-.07 23.22-.33.74-.26-1.16-25.6-1.4-28.41-.25-2.81-5.17-65.12-5.41-68.46-.25-3.32-2.46-38.14-2.46-38.14s-25.94.06-28.15.26c-2.27.13-22.63 1.05-22.63 1.05z" fill="#153f7b"/><path d="m66.66 98c.03 6.46.51 12.7.64 15.44 0 0-26.22 2.62-37 1.32 0 0-13.78-.62-14.5-.62 0 0 .18-11.35.16-17.8.1-9.86.3-18.23.56-25.28.26-7.06-.64-20.8 8.46-25.5 5.7-2.94 7.34-2.75 15.26-3.14 6.47-.27 15.66.72 19.4 4.19 4.77 4.37 5.34 13.79 6 22.83.44 10.19.77 20.07 1.02 28.56z" fill="#f9c4aa"/><path d="m55.6 27.1c-.09-.44-.48-.67-.93-.87.18-3.57-.56-5.83-2.15-8.12-1.33-1.92-3.19-3.84-5.8-4.77-2.3-.82-7.97-.6-10.25.31-5.44 2.07-7.58 7.12-7.86 12.71-.46.12-.88.3-1.01.71a3.3 3.3 0 0 0 -.26 2.18c.18.63.59 1.03 1.4 1.57.22 2.6 1.04 5.09 2.39 7.15l.27.42c2.12 3.24 4.95 5.13 8.33 5.13h2.67c3.36 0 6.55-1.87 8.66-5.09l.84-1.28a15.4 15.4 0 0 0 2.37-6.65c.69-.35 1.07-.67 1.3-1.2.3-.74.23-1.44.02-2.2z" fill="#c58f79"/><path d="m59.31 21.54c-.7-2.75-3.88-4.15-3.88-4.15s1.97-2.4-.5-4.15c-2.46-1.76-4.49-.74-4.49-.74s.06-2.1-2.96-3.23a4.95 4.95 0 0 0 -4.93.56s-2.3-1.66-5.36-.56c-3.07 1.11-2.95 3.32-2.95 3.32s-4.78-.37-6.7 2.22a3.54 3.54 0 0 0 0 4.6s-3.28 1.12-3.28 3.88 3.28 3.96 3.28 3.96l.96-.86.78-.18c4.1-1 7.39-3.12 9.27-5.64 3.4 3.12 8.38 4.9 13.6 4.7.52 1.2 1.41 2.45 2.92 2.45 4.76 0 4.82-3.95 4.24-6.18z" fill="#1e1a28"/></svg>