<svg fill="none" viewBox="0 0 251 211" xmlns="http://www.w3.org/2000/svg"><rect fill="#fff" height="128.84" rx="5" width="250.56"/><path d="m194.63 158.3h-58.37v-14.3s7-20.4 10.72-23.64c3.72-3.22 8.63-5.64 8.63-5.64h13.33s6.73 4.2 9.96 6.84c3.23 2.63 3.22 3.25 5.05 5.54 1.83 2.28 5.67 11.92 5.67 11.92l5 19.28z" fill="#abe1cd"/><path d="m230.38 154.82c-1.24-2.66-3.08-6.47-4.07-7.99a54.25 54.25 0 0 0 -7.02-8.27c-2.96-2.93-9.17-5.78-9.17-5.78l-8.28-.8-4.97-.49s-5.11 1.93-9.12 4.77c-4 2.85-12.92 22.43-12.92 22.43 29.34 27.62 52.98 19.46 55.55 16.46 1.82-2.12 1.72-9.96 1.5-14.4a18.54 18.54 0 0 0 -1.5-5.93z" fill="#b4cea0"/><path d="m64.83 133.19h-2.4v2.02h2.4z" fill="#e2f1df"/><path d="m131.77 143.25v6.83l-58.37 7.42 5-19.22s3.85-9.6 5.68-11.89c1.83-2.27 1.81-2.9 5.05-5.52 3.23-2.64 9.95-6.82 9.95-6.82h13.34a47 47 0 0 0 8.64 5.63c3.72 3.22 10.7 23.56 10.7 23.56z" fill="#9bcab9"/><path d="m169.96 96.23s1.51 2.88 4.46 5.6c3.04 2.8 3.53 3.84 3.9 5.5.83 3.76.06 6.12-2.05 8.1-1.91 1.8-1.85 2.17-6.3 2.98-4.64.84-5.52-2.48-5.52-2.48s3.15-6.4 2.61-8.6-2.94-6.9-2.94-6.9" fill="#1e1a28"/><path d="m161.96 91.19a10.9 10.9 0 0 1 5.36 4.3l.6.92a12.53 12.53 0 0 1 1.93 8.26l-.24 2.08a12.3 12.3 0 0 1 -2.3 5.93l-.82 1.1a10.46 10.46 0 0 1 -8.39 4.36h-2.57c-3.28 0-6-1.62-8.05-4.4l-.27-.36a12.44 12.44 0 0 1 -2.35-8.04l.13-2.36c.27-4.8 3.2-8.94 7.4-10.44 2.2-.78 7.38-2.16 9.57-1.37z" fill="#f9c4aa"/><path d="m169.53 103.23c.54.18 1.01.4 1.11.8.24.65.33 1.25 0 1.9-.28.5-.78.78-1.76 1.12l.65-3.83zm-24.07 0c-.58.1-1.1.22-1.27.6-.35.59-.53 1.17-.31 1.84.2.55.67.9 1.62 1.38l-.04-3.83z" fill="#f9c4aa"/><path d="m153.29 92.01c0-.25-.33-1.3-.4-1.56-.49.01.5-.1 0 0-5.1.94-9.7 6.96-8.7 12.27.05.25.1.5.17.75.49 0 1.05.1 1.49-.15 3.04-1.77 7.6-6.68 7.44-11.3z" fill="#1e1a28"/><path d="m151.95 90.67c-.4.15-.79.31-1.17.5.16.82.21 1.73.69 2.46 4.04 6.17 11.54 13.95 19.85 10.9.4-.14.27 0 .55-.55.03-1.02.48-2.2-.19-4.15-2.87-8.4-11.42-12.2-19.72-9.15h-.01zm-33.93 2.39 1.32 3.4a35.14 35.14 0 0 1 1.82 6.43l.97 5.27c-1.7 1.36-3.68 1.51-5.94.46l2.09-8.17m-23.92-7.39-1.59 3.34a34.6 34.6 0 0 0 -2.3 6.34l-1.35 5.24c2.68 1.92 4.47 1.64 6.07.88l-1.6-8.37" fill="#1e1a28"/><path d="m110.55 88.16c2.18.8 4.06 2.31 5.4 4.35l.6.93a12.68 12.68 0 0 1 1.94 8.33l-.24 2.12a12.5 12.5 0 0 1 -2.32 5.98l-.82 1.11a10.51 10.51 0 0 1 -8.43 4.4h-2.59c-3.29 0-6.03-1.63-8.1-4.44l-.26-.36a12.6 12.6 0 0 1 -2.36-8.11l.13-2.38c.26-4.85 3.21-9.03 7.43-10.55 2.21-.79 7.42-2.19 9.63-1.38z" fill="#7f433b"/><g fill="#1e1a28"><path d="m108 87.26c0-.35-.01-.7-.04-1.03a13.08 13.08 0 0 0 -15.1 13.97c.68.1 1.42.4 2.08.16 8.5-3.16 13.06-5.87 13.06-13.1z"/><path d="m107.02 86.06c-.33 0-.65.02-.97.04a12.36 12.36 0 0 0 13.16 14.3 12.36 12.36 0 0 0 -12.19-14.35z"/><path d="m107.02 86.06c-.33 0-.65.02-.97.04a12.36 12.36 0 0 0 13.16 14.3 12.36 12.36 0 0 0 -12.19-14.35z"/></g><path d="m118.03 100.46c.54.18 1.01.4 1.11.8.24.65.33 1.25 0 1.9-.28.51-.78.78-1.77 1.12l.66-3.83zm-24.06-.13c-.54.1-1.02.22-1.17.6-.33.59-.5 1.16-.3 1.84.2.55.63.9 1.5 1.38l-.04-3.83z" fill="#7f433b"/><path d="m213.2 107.11a11.56 11.56 0 0 1 4.68 5.63l.43 1.08a13.32 13.32 0 0 1 .25 9l-.7 2.14c-.71 2.2-1.99 4.18-3.67 5.69l-1.08.97a11.18 11.18 0 0 1 -9.67 2.77l-2.69-.55c-3.4-.7-5.16-2.8-6.7-6.12l-.2-.44a13.2 13.2 0 0 1 -.75-8.86l.64-2.43c1.3-4.94 5.23-8.64 9.94-9.32 2.45-.35 7.4-.85 9.52.44z" fill="#f8e0d8"/><path d="m218.39 121.25c.54.3 1 .6 1.03 1.03.12.7.07 1.32-.4 1.9-.43.46-1.04.64-2.18.77z" fill="#f8e0d8"/><path d="m212 108.38c.06-.24.54-1.18.65-1.4-.48-.18.48.1 0 0 4.84 1.8 8.39 8.33 6.58 13.18a8.4 8.4 0 0 1 -.3.68c-.48-.1-1.04-.08-1.43-.4-2.7-2.24-6.4-7.72-5.5-12.06z" fill="#ed9a32"/><path d="m214.52 107.94c.37.26.73.52 1.07.8-.38.8-.83 1.6-1.35 2.36-5.32 7.75-15 7.21-20.91 5.45 0 0-.06-.2-.04-.3-.2-.97 1.01-4.54 1.53-5.3 5.32-7.75 11.95-8.32 19.7-3z" fill="#ed9a32"/><path d="m30.31 157.98c1.25-2.66 3.08-6.47 4.08-7.99a54.26 54.26 0 0 1 7.01-8.27c2.96-2.93 9.17-5.78 9.17-5.78l8.29-.8 4.96-.48s5.11 1.92 9.12 4.77c4.01 2.84 12.92 27.88 12.92 27.88l1.32 1.33c-29.34 27.62-52.98 19.46-55.55 16.45-1.82-2.12-3.04-16.74-2.82-21.18.26-3.34 1.5-5.93 1.5-5.93z" fill="#68b096"/><path d="m60.6 109.64c2.18.72 4.1 2.17 5.5 4.15l.63.9a12.61 12.61 0 0 1 2.2 8.24l-.17 2.1c-.18 2.2-.9 4.29-2.12 6.04l-.78 1.13a10.46 10.46 0 0 1 -8.25 4.65l-1.85.06c-3.27.1-6.06-1.43-8.2-4.15l-.28-.35a12.57 12.57 0 0 1 -2.62-8l.05-2.37c.11-4.83 2.9-9.08 7.05-10.73 2.17-.87 6.59-2.4 8.8-1.67h.03z" fill="#f9c4aa"/><path d="m66.99 114.26c1.2 7.55-12.7 13.35-19.87 16.4-2.62 1.12-1.48 7.75-15.67 15.28-14.2 7.53-13.44-7.16-13.44-7.16 1.56-13.01 20.43-5.36 25.93-12.35-.59-1.36-.36-5.3.57-11.47 1.4-3.31 3.8-5.37 7.58-5.63 7.77-1.11 13.78.44 14.9 4.93z" fill="#ed9a32"/><path d="m48.64 15.99 22.6-3.99 4 22.6-22.61 3.99zm154.92 44.94 22.6-3.99 3.99 22.6-22.6 4-4-22.61zm-184.56.96 22.6-3.99 3.99 22.6-22.6 3.99zm160.81-49.89 22.6 3.99-3.98 22.6-22.6-3.99 3.97-22.6zm-64.91 23.35 22.6 3.99-3.99 22.6-22.6-3.99 3.98-22.6z" fill="#f8de9c"/><path d="m129.48 210.97c46.65 0 84.48-14.36 84.48-32.07 0-17.7-37.83-32.06-84.48-32.06-46.66 0-84.48 14.35-84.48 32.06s37.82 32.07 84.48 32.07z" fill="#c58f79"/><path d="m178.39 170a3.1 3.1 0 0 0 -2.74 1.66v-3.86c-5.63.32-11.72.34-18.42 0 0 0 .78 6.12 1.05 8.94.52 5.3 6.84 6.17 6.84 6.17s5.61.88 7.9-2.46a16.34 16.34 0 0 0 2.58-6.02 3.1 3.1 0 1 0 2.79-4.43zm1.52 3.38a1.55 1.55 0 1 1 -3.04-.56 1.55 1.55 0 0 1 3.04.56z" fill="#054449"/><path d="m90.16 166.85 41.7-8.27 5.01 25.28-41.7 8.27z" fill="#fff"/></svg>