<svg xmlns="http://www.w3.org/2000/svg" fill="none" viewBox="0 0 244 248"><path fill="#68B096" d="M67.13 61.09v13.85C74.05 71.48 81 66.8 88.68 64.42c15.26-4.7 27.41 2.88 30 18.06 2 11.69-9.18 24.8-23.3 22.3-13.46-1.76-19.25-10.22-18.7-25.7-8.31 4.5-11.58 18.99-9.38 42.74 6.42-3.46 11.07-8.22 18.33-10.57 11.33-3.68 22.65-3.42 31.13 7.1 6.13 7.6 7.89 21.74.13 30.29-7.06 7.77-21.23 9.5-30.48 3.36-5.85-3.87-12.06-13.84-9.08-25.08.14-.49.66-2.08 1.27-3.2-3.8.97-7.84 7.37-8.53 12.92-1.85 15.1-1.54 28.53-1.87 43.98 6.53-6.8 13.3-12.57 22.03-15.48 12.54-4.18 24.21-3.87 33.68 6.94 6.74 7.7 7.22 19.08 1.7 29-3.48 6.26-14.3 11.91-24.65 10.18-14.28-2.38-20.3-17.18-16.9-31.75-9.26 7.46-12.87 16.94-13.27 27.64-.4 11.02-.17 22.07-.08 33.09.05 4.6-.46 7.69-6.6 7.69-5.58 0-5.9-3.42-5.88-7.5.03-10.1.27-20.2-.11-30.3-.3-7.86-1.05-15.8-5.42-21.75-1.32 6.52-1.61 11.45-4.46 16.19-4.85 8.09-13.37 10.12-22.53 8.98-9.09-1.15-13.77-7.29-16.05-15.23-3.22-11.18 1.69-22.64 11.43-27.44 9.4-4.65 23.46-5.09 32.37 6.31 1.45 1.86 2.74 3.85 4.76 6.69 0-15.96-.45-29.17-1.08-44.16-.38-8.89-10.45-18.9-19.2-21.06a31.37 31.37 0 0 1 5.8 10.93c2.02 9.38-1.28 16.3-7.88 22-6.73 5.8-14.95 6.99-22.64 3.7C.4 149.8-3.16 136.66 2.82 123.87c4.82-10.32 16.92-15.2 29.48-13.94 12.27 2.1 14.13 2.11 25.05 9.8 2.1-15.27 1.01-36.44-7.32-43.88.5 2.86.47 4.56.33 7.83-.9 8.89-4.83 12.93-14.35 15.57-10.64 2.94-21.2-.9-25.07-9.53-3.88-8.67-2.96-21.08 5.77-27.3 9-6.42 24.94-5.09 34.4 3.19 2.53 2.21 5.04 4.45 7.35 6.49V61.14C42.95 55.35 39.1 43.8 41.2 33.35c2.54-12.46 13.54-19.48 26.91-17.97 10.64 1.22 18.86 10.6 19.15 21.85.32 12.24-7.54 21.72-20.13 23.84v.02Z"/><path fill="#F9C4AA" d="M184.45 134.36c1.88-.58 6.88-1.74 8.97-.71 2.1 1.03 1 1.69.15 1.93-.9.25-3.51.91-.11 1.73 1.48.37 3.05 1.05 4.16 1.97.69.58.72 1.7-2.24 2.71-2.95 1.02-6.4 1.44-9.01.33-2.61-1.12-2.12-1.32-2.12-1.32l.2-6.65Z"/><path fill="#9ECCED" d="M165.96 122.14c-3.87-6.3-4.44-7.65-6.6-12.92-1.35-3.29-3.56-7.04-5.65-9.05-3.09-2.97-4.52-4.37-8.08-5.15-2.03-.45-4.9 1.05-5.5 4.18-.6 3.13 2.42 6.28 3.34 7.09.93.8 2.87 2.1 6.39 7.73 2.74 4.39 2.47 4.84 6.65 14.02 2.04 4.16 3.76 5.93 7.32 7.89 3.8 2.1 9.3 4.26 20.95 6.95.19-1.66.8-9.7.8-9.7-13.73-4.03-17.97-8.34-19.63-11.04Z"/><path fill="#1E1A28" d="M118.2 242.96s-1.21 3.27-1.35 4c-.14.62-.45.84 1.8.87 0 0 13.32.2 14.23 0 .6-.14 1.35-.97.95-4.68l-15.62-.2ZM145.1 243.17s-.21 3.14.25 3.83c.47.68.75 1.12 4.84.9 0 0 11.54.2 11.9-.1.37-.29-1.73-4.85-1.73-4.85l-15.26.22Z"/><path fill="#1D57AA" d="M116.73 143.4c-.1 6.17-.74 38.4-.83 41.88-.14 3.48-.23 33.1-.23 36.4 0 3.28-.1 21.33.32 21.91.42.6 17.63 1.03 18.5.4.88-.64 0-29.77.14-33.26.1-3.48.65-20.7.1-34.72-.56-14.03.45-16.63.77-16.63.33 0 .6-.69 1.9 12.56 1.3 13.24 3.92 37.32 4.48 43.16.55 5.89 2.07 28.7 2.68 28.94.6.24 16.89-.05 17.44-.25.55-.2-.88-19.22-1.06-21.33-.19-2.11-3.88-48.9-4.06-51.4-.19-2.5-1.85-28.65-1.85-28.65s-19.47.05-21.13.2c-1.71.1-17.17.78-17.17.78Z"/><path fill="#CDE5F2" d="m115.66 189.88 1.03-42.83 38.62-.77 3.1 42.92-42.75.68Z"/><path fill="#9ECCED" d="M154.85 135.33c.03 4.85.39 9.53.49 11.6 0 0-19.7 1.96-27.79.98 0 0-10.35-.46-10.89-.46 0 0 .13-8.53.12-13.37.08-7.4.22-13.69.42-18.98.2-5.3-.48-15.62 6.35-19.15 4.28-2.21 5.51-2.07 11.46-2.36 4.87-.2 11.77.54 14.57 3.14 3.58 3.29 4.01 10.36 4.5 17.15.34 7.65.58 15.07.78 21.45Z"/><path fill="#CDE5F2" d="m116.66 148.6.18-19.1s3.72-.6 4.9-.85c1.17-.25 1.37-32.8 1.37-32.8s1.72-.75 2.66-1.07c.25-.09 1.47 18.93 1.62 20.59 0 0 14.97-.34 15.66-.44 0 0 .35-16.2.45-17.23l.33-3.45s2.31.38 2.9.72c.59.34.87 24.57 1.36 32.72 0 0-.29.12 1.56.22 1.23.03 5.13.31 5.13.31l.59 19.7-38.7.69Z"/><path fill="#C58F79" d="M195.83 131.9c-16.95-5.82-33.56-1.96-36.16-1.33l-3.12-1.63c-3.23-1.67-5.46-1.93-5.81-1.9-.16.22-.89 1.81-1.8 3.53-1.06 1.96-2.2 3.92-2.2 3.92l.84.56c-4.42 1.82-9.2 3.6-13.34 5.6-5.16 2.5-9.04 4.2-13.38 6.59-2.05-.5-3.61-.8-5.75-1.38-3.07-1.02-9.33-2.99-9.57-2.65-.17.48 1.06 3.15 2.86 10 .71 3.14 1.73 11.64 2.17 11.67.53.07 7.42-7.3 11.04-11.72 2.56.23 5.8.42 9 .34-.5.38-.9.68-.99.8.08.19 1 .99 1.84 2.13.9 1.23 1.8 2.55 1.94 2.63a35.46 35.46 0 0 0 6.25-5.6c6.36.1 11.64-.2 18-1.11 24.92-3.56 34.81-12.26 38.64-18.29v-.01l.13-.2c.75-1.28-.13-1.77-.6-1.95Z"/><path fill="#F9C4AA" d="M118.92 147.08c1.63.54 5.76 2.23 6.8 4.02 1.03 1.79 1.05 2.33.75 5.84-.06.8-.62 1.86-3.22 1.09s-5.3-2.2-6.65-4.32c-1.36-2.1-.9-2-.9-2l3.22-4.63Z"/><path fill="#9ECCED" d="M130.93 99.99c-.5-3.24-2.16-5.42-4.46-5.21-6.17 1.48-13.64 6.73-19.8 15.39-2.26 3.16-7.04 10.83-7.04 15.55.17 12.1 13.85 25.59 15.46 27.56l7.09-6.06c-.45-.28-3.9-4.22-6.42-7.54-3.52-6.57-5.79-11-5.79-13.96 2.2-8.34 6.92-12.08 15.68-17.3 0 0 3.04-1.67 4.3-3.68a6.03 6.03 0 0 0 .98-4.75Z"/><path fill="#CDE5F2" d="M122.86 112.12c.2-8.16.25-16.3.25-16.3s1.71-.73 2.66-1.06c.24-.08 1.47 18.94 1.61 20.6.15 1.66-4.71 4.77-4.52-3.24Z"/><path fill="#F9C4AA" d="M146.52 82.1c-.06-.34-.36-.52-.7-.67.14-2.67-.42-4.38-1.6-6.1a9.18 9.18 0 0 0-4.36-3.57c-1.74-.63-6-.46-7.7.23-4.09 1.55-5.7 5.35-5.9 9.54-.35.1-.66.22-.76.54a2.48 2.48 0 0 0-.2 1.63c.14.48.44.78 1.05 1.18.17 1.95.78 3.82 1.8 5.37l.2.32c1.59 2.43 3.71 3.85 6.25 3.85h2c2.53 0 4.93-1.4 6.52-3.82l.63-.96a11.58 11.58 0 0 0 1.77-5c.52-.26.8-.5.98-.9a2.5 2.5 0 0 0 .02-1.65Z"/><path fill="#1E1A28" d="M141.08 72.28a11.35 11.35 0 0 0-3.28-1.24c.45-.22.85-.55 1.16-.97l.25-.32c.39-.5.63-1.11.7-1.76l.08-.62c.1-.86-.11-1.74-.59-2.45l-.18-.27c-.4-.6-.85-.89-1.62-1.06a4.98 4.98 0 0 0-2.92.2 3.45 3.45 0 0 0-2.25 3.09l-.04.7c-.05.86.2 1.7.71 2.38l.08.1c.3.4.64.7 1.03.93a9.88 9.88 0 0 0-6.29 3.81c-2.07 3.46-1.72 3.98-1.98 6.02-.03.26.02.53.04.79a9.68 9.68 0 0 0 10.34-5.64c1.47 3.58 4.91 6.18 8.76 5.6.24-.03.5-.11.74-.14.05-.49.04-.9.04-1.41a9.12 9.12 0 0 0-4.78-7.74Z"/><path fill="#F9C4AA" d="M237.3 188.89c.53.92.9 1.96 1.61 2.66.48.47 1.43.6 2.18.61 1.51.02 2.4-.88 2.58-2.34.25-1.96-.58-2.96-3.17-3.8.44-1.17 1.59-1.08 2.51-1.39-1.04-1.1-3.16-1.14-4.08.13a8.45 8.45 0 0 1-3.06 2.76c-.5.25-.84.77-1.12 1.03-2.28-1.24-4.43-2.6-6.74-3.61-4.44-1.97-9.22-2.45-14.02-2.66-7.24-.33-14.48-.25-21.7.39-7.82.69-15.58 1.78-23.03 4.44-3.08 1.1-5.77 2.87-8.44 4.68-3.74 2.53-7.46 5.08-11.2 7.6-.6.4-1.46 1.36-2.44 2.6a13.42 13.42 0 0 0-12.95-4.45v1.06c.22 4.98 3.13 9.2 7.26 11.34l-1.36 2.07c-.57.87-1.04 1.82-1.5 2.77-1 2.1-2.4 2.89-4.58 2.47v.02s-2.88-.5-2.49 1.25c.22.8.44 1.6.71 2.4h-.04a6.8 6.8 0 0 0 .46.98c.6 1.15 1.85 3 3.9 3.83.13.08.27.14.42.17l.28.06.24.06.2.04a58.2 58.2 0 0 0 7.6 1.27c4.31.35 8.65.47 12.98.65v.01a18.09 18.09 0 0 0 1.35.05c.14 0 .29 0 .45-.03l.84.01 1.23 12.06-1.52 7.92h7.44l1.66-18.58a13 13 0 0 0 1.1-1.27l3.08.04.5 4.1-2.03 15.71h6.93l2.02-5.41.51-14.28 4.1.07c7.03.38 19.55.93 28.67.67l1.41 4.1-2.53 14.09-.01.03.53.73h7.63l.87-14.32-.09-4.66 1.72.53 1.24 3.6-2.53 14.09v.03l.52.73h7.63l.24-3.94c.36-1.84 4.46-17.89 4.41-20.06 0-.36.31-.8.6-1.08 2.55-2.5 4.68-5.27 5.93-8.66 1.42-3.82 1.03-7.7.3-11.55a23.94 23.94 0 0 0-5.91-11.99c-.68-.73-.34-1.42.68-1.84h.01Zm2.3-1.14c.9.14 1.85.2 2.18 1.15.12.34-.16 1.05-.49 1.26-.31.21-1.06.2-1.35-.05-.71-.6-.63-1.47-.34-2.36Z"/><path fill="#CDE5F2" d="m206.03 24.97-1.4-1.75c-2.74-3.33-5.45-6.7-8.3-9.95-1.22-1.42-2.74-2.57-4.12-3.85-.19-.17-.31-.4-.47-.63.23-.12.46-.27.7-.35 3.22-.92 6.5-1.32 9.84-1.2 2.34.07 4.49.6 6.53 1.82a24.96 24.96 0 0 1 7.82 7.3c.37.53.84.98 1.23 1.49.85 1.11 1.7 2.2 2.5 3.35.31.42.58.69 1.1.52 1.3-.4 2.6-.74 3.88-1.19 1.76-.61 3.37-.55 4.79.79.28.27.55.34.99.2.55-.17 1.17-.15 1.76-.23l.1.24-1.41 1.62 1.75.79v.28c-.44.14-.87.32-1.3.39-.82.12-1.23.57-1.58 1.31a14.35 14.35 0 0 1-5.73 6.32c-1.39.84-2.75 1.74-3.99 2.8-.82.72-1.42 1.73-2.03 2.67a63.76 63.76 0 0 1-7.58 9.12 43.41 43.41 0 0 1-9.2 7.18 27.88 27.88 0 0 1-7.26 3.03c-.6.16-1.25.2-1.86.3l-.14-.19c.21-.45.39-.94.64-1.38 2.45-4.12 4.98-8.2 7.32-12.38 1.54-2.75 2.81-5.67 4.19-8.52.07-.14.09-.3.16-.6-.35.14-.59.2-.81.32-1.74 1-3.45 2.06-5.21 3.04-2.06 1.14-4.16 2.2-6.23 3.32-.42.22-.76.58-1.16.84-.2.12-.46.25-.67.21-.13-.02-.26-.35-.27-.54-.49-3.95-.94-7.9-1.41-11.84a2.8 2.8 0 0 0-.05-.34c-.1-.6.1-.88.76-1 1.97-.4 3.92-.93 5.9-1.34 3.08-.62 6.17-1.17 9.25-1.74l.97-.23Z"/></svg>