<svg viewBox="0 0 72 211" xmlns="http://www.w3.org/2000/svg">
<path fill="#153f7b" d="m2.24 210.57c-1.31-1.22-2.46-1.5-2.2-11.84.25-10.35 1.42-140.03 1.42-141.14 0-1.1.86-1.97 2.34-1.97s63.87.6 65.35.6 2.1.5 2.22 3.34c.13 2.85.12 135.08 0 139.22-.1 4.15 0 9.8-.8 11.43l-68.33.35z M20.54 55.78v-23.72h-2.46c-.67 0-.78-.58-.78-1.73s.49-21.54.34-21.77c-.16-.24-15.49-.05-15.82-.25-.34-.2-.2-7.79 0-8.13.2-.34 51.81-.12 53.25 0 1.16.1.94 1.12.93 2.02-.01.64-.64 28.36-.64 29.07 0 .7-.58.71-.78.78-.21.06-2.15 0-2.15 0v24.03l-31.9-.31v.01z"/>
</svg>