<svg xmlns="http://www.w3.org/2000/svg" width="80" height="253" viewBox="0 0 80 253">
  <path fill="#68B096" d="M71.6 251.64c-8.58 1.57-60.15 1.36-65.14-.83-5-2.18-6.32-5.4-6.44-14.47-.1-9.1.2-109.6.32-112.74.1-3.13 1.68-13.02 10.44-18.98 8.76-5.95 7.94-6.16 8.16-7.83.23-1.68.54-17.83.54-18.74h42.17s-.16 16.48.4 18.93c.38 1.7 1.5 3.82 8.9 8.34 5.98 3.65 8.7 11.2 8.84 15.23.15 4.03.08 113.6 0 116.05-.07 2.45-.42 13.63-8.18 15.04h-.01Z"/>
  <path fill="#1E1A28" d="M66.47 49.73h-9.2c-2.05-6.01-2.05-14.92-2.17-18.3-.12-3.37.48-16.5-.6-21.44C53.42 5.06 48.47 0 41.26 0s-13 6.5-13.72 10.12c-.73 3.6-.96 11.55-.84 20.71a66.76 66.76 0 0 1-2.52 18.9H15.3c-1.02 0-1.83.71-1.83 1.73s-.5 26.59-.5 26.59h55.44v-26.6c0-1.2-.97-1.72-1.93-1.72h-.02Z"/>
</svg>