<svg fill="none" viewBox="0 0 172 256" xmlns="http://www.w3.org/2000/svg"><path d="m76.63 158.41c-5.4.98-37.86.85-41-.52-3.15-1.38-3.98-3.4-4.05-9.12s.12-68.99.2-70.96c.06-1.98 1.05-8.2 6.57-11.95 5.51-3.75 5-3.88 5.14-4.93.14-1.06.33-11.22.33-11.8h26.55s-.1 10.38.25 11.92c.24 1.07.95 2.4 5.61 5.25 3.76 2.3 5.47 7.05 5.56 9.59.1 2.54.05 71.5 0 73.05-.05 1.54-.27 8.58-5.15 9.47z" fill="#68b096"/><path d="m73.4 31.3h-5.79c-1.28-3.78-1.28-9.39-1.36-11.51-.08-2.13.3-10.39-.38-13.5-.68-3.09-3.8-6.29-8.33-6.29-4.55 0-8.2 4.1-8.64 6.37-.46 2.27-.6 7.27-.53 13.04a42.03 42.03 0 0 1 -1.59 11.9h-5.58c-.64 0-1.15.44-1.15 1.08s-.32 16.74-.32 16.74h34.9v-16.73c0-.76-.6-1.08-1.21-1.08h-.02zm14.58 68.93 1.78 5.78c3.58-2.1 6-2.7 9.1-3.59.99-.32 2.02-.6 3.02-.86 2.75-.77 5.71-1.53 6.53-1.31l-1.78-5.78c1.59-.65 2.51-1.13 2.45-1.33l-1.27-4.11c-.14-.46-5.6.81-12.18 2.85-6.6 2.03-11.82 4.06-11.68 4.52l1.27 4.1c.06.2 1.1.08 2.78-.28z" fill="#1e1a28"/><path d="m108.4 100.26c1.84.5 9.15 2.06 10.46 2.47 1.3.4 2.32 1.8 2.91 3.46.6 1.66 36.94 107.58 47.4 123.68 0 0 2.14 7.26 1.89 7.56s-22.76 6.25-29.76 8.4c-7.01 2.17-29.78 9.42-30.14 9.31-.37-.11-1.55-4.2-2.43-7.48a871.3 871.3 0 0 0 -13.5-71.2c-8.23-34.51-12.75-55.58-13.18-57.31s-.98-3.51.37-5.48c1.35-1.96 7.33-7.66 7.33-7.66 3.58-2.1 6-2.7 9.1-3.59 3.11-.89 8.4-2.48 9.54-2.17h.01z" fill="#9bcab9"/><path d="m44.69 181.77c1.94 0 4 .03 6.11.08 10.92.12 24.65.27 33.32 1.78.9-4.26 5.38-23.27 4.19-23.87-2.13-1.07-20.1-2.13-43.62-2.13-23.53 0-40.38.64-41.68 2.13-1.13 1.28 4.53 22.4 4.9 23.8 9.54-1.27 26.28-1.97 36.77-1.8v.01z" fill="#1e1a28"/><path d="m45.68 256c-7.76-.1-21.78-.36-23.18-.89s-16.33-14.02-18.94-21.9c-2.6-7.88-2.43-8.41-2.78-13.66-.34-5.26-1.67-33 .18-34.34 3.15-2.28 29.32-3.67 43.73-3.43 14.4.24 38.95-.06 45.95 3.78 2.62 1.43 1.07 28.6 0 35.74-.97 6.47-1.57 10.51-4.03 14.36s-15.07 19.1-17.34 19.45c-2.28.36-14.94.98-23.59.88z" fill="#9ecced"/></svg>