<svg fill="none" viewBox="0 0 145 155" xmlns="http://www.w3.org/2000/svg"><path d="m70.05 37.85c3.05 0 6.28.04 9.59.12 17.11.19 38.64.42 52.22 2.8h.02c1.4-6.68 8.43-36.5 6.56-37.44-3.34-1.66-31.5-3.33-68.39-3.33-36.88 0-63.3 1-65.34 3.33-1.76 2.02 7.11 35.13 7.7 37.32 14.94-2 41.18-3.09 57.63-2.81h.01z" fill="#153f7b"/><path d="m71.62 154.2c-12.18-.14-34.15-.55-36.34-1.38-2.2-.83-25.61-21.97-29.7-34.33-4.08-12.36-3.8-13.19-4.35-21.42-.55-8.24-2.62-51.74.27-53.83 4.95-3.58 45.97-5.76 68.55-5.38 22.6.37 61.06-.09 72.04 5.92 4.12 2.25 1.68 44.85 0 56.03-1.52 10.14-2.47 16.48-6.32 22.52s-23.61 29.93-27.18 30.5c-3.57.55-23.42 1.52-36.97 1.37z" fill="#9ecced"/></svg>