<svg fill="none" viewBox="0 0 242 248" xmlns="http://www.w3.org/2000/svg"><path d="m135.28 96.68c-2.51-.77-9.16-2.31-11.95-.94-2.8 1.36-1.34 2.24-.2 2.56 1.2.33 4.68 1.22.16 2.31a14.16 14.16 0 0 0 -5.54 2.63c-.92.76-.97 2.25 2.97 3.6 3.93 1.35 8.53 1.92 12 .44 3.47-1.49 2.81-1.76 2.81-1.76l-.25-8.85z" fill="#c58f79"/><path d="m159.9 80.4c5.14-8.37 5.9-10.17 8.77-17.18 1.8-4.38 4.74-9.38 7.52-12.05 4.12-3.95 6.02-5.82 10.76-6.86 2.7-.6 6.52 1.4 7.32 5.57.8 4.16-3.22 8.36-4.45 9.43s-3.81 2.8-8.5 10.3c-3.64 5.83-3.29 6.44-8.85 18.66-2.72 5.53-5.01 7.88-9.74 10.5-5.06 2.8-12.4 5.68-27.9 9.26a798.34 798.34 0 0 1 -1.05-12.93c18.26-5.35 23.9-11.1 26.11-14.7z" fill="#f9cc76"/><path d="m231.47 131.37c-1.03 2.1-3.38 7.74-2.72 10.44s1.13 3.24 4.63 6.28c.79.68 2.28 1.15 4.03-2.12 1.76-3.26 2.97-7.25 2.33-10.58-.65-3.33-.98-2.79-.98-2.79l-7.28-1.23z" fill="#c58f79"/><path d="m205.06 49.4c.06-1.94 1.35-7.43 6.53-5.83 5.32 1.64 11.08 3.73 16.58 11.64 5.29 7.6 9.82 17.8 11.14 37.27 1.47 21.66 1.98 41.54 2 41.86l-12.77-.27c-.03-.32-.05-16.1-2.5-44.6-.7-8-3-16.72-5.86-20.9-1.86-2.7-4.42-6.05-6.13-7.57 0 0-2.96-2.07-5.19-3.68-3.64-2.62-3.89-5.4-3.8-7.91z" fill="#f9cc76"/><path d="m176.07 241.25s-1.62 4.36-1.8 5.32c-.2.84-.6 1.14 2.4 1.16 0 0 17.73.28 18.94 0 .8-.18 1.8-1.29 1.26-6.22zm35.81.28s-.28 4.19.33 5.1c.62.9 1 1.5 6.44 1.2 0 0 15.36.27 15.85-.12.49-.4-2.31-6.47-2.31-6.47l-20.3.29z" fill="#1e1a28"/><path d="m174.34 108.7c-.13 8.23-1.22 51.14-1.34 55.77-.18 4.63-.3 44.07-.3 48.45 0 4.37-.13 28.4.42 29.18.56.78 23.47 1.37 24.64.52 1.16-.84 0-39.63.18-44.27.12-4.63.86-27.55.12-46.22-.73-18.68.6-22.13 1.04-22.13.43 0 .8-.92 2.53 16.7 1.72 17.64 5.22 49.7 5.96 57.47.73 7.83 2.76 38.2 3.56 38.52.8.33 22.49-.06 23.22-.32.74-.27-1.17-25.6-1.4-28.41-.25-2.81-5.17-65.1-5.41-68.43-.25-3.33-2.46-38.13-2.46-38.13s-25.93.06-28.14.26c-2.27.13-22.63 1.04-22.63 1.04z" fill="#153f7b"/><path d="m174.67 97.97c-.03 6.46-.51 12.7-.64 15.44 0 0 26.22 2.61 36.99 1.31 0 0 13.78-.61 14.5-.61 0 0-.18-11.35-.17-17.8-.1-9.85-.29-18.22-.55-25.28-.26-7.05.64-20.78-8.46-25.48-5.7-2.94-7.33-2.76-15.25-3.15-6.48-.26-15.66.73-19.4 4.19-4.77 4.37-5.33 13.79-6 22.83-.44 10.18-.76 20.06-1.02 28.55z" fill="#f9cc76"/><path d="m201.49 27.45c-.02-.42-.06-.83-.1-1.24a17.1 17.1 0 0 0 -2.62-.09c-9.03.39-17.03 7.89-15.67 16.51.07.42.06.84.11 1.25.86.1 1.72.09 2.61.09 4.87.01 10.46-3.5 13.2-8.73 1.32-2.52 2.6-4.76 2.47-7.79z" fill="#1e1a28"/><path d="m213.8 27.1c-.08-.44-.47-.68-.93-.88.19-3.56-.55-5.83-2.14-8.12-1.33-1.92-3.2-3.83-5.8-4.76-2.3-.83-7.97-.61-10.24.3-5.44 2.07-7.59 7.13-7.87 12.71-.46.12-.87.3-1 .71a3.3 3.3 0 0 0 -.26 2.18c.18.63.58 1.03 1.4 1.57.21 2.6 1.03 5.09 2.38 7.15l.28.42c2.11 3.24 4.94 5.13 8.32 5.13h2.67c3.36 0 6.55-1.87 8.66-5.09l.84-1.28a15.41 15.41 0 0 0 2.36-6.65c.7-.35 1.07-.67 1.3-1.2.3-.74.24-1.44.03-2.2z" fill="#c58f79"/><path d="m206.75 13.62c-1.8-.97-3.67-1.79-5.8-1.85-.5-.06-1-.1-1.51-.1-3.93 0-8.28 2.27-10.38 5.4-2.78 4.74-2.31 5.45-2.66 8.25-.04.36.02.72.05 1.07.67.11 1.36.17 2.07.17 5.23 0 9.43-3.55 11.82-7.9 2.08 4.12 6.61 8.47 11.78 7.7.33-.06.65-.05.97-.09.08-.67.08-1.35.09-2.05.04-3.84-2.37-8.4-6.43-10.6zm-101.32 228.37v-6.35c-4.24 1-6.85.85-10.24.78-1.09.01-2.21-.02-3.3-.07-3-.08-6.2-.23-6.96-.7v6.34c-1.8.16-2.87.36-2.87.58v4.51c0 .5 5.87.92 13.11.92 7.25 0 13.12-.41 13.12-.92v-4.51c0-.22-1.08-.41-2.88-.58z" fill="#1e1a28"/><path d="m84.95 235.64c-1.7-1.07-8.55-4.91-9.73-5.72-1.19-.81-1.78-2.52-1.85-4.38-.08-1.85-3.75-119.4-9.26-138.8 0 0 .1-7.94.44-8.16.35-.23 24.77.78 32.48.78 7.7 0 32.79-.23 33.12 0 .34.22.25 4.69.12 8.26-.34 2-6.09 38.45-8.51 75.63-2.43 37.18-4.41 59.72-4.52 61.59-.1 1.86-.1 3.83-2.07 5.38-1.96 1.56-9.73 5.42-9.73 5.42-4.23 1-6.85.86-10.24.78-3.4-.07-9.2-.12-10.25-.78z" fill="#68b096"/><path d="m40.93 179.89c1.78 0 3.67.03 5.6.07 10 .11 22.58.25 30.52 1.64h.01c.82-3.9 4.93-21.33 3.83-21.88-1.94-.97-18.4-1.95-39.96-1.95-21.55 0-36.98.59-38.18 1.95-1.02 1.18 4.16 20.53 4.5 21.8 8.73-1.16 24.07-1.8 33.68-1.64z" fill="#1e1a28"/><path d="m41.85 247.88c-7.12-.09-19.95-.32-21.23-.8-1.29-.5-14.97-12.85-17.36-20.07-2.38-7.22-2.22-7.7-2.54-12.51-.32-4.82-1.53-30.24.16-31.46 2.89-2.09 26.86-3.36 40.06-3.14s35.67-.05 42.09 3.46c2.4 1.31.98 26.2 0 32.74-.89 5.92-1.44 9.63-3.7 13.16-2.24 3.53-13.8 17.49-15.88 17.81-2.08.33-13.68.9-21.6.8z" fill="#9bcab9"/></svg>