<svg xmlns="http://www.w3.org/2000/svg" width="252" height="248" viewBox="0 0 252 248">
  <path fill="#1e1a28" d="m23.74 241.16s-1.62 4.35-1.8 5.31c-.2.84-.6 1.13 2.39 1.16 0 0 17.71.28 18.92 0 .8-.18 1.8-1.29 1.26-6.22zm35.76.28s-.28 4.18.33 5.09c.62.9.99 1.5 6.43 1.2 0 0 15.34.27 15.83-.12.49-.4-2.31-6.46-2.31-6.46z"/>
  <path fill="#054449" d="m22 108.79c-.12 8.22-1.2 51.06-1.33 55.69-.18 4.63-.3 44.01-.3 48.38s-.13 28.36.42 29.14c.56.79 23.44 1.37 24.6.53 1.17-.85 0-39.58.19-44.21.12-4.63.86-27.52.12-46.17s.6-22.1 1.03-22.1c.44 0 .81-.92 2.53 16.69 1.72 17.6 5.21 49.62 5.95 57.38.74 7.83 2.76 38.15 3.56 38.47.8.33 22.46-.06 23.2-.32.73-.26-1.17-25.56-1.42-28.37-.24-2.8-5.15-65.01-5.4-68.34-.24-3.32-2.45-38.08-2.45-38.08s-25.9.06-28.1.26c-2.27.13-22.6 1.05-22.6 1.05h.01z"/>
  <path fill="#f9c4aa" d="m72.5 98.06c.03 6.46.5 12.69.64 15.42 0 0-26.18 2.61-36.94 1.32 0 0-13.76-.62-14.48-.62 0 0 .18-11.33.16-17.78.1-9.83.3-18.19.56-25.23s-.64-20.76 8.44-25.46c5.7-2.93 7.33-2.75 15.24-3.14 6.46-.26 15.64.73 19.36 4.19 4.77 4.36 5.34 13.77 6 22.8.44 10.17.76 20.03 1.02 28.5z"/>
  <path fill="#c58f79" d="m116.29 85.51 1.7 8.65s-.6.41 3.16 1.09c3.76.67 8.18-.91 11.77-3.1 3.6-2.2 3.22-3.63 2.14-4.17a14.5 14.5 0 0 0 -6.05-1.3c-4.71-.07-1.46-1.7-.36-2.29 1.06-.56 2.3-1.74-.76-2.45s-9.3 2.27-11.6 3.57z"/>
  <path fill="#f9c4aa" d="m54.63 58.27c.76 1.8 2.28 4.1 8.42 10.44 4.79 4.95 4.75 7.29 13.05 15.03 4.55 4.25 7.3 7.11 13.44 8.97 5.06 1.53 16.48 4 29.05 4.37-.2-2.21-1.44-13.65-1.44-13.65-9.53-.72-21.74-4.11-24.5-5.1-1.6-.56-4.88-3.41-6.37-4.98-5.83-7.1-6.14-8.39-10.4-14.64-2.67-3.9-5.53-8.52-8.7-10.8-2.27-1.72-3.29-2.35-4.84-3-1.55-.64-5.57-1.14-8.15 3.35-2.26 3.9-.33 8.2.44 10.01z"/>
  <path fill="#c58f79" d="m61.45 27.06c-.08-.44-.47-.68-.93-.87.19-3.56-.55-5.83-2.14-8.11-1.33-1.92-3.18-3.83-5.79-4.76-2.3-.83-7.96-.6-10.23.3-5.43 2.07-7.57 7.12-7.85 12.7-.46.12-.87.29-1 .7a3.3 3.3 0 0 0 -.26 2.18c.18.63.58 1.03 1.39 1.57a15.5 15.5 0 0 0 2.38 7.14l.28.42c2.11 3.24 4.93 5.12 8.31 5.12h2.66c3.36 0 6.55-1.87 8.66-5.08l.84-1.28a15.38 15.38 0 0 0 2.35-6.64c.7-.35 1.08-.67 1.3-1.2.3-.74.24-1.43.03-2.19z"/>
  <path fill="#1e1a28" d="m65.16 21.5c-.7-2.74-3.88-4.14-3.88-4.14s1.97-2.4-.5-4.15c-2.45-1.74-4.48-.73-4.48-.73s.06-2.1-2.95-3.22c-3-1.13-4.92.55-4.92.55s-2.3-1.66-5.36-.55c-3.06 1.1-2.94 3.31-2.94 3.31s-4.77-.37-6.69 2.21a3.54 3.54 0 0 0 0 4.6s-3.28 1.11-3.28 3.87 3.28 3.96 3.28 3.96l.96-.87c.26-.05.52-.1.78-.17 4.09-1 7.37-3.12 9.25-5.63 3.4 3.11 8.37 4.89 13.59 4.69.5 1.2 1.4 2.45 2.9 2.45 4.76 0 4.82-3.95 4.24-6.18z"/>
  <path fill="#c58f79" d="m25.64 113.23c2.16.72 7.66 2.97 9.04 5.35 1.37 2.38 1.4 3.1 1 7.77-.09 1.05-.82 2.46-4.28 1.44s-7.04-2.93-8.84-5.74c-1.81-2.8-1.21-2.66-1.21-2.66l4.3-6.16z"/>
  <path fill="#f9c4aa" d="m41.6 50.63c-.66-4.3-2.87-7.2-5.93-6.93-8.2 1.97-18.12 8.94-26.32 20.46-3 4.2-9.35 14.4-9.35 20.68.21 16.08 18.4 34.01 20.55 36.63l9.42-8.05c-.6-.37-5.17-5.61-8.53-10.03-4.69-8.73-7.7-14.62-7.7-18.55 2.92-11.1 9.2-16.06 20.84-23 0 0 4.04-2.23 5.73-4.9a8 8 0 0 0 1.3-6.31z"/>
  <path fill="#9ecced" d="m164.74 158.34c-4.96.9-34.79.79-37.67-.48-2.9-1.26-3.66-3.12-3.72-8.37-.07-5.26.11-63.38.18-65.2.06-1.81.97-7.53 6.03-10.98 5.07-3.44 4.6-3.56 4.73-4.53s.3-10.3.3-10.83h24.41s-.1 9.53.22 10.95c.23.98.88 2.2 5.16 4.82 3.45 2.1 5.02 6.47 5.1 8.8.1 2.34.05 65.7 0 67.12-.03 1.42-.24 7.89-4.72 8.7z"/>
  <path fill="#1e1a28" d="m161.77 41.57h-5.32c-1.18-3.48-1.18-8.63-1.25-10.58s.28-9.54-.35-12.4a7.74 7.74 0 0 0 -7.66-5.78c-4.17 0-7.52 3.76-7.93 5.85-.42 2.08-.56 6.68-.49 11.98a38.6 38.6 0 0 1 -1.46 10.93h-5.13c-.58 0-1.05.4-1.05 1 0 .59-.3 15.38-.3 15.38h32.07v-15.38c0-.7-.56-1-1.12-1zm13.39 63.33 1.64 5.3c3.29-1.93 5.51-2.48 8.37-3.3.9-.3 1.84-.55 2.77-.79 2.52-.7 5.24-1.4 6-1.2l-1.64-5.31c1.46-.6 2.3-1.04 2.25-1.22l-1.16-3.78c-.13-.42-5.14.75-11.2 2.62s-10.86 3.73-10.73 4.15l1.17 3.77c.05.19 1 .07 2.55-.26l-.02.01z"/>
  <path fill="#cde5f2" d="m193.93 104.92c1.68.45 8.4 1.9 9.6 2.27s2.14 1.64 2.68 3.17 33.94 98.84 43.55 113.64c0 0 1.96 6.67 1.73 6.95-.23.27-20.9 5.74-27.34 7.72-6.44 1.99-27.35 8.65-27.7 8.55-.33-.1-1.41-3.86-2.22-6.87a800.63 800.63 0 0 0 -12.4-65.42c-7.56-31.7-11.72-51.06-12.12-52.65-.39-1.58-.9-3.23.35-5.03 1.24-1.8 6.73-7.04 6.73-7.04 3.29-1.93 5.5-2.48 8.36-3.3 2.86-.81 7.72-2.27 8.77-1.99z"/>
  <path fill="#1e1a28" d="m135.39 179.8c1.78 0 3.68.03 5.62.08 10.02.1 22.64.25 30.6 1.64h.01c.83-3.92 4.94-21.39 3.84-21.94-1.95-.98-18.46-1.96-40.07-1.96-21.62 0-37.1.59-38.3 1.96-1.03 1.18 4.17 20.58 4.52 21.86 8.75-1.16 24.13-1.8 33.77-1.64z"/>
  <path fill="#cde5f2" d="m136.3 248c-7.13-.1-20-.33-21.29-.81-1.29-.5-15.01-12.88-17.4-20.13-2.4-7.24-2.24-7.72-2.56-12.55s-1.53-30.32.16-31.55c2.9-2.09 26.95-3.37 40.18-3.15 13.24.22 35.78-.05 42.22 3.47 2.4 1.32.98 26.28 0 32.84-.9 5.94-1.45 9.66-3.7 13.2-2.26 3.53-13.85 17.54-15.94 17.87-2.09.32-13.72.89-21.66.8z"/>
</svg>