<svg xmlns="http://www.w3.org/2000/svg" width="101" height="256" viewBox="0 0 101 256">
  <path fill="#1e1a28" d="m62.4 246.8v-9.6c-6.4 1.51-10.35 1.3-15.47 1.18-1.64.03-3.33-.02-4.97-.1-4.53-.13-9.37-.35-10.51-1.07v9.6c-2.71.23-4.34.53-4.34.86v6.82c0 .76 8.86 1.38 19.8 1.38s19.8-.62 19.8-1.38v-6.82c0-.33-1.62-.62-4.34-.87z"/>
  <path fill="#68b096" d="m31.47 237.2c-2.55-1.6-12.9-7.41-14.69-8.63-1.79-1.23-2.68-3.81-2.8-6.6-.11-2.8-5.66-180.3-13.98-209.58 0 0 .16-12 .68-12.34.52-.35 37.4 1.18 49.02 1.18 11.63 0 49.51-.34 50.02 0 .5.34.38 7.08.18 12.47-.51 3.03-9.2 58.06-12.85 114.2-3.67 56.14-6.66 90.18-6.82 93-.16 2.81-.16 5.78-3.13 8.13-2.96 2.34-14.69 8.18-14.69 8.18-6.4 1.51-10.35 1.3-15.47 1.18-5.12-.11-13.89-.18-15.47-1.18h-.01z"/>
</svg>