<svg viewBox="0 0 121 250" xmlns="http://www.w3.org/2000/svg">
  <path fill="#1e1a28" d="m23.77 204.47h-.06c-.09 3.64-1.17 41.66.87 42.53 2.04.88 24.08 2.6 35.34 2.61 15.72.02 36.44-2.37 36.95-3.5.51-1.11 1.81-40.91 1.85-41.91-7.2 2.57-70.55.88-74.96.26z"/>
  <path fill="#9bcab9" d="m98.8 204.18c4.86-1.83 4.14-5.45 4.74-14.5.73-10.79 15.35-161.3 16.94-178.7.33-3.57.44-8.27 0-10.38-.28-1.35-50.55 0-60.5 0-9.93-0-59.13.16-59.71.74-.58.59 0 10.68 0 10.68 1.61 10.07 17.66 162.9 18.53 175.62.88 12.72.57 16.22 5 16.83 4.42.62 68.08 2.32 75.01-.28z"/>
</svg>