<svg xmlns="http://www.w3.org/2000/svg" width="252" height="45" viewBox="0 0 252 45"><path fill="#054449" d="M233.7 30.47c-.82 1.57-2.26 2.36-4.29 2.36a4.98 4.98 0 0 1-5.07-4.71h13.84s.12-.32.12-1.53c0-6.09-3.58-9.86-9.35-9.86-2.4 0-4.76 1-6.48 2.74a10.18 10.18 0 0 0-2.84 7.24c0 3.04 1.02 5.63 2.94 7.5a9.74 9.74 0 0 0 6.84 2.68c3.95 0 6.49-1.94 7.82-4.18.39-.69.7-1.44.94-2.24h-4.47Zm-4.71-9.8c2.01 0 4.4 1.04 4.56 3.97h-9.09a4.48 4.48 0 0 1 4.52-3.98Zm-83.67-6.84a3 3 0 0 0 3.07-3 3.05 3.05 0 0 0-3.07-3.03 3.02 3.02 0 0 0-3.03 3.03 3 3 0 0 0 3.03 3Zm2.1 3.5h-4.68v19.04h4.68V17.32Zm10.01-9.16h-4.68v28.2h4.68V8.17Zm13.13 16.79-2.88-.58c-1.15-.23-1.83-.93-1.83-1.88 0-1.16 1.15-2.07 2.62-2.07a3.18 3.18 0 0 1 3.41 2.74l.02.1 4-1.13-.02-.08a6.2 6.2 0 0 0-1.81-3.37c-1.36-1.3-3.24-1.96-5.6-1.96-3.89 0-7.06 2.76-7.06 6.16 0 2.78 1.94 4.87 5.17 5.57l2.8.62c1.41.29 2.15.98 2.15 2s-.85 2.06-2.75 2.06c-2.56 0-3.62-1.68-3.76-3.12v-.11l-4.13 1.13.01.08a6.2 6.2 0 0 0 1.97 3.7c1.45 1.35 3.51 2.07 5.95 2.07 4.76 0 7.25-3.08 7.25-6.13 0-3.04-2.01-5.05-5.52-5.8Zm38.91-8.16a6.46 6.46 0 0 0-5.51 2.81v-2.27h-4.58v19.02h4.7V25.4c0-2.64 1.5-4.35 3.83-4.35 3.3 0 3.8 2.56 3.8 4.08v11.23h4.7v-12c0-4.66-2.66-7.56-6.94-7.56Zm-85.52 15.46c-.16.04-.9.16-1.53.16-1.63 0-2.32-.68-2.32-2.26v-9.02h3.93v-3.79h-3.93V11.6h-4.27v3c0 1.8-1.03 2.84-2.82 2.84h-1.07v3.7h3.5v9.75c0 3.52 2.2 5.7 5.77 5.7 1.55 0 2.42-.27 2.8-.43l.05-.03v-3.88l-.1.02Zm14.5 0a9.56 9.56 0 0 1-1.53.16c-1.62 0-2.32-.68-2.32-2.26v-9.02h3.93v-3.79h-3.93V11.6h-4.27v3c0 1.8-1.03 2.84-2.82 2.84h-1.07v3.7h3.5v9.75c0 3.52 2.21 5.7 5.78 5.7 1.55 0 2.41-.27 2.8-.43l.05-.03v-3.88l-.11.02Zm113.44 0a9.66 9.66 0 0 1-1.54.16c-1.62 0-2.32-.68-2.32-2.26v-9.02h3.93v-3.79h-3.93V11.6h-4.27v3c0 1.8-1.03 2.84-2.82 2.84h-1.07v3.7h3.5v9.75c0 3.52 2.21 5.7 5.77 5.7 1.61 0 2.5-.3 2.8-.43l.06-.03v-3.88l-.12.02Zm-71.68 11.4h5.03l12.05-26.34h-5l-5.05 11.75-5.36-11.69-.03-.06h-5.32l8.16 16.65-4.48 9.68ZM82.06 8.77l-8.78 20.76-8.87-20.7-.03-.06H58v27.6h4.75V16.64l8.32 19.6h4.28l8.4-19.68v19.8h4.83V8.78h-6.51Zm27.48 27.42h-.01a16.6 16.6 0 0 1-.23-3v-9.34c0-2.14-.8-7.12-8.12-7.12-5 0-7.65 3.14-8.03 6.1l4.3.97c.24-1.98 1.67-3.21 3.76-3.21 2.1 0 3.48 1.03 3.48 2.76 0 .46-.14 1.1-1.32 1.26l-4.84.73c-3.62.52-5.78 2.68-5.78 5.77a5.5 5.5 0 0 0 1.74 4.03 6.74 6.74 0 0 0 4.75 1.75 6.72 6.72 0 0 0 5.73-2.76c.02 1.31.15 2 .2 2.11l.02.07h4.37l-.02-.12Zm-4.85-7.78c0 3.94-2.5 4.77-4.6 4.77-1.83 0-2.66-1.21-2.66-2.34 0-1.78 1.53-2.3 2.44-2.45l4.82-.72v.74ZM22.3 0A22.3 22.3 0 0 0 .6 17.2a24.82 24.82 0 0 1 12.76 3.42 9.1 9.1 0 0 1 18.02.88 24.82 24.82 0 0 1 13-2.4A22.3 22.3 0 0 0 22.31 0Zm22.3 22.28v-.18c-13.08-1.53-24.76 9.23-24.28 22.38a22.33 22.33 0 0 0 24.28-22.2Zm-27.27 21.6a24.73 24.73 0 0 1 2.96-11.76A22 22 0 0 0 .1 20.16a22.34 22.34 0 0 0 17.23 23.85v-.12Z"/></svg>