<svg role="img" aria-label="Biebmobearráigeahčču" xmlns="http://www.w3.org/2000/svg" width="4595" height="1093" fill="currentColor" viewBox="0 0 4595 1093"><path d="M2595.7 309.21h85.76v348.41h-85.76V309.21Zm268.9-167.4h-85.77v515.82h85.77V141.81Zm-768.4 415.7c0 64.3 40.43 104.23 105.6 104.23 28.36 0 44.25-4.97 51.18-7.91l1.05-.47v-71.12l-2.06.41v-.06c-2.97.59-16.44 2.78-28.13 2.78-29.69 0-42.37-12.38-42.37-41.35V379.05h71.85v-69.34h-71.85V204.42h-78.16v54.9c0 33.01-18.83 51.99-51.63 51.99h-19.52v67.78h64.04v178.42Zm-107.58 99.05h-80l-.41-1.22c-.76-2.12-3.24-14.55-3.62-38.65-12.89 18.26-44.23 50.48-104.8 50.48-34.76 0-64.77-11.04-86.89-31.99-20.57-19.52-31.93-45.67-31.93-73.61 0-56.61 39.56-96.07 105.79-105.61l88.7-13.45c21.55-3.03 24.05-14.56 24.05-23 0-31.66-25.38-50.56-63.6-50.56s-64.44 22.52-68.97 58.81l-78.64-17.72c6.96-54.23 55.44-111.71 146.94-111.71 134.15 0 148.64 91.16 148.64 130.35v170.99c0 33.35 4.03 53.92 4.2 54.79h.13l.41 2.1Zm-89.1-158.08h-.05l-88.14 13.16c-16.66 2.77-44.64 12.25-44.64 44.9 0 20.61 15.23 42.79 48.65 42.79 38.38 0 84.15-15.14 84.15-87.29h.03v-13.57.01Zm462.13 59.03c0 64.3 40.43 104.23 105.61 104.23 28.34 0 44.23-4.97 51.17-7.91l1.07-.47v-71.12l-2.1.41v-.03h-.01v-.03c-2.96.59-16.49 2.78-28.14 2.78-29.69 0-42.34-12.38-42.34-41.35V379.05h71.85v-69.34h-71.85V204.42h-78.15v54.9c0 33.01-18.84 51.99-51.64 51.99h-19.51v67.78h64.04v178.42ZM1131.84 296.65l152.26 358.66h78.43l153.68-360.1v362.42h88.27V152.72h-119.04l-160.69 379.91-162.34-378.91-.47-1.03H1045v504.93h86.84V296.65ZM2643.01 135a55.32 55.32 0 0 0-55.49 55.48c0 30.59 24.01 54.76 55.49 54.76s56.14-24.04 56.14-54.76-25.2-55.48-56.14-55.48Zm461.71 313.86h-.08l.08.02v-.02Zm1239.66 29.96c0 22-2.16 27.88-2.16 27.88h-253.34c2.89 49.34 42.55 86.28 92.83 86.28 37.12 0 63.43-14.59 78.49-43.24v.05h81.71a198.72 198.72 0 0 1-17.1 40.97c-24.42 41.01-70.86 76.39-143.14 76.39-48.02 0-92.49-17.41-125.07-49-35.25-34.14-53.91-81.6-53.91-137.16 0-51.5 18.47-98.56 52.07-132.51 31.45-31.87 74.64-50.15 118.41-50.15 105.62 0 171.21 69.02 171.21 180.51v-.02Zm-86.87-35.69c-2.86-53.72-46.72-72.85-83.61-72.85s-78.12 25.54-82.81 72.85h166.42Zm-440.7-143.46c-42.48 0-79.67 19.15-100.83 51.47v-41.59h-83.9v348.02h86.03V457.04c0-48.37 27.56-79.59 70.19-79.59 60.45 0 69.48 46.78 69.48 74.65v205.5h86.04V437.95c0-85.31-48.66-138.28-127.01-138.29v.01Zm-611.17 255.49c0-55.68-36.82-92.46-101.09-106.3h.09l-52.61-10.58c-20.98-4.15-33.49-17.01-33.49-34.32 0-21.23 21.13-37.86 48.08-37.86 52.47 0 61.13 41.72 62.38 50.1l.29 1.94 73.16-20.75-.25-1.53c-1.82-10.68-8.62-38.16-33.24-61.72-24.8-23.75-59.27-35.81-102.34-35.81-71.24 0-129.2 50.54-129.2 112.67 0 50.89 35.36 89.08 94.6 102.02l51.32 11.32c25.65 5.22 39.19 17.82 39.19 36.44 0 18.62-15.54 37.86-50.26 37.86-46.91 0-66.35-30.76-68.79-57.07l-.18-2.1-75.37 20.75.13 1.47c2.6 23.77 16.07 49.02 36.04 67.62 26.61 24.71 64.24 37.86 108.8 37.86 87.16 0 132.74-56.32 132.74-112v-.01Zm296.79-245.95-92.29 214.93-98.17-213.91-.48-1.03h-97.32l149.18 304.64-82.02 177.12v.04h92.17l220.45-481.79h-91.52Zm1090.54 273.43v-.05c-3.03.59-16.52 2.78-28.14 2.78-29.74 0-42.43-12.38-42.43-41.35V379.05h71.91v-69.34h-71.91V204.42h-78.13v54.9c0 33.01-18.87 51.99-51.64 51.99h-19.52v67.78h64v178.42c0 64.3 40.51 104.23 105.64 104.23 29.42 0 45.63-5.51 51.19-7.91l1.06-.47v-71.12l-2.03.4ZM400.01 236.99c72.4 0 152 51.01 162.7 148.77 72.05-35.09 153.01-49.95 233.24-42.9C768.25 149.02 601.57 0 400.09 0 210.65 0 51.99 131.74 10.68 308.61a445.05 445.05 0 0 1 228.93 61.44c18.58-89.32 92.94-133.07 160.39-133.07l.01.01ZM1.99 361.84c-20.4 201.27 118.42 386.08 308.91 428v-2.24a444.14 444.14 0 0 1 53.07-211.24C297.36 443.08 151.25 355.8 1.99 361.84Zm362.55 436.44C596.78 820.02 801.24 633.39 800 399.93c0-1.14 0-2.26-.02-3.38-234.54-27.38-443.96 165.76-435.44 401.73Zm1160.02 185.69h-.01c0 35.54-21.05 62.39-55.42 62.39-16.71 0-29.53-7.25-36.31-18.62v15.72h-27.34V868.42h27.59v71.8c5.32-9.19 18.88-17.65 37.04-17.65 35.33 0 54.45 26.83 54.45 61.4Zm-28.32.25c0-23.45-13.07-36.74-31.7-36.74s-31.71 13.3-31.71 36.74 13.79 37.23 31.71 37.23 31.7-14.02 31.7-37.23Zm-120.03-.97h.03c0 4.59-.48 8.46-.73 8.94h-86.16c.73 17.89 14.76 30.7 32.18 30.7s25.66-8.94 29.53-20.55l23.71 7.49c-6.29 20.55-24.92 37.24-53.25 37.24-31.94 0-60.26-23.22-60.26-63.1 0-37.23 27.59-61.88 57.35-61.88 36.31 0 57.6 23.93 57.6 61.16Zm-28.28-11.6c-.48-13.78-9.69-26.11-29.05-26.11-17.67 0-27.83 13.54-28.8 26.11h57.85Zm2081.75-95.98h-23.72l25.65 35.05h30.01l25.65-35.05h-23.72l-16.94 18.61-16.93-18.61ZM1217.79 866c-9.92 0-18.15 8.22-18.15 18.37a18.12 18.12 0 0 0 18.15 18.13c9.92 0 18.4-7.98 18.4-18.13a18.37 18.37 0 0 0-18.4-18.37Zm2231.24 155.46v-.02c-17.66 0-32.91-13.29-32.91-36.98 0-23.69 15.25-36.5 32.43-36.5s25.89 11.6 28.56 22l25.17-9.19c-4.84-18.85-22.27-38.68-53.97-38.68-33.88 0-60.26 26.11-60.26 62.38s26.38 62.62 60.98 62.62c30.98 0 48.65-20.07 54.22-38.44l-24.69-8.94c-2.66 8.94-11.13 21.76-29.53 21.76v-.01Zm183.26-95.74h-28.08v69.62c0 15.47-7.75 26.35-24.69 26.35s-23.71-12.33-23.71-26.83v-69.14h-28.07v74.23c0 26.1 16.45 46.9 44.52 46.9 13.8 0 27.59-5.8 33.4-16.45 0 4.83.48 10.4.97 13.06h26.87a190.06 190.06 0 0 1-1.21-21.52v-96.22Zm-1033.48-50.54h-33.16l-21.54 35.78h22.99l31.71-35.78ZM1204 1043.45h27.84V925.72H1204v117.73Zm-30.35-47.4c0 27.57-21.3 47.4-53.24 47.4H1057V872.04h59.06c32.91 0 52.27 19.34 52.27 46.17 0 18.13-10.65 31.67-25.41 36.98 18.15 4.83 30.73 20.55 30.73 40.85v.01Zm-87.85-51.48h26.38c16.95 0 27.11-9.67 27.11-23.93s-10.16-23.93-27.84-23.93h-25.65v47.86Zm58.33 49.55c0-14.74-9.92-25.14-27.83-25.14h-30.5v49.8h29.53c17.42 0 28.8-9.43 28.8-24.66Zm736.55-9.66c0 36.26-25.89 62.62-61.22 62.62s-60.99-26.36-60.99-62.62 25.89-62.38 60.99-62.38 61.22 26.35 61.22 62.38Zm-28.31 0c0-24.41-15.49-36.98-32.91-36.98-17.42 0-32.92 12.57-32.92 36.98 0 24.41 15.74 37.47 32.92 37.47s32.91-12.81 32.91-37.47Zm436.2 40.12c0 10.64 1.21 17.66 1.46 18.86h-26.14c-.24-.72-1.21-5.56-1.21-15-5.56 8.95-17.19 18.62-36.31 18.62-24.68 0-39.93-16.93-39.93-35.54 0-21.03 15.49-32.63 35.58-35.53l30.26-4.59c6.77-.97 8.71-4.35 8.71-8.46 0-9.91-6.78-17.89-22.28-17.89s-22.98 9.43-24.19 21.27l-25.66-5.8c2.18-20.31 20.57-38.43 49.61-38.43 36.31 0 50.1 20.55 50.1 43.99v58.5Zm-27.58-35.29-30.74 4.59c-8.72 1.45-15.73 6.29-15.73 15.95 0 7.98 6.05 15.23 17.18 15.23 15.73 0 29.29-7.49 29.29-30.46v-5.31Zm702.22-6.04c0 4.59-.48 8.46-.72 8.94h-86.16c.72 17.89 14.76 30.7 32.18 30.7s25.66-8.94 29.54-20.55l23.71 7.49c-6.29 20.55-24.92 37.24-53.25 37.24-31.94 0-60.25-23.22-60.25-63.1 0-37.23 27.58-61.88 57.35-61.88 36.31 0 57.6 23.93 57.6 61.16Zm-28.31-11.6c-.48-13.78-9.69-26.11-29.05-26.11-17.66 0-27.83 13.54-28.8 26.11h57.85Zm-582.62-27.07v-18.86h-27.35v117.73H2353v-56.09c0-22 9.94-34.57 31.71-34.57 2.91 0 6.05.24 9.2.73V925a40.23 40.23 0 0 0-7.5-.73c-15.49 0-28.57 7.49-34.13 20.31Zm94.83 0v-18.86h-27.35v117.73h28.07v-56.09c0-22 9.93-34.57 31.72-34.57 2.9 0 6.05.24 9.19.73V925a40.23 40.23 0 0 0-7.5-.73c-15.5 0-28.57 7.49-34.13 20.31ZM2659.85 866c-9.92 0-18.15 8.22-18.15 18.37a18.12 18.12 0 0 0 18.15 18.13c9.92 0 18.39-7.98 18.39-18.13a18.37 18.37 0 0 0-18.39-18.37Zm-50.15 158.58c0 10.64 1.21 17.66 1.45 18.86h-26.14c-.24-.72-1.21-5.56-1.21-15-5.57 8.95-17.18 18.62-36.3 18.62-24.68 0-39.93-16.93-39.93-35.54 0-21.03 15.49-32.63 35.57-35.53l30.25-4.59c6.78-.97 8.71-4.35 8.71-8.46 0-9.91-6.77-17.89-22.26-17.89-15.49 0-22.99 9.43-24.2 21.27l-25.65-5.8c2.18-20.31 20.57-38.43 49.61-38.43 36.31 0 50.1 20.55 50.1 43.99v58.5Zm-27.6-35.29-30.73 4.59c-8.71 1.45-15.73 6.29-15.73 15.95 0 7.98 6.05 15.23 17.18 15.23 15.73 0 29.28-7.49 29.28-30.46v-5.31Zm63.96 54.16h27.83V925.72h-27.83v117.73Zm-481.59-60.2c0 4.59-.48 8.46-.72 8.94h-86.16c.73 17.89 14.76 30.7 32.18 30.7s25.66-8.94 29.54-20.55l23.71 7.49c-6.29 20.55-24.92 37.24-53.25 37.24-31.94 0-60.25-23.22-60.25-63.1 0-37.23 27.59-61.88 57.35-61.88 36.31 0 57.6 23.93 57.6 61.16Zm-28.31-11.6c-.48-13.78-9.69-26.11-29.05-26.11-17.66 0-27.83 13.54-28.79 26.11h57.84Zm1218.94-95.98h-23.71l-16.94 18.61-16.94-18.61h-23.72l25.65 35.05h30.01l25.65-35.05Zm-561.51 50.05h27.12v106.6c0 31.43-16.23 60.68-60.51 60.68-31.22 0-53-19.34-56.14-43.03l25.89-6.77c1.94 14.5 13.31 25.38 29.52 25.38 22.27 0 33.4-11.36 33.4-35.3v-12.33c-5.08 9.19-16.94 17.17-34.12 17.17-31.46 0-54.45-24.18-54.45-57.3s22.02-57.29 54.45-57.29c18.39 0 29.76 7.49 34.84 17.16v-14.97Zm0 55.11c0-20.06-12.82-33.12-30.25-33.12s-30.73 13.05-30.73 33.12c0 20.07 12.34 33.36 30.73 33.36s30.25-13.05 30.25-33.36Zm523.28 40.63v-.02c-17.67 0-32.91-13.29-32.91-36.98 0-23.69 15.24-36.5 32.42-36.5s25.9 11.6 28.56 22l25.16-9.19c-4.84-18.85-22.26-38.68-53.96-38.68-33.88 0-60.27 26.11-60.27 62.38s26.39 62.62 61 62.62c30.97 0 48.64-20.07 54.2-38.44l-24.68-8.94c-2.66 8.94-11.13 21.76-29.52 21.76v-.01ZM1689.25 922.3v.03c-15.26 0-29.05 5.32-38.25 20.79-6.29-13.78-19.84-20.79-35.33-20.79-13.31 0-28.07 6.28-34.85 18.37v-14.99h-26.87v117.73h27.84v-69.87c0-14.99 9.44-26.11 24.44-26.11 15.97 0 22.75 10.64 22.75 24.17v71.8h27.59v-69.87c0-14.5 9.68-26.11 24.44-26.11 15.74 0 22.76 10.39 22.76 24.17v71.8h27.1v-76.4c0-31.18-20.33-44.72-41.62-44.72Zm1496.15.04v-.02c-12.34 0-25.65 4.35-33.64 14.75v-68.66h-28.07v175.03h28.07V974.3c.48-14.99 8.96-26.59 24.45-26.59 17.66 0 24.2 11.6 24.2 26.11v69.63h28.07v-74.46c0-25.87-14.04-46.65-43.08-46.65Zm-98.07 102.24c0 10.64 1.21 17.66 1.45 18.86h-26.13c-.24-.72-1.21-5.56-1.21-15-5.57 8.95-17.18 18.62-36.31 18.62-24.68 0-39.93-16.93-39.93-35.54 0-21.03 15.49-32.63 35.58-35.53l30.25-4.59c6.78-.97 8.72-4.35 8.72-8.46 0-9.91-6.78-17.89-22.28-17.89s-22.99 9.43-24.2 21.27l-25.65-5.8c2.18-20.31 20.57-38.43 49.61-38.43 36.31 0 50.1 20.55 50.1 43.99v58.5Zm-27.58-35.29-30.75 4.59c-8.71 1.45-15.73 6.29-15.73 15.95 0 7.98 6.05 15.23 17.18 15.23 15.74 0 29.3-7.49 29.3-30.46v-5.31Zm-1030.46-5.32h.01c0 35.54-21.06 62.39-55.43 62.39-16.7 0-29.52-7.25-36.3-18.62v15.72h-27.35V868.42h27.59v71.8c5.32-9.19 18.88-17.65 37.02-17.65 35.33 0 54.46 26.83 54.46 61.4Zm-28.31.25c0-23.45-13.07-36.74-31.7-36.74s-31.7 13.3-31.7 36.74 13.79 37.23 31.7 37.23 31.7-14.02 31.7-37.23Z"/></svg>