<svg role="img" aria-label="Norwegian Food Safety Authority" xmlns="http://www.w3.org/2000/svg" width="4597" height="1084" viewBox="0 0 4597 1084" fill="currentColor"><path d="M2060.38 962.1c0-22.52-13.24-42.25-48.07-42.25-27.87 0-45.52 17.41-47.61 36.91l24.61 5.57c1.17-11.37 8.36-20.43 23.23-20.43 14.87 0 21.37 7.67 21.37 17.18 0 3.95-1.87 7.2-8.36 8.13l-29.04 4.41c-19.27 2.78-34.14 13.93-34.14 34.12 0 17.88 14.63 34.13 38.33 34.13 18.34 0 29.49-9.29 34.83-17.88 0 9.06.93 13.7 1.16 14.4h25.08c-.23-1.16-1.39-7.9-1.39-18.11v-56.19.01Zm-26.47 27.4c0 22.05-13.01 29.25-28.11 29.25-10.68 0-16.49-6.96-16.49-14.62 0-9.29 6.74-13.93 15.1-15.33l29.5-4.4v5.1Zm-126.03-66.17h26.71v113.07h-26.71V923.33Zm-58.95 14.4c-4.87-9.28-15.79-16.48-33.44-16.48-31.12 0-52.25 23.22-52.25 55.03 0 31.81 22.06 55.02 52.25 55.02 16.49 0 27.87-7.66 32.75-16.48v11.84c0 22.98-10.69 33.9-32.06 33.9-15.55 0-26.47-10.45-28.33-24.39l-24.85 6.5c3.02 22.76 23.92 41.33 53.88 41.33 42.5 0 58.06-28.09 58.06-58.27V923.34h-26.01v14.4Zm-29.03 70.58c-17.65 0-29.49-12.77-29.49-32.04s12.77-31.8 29.49-31.8 29.03 12.53 29.03 31.8c0 19.27-11.38 32.04-29.03 32.04Zm118.87-124.68c0 9.75-8.14 17.41-17.65 17.41a17.4 17.4 0 0 1-17.42-17.4c0-9.75 7.9-17.65 17.42-17.65 9.52 0 17.65 7.9 17.65 17.64Zm-30.56-228.3.41 1.21h80l-.41-2.1h-.13c-.17-.88-4.2-21.44-4.2-54.79V428.67c0-39.2-14.49-130.35-148.64-130.35-91.5 0-139.98 57.47-146.94 111.7l78.64 17.73c4.53-36.3 30.75-58.81 68.97-58.81s63.6 18.9 63.6 50.56c0 8.44-2.5 19.97-24.05 23l-88.7 13.45c-66.23 9.53-105.79 49-105.79 105.6 0 27.96 11.36 54.1 31.93 73.61 22.12 20.95 52.13 32 86.89 32 60.57 0 91.91-32.23 104.8-50.49.38 24.1 2.86 36.53 3.62 38.65Zm-8.69-143.29h-.03c0 72.16-45.77 87.3-84.15 87.3-33.42 0-48.65-22.2-48.65-42.8 0-32.65 27.98-42.13 44.64-44.9l88.14-13.15h.05v13.56Zm-209.41 407.81c-28.57 0-55.04 23.68-55.04 59.43 0 38.3 27.17 60.59 57.83 60.59 27.16 0 45.05-16.02 51.09-35.75l-22.76-7.2c-3.72 11.14-11.61 19.73-28.33 19.73s-30.2-12.3-30.89-29.48h82.67c.23-.47.7-4.18.7-8.59 0-35.75-20.44-58.73-55.27-58.73Zm-27.41 47.6c.93-12.07 10.69-25.07 27.64-25.07 18.58 0 27.4 11.84 27.87 25.07h-55.51Zm933-658.24h85.76v348.4h-85.76v-348.4Zm-8.18-118.73a55.32 55.32 0 0 1 55.49-55.48c30.95 0 56.14 24.76 56.14 55.48 0 30.72-24.67 54.76-56.14 54.76s-55.49-24.17-55.49-54.76Zm535.01 370.3c0-18.63-13.54-31.23-39.19-36.44L3032.02 513c-59.24-12.94-94.6-51.12-94.6-102.01 0-62.13 57.96-112.67 129.2-112.67 43.07 0 77.54 12.06 102.34 35.8 24.62 23.57 31.42 51.05 33.24 61.73l.25 1.53-73.16 20.75-.29-1.94c-1.25-8.38-9.91-50.1-62.38-50.1-26.95 0-48.08 16.63-48.08 37.86 0 17.3 12.51 30.17 33.49 34.32l52.61 10.58h-.09c64.27 13.85 101.09 50.62 101.09 106.3 0 55.67-45.58 112-132.74 112-44.56 0-82.19-13.15-108.8-37.87-19.97-18.6-33.44-43.84-36.04-67.62l-.13-1.46 75.37-20.75.18 2.1c2.44 26.3 21.88 57.06 68.79 57.06 34.72 0 50.26-19.24 50.26-37.86v.01Zm-257.93 96.84h-85.77V141.81h85.77v515.81Zm853.51-.05h-86.03V309.56h83.9v41.59c21.17-32.32 58.35-51.47 100.83-51.47 78.35 0 127.01 52.98 127.01 138.28V657.6h-86.04v-205.5c0-27.87-9.03-74.64-69.48-74.64-42.63 0-70.19 31.22-70.19 79.59v200.52Zm-613.39-208.7-.08-.02h.08v.02ZM363.96 576.36a444.01 444.01 0 0 0-53.07 211.23v2.24c-190.48-41.92-329.3-226.73-308.9-428 149.27-6.03 295.37 81.25 361.97 214.52ZM1516.21 295.2l-153.68 360.1h-78.43l-152.26-358.66V657.6H1045V152.7h116.94l.47 1.03 162.34 378.9 160.69-379.9h119.04v504.9h-88.27V295.21ZM1281.5 919.85c-33.67 0-58.52 25.07-58.52 59.9s24.62 60.13 58.52 60.13c33.9 0 58.76-25.31 58.76-60.13 0-34.82-25.08-59.9-58.76-59.9Zm0 95.88c-16.48 0-31.58-12.53-31.58-35.98 0-23.45 14.86-35.52 31.58-35.52s31.59 12.07 31.59 35.52c0 23.45-15.1 35.98-31.59 35.98Zm143.78-93.79c3.25 0 6.04.46 7.2.7v27.4c-3.02-.48-6.04-.7-8.83-.7-20.9 0-30.42 12.07-30.42 33.2v53.86h-26.94V923.33h26.24v18.11c5.35-12.3 17.89-19.5 32.75-19.5ZM239.62 370.06a444.9 444.9 0 0 0-228.93-61.44C51.99 131.74 210.65 0 400.09 0c201.48 0 368.16 149.02 395.86 342.85-80.23-7.05-161.2 7.8-233.24 42.9-10.7-97.75-90.3-148.77-162.7-148.77-67.45 0-141.81 43.75-160.39 133.07Zm1359.05 553.27h27.4l-36.23 113.07h-26.94l-28.1-81.26-27.4 81.26h-27.64l-36.7-113.07h28.8l22.99 78.24 26.71-78.24h27.87l26.71 78.24 22.53-78.24Zm-431.36-51.54h27.87v164.61h-29.03l-81.28-124.67v124.67H1057V871.8h35.53l74.78 116.77V871.8ZM799.97 396.55c.02 1.12.02 2.23.02 3.38C801.23 633.38 596.77 820 364.53 798.27c-8.52-235.98 200.9-429.1 435.44-401.72Zm1655.2 523.3c-33.67 0-58.52 25.07-58.52 59.9s24.61 60.13 58.52 60.13c33.91 0 58.76-25.31 58.76-60.13 0-34.82-25.09-59.9-58.76-59.9Zm0 95.88c-16.49 0-31.58-12.53-31.58-35.98 0-23.45 14.86-35.52 31.58-35.52s31.59 12.07 31.59 35.52c0 23.45-15.1 35.98-31.59 35.98Zm1713.44-95.88c-33.67 0-58.52 25.07-58.52 59.9s24.61 60.13 58.52 60.13c33.91 0 58.76-25.31 58.76-60.13 0-34.82-25.09-59.9-58.76-59.9Zm0 95.88c-16.49 0-31.58-12.53-31.58-35.98 0-23.45 14.86-35.52 31.58-35.52s31.59 12.07 31.59 35.52c0 23.45-15.1 35.98-31.59 35.98Zm-82.49-50.84v71.51h-26.94v-66.86c0-13.93-6.27-25.07-23.22-25.07-14.87 0-23 11.14-23.46 25.53v66.4h-26.94V868.31h26.94v65.93c7.67-9.98 20.43-14.16 32.28-14.16 27.87 0 41.34 19.97 41.34 44.81Zm-427.59-93.1-64.1 164.61h29.5l15.33-41.33h69.67l15.56 41.33h30.42l-64.1-164.6h-32.28Zm-9.52 97.51 25.08-67.33 25.08 67.33h-50.16ZM4260.2 549.8v-.05c-15.06 28.64-41.37 43.24-78.49 43.24-50.28 0-89.94-36.95-92.83-86.29h253.34s2.16-5.87 2.16-27.87c0-111.5-65.59-180.51-171.21-180.51-43.77 0-86.96 18.28-118.41 50.15-33.6 33.94-52.07 81-52.07 132.5 0 55.57 18.66 103.04 53.91 137.16 32.58 31.6 77.05 49 125.07 49 72.28 0 118.72-35.38 143.14-76.38a198.49 198.49 0 0 0 17.1-40.98h-81.71v.02Zm-86.3-179.51c36.89 0 80.75 19.13 83.61 72.85h-166.42c4.69-47.31 45.91-72.85 82.81-72.85Zm-305.31 645.45c0 9.29.7 16.49 1.16 20.67h-25.78c-.47-2.55-.93-7.9-.93-12.54-5.57 10.21-18.81 15.79-32.05 15.79-26.94 0-42.73-19.97-42.73-45.04v-71.28h26.94v66.4c0 13.93 7.19 25.77 22.76 25.77s23.69-10.44 23.69-25.3v-66.87h26.94v92.4Zm83.4-1.85c3.72 0 8.14-.7 9.29-.93v22.29c-1.62.7-6.73 2.55-16.48 2.55-20.91 0-33.91-12.53-33.91-33.66v-56.88h-20.9v-23.92h5.8c12.08 0 17.42-7.66 17.42-17.64v-16.95h24.38v34.6h23.46v23.91h-23.46v52.46c0 9.99 4.42 14.17 14.4 14.17Zm360.4-91.94c3.25 0 6.03.46 7.2.7v27.4c-3.02-.48-6.04-.7-8.83-.7-20.9 0-30.42 12.07-30.42 33.2v53.86h-26.94V923.33h26.24v18.11c5.35-12.3 17.89-19.5 32.75-19.5Zm29.69 1.4h26.71v113.06h-26.71V923.33Zm254.92 0-71.99 158.79h-28.8l27.17-59.2-48.31-99.6h30.43l32.51 71.51 30.43-71.5H4597Zm-54.25-261.6c-65.13 0-105.64-39.94-105.64-104.24V379.1h-64V311.3h19.52c32.77 0 51.64-18.97 51.64-52v-54.9h78.13v105.3h71.91v69.34h-71.91V544c0 28.99 12.69 41.36 42.43 41.36 11.62 0 25.11-2.2 28.14-2.78v.04l2.03-.4v71.12l-1.06.47c-5.56 2.41-21.77 7.91-51.19 7.91Zm-169.78 221.9c0 9.74-8.13 17.4-17.65 17.4a17.4 17.4 0 0 1-17.42-17.4c0-9.75 7.89-17.65 17.42-17.65 9.53 0 17.65 7.9 17.65 17.64Zm79.11 130.24c3.72 0 8.12-.7 9.29-.93v22.29c-1.63.7-6.74 2.55-16.49 2.55-20.9 0-33.91-12.53-33.91-33.66v-56.88h-20.9v-23.92h5.81c12.07 0 17.41-7.66 17.41-17.64v-16.95h24.39v34.6h23.45v23.91h-23.45v52.46c0 9.99 4.41 14.17 14.4 14.17ZM3101.15 962.1c0-22.52-13.24-42.25-48.07-42.25-27.87 0-45.52 17.41-47.61 36.91l24.61 5.57c1.16-11.37 8.37-20.43 23.23-20.43 14.86 0 21.36 7.67 21.36 17.18 0 3.95-1.86 7.2-8.36 8.13l-29.02 4.41c-19.28 2.78-34.15 13.93-34.15 34.12 0 17.88 14.64 34.13 38.33 34.13 18.34 0 29.49-9.29 34.83-17.88 0 9.06.93 13.7 1.16 14.4h25.08c-.23-1.16-1.39-7.9-1.39-18.11v-56.19.01Zm-26.48 27.4c0 22.05-13 29.25-28.1 29.25-10.68 0-16.49-6.96-16.49-14.62 0-9.29 6.74-13.93 15.1-15.33l29.49-4.4v5.1Zm-485.01-69.65c-33.67 0-58.52 25.07-58.52 59.9s24.62 60.13 58.52 60.13c33.9 0 58.76-25.31 58.76-60.13 0-34.82-25.08-59.9-58.76-59.9Zm0 95.88c-16.49 0-31.58-12.53-31.58-35.98 0-23.45 14.86-35.52 31.58-35.52s31.58 12.07 31.58 35.52c0 23.45-15.09 35.98-31.58 35.98Zm-72.26-433.09 2.1-.4v71.11l-1.07.47c-6.94 2.95-22.83 7.91-51.17 7.91-65.18 0-105.61-39.93-105.61-104.23V379.1h-64.04V311.3h19.51c32.8 0 51.64-18.97 51.64-52v-54.9h78.15v105.3h71.85v69.34h-71.85V544c0 28.99 12.65 41.36 42.34 41.36 11.65 0 25.18-2.2 28.14-2.78v.02h.01v.03Zm985.03-273.43h91.52L3373.5 790.99h-92.17v-.04l82.02-177.12-149.18-304.63h97.32l.48 1.03 98.17 213.9 92.29-214.92ZM2251.97 582.65l2.06-.41v71.11l-1.05.47c-6.93 2.95-22.82 7.91-51.18 7.91-65.17 0-105.6-39.93-105.6-104.23V379.1h-64.04V311.3h19.52c32.8 0 51.63-18.97 51.63-52v-54.9h78.16v105.3h71.85v69.34h-71.85V544c0 28.99 12.68 41.36 42.37 41.36 11.69 0 25.16-2.2 28.13-2.78v.05Zm732.2 407.32c0 25.53-20.67 49.91-58.29 49.91-41.8 0-61.08-26.93-63.64-50.6l26.01-7.44c1.63 17.18 13.94 32.97 37.63 32.97 19.74 0 29.96-9.98 29.96-22.75 0-10.68-7.9-19.27-22.07-22.29l-23.22-4.88c-25.08-5.1-41.8-21.59-41.8-46.2 0-27.62 25.31-50.38 55.97-50.38 38.78 0 53.88 23.68 57.59 42.02l-25.08 7.9c-1.63-10.22-10.22-25.3-32.28-25.3-16.72 0-28.34 11.13-28.34 23.67 0 10.45 6.51 18.34 19.28 21.13l23.69 4.88c29.03 5.8 44.59 24.14 44.59 47.36ZM2286.24 871.8h102.41v26.23h-74.55v46.2h66.89V970h-66.89v66.4h-27.86v-164.6Zm492.71-3.48h-26.24v68.26c-3.49-7.2-13.47-16.25-33.21-16.25-31.82 0-53.88 25.08-53.88 59.2 0 34.12 21.83 59.66 54.34 59.66 16.03 0 27.87-7.89 33.21-17.41 0 4.64.7 12.07 1.17 14.63h25.77a186.16 186.16 0 0 1-1.16-20.67V868.31Zm-55.97 147.19c-18.34 0-30.42-14.39-30.42-35.98 0-21.59 13.01-35.29 30.66-35.29s29.72 13.46 29.72 35.06-11.61 36.21-29.96 36.21Zm664.29-1.62c3.72 0 8.13-.7 9.3-.93v22.29c-1.63.7-6.74 2.55-16.49 2.55-20.9 0-33.91-12.53-33.91-33.66v-56.88h-20.9v-23.92h5.8c12.08 0 17.42-7.66 17.42-17.64v-16.95h24.39v34.6h23.45v23.91h-23.45v52.46c0 9.99 4.41 14.17 14.39 14.17Zm116.36-90.55h28.56l-71.99 158.8h-28.8l27.18-59.2-48.31-99.6h30.42l32.52 71.51 30.42-71.5ZM2193.5 964.9v71.51h-26.94v-66.86c0-13.93-6.27-25.07-23.22-25.07-15.33 0-23.45 11.84-23.45 26.7v65.24h-26.95V923.34h26.25v15.1c7.43-13 20.9-18.35 33.44-18.35 27.64 0 40.87 19.97 40.87 44.81Zm1064.22-45.04c-28.57 0-55.04 23.68-55.04 59.43 0 38.3 27.17 60.59 57.82 60.59 27.17 0 45.06-16.02 51.1-35.75l-22.76-7.2c-3.72 11.14-11.61 19.73-28.34 19.73s-30.19-12.3-30.88-29.48h82.67c.23-.47.7-4.18.7-8.59 0-35.75-20.44-58.73-55.27-58.73Zm-27.41 47.6c.93-12.07 10.68-25.07 27.64-25.07 18.58 0 27.4 11.84 27.86 25.07h-55.5Zm-50.85-100.3c6.74 0 12.31 1.4 14.17 2.32v22.98c-1.63-.47-4.65-1.16-9.75-1.16-7.21 0-16.73 3.25-16.73 17.18v14.86h26.25v23.45h-26.25v89.62h-27.17v-89.62h-19.74v-23.45h19.74v-15.55c0-25.3 16.26-40.63 39.48-40.63Z"/></svg>