<svg width="4597" height="1084" viewBox="0 0 4597 1084" fill="none" xmlns="http://www.w3.org/2000/svg">
<path d="M2060.38 962.101C2060.38 939.581 2047.14 919.851 2012.31 919.851C1984.44 919.851 1966.79 937.261 1964.7 956.761L1989.31 962.331C1990.48 950.961 1997.67 941.901 2012.54 941.901C2027.41 941.901 2033.91 949.571 2033.91 959.081C2033.91 963.031 2032.04 966.281 2025.55 967.211L1996.51 971.621C1977.24 974.401 1962.37 985.551 1962.37 1005.74C1962.37 1023.62 1977 1039.87 2000.7 1039.87C2019.04 1039.87 2030.19 1030.58 2035.53 1021.99C2035.53 1031.05 2036.46 1035.69 2036.69 1036.39H2061.77C2061.54 1035.23 2060.38 1028.49 2060.38 1018.28V962.091V962.101ZM2033.91 989.501C2033.91 1011.55 2020.9 1018.75 2005.8 1018.75C1995.12 1018.75 1989.31 1011.79 1989.31 1004.13C1989.31 994.841 1996.05 990.201 2004.41 988.801L2033.91 984.391V989.491V989.501ZM1907.88 923.331H1934.59V1036.4H1907.88V923.331ZM1848.93 937.731C1844.06 928.451 1833.14 921.251 1815.49 921.251C1784.37 921.251 1763.24 944.471 1763.24 976.281C1763.24 1008.09 1785.3 1031.3 1815.49 1031.3C1831.98 1031.3 1843.36 1023.64 1848.24 1014.82V1026.66C1848.24 1049.64 1837.55 1060.56 1816.18 1060.56C1800.63 1060.56 1789.71 1050.11 1787.85 1036.17L1763 1042.67C1766.02 1065.43 1786.92 1084 1816.88 1084C1859.38 1084 1874.94 1055.91 1874.94 1025.73V923.341H1848.93V937.731ZM1819.9 1008.31C1802.25 1008.31 1790.41 995.541 1790.41 976.271C1790.41 957.001 1803.18 944.461 1819.9 944.461C1836.62 944.461 1848.93 957.001 1848.93 976.271C1848.93 995.541 1837.55 1008.31 1819.9 1008.31ZM1938.77 883.632C1938.77 893.382 1930.63 901.042 1921.12 901.042C1911.61 901.042 1903.7 893.372 1903.7 883.632C1903.7 873.892 1911.6 865.992 1921.12 865.992C1930.64 865.992 1938.77 873.882 1938.77 883.632ZM1908.21 655.324L1908.62 656.544H1988.62L1988.21 654.444H1988.08C1987.91 653.564 1983.88 633.004 1983.88 599.654V428.666C1983.88 389.476 1969.39 298.317 1835.24 298.317C1743.74 298.317 1695.26 355.787 1688.3 410.026L1766.94 427.746C1771.47 391.456 1797.69 368.937 1835.91 368.937C1874.13 368.937 1899.51 387.836 1899.51 419.496C1899.51 427.936 1897.01 439.466 1875.46 442.496L1786.76 455.946C1720.53 465.476 1680.97 504.945 1680.97 561.555C1680.97 589.505 1692.33 615.654 1712.9 635.164C1735.02 656.114 1765.03 667.154 1799.79 667.154C1860.36 667.154 1891.7 634.934 1904.59 616.674C1904.97 640.774 1907.45 653.204 1908.21 655.324ZM1899.52 512.045H1899.49C1899.49 584.195 1853.72 599.334 1815.34 599.334C1781.92 599.334 1766.69 577.145 1766.69 556.545C1766.69 523.885 1794.67 514.415 1811.33 511.645L1899.47 498.485H1899.52V512.055V512.045ZM1690.11 919.851C1661.54 919.851 1635.07 943.531 1635.07 979.281C1635.07 1017.58 1662.24 1039.87 1692.9 1039.87C1720.06 1039.87 1737.95 1023.85 1743.99 1004.12L1721.23 996.921C1717.51 1008.06 1709.62 1016.65 1692.9 1016.65C1676.18 1016.65 1662.7 1004.35 1662.01 987.171H1744.68C1744.91 986.701 1745.38 982.991 1745.38 978.581C1745.38 942.831 1724.94 919.851 1690.11 919.851ZM1662.7 967.451C1663.63 955.381 1673.39 942.381 1690.34 942.381C1708.92 942.381 1717.74 954.221 1718.21 967.451H1662.7ZM2595.7 309.207H2681.46V657.614H2595.7V309.207ZM2587.52 190.478C2587.52 159.889 2612.06 134.999 2643.01 134.999C2673.96 134.999 2699.15 159.759 2699.15 190.478C2699.15 221.198 2674.48 245.238 2643.01 245.238C2611.54 245.238 2587.52 221.068 2587.52 190.478ZM3122.53 560.775C3122.53 542.155 3108.99 529.555 3083.34 524.335L3032.02 513.015C2972.78 500.075 2937.42 461.886 2937.42 410.996C2937.42 348.867 2995.38 298.327 3066.62 298.327C3109.69 298.327 3144.16 310.387 3168.96 334.137C3193.58 357.697 3200.38 385.176 3202.2 395.856L3202.45 397.386L3129.29 418.136L3129 416.196C3127.75 407.816 3119.09 366.097 3066.62 366.097C3039.67 366.097 3018.54 382.726 3018.54 403.956C3018.54 421.266 3031.05 434.126 3052.03 438.276L3104.64 448.856H3104.55C3168.82 462.706 3205.64 499.475 3205.64 555.155C3205.64 610.834 3160.06 667.154 3072.9 667.154C3028.34 667.154 2990.71 654.014 2964.1 629.294C2944.13 610.694 2930.66 585.445 2928.06 561.675L2927.93 560.205L3003.3 539.455L3003.48 541.555C3005.92 567.865 3025.36 598.624 3072.27 598.624C3106.99 598.624 3122.53 579.385 3122.53 560.765V560.775ZM2864.6 657.624H2778.83V141.809H2864.6V657.624ZM3718.11 657.574H3632.08V309.557H3715.98V351.147C3737.15 318.827 3774.33 299.677 3816.81 299.677C3895.16 299.687 3943.82 352.657 3943.82 437.956V657.614H3857.78V452.116C3857.78 424.236 3848.75 377.467 3788.3 377.467C3745.67 377.467 3718.11 408.686 3718.11 457.056V657.584V657.574ZM3104.72 448.866L3104.64 448.846H3104.72V448.866ZM363.96 576.355C329.07 641.214 310.8 713.543 310.89 787.593V789.833C120.41 747.913 -18.4105 563.105 1.98954 361.837C151.26 355.797 297.36 443.076 363.96 576.345V576.355ZM1516.21 295.207L1362.53 655.304H1284.1L1131.84 296.647V657.614H1045V152.689H1161.94L1162.41 153.719L1324.75 532.625L1485.44 152.719H1604.48V657.624H1516.21V295.207ZM1281.5 919.851C1247.83 919.851 1222.98 944.921 1222.98 979.751C1222.98 1014.58 1247.6 1039.88 1281.5 1039.88C1315.4 1039.88 1340.26 1014.57 1340.26 979.751C1340.26 944.931 1315.18 919.851 1281.5 919.851ZM1281.5 1015.73C1265.02 1015.73 1249.92 1003.2 1249.92 979.751C1249.92 956.301 1264.78 944.231 1281.5 944.231C1298.22 944.231 1313.09 956.301 1313.09 979.751C1313.09 1003.2 1297.99 1015.73 1281.5 1015.73ZM1425.28 921.941C1428.53 921.941 1431.32 922.401 1432.48 922.631V950.031C1429.46 949.561 1426.44 949.331 1423.65 949.331C1402.75 949.331 1393.23 961.411 1393.23 982.531V1036.4H1366.29V923.331H1392.53V941.441C1397.88 929.141 1410.42 921.941 1425.28 921.941ZM239.62 370.057C170.47 329.367 91.2995 307.997 10.6895 308.617C51.9895 131.739 210.65 0 400.09 0C601.57 0 768.25 149.019 795.95 342.847C715.72 335.797 634.75 350.657 562.71 385.746C552.01 287.997 472.41 236.978 400.01 236.978C332.56 236.978 258.2 280.727 239.62 370.047V370.057ZM1598.67 923.331H1626.07L1589.84 1036.4H1562.9L1534.8 955.141L1507.4 1036.4H1479.76L1443.06 923.331H1471.86L1494.85 1001.57L1521.56 923.331H1549.43L1576.14 1001.57L1598.67 923.331ZM1167.31 871.792H1195.18V1036.4H1166.15L1084.87 911.732V1036.4H1057V871.792H1092.53L1167.31 988.571V871.792ZM799.97 396.546C799.99 397.666 799.99 398.776 799.99 399.926C801.23 633.384 596.77 820.012 364.53 798.273C356.01 562.295 565.43 369.167 799.97 396.546ZM2455.17 919.851C2421.5 919.851 2396.65 944.921 2396.65 979.751C2396.65 1014.58 2421.26 1039.88 2455.17 1039.88C2489.08 1039.88 2513.93 1014.57 2513.93 979.751C2513.93 944.931 2488.84 919.851 2455.17 919.851ZM2455.17 1015.73C2438.68 1015.73 2423.59 1003.2 2423.59 979.751C2423.59 956.301 2438.45 944.231 2455.17 944.231C2471.89 944.231 2486.76 956.301 2486.76 979.751C2486.76 1003.2 2471.66 1015.73 2455.17 1015.73ZM4168.61 919.851C4134.94 919.851 4110.09 944.921 4110.09 979.751C4110.09 1014.58 4134.7 1039.88 4168.61 1039.88C4202.52 1039.88 4227.37 1014.57 4227.37 979.751C4227.37 944.931 4202.28 919.851 4168.61 919.851ZM4168.61 1015.73C4152.12 1015.73 4137.03 1003.2 4137.03 979.751C4137.03 956.301 4151.89 944.231 4168.61 944.231C4185.33 944.231 4200.2 956.301 4200.2 979.751C4200.2 1003.2 4185.1 1015.73 4168.61 1015.73ZM4086.12 964.891V1036.4H4059.18V969.541C4059.18 955.611 4052.91 944.471 4035.96 944.471C4021.09 944.471 4012.96 955.611 4012.5 970.001V1036.4H3985.56V868.312H4012.5V934.241C4020.17 924.261 4032.93 920.082 4044.78 920.082C4072.65 920.082 4086.12 940.051 4086.12 964.891ZM3658.53 871.792L3594.43 1036.4H3623.93L3639.26 995.071H3708.93L3724.49 1036.4H3754.91L3690.81 871.792H3658.53ZM3649.01 969.301L3674.09 901.972L3699.17 969.301H3649.01ZM4260.2 549.785V549.735C4245.14 578.385 4218.83 592.975 4181.71 592.975C4131.43 592.975 4091.77 556.035 4088.88 506.695H4342.22C4342.22 506.695 4344.38 500.825 4344.38 478.816C4344.38 367.327 4278.79 298.307 4173.17 298.307C4129.4 298.307 4086.21 316.587 4054.76 348.457C4021.16 382.396 4002.69 429.466 4002.69 480.966C4002.69 536.535 4021.35 583.995 4056.6 618.124C4089.18 649.714 4133.65 667.124 4181.67 667.124C4253.95 667.124 4300.39 631.744 4324.81 590.735C4331.88 578.135 4337.59 564.395 4341.91 549.765H4260.2V549.785ZM4173.9 370.277C4210.79 370.277 4254.65 389.406 4257.51 443.126H4091.09C4095.78 395.816 4137 370.277 4173.9 370.277ZM3868.59 1015.73C3868.59 1025.02 3869.29 1032.22 3869.75 1036.4H3843.97C3843.5 1033.85 3843.04 1028.5 3843.04 1023.86C3837.47 1034.07 3824.23 1039.65 3810.99 1039.65C3784.05 1039.65 3768.26 1019.68 3768.26 994.611V923.331H3795.2V989.731C3795.2 1003.66 3802.39 1015.5 3817.96 1015.5C3833.53 1015.5 3841.65 1005.06 3841.65 990.201V923.331H3868.59V1015.73ZM3951.99 1013.88C3955.71 1013.88 3960.13 1013.18 3961.28 1012.95V1035.24C3959.66 1035.94 3954.55 1037.79 3944.8 1037.79C3923.89 1037.79 3910.89 1025.26 3910.89 1004.13V947.251H3889.99V923.331H3895.79C3907.87 923.331 3913.21 915.672 3913.21 905.692V888.742H3937.59V923.331H3961.05V947.251H3937.59V999.711C3937.59 1009.7 3942.01 1013.88 3951.99 1013.88ZM4312.39 921.941C4315.64 921.941 4318.42 922.401 4319.59 922.631V950.031C4316.57 949.561 4313.55 949.331 4310.76 949.331C4289.86 949.331 4280.34 961.411 4280.34 982.531V1036.4H4253.4V923.331H4279.64V941.441C4284.99 929.141 4297.53 921.941 4312.39 921.941ZM4342.08 923.331H4368.79V1036.4H4342.08V923.331ZM4597 923.331L4525.01 1082.13H4496.21L4523.38 1022.93L4475.07 923.331H4505.5L4538.01 994.841L4568.44 923.331H4597ZM4542.75 661.734C4477.62 661.734 4437.11 621.804 4437.11 557.505V379.086H4373.11V311.307H4392.63C4425.4 311.307 4444.27 292.337 4444.27 259.318V204.418H4522.4V309.707H4594.31V379.046H4522.4V544.015C4522.4 572.995 4535.09 585.365 4564.83 585.365C4576.45 585.365 4589.94 583.175 4592.97 582.585V582.635L4595 582.235V653.354L4593.94 653.824C4588.38 656.234 4572.17 661.734 4542.75 661.734ZM4372.97 883.632C4372.97 893.382 4364.84 901.042 4355.32 901.042C4345.8 901.042 4337.9 893.372 4337.9 883.632C4337.9 873.892 4345.79 865.992 4355.32 865.992C4364.85 865.992 4372.97 873.882 4372.97 883.632ZM4452.08 1013.88C4455.8 1013.88 4460.2 1013.18 4461.37 1012.95V1035.24C4459.74 1035.94 4454.63 1037.79 4444.88 1037.79C4423.98 1037.79 4410.97 1025.26 4410.97 1004.13V947.251H4390.07V923.331H4395.88C4407.95 923.331 4413.29 915.672 4413.29 905.692V888.742H4437.68V923.331H4461.13V947.251H4437.68V999.711C4437.68 1009.7 4442.09 1013.88 4452.08 1013.88ZM3101.15 962.101C3101.15 939.581 3087.91 919.851 3053.08 919.851C3025.21 919.851 3007.56 937.261 3005.47 956.761L3030.08 962.331C3031.24 950.961 3038.45 941.901 3053.31 941.901C3068.17 941.901 3074.67 949.571 3074.67 959.081C3074.67 963.031 3072.81 966.281 3066.31 967.211L3037.29 971.621C3018.01 974.401 3003.14 985.551 3003.14 1005.74C3003.14 1023.62 3017.78 1039.87 3041.47 1039.87C3059.81 1039.87 3070.96 1030.58 3076.3 1021.99C3076.3 1031.05 3077.23 1035.69 3077.46 1036.39H3102.54C3102.31 1035.23 3101.15 1028.49 3101.15 1018.28V962.091V962.101ZM3074.67 989.501C3074.67 1011.55 3061.67 1018.75 3046.57 1018.75C3035.89 1018.75 3030.08 1011.79 3030.08 1004.13C3030.08 994.841 3036.82 990.201 3045.18 988.801L3074.67 984.391V989.491V989.501ZM2589.66 919.851C2555.99 919.851 2531.14 944.921 2531.14 979.751C2531.14 1014.58 2555.76 1039.88 2589.66 1039.88C2623.56 1039.88 2648.42 1014.57 2648.42 979.751C2648.42 944.931 2623.34 919.851 2589.66 919.851ZM2589.66 1015.73C2573.17 1015.73 2558.08 1003.2 2558.08 979.751C2558.08 956.301 2572.94 944.231 2589.66 944.231C2606.38 944.231 2621.24 956.301 2621.24 979.751C2621.24 1003.2 2606.15 1015.73 2589.66 1015.73ZM2517.4 582.645L2519.5 582.235V653.354L2518.43 653.824C2511.49 656.774 2495.6 661.734 2467.26 661.734C2402.08 661.734 2361.65 621.804 2361.65 557.505V379.086H2297.61V311.307H2317.12C2349.92 311.307 2368.76 292.337 2368.76 259.318V204.418H2446.91V309.707H2518.76V379.046H2446.91V544.015C2446.91 572.995 2459.56 585.365 2489.25 585.365C2500.9 585.365 2514.43 583.175 2517.39 582.585V582.615H2517.4V582.645ZM3502.43 309.207H3593.95L3373.5 790.993H3281.33V790.953L3363.35 613.834L3214.17 309.197H3311.49L3311.97 310.227L3410.14 524.135L3502.43 309.207ZM2251.97 582.645L2254.03 582.235V653.354L2252.98 653.824C2246.05 656.774 2230.16 661.734 2201.8 661.734C2136.63 661.734 2096.2 621.804 2096.2 557.505V379.086H2032.16V311.307H2051.68C2084.48 311.307 2103.31 292.337 2103.31 259.318V204.418H2181.47V309.707H2253.32V379.046H2181.47V544.015C2181.47 572.995 2194.15 585.365 2223.84 585.365C2235.53 585.365 2249 583.175 2251.97 582.585V582.645ZM2984.17 989.971C2984.17 1015.5 2963.5 1039.88 2925.88 1039.88C2884.08 1039.88 2864.8 1012.95 2862.24 989.271L2888.25 981.841C2889.88 999.021 2902.19 1014.81 2925.88 1014.81C2945.62 1014.81 2955.84 1004.83 2955.84 992.061C2955.84 981.381 2947.94 972.791 2933.77 969.771L2910.55 964.891C2885.47 959.781 2868.75 943.301 2868.75 918.692C2868.75 891.072 2894.06 868.312 2924.72 868.312C2963.5 868.312 2978.6 891.992 2982.31 910.332L2957.23 918.232C2955.6 908.012 2947.01 892.922 2924.95 892.922C2908.23 892.922 2896.61 904.062 2896.61 916.602C2896.61 927.051 2903.12 934.941 2915.89 937.731L2939.58 942.611C2968.61 948.411 2984.17 966.751 2984.17 989.971ZM2286.24 871.792H2388.65V898.022H2314.1V944.221H2380.99V969.991H2314.1V1036.39H2286.24V871.782V871.792ZM2778.95 868.312H2752.71V936.571C2749.22 929.371 2739.24 920.322 2719.5 920.322C2687.68 920.322 2665.62 945.401 2665.62 979.521C2665.62 1013.64 2687.45 1039.18 2719.96 1039.18C2735.99 1039.18 2747.83 1031.29 2753.17 1021.77C2753.17 1026.41 2753.87 1033.84 2754.34 1036.4H2780.11C2779.88 1034.54 2778.95 1025.95 2778.95 1015.73V868.312ZM2722.98 1015.5C2704.64 1015.5 2692.56 1001.11 2692.56 979.521C2692.56 957.931 2705.57 944.231 2723.22 944.231C2740.87 944.231 2752.94 957.691 2752.94 979.291C2752.94 1000.89 2741.33 1015.5 2722.98 1015.5ZM3387.27 1013.88C3390.99 1013.88 3395.4 1013.18 3396.57 1012.95V1035.24C3394.94 1035.94 3389.83 1037.79 3380.08 1037.79C3359.18 1037.79 3346.17 1025.26 3346.17 1004.13V947.251H3325.27V923.331H3331.07C3343.15 923.331 3348.49 915.672 3348.49 905.692V888.742H3372.88V923.331H3396.33V947.251H3372.88V999.711C3372.88 1009.7 3377.29 1013.88 3387.27 1013.88ZM3503.63 923.331H3532.19L3460.2 1082.13H3431.4L3458.58 1022.93L3410.27 923.331H3440.69L3473.21 994.841L3503.63 923.331ZM2193.5 964.891V1036.4H2166.56V969.541C2166.56 955.611 2160.29 944.471 2143.34 944.471C2128.01 944.471 2119.89 956.311 2119.89 971.171V1036.41H2092.94V923.341H2119.19V938.431C2126.62 925.431 2140.09 920.091 2152.63 920.091C2180.27 920.091 2193.5 940.061 2193.5 964.901V964.891ZM3257.72 919.851C3229.15 919.851 3202.68 943.531 3202.68 979.281C3202.68 1017.58 3229.85 1039.87 3260.5 1039.87C3287.67 1039.87 3305.56 1023.85 3311.6 1004.12L3288.84 996.921C3285.12 1008.06 3277.23 1016.65 3260.5 1016.65C3243.77 1016.65 3230.31 1004.35 3229.62 987.171H3312.29C3312.52 986.701 3312.99 982.991 3312.99 978.581C3312.99 942.831 3292.55 919.851 3257.72 919.851ZM3230.31 967.451C3231.24 955.381 3240.99 942.381 3257.95 942.381C3276.53 942.381 3285.35 954.221 3285.81 967.451H3230.31ZM3179.46 867.152C3186.2 867.152 3191.77 868.552 3193.63 869.472V892.452C3192 891.982 3188.98 891.292 3183.88 891.292C3176.67 891.292 3167.15 894.542 3167.15 908.472V923.331H3193.4V946.781H3167.15V1036.4H3139.98V946.781H3120.24V923.331H3139.98V907.782C3139.98 882.472 3156.24 867.152 3179.46 867.152Z" fill="#E2F1DF"/>
</svg>
