<svg width="4595" height="1093" viewBox="0 0 4595 1093" fill="none" xmlns="http://www.w3.org/2000/svg">
<path d="M2595.7 309.21H2681.46V657.62H2595.7V309.21ZM2864.6 141.81H2778.83V657.63H2864.6V141.81ZM2096.2 557.51C2096.2 621.81 2136.63 661.74 2201.8 661.74C2230.16 661.74 2246.05 656.77 2252.98 653.83L2254.03 653.36V582.24L2251.97 582.65V582.59C2249 583.18 2235.53 585.37 2223.84 585.37C2194.15 585.37 2181.47 572.99 2181.47 544.02V379.05H2253.32V309.71H2181.47V204.42H2103.31V259.32C2103.31 292.33 2084.48 311.31 2051.68 311.31H2032.16V379.09H2096.2V557.51ZM1988.62 656.56H1908.62L1908.21 655.34C1907.45 653.22 1904.97 640.79 1904.59 616.69C1891.7 634.95 1860.36 667.17 1799.79 667.17C1765.03 667.17 1735.02 656.13 1712.9 635.18C1692.33 615.66 1680.97 589.51 1680.97 561.57C1680.97 504.96 1720.53 465.5 1786.76 455.96L1875.46 442.51C1897.01 439.48 1899.51 427.95 1899.51 419.51C1899.51 387.85 1874.13 368.95 1835.91 368.95C1797.69 368.95 1771.47 391.47 1766.94 427.76L1688.3 410.04C1695.26 355.81 1743.74 298.33 1835.24 298.33C1969.39 298.33 1983.88 389.49 1983.88 428.68V599.67C1983.88 633.02 1987.91 653.59 1988.08 654.46H1988.21L1988.62 656.56ZM1899.52 498.48H1899.47L1811.33 511.64C1794.67 514.41 1766.69 523.89 1766.69 556.54C1766.69 577.15 1781.92 599.33 1815.34 599.33C1853.72 599.33 1899.49 584.19 1899.49 512.04H1899.52V498.47V498.48ZM2361.65 557.51C2361.65 621.81 2402.08 661.74 2467.26 661.74C2495.6 661.74 2511.49 656.77 2518.43 653.83L2519.5 653.36V582.24L2517.4 582.65V582.62H2517.39V582.59C2514.43 583.18 2500.9 585.37 2489.25 585.37C2459.56 585.37 2446.91 572.99 2446.91 544.02V379.05H2518.76V309.71H2446.91V204.42H2368.76V259.32C2368.76 292.33 2349.92 311.31 2317.12 311.31H2297.61V379.09H2361.65V557.51ZM1131.84 296.65L1284.1 655.31H1362.53L1516.21 295.21V657.63H1604.48V152.72H1485.44L1324.75 532.63L1162.41 153.72L1161.94 152.69H1045V657.62H1131.84V296.65ZM2643.01 135C2612.06 135 2587.52 159.89 2587.52 190.48C2587.52 221.07 2611.53 245.24 2643.01 245.24C2674.49 245.24 2699.15 221.2 2699.15 190.48C2699.15 159.76 2673.95 135 2643.01 135ZM3104.72 448.86H3104.64L3104.72 448.88V448.86ZM4344.38 478.82C4344.38 500.82 4342.22 506.7 4342.22 506.7H4088.88C4091.77 556.04 4131.43 592.98 4181.71 592.98C4218.83 592.98 4245.14 578.39 4260.2 549.74V549.79H4341.91C4337.59 564.42 4331.88 578.15 4324.81 590.76C4300.39 631.77 4253.95 667.15 4181.67 667.15C4133.65 667.15 4089.18 649.74 4056.6 618.15C4021.35 584.01 4002.69 536.55 4002.69 480.99C4002.69 429.49 4021.16 382.43 4054.76 348.48C4086.21 316.61 4129.4 298.33 4173.17 298.33C4278.79 298.33 4344.38 367.35 4344.38 478.84V478.82ZM4257.51 443.13C4254.65 389.41 4210.79 370.28 4173.9 370.28C4137.01 370.28 4095.78 395.82 4091.09 443.13H4257.51ZM3816.81 299.67C3774.33 299.67 3737.14 318.82 3715.98 351.14V309.55H3632.08V657.57H3718.11V457.04C3718.11 408.67 3745.67 377.45 3788.3 377.45C3848.75 377.45 3857.78 424.23 3857.78 452.1V657.6H3943.82V437.95C3943.82 352.64 3895.16 299.67 3816.81 299.66V299.67ZM3205.64 555.16C3205.64 499.48 3168.82 462.7 3104.55 448.86H3104.64L3052.03 438.28C3031.05 434.13 3018.54 421.27 3018.54 403.96C3018.54 382.73 3039.67 366.1 3066.62 366.1C3119.09 366.1 3127.75 407.82 3129 416.2L3129.29 418.14L3202.45 397.39L3202.2 395.86C3200.38 385.18 3193.58 357.7 3168.96 334.14C3144.16 310.39 3109.69 298.33 3066.62 298.33C2995.38 298.33 2937.42 348.87 2937.42 411C2937.42 461.89 2972.78 500.08 3032.02 513.02L3083.34 524.34C3108.99 529.56 3122.53 542.16 3122.53 560.78C3122.53 579.4 3106.99 598.64 3072.27 598.64C3025.36 598.64 3005.92 567.88 3003.48 541.57L3003.3 539.47L2927.93 560.22L2928.06 561.69C2930.66 585.46 2944.13 610.71 2964.1 629.31C2990.71 654.02 3028.34 667.17 3072.9 667.17C3160.06 667.17 3205.64 610.85 3205.64 555.17V555.16ZM3502.43 309.21L3410.14 524.14L3311.97 310.23L3311.49 309.2H3214.17L3363.35 613.84L3281.33 790.96V791H3373.5L3593.95 309.21H3502.43ZM4592.97 582.64V582.59C4589.94 583.18 4576.45 585.37 4564.83 585.37C4535.09 585.37 4522.4 572.99 4522.4 544.02V379.05H4594.31V309.71H4522.4V204.42H4444.27V259.32C4444.27 292.33 4425.4 311.31 4392.63 311.31H4373.11V379.09H4437.11V557.51C4437.11 621.81 4477.62 661.74 4542.75 661.74C4572.17 661.74 4588.38 656.23 4593.94 653.83L4595 653.36V582.24L4592.97 582.64ZM400.01 236.99C472.41 236.99 552.01 288 562.71 385.76C634.76 350.67 715.72 335.81 795.95 342.86C768.25 149.02 601.57 0 400.09 0C210.65 0 51.9895 131.74 10.6795 308.61C91.2995 308 170.47 329.37 239.61 370.05C258.19 280.73 332.55 236.98 400 236.98L400.01 236.99ZM1.98954 361.84C-18.4105 563.11 120.41 747.92 310.9 789.84V787.6C310.82 713.55 329.08 641.22 363.97 576.36C297.36 443.08 151.25 355.8 1.98954 361.84ZM364.54 798.28C596.78 820.02 801.24 633.39 800 399.93C800 398.79 799.999 397.67 799.979 396.55C565.439 369.17 356.02 562.31 364.54 798.28ZM1524.56 983.97H1524.55C1524.55 1019.51 1503.5 1046.36 1469.13 1046.36C1452.42 1046.36 1439.6 1039.11 1432.82 1027.74V1043.46H1405.48V868.42H1433.07V940.22C1438.39 931.03 1451.95 922.57 1470.11 922.57C1505.44 922.57 1524.56 949.4 1524.56 983.97ZM1496.24 984.22C1496.24 960.77 1483.17 947.48 1464.54 947.48C1445.91 947.48 1432.83 960.78 1432.83 984.22C1432.83 1007.66 1446.62 1021.45 1464.54 1021.45C1482.46 1021.45 1496.24 1007.43 1496.24 984.22ZM1376.21 983.25H1376.24C1376.24 987.84 1375.76 991.71 1375.51 992.19H1289.35C1290.08 1010.08 1304.11 1022.89 1321.53 1022.89C1338.95 1022.89 1347.19 1013.95 1351.06 1002.34L1374.77 1009.83C1368.48 1030.38 1349.85 1047.07 1321.52 1047.07C1289.58 1047.07 1261.26 1023.85 1261.26 983.97C1261.26 946.74 1288.85 922.09 1318.61 922.09C1354.92 922.09 1376.21 946.02 1376.21 983.25ZM1347.93 971.65C1347.45 957.87 1338.24 945.54 1318.88 945.54C1301.21 945.54 1291.05 959.08 1290.08 971.65H1347.93ZM3429.68 875.67H3405.96L3431.61 910.72H3461.62L3487.27 875.67H3463.55L3446.61 894.28L3429.68 875.67ZM1217.79 866C1207.87 866 1199.64 874.22 1199.64 884.37C1199.64 894.52 1207.87 902.5 1217.79 902.5C1227.71 902.5 1236.19 894.52 1236.19 884.37C1236.19 874.22 1227.97 866 1217.79 866ZM3449.03 1021.46V1021.44C3431.37 1021.44 3416.12 1008.15 3416.12 984.46C3416.12 960.77 3431.37 947.96 3448.55 947.96C3465.73 947.96 3474.44 959.56 3477.11 969.96L3502.28 960.77C3497.44 941.92 3480.01 922.09 3448.31 922.09C3414.43 922.09 3388.05 948.2 3388.05 984.47C3388.05 1020.74 3414.43 1047.09 3449.03 1047.09C3480.01 1047.09 3497.68 1027.02 3503.25 1008.65L3478.56 999.71C3475.9 1008.65 3467.43 1021.47 3449.03 1021.47V1021.46ZM3632.29 925.72H3604.21V995.34C3604.21 1010.81 3596.46 1021.69 3579.52 1021.69C3562.58 1021.69 3555.81 1009.36 3555.81 994.86V925.72H3527.74V999.95C3527.74 1026.05 3544.19 1046.85 3572.26 1046.85C3586.06 1046.85 3599.85 1041.05 3605.66 1030.4C3605.66 1035.23 3606.14 1040.8 3606.63 1043.46H3633.5C3633.01 1039.11 3632.29 1031.61 3632.29 1021.94V925.73V925.72ZM2598.81 875.18H2565.65L2544.11 910.96H2567.1L2598.81 875.18ZM1204 1043.45H1231.84V925.72H1204V1043.45ZM1173.65 996.05C1173.65 1023.62 1152.35 1043.45 1120.41 1043.45H1057V872.04H1116.06C1148.97 872.04 1168.33 891.38 1168.33 918.21C1168.33 936.34 1157.68 949.88 1142.92 955.19C1161.07 960.02 1173.65 975.74 1173.65 996.04V996.05ZM1085.8 944.57H1112.18C1129.13 944.57 1139.29 934.9 1139.29 920.64C1139.29 906.38 1129.13 896.71 1111.45 896.71H1085.8V944.57ZM1144.13 994.12C1144.13 979.38 1134.21 968.98 1116.3 968.98H1085.8V1018.78H1115.33C1132.75 1018.78 1144.13 1009.35 1144.13 994.12ZM1880.68 984.46C1880.68 1020.72 1854.79 1047.08 1819.46 1047.08C1784.13 1047.08 1758.47 1020.72 1758.47 984.46C1758.47 948.2 1784.36 922.08 1819.46 922.08C1854.56 922.08 1880.68 948.43 1880.68 984.46ZM1852.37 984.46C1852.37 960.05 1836.88 947.48 1819.46 947.48C1802.04 947.48 1786.54 960.05 1786.54 984.46C1786.54 1008.87 1802.28 1021.93 1819.46 1021.93C1836.64 1021.93 1852.37 1009.12 1852.37 984.46ZM2288.57 1024.58C2288.57 1035.22 2289.78 1042.24 2290.03 1043.44H2263.89C2263.65 1042.72 2262.68 1037.88 2262.68 1028.44C2257.12 1037.39 2245.49 1047.06 2226.37 1047.06C2201.69 1047.06 2186.44 1030.13 2186.44 1011.52C2186.44 990.49 2201.93 978.89 2222.02 975.99L2252.28 971.4C2259.05 970.43 2260.99 967.05 2260.99 962.94C2260.99 953.03 2254.21 945.05 2238.71 945.05C2223.21 945.05 2215.73 954.48 2214.52 966.32L2188.86 960.52C2191.04 940.21 2209.43 922.09 2238.47 922.09C2274.78 922.09 2288.57 942.64 2288.57 966.08V1024.58ZM2260.99 989.29L2230.25 993.88C2221.53 995.33 2214.52 1000.17 2214.52 1009.83C2214.52 1017.81 2220.57 1025.06 2231.7 1025.06C2247.43 1025.06 2260.99 1017.57 2260.99 994.6V989.29ZM2963.21 983.25C2963.21 987.84 2962.73 991.71 2962.49 992.19H2876.33C2877.05 1010.08 2891.09 1022.89 2908.51 1022.89C2925.93 1022.89 2934.17 1013.95 2938.05 1002.34L2961.76 1009.83C2955.47 1030.38 2936.84 1047.07 2908.51 1047.07C2876.57 1047.07 2848.26 1023.85 2848.26 983.97C2848.26 946.74 2875.84 922.09 2905.61 922.09C2941.92 922.09 2963.21 946.02 2963.21 983.25ZM2934.9 971.65C2934.42 957.87 2925.21 945.54 2905.85 945.54C2888.19 945.54 2878.02 959.08 2877.05 971.65H2934.9ZM2352.28 944.58V925.72H2324.93V1043.45H2353V987.36C2353 965.36 2362.94 952.79 2384.71 952.79C2387.62 952.79 2390.76 953.03 2393.91 953.52V925C2392.7 924.76 2389.8 924.27 2386.41 924.27C2370.92 924.27 2357.84 931.76 2352.28 944.58ZM2447.11 944.58V925.72H2419.76V1043.45H2447.83V987.36C2447.83 965.36 2457.76 952.79 2479.55 952.79C2482.45 952.79 2485.6 953.03 2488.74 953.52V925C2487.53 924.76 2484.63 924.27 2481.24 924.27C2465.74 924.27 2452.67 931.76 2447.11 944.58ZM2659.85 866C2649.93 866 2641.7 874.22 2641.7 884.37C2641.7 894.52 2649.93 902.5 2659.85 902.5C2669.77 902.5 2678.24 894.52 2678.24 884.37C2678.24 874.22 2670.01 866 2659.85 866ZM2609.7 1024.58C2609.7 1035.22 2610.91 1042.24 2611.15 1043.44H2585.01C2584.77 1042.72 2583.8 1037.88 2583.8 1028.44C2578.23 1037.39 2566.62 1047.06 2547.5 1047.06C2522.82 1047.06 2507.57 1030.13 2507.57 1011.52C2507.57 990.49 2523.06 978.89 2543.14 975.99L2573.39 971.4C2580.17 970.43 2582.1 967.05 2582.1 962.94C2582.1 953.03 2575.33 945.05 2559.84 945.05C2544.35 945.05 2536.85 954.48 2535.64 966.32L2509.99 960.52C2512.17 940.21 2530.56 922.09 2559.6 922.09C2595.91 922.09 2609.7 942.64 2609.7 966.08V1024.58ZM2582.1 989.29L2551.37 993.88C2542.66 995.33 2535.64 1000.17 2535.64 1009.83C2535.64 1017.81 2541.69 1025.06 2552.82 1025.06C2568.55 1025.06 2582.1 1017.57 2582.1 994.6V989.29ZM2646.06 1043.45H2673.89V925.72H2646.06V1043.45ZM2164.47 983.25C2164.47 987.84 2163.99 991.71 2163.75 992.19H2077.59C2078.32 1010.08 2092.35 1022.89 2109.77 1022.89C2127.19 1022.89 2135.43 1013.95 2139.31 1002.34L2163.02 1009.83C2156.73 1030.38 2138.1 1047.07 2109.77 1047.07C2077.83 1047.07 2049.52 1023.85 2049.52 983.97C2049.52 946.74 2077.11 922.09 2106.87 922.09C2143.18 922.09 2164.47 946.02 2164.47 983.25ZM2136.16 971.65C2135.68 957.87 2126.47 945.54 2107.11 945.54C2089.45 945.54 2079.28 959.08 2078.32 971.65H2136.16ZM3355.1 875.67H3331.39L3314.45 894.28L3297.51 875.67H3273.79L3299.44 910.72H3329.45L3355.1 875.67ZM2793.59 925.72H2820.71V1032.32C2820.71 1063.75 2804.48 1093 2760.2 1093C2728.98 1093 2707.2 1073.66 2704.06 1049.97L2729.95 1043.2C2731.89 1057.7 2743.26 1068.58 2759.47 1068.58C2781.74 1068.58 2792.87 1057.22 2792.87 1033.28V1020.95C2787.79 1030.14 2775.93 1038.12 2758.75 1038.12C2727.29 1038.12 2704.3 1013.94 2704.3 980.82C2704.3 947.7 2726.32 923.53 2758.75 923.53C2777.14 923.53 2788.51 931.02 2793.59 940.69V925.72ZM2793.59 980.83C2793.59 960.77 2780.77 947.71 2763.34 947.71C2745.91 947.71 2732.61 960.76 2732.61 980.83C2732.61 1000.9 2744.95 1014.19 2763.34 1014.19C2781.73 1014.19 2793.59 1001.14 2793.59 980.83ZM3316.87 1021.46V1021.44C3299.2 1021.44 3283.96 1008.15 3283.96 984.46C3283.96 960.77 3299.2 947.96 3316.38 947.96C3333.56 947.96 3342.28 959.56 3344.94 969.96L3370.1 960.77C3365.26 941.92 3347.84 922.09 3316.14 922.09C3282.26 922.09 3255.87 948.2 3255.87 984.47C3255.87 1020.74 3282.26 1047.09 3316.87 1047.09C3347.84 1047.09 3365.51 1027.02 3371.07 1008.65L3346.39 999.71C3343.73 1008.65 3335.26 1021.47 3316.87 1021.47V1021.46ZM1689.25 922.3V922.33C1673.99 922.33 1660.2 927.65 1651 943.12C1644.71 929.34 1631.16 922.33 1615.67 922.33C1602.36 922.33 1587.6 928.61 1580.82 940.7V925.71H1553.95V1043.44H1581.79V973.57C1581.79 958.58 1591.23 947.46 1606.23 947.46C1622.2 947.46 1628.98 958.1 1628.98 971.63V1043.43H1656.57V973.56C1656.57 959.06 1666.25 947.45 1681.01 947.45C1696.75 947.45 1703.77 957.84 1703.77 971.62V1043.42H1730.87V967.02C1730.87 935.84 1710.54 922.3 1689.25 922.3ZM3185.4 922.34V922.32C3173.06 922.32 3159.75 926.67 3151.76 937.07V868.41H3123.69V1043.44H3151.76V974.3C3152.24 959.31 3160.72 947.71 3176.21 947.71C3193.87 947.71 3200.41 959.31 3200.41 973.82V1043.45H3228.48V968.99C3228.48 943.12 3214.44 922.34 3185.4 922.34ZM3087.33 1024.58C3087.33 1035.22 3088.54 1042.24 3088.78 1043.44H3062.65C3062.41 1042.72 3061.44 1037.88 3061.44 1028.44C3055.87 1037.39 3044.26 1047.06 3025.13 1047.06C3000.45 1047.06 2985.2 1030.13 2985.2 1011.52C2985.2 990.49 3000.69 978.89 3020.78 975.99L3051.03 971.4C3057.81 970.43 3059.75 967.05 3059.75 962.94C3059.75 953.03 3052.97 945.05 3037.47 945.05C3021.97 945.05 3014.48 954.48 3013.27 966.32L2987.62 960.52C2989.8 940.21 3008.19 922.09 3037.23 922.09C3073.54 922.09 3087.33 942.64 3087.33 966.08V1024.58ZM3059.75 989.29L3029 993.88C3020.29 995.33 3013.27 1000.17 3013.27 1009.83C3013.27 1017.81 3019.32 1025.06 3030.45 1025.06C3046.19 1025.06 3059.75 1017.57 3059.75 994.6V989.29ZM2029.29 983.97H2029.3C2029.3 1019.51 2008.24 1046.36 1973.87 1046.36C1957.17 1046.36 1944.35 1039.11 1937.57 1027.74V1043.46H1910.22V868.42H1937.81V940.22C1943.13 931.03 1956.69 922.57 1974.83 922.57C2010.16 922.57 2029.29 949.4 2029.29 983.97ZM2000.98 984.22C2000.98 960.77 1987.91 947.48 1969.28 947.48C1950.65 947.48 1937.58 960.78 1937.58 984.22C1937.58 1007.66 1951.37 1021.45 1969.28 1021.45C1987.19 1021.45 2000.98 1007.43 2000.98 984.22Z" fill="#054449"/>
</svg>
