<svg width="4595" height="800" viewBox="0 0 4595 800" fill="none" xmlns="http://www.w3.org/2000/svg">
<path d="M2251.97 582.655L2254.03 582.245V653.365L2252.98 653.835C2246.05 656.785 2230.16 661.745 2201.8 661.745C2136.63 661.745 2096.2 621.815 2096.2 557.515V379.095H2032.16V311.315H2051.68C2084.48 311.315 2103.31 292.345 2103.31 259.325V204.425H2181.47V309.715H2253.32V379.055H2181.47V544.025C2181.47 573.005 2194.15 585.375 2223.84 585.375C2235.53 585.375 2249 583.185 2251.97 582.595V582.655ZM2517.4 582.625H2517.39V582.595C2514.43 583.185 2500.9 585.375 2489.25 585.375C2459.56 585.375 2446.91 572.995 2446.91 544.025V379.055H2518.76V309.715H2446.91V204.425H2368.76V259.325C2368.76 292.335 2349.92 311.315 2317.12 311.315H2297.61V379.095H2361.65V557.515C2361.65 621.815 2402.08 661.745 2467.26 661.745C2495.6 661.745 2511.49 656.775 2518.43 653.835L2519.5 653.365V582.245L2517.4 582.655V582.625ZM1988.21 654.465L1988.62 656.565H1908.62L1908.21 655.345C1907.45 653.225 1904.97 640.795 1904.59 616.695C1891.7 634.955 1860.36 667.175 1799.79 667.175C1765.03 667.175 1735.02 656.135 1712.9 635.185C1692.33 615.665 1680.97 589.515 1680.97 561.575C1680.97 504.965 1720.53 465.505 1786.76 455.965L1875.46 442.515C1897.01 439.485 1899.51 427.955 1899.51 419.515C1899.51 387.855 1874.13 368.955 1835.91 368.955C1797.69 368.955 1771.47 391.475 1766.94 427.765L1688.3 410.045C1695.26 355.815 1743.74 298.335 1835.24 298.335C1969.39 298.335 1983.88 389.495 1983.88 428.685V599.675C1983.88 633.025 1987.91 653.595 1988.08 654.465H1988.21ZM1899.52 498.485H1899.47L1811.33 511.645C1794.67 514.415 1766.69 523.895 1766.69 556.545C1766.69 577.155 1781.92 599.335 1815.34 599.335C1853.72 599.335 1899.49 584.195 1899.49 512.045H1899.52V498.475V498.485ZM2595.7 657.625H2681.46V309.215H2595.7V657.625ZM400.01 236.995C472.41 236.995 552.01 288.005 562.71 385.765C634.76 350.675 715.72 335.815 795.95 342.865C768.25 149.025 601.57 0.00488281 400.09 0.00488281C210.65 0.00488281 51.9895 131.745 10.6795 308.615C91.2995 308.005 170.47 329.375 239.61 370.055C258.19 280.735 332.55 236.985 400 236.985L400.01 236.995ZM1.98954 361.845C-18.4105 563.115 120.41 747.925 310.9 789.845V787.605C310.82 713.555 329.08 641.225 363.97 576.365C297.36 443.085 151.25 355.805 1.98954 361.845ZM1324.75 532.635L1162.41 153.725L1161.94 152.695H1045V657.625H1131.84V296.655L1284.1 655.315H1362.53L1516.21 295.215V657.635H1604.48V152.725H1485.44L1324.75 532.635ZM364.54 798.285C596.78 820.025 801.24 633.395 800 399.935C800 398.795 799.999 397.675 799.979 396.555C565.439 369.175 356.02 562.315 364.54 798.285ZM4344.38 478.825C4344.38 500.825 4342.22 506.705 4342.22 506.705H4088.88C4091.77 556.045 4131.43 592.985 4181.71 592.985C4218.83 592.985 4245.14 578.395 4260.2 549.745V549.795H4341.91C4337.59 564.425 4331.88 578.155 4324.81 590.765C4300.39 631.775 4253.95 667.155 4181.67 667.155C4133.65 667.155 4089.18 649.745 4056.6 618.155C4021.35 584.015 4002.69 536.555 4002.69 480.995C4002.69 429.495 4021.16 382.435 4054.76 348.485C4086.21 316.615 4129.4 298.335 4173.17 298.335C4278.79 298.335 4344.38 367.355 4344.38 478.845V478.825ZM4257.51 443.135C4254.65 389.415 4210.79 370.285 4173.9 370.285C4137.01 370.285 4095.78 395.825 4091.09 443.135H4257.51ZM3816.81 299.675C3774.33 299.675 3737.15 318.825 3715.98 351.145V309.555H3632.08V657.575H3718.11V457.045C3718.11 408.675 3745.67 377.455 3788.3 377.455C3848.75 377.455 3857.78 424.235 3857.78 452.105V657.605H3943.82V437.955C3943.82 352.645 3895.16 299.675 3816.81 299.665V299.675ZM3410.14 524.135L3311.97 310.225L3311.49 309.195H3214.17L3363.35 613.835L3281.33 790.955V790.995H3373.5L3593.95 309.205H3502.43L3410.14 524.135ZM4592.97 582.645V582.595C4589.94 583.185 4576.45 585.375 4564.83 585.375C4535.09 585.375 4522.4 572.995 4522.4 544.025V379.055H4594.31V309.715H4522.4V204.425H4444.27V259.325C4444.27 292.335 4425.4 311.315 4392.63 311.315H4373.11V379.095H4437.11V557.515C4437.11 621.815 4477.62 661.745 4542.75 661.745C4572.17 661.745 4588.38 656.235 4593.94 653.835L4595 653.365V582.245L4592.97 582.645ZM2643.01 135.005C2612.06 135.005 2587.52 159.895 2587.52 190.485C2587.52 221.075 2611.53 245.245 2643.01 245.245C2674.49 245.245 2699.15 221.205 2699.15 190.485C2699.15 159.765 2673.95 135.005 2643.01 135.005ZM2778.83 657.635H2864.6V141.815H2778.83V657.635ZM3104.72 448.865H3104.64L3104.72 448.885V448.865ZM3104.55 448.865H3104.64L3052.03 438.285C3031.05 434.135 3018.54 421.275 3018.54 403.965C3018.54 382.735 3039.67 366.105 3066.62 366.105C3119.09 366.105 3127.75 407.825 3129 416.205L3129.29 418.145L3202.45 397.395L3202.2 395.865C3200.38 385.185 3193.58 357.705 3168.96 334.145C3144.16 310.395 3109.69 298.335 3066.62 298.335C2995.38 298.335 2937.42 348.875 2937.42 411.005C2937.42 461.895 2972.78 500.085 3032.02 513.025L3083.34 524.345C3108.99 529.565 3122.53 542.165 3122.53 560.785C3122.53 579.405 3106.99 598.645 3072.27 598.645C3025.36 598.645 3005.92 567.885 3003.48 541.575L3003.3 539.475L2927.93 560.225L2928.06 561.695C2930.66 585.465 2944.13 610.715 2964.1 629.315C2990.71 654.025 3028.34 667.175 3072.9 667.175C3160.06 667.175 3205.64 610.855 3205.64 555.175C3205.64 499.495 3168.82 462.715 3104.55 448.875V448.865Z" fill="#E2F1DF"/>
</svg>
