<svg width="4595" height="800" viewBox="0 0 4595 800" fill="none" xmlns="http://www.w3.org/2000/svg">
<path d="M2251.97 582.65L2254.03 582.24V653.36L2252.98 653.83C2246.05 656.78 2230.16 661.74 2201.8 661.74C2136.63 661.74 2096.2 621.81 2096.2 557.51V379.09H2032.16V311.31H2051.68C2084.48 311.31 2103.31 292.34 2103.31 259.32V204.42H2181.47V309.71H2253.32V379.05H2181.47V544.02C2181.47 573 2194.15 585.37 2223.84 585.37C2235.53 585.37 2249 583.18 2251.97 582.59V582.65ZM2517.4 582.62H2517.39V582.59C2514.43 583.18 2500.9 585.37 2489.25 585.37C2459.56 585.37 2446.91 572.99 2446.91 544.02V379.05H2518.76V309.71H2446.91V204.42H2368.76V259.32C2368.76 292.33 2349.92 311.31 2317.12 311.31H2297.61V379.09H2361.65V557.51C2361.65 621.81 2402.08 661.74 2467.26 661.74C2495.6 661.74 2511.49 656.77 2518.43 653.83L2519.5 653.36V582.24L2517.4 582.65V582.62ZM1988.21 654.46L1988.62 656.56H1908.62L1908.21 655.34C1907.45 653.22 1904.97 640.79 1904.59 616.69C1891.7 634.95 1860.36 667.17 1799.79 667.17C1765.03 667.17 1735.02 656.13 1712.9 635.18C1692.33 615.66 1680.97 589.51 1680.97 561.57C1680.97 504.96 1720.53 465.5 1786.76 455.96L1875.46 442.51C1897.01 439.48 1899.51 427.95 1899.51 419.51C1899.51 387.85 1874.13 368.95 1835.91 368.95C1797.69 368.95 1771.47 391.47 1766.94 427.76L1688.3 410.04C1695.26 355.81 1743.74 298.33 1835.24 298.33C1969.39 298.33 1983.88 389.49 1983.88 428.68V599.67C1983.88 633.02 1987.91 653.59 1988.08 654.46H1988.21ZM1899.52 498.48H1899.47L1811.33 511.64C1794.67 514.41 1766.69 523.89 1766.69 556.54C1766.69 577.15 1781.92 599.33 1815.34 599.33C1853.72 599.33 1899.49 584.19 1899.49 512.04H1899.52V498.47V498.48ZM2595.7 657.62H2681.46V309.21H2595.7V657.62ZM400.01 236.99C472.41 236.99 552.01 288 562.71 385.76C634.76 350.67 715.72 335.81 795.95 342.86C768.25 149.02 601.57 0 400.09 0C210.65 0 51.9895 131.74 10.6795 308.61C91.2995 308 170.47 329.37 239.61 370.05C258.19 280.73 332.55 236.98 400 236.98L400.01 236.99ZM1.98954 361.84C-18.4105 563.11 120.41 747.92 310.9 789.84V787.6C310.82 713.55 329.08 641.22 363.97 576.36C297.36 443.08 151.25 355.8 1.98954 361.84ZM1324.75 532.63L1162.41 153.72L1161.94 152.69H1045V657.62H1131.84V296.65L1284.1 655.31H1362.53L1516.21 295.21V657.63H1604.48V152.72H1485.44L1324.75 532.63ZM364.54 798.28C596.78 820.02 801.24 633.39 800 399.93C800 398.79 799.999 397.67 799.979 396.55C565.439 369.17 356.02 562.31 364.54 798.28ZM4344.38 478.82C4344.38 500.82 4342.22 506.7 4342.22 506.7H4088.88C4091.77 556.04 4131.43 592.98 4181.71 592.98C4218.83 592.98 4245.14 578.39 4260.2 549.74V549.79H4341.91C4337.59 564.42 4331.88 578.15 4324.81 590.76C4300.39 631.77 4253.95 667.15 4181.67 667.15C4133.65 667.15 4089.18 649.74 4056.6 618.15C4021.35 584.01 4002.69 536.55 4002.69 480.99C4002.69 429.49 4021.16 382.43 4054.76 348.48C4086.21 316.61 4129.4 298.33 4173.17 298.33C4278.79 298.33 4344.38 367.35 4344.38 478.84V478.82ZM4257.51 443.13C4254.65 389.41 4210.79 370.28 4173.9 370.28C4137.01 370.28 4095.78 395.82 4091.09 443.13H4257.51ZM3816.81 299.67C3774.33 299.67 3737.15 318.82 3715.98 351.14V309.55H3632.08V657.57H3718.11V457.04C3718.11 408.67 3745.67 377.45 3788.3 377.45C3848.75 377.45 3857.78 424.23 3857.78 452.1V657.6H3943.82V437.95C3943.82 352.64 3895.16 299.67 3816.81 299.66V299.67ZM3410.14 524.13L3311.97 310.22L3311.49 309.19H3214.17L3363.35 613.83L3281.33 790.95V790.99H3373.5L3593.95 309.2H3502.43L3410.14 524.13ZM4592.97 582.64V582.59C4589.94 583.18 4576.45 585.37 4564.83 585.37C4535.09 585.37 4522.4 572.99 4522.4 544.02V379.05H4594.31V309.71H4522.4V204.42H4444.27V259.32C4444.27 292.33 4425.4 311.31 4392.63 311.31H4373.11V379.09H4437.11V557.51C4437.11 621.81 4477.62 661.74 4542.75 661.74C4572.17 661.74 4588.38 656.23 4593.94 653.83L4595 653.36V582.24L4592.97 582.64ZM2643.01 135C2612.06 135 2587.52 159.89 2587.52 190.48C2587.52 221.07 2611.53 245.24 2643.01 245.24C2674.49 245.24 2699.15 221.2 2699.15 190.48C2699.15 159.76 2673.95 135 2643.01 135ZM2778.83 657.63H2864.6V141.81H2778.83V657.63ZM3104.72 448.86H3104.64L3104.72 448.88V448.86ZM3104.55 448.86H3104.64L3052.03 438.28C3031.05 434.13 3018.54 421.27 3018.54 403.96C3018.54 382.73 3039.67 366.1 3066.62 366.1C3119.09 366.1 3127.75 407.82 3129 416.2L3129.29 418.14L3202.45 397.39L3202.2 395.86C3200.38 385.18 3193.58 357.7 3168.96 334.14C3144.16 310.39 3109.69 298.33 3066.62 298.33C2995.38 298.33 2937.42 348.87 2937.42 411C2937.42 461.89 2972.78 500.08 3032.02 513.02L3083.34 524.34C3108.99 529.56 3122.53 542.16 3122.53 560.78C3122.53 579.4 3106.99 598.64 3072.27 598.64C3025.36 598.64 3005.92 567.88 3003.48 541.57L3003.3 539.47L2927.93 560.22L2928.06 561.69C2930.66 585.46 2944.13 610.71 2964.1 629.31C2990.71 654.02 3028.34 667.17 3072.9 667.17C3160.06 667.17 3205.64 610.85 3205.64 555.17C3205.64 499.49 3168.82 462.71 3104.55 448.87V448.86Z" fill="#054449"/>
</svg>
