<svg xmlns="http://www.w3.org/2000/svg" width="210" height="256" viewBox="0 0 210 256">
  <path fill="#b4cea0" d="m52.67 229.52c0-4.65-.04-8.81 0-12.99.14-13.78.6-27.54 4.67-40.85.98-3.2 2.35-6.25 4.43-9.14 2.09-2.89 4-3.94 6.73-3.49 2.71.45 4.18 2.63 5.22 6.38s.72 12.45-.23 18.94c-1.97 13.66-5.1 26.8-7.4 40.58 2.34-5.87 4.16-11.46 6.68-17.27a445.86 445.86 0 0 1 12.7-27.04 33.57 33.57 0 0 1 7.16-9.77c1.29-1.25 4.52-3.61 7.66-2.34 1.72.7 2.56 3.15 2.75 4.92 1.55 14.43-4.66 26.94-11.87 38.86-7.9 13.06-21.77 34.44-32.57 38.75-3.03 1.4-10.14 1.2-13.04-.4-3.57-2-9.9-8.61-13.73-13.37-11.38-14.12-22.7-28.61-29.67-45.45-1.41-3-3.71-10.5-.63-13.8 2.36-2.53 5.13-1.61 7.64 0 6.8 4.81 10.79 10.43 14.86 17.49 4.22 7.3 9.81 17.94 14.4 25.2-1.81-6.3-5.43-15.77-6.9-22.15-2.53-10.96-6.77-21.58-3.46-32.78.73-2.45 4.1-6.35 7.22-6.64s5.18 2.58 6.97 5.94c1.8 3.37 4.75 15.67 6.13 24.22 1.83 11.49 3.88 35.42 4.27 36.2z"/>
  <path fill="#c58f79" d="m176.05 104.55c2.51-.77 9.18-2.31 11.97-.94 2.8 1.37 1.34 2.25.2 2.57-1.2.33-4.69 1.21-.15 2.31a14.2 14.2 0 0 1 5.55 2.62c.92.77.97 2.26-2.98 3.61-3.94 1.36-8.56 1.93-12.03.44-3.48-1.49-2.82-1.76-2.82-1.76z"/>
  <path fill="#f9cc76" d="m151.38 88.27c-5.17-8.4-5.92-10.19-8.8-17.2-1.8-4.4-4.75-9.4-7.54-12.07-4.13-3.95-6.03-5.82-10.78-6.86-2.7-.6-6.54 1.4-7.34 5.57s3.23 8.37 4.46 9.44c1.24 1.07 3.83 2.8 8.52 10.3 3.65 5.85 3.3 6.46 8.87 18.68 2.73 5.54 5.02 7.9 9.76 10.52 5.07 2.8 12.43 5.68 27.96 9.26.25-2.21 1.06-12.94 1.06-12.94-18.3-5.35-23.96-11.1-26.17-14.7z"/>
  <path fill="#c58f79" d="m79.63 139.27c1.04 2.1 3.4 7.75 2.73 10.46-.66 2.7-1.14 3.24-4.64 6.28-.8.68-2.28 1.15-4.04-2.12s-2.98-7.26-2.33-10.6c.65-3.33.98-2.78.98-2.78z"/>
  <path fill="#f9cc76" d="m106.11 57.24c-.06-1.95-1.35-7.44-6.54-5.84-5.35 1.64-11.11 3.73-16.62 11.65-5.3 7.61-9.84 17.82-11.17 37.3-1.47 21.68-1.98 41.58-2.01 41.9l12.8-.28c.03-.32.05-16.12 2.52-44.62.69-8.03 3-16.74 5.87-20.92 1.86-2.72 4.42-6.07 6.13-7.6 0 0 2.97-2.05 5.2-3.66 3.65-2.63 3.9-5.4 3.82-7.93z"/>
  <path fill="#1e1a28" d="m87.67 249.25s-1.63 4.36-1.82 5.32c-.19.84-.6 1.14 2.4 1.17 0 0 17.78.28 19 0 .8-.19 1.8-1.3 1.25-6.24l-20.84-.25zm35.88.28s-.28 4.19.33 5.1c.63.91 1 1.5 6.46 1.2 0 0 15.4.28 15.88-.12.49-.4-2.32-6.47-2.32-6.47z"/>
  <path fill="#da573b" d="m85.7 116.6c-.13 8.23-1 51.16-1.11 55.8-.2 4.64-.31 44.11-.31 48.5 0 4.37-.13 28.41.42 29.2.56.78 23.53 1.37 24.7.52s0-39.66.18-44.3c.12-4.65.86-27.58.12-46.27-.74-18.7.6-22.15 1.04-22.15.43 0 .81-.92 2.53 16.72 1.73 17.65 5.24 49.74 5.98 57.51.73 7.84 2.77 38.23 3.57 38.56s22.54-.06 23.27-.33c.74-.26-1.17-25.62-1.41-28.43-.25-2.8-5.17-65.15-5.42-68.49-.24-3.33-2.46-38.16-2.46-38.16s-25.99.06-28.2.26c-2.28.13-22.9 1.05-22.9 1.05z"/>
  <path fill="#cde5f2" d="m84.26 178.53 1.38-57.06 51.52-1.03 4.14 57.18z"/>
  <path fill="#f9cc76" d="m136.56 105.84c.03 6.47.52 12.71.65 15.45 0 0-26.28 2.62-37.08 1.32 0 0-13.8-.61-14.52-.61 0 0 .17-11.36.16-17.82.1-9.86.29-18.24.55-25.3.26-7.05-.64-20.8 8.48-25.5 5.7-2.95 7.35-2.76 15.29-3.15 6.49-.26 15.7.73 19.43 4.2 4.79 4.37 5.36 13.8 6.02 22.84.44 10.2.77 20.08 1.03 28.57z"/>
  <path fill="#cde5f2" d="m85.6 123.54.24-25.45s4.97-.82 6.54-1.15c1.57-.32 1.83-43.7 1.83-43.7s2.29-.99 3.55-1.43c.33-.1 1.96 25.23 2.15 27.44 0 0 19.99-.45 20.9-.58 0 0 .47-21.6.6-22.96l.44-4.6s3.1.5 3.88.96 1.15 32.74 1.8 43.6c0 0-.38.16 2.09.3 1.64.03 6.84.4 6.84.4l.79 26.24-51.64.93z"/>
  <path fill="#c58f79" d="m125.47 34.91c-.08-.44-.47-.68-.92-.87.18-3.57-.56-5.84-2.15-8.13-1.34-1.92-3.2-3.84-5.81-4.77-2.32-.83-8-.6-10.27.31-5.45 2.07-7.6 7.13-7.88 12.72-.47.12-.88.29-1.01.7a3.3 3.3 0 0 0 -.26 2.19c.18.63.59 1.03 1.4 1.57.22 2.6 1.04 5.09 2.39 7.15l.28.43c2.12 3.24 4.95 5.13 8.34 5.13h2.67c3.37 0 6.57-1.87 8.69-5.1l.84-1.27a15.4 15.4 0 0 0 2.36-6.66c.7-.35 1.08-.67 1.31-1.2.3-.75.23-1.44.03-2.2z"/>
  <path fill="#1e1a28" d="m132.32 39.18c-.36-1.88-2.64-4.32-3.42-5.54a68.3 68.3 0 0 1 -2.94-4.91c-2.26-4.63-7.18-8.45-12.77-8.72-2.88-.14-5.93-.08-8.66 1.53-.02 0 .01-.01 0 0-3.97 1.98-7.09 7.22-6.32 11.86.04.25.1.5.16.76.46-.02.98.1 1.4-.16a18.26 18.26 0 0 0 5.94-6.85c4.4 6.64 13.28 9.02 18.83 6.87v.02c.46.2.85.43.93.88.2.75.27 1.45-.02 2.2-.24.53-.62.85-1.31 1.2a15.38 15.38 0 0 1 -2.38 6.66l-.84 1.29a12.39 12.39 0 0 1 -2.4 2.71c.16.56 1.27 3.59 5.47 2.72 4.44-.92 4.38-1.33 6.3-3.37 2.1-2.24 2.86-4.91 2.03-9.15z"/>
  <path fill="#153f7b" d="m204.17 0c.18.91.21 1.78.28 2.73 1.78 24.41 4.87 64.8 5.24 73.33.38 8.76 1.68 7.91-6.53 15-4.06 3.51-6.9 11.88-7.1 20.14-.83 35.52 2.75 66.63 4.64 106.01.89 8.67.83 17.42 1.38 26.16.54 8.61-7 14.48-15.15 12.1-5.28-1.58-8.57-6.22-8.1-12.37 1.03-13.8 1.88-27.66 3.25-41.46 2.35-34.75 3.2-60.58 2.78-90.57-.14-8.67-3.41-16.53-7.64-20-7.3-6-6.56-6.12-6.34-13.43.27-8.74 1.4-20.88 2.16-30.85 1.02-14.53 2.12-29 3.22-43.58l.23-3.21h2.4c.1 1.53.11 3 .11 4.5-.14 19-.27 37.41-.47 56.4-.04 2.82.83 4.9 2.3 4.9 1.33 0 2.42-1.93 2.35-5.07.48-19.4.9-37.78 1.37-57.11a39 39 0 0 1 .2-3.62h2.6c.14 1.4.2 2.66.2 3.96l.4 56.35c-.01 3.91 1.09 5.36 2.34 5.36s2.2-1.5 2.26-5.08c.13-19 .34-38.05.55-57.04.03-1.32.1-2.2.17-3.55h2.65c.12 1.6.17 2.2.23 3.9.34 13.66.62 27.32.96 40.98.14 6.15-.13 11.83.2 17.98-.01 1.23 1.35 2.94 2.54 2.94 1.2 0 2.4-1.78 2.34-4.46-.14-19.13-.35-36.67-.48-55.8 0-1.3-.03-3.56.06-5.54h2.4z"/>
</svg>