<svg width="185" height="290" viewBox="0 0 185 290" fill="none" xmlns="http://www.w3.org/2000/svg">
<rect x="111.6" y="120.957" width="22.9772" height="8.75321" fill="#F9C4AA"/>
<path d="M104.555 0.311054C105.189 -0.53385 108.654 0.647451 109.233 0.311054C109.812 -0.0253427 113.865 12.4057 113.293 18.4765C112.824 23.4286 109.859 31.5334 100.111 30.5398C90.3637 29.5463 88.6113 20.0489 88.6113 17.7176C88.6113 15.3863 89.6909 15.0499 90.1134 15.0499C90.5358 15.0499 91.5294 15.9652 91.5294 16.7163C91.5294 17.4673 94.1971 23.632 99.775 23.632C105.353 23.632 107.293 19.0398 107.465 16.6302C107.731 13.0003 103.867 1.23419 104.547 0.318877L104.555 0.311054Z" fill="#CDE5F2"/>
<path d="M122.43 140.77C123.244 140.253 123.643 139.283 123.431 138.344C120.106 123.457 119.794 117.949 116.969 111.816C114.685 106.856 110.281 99.0329 103.521 88.9332C102.888 87.9944 102.723 86.8131 103.083 85.7413C104.405 81.7593 107.472 71.1354 106.979 59.2364C106.533 48.3465 103.279 39.5454 105.117 32.841C106.979 26.027 106.322 19.0017 105.195 16.733C103.967 14.2609 100.079 14.8711 96.2849 14.8867C93.1243 14.9024 92.608 27.662 92.256 30.142C92.256 30.142 95.1896 47.2434 86.412 56.1149C76.6565 65.98 60.7207 69.9542 60.7285 82.2287C60.7285 110.971 74.9745 119.483 76.7817 162.416C83.8617 164.638 85.9035 163.676 96.1284 163.386C96.5509 163.371 96.942 163.12 97.1141 162.737C98.0373 160.734 98.757 159.271 100.517 156.917C103.099 156.236 108.098 154.992 111.094 154.515C111.556 154.445 111.916 154.092 112.002 153.631C112.385 151.636 113.269 148.217 114.247 146.011C117.016 144.235 120.545 141.99 122.438 140.785L122.43 140.77Z" fill="#F9C4AA"/>
<path d="M165.28 0.311054C165.913 -0.53385 169.379 0.647451 169.958 0.311054C170.537 -0.0253427 174.589 12.4057 174.018 18.4765C173.549 23.4286 170.584 31.5334 160.836 30.5398C151.088 29.5463 149.336 20.0489 149.336 17.7176C149.336 15.3863 150.416 15.0499 150.838 15.0499C151.26 15.0499 152.254 15.9652 152.254 16.7163C152.254 17.4673 154.922 23.632 160.5 23.632C166.078 23.632 168.018 19.0398 168.19 16.6302C168.456 13.0003 164.591 1.23419 165.272 0.318877L165.28 0.311054Z" fill="#CDE5F2"/>
<path d="M183.153 140.77C183.966 140.253 184.365 139.283 184.154 138.344C180.829 123.457 180.516 117.949 177.692 111.816C175.408 106.856 171.003 99.0329 164.244 88.9332C163.61 87.9944 163.446 86.8131 163.806 85.7413C165.128 81.7593 168.195 71.1354 167.702 59.2364C167.256 48.3465 164.001 39.5454 165.84 32.841C167.702 26.027 167.045 19.0017 165.918 16.733C164.69 14.2609 160.802 14.8711 157.008 14.8867C153.847 14.9024 153.331 27.662 152.979 30.142C152.979 30.142 155.912 47.2434 147.135 56.1149C137.379 65.98 121.443 69.9542 121.451 82.2287C121.451 110.971 135.697 119.483 137.504 162.416C144.584 164.638 146.626 163.676 156.851 163.386C157.274 163.371 157.665 163.12 157.837 162.737C158.76 160.734 159.48 159.271 161.24 156.917C163.822 156.236 168.821 154.992 171.817 154.515C172.278 154.445 172.638 154.092 172.724 153.631C173.108 151.636 173.992 148.217 174.97 146.011C177.739 144.235 181.267 141.99 183.16 140.785L183.153 140.77Z" fill="#F9C4AA"/>
<path d="M43.8265 0.311054C44.4601 -0.53385 47.9258 0.647451 48.5047 0.311054C49.0836 -0.0253427 53.1361 12.4057 52.565 18.4765C52.0956 23.4286 49.1306 31.5334 39.3829 30.5398C29.6352 29.5463 27.8828 20.0489 27.8828 17.7176C27.8828 15.3863 28.9624 15.0499 29.3849 15.0499C29.8073 15.0499 30.8009 15.9652 30.8009 16.7163C30.8009 17.4673 33.4686 23.632 39.0465 23.632C44.6244 23.632 46.5646 19.0398 46.7367 16.6302C47.0027 13.0003 43.138 1.23419 43.8186 0.318877L43.8265 0.311054Z" fill="#CDE5F2"/>
<path d="M61.7015 140.77C62.5151 140.253 62.914 139.283 62.7028 138.344C59.378 123.457 59.065 117.949 56.2409 111.816C53.9565 106.856 49.552 99.0329 42.7928 88.9332C42.1591 87.9944 41.9949 86.8131 42.3547 85.7413C43.6768 81.7593 46.7435 71.1354 46.2507 59.2364C45.8047 48.3465 42.5503 39.5454 44.3888 32.841C46.2507 26.027 45.5935 19.0017 44.467 16.733C43.2387 14.2609 39.3506 14.8711 35.5564 14.8867C32.3958 14.9024 31.8795 27.662 31.5274 30.142C31.5274 30.142 34.4611 47.2434 25.6835 56.1149C15.928 65.98 -0.0078203 69.9542 2.87932e-06 82.2287C2.87932e-06 110.971 14.246 119.483 16.0532 162.416C23.1332 164.638 25.175 163.676 35.3999 163.386C35.8224 163.371 36.2135 163.12 36.3856 162.737C37.3088 160.734 38.0285 159.271 39.7887 156.917C42.3704 156.236 47.3694 154.992 50.3657 154.515C50.8272 154.445 51.1871 154.092 51.2731 153.631C51.6565 151.636 52.5405 148.217 53.5184 146.011C56.2878 144.235 59.8161 141.99 61.7093 140.785L61.7015 140.77Z" fill="#F9C4AA"/>
<path d="M66.8008 132.629C66.0401 130.674 63.712 125.721 61.4558 124.64C59.1997 123.559 59.3658 124.908 59.7295 125.786C60.1117 126.7 61.2823 129.329 58.3374 127.022C57.0506 126.015 55.4369 125.148 53.9211 124.827C52.9777 124.626 52.0139 125.331 53.1106 128.477C54.2091 131.622 56.1366 134.804 58.8045 136.257C61.4724 137.709 61.3174 137.159 61.3174 137.159L66.8008 132.631H66.799L66.8008 132.629Z" fill="#C58F79"/>
<path d="M102.623 149.993C112.689 144.653 119.603 140.202 120.746 135.087C121.228 132.926 120.384 129.74 117.46 128.197C114.962 126.88 112.866 127.208 111.044 127.963C109.34 128.668 108.656 129.293 107.698 129.971C101.244 134.535 97.2482 139.457 86.6155 143.369C83.6411 144.463 77.5815 139.926 72.9511 136.067C70.6192 134.123 67.7814 131.567 67.3088 130.87L59.7169 137.822C61.5928 139.79 71.7657 152.514 84.4793 155.257C89.4291 156.325 98.9541 151.942 102.626 149.994L102.623 149.993Z" fill="#9ECCED"/>
<path d="M150.773 197.335L156.588 198.323C156.588 198.323 156.852 197.89 157.371 200.547C157.889 203.205 156.914 206.394 155.514 209.004C154.115 211.614 152.923 211.241 152.293 210.694C149.5 208.267 149.123 207.842 148.593 205.682C148.062 203.522 149.943 199.009 150.77 197.335H150.771H150.773Z" fill="#C58F79"/>
<path d="M129.668 131.865C129.719 130.311 130.747 125.926 134.883 127.201C139.141 128.514 143.736 130.183 148.128 136.501C152.353 142.579 155.972 150.723 157.027 166.274C158.201 183.575 158.609 199.456 158.631 199.713L148.426 199.494C148.406 199.236 148.388 186.627 146.423 163.874C145.873 157.472 144.034 150.514 141.746 147.178C140.261 145.012 138.217 142.339 136.853 141.123C136.853 141.123 134.488 139.477 132.706 138.191C129.801 136.095 129.602 133.881 129.668 131.869V131.865Z" fill="#9ECCED"/>
<path d="M105.079 284.673C105.079 284.673 103.78 288.15 103.632 288.922C103.484 289.59 103.16 289.828 105.547 289.849C105.547 289.849 119.718 290.073 120.684 289.849C121.322 289.701 122.12 288.818 121.688 284.874L105.077 284.673H105.079Z" fill="#1E1A28"/>
<path d="M133.682 284.894C133.682 284.894 133.453 288.238 133.945 288.966C134.441 289.694 134.736 290.164 139.087 289.924C139.087 289.924 151.359 290.146 151.749 289.831C152.138 289.514 149.901 284.662 149.901 284.662L133.68 284.894H133.682Z" fill="#1E1A28"/>
<path d="M103.505 178.794C103.408 185.366 102.721 219.636 102.624 223.336C102.475 227.041 102.377 258.545 102.377 262.038C102.377 265.532 102.278 284.724 102.719 285.35C103.161 285.975 121.466 286.443 122.397 285.767C123.33 285.09 122.397 254.109 122.545 250.405C122.642 246.701 123.231 228.394 122.642 213.477C122.053 198.56 123.123 195.8 123.469 195.8C123.815 195.8 124.115 195.066 125.488 209.149C126.862 223.232 129.659 248.843 130.248 255.047C130.837 261.307 132.456 285.562 133.096 285.822C133.734 286.083 151.059 285.77 151.646 285.562C152.235 285.353 150.713 265.113 150.519 262.871C150.323 260.626 146.396 210.869 146.2 208.207C146.005 205.549 144.238 177.748 144.238 177.748C144.238 177.748 123.528 177.799 121.762 177.956C119.946 178.059 103.505 178.79 103.505 178.79H103.509L103.505 178.794Z" fill="#9ECCED"/>
<path d="M102.367 228.233L103.465 182.686L144.53 181.863L147.823 227.502L102.367 228.233Z" fill="#054449"/>
<path d="M144.047 170.213C144.071 175.377 144.457 180.356 144.559 182.546C144.559 182.546 123.619 184.635 115.014 183.597C115.014 183.597 104.008 183.105 103.436 183.105C103.436 183.105 103.573 174.04 103.564 168.885C103.639 161.018 103.796 154.332 104.004 148.7C104.213 143.068 103.496 132.095 110.761 128.339C115.311 125.991 116.622 126.141 122.946 125.828C128.119 125.619 135.456 126.41 138.435 129.174C142.249 132.666 142.703 140.189 143.233 147.407C143.583 155.545 143.844 163.434 144.049 170.213H144.047Z" fill="#9ECCED"/>
<path d="M103.436 184.336L103.618 164.026C103.618 164.026 107.582 163.371 108.832 163.112C110.081 162.852 110.29 128.223 110.29 128.223C110.29 128.223 112.117 127.441 113.121 127.091C113.383 127.003 114.681 147.225 114.837 148.99C114.837 148.99 130.765 148.626 131.493 148.524C131.493 148.524 131.87 131.291 131.975 130.203C132.079 129.112 132.32 126.528 132.32 126.528C132.32 126.528 134.786 126.932 135.41 127.296C136.034 127.66 136.332 153.424 136.853 162.093C136.853 162.093 136.548 162.223 138.51 162.331C139.82 162.354 143.963 162.658 143.963 162.658L144.592 183.599L103.437 184.336H103.436Z" fill="#054449"/>
<path d="M135.209 113.606C135.144 113.252 134.833 113.063 134.469 112.906C134.618 110.059 134.025 108.248 132.757 106.42C131.693 104.886 130.209 103.358 128.127 102.614C126.28 101.953 121.759 102.127 119.942 102.86C115.596 104.512 113.884 108.549 113.662 113.01C113.29 113.105 112.962 113.243 112.854 113.578C112.615 114.147 112.494 114.688 112.65 115.316C112.795 115.822 113.118 116.141 113.765 116.573C113.941 118.648 114.596 120.633 115.67 122.28L115.892 122.619C117.58 125.207 119.839 126.714 122.541 126.714H124.67C127.357 126.714 129.904 125.222 131.592 122.652L132.264 121.629C133.272 120.096 133.921 118.258 134.149 116.314C134.701 116.036 135.006 115.782 135.19 115.358C135.424 114.762 135.374 114.208 135.21 113.606H135.209Z" fill="#C58F79"/>
<path d="M140.668 117.009C140.376 115.509 138.563 113.559 137.939 112.585C136.283 109.996 135.6 108.668 135.6 108.668C133.795 104.976 129.874 101.923 125.418 101.71C123.123 101.602 120.695 101.643 118.514 102.93C118.502 102.936 118.526 102.922 118.514 102.93C115.352 104.51 112.866 108.691 113.478 112.394C113.513 112.6 113.553 112.802 113.604 113.003C113.973 112.991 114.391 113.084 114.721 112.873C116.245 111.905 118.284 109.807 119.452 107.407C122.958 112.71 130.037 114.61 134.464 112.895C134.464 112.899 134.464 112.903 134.464 112.908C134.829 113.064 135.141 113.254 135.206 113.608C135.371 114.21 135.42 114.766 135.186 115.363C135.001 115.787 134.696 116.042 134.143 116.32C133.915 118.268 133.264 120.107 132.253 121.641L131.58 122.666C131.024 123.511 130.375 124.238 129.66 124.835C129.793 125.281 130.678 127.696 134.029 127.003C137.563 126.272 137.518 125.938 139.041 124.315C140.716 122.525 141.325 120.394 140.669 117.009H140.668Z" fill="#1E1A28"/>
<path d="M134.996 111.719C134.996 111.719 134.582 110.968 133.052 109.603C131.883 108.563 127.669 106.216 122.308 106.837C116.947 107.458 114.145 111.603 113.324 111.87C113.043 111.964 113.243 107.711 113.243 107.711C113.243 107.711 114.004 104.042 117.006 101.825C120.201 99.4709 123.129 98.4238 127.743 99.6803C135.366 101.76 135.861 107.617 135.418 111.921L134.996 111.711V111.719Z" fill="#9ECCED"/>
</svg>
