<svg xmlns="http://www.w3.org/2000/svg" width="145" height="248" fill="none" viewBox="0 0 145 248"><path fill="#C58F79" d="M106.07 96.7c2.5-.76 9.16-2.3 11.96-.94 2.78 1.37 1.33 2.25.19 2.57-1.2.33-4.68 1.22-.15 2.31 1.97.48 4.06 1.4 5.54 2.62.92.77.96 2.26-2.97 3.6-3.94 1.36-8.55 1.93-12.02.45-3.47-1.49-2.8-1.76-2.8-1.76l.25-8.85Z"/><path fill="#9ECCED" d="M81.45 80.43c-5.16-8.38-5.91-10.18-8.78-17.2-1.8-4.38-4.74-9.38-7.53-12.05-4.12-3.95-6.02-5.82-10.76-6.86-2.7-.6-6.52 1.4-7.32 5.57-.8 4.16 3.22 8.36 4.45 9.43 1.23 1.07 3.82 2.8 8.5 10.3 3.65 5.84 3.3 6.45 8.85 18.67 2.73 5.53 5.02 7.9 9.75 10.5 5.06 2.8 12.4 5.69 27.9 9.27.25-2.21 1.06-12.93 1.06-12.93-18.27-5.35-23.91-11.1-26.12-14.7Z"/><path fill="#C58F79" d="M9.84 131.4c1.04 2.1 3.4 7.75 2.73 10.46-.67 2.7-1.14 3.24-4.64 6.28-.78.68-2.27 1.15-4.03-2.12-1.75-3.27-2.97-7.26-2.32-10.59.65-3.33.98-2.78.98-2.78l7.28-1.24Z"/><path fill="#9ECCED" d="M36.27 49.42c-.06-1.95-1.35-7.44-6.53-5.84-5.33 1.65-11.09 3.73-16.59 11.65-5.29 7.6-9.82 17.8-11.14 37.28C.54 114.18.03 134.06 0 134.4l12.78-.28c.02-.32.05-16.11 2.5-44.6.7-8.02 3-16.74 5.86-20.91 1.86-2.72 4.42-6.06 6.13-7.59 0 0 2.96-2.06 5.2-3.67 3.63-2.62 3.88-5.4 3.8-7.91Z"/><path fill="#1E1A28" d="M17.86 241.33s-1.63 4.35-1.81 5.32c-.19.84-.6 1.13 2.4 1.16 0 0 17.74.28 18.95 0 .8-.18 1.8-1.3 1.26-6.23l-20.8-.25ZM53.68 241.6s-.29 4.2.33 5.1c.62.92.99 1.5 6.44 1.2 0 0 15.36.28 15.85-.11.49-.4-2.31-6.47-2.31-6.47l-20.31.29Z"/><path fill="#9ECCED" d="M15.89 108.74c-.12 8.23-.98 51.14-1.1 55.78-.19 4.64-.31 44.09-.31 48.46 0 4.38-.13 28.41.42 29.2.56.78 23.48 1.37 24.65.52 1.17-.85 0-39.64.18-44.28.12-4.64.86-27.57.12-46.25-.73-18.68.6-22.13 1.04-22.13.43 0 .8-.92 2.53 16.71 1.72 17.64 5.22 49.71 5.96 57.48.74 7.84 2.76 38.21 3.57 38.54.8.32 22.49-.07 23.22-.33.74-.26-1.16-25.6-1.4-28.41-.25-2.81-5.17-65.12-5.41-68.46-.25-3.32-2.46-38.14-2.46-38.14s-25.94.06-28.15.26c-2.27.13-22.86 1.05-22.86 1.05Z"/><path fill="#054449" d="m14.46 170.65 1.38-57.04 51.42-1.03 4.13 57.16-56.93.91Z"/><path fill="#9ECCED" d="M66.66 98c.03 6.46.52 12.7.64 15.44 0 0-26.22 2.61-37 1.31 0 0-13.78-.61-14.5-.61 0 0 .18-11.35.17-17.8.1-9.86.29-18.23.55-25.29.26-7.05-.64-20.79 8.46-25.5 5.7-2.93 7.34-2.75 15.26-3.14 6.48-.26 15.66.73 19.4 4.2 4.77 4.37 5.34 13.79 6 22.83.44 10.19.77 20.07 1.03 28.55Z"/><path fill="#054449" d="m15.8 115.68.24-25.43s4.96-.82 6.52-1.15c1.57-.32 1.83-43.69 1.83-43.69s2.29-.98 3.55-1.42c.32-.1 1.95 25.22 2.14 27.43 0 0 19.95-.46 20.86-.59 0 0 .47-21.58.6-22.94l.44-4.6s3.09.5 3.87.96c.78.46 1.15 32.72 1.8 43.58 0 0-.38.16 2.08.3 1.64.02 6.83.4 6.83.4l.79 26.23-51.54.92Z"/><path fill="#C58F79" d="M55.6 27.1c-.08-.44-.47-.67-.93-.87.19-3.56-.56-5.83-2.14-8.12-1.34-1.92-3.2-3.84-5.8-4.77-2.31-.82-7.98-.6-10.25.31-5.44 2.07-7.59 7.13-7.87 12.71-.46.12-.87.3-1 .71a3.3 3.3 0 0 0-.26 2.18c.18.63.58 1.03 1.4 1.57.21 2.6 1.03 5.09 2.38 7.15l.28.42c2.11 3.24 4.94 5.13 8.32 5.13h2.67c3.37 0 6.55-1.87 8.67-5.08l.84-1.29a15.4 15.4 0 0 0 2.36-6.65c.7-.35 1.07-.67 1.3-1.2.3-.74.23-1.44.03-2.2Z"/><path fill="#1E1A28" d="M62.43 31.37c-.36-1.88-2.63-4.32-3.41-5.54-2.08-3.24-2.93-4.9-2.93-4.9-2.26-4.63-7.17-8.45-12.75-8.72-2.88-.13-5.92-.08-8.65 1.53-.01 0 .02-.01 0 0-3.96 1.98-7.07 7.21-6.3 11.85.04.26.09.51.15.76.46-.01.99.1 1.4-.16a18.24 18.24 0 0 0 5.93-6.84c4.39 6.64 13.25 9.01 18.8 6.87v.01c.45.2.84.44.92.88.21.75.27 1.45-.02 2.2-.23.53-.62.85-1.3 1.2a15.4 15.4 0 0 1-2.37 6.66l-.85 1.28c-.7 1.06-1.5 1.97-2.4 2.72.16.56 1.27 3.58 5.47 2.71 4.43-.91 4.37-1.33 6.28-3.36 2.1-2.24 2.86-4.91 2.03-9.15Z"/><path fill="#F9C4AA" d="M107.44 68.99c-6.28 1.81-15.5 11.02-14.34 17.21 1.16 6.2 5.96 15.83 18.24 15.86 12.27.03 21.85-1.4 25.67-4.15 7.36-5.27 10.88-21.48 2.45-28.14-6.86-5.42-19.54-4.37-32.02-.78Z"/><path fill="#DA573B" d="M99.06 77.54c-1.58.76-4.83 5.55-3.8 8.43 1.04 2.88 2.58 8.51 6.38 10.89 3.8 2.37 10.15 2.98 13.25 2.84 3.1-.13 8.63 1.07 8.15-2.23-.48-3.3-.4-11.97-3.41-13.87-3.03-1.89-4.48-9.57-7.83-10.06-3.34-.49-3.38 2.6-6.02 4.28-2.64 1.66-4-1.58-6.72-.28ZM116.37 74.43c.34 1.64 2.74 6.49 4.39 7.44 1.64.96 13.36 2.32 12.9.53-.45-1.79-5.9-7.43-9.4-8.35-1.57-.42-8.18-1.04-7.89.38ZM127.07 85.6c-3.2.01-3.3 2.52-3.11 4.65.17 2.13 8.03.6 9.06-.78 1.04-1.37-2.05-3.88-5.95-3.87ZM135.4 89.65c-1.46.84-9.95 3.13-10.35 4.18-.4 1.04-1.96 4.52.33 4.79 2.3.27 9.58-.31 9.94-2.78.37-2.47 1.8-7.2.08-6.2Z"/><path fill="#9ECCED" d="M55.33 24.75s-.52-.94-2.44-2.65c-1.46-1.3-6.74-4.24-13.45-3.46-6.71.77-10.22 5.96-11.25 6.3-.35.12-.1-5.21-.1-5.21s.95-4.6 4.7-7.37c4-2.95 7.68-4.26 13.45-2.69 9.55 2.6 10.17 9.94 9.62 15.33l-.53-.26Z"/></svg>