<svg xmlns="http://www.w3.org/2000/svg" width="310" height="97" viewBox="0 0 310 97">
  <path fill="#153f7b" d="m307.76 48.87c-51.93-31.59-109.82-30.89-118.88-30.69-2.34-1.97-5.4-4.52-9.17-7.65-9.51-7.88-16.71-10.36-17.88-10.53-.68.63-4.27 5.35-8.57 10.37-4.9 5.71-10.1 11.37-10.1 11.37l2.36 2.5c-15.98 2.8-33.13 5.2-48.32 8.82-18.9 4.5-33 7.32-49.12 12.08-6.43-3.16-11.4-5.3-18.09-8.73-9.43-5.6-28.75-16.67-29.76-15.74-.92 1.46 1.2 11.2 2.2 35.17.05 10.92-2.74 39.81-1.32 40.2 1.71.63 29.91-18.74 45.14-30.74 8.3 2.62 18.92 5.59 29.56 7.67-1.88.87-3.48 1.57-3.83 1.9.13.7 2.57 4 4.54 8.4 2.1 4.72 4.13 9.75 4.53 10.13 6.28-2.17 20.47-10.37 24.78-14.01 21.01 4.92 38.75 7.78 60.46 9.4 85.22 6.34 124.35-15.29 141.42-32.45l.04-.04.54-.55c3.43-3.7.87-5.97-.54-6.89z"/>
</svg>