<svg viewBox="0 0 300 226" xmlns="http://www.w3.org/2000/svg">
  <path fill="#c58f79" d="m6.87 108.61c2.37-2.8 4.3-3.43 7.53-8.6 3.24-5.17 21.31-33.2 26.69-39.43s24.55-24.9 40.28-35.45c16.96-11.37 29.65-20.82 48.38-23.62s30.22-1.72 35.68 3.39c11.03 10.33 40.35 36.8 54.13 54.87 13.77 18.06 16.75 23.59 16.75 24.22 0 .64-2.38 5.25-2.38 5.25s1.73 1.5 4.73.86c3.01-.64 35.71-19.82 43.66-20.89 7.96-1.07 8.18 4.08 11.2 9.47 3 5.38 7.55 21.75 6.25 30.14-1.29 8.39-7.22 21.45-11.1 25.54-3.86 4.1-4.72 10.11-13.12 6.02-8.4-4.1-27-18.01-29.8-18.66s-7.75-1.3-9.9-.43c0 0 3.29 4.26 3.29 5.12 0 .87-7.8 23.48-18.13 37.89-10.33 14.4-30.35 40.64-34.44 44.52-4.08 3.87-27.14 16.13-33.15 16.78-6.01.64-13.98-1.3-34.43-11.18-20.44-9.89-57.25-29.9-61.77-32.68-4.51-2.8-10.2-8.45-17.23-16.1-3.55-3.87-9.45-9.07-17.42-17.46-7.96-8.39-10.12-12.47-15.71-14.4-5.6-1.95-5.81-1.95-6.67-6.67-.87-4.73 1.29-4.95 5.8-5.8 4.52-.87 6.68-1.09 6.68-1.09s-4.52-2.37-5.81-4.5c-1.3-2.15 0-7.1 0-7.1h.01z"/>
</svg>