<svg fill="none" viewBox="0 0 249 249" xmlns="http://www.w3.org/2000/svg"><path d="m157.3 113.25c-.03-.5-.14-2.29-.33-2.39-.38-.2-5.13.26-7.4.97-2 .64-3.14 1.28-4.73 1.85-1.42.5-2.87 1.03-4.51 1.21.24-.3 1.6-2.19 3.4-4.07 1.92-2.04 3.5-3.33 4.74-4.67.75-.8 1.52-1.75.9-2.23-.6-.48-1.67-1.3-2.83-2.2-1.5-1.16-1.56-.95-2.56-.12-1.01.84-2.88 2.91-3.4 3.47-2.11 2.29-4.3 4.66-5.87 7.48-1.2 2.13-2.95 3.04-5.53 2.83a15 15 0 0 0 -4.28.23c-5.3 1.16-8.34 4.06-9.29 8.85 0 0-.3 1.54-.46 2.08-.94 3.38-2.37 5.88-4.5 7.83-1.64 1.5-6.78 6.8-7.83 7.82-.78.75-3.2 2.66-3.55 2.96a27.43 27.43 0 0 1 -3.8 2.63 12.92 12.92 0 0 1 2.26-4.18c1.24-1.57 2.48-3.2 3.68-4.77 1-1.3 2.02-2.66 3.06-3.96a24.41 24.41 0 0 0 4.4-8.93c.91-3.5 1.58-7.3 2.03-11.58.3-2.83 1.51-4.61 4.1-5.98 4.06-2.15 8.07-4.55 11.94-6.9l1.44-.85c1.67-1 4.56-3.4 4.73-3.84.16-.43.12-.48-.27-1.08-.4-.6-1.83-2.87-2.25-2.77-.41.1-1.05.54-1.56.81-1.1.6-2.24 1.21-3.4 1.8-1.17.59-4.15 1.96-4.15 1.96l1.8-3.04c1.36-2.3 2.77-4.65 4.1-7 .93-1.31 1.88-3.76 1.84-4.2-.04-.45-3.18-1.68-3.97-2.06-.78-.38-1.2-.65-1.59-.62-.3.02-.84.8-.96 1.02l-1.46 2.43c-2.36 3.9-4.78 7.93-6.45 12.27-.32.82-.7 2.16-2.22 3.35-.11-2 .4-3.17.57-3.8.5-1.84 1-3.72 1.93-5.45a60.83 60.83 0 0 0 2.93-6.51 70.72 70.72 0 0 0 1.53-4.44c.2-.6.46-1.17.6-1.87.15-.7-5.51-1.77-5.98-1.25-.47.51-1.3 2.34-1.8 3.69-.56 1.5-1.13 3.08-2.31 4.42a8.8 8.8 0 0 1 -.34-3.07v-5.76c-.01-1.13.02-2.18-.65-2.44-.88-.13-4 .92-5.3 1.44-1.22.5-1.5.72-1.15 2.13.36 1.4 1.37 7.45 1.53 8.34.56 3.2.32 10.63.32 10.63-.05 1.7-.97 5.65-1.04 5.92-.65 2.87-5.52 7.96-6.07 8.4-2.88 2.24-4.3 5.34-4.31 9.46a55.76 55.76 0 0 0 .81 7.82c.5 2.77-.16 5.28-2.07 7.91-2.7 3.71-8.64 13.93-10.05 16.81-1.42 2.89-5.36 11.46-10.13 17.11a8.12 8.12 0 0 1 -1.3-2.81c-.47-2.04-1.01-4.35-1.7-6.56a8.76 8.76 0 0 1 -.22-4.16c.75-4.33 2.22-8.7 4.62-13.75.97-2.04 2.31-3.92 3.84-5.46a27.58 27.58 0 0 0 3.47-4.03c2.6-3.85 3.62-8.32 3.04-13.29-.22-1.93-.31-4.2.74-6.54 1.1-2.45 1.97-5.01 2.83-7.52a72.05 72.05 0 0 1 3.58-9.08 82.13 82.13 0 0 0 2.3-5.6c.43-1.14.86-2.5 1.24-3.72.38-1.2.49-2.4-.13-2.32-.5.05-5.66.66-6.07 1.06-.4.4-1.11 3.25-1.56 4.88-.76 2.83-1.56 5.74-3.45 8.32 0-.12-.43-2.08-.4-3.85.03-1.4.1-3.78.17-5.74.1-2.58.04-3.33-1.37-3.17-1.27.13-5.99 2.1-5.99 2.1-1.56.86-.9 1.35-.66 6.97.03.8.48 3.62.52 4.24.32 3.81-.12 7.67-.57 10.96-.5 3.84-1.48 7.76-5.15 10.4-.49.42-3.64 2.86-3.85 6.92-.1 1.97.25 3.58.64 5.29.65 2.8.41 5.66-.77 9.04a92.5 92.5 0 0 0 -3.96 15.9c-.04.16-.35.78-.42.92-.1-.19-1.29-3.35-1.56-4.23-.73-2.37-3.79-16.4-4.06-17.73-.5-2.58-1.24-5.27-3.15-7.53-1.75-2.08-5.15-6.28-5.24-6.39-.88-1.05-1.77-2.15-1.77-3.61 0-5.81-.7-10.61 2.36-15.98 3.44-6.08 4.36-13.52 4.75-15.77.4-2.25 2.97-5.71 4.2-9.1.95-2.66 1.98-5.9 2.16-6.73.19-.83.61-2.21-.3-2.17-1.09.05-5.2.2-5.67.53s-3.78 8.38-4.94 9.95c-.62-.27-.52-1.17-.5-1.8 0-.98-.21-5.64-.24-7.03-.04-1.58-.2-3.14-.37-4.6-.05-.37 0-.8-.42-1.03-.39-.2-1 .12-1.28.26-2.12 1.08-4.53 1.96-6.76 3.18-1.7.91-1.45 1.56-1.32 2.87l.73 7.04c.13 4.2.27 8.53-.25 12.8 0 0-1.09 8.73-1.04 12.8.04 2.25-.2 4.72-.71 7.78a21.88 21.88 0 0 0 -.05 7.48c.2 1.05.28 2.99.03 4.42-3.1-5.42-3.51-9.43-4.49-13.41-.73-3.08-1.1-6.1-3.96-9.52-2.65-3.18-5.47-11.1-5.98-12.42-.15-.39-.72-2.24-1.27-2.29-.56-.05-1.5 1.01-1.96 1.67-.97 1.33-4.06 5.66-4.59 6.61-.8 1.45.35 2.3 3.63 7.2.66.85 2.14 3.42 2.17 3.48.22.33.33.55.11.83a1896.7 1896.7 0 0 1 -10.05-7.7c-.64-.5-1.28-.7-1.88-.62-.53.08-1 .42-1.37.97a32.86 32.86 0 0 0 -2.2 4.08c-.19.4-.22 1.1.03 1.48.18.27 1.7 2.9 2.6 3.36 1.32.68 2.52 1.6 3.68 2.47.99.75 2 1.5 3.08 2.13 2.91 1.7 9.43 6.96 9.43 6.96.54.8 3.3 5.94 3.48 6.43.54 1.38 2.1 6.17 2.18 7.14v.07c0 1.75 0 7.69.45 10.4a7.98 7.98 0 0 0 3.17 5.48c2.79 1.98 5.6 3.74 9.22 3.44a7.8 7.8 0 0 1 5.81 2.07c1.48 1.27 6.66 8.21 6.88 8.52a14.8 14.8 0 0 1 2.74 6.08c.56 3.2.97 6.28 1.21 9.16.77 9-.23 17.7-1.5 27.32 0 .13-.12 1.68-.84 2.1-1.9-3.04-9.28-9.67-10.14-10.22-.46-.28-3.42-2.3-4.54-2.81-2.14-.97-3.84-2.55-5.34-4.97-.16-.25-1.24-2.1-1.75-2.69-2.49-2.98-3.2-6.54-2.18-10.94.86-3.69 1.5-6.68 2.03-9.4.44-2.25 1.88-6.27.85-6.52-.67-.17-2.15-.31-2.15-.31-1.93-.27-1.58.84-2.09 2.5-.57 1.89-.94 6.2-.94 6.28 0 .44-.03.56-.65 1-.05-.17-1.48-6.3-1.77-7.4-.5-1.99-2.03-4.72-3.15-4.56-.53.07-1.77 1.5-2.2 1.97-3.23 3.56-3.3 3.1.04 6.87 1.96 2.17 2.9 4.44 2.86 6.98-.02 1 .14 4.33.14 4.98 0 .37.12 1.96.09 2.15a9.42 9.42 0 0 1 -4.1-3.06c-.74-1.08-6.95-10.54-8.53-12.73-.2-.3-1.23-1.26-1.57-1.22-.27.04-.9.98-1.36 1.68-.4.67-.98 1.48-1.82 3.2-.06.12.02.34.2.55l1.86 2.22c.94 1.15 1.9 2.28 2.84 3.42.04.05.06.16.04.24 0 .02-.14.26-.3.27-.23-.07-5.41-2.64-6.48-3.1a7.78 7.78 0 0 0 -2.8-.6c-.53 0-1.39.42-1.55.88l-.27.82c-.5 1.4-1.01 4.35-.34 4.6.68.25 13.16 4.87 13.67 5.07 2.88 1.23 4.4 3.01 4.73 5.6a12.1 12.1 0 0 0 3.55 6.59c1.63 1.5 3.8 2.74 6.87 2.9 4.19-.28 8.2 1.5 8.7 1.82 6.08 3.85 11.32 8.61 14.9 14.6 1 1.69 2.03 3.1 3.13 4.3 1.91 2.07 6.5 6.59 6.5 6.59a26.07 26.07 0 0 1 5.32 7.03c2.16 4.43 3.36 8.17 3.76 11.77.12 1.19.52 2.34 1.33 3.8.1.15.3.37.56.38.21.01 5.45.3 5.69-.03.87-1.13 1.54-5.8 1.73-8.39.07-.88.67-4.25.93-5.44.3-1.44.62-2.93.9-4.4.77-4.15 2.01-7.39 3.9-10.17a252.9 252.9 0 0 0 6.12-11.25 8.17 8.17 0 0 1 3.36-3.46c.38-.2 3.46-1.97 4.65-2.55 3.27-1.59 5.47-3.5 6.9-6.01 1.1-1.9 1.97-3.66 2.7-5.4.45-1.07 3.84-4.66 5.53-5.82 1.7-1.17 6.89-4.76 7.17-5 2.37-2 4.47-6 4.5-6.4.05-.4-.83-1.2-1.65-1.67-.81-.47-3.03-1.82-3.44-1.43-.9.67-2.02 2.75-3 3.97-.57.69-3.9 5.06-4.68 5.9a6.15 6.15 0 0 1 -1.64 1.07c0-.14-.09-.68.02-1.5.11-.8 2.74-8.85 3.8-11.44.41-1.03.84-2.38 1.15-3.44.31-1.07-.63-.99-2.38-.8-1.28.12-3.72.3-4.8 1.27-.5.82-.51 3.06-.65 4.4a40.82 40.82 0 0 1 -1.69 8.68 6.23 6.23 0 0 1 -3.63 4.01c-2.18.9-3.98 1.6-5.62 2.21-1.87.67-5.08 1.72-6.4 3.17-2.59 2.83-3.62 6.4-4.2 11.24a11 11 0 0 1 -2.46 5.4c-1.48 1.89-6.88 9.39-8.6 10.72-.06-.14-1.06-2.2-1.58-6.12-.52-3.93-1.83-8.36-2.05-9.41-.72-3.49-.72-4.9-.08-10.46s5.42-12.8 8.2-15.85c2.33-2.55 4.9-4.94 7.38-7.26 1.27-1.2 17.1-14.87 18.46-16.53.62-.76 10.05-10.4 13.73-13.35 3.67-2.95 9.97-6.2 10.43-6.46 3.19-1.87 6.47-3.81 8.68-7 1.75-2.54 4.32-3.2 6.58-3.48 4.11-.35 6.6-1.55 8.42-1.83s1.72-.2 1.69-1.1c-.04-1.21-.06-2.83-.1-3.34v.01z" fill="#68b096"/><path d="m228.93 96.74c2.5-.76 9.17-2.31 11.96-.94s1.34 2.25.2 2.57c-1.2.33-4.69 1.21-.16 2.31 1.98.48 4.06 1.4 5.54 2.62.92.77.97 2.26-2.97 3.61s-8.54 1.92-12.01.44c-3.48-1.49-2.82-1.76-2.82-1.76z" fill="#f9c4aa"/><path d="m204.3 80.46c-5.16-8.39-5.91-10.19-8.79-17.2-1.8-4.39-4.74-9.39-7.52-12.06-4.12-3.95-6.02-5.82-10.77-6.86-2.7-.6-6.52 1.4-7.32 5.57-.8 4.16 3.22 8.37 4.45 9.44s3.82 2.8 8.5 10.3c3.65 5.84 3.3 6.45 8.86 18.67 2.72 5.54 5.02 7.9 9.75 10.52 5.06 2.8 12.4 5.68 27.91 9.26.25-2.21 1.06-12.94 1.06-12.94-18.28-5.35-23.92-11.1-26.13-14.7z" fill="#054449"/><path d="m140.69 241.41s-1.63 4.36-1.81 5.33c-.19.83-.6 1.13 2.4 1.16 0 0 17.75.28 18.96 0 .8-.19 1.8-1.3 1.26-6.23l-20.81-.25zm35.83.29s-.29 4.18.33 5.1c.62.9.99 1.5 6.44 1.2 0 0 15.37.27 15.86-.12.49-.4-2.31-6.48-2.31-6.48z" fill="#1e1a28"/><path d="m138.72 108.78c-.12 8.23-.98 51.16-1.1 55.8-.2 4.64-.31 44.1-.31 48.48s-.13 28.42.42 29.2c.56.79 23.49 1.37 24.66.53 1.16-.85 0-39.66.18-44.3.12-4.64.86-27.58.12-46.26-.74-18.69.6-22.15 1.04-22.15.43 0 .8-.92 2.53 16.73 1.72 17.64 5.22 49.72 5.96 57.5.74 7.83 2.77 38.22 3.57 38.54.8.33 22.5-.06 23.24-.32.73-.26-1.17-25.62-1.42-28.43-.24-2.8-5.16-65.14-5.4-68.47-.25-3.33-2.47-38.16-2.47-38.16s-25.94.06-28.15.26c-2.28.13-22.87 1.05-22.87 1.05z" fill="#153f7b"/><path d="m137.3 170.71 1.37-57.05 51.44-1.03 4.13 57.17-56.95.91z" fill="#cde5f2"/><path d="m189.5 98.03c.04 6.47.52 12.7.65 15.45 0 0-26.23 2.62-37.01 1.32 0 0-13.79-.62-14.5-.62 0 0 .17-11.35.15-17.81.1-9.86.3-18.23.56-25.29.26-7.05-.64-20.8 8.46-25.5 5.7-2.95 7.34-2.76 15.26-3.15 6.48-.26 15.67.73 19.4 4.2 4.78 4.37 5.35 13.8 6.02 22.83.44 10.2.76 20.08 1.02 28.57z" fill="#054449"/><path d="m138.63 115.72.23-25.44s4.97-.82 6.53-1.14c1.57-.33 1.83-43.7 1.83-43.7s2.29-.99 3.55-1.43c.32-.1 1.95 25.23 2.14 27.44 0 0 19.96-.46 20.87-.59 0 0 .47-21.59.6-22.95l.44-4.6s3.09.5 3.87.96 1.15 32.73 1.8 43.59c0 0-.38.16 2.08.3 1.64.03 6.83.4 6.83.4l.79 26.24z" fill="#cde5f2"/><path d="m244.1 93.47c-22.58-7.75-44.71-2.61-48.17-1.77l-4.16-2.17c-4.3-2.23-7.27-2.57-7.74-2.54-.21.3-1.19 2.42-2.41 4.7-1.4 2.61-2.92 5.22-2.92 5.22l1.12.76c-5.9 2.42-12.26 4.79-17.78 7.45-6.86 3.32-12.04 5.6-17.81 8.78-2.74-.67-4.82-1.07-7.67-1.83-4.1-1.36-12.43-3.98-12.74-3.54-.23.64 1.4 4.2 3.8 13.32.95 4.19 2.31 15.52 2.9 15.55.7.1 9.88-9.72 14.7-15.6 3.4.3 7.73.55 11.98.45-.64.5-1.2.9-1.3 1.05.1.26 1.32 1.32 2.44 2.84 1.2 1.64 2.4 3.4 2.6 3.52a47.14 47.14 0 0 0 8.31-7.47c8.47.12 15.51-.28 23.97-1.48 33.2-4.74 46.39-16.34 51.48-24.36l.01-.02.16-.26c1-1.7-.17-2.37-.78-2.6z" fill="#c58f79"/><path d="m141.64 113.69c2.17.72 7.68 2.98 9.05 5.36 1.38 2.38 1.4 3.1 1.01 7.78-.09 1.06-.82 2.47-4.3 1.45-3.46-1.03-7.04-2.94-8.85-5.75s-1.21-2.67-1.21-2.67z" fill="#f9c4aa"/><path d="m157.63 50.96c-.66-4.31-2.87-7.22-5.94-6.95-8.2 1.98-18.16 8.97-26.38 20.5-3 4.22-9.36 14.44-9.36 20.73.21 16.12 18.44 34.08 20.58 36.7l9.45-8.07c-.6-.36-5.18-5.61-8.55-10.04-4.7-8.75-7.71-14.66-7.71-18.6 2.92-11.1 9.21-16.08 20.88-23.03 0 0 4.05-2.24 5.74-4.9a8.02 8.02 0 0 0 1.3-6.34z" fill="#054449"/><path d="m146.89 67.12c.26-10.88.32-21.7.32-21.7s2.3-.99 3.55-1.42c.33-.11 1.96 25.22 2.15 27.43.2 2.21-6.28 6.36-6.02-4.3z" fill="#cde5f2"/><path d="m178.4 27.12c-.08-.45-.47-.68-.93-.88.2-3.57-.55-5.84-2.14-8.13-1.33-1.92-3.2-3.83-5.8-4.76-2.31-.83-7.98-.61-10.25.3-5.45 2.07-7.6 7.13-7.87 12.72-.47.12-.88.3-1.01.71a3.3 3.3 0 0 0 -.26 2.18c.18.63.59 1.03 1.4 1.57.22 2.6 1.04 5.09 2.39 7.15l.27.43c2.12 3.24 4.95 5.13 8.33 5.13h2.67c3.37 0 6.56-1.87 8.67-5.1l.84-1.27a15.42 15.42 0 0 0 2.36-6.66c.7-.35 1.08-.67 1.3-1.2.3-.75.24-1.44.03-2.2z" fill="#f9c4aa"/><path d="m182.12 21.54c-.7-2.75-3.89-4.15-3.89-4.15s1.97-2.4-.49-4.15-4.5-.74-4.5-.74.06-2.1-2.95-3.22a4.96 4.96 0 0 0 -4.93.55s-2.3-1.66-5.37-.55c-3.07 1.1-2.95 3.32-2.95 3.32s-4.78-.37-6.7 2.21a3.54 3.54 0 0 0 0 4.61s-3.28 1.11-3.28 3.88c0 2.76 3.28 3.96 3.28 3.96l.95-.87c.27-.05.53-.1.79-.17 4.1-1 7.39-3.12 9.27-5.64 3.4 3.12 8.39 4.9 13.61 4.7.51 1.2 1.41 2.45 2.92 2.45 4.76 0 4.82-3.95 4.24-6.18z" fill="#1e1a28"/></svg>