<svg xmlns="http://www.w3.org/2000/svg" width="216" height="248" viewBox="0 0 216 248">
  <path fill="#1e1a28" d="m65.06 241.34s-1.6 4.35-1.77 5.32c-.19.83-.58 1.13 2.34 1.16 0 0 17.33.28 18.51 0 .78-.19 1.76-1.3 1.23-6.23l-20.32-.25zm34.98.27s-.28 4.2.32 5.1c.61.91.97 1.5 6.3 1.2 0 0 15 .28 15.48-.11.48-.4-2.26-6.48-2.26-6.48l-19.84.3z"/>
  <path fill="#68b096" d="m63.36 108.74c-.12 8.23-1.19 51.15-1.3 55.79-.19 4.63-.3 44.09-.3 48.46 0 4.38-.13 28.41.41 29.2.54.78 22.93 1.36 24.07.52 1.14-.85 0-39.65.18-44.29.12-4.64.84-27.56.12-46.24s.59-22.14 1.01-22.14.79-.92 2.47 16.72c1.68 17.63 5.1 49.7 5.82 57.48.72 7.83 2.7 38.2 3.49 38.53.78.33 21.97-.06 22.69-.32s-1.15-25.6-1.38-28.42c-.24-2.8-5.05-65.12-5.29-68.45-.23-3.33-2.4-38.15-2.4-38.15s-25.33.07-27.49.26c-2.22.13-22.1 1.05-22.1 1.05z"/>
  <path fill="#054449" d="m112.72 98c.03 6.47.5 12.7.63 15.44 0 0-25.61 2.62-36.14 1.32 0 0-13.46-.62-14.16-.62 0 0 .17-11.35.16-17.8.09-9.86.28-18.23.53-25.28.26-7.05-.62-20.8 8.27-25.5 5.56-2.94 7.17-2.75 14.9-3.14 6.33-.26 15.3.73 18.95 4.19 4.66 4.37 5.22 13.8 5.87 22.83.42 10.2.74 20.07 1 28.56z"/>
  <path fill="#f9c4aa" d="m101.91 27.1c-.08-.43-.46-.67-.9-.87.18-3.56-.55-5.83-2.1-8.12-1.3-1.92-3.11-3.83-5.66-4.77-2.26-.82-7.79-.6-10.01.31-5.32 2.07-7.41 7.13-7.68 12.71-.46.12-.86.3-.99.71-.3.72-.44 1.4-.25 2.18.18.63.57 1.03 1.36 1.57.22 2.6 1.02 5.09 2.33 7.15l.28.43c2.06 3.24 4.82 5.12 8.13 5.12h2.6c3.29 0 6.4-1.87 8.47-5.08l.82-1.28a15.65 15.65 0 0 0 2.3-6.66c.68-.35 1.05-.67 1.28-1.2.29-.74.22-1.44.02-2.2z"/>
  <path fill="#1e1a28" d="m94.84 14.05a14.56 14.56 0 0 0 -4.27-1.66c.59-.3 1.1-.73 1.52-1.29l.32-.43c.5-.67.82-1.48.92-2.34l.09-.83a4.94 4.94 0 0 0 -.76-3.25l-.24-.37a3.03 3.03 0 0 0 -2.1-1.41 6.34 6.34 0 0 0 -3.8.25 4.59 4.59 0 0 0 -2.93 4.13l-.05.93a4.9 4.9 0 0 0 .92 3.17l.1.14c.4.52.84.94 1.34 1.23-3.24.57-6.47 2.53-8.17 5.08-2.7 4.6-2.24 5.3-2.58 8.02-.04.35.02.7.04 1.04.66.1 1.33.17 2 .17a12.6 12.6 0 0 0 11.45-7.68c1.92 4.78 6.4 8.23 11.4 7.47.31-.05.65-.15.96-.2.08-.65.06-1.2.06-1.87a12.19 12.19 0 0 0 -6.22-10.3z"/>
  <path fill="#f9c4aa" d="m65.99 113.65c2.1.72 7.49 2.98 8.83 5.36s1.37 3.1.99 7.78c-.09 1.06-.8 2.47-4.2 1.45-3.38-1.03-6.88-2.94-8.65-5.75-1.76-2.81-1.17-2.67-1.17-2.67z"/>
  <path fill="#054449" d="m81.6 50.94c-.64-4.3-2.8-7.21-5.8-6.94-8.02 1.97-17.73 8.96-25.76 20.5-2.93 4.2-9.14 14.43-9.14 20.71.2 16.11 18 34.07 20.1 36.7l9.22-8.07c-.59-.37-5.06-5.62-8.35-10.05-4.58-8.75-7.53-14.65-7.53-18.58 2.85-11.1 9-16.08 20.4-23.03 0 0 3.95-2.24 5.6-4.9a8.18 8.18 0 0 0 1.26-6.34z"/>
  <path fill="#f9c4aa" d="m160.08 66.18 4.12 7.76s-.43.57 3.27.08c3.7-.48 7.37-3.32 10.08-6.48 2.71-3.17 1.95-4.43.78-4.63-1.87-.3-4.1-.03-6.03.56-4.42 1.36-1.87-1.18-1-2.07.81-.86 1.63-2.36-1.43-2.12-3.07.24-8.01 4.96-9.78 6.9z"/>
  <path fill="#054449" d="m94.55 58.62c1.24 1.5 3.32 3.24 10.91 7.46 5.92 3.29 6.56 5.54 16.58 10.45 5.5 2.7 8.9 4.6 15.18 4.54 5.17-.05 16.55-1.12 28.4-4.53-.84-2.05-5.34-12.6-5.34-12.6-9.11 2.16-21.5 2.57-24.36 2.46-1.67-.06-5.56-1.8-7.41-2.86-7.52-5.02-8.2-6.17-14-10.86-3.64-2.93-7.66-6.5-11.29-7.73-2.62-.96-3.75-1.26-5.39-1.41s-5.53.58-6.63 5.64c-.96 4.41 2.1 7.94 3.35 9.44z"/>
  <path fill="#153f7b" d="m185.53 77.73c4.4.53 13.67 1.77 19.02-4.95 5.34-6.7 4.74-14.95 2.74-19.13-2-4.17-16.17-13.15-17.95-14.17-1.77-1.02-19.2-12.56-23.5-15.18-4.28-2.63-7.68-3.53-9.83-2.11-2.16 1.42-4.8 4.25-2.5 13.75s5.65 19.64 7.52 23.66c1.88 4.03 6.03 8.94 11.75 12.36 5.72 3.41 9.31 5.35 12.75 5.77zm-169.15 139.68c-2.47 3.31-11.67 15.98-13.53 19.22-1.86 3.24-2.4 4.83-1.19 7.05 1.22 2.21 3.35 3.75 5.44 3.9 2.1.17 5.37.77 14.23-.64 8.85-1.4 15.85-3.61 18.46-4.8 2.6-1.2 8.17-3.03 14.79-11.61 6.6-8.58 8.39-18.6 6.77-25.16-1.62-6.55-6.64-11.27-14.23-12.84-7.6-1.58-12.77 2.77-16.22 6.88a701.66 701.66 0 0 0 -14.52 18.01z"/>
</svg>