<svg viewBox="0 0 221 256" xmlns="http://www.w3.org/2000/svg">
  <path fill="#054449" d="m220.1 67.18c-.06-.7-.22-3.2-.47-3.34-.54-.28-7.18.37-10.35 1.36-2.82.88-4.4 1.78-6.63 2.58-1.99.71-4.02 1.45-6.31 1.7.34-.42 2.25-3.06 4.75-5.7 2.7-2.85 4.9-4.67 6.64-6.54 1.05-1.12 2.12-2.44 1.27-3.12-.85-.67-2.35-1.82-3.97-3.07-2.1-1.63-2.18-1.34-3.59-.17-1.4 1.17-4.02 4.06-4.74 4.85-2.96 3.2-6.02 6.53-8.22 10.47-1.67 2.99-4.13 4.26-7.73 3.97a20.98 20.98 0 0 0 -6 .3c-7.4 1.63-11.66 5.7-13 12.4 0 0-.42 2.16-.64 2.92-1.32 4.73-3.32 8.22-6.3 10.97-2.28 2.09-9.48 9.52-10.95 10.94-1.09 1.05-4.48 3.72-4.96 4.14a38.5 38.5 0 0 1 -5.33 3.68 18.08 18.08 0 0 1 3.16-5.84c1.74-2.2 3.48-4.48 5.15-6.69 1.4-1.82 2.83-3.72 4.28-5.54a34.18 34.18 0 0 0 6.15-12.5c1.3-4.9 2.23-10.21 2.85-16.2.43-3.97 2.12-6.47 5.74-8.39 5.68-3 11.3-6.37 16.7-9.65l2.02-1.2c2.34-1.4 6.38-4.76 6.62-5.37.23-.6.17-.67-.38-1.52-.56-.84-2.56-4.01-3.14-3.87s-1.47.75-2.19 1.13c-1.54.85-3.14 1.7-4.77 2.52-1.62.83-5.8 2.74-5.8 2.74l2.53-4.25c1.9-3.21 3.87-6.51 5.72-9.79 1.32-1.85 2.64-5.28 2.59-5.9-.06-.63-4.46-2.34-5.55-2.88-1.1-.53-1.68-.9-2.23-.87-.42.03-1.18 1.14-1.34 1.43-.67 1.14-1.36 2.28-2.05 3.4-3.3 5.47-6.69 11.1-9.03 17.19-.44 1.14-.97 3.02-3.1 4.68-.15-2.79.56-4.43.8-5.33.7-2.56 1.41-5.19 2.7-7.62 1.38-2.6 2.7-5.5 4.1-9.11.8-2.05 1.5-4.17 2.14-6.22.27-.85.65-1.63.85-2.6.2-.98-7.72-2.49-8.38-1.77s-1.83 3.28-2.52 5.17c-.78 2.12-1.58 4.32-3.23 6.2-.51-1.59-.49-2.97-.47-4.3v-8.07c-.02-1.59.02-3.06-.91-3.41-1.23-.19-5.6 1.28-7.41 2.01-1.72.7-2.12 1-1.62 2.98.5 1.97 1.92 10.43 2.14 11.67.78 4.48.45 14.9.45 14.9-.07 2.37-1.36 7.9-1.45 8.28-.91 4.02-7.73 11.15-8.5 11.75-4.03 3.14-6 7.49-6.03 13.26a82.22 82.22 0 0 0 1.14 10.94c.7 3.88-.23 7.4-2.9 11.08-3.79 5.19-12.08 19.5-14.07 23.53-1.97 4.04-7.49 16.04-14.17 23.96a11.37 11.37 0 0 1 -1.82-3.95c-.65-2.85-1.4-6.09-2.38-9.18a12.28 12.28 0 0 1 -.3-5.81c1.05-6.07 3.1-12.2 6.47-19.26a28.3 28.3 0 0 1 5.37-7.65c1.69-1.7 3.45-3.54 4.86-5.63 3.63-5.4 5.05-11.66 4.25-18.61-.31-2.7-.44-5.89 1.03-9.16 1.53-3.43 2.76-7.02 3.96-10.52 1.45-4.26 2.97-8.62 5.02-12.72 1.02-2.06 3.03-7.34 3.2-7.85.6-1.58 1.2-3.5 1.74-5.2.53-1.69.69-3.35-.18-3.25-.7.08-7.92.93-8.5 1.5-.56.56-1.55 4.54-2.17 6.82-1.07 3.96-2.19 8.04-4.84 11.66 0-.18-.6-2.92-.55-5.4.05-1.96.13-5.3.24-8.04.14-3.61.06-4.66-1.93-4.44-1.76.2-8.37 2.94-8.37 2.94-2.18 1.2-1.27 1.9-.93 9.77.05 1.11.67 5.06.74 5.92.44 5.35-.18 10.74-.8 15.36-.72 5.37-2.08 10.85-7.2 14.55-.7.59-5.1 4.01-5.4 9.7-.14 2.75.36 5.01.9 7.4.9 3.92.57 7.93-1.08 12.65a129.54 129.54 0 0 0 -5.54 22.26c-.05.23-.5 1.1-.58 1.3-.14-.27-1.81-4.7-2.19-5.93-1.02-3.32-5.3-22.96-5.68-24.83-.71-3.6-1.74-7.38-4.41-10.54-2.45-2.9-7.2-8.78-7.33-8.94-1.23-1.47-2.47-3-2.47-5.06 0-8.13-1-14.85 3.3-22.37 4.81-8.51 6.1-18.92 6.64-22.07.55-3.16 4.15-8 5.87-12.76 1.34-3.71 2.78-8.25 3.03-9.41.26-1.16.86-3.1-.42-3.03-1.52.07-7.27.27-7.93.74-.67.46-5.3 11.73-6.92 13.93-.87-.38-.72-1.65-.7-2.53 0-1.36-.29-7.88-.34-9.84-.04-2.2-.26-4.4-.5-6.44-.07-.51 0-1.1-.6-1.44-.53-.29-1.39.17-1.79.37-2.96 1.52-6.33 2.74-9.45 4.46-2.38 1.27-2.03 2.18-1.85 4l1.02 9.86c.18 5.88.38 11.94-.35 17.92 0 0-1.52 12.23-1.45 17.91.05 3.17-.29 6.62-1 10.9-.62 3.77-.65 7.2-.07 10.47.27 1.47.4 4.19.04 6.2-4.33-7.6-4.91-13.21-6.28-18.78-1.02-4.3-1.54-8.53-5.54-13.33-3.7-4.45-7.65-15.55-8.36-17.38-.21-.55-1.01-3.14-1.79-3.2-.78-.07-2.09 1.41-2.73 2.32-1.36 1.88-5.69 7.93-6.43 9.26-1.13 2.03.49 3.22 5.09 10.09.91 1.18 2.98 4.79 3.03 4.86.31.47.46.78.15 1.16a2612.7 2612.7 0 0 1 -14.06-10.78c-.9-.7-1.79-1-2.63-.87-.74.12-1.4.58-1.92 1.36a45.94 45.94 0 0 0 -3.07 5.7c-.27.57-.32 1.54.04 2.08.25.38 2.39 4.06 3.64 4.7 1.84.96 3.52 2.23 5.15 3.46 1.38 1.05 2.78 2.11 4.3 2.99 4.08 2.38 13.2 9.73 13.2 9.73.75 1.14 4.6 8.32 4.87 9 .76 1.94 2.94 8.65 3.05 10.01v.09c0 2.45 0 10.76.62 14.55.51 3.34 2.05 6 4.44 7.69 3.9 2.76 7.84 5.23 12.9 4.81 2.87-.22 5.62.74 8.13 2.9 2.08 1.78 9.32 11.5 9.63 11.92 2.07 2.9 3.34 5.69 3.83 8.51.78 4.49 1.36 8.8 1.7 12.84 1.06 12.6-.34 24.78-2.1 38.25-.02.17-.17 2.34-1.18 2.94-2.67-4.26-12.99-13.55-14.19-14.31-.65-.4-4.79-3.23-6.35-3.95-2.99-1.35-5.37-3.56-7.47-6.95-.23-.36-1.74-2.94-2.45-3.76-3.48-4.17-4.48-9.17-3.06-15.31 1.2-5.17 2.12-9.36 2.85-13.17.6-3.14 2.64-8.78 1.2-9.13-.95-.24-3.03-.44-3.03-.44-2.68-.37-2.2 1.19-2.91 3.5-.8 2.65-1.32 8.67-1.32 8.8 0 .61-.04.79-.91 1.39-.07-.23-2.07-8.8-2.47-10.34-.7-2.79-2.84-6.61-4.42-6.4-.73.1-2.47 2.1-3.07 2.76-4.52 4.98-4.6 4.35.06 9.63 2.74 3.03 4.06 6.22 4 9.76-.03 1.4.2 6.06.2 6.97 0 .52.16 2.75.11 3.01a13.16 13.16 0 0 1 -5.74-4.28c-1.02-1.51-9.71-14.75-11.92-17.83-.29-.42-1.72-1.76-2.2-1.7-.37.06-1.25 1.38-1.9 2.35-.56.94-1.37 2.08-2.54 4.49-.09.17.02.48.28.76l2.6 3.13c1.31 1.6 2.65 3.18 3.96 4.78.07.07.09.23.07.34 0 .02-.2.37-.42.38-.33-.1-7.58-3.7-9.07-4.35-1.16-.49-2.5-.78-3.93-.82-.73 0-1.93.58-2.16 1.22-.11.38-.24.76-.38 1.14-.7 1.96-1.41 6.1-.47 6.44.95.35 18.41 6.82 19.12 7.11 4.04 1.72 6.16 4.21 6.62 7.85.38 2.74 2.2 6.67 4.97 9.2a14.87 14.87 0 0 0 9.61 4.08c5.86-.4 11.48 2.1 12.17 2.54 8.51 5.4 15.84 12.06 20.84 20.44a35.74 35.74 0 0 0 4.39 6.01c2.67 2.9 9.1 9.23 9.1 9.23 3.42 3.39 5.8 6.53 7.44 9.85 3.02 6.2 4.7 11.43 5.25 16.47a13.7 13.7 0 0 0 1.88 5.33c.13.2.4.52.78.53.29.02 7.62.42 7.95-.04 1.23-1.59 2.16-8.12 2.43-11.75.09-1.23.94-5.95 1.3-7.62.42-2 .86-4.1 1.24-6.15 1.1-5.82 2.83-10.35 5.46-14.25 1.27-1.87 7.75-14.06 8.58-15.75a11.42 11.42 0 0 1 4.7-4.84c.53-.29 4.84-2.76 6.5-3.56 4.58-2.23 7.65-4.9 9.66-8.43a65.78 65.78 0 0 0 3.78-7.55c.63-1.5 5.37-6.52 7.74-8.16 2.36-1.63 9.63-6.65 10.03-6.98 3.31-2.81 6.25-8.41 6.3-8.97s-1.17-1.69-2.31-2.34c-1.15-.66-4.25-2.55-4.83-2-1.26.94-2.82 3.84-4.2 5.56-.78.96-5.44 7.09-6.54 8.25a8.58 8.58 0 0 1 -2.29 1.51c0-.2-.13-.96.03-2.1.15-1.13 3.83-12.4 5.3-16.02a54.08 54.08 0 0 0 1.63-4.82c.43-1.49-.9-1.38-3.34-1.13-1.79.18-5.2.44-6.73 1.8-.69 1.14-.7 4.28-.9 6.16a57.16 57.16 0 0 1 -2.36 12.14c-.94 2.74-2.58 4.6-5.08 5.62a208.96 208.96 0 0 1 -7.86 3.1c-2.61.93-7.12 2.4-8.96 4.43-3.61 3.97-5.06 8.96-5.88 15.74-.32 2.5-1.45 5.03-3.44 7.55-2.07 2.65-9.62 13.15-12.03 15.02-.09-.2-1.47-3.09-2.2-8.58-.73-5.5-2.56-11.7-2.88-13.17-1-4.88-1-6.85-.11-14.64.9-7.79 7.58-17.92 11.48-22.2 3.25-3.56 6.84-6.9 10.32-10.16 1.78-1.67 23.93-20.81 25.83-23.13.87-1.07 14.06-14.58 19.2-18.7 5.15-4.12 13.96-8.67 14.6-9.05 4.46-2.6 9.05-5.33 12.15-9.78 2.45-3.57 6.04-4.48 9.2-4.88 5.76-.5 9.24-2.17 11.79-2.56 2.55-.4 2.4-.3 2.36-1.53-.06-1.71-.08-3.98-.13-4.7l-.02.02z"/>
</svg>