<svg xmlns="http://www.w3.org/2000/svg" width="182" height="256" viewBox="0 0 182 256">
  <path fill="#153F7B" d="M92.08 47.25c-6.45 0-12.91-.18-19.37.04-6.6.24-12.9 1.87-18.47 5.66-3.54 2.41-6.29 5.6-6.9 10.02a15.5 15.5 0 0 0 3.64 12.62c2.55 2.96 6.88 2.92 10.58.15 1.7-1.26 3.23-2.73 4.93-3.99 5.48-4.08 11.46-6.53 18.45-5.15 3.54.7 6.76 2.15 9.48 4.63 2.21 2.02 2.68 4.48 1.88 7.26a17.9 17.9 0 0 1-5.77 8.66c-2.6 2.25-5.32 4.36-7.92 6.6-7.34 6.34-9.48 15.62-5.2 23.73 6.03 11.42 17.52 12.67 27.6 5.76 5.87-4.02 9.06-10.03 10.96-16.8 1.69-6.02 3.17-12.1 5.16-18a47.32 47.32 0 0 1 7.96-14.61c4.83-6.02 10.98-8.29 18.46-6.33 7.87 2.07 14.58 6.16 19.63 12.63 6.2 7.92 3.29 15.38-6.54 17.16-1.8.33-3.64.63-5.48.7-8.92.34-15.42 4.92-20.28 12.07a36.2 36.2 0 0 0-4.35 8.87c-1.8 5.47 1.51 10.17 7.24 10.79 4.94.54 9.73-.38 14.4-1.88 6.5-2.1 12.93-2.5 19.3.28a17.25 17.25 0 0 1 9.75 10.92c1.42 4.39-.06 8.26-4.3 9.82a68.38 68.38 0 0 1-12.39 3.06c-8.83 1.45-17.79 2.22-26.55 3.97-10.67 2.13-19.5 8.13-27.52 15.32-.86.78-1.56 1.84-2.09 2.88-2.2 4.37-.14 8.52 4.58 9.58 4.32.98 8.39-.13 12.42-1.39 4.8-1.49 9.57-2.56 14.48-.6 1.03.41 2.07.87 3.02 1.46 4.51 2.8 4.62 7.49.14 10.41-4.8 3.13-10.26 4-15.85 4.14-4.81.14-9.62-.03-14.44.15-5.04.19-10.02.98-14.21 4.12-8.75 6.54-11.67 15.52-9.94 26.06.95 5.77 2.71 11.39 3.8 17.13.46 2.42.47 5.05.12 7.5-.46 3.2-2.87 4.14-5.75 2.68-2.33-1.19-3.63-3.23-4.5-5.59-1.58-4.3-3.18-8.6-4.6-12.95-3.1-9.58-9.69-15.58-18.75-19.17-5.19-2.05-10.19-4.53-13.79-8.97a23.8 23.8 0 0 1-3.94-6.82c-2.02-5.57 1.86-10.58 8.15-11 2.42-.17 4.91-.18 7.22-.83 3.7-1.02 4.77-4.5 2.67-7.74-1.79-2.74-4.5-4.18-7.36-5.48-2.86-1.32-5.81-2.55-8.45-4.27-4.67-3.04-6.77-9.1-5.17-13.73 1.2-3.46 3.52-5.24 7.12-5.14 2.16.06 4.32.4 6.47.7 4.3.6 7.31-1.03 9.1-5 3.21-7.06 1.76-14.48-3.97-19.62-7.62-6.84-16.48-8.99-26.45-7.05a70.6 70.6 0 0 1-10.55 1.36C9.73 124.43.39 113.43 0 104.31c-.27-6.75 3.91-10.85 10.52-9.83 3.68.57 7.25 1.84 10.85 2.87 4.56 1.32 7.79-.94 10.62-4.06 2.68-2.95 3.67-6.4 1.66-10.08-1.39-2.54-3.15-4.88-4.84-7.23-2.58-3.6-5.61-6.95-7.8-10.76-4.05-7.02-2.03-17.53 3.85-22 3.57-2.73 7.75-3.74 12.11-4.44 3.22-.51 6.54-1.11 9.48-2.41 5.15-2.27 5.91-6.81 2.3-11.2-.16-.2-.33-.4-.53-.59-4.3-4.04-5.24-8.93-3.43-14.42 1.88-5.65 6.03-8.74 11.66-9.84C64.74-1.31 71.4 3.45 72.78 11.9c.8 4.94 2.59 9.31 6.35 12.73 5.36 4.84 12.35 5.16 18.02.63 2.58-2.06 4.82-4.6 7.54-6.43 2.99-2 6.24-3.68 9.55-5.05 3.86-1.6 7.66-.68 11.12 1.51 4.95 3.15 8.54 7.47 9.45 13.4 1.06 7.04-2.7 13.3-10.61 16.12-6 2.14-12.2 2.62-18.48 2.66-4.55.02-9.1 0-13.65 0v-.24h.01Z"/>
</svg>