<svg xmlns="http://www.w3.org/2000/svg" viewBox="0 0 276 202"><mask id="a" width="274" height="200" x="1" y="1" maskUnits="userSpaceOnUse" style="mask-type:luminance"><path fill="#fff" d="M270.31 177.49c-4.47-6.91-1.62-3.25 2.44-11.38 4.07-8.13 1.22-15.86-.81-16.67-2.03-.82-2.44-4.88 0-6.91 2.44-2.04 2.85-4.07 2.44-7.73-.41-3.66-1.63-6.5-4.88-10.57-3.26-4.06-1.22-10.16-1.22-10.16s4.07-5.3 2.44-11.39c-1.62-6.1-4.88-6.1-8.94-7.72-4.07-1.63-4.47-7.73-6.5-17.48-2.04-9.76 2.84-12.6 9.75-16.26 6.91-3.67-1.21-14.64-4.88-17.9-3.66-3.24-4.55-7.56 2.85-12.19 9.06-5.66 3.69-16.85-1.9-24.16-5.6-7.31-14.53-5.85-14.53-5.85-62.43 9.75-162.7 5.41-207.19.51C25.45.1 20.18 4.4 17.65 8.85c-4.56 8-11.2 17.86-2.14 23.52 7.4 4.63 6.5 8.95 2.85 12.2-2.55 2.26-7.25 8.26-7.56 12.93h-.02A51.9 51.9 0 0 1 8.5 68.13c-.4.81-2.84 5.68.82 11.38 3.66 5.7 4.06 7.73.81 9.76-3.25 2.03-8.94 16.26-2.03 22.76s7.73 4.47 8.13 10.17c.4 5.7.4 12.2-4.47 12.2-4.88 0-5.7 4.06-5.29 7.72.4 3.67-1.62 12.2-3.25 13.83-1.64 1.62-4.07 8.13 0 11.79 4.06 3.66 6.1 8.94 4.06 10.97-2.03 2.03-12.2 12.2 10.97 14.64 23.18 2.44 88.63 8.13 126.43 7.32 37.8-.8 116.83-3.5 125.22-8.94 8.38-5.45 4.88-7.32.4-14.23v-.01Z"/></mask><g mask="url(#a)"><path fill="#E1F0E0" d="M-4.96-4.63v210.2h283.3V-4.63H-4.96Z"/><path fill="#F9B0A0" d="M26.3 28.09c.33-.29.86-1.78.93-2.31a7.54 7.54 0 0 0-.64-2.82c-.31-.54-1.5-1.58-2.37-2.22-.88-.65-4.87-3.01-5.84-3.53-.44-.24-1.01-.4-1.01-.4s-.32-.08-.4-.16c-.1-.07-.13-.2-.57-.54-.31-.23-.45-.1-.58-.02-.3-.4-.46-.9-.14-1.5a2.7 2.7 0 0 1 2.08-1.34c1.43-.1 2.73.5 4.77 1.83.88.58 2.23 1.68 2.23 1.68l.21-.27c-.18-.15-.71-.66-1.7-1.37-.56-.4-1.23-1.07-3.1-1.85-1.34-.56-2.65-.74-3.95.1-1.21.78-1.24 1.89-.89 2.58-.28-.2-.61-.48-.64-.51-.05-.06-.88-.15-.98-.19-.1-.04-.1.35-.01.45.09.1 1.17.92 1.65 1.52-.3-.17-.7-.39-1.16-.67a2.86 2.86 0 0 1-1.3-3.29 3.59 3.59 0 0 1 2.42-2.64c1.42-.34 2.71.19 3.74.57 1.04.39 2.41 1.1 2.41 1.1l.16-.32s-.58-.5-2.75-1.34c-2.17-.84-3.42-.52-3.82-.4a4 4 0 0 0-2.4 2.11 3.73 3.73 0 0 0 .36 3.72c.65.88 2.48 1.67 2.9 1.87.19.15.34.23.5.35.27.2.25.44.4 1 .14.56 2.06 2.77 2.6 3.12.52.36 1.86.79 1.86.79-.33.13-.54.53-.6 1.1-.07.59-.43 1.02-.5 1.19-.07.17.02.4.14.45.13.04.87-1.16.92-.98.05.18-.03.3-.2 1.2-.15.89 0 1.1.07 1.29.07.19.3-.08.44-.14.14-.05.6-1.06.79-1.02.17.03.31.35.2.66-.1.3-2.04 1.02-2.25 1.06-.22.04-1.08-.78-1.54-1.01-.45-.24-2.58-1.36-2.78-1.12-.2.23.3 1.55.59 1.82a26.1 26.1 0 0 0 2.68 1.59c.81.42.9.44.95.61.05.18.68.25 1.46.24.77-.01 1.86-.37 2.71-.64.86-.27 1.63-1.14 1.96-1.42v.02Z"/><path fill="#004854" d="M25.64 65.49c.02-.06.09-.24.07-.26a3.08 3.08 0 0 0-.8-.24c-.23-.03-.38-.01-.57-.03-.16 0-.34-.02-.52-.08l.54-.26c.29-.13.5-.18.7-.26.1-.05.23-.11.2-.19l-.2-.35c-.1-.18-.12-.17-.26-.13-.14.04-.43.17-.5.2-.33.14-.66.28-.95.5-.22.17-.44.18-.7.04-.15-.08-.3-.15-.45-.18-.6-.12-1.04.04-1.36.49l-.14.19c-.25.3-.51.5-.82.6-.24.08-1 .39-1.16.44l-.5.14c-.18.05-.33.08-.52.1.16-.17.3-.26.42-.33l.6-.32c.16-.08.32-.18.5-.26.32-.18.6-.42.85-.72.25-.31.5-.67.73-1.1.16-.27.37-.4.7-.42.5-.04 1.03-.1 1.53-.16l.19-.02c.22-.03.62-.15.66-.18.04-.04.04-.05.02-.13-.01-.08-.06-.37-.1-.39l-.2.02a9.45 9.45 0 0 1-.95.04l.32-.23.74-.53c.16-.1.37-.3.39-.35.01-.04-.25-.31-.32-.38-.06-.08-.1-.13-.13-.14-.04-.01-.13.04-.15.06l-.26.19c-.42.29-.85.59-1.22.96-.07.07-.17.2-.38.24.08-.2.19-.3.24-.36.13-.17.27-.34.44-.47a8.1 8.1 0 0 0 .96-.92l.15-.16c.05-.06-.48-.43-.56-.4-.07.03-.24.18-.35.3-.12.13-.26.26-.44.34.02-.13.06-.23.1-.33l.27-.6c.05-.11.1-.22.05-.27a2.12 2.12 0 0 0-.61-.1c-.15 0-.19 0-.22.17l-.22.93c-.09.35-.45 1.1-.45 1.1-.08.18-.36.54-.38.57-.2.26-.93.56-1 .58-.4.1-.7.36-.88.78-.06.13-.15.41-.15.41l-.13.43c-.07.3-.26.53-.57.71-.45.26-1.52 1.04-1.8 1.27-.28.23-1.07.93-1.82 1.29a.81.81 0 0 1 0-.35c.04-.22.1-.49.12-.74.02-.15.08-.3.17-.44.27-.41.62-.8 1.1-1.2.2-.17.41-.3.64-.38.18-.07.37-.15.54-.26.44-.27.75-.69.92-1.22.07-.2.16-.44.38-.64s.43-.42.63-.64c.25-.26.5-.54.79-.76a7.82 7.82 0 0 0 .78-.8c.1-.1.16-.22.1-.24a3.7 3.7 0 0 0-.68-.17c-.06.03-.27.29-.38.43-.21.25-.42.52-.74.7 0-.02.05-.24.14-.42l.28-.58c.13-.26.15-.34 0-.39-.14-.04-.71-.05-.71-.05-.2.02-.16.1-.4.68a5.73 5.73 0 0 1-.7 1.56c-.23.37-.5.73-1 .83-.07.02-.5.13-.7.53-.1.2-.14.38-.19.57-.06.32-.21.6-.5.9-.4.43-.78.92-1.12 1.44l-.09.08.03-.5c.03-.29.36-1.86.4-2.01.07-.3.1-.6.02-.91l-.25-.9c-.04-.15-.08-.3-.02-.45.27-.6.41-1.12.97-1.53.63-.47 1.06-1.19 1.2-1.4.15-.22.57-.46.85-.75a8 8 0 0 0 .53-.59c.06-.07.16-.2.07-.23-.11-.05-.54-.22-.6-.2-.07 0-.78.68-.97.79-.05-.06 0-.14.03-.21l.3-.73c.07-.16.12-.33.17-.49.01-.03.04-.08 0-.12-.03-.04-.1-.03-.14-.03-.27.01-.56 0-.84.02-.22.02-.22.09-.27.23l-.24.75a9.6 9.6 0 0 1-.61 1.3s-.52.85-.7 1.27c-.1.24-.23.48-.42.77-.17.25-.29.5-.35.77-.03.11-.1.32-.2.45-.06-.7.07-1.13.16-1.58.07-.34.17-.67.03-1.15a6.13 6.13 0 0 1-.04-1.55c0-.05.03-.26-.03-.29-.05-.03-.2.04-.28.08l-.77.47c-.15.11-.07.26.04.9.04.12.07.45.07.46 0 .04 0 .08-.03.1l-.68-1.25c-.04-.08-.1-.13-.16-.15-.06-.02-.13 0-.19.03-.15.1-.28.21-.41.32-.04.03-.08.1-.06.15 0 .04.04.38.1.47.11.13.2.28.27.42l.22.36c.22.3.65 1.14.65 1.14.02.1.06.76.06.82 0 .17-.07.73-.1.83-.09.19-.36.8-.43 1.1a.9.9 0 0 0 .07.7c.2.33.4.65.8.78.2.08.38.23.5.47.08.2.3 1.15.3 1.2.06.27.07.52 0 .74-.08.35-.18.69-.29 1-.33.95-.83 1.8-1.4 2.73 0 .01-.09.17-.19.18a7.6 7.6 0 0 0-.57-1.52c-.04-.05-.25-.4-.34-.49-.17-.2-.28-.44-.32-.75 0-.03-.03-.28-.06-.36-.11-.42-.03-.82.28-1.22.26-.34.46-.62.64-.88.14-.2.48-.55.38-.63a2 2 0 0 0-.21-.13c-.19-.11-.2.02-.33.17-.14.16-.37.59-.38.6-.02.04-.03.05-.11.07l.15-.84c.04-.23 0-.58-.11-.61-.06-.02-.25.07-.32.1-.5.21-.48.16-.3.7.09.32.08.6-.03.85l-.21.52-.09.22c-.15-.16-.23-.3-.28-.5-.02-.14-.23-1.4-.29-1.69 0-.04-.07-.18-.1-.2-.03 0-.14.07-.22.11-.07.05-.17.11-.33.25-.02.01-.02.04 0 .06l.08.32.14.48v.02l-.04.02-.53-.61a.82.82 0 0 0-.26-.19c-.05-.02-.16-.02-.2.02a.35.35 0 0 1-.06.07c-.12.12-.3.4-.25.45l1.17 1.15c.24.26.31.5.23.79-.07.21-.06.56.06.83.1.23.26.46.57.61.45.16.77.53.81.58.45.68.77 1.4.86 2.18.02.21.07.41.12.58.1.3.37.97.37.97.14.36.2.67.22.97.02.55-.03.99-.16 1.37-.04.13-.05.27-.03.46l.03.06c.02 0 .55.27.6.25.13-.07.41-.52.55-.78l.35-.52.29-.4c.27-.4.54-.67.86-.87.16-.1 1.03-.78 1.15-.88.14-.11.3-.18.5-.2l.59-.05c.4-.01.72-.11.98-.3.2-.14.37-.29.53-.43.09-.1.6-.3.83-.35.23-.04.92-.17.96-.19.34-.1.74-.4.76-.45.02-.03-.03-.16-.1-.24-.06-.09-.22-.33-.28-.3-.13.02-.34.19-.5.27-.08.04-.62.34-.74.38a.77.77 0 0 1-.22.04c.01-.01.02-.07.07-.15a14.82 14.82 0 0 1 1.2-1.3c.07-.1-.02-.14-.22-.2-.13-.04-.4-.13-.55-.08-.08.06-.19.29-.26.42-.14.23-.32.54-.57.81a.7.7 0 0 1-.56.25c-.26 0-.48-.02-.68-.03-.22-.02-.6-.06-.8.03-.4.17-.66.5-.94.96-.1.18-.27.32-.5.45-.24.12-1.14.65-1.37.7 0-.01-.01-.26.11-.7.13-.42.2-.93.22-1.05.09-.39.15-.53.47-1.07a4.03 4.03 0 0 1 1.56-1.26c.35-.15.73-.28 1.09-.4.18-.06 2.43-.74 2.64-.86.1-.04 1.5-.6 2.02-.74.51-.13 1.3-.18 1.37-.18.41-.05.83-.1 1.2-.32.3-.18.6-.13.84-.06.44.16.75.14.95.2.2.05.18.05.22-.04l.14-.34.08-.04Z"/><path fill="#ACCD8E" d="m47.02 32.6-.21 1.33c.72-.23 1.46-.58 2.23-.69 1.55-.22 2.6.7 2.62 2.2a1.97 1.97 0 0 1-2.59 1.8c-1.27-.38-1.7-1.28-1.4-2.77-.88.31-1.41 1.66-1.56 3.99.67-.24 1.2-.63 1.93-.75 1.14-.18 2.23.02 2.89 1.17.47.82.42 2.21-.45 2.92-.8.65-2.2.6-3-.14A2.32 2.32 0 0 1 47 39.1l.17-.29c-.38.04-.87.6-1.01 1.12-.41 1.43-.6 2.73-.86 4.22a5.35 5.35 0 0 1 2.36-1.16c1.28-.2 2.4 0 3.15 1.2.53.84.4 1.94-.28 2.81-.43.55-1.56.94-2.53.6-1.34-.44-1.7-1.96-1.15-3.31-1 .58-1.5 1.43-1.7 2.46-.2 1.06-.35 2.12-.5 3.2-.08.44-.17.73-.76.64-.54-.1-.52-.42-.45-.82.16-.98.33-1.95.45-2.93.1-.76.14-1.54-.2-2.18-.22.61-.32 1.08-.67 1.5-.6.7-1.45.77-2.31.52-.86-.24-1.22-.91-1.32-1.71a2.26 2.26 0 0 1 1.52-2.48c.98-.3 2.34-.13 3.03 1.1l.36.72c.24-1.54.4-2.82.56-4.28.1-.86-.71-1.98-1.53-2.33.23.4.34.74.4 1.14.04.94-.38 1.56-1.1 2-.74.46-1.55.45-2.24.02-1.15-.72-1.3-2.05-.53-3.2.63-.92 1.87-1.2 3.06-.9 1.15.4 1.33.43 2.27 1.34.43-1.44.65-3.5-.04-4.35 0 .28-.03.44-.09.76-.22.84-.66 1.17-1.62 1.28-1.07.13-2.03-.4-2.27-1.3-.25-.9.03-2.08.97-2.54.97-.49 2.48-.12 3.27.83l.61.74.17-1.06c-1.41-.8-1.6-1.97-1.24-2.94.43-1.16 1.6-1.68 2.87-1.32 1 .27 1.65 1.3 1.51 2.4a2.23 2.23 0 0 1-2.3 2Z"/><path fill="#F8C758" d="M79.24 38.24c-.38 1.3-1.84 1.9-2.2 2.03-.38.12-.74.06-.92.6-.17.56-.08 1.46-.21 1.48-.04.05-.14.03-.24-.06-.09-.09-.18-1.15-.18-1.15-.06-.47-.32-.62-.5-.66l-.11-.02h-.05c-.71-.1-1.81-.07-2.23-.3-.56-.3-.92-.64-1.13-1.35-.12-.71-.18-1.07.06-1.53.25-.47.28-.44.55-.75a4.9 4.9 0 0 1 2.25-1.19 11.7 11.7 0 0 1 2.68-.31c.48.01 1.5.4 1.77.7.27.3.84 1.21.46 2.52v-.01Z"/><path fill="#004854" d="M79.83 22.44c-.26-.3-.57-.49-.99-.43l-.27.08c-.27.1-.54.2-.79.33-.44.25-.64.7-.86 1.13-.15.3-.19.63-.2.97l-.07 1.42-.02.7-.06 1.38v1.05c-.09.43-.26.82-.52 1.16a3.2 3.2 0 0 0-.62 1.36l-.03.19v.02c-.06.37-.16 1.17-.23 1.95l-.04-.27c-.13-.8-.17-1.63-.23-2.44a.95.95 0 0 1 .35-.78c.17-.15.33-.3.47-.46a.4.4 0 0 0 .1-.45c-.1-.26-.3-.36-.53-.44a.5.5 0 0 1-.23-.13.52.52 0 0 1-.02-.62c.17-.25.39-.46.6-.67.25-.23.5-.47.51-.82a1.78 1.78 0 0 0-.97-1.65 1.16 1.16 0 0 1-.62-.66c-.05-.13-.08-.34 0-.45.16-.23.36-.43.58-.6.3-.23.65-.41.8-.79.12-.33.24-.68.32-1.02.06-.25.09-.5.08-.75-.01-.25-.07-.5-.13-.73-.12-.38-.5-.82-1.03-.75-.43.05-.79.22-1.13.45-.47.31-.84.71-.98 1.28-.04.2-.06.42-.08.64-.03.37-.07.74-.07 1.1 0 .7.14 1.36.29 2.02.12.51.2 1.04.3 1.56l.03.15c.06.32.13.65.17.97.03.18 0 .37-.01.55 0 .1-.04.22-.05.34l-.06.01a8.29 8.29 0 0 1-.1-.37l-.32-1.4c-.1-.5-.18-1.02-.29-1.53l-.11-.46-.36-1.16c-.1-.3-.19-.6-.31-.9-.17-.39-.36-.76-.54-1.14-.26-.54-.52-1.1-.8-1.63-.34-.6-.7-1.2-1.06-1.78a8.95 8.95 0 0 0-1.36-1.64 1.9 1.9 0 0 0-1.43-.36 3 3 0 0 0-1.78 1.21c-.26.37-.4.72-.4 1.2 0 .19.01.3.04.45.03.17.09.35.17.5.1.2.2.44.38.57.28.22.6.4.92.56.2.1.42.14.63.21.53.2.72.66.49 1.16-.11.23-.23.44-.33.67-.15.33-.26.67-.08 1.02.12.22.23.46.54.48.12 0 .24.02.37 0 .56-.07 1.1-.15 1.67-.2.54-.06.96.5.86 1.01-.06.3-.24.5-.41.73-.2.25-.3.52-.25.83.03.17.1.33.18.5.09.21.27.35.5.4.1.02.2 0 .29-.01.24-.04.47-.12.71-.12.33 0 .5.08.59.33.1.27.19.54-.08.78-.16.14-.3.3-.45.47a.97.97 0 0 0-.18 1c.2.47.6.76 1.07.9.31.08.65.07.97.12.33.04.62.16.8.44.26.38.35.81.43 1.25l.16 1.13a6.13 6.13 0 0 0-1.68-2.1l-.03-.03a3.63 3.63 0 0 0-1.08-.57 2.75 2.75 0 0 1-1.61-1.4l-.4-.83a.96.96 0 0 0-.77-.53c-.4-.05-.65.15-.84.48-.18.31-.21.79.07 1.1.2.21.45.3.7.4.2.07.44.17.51.4.1.3.08.6-.15.87-.13.16-.24.32-.35.49-.09.15-.04.3.09.4.23.22.53.3.83.27.45-.03.85-.26 1.27-.4.2-.08.42-.13.63-.15.2-.03.34.1.35.28 0 .08 0 .17-.02.27-.04.23-.02.31.2.36.14.03.3.03.44-.01.29-.09.52-.1.78.1.42.34.62.8.79 1.27.1.32.11.67.16 1v.09c.42-.09.85-.16 1.23-.2a.19.19 0 0 1-.02-.06c-.04-.2-.1-.4-.11-.6a7.42 7.42 0 0 1-.02-1.11c.03-.4.24-.7.57-.91.14-.09.26-.18.38-.28.1-.08.1-.21.05-.33-.03-.1-.13-.13-.24-.14-.21 0-.3-.13-.26-.33.09-.43.41-.66.78-.8.24-.1.47-.18.64-.4.2-.25.22-.33.04-.59-.15-.21-.12-.37.1-.48.17-.1.35-.13.51-.23.14-.08.3-.17.4-.3.15-.2.07-.5-.12-.7-.25-.27-.25-.52.01-.7.2-.13.42-.24.64-.37.2-.1.4-.22.44-.48a.7.7 0 0 0-.38-.74c-.18-.11-.34-.28-.49-.45-.15-.17-.1-.46.06-.6.23-.18.46-.36.7-.5.3-.15.48-.36.53-.65.05-.31.02-.63-.2-.9l-.02-.03Z"/><path fill="#78361C" d="M100.39 35.13a1.58 1.58 0 0 1-.3-1.1c0-.13.02-.37-.06-.5-1-1.45-2.7-3.8-3.56-5.22-.18-.38-.1-1.3 0-1.56.07-.3.2-.6.4-.77.39-.35 2.95-2.08 3.47-2.33 3.3-2.06 9-5.9 11.7-8.9.58-.57.99-1 .99-1-.54-.75-.49-1.35-.49-1.35.7-.33 1.16.15 1.16.15-.19-.86.4-1.31.42-1.29.42.2.73.8.8 1.13.08.07.25.13.66.18.77.1.95.42 1.08.53.14.12 2.45 1.06 2.77 1.12.5.1.89.58.68 1.03-.25.6-.4.54-.79.78-.39.23-.4.15-.56.14-.17-.02-.15-.02-.33.1l-2.06 1.15c-.68.38-.85.74-.98 1.23-.25.83.33 1.83.5 2.94.12.4.23 1.19-.12 1.76l1.93 3.46c.24.31.6.55.97.92l.38.52c.05.06.04.11-.01.14l-.97.7c-.05.05-.1 0-.13-.01-.7-.61-.9-.96-1.78-2.09l-1.18-1.5-.41-.07c.17.55.52 1.34.62 1.5.35.57 1.31 1.84 1.8 2.23l.3.42c.03.04.04.08 0 .1l-1 .73c-.04.03-.09.03-.12 0-.05-.04-.33-.3-.5-.48-.04-.03-1.06-1.35-1.06-1.35-.28-.4-1.17-1.67-1.86-2.52a89.15 89.15 0 0 1-6.63 4.89c.33.7.04 1.66-.7 2.32.7 1 1.25 1.65 2.03 2.3.3.18.6.57.65.63.03.04.08.1.03.13l-.98.71c-.06.05-.1.04-.15 0-.36-.35-1.12-1.11-1.62-1.49-.43-.35-.8-.88-1.29-1.36l-.21.4c.1.35.24.76.32.93.33.64 1.05 1.8 1.62 2.32.03.04.08.11 0 .16l-.92.68c-.09.06-.15 0-.18-.04-.78-.61-1.6-2.28-2.33-3.36-.5-.56-1.95-2.61-2.42-3.27-.78-.99-1.2-1.42-2.37-2.92l1.3 2.25a34.5 34.5 0 0 0 1.77 2.37c.34.22.6.59.7.99v.01c.07.35.03.72-.12 1.04a1.6 1.6 0 0 1-.86-.6v-.01Z"/><path fill="#87C2EA" d="m65.78 53.98.82 1.52c.87 1.7 1.8 3.36 2.61 5.07.71 1.45 1.3 2.97 1.54 4.6.13.84.11 1.7-.05 2.55a3.67 3.67 0 0 1-1.96 2.62c-1.7.94-3.4.96-5.1-.02a5.15 5.15 0 0 1-1.7-1.35c-.53-.7-.82-1.5-.87-2.39-.06-1.49.32-2.89.71-4.3.25-.9.66-1.7 1.05-2.54.81-1.67 1.67-3.32 2.49-4.99.13-.2.26-.42.45-.78h.01Z"/><path fill="#F9B0A0" d="M41.07 81.62c-3.5.97-6.25-1.53-6.72-4.83a5.5 5.5 0 0 1 4.97-6.17c2.77-.37 5.45 1.6 6.08 4.52.73 3.38-1.36 5.86-4.33 6.48Z"/><path fill="#FBF6F3" d="M37.75 72.72a.5.5 0 1 0-.22-.98.5.5 0 0 0 .22.98Zm-1.2 1.05a.5.5 0 1 0-.22-.98.5.5 0 0 0 .23.98Zm-.86 1.48a.5.5 0 1 0-.23-.97.5.5 0 0 0 .23.97Zm1.29-.45a.5.5 0 1 0 .97-.22.5.5 0 0 0-.97.22Zm2.6 1a.5.5 0 1 0-.22-.97.5.5 0 0 0 .22.97Zm1.34-.7a.5.5 0 1 0 .23.98.5.5 0 0 0-.23-.97Zm1.1-.33a.5.5 0 1 0 .99-.23.5.5 0 0 0-.98.23Zm1.47-.47a.5.5 0 1 0 .98-.22.5.5 0 0 0-.98.22Zm-7.48 2.76a.5.5 0 1 0-.22-.98.5.5 0 0 0 .22.98Zm.26.92a.5.5 0 1 0-.97.22.5.5 0 0 0 .97-.22Zm1.23.5a.5.5 0 1 0-.23-.98.5.5 0 0 0 .23.98Zm2.04.3a.5.5 0 1 0-.98.23.5.5 0 0 0 .98-.22Zm-2.8.21a.5.5 0 1 0 .22.98.5.5 0 0 0-.22-.98Zm1.24 1a.5.5 0 1 0 .22.98.5.5 0 0 0-.22-.98Zm3.41-1a.5.5 0 1 0-.97.22.5.5 0 0 0 .97-.22Zm-1.66 1.25a.5.5 0 1 0 .22.98.5.5 0 0 0-.22-.98Zm1.85-.3a.5.5 0 1 0 .23.97.5.5 0 0 0-.23-.97Zm1.46-.92a.5.5 0 1 0 .22.97.5.5 0 0 0-.22-.97Zm0-1.26a.5.5 0 1 0-.97.22.5.5 0 0 0 .98-.22Zm.93-.18a.5.5 0 1 0 .23.97.5.5 0 0 0-.23-.97Zm-6.13-1.78a.5.5 0 1 0 .22.98.5.5 0 0 0-.22-.98Zm1.6.76a.5.5 0 1 0 .22.98.5.5 0 0 0-.22-.98Zm1.61.26a.5.5 0 1 0 .23.97.5.5 0 0 0-.23-.97Zm2.36-.74a.5.5 0 1 0-.98.22.5.5 0 0 0 .98-.22Zm.95-.36a.5.5 0 1 0 .22.98.5.5 0 0 0-.22-.98Zm-4.78-3.63a.5.5 0 1 0-.23-.98.5.5 0 0 0 .23.98Zm-.4 1.7a.5.5 0 1 0-.21-.97.5.5 0 0 0 .22.98Zm2.2-1.43a.5.5 0 1 0-.22-.98.5.5 0 0 0 .23.98Zm1.6.87a.5.5 0 1 0-.22-.97.5.5 0 0 0 .22.97Zm-1.85.97a.5.5 0 1 0-.23-.97.5.5 0 0 0 .23.97Z"/><path fill="#004854" d="M46.37 89.03a6.33 6.33 0 0 1-3.07 1.85 6.3 6.3 0 0 1-3.57-.31c-1.46-.58-2.6-1.67-2.67-3.04 1.86-.41 3.8-.16 5.01 1.16.16.18.31.38.51.63l-.57-2.49c-2.87.18-5.3-1.29-5.49-3.43 2.03-.54 3.92-.17 5.14 1.72l-.6-2.58v-.06l.28-.07.27-.05c.02 0 .03.03.04.05l.6 2.58c.27-2.23 1.8-3.4 3.86-3.8.77 2-.77 4.4-3.43 5.49l.58 2.48c.07-.31.12-.55.19-.79.51-1.73 2.14-2.79 3.99-3.24.54 1.26 0 2.74-1.07 3.9Z"/><path fill="#B7856E" d="M70.92 108.12c-.16-.19-.4-.68-.63-.98a5.84 5.84 0 0 0-1.65-1.26c-1.37-.55-1.91-.84-2.65-1.77-.14-.17-.12-.14-.34-.25-.22-.1-.53.02-1.08-.03s-1.78-.37-2.89-.7a4.54 4.54 0 0 1-2.51-1.55c-.7-.75-.58-1.48-.54-1.8.03-.33.22-1.1.58-.93.34.17.23.4.21.79-.01.38.35.86.87 1.33.67.6 1.25.73 1.95 1.02.7.3 1.95.47 2.34.51.38.04.55-.06.75-.39 1.28-2.46 2.9-5.46 4.04-8h-.02c.28-.66-.11-2.08-.18-2.32-.08-.23-.6-1.4-.66-1.53-.06-.12-.11-.34-.46-.7-.34-.35-.8-.93-.7-1 .3-.18.88.02.88.02-.35-.33-.31-.66-.27-.7.03-.01.47.16.65.31.12 0 .83-.73 1-.82.17-.08.45-.02.6-.02.17-.02.53-.4.69-.44.15-.04.35.14.47.23.11.08.19.26.4.58.2.32-.16.74-.22.88-.07.14.3.75.44 1.02.63.73 2.55 2.8 3.62 3.96.56.24 3.3 1.14 3.47 1.15.18.02.8-.08.93-.13.07-.02.27-.15.49-.02.21.12.29.26.26.33l-.25.53c-.08.16-.24.15-.4.2-.17.05-.8.21-1.05.23l-3.67.09 1.62 1.62c.26.27.87 1.53 1.09 1.75.11.17.4.27.34.52l-.15.31c-.03.07-.3.21-.44.18-.58-.02-.84-.97-1.19-1.38-.23-.33-.3-.44-.4-.48-.14-.08-1.53-.61-2.26-.9l-1.6 3.19c.34.34.77.75 1.06 1 .25.24.74.7.94.85.26.2.36.27.57.2.2-.07 1.29-.48 1.37-.55.21-.16.4-.22.6-.14.2.1.3.27.23.4l-.24.52c-.06.12-.36.23-.81.45-.4.2-1.82.86-2.13.84-.3-.02-.58-.27-.85-.35-.2-.06-.99-.2-1.69-.31l.42.78c.34.66.26 1.81.29 2.25.03.46.18.73.47.79.23.04 1.06.24 1.15.23.1 0 .2-.1.4-.08.21.04.43.2.4.4l-.32.71c-.08.16-.55.1-.78.07-.27-.03-2.24-.3-2.54-.69l-.02-.02Z"/><path fill="#78361C" d="M48.88 113.57a9.09 9.09 0 0 1-.18 2.52c-.13.62-.36 1.91-.8 2.78l-.05 1.8c-.02.25-.49 2.6-.52 2.74-.01.04-.03.06-.05.06h-.92s-.05-.03-.04-.08c.03-.25.31-2.18.27-2.48-.02-.2-.57-1.43-.57-1.43h-.15l.04 1.3c0 .07-.4 2.59-.42 2.63 0 .03-.01.06-.07.06h-.88s-.04-.02-.04-.05c0 0 .24-2.13.23-2.45-.02-.18-.57-1.49-.57-1.49h-8.25l-.27 2.54a41.8 41.8 0 0 1-.16 1.4c0 .05-.03.06-.06.06h-.89c-.03 0-.04-.03-.04-.09 0-.3.08-1.2.06-1.69-.02-.4-.29-2.22-.29-2.22l-.28-.01-.25 3.94c0 .04-.02.07-.06.07h-.92c-.04 0-.04-.03-.04-.08.02-.28.09-1.2.07-1.7-.01-.26-.4-2.5-.4-2.5-.08-.1-.2-.19-.33-.27-.4-.24-.8-.52-1.12-.87a7.26 7.26 0 0 1-1.63-3.45c-.19-.86-.3-1.73-.45-2.6-.07-.38-.22-.48-.6-.39-.58.12-1.14.27-1.7.4-.1.03-.22 0-.3 0a1.58 1.58 0 0 1-.65-.28.47.47 0 0 1-.16-.32 1.6 1.6 0 0 1 .32-1.14l1.5-1.78a3.47 3.47 0 0 1 1.83-1.13.67.67 0 0 0 .23-.12 2.06 2.06 0 0 1 1.18-1.27l.04.06c.22.37.31.8.28 1.21.92.68 1.84 1.36 2.76 2.02.12.08.3.15.44.14l3.44-.14c2.37-.08 4.74-.2 7.11-.22 1.9-.01 3.1.63 3.91 2.37.27.56.37 1.36.4 2.16Z"/><path fill="#1D1511" d="M19.42 131.54c.1.04.16.09.25.14 2.18 1.3 5.8 3.45 6.55 3.92.76.5.77.33.89 1.45.05.55.6 1.29 1.29 1.8 2.97 2.19 5.83 3.74 9.3 5.92.78.44 1.53.97 2.3 1.44.77.47.82 1.46.13 2.01-.44.35-1.03.36-1.53-.05-1.11-.9-2.24-1.8-3.33-2.74a110.56 110.56 0 0 0-7.54-5.63c-.75-.51-1.62-.7-2.16-.55-.95.26-.9.2-1.52-.26-.73-.54-1.7-1.36-2.5-2.02l-3.5-2.86a7.96 7.96 0 0 0-.27-.21l.14-.2c.14.07.26.16.4.25l4.76 3.4c.24.17.47.22.56.1.08-.11-.02-.32-.3-.5l-4.77-3.52a3.1 3.1 0 0 1-.3-.24l.15-.22.36.22 4.81 3.32c.34.24.52.23.6.12.07-.1 0-.27-.3-.49l-4.82-3.45-.29-.22.16-.23.34.21 3.55 2.36c.53.35 1 .72 1.54 1.06.1.07.33.06.4-.04s0-.3-.24-.46l-4.77-3.29-.47-.33.14-.2v-.01Z"/><path fill="#9BCAB9" d="m109.12 101.32-2.28-1c-2.41-1.08-4.79-2.23-6.81-3.97-.5-.42-.92-.9-1.26-1.48-.35-.59-.39-1-.1-1.45.3-.45.79-.53 1.53-.43.73.1 2.24.84 3.3 1.5 2.25 1.4 4.31 2.97 6.56 4.43-.86-.86-1.7-1.62-2.52-2.5a85.93 85.93 0 0 1-3.76-4.32 6.54 6.54 0 0 1-1.17-2.01c-.11-.32-.28-1.07.18-1.53.26-.24.75-.2 1.08-.1 2.65.84 4.36 2.9 5.9 5.09 1.69 2.4 4.37 6.47 4.3 8.7a3.7 3.7 0 0 1-1.08 2.25c-.63.48-2.28 1.08-3.4 1.38-3.36.91-6.78 1.78-10.27 1.7-.64.01-2.13-.16-2.47-.96-.26-.6.1-1.02.58-1.34a9.61 9.61 0 0 1 4.21-1.25c1.61-.17 3.92-.33 5.54-.58-1.25-.17-3.19-.27-4.42-.5-2.12-.4-4.31-.48-6.03-1.92-.37-.32-.8-1.21-.6-1.78.18-.57.85-.71 1.57-.77.73-.05 3.12.38 4.73.8 2.15.56 6.51 2.05 6.68 2.04Z"/><path fill="#004854" d="M75.54 144.7c.3-1.01.9-3.33.53-4.68-.38-1.35-2.31-2.55-2.82-2.86-.5-.31-1.12-.55-1.04-1.22.08-.68.52-1.83.62-2.1.16-.41.63-.08.74-.18.08-.08.75-1.47.45-1.59-.79-.32-1.77-.6-1.73-.71.04-.11.62-1.85.73-1.98.1-.12.39-.21.82-.06.9.31 1.9.89 2.37.98.52.1.91.03 1.15-.62.26-.7-.23-1.22-1.05-1.4-.82-.18-1.22-.1-1.82-.34-.5-.2-.6-.48-.8-.69a1.76 1.76 0 0 0-1.59-.45c-.58.12-1.06-.1-1.17-.14-.1-.04-.56-.22-1.03-.56-.65-.47-1.73-.9-2.13.2-.4 1.1.66 1.37 1.29 1.42.61.05 1.19.2 1.63.42.4.2.68.4.63.62a12.5 12.5 0 0 1-.74 2c-.1.03-1.63-.6-1.85-.5-.22.1-.55 1.31-.49 1.38.08.1.6.2.47.49-.07.13-.74 2.02-.94 2.18-.2.15-.64.3-1.12.1-.46-.2-.6-.2-.6-.34-.03-.14.09-.22-.4-.36-.5-.15-6.37-2.03-6.68-1.93-.31.1-1.48 3.82-1.44 3.98.05.15 1.6.85 2.68 1.26 1.09.4 3.67 1.3 4.02 1.4.6.15.54-.38 1.22-.1.43.2 1.72 1.07 2.8 1.43 1.07.37 2.33.5 2.91.48.58-.02 1.13.38 1.25.56.12.18.48.42.3 1.32-.18.9-.5 1.81-.4 1.93.1.12.92.66 2.07.83 1.14.18 1.1.05 1.17-.18Z"/><path fill="#003273" d="M95.58 73.89c-.18-.03-.3.01-.85-.87L86.9 61.18c-.06-.1-.04-.22.08-.3l5.51-3.64c.13-.08.2-.08.37.16.18.23 7.6 11.25 7.83 11.6.22.36.55.82.57 1l-5.7 3.9v-.01Z"/><path fill="#003273" d="m88.4 59.95-1.33-1.98-.2.14c-.05.04-.1 0-.16-.1a74.5 74.5 0 0 0-1.2-1.83c-.02-.02-1.3.87-1.34.87-.04 0-.46-.64-.46-.68 0-.04 4.34-2.94 4.46-3.01.1-.06.15.04.2.12.03.05 1.53 2.4 1.58 2.45.04.06 0 .1-.02.12l-.18.12 1.35 2-2.68 1.78h-.01Z"/><path fill="#F9B0A0" d="M110.6 123.3c.37.22.72.48 1.12.19.3-.18.36-.45.23-.76-.18-.4-.46-.5-1.06-.36-.05-.28.19-.4.33-.56-.33-.1-.74.14-.77.5 0 .44-.3.81-.38 1.21-3.38-.18-6.2 2-8.88 3.8-2.01 1.47-4.03 3.17-5.2 5.41-.57 1.21-1.04 2.2-1.27 3.55a3.04 3.04 0 0 0-3.01.64c.03.07.08.14.12.2a3.02 3.02 0 0 0 2.72 1.35c-.16.83.52 2.11-.49 2.44-.64.27-.44.5.07.91.37.3 1.05.6 1.67.36 1.49-.46 3.03-1.4 4.4-2.14 0 0 2.01 1.94 2.23 2.28.1.14.4.84.46 1 .03.08.09.1.12.08.03-.02.76-.47.88-.53.08-.05.08-.1.06-.13l-1.47-4.04.12-.08s2.23 1.63 2.42 1.85c.13.14.72 1.14.75 1.19.03.04.07.03.08.03l.87-.52c.05-.03.05-.06.04-.11-.2-.86-1.47-3.15-1.83-3.85 1.89-1.1 3.15-1.8 5.33-3.2 0 0 1.95 1.94 2.11 2.23.06.11.47 1.07.48 1.12.02.05.06.08.1.06l.94-.56c.04-.03.06-.08.04-.15-.34-1.09-1.06-3.01-1.53-3.95h.23s1.63 1.37 1.84 1.73c.08.13.52 1.11.67 1.45.03.08.1.1.15.07l.92-.55c.05-.02.06-.07.05-.11-.45-1.61-1.21-3.75-1.57-5.28v-.33a5.68 5.68 0 0 0-4-6.02c-.2-.06-.22-.23-.07-.43h-.01Zm.32-.5c.27-.16.72-.14.6.28-.2.32-.57.05-.6-.27Z"/><path fill="#1D1511" d="m155.25 38.41-.7-.34c-.12.52-.27.8-.47 1.17l-.18.36a3.1 3.1 0 0 1-.45.73l.7.34c-.08.2-.12.33-.1.34l.5.24c.06.03.42-.6.8-1.4.4-.79.67-1.46.61-1.49l-.5-.24s-.1.1-.21.29Z"/><path fill="#9BCAB9" d="M153.44 40.33c-.2.13-1 .68-1.15.76-.16.09-.37.06-.58-.03-.21-.1-13.36-6-15.78-6.43 0 0-.87-.44-.88-.5 0-.04 1.41-2.68 1.83-3.53.41-.84 1.74-3.62 1.78-3.65.04-.02.53.23.91.44.2.14 3.91 2.73 7.88 5 3.96 2.27 6.34 3.7 6.54 3.8.2.12.41.22.48.52.07.3.07 1.37.07 1.37-.11.52-.27.8-.46 1.17-.2.37-.5 1-.64 1.08Z"/><path fill="#ACCD8E" d="M136.49 61.46c.14-.37-.89-1.9-1.5-2.6-.62-.69-1.51-1.25-1.93-1-.43.25-.23.95-.58 1.03-.3.06-.81-.63-.6-1.52.2-.9.57-1.02.27-2.2-.27-1.06-.87-1.45-1.7-1.51-.47-.04-1.1.1-1.45.67-.2.31-.2.91-.47.84-.67-.18-.83-.93-.75-1.53.08-.6.24-1.38-.56-2.54-.8-1.16-1.75-1.43-2.39-1.3-.64.12-1.03.46-1.3 1.16-.37 1-.92 1.14-1.3.98-.26-.11-.44-.36-.34-1.14.06-.5-.5-1.22-.95-1.5-.45-.26-1.31-.54-2.02.08-.63.54-.48 1.38-.55 1.89-.05.39-.26 1.09-.71.75-.45-.34-1.8-1.16-2.62-.84-.82.31-1.43.67-1.63 1.55-.11.49.18 1.3.73 1.85.55.56 1.61.7 1.46.95-.36.59-.95.35-1.56.9-1.35 1.2-.54 2.21-.33 2.41.29.3 1.13.39 1.67.05.26-.16.74-.45 1.3-.04.3.23-1.02 1.36-1.02 2.2 0 .66.27 1.36 1.68 1.88.94.34 1.42.1 1.98-.3.7-.5 1.14-1.3 1.96-1.09.48.13-.47 1.83-.46 2.42.03.78 1.3 1.02 2.14 1 .84-.01 1.51-.48 2.26-1.35.68-.8.72-2.31 1.6-1.8.3.19-.2 1.86.6 2.37.79.51 1.72.32 2.5-.37.79-.7.69-1.42 1.16-1.69.66-.37.24.81.75 1.24.31.27 1.5-.09 2.19-.35 1.02-.4 2.21-.83 2.5-1.56l-.03.01Z"/><path fill="#003273" d="M144.28 109.11c-.4-.43-.8-.88-1.22-1.3a3.2 3.2 0 0 0-1.53-.88c-.39-.09-.78-.08-1.1.16-.37.25-.58.6-.63 1.04-.03.36.24.64.66.72.19.04.39.05.58.08.62.11 1.15.36 1.5.92.17.28.28.58.28.92a.6.6 0 0 1-.37.58c-.3.16-.61.2-.94.16l-.94-.12c-.88-.1-1.64.34-1.92 1.14-.39 1.12.25 1.97 1.34 2.22.63.14 1.24-.02 1.81-.32.51-.27 1.02-.54 1.54-.78.47-.2.96-.34 1.48-.38.7-.05 1.25.22 1.58.84.35.67.5 1.37.38 2.12-.14.91-.82 1.18-1.56.63-.13-.1-.27-.2-.39-.32a2.28 2.28 0 0 0-2.08-.6c-.3.04-.6.13-.87.26-.48.22-.59.74-.27 1.16.27.36.63.63 1.03.85.55.3.98.71 1.2 1.32.15.45.1.91-.13 1.34-.2.37-.56.5-.93.32-.34-.17-.67-.4-.98-.64-.65-.5-1.27-1.05-1.93-1.54a5.4 5.4 0 0 0-2.76-.89c-.1 0-.22.02-.32.05-.43.12-.58.52-.36.9.2.36.54.56.87.75.4.23.77.48.95.94.03.09.07.19.09.3.1.47-.21.77-.7.65a2.68 2.68 0 0 1-1.26-.8c-.31-.32-.6-.65-.92-.96-.33-.33-.69-.62-1.17-.7-.98-.18-1.77.19-2.37.96-.32.43-.59.9-.91 1.33-.14.18-.31.34-.5.47-.24.17-.45.07-.54-.21a.87.87 0 0 1 .1-.66c.19-.37.37-.75.57-1.11.46-.81.44-1.63.12-2.46a2.94 2.94 0 0 1-.26-1.5c.03-.22.1-.47.2-.68.25-.48.83-.54 1.25-.14.16.15.33.32.51.43.3.18.6.03.69-.31.07-.3 0-.56-.1-.84-.09-.27-.19-.55-.24-.84-.08-.5.19-1.02.6-1.2.31-.14.58-.1.8.15l.35.47c.23.33.53.43.9.3a1.5 1.5 0 0 0 1.08-1.5 2.68 2.68 0 0 0-1.19-2.21c-.26-.2-.52-.4-.75-.63-.67-.66-.51-1.97.08-2.57.44-.44.97-.42 1.32.1.2.28.33.6.49.9.2.39.55.46.94.46.36 0 .66-.16.78-.52.08-.25.13-.52.19-.78.08-.4.1-.81.23-1.2.22-.7 1.05-1.23 1.72-1.12.4.07.73.29 1.05.54.24.19.48.37.76.49.47.2.83-.03.9-.54v-.08c0-.54.26-.91.75-1.14.5-.22.96-.14 1.39.17.63.46.73 1.2.24 1.82a1.9 1.9 0 0 0-.46 1.23c.01.66.43 1.15 1.09 1.25.3.04.6.03.9.1.33.07.64.18.94.33.35.16.53.47.6.84.1.53.03 1.04-.31 1.47-.41.52-1.06.66-1.75.3a5.1 5.1 0 0 1-1.33-1.08l-.86-.9.02-.03Z"/><path fill="#ACCD8E" d="M168.93 65.8a1.78 1.78 0 0 0-1.84-.5l1.77-1.6a183.52 183.52 0 0 1-7.06-7.84s-2.74 2.59-3.88 3.93c-2.22 2.41-.14 5.54-.14 5.54s1.81 2.82 4.25 2.44c1.97-.31 3.34-1.08 3.78-1.36a1.8 1.8 0 0 0 .37 2.03c.66.64 1.75.67 2.5.05.84-.7 1.04-1.83.26-2.7v.01Zm-.96 2.05a.9.9 0 0 1-1.27-.27.96.96 0 0 1 .33-1.29.9.9 0 0 1 1.28.27c.26.44.1 1.01-.34 1.3Z"/><path fill="#004854" d="M172.23 50.91a4.03 4.03 0 0 0-1.71-2.3s-.74 1.84-.3 3.33a2.13 2.13 0 0 0 1.8 1.34s.7-.73.21-2.37ZM172.94 52.48l-1.14 1.23-.82.74c-.01.21-.04.36-.05.39.02-.02.2-.12.47-.18l1.94-1.74-.4-.44Z"/><path fill="#EF4637" d="M170.93 54.84s1.39-.82 2.74.68c1.35 1.5.43 2.97-.11 3.9-.54.91-1.45 1.59-2.92 2.18a5.2 5.2 0 0 1-3.8-.26c-.16-.1-.6-.43-.74-.88-.25-.58-.4-.3-1.2-1.2-.8-.9-1.56-2.93.03-5.36 0 0 1.32-1.97 3.1-2.15 1.01-.1 1.38.02 2.3.87.92.86.6 2.22.6 2.22Z"/><path fill="#78361C" d="M146.19 76.88a4.78 4.78 0 0 1-1.62 1.3c-.62.17-1.2-.1-1.88-.3-.36-.11-1.17-.16-1.63-.2a6.73 6.73 0 0 0-2.02.43c-.49.23-1.54.82-2.58 1.57-.84.59-1.77 1.26-2.15 1.42-.37.17-2.05.7-2.4.73-.26.03-.64.06-1-.01a9.69 9.69 0 0 1-1.01-.27c-.18-.08-1.1-.56-1.34-.6l-.2-.03.06-.16c.03-.09-.01-.25-.16-.34-.15-.08-.5-.18-.65-.18-.19 0-.94.01-1.2.12-.16.07-.15.2-.1.3h-.02c-.13.08-.9.73-.98.86-.08.13-.22 1.1-.29 1.18-.06.06-.96.9-1.03 1-.08.09-.06.17.07.33.13.15.5.6.62.65.12.05.44.13.71.05.28-.08 1.29-.45 1.59-.4.3.03.81.3 1.06.52l1.18 1.06.27.29c.37.41 1.12.99 1.55 1.2.35.19 1.1.68 1.46.96.18.16.4.32.83.9.61.81 1.6 2.14 1.72 2.34.15.24.25.58.36.98.02.1-.05.18-.04.26 0 .15.12.33.2.42.06.09.18.1.25.06l.57-.36s.07-.07.07-.13a8.94 8.94 0 0 0-.31-1.57l-1.72-3.47a.62.62 0 0 0 .09-.05l.9 1.04 1.39 1.7c.17.24.5.96.48 1.05l-.02.17c0 .14.08.25.2.4.04.06.15.09.2.05l.63-.39c.05-.03.08-.15.08-.22-.03-.26-.49-1.55-.57-1.7-.09-.15-1.26-2.18-1.75-3.06l3.84-2.66c1.03.7 2.46 1.67 2.61 1.8.12.1.35.46.5.71.12.19.3 1.01.33 1.08.02.05-.05.16-.04.29 0 .11.05.2.12.27.1.1.2.18.27.13l.62-.39c.14-.08.05-.35.05-.35s-.75-2.56-.85-2.72c-.1-.16-.95-1.06-1.1-1.22.85.45 1.65.9 1.77.98.13.1.43.5.55.7.11.17.45 1.1.45 1.16 0 .06-.03.14-.03.24 0 .1.07.25.17.37.06.08.17.1.23.07l.63-.4c.17-.1.07-.31.07-.31s-.94-2.62-1.06-2.8c-.11-.19-1.1-1.23-1.2-1.37-.07-.13-.45-1.23-.56-1.5a9.11 9.11 0 0 0-1.15-1.81c.37.12.84.26 1.19.28.47.02 1.04.07 1.54-.2a5.3 5.3 0 0 0 1.25-1.08c.46-.57-.06-1.15-.06-1.15l-.01-.02Z"/><path fill="#004854" d="m139.45 144.03-.97 2.4c1.65-1.85 3.55-2.01 5.66-1.08-.57 2.29-3.25 3.56-6.33 2.88l-1.1 2.72.67-.6c1.55-1.23 3.47-1.25 5.41-.49-.3 1.48-1.97 3.08-3.65 3.45-2.98.66-6.16-.69-7.14-3.4a5.88 5.88 0 0 1 .08-4.22c1.76.23 3.28 2.03 3.53 5.25l1.2-2.98c-1.17-.6-2.19-1.37-2.64-2.67a5.7 5.7 0 0 1 .16-3.8c1.54.26 3.3 2.28 3.06 5.13l1.19-2.94s.01-.05.04-.06l.84.34c.02.02 0 .05 0 .07Z"/><path fill="#F8C758" d="M146.46 140.05c-.96 1.35-2.4 1.99-3.86 2.54-.61.23-1.27.38-1.92.49-.84.14-1.6-.1-2.16-.75a9.33 9.33 0 0 1-2.48-5.67c-.02-.38.02-.77.1-1.14.14-.65.6-.76 1.3-.43 1.11.53 1.65 1.98 2.06 3.34.33-.76.68-1.67 1.12-2.36.32-.51.76-.88 1.28-1.2.43-.25.87-.29 1.1.43.22.6.2 1.09.07 1.57-.21.88-.55 1.7-.83 2.56 1.08-.6 2.26-1.12 3.6-.9.38.07.86.28.96.54.1.26-.11.65-.35.98Z"/><path fill="#B7856E" d="M161.68 129.12c.24-.05.36 0 .75-.13.4-.13 2.5-.8 3.05-.88.55-.1 2.32-.23 3.57-.1 1.35.14 2.4.19 3.47.84 1.07.66 1.61 1.2 1.66 1.7.12 1 .47 3.6.39 5.1a9.76 9.76 0 0 1-.2 1.96c-.02.03-.34.17-.34.17s.03.15.2.24c.18.1 2.67.5 3.12.79.45.28.24.55.16.96a4.4 4.4 0 0 1-.98 1.81c-.43.38-1.3.8-1.66.84-.38.04-.68.32-.93-.25-.25-.56-.6-2.06-.71-2.22-.12-.15-.34-.4-.48-.44 0 0-.02.35-.06.4-.04.04-1.4.87-2.55 1.17-1.14.3-3.29.8-3.66.82a8.17 8.17 0 0 1-2.4-.55c-.34-.23-.66-.66-1.27-2.04a81.29 81.29 0 0 1-1.72-4.3 6.31 6.31 0 0 1-.18-1.56c-.02-.35-.09-.87-.13-1.64-.05-.77.02-1.07-.18-1.4-.2-.35-.21-.35-.05-.63.16-.28.28-.2.54-.05.27.15.38.23.38.23s-.13-.32-.1-.48c.03-.17.3-.37.3-.37Z"/><path fill="#003273" d="M161.8 23.87c-.34-1-1.1-2.95-1.3-4.87-.21-1.92-.37-3.54.17-4.59.54-1.05 1.18-1.8 2.44-1.98 1.25-.16 2.59.04 3.66 1.02 1.08.98 1.87 2.79 2.19 3.8.32 1.03.56 2.4.23 4.06a19.98 19.98 0 0 1-1.77 4.98c-.65 1.35-1.6 3.14-2.76 3.07-.52-.03-.63-.24-1-.84s-1.57-3.78-1.86-4.65Z"/><path fill="#004854" d="M167.22 96.93a3.18 3.18 0 0 1-.27-1.2c-.01-.63.26-1.3.8-1.66.18-.1.38-.19.59-.19.28 0 .56.17.77.36 1.03.9 1.23 2.4 1.26 3.76.05 1.36.03 2.82.8 3.95.05.07.1.14.18.18.16.08.39-.02.49-.18.1-.16.1-.36.11-.55.05-1.16 0-2.32.15-3.48.14-1.15.5-2.32 1.24-3.22.3-.38.69-.71 1.15-.87.47-.15 1.01-.1 1.38.22.47.41.5 1.13.39 1.75-.46 2.47-2.6 4.28-3.87 6.47a3.79 3.79 0 0 0-.63 2.12c.03.38.3.84.67.76.22-.05.34-.26.45-.44.94-1.69 1.43-3.63 2.67-5.12.34-.4.74-.78 1.24-.98.5-.2 1.1-.18 1.53.13.39.28.57.76.56 1.23 0 .47-.19.92-.44 1.33-1.25 2.03-4 2.84-5.17 4.92-.2.37-.35.77-.35 1.18.01.41.2.83.56 1.05.6.36 1.41.03 1.85-.5.44-.54.63-1.23.9-1.87a7 7 0 0 1 1.17-1.88c.47-.53 1.12-1.03 1.82-.9.58.1 1 .6 1.13 1.16a3.2 3.2 0 0 1-.13 1.69 8.32 8.32 0 0 1-3.55 4.63 8.54 8.54 0 0 1-5.77 1.18 1.97 1.97 0 0 1-1.05-.41c-.28-.26-.4-.73-.14-1.02.41-.5 1.27-.08 1.84-.4a.34.34 0 0 0 .17-.2c.06-.21-.2-.36-.41-.4-.58-.13-1.18-.08-1.77-.05-.58.03-1.18.05-1.75-.1-.57-.14-1.11-.5-1.34-1.02-.23-.53-.07-1.24.45-1.52.5-.27 1.11-.08 1.6.2.48.29.9.67 1.44.84.54.16 1.24 0 1.43-.53a1 1 0 0 0 0-.62c-.19-.63-.75-1.09-1.36-1.36-.6-.26-1.27-.38-1.9-.58a4.4 4.4 0 0 1-2.07-1.21c-.8-.92-1-3.27.73-3.36.74-.04 1.32.62 1.65 1.26.33.66.55 1.4 1.1 1.88.32.27.86.4 1.14.09.21-.25.15-.63.03-.93-.65-1.86-2.19-3.26-3.15-4.98-.1-.2-.21-.41-.3-.62h-.02Z"/><path fill="#1D1511" d="M3.54 45.05c-.3-.97-1.57-4.4-1.8-4.97C.65 37.29.17 36.05-.3 35.52c-.14-.17-.48-.71-1.37-1.28-.9-.57-1.16-.55-1.69-.64a6.88 6.88 0 0 0-4.02.26c-1.03.44-2.43 1.04-3.45 1.5-1.3.56-2.44.94-3.6.56-.16-.05-1.67-.66-1.82-.71-1.06-.37-2.17-.52-3.27-.74a13.16 13.16 0 0 0-3.03-.1c-.13-.08-.23-.23-.33-.34a2.02 2.02 0 0 0-.47-.39 1.6 1.6 0 0 0-.48-.17c-.03.37.1.78.35 1.13l-.24.12a1.54 1.54 0 0 0-1.12-.64c0 .16.04.31.1.46l.02.06c.07.14.15.29.26.42.08.08.17.17.24.27-.2.43-.32.9-.43 1.35-.2.8-.3 1.64-.52 2.44-.18.65-.27 1.08.12 1.66.18.27.36.32.6.34.43.04.96-.14 1-.45.03-.2.07-.4.2-.55.3-.4.65-.78 1.01-1.14.21-.21.48-.38.73-.52.1-.04.3.04.39.12.34.3.66.63 1 .93.93.83 1.88 1.59 2.3 2.84.14.33.27.51.47.7.48.48.49.47.97.9.15.13.3.31.45.52.32.5 1.45 2.25 1.54 2.44.22.46.97 3.34 1 3.53.04.4.24 1.81.27 2 .01.1.05.1.08.1l1.19-.36c.08-.03.07-.05.05-.1l-.37-.68s-.08-.28-.08-.34.3-.37.32-.51c0-.1-.9-2.81-.94-2.98-.04-.17 0-1.04-.03-1.22a41.1 41.1 0 0 0-.4-1.51c.47.64.99 1.33 1.02 1.42.08.16.95 3.36.97 3.54l.27 2c.02.09.05.11.09.1l1.17-.35c.08-.03.07-.05.06-.1l-.36-.68s-.08-.28-.08-.35c0-.06.3-.36.32-.51.01-.11-.92-2.8-.95-2.97-.03-.17.02-.95-.02-1.22-.02-.12-.27-1.04-.56-2.05l1.94-.61c1.93-.62 2.98-1.1 3.87-1.48.63.67 1.7 1.9 1.8 2.08.1.2.93 3.26.96 3.54l.27 2c.02.09.05.11.1.1l1.18-.36c.08-.03.07-.05.05-.1l-.37-.67s-.08-.26-.08-.35c0-.1.33-.41.32-.51l-.55-1.85c-.08-.28-.27-2.17-.32-2.38-.02-.14-.56-1.49-.87-2.3.56.68 1.74 1.97 1.82 2.1.1.17.95 3.41.97 3.55.02.14.26 1.83.27 2 .01.07.05.1.1.1l1.18-.36c.08-.03.07-.05.05-.1l-.37-.67S.86 47.12.86 47c0-.11.31-.36.32-.51 0-.15-.52-1.6-.55-1.85-.03-.25-.27-2.17-.32-2.38-.04-.2-.95-2.47-1.07-2.85-.08-.47-.12-.79-.15-1.06 0-.28.01-.54-.02-.92a7.11 7.11 0 0 0-.48-2c.4.69.79 1.79 1.16 3.02.25.84.67 1.7 1.23 3.47.26.85.79 2.83.79 2.83l1.8.28h-.03Z"/><path fill="#F9B0A0" d="M233.9 28.09c.32-.29.86-1.78.93-2.31a7.54 7.54 0 0 0-.64-2.82c-.32-.54-1.5-1.58-2.37-2.22-.88-.65-4.87-3.01-5.85-3.53-.44-.24-1-.4-1-.4s-.32-.08-.41-.16c-.1-.07-.12-.2-.56-.54-.31-.23-.45-.1-.58-.02-.3-.4-.46-.9-.15-1.5a2.7 2.7 0 0 1 2.09-1.34c1.43-.1 2.73.5 4.76 1.83.89.58 2.24 1.68 2.24 1.68l.21-.27c-.19-.15-.72-.66-1.7-1.37-.56-.4-1.23-1.07-3.1-1.85-1.34-.56-2.66-.74-3.95.1-1.21.78-1.24 1.89-.9 2.58-.27-.2-.6-.48-.63-.51-.05-.06-.88-.15-.98-.19-.1-.04-.1.35-.01.45.08.1 1.16.92 1.65 1.52-.3-.17-.7-.39-1.16-.67a2.86 2.86 0 0 1-1.3-3.29 3.59 3.59 0 0 1 2.42-2.64c1.42-.34 2.71.19 3.74.57 1.04.39 2.41 1.1 2.41 1.1l.16-.32s-.59-.5-2.75-1.34c-2.17-.84-3.42-.52-3.82-.4a4 4 0 0 0-2.4 2.11 3.73 3.73 0 0 0 .36 3.72c.64.88 2.48 1.67 2.9 1.87.18.15.34.23.5.35.27.2.25.44.4 1 .14.56 2.06 2.77 2.59 3.12.52.36 1.87.79 1.87.79-.33.13-.54.53-.6 1.1-.07.59-.43 1.02-.5 1.19-.07.17.01.4.14.45.13.04.87-1.16.92-.98.05.18-.03.3-.2 1.2-.16.89 0 1.1.07 1.29.06.19.3-.08.44-.14.14-.05.6-1.06.79-1.02.17.03.31.35.2.66-.1.3-2.04 1.02-2.25 1.06-.23.04-1.09-.78-1.54-1.01-.45-.24-2.58-1.36-2.78-1.12-.2.23.3 1.55.59 1.82.28.27 1.88 1.16 2.68 1.59.81.42.9.44.95.61.05.18.68.25 1.45.24.78-.01 1.87-.37 2.72-.64.85-.27 1.63-1.14 1.96-1.42v.02Z"/><path fill="#004854" d="M233.24 65.49c.02-.06.08-.24.07-.26a3.08 3.08 0 0 0-.8-.24c-.24-.03-.38-.01-.57-.03-.17 0-.34-.02-.52-.08l.53-.26c.3-.13.52-.18.7-.26.11-.05.24-.11.2-.19l-.2-.35c-.1-.18-.11-.17-.25-.13-.14.04-.43.17-.5.2a4.5 4.5 0 0 0-.95.5c-.23.17-.44.18-.7.04-.15-.08-.31-.15-.45-.18-.6-.12-1.04.04-1.36.49l-.14.19c-.26.3-.52.5-.83.6l-1.16.44c-.1.04-.45.12-.5.14-.17.05-.32.08-.5.1.15-.17.29-.26.41-.33l.6-.32.49-.26c.33-.18.62-.42.86-.72.25-.31.5-.67.73-1.1.16-.27.37-.4.7-.42.5-.04 1.03-.1 1.53-.16l.19-.02c.21-.03.62-.15.66-.18.03-.04.03-.05.02-.13-.02-.08-.06-.37-.1-.39l-.2.02c-.15 0-.3.02-.44.03l-.51.01.32-.23.74-.53c.16-.1.37-.3.38-.35.02-.04-.24-.31-.31-.38-.06-.08-.1-.13-.14-.14-.03-.01-.12.04-.14.06l-.26.19c-.42.29-.85.59-1.22.96-.07.07-.17.2-.38.24.08-.2.19-.3.24-.36.13-.17.27-.34.44-.47a8.1 8.1 0 0 0 .96-.92l.15-.16c.05-.06-.49-.43-.56-.4-.07.03-.24.18-.35.3-.13.13-.26.26-.44.34.01-.13.06-.23.1-.33l.27-.6c.05-.11.1-.22.04-.27a2.12 2.12 0 0 0-.6-.1c-.16 0-.2 0-.22.17l-.23.93c-.08.35-.45 1.1-.45 1.1-.08.18-.35.54-.37.57-.2.26-.94.56-1.01.58-.4.1-.69.36-.88.78l-.15.41-.12.43c-.07.3-.26.53-.57.71-.45.26-1.52 1.04-1.8 1.27-.28.23-1.07.93-1.82 1.29a.83.83 0 0 1 0-.35c.04-.22.09-.49.12-.74.02-.15.07-.3.17-.44.27-.41.62-.8 1.1-1.2.19-.17.41-.3.64-.38.18-.07.37-.15.54-.26.44-.27.75-.69.92-1.22.06-.2.16-.44.37-.64.23-.2.44-.42.64-.64.25-.26.5-.54.78-.76a7.94 7.94 0 0 0 .79-.8c.1-.1.16-.22.1-.24-.06-.02-.62-.2-.68-.17-.06.03-.27.29-.39.43-.2.25-.41.52-.73.7 0-.02.05-.24.14-.42l.27-.58c.13-.26.16-.34 0-.39-.13-.04-.7-.05-.7-.05-.2.02-.16.1-.4.68-.03.08-.11.4-.14.46-.14.4-.36.78-.56 1.1-.23.37-.5.73-1 .83-.07.02-.5.13-.71.53-.1.2-.14.38-.18.57-.06.32-.22.6-.5.9-.4.43-.78.92-1.12 1.44l-.09.08.03-.5c.03-.29.36-1.86.4-2.01.06-.3.1-.6.01-.91l-.24-.9c-.05-.15-.08-.3-.02-.45.26-.6.41-1.12.97-1.53.63-.47 1.06-1.19 1.2-1.4.15-.22.56-.46.85-.75.22-.22.48-.5.53-.59.06-.07.16-.2.07-.23-.11-.05-.55-.22-.6-.2-.07 0-.78.68-.97.79-.05-.06 0-.14.03-.21l.3-.73.17-.49c.01-.03.04-.08 0-.12-.03-.04-.1-.03-.14-.03-.27.01-.56 0-.84.02-.22.02-.22.09-.27.23l-.24.75a9.6 9.6 0 0 1-.62 1.3s-.5.85-.69 1.27c-.1.24-.23.48-.42.77-.17.25-.29.5-.35.77-.03.11-.1.32-.2.45-.07-.7.07-1.13.16-1.58.06-.34.16-.67.03-1.15a6.17 6.17 0 0 1-.05-1.55c0-.05.03-.26-.02-.29-.06-.03-.2.04-.28.08l-.77.47c-.15.11-.07.26.04.9.03.12.06.45.06.46.01.04.01.08-.02.1l-.68-1.25c-.04-.08-.1-.13-.17-.15-.05-.02-.12 0-.18.03-.15.1-.29.21-.42.32-.03.03-.07.1-.06.15 0 .04.05.38.11.47.1.13.19.28.27.42l.22.36c.22.3.64 1.14.64 1.14.02.1.07.76.07.82-.01.17-.07.73-.1.83-.09.19-.36.8-.44 1.1a.9.9 0 0 0 .08.7c.2.33.4.65.79.78.22.08.39.23.5.47.1.2.3 1.15.31 1.2.06.27.07.52 0 .74-.08.35-.18.69-.3 1-.32.95-.83 1.8-1.4 2.73 0 .01-.08.17-.18.18a7.61 7.61 0 0 0-.57-1.52c-.04-.05-.25-.4-.34-.49-.18-.2-.28-.44-.32-.75 0-.03-.03-.28-.06-.36-.12-.42-.03-.82.28-1.22.26-.34.46-.62.63-.88.15-.2.49-.55.39-.63l-.21-.13c-.19-.11-.2.02-.33.17-.14.16-.38.59-.38.6-.02.04-.03.05-.11.07l.15-.84c.04-.23 0-.58-.12-.61-.05-.02-.24.07-.31.1-.5.21-.48.16-.31.7.1.32.1.6-.03.85l-.2.52-.1.22c-.14-.16-.22-.3-.27-.5-.03-.14-.23-1.4-.3-1.69 0-.04-.06-.18-.1-.2-.03 0-.13.07-.21.11-.08.05-.17.11-.34.25v.06l.1.32c.03.16.08.32.13.48v.02l-.05.02c-.01-.02-.43-.52-.52-.61a.83.83 0 0 0-.26-.19c-.06-.02-.16-.02-.2.02a.36.36 0 0 1-.07.07c-.11.12-.3.4-.24.45l1.16 1.15c.25.26.32.5.23.79-.06.21-.05.56.06.83.1.23.27.46.58.61.44.16.77.53.8.58.45.68.77 1.4.87 2.18.02.21.06.41.12.58.1.3.36.97.36.97.15.36.21.67.23.97.01.55-.03.99-.16 1.37-.04.13-.05.27-.03.46 0 .01 0 .04.03.06.02 0 .55.27.59.25.14-.07.42-.52.56-.78a11.5 11.5 0 0 1 .64-.92c.27-.4.54-.67.86-.87.16-.1 1.03-.78 1.14-.88.15-.11.3-.18.5-.2l.6-.05c.4-.01.72-.11.98-.3.2-.14.37-.29.52-.43.1-.1.61-.3.84-.35.23-.04.92-.17.96-.19.34-.1.74-.4.76-.45.02-.03-.03-.16-.1-.24-.06-.09-.23-.33-.29-.3-.12.02-.33.19-.49.27-.08.04-.63.34-.74.38a.76.76 0 0 1-.22.04c0-.01.02-.07.07-.15a15.15 15.15 0 0 1 1.2-1.3c.07-.1-.03-.14-.22-.2-.13-.04-.4-.13-.55-.08-.08.06-.19.29-.26.42a4.7 4.7 0 0 1-.57.81.7.7 0 0 1-.56.25c-.26 0-.48-.02-.68-.03-.22-.02-.6-.06-.8.03-.4.17-.66.5-.94.96-.11.18-.28.32-.5.45-.25.12-1.14.65-1.38.7 0-.01 0-.26.12-.7.12-.42.2-.93.22-1.05.08-.39.15-.53.47-1.07a4.03 4.03 0 0 1 1.56-1.26c.35-.15.73-.28 1.09-.4.18-.06 2.43-.74 2.64-.86.1-.04 1.5-.6 2.02-.74.51-.13 1.3-.18 1.36-.18.42-.05.84-.1 1.21-.32.3-.18.6-.13.84-.06.44.16.75.14.94.2.2.05.19.05.22-.04l.15-.34.08-.04Z"/><path fill="#ACCD8E" d="m254.61 32.6-.2 1.33c.72-.23 1.46-.58 2.23-.69 1.54-.22 2.6.7 2.62 2.2a1.97 1.97 0 0 1-2.59 1.8c-1.27-.38-1.7-1.28-1.4-2.77-.88.31-1.42 1.66-1.56 3.99.67-.24 1.19-.63 1.92-.75 1.15-.18 2.24.02 2.9 1.17.47.82.42 2.21-.46 2.92-.8.65-2.19.6-2.99-.14a2.32 2.32 0 0 1-.49-2.56l.17-.29c-.38.04-.87.6-1.02 1.12-.4 1.43-.58 2.73-.85 4.22a5.35 5.35 0 0 1 2.36-1.16c1.27-.2 2.4 0 3.14 1.2.54.84.4 1.94-.27 2.81-.44.55-1.57.94-2.54.6-1.34-.44-1.7-1.96-1.14-3.31-1 .58-1.5 1.43-1.7 2.46-.2 1.06-.35 2.12-.51 3.2-.07.44-.16.73-.75.64-.54-.1-.52-.42-.45-.82.16-.98.33-1.95.45-2.93.09-.76.14-1.54-.2-2.18-.22.61-.32 1.08-.67 1.5-.6.7-1.45.77-2.31.52-.86-.24-1.22-.91-1.32-1.71a2.26 2.26 0 0 1 1.52-2.48c.98-.3 2.34-.13 3.03 1.1l.35.72c.25-1.54.4-2.82.57-4.28.1-.86-.71-1.98-1.53-2.33.22.4.33.74.39 1.14.05.94-.37 1.56-1.1 2-.73.46-1.54.45-2.24.02-1.14-.72-1.3-2.05-.52-3.2.62-.92 1.87-1.2 3.06-.9 1.15.4 1.33.43 2.26 1.34.44-1.44.66-3.5-.03-4.35 0 .28-.03.44-.09.76-.22.84-.67 1.17-1.62 1.28-1.07.13-2.04-.4-2.28-1.3-.24-.9.04-2.08.98-2.54.97-.49 2.48-.12 3.27.83.2.25.42.5.6.74l.17-1.06c-1.4-.8-1.6-1.97-1.24-2.94.44-1.16 1.6-1.68 2.88-1.32 1 .27 1.65 1.3 1.5 2.4a2.23 2.23 0 0 1-2.3 2Z"/><path fill="#F8C758" d="M198.36 75.5c-.1-.1-.31-.29-.44-.17l-2.7 2.91c-.4.26-.84.46-1.33.56-1.09.22-2.17.48-3.25.74-.5.12-.88.03-1.24-.35a7.17 7.17 0 0 0-2.76-1.93c-.24-.04-1.39-.31-1.63-.28.22-.87-.8-1.02-1.6-.58-.47.3-.76.68-.8 1.03-.02.35.18.54.4.88.06.09.06.14.02.24l-.24.55.01.01.06.06h.01l.61-.25c.14-.05.2-.03.24.14.1.51.56 1.05 1.11.68a8 8 0 0 0 2.94 5.63c1.52 1.06 3.52 2.55 5.86 2.45.22-.03.31 0 .39.14 0 0 .1 1.76 0 1.9-.08.16-.29.26-.54.43-.3.19-.19.11-.44.31-.15.12-.15.28-.12.33.02.05.04.1.1.06l2.61-1.22c.12-.06.12-.11.08-.22-.03-.06-.06-.19-.24-.12l-.59.18-.12-2.05c.19-.14 1.1-.68 1.13-.7.4-.15 1 .72 1.11.88.14.2.36.5.35.55-.02.08-.11.19-.26.29l-.55.38c-.13.1-.19.26-.15.35.03.06.05.08.18.03l2.47-1.16c.09-.04.07-.14.04-.2-.04-.09-.08-.15-.15-.14-.24.01-.56.16-.85.25l-1.4-2.24c.12-.34.54-.97.9-1.6.91-1.6 1.32-3.62 1.45-5.18.04-1.09.32-2.72-.68-3.58Z"/><path fill="#003273" d="M218.01 96.83c-5.73 3.35-8.66 8.95-9.12 9.82l-1.2.49a5.53 5.53 0 0 0-1.95 1.16c.03.1.3.69.55 1.36a48 48 0 0 1 .57 1.56l.36-.1c-.56 1.69-1.22 3.46-1.66 5.1-.55 2.05-1.01 3.55-1.39 5.34-.63.45-1.1.83-1.78 1.29-1.02.62-3.1 1.9-3.05 2.04.09.17 1.13.47 3.49 1.61 1.05.57 3.68 2.33 3.79 2.22.15-.13-.25-3.85-.6-5.93.67-.66 1.51-1.53 2.27-2.44-.02.23-.03.41-.02.47.07.02.52-.04 1.04 0 .56.04 1.15.1 1.21.09.12-.72.07-2.5-.06-3.1a39.94 39.94 0 0 0 4.04-5.33c5.03-7.85 4.99-12.73 4.22-15.26l-.02-.08c-.18-.52-.53-.4-.7-.31h.01Z"/><path fill="#F9B0A0" d="M248.66 81.62c-3.5.97-6.24-1.53-6.7-4.83a5.5 5.5 0 0 1 4.96-6.17c2.76-.37 5.45 1.6 6.08 4.52.72 3.38-1.36 5.86-4.33 6.48Z"/><path fill="#FBF6F3" d="M245.36 72.72a.5.5 0 1 0-.23-.98.5.5 0 0 0 .23.98Zm-1.2 1.05a.5.5 0 1 0-.22-.98.5.5 0 0 0 .22.98Zm-.87 1.48a.5.5 0 1 0-.23-.97.5.5 0 0 0 .23.97Zm1.29-.45a.5.5 0 1 0 .97-.22.5.5 0 0 0-.97.22Zm2.6 1a.5.5 0 1 0-.22-.97.5.5 0 0 0 .22.97Zm1.34-.7a.5.5 0 1 0 .23.98.5.5 0 0 0-.22-.97Zm1.11-.33a.5.5 0 1 0 .98-.23.5.5 0 0 0-.98.23Zm1.47-.47a.5.5 0 1 0 .97-.22.5.5 0 0 0-.97.22Zm-7.48 2.76a.5.5 0 1 0-.23-.98.5.5 0 0 0 .23.98Zm.25.92a.5.5 0 1 0-.97.22.5.5 0 0 0 .97-.22Zm1.23.5a.5.5 0 1 0-.22-.98.5.5 0 0 0 .22.98Zm2.04.3a.5.5 0 1 0-.97.23.5.5 0 0 0 .97-.22Zm-2.8.21a.5.5 0 1 0 .22.98.5.5 0 0 0-.22-.98Zm1.24 1a.5.5 0 1 0 .22.98.5.5 0 0 0-.22-.98Zm3.42-1a.5.5 0 1 0-.98.22.5.5 0 0 0 .98-.22Zm-1.67 1.25a.5.5 0 1 0 .23.98.5.5 0 0 0-.23-.98Zm1.86-.3a.5.5 0 1 0 .22.97.5.5 0 0 0-.22-.97Zm1.45-.92a.5.5 0 1 0 .22.97.5.5 0 0 0-.22-.97Zm.02-1.26a.5.5 0 1 0-.98.22.5.5 0 0 0 .98-.22Zm.92-.18a.5.5 0 1 0 .22.97.5.5 0 0 0-.22-.97Zm-6.14-1.78a.5.5 0 1 0 .23.98.5.5 0 0 0-.23-.98Zm1.6.76a.5.5 0 1 0 .22.98.5.5 0 0 0-.22-.98Zm1.62.26a.5.5 0 1 0 .22.97.5.5 0 0 0-.22-.97Zm2.35-.74a.5.5 0 1 0-.98.22.5.5 0 0 0 .98-.22Zm.95-.36a.5.5 0 1 0 .22.98.5.5 0 0 0-.22-.98Zm-4.78-3.63a.5.5 0 1 0-.22-.98.5.5 0 0 0 .22.98Zm-.39 1.7a.5.5 0 1 0-.22-.97.5.5 0 0 0 .22.98Zm2.2-1.43a.5.5 0 1 0-.22-.98.5.5 0 0 0 .22.98Zm1.6.87a.5.5 0 1 0-.23-.97.5.5 0 0 0 .22.97Zm-1.86.97a.5.5 0 1 0-.22-.97.5.5 0 0 0 .22.97Z"/><path fill="#004854" d="M253.97 89.03a6.33 6.33 0 0 1-3.07 1.85 6.3 6.3 0 0 1-3.57-.31c-1.46-.58-2.6-1.67-2.67-3.04 1.86-.41 3.8-.16 5.01 1.16l.52.63-.58-2.49c-2.86.18-5.3-1.29-5.49-3.43 2.03-.54 3.92-.17 5.15 1.72l-.6-2.58s-.02-.05 0-.06l.27-.07.28-.05c.02 0 .02.03.03.05l.6 2.58c.27-2.23 1.8-3.4 3.86-3.8.78 2-.77 4.4-3.43 5.49l.58 2.48c.07-.31.12-.55.2-.79.5-1.73 2.13-2.79 3.98-3.24.54 1.26 0 2.74-1.07 3.9Z"/><path fill="#78361C" d="M256.48 113.57a9.1 9.1 0 0 1-.19 2.52c-.13.62-.35 1.91-.8 2.78l-.04 1.8c-.02.25-.49 2.6-.52 2.74-.01.04-.03.06-.05.06h-.93s-.04-.03-.03-.08c.03-.25.31-2.18.27-2.48-.03-.2-.58-1.43-.58-1.43h-.14l.04 1.3c0 .07-.4 2.59-.42 2.63 0 .03-.01.06-.07.06h-.88s-.04-.02-.04-.05c0 0 .24-2.13.22-2.45 0-.18-.56-1.49-.56-1.49h-8.25l-.27 2.54-.16 1.4c0 .05-.03.06-.06.06h-.89c-.03 0-.05-.03-.05-.09 0-.3.08-1.2.06-1.69 0-.4-.28-2.22-.28-2.22l-.28-.01-.26 3.94c0 .04 0 .07-.05.07h-.92c-.04 0-.05-.03-.04-.08.02-.28.09-1.2.07-1.7-.01-.26-.4-2.5-.4-2.5-.08-.1-.2-.19-.33-.27a4.7 4.7 0 0 1-1.12-.87 7.25 7.25 0 0 1-1.63-3.45c-.2-.86-.3-1.73-.46-2.6-.06-.38-.21-.48-.6-.39-.57.12-1.13.27-1.7.4-.1.03-.22 0-.3 0a1.58 1.58 0 0 1-.65-.28.47.47 0 0 1-.15-.32 1.6 1.6 0 0 1 .32-1.14c.5-.6.99-1.2 1.5-1.78a3.48 3.48 0 0 1 1.82-1.13.66.66 0 0 0 .24-.12 2.06 2.06 0 0 1 1.18-1.27l.04.06c.22.37.31.8.27 1.21.92.68 1.84 1.36 2.77 2.02.12.08.3.15.43.14l3.44-.14c2.38-.08 4.75-.2 7.12-.22 1.89-.01 3.1.63 3.9 2.37.27.56.37 1.36.41 2.16Z"/><path fill="#1D1511" d="m227.03 131.54.24.14c2.18 1.3 5.8 3.45 6.55 3.92.77.5.77.33.89 1.45.05.55.6 1.29 1.29 1.8 2.97 2.19 5.83 3.74 9.3 5.92.79.44 1.53.97 2.3 1.44.77.47.82 1.46.14 2.01-.45.35-1.04.36-1.54-.05-1.1-.9-2.24-1.8-3.33-2.74a110.58 110.58 0 0 0-7.54-5.63c-.75-.51-1.62-.7-2.16-.55-.94.26-.9.2-1.52-.26-.73-.54-1.7-1.36-2.5-2.02l-3.5-2.86a7.95 7.95 0 0 0-.27-.21l.15-.2c.13.07.25.16.38.25l4.77 3.4c.24.17.47.22.56.1.08-.11-.02-.32-.3-.5l-4.77-3.52c-.13-.09-.2-.14-.3-.24l.16-.22.35.22 4.81 3.32c.34.24.52.23.6.12.07-.1 0-.27-.3-.49l-4.82-3.45-.29-.22.16-.23.34.21 3.55 2.36c.53.35 1 .72 1.54 1.06.1.07.33.06.4-.04s0-.3-.24-.46l-4.77-3.29-.47-.33.14-.2v-.01Z"/><path fill="#87C2EA" d="M198.57 149.11a36.91 36.91 0 0 0-5.44-4.71c0-.02 0-.03.02-.05a7 7 0 0 1 3.3-.77c1.96-.05 3.59 1.18 4.88 2.56.45.48.92.96 1.34 1.46.11.13.2.21.37.14.9-.28 1.89-1.1 2.77-.37.1.08.18.07.32.04.2-.05.38-.1.57-.13 0 .03.02.05.03.08l-.4.56.58.21v.1c-.36.14-.76.18-.87.63-.33.9-.9 1.43-1.67 2-.72.52-1.3 1.1-1.77 2.14-.52 1.19-1.36 2.17-2.17 3.17-1.48 1.75-3.33 3.4-5.59 3.92l-.05-.06c1.07-2.6 2.5-4.86 3.25-7.59-.9.65-2.82 1.85-4.04 2.64-.15.1-.27.14-.32-.08-.27-1.27-.52-2.54-.8-3.8-.06-.21-.07-.4.2-.46 1.68-.57 3.79-1.14 5.5-1.64l-.01.01Z"/><path fill="#1D1511" d="M211.13 45.05c-.3-.97-1.56-4.4-1.79-4.97-1.1-2.79-1.58-4.03-2.05-4.56-.15-.17-.48-.71-1.38-1.28-.9-.57-1.15-.55-1.68-.64a6.88 6.88 0 0 0-4.02.26c-1.03.44-2.43 1.04-3.46 1.5-1.29.56-2.43.94-3.58.56-.18-.05-1.68-.66-1.83-.71-1.06-.37-2.18-.52-3.27-.74a13.15 13.15 0 0 0-3.04-.1c-.12-.08-.22-.23-.32-.34a2 2 0 0 0-.47-.39 1.6 1.6 0 0 0-.48-.17c-.04.37.1.78.35 1.13l-.24.12a1.54 1.54 0 0 0-1.12-.64c0 .16.04.31.1.46a1.59 1.59 0 0 0 .28.48c.08.08.17.17.24.27-.2.43-.32.9-.44 1.35-.2.8-.3 1.64-.51 2.44-.18.65-.27 1.08.12 1.66a.7.7 0 0 0 .6.34c.43.04.96-.14 1-.45.03-.2.07-.4.19-.55.31-.4.65-.78 1.02-1.14a3 3 0 0 1 .73-.52c.09-.04.3.04.39.12.34.3.66.63 1 .93.92.83 1.88 1.59 2.3 2.84.14.33.27.51.46.7.5.48.5.47.97.9.16.13.3.31.46.52.32.5 1.45 2.25 1.54 2.44.22.46.97 3.34 1 3.53.04.4.24 1.81.26 2 .02.1.05.1.09.1l1.19-.36c.08-.03.06-.05.05-.1l-.37-.68s-.08-.28-.08-.34.3-.37.32-.51c0-.1-.9-2.81-.94-2.98-.04-.17 0-1.04-.03-1.22-.01-.08-.18-.72-.4-1.51.47.64.98 1.33 1.02 1.42.08.16.94 3.36.97 3.54l.27 2c.01.09.05.11.09.1l1.17-.35c.08-.03.07-.05.06-.1l-.36-.68s-.08-.28-.08-.35c0-.06.3-.36.32-.51.01-.11-.92-2.8-.95-2.97-.03-.17.02-.95-.02-1.22-.02-.12-.27-1.04-.56-2.05l1.94-.61c1.93-.62 2.97-1.1 3.87-1.48.62.67 1.7 1.9 1.8 2.08.1.2.92 3.26.96 3.54l.27 2c.01.09.05.11.09.1l1.19-.36c.07-.03.06-.05.05-.1l-.37-.67s-.09-.26-.08-.35c0-.1.33-.41.31-.51 0-.1-.46-1.56-.54-1.85-.08-.28-.28-2.17-.32-2.38-.02-.14-.56-1.49-.87-2.3.56.68 1.74 1.97 1.82 2.1.1.17.95 3.41.97 3.55l.27 2c0 .07.05.1.09.1l1.19-.36c.07-.03.06-.05.05-.1l-.37-.67s-.09-.24-.08-.35c0-.11.3-.36.31-.51 0-.15-.5-1.6-.54-1.85-.03-.25-.28-2.17-.32-2.38-.04-.2-.95-2.47-1.07-2.85-.08-.47-.12-.79-.15-1.06 0-.28 0-.54-.02-.92a7.1 7.1 0 0 0-.48-2c.4.69.79 1.79 1.16 3.02.25.84.67 1.7 1.23 3.47.26.85.79 2.83.79 2.83l1.79.28h-.03Z"/><path fill="#F9B0A0" d="M26.3 171.12c.33-.28.86-1.77.93-2.3a7.54 7.54 0 0 0-.64-2.82c-.31-.54-1.5-1.58-2.37-2.23-.88-.65-4.87-3-5.84-3.52-.44-.24-1.01-.41-1.01-.41s-.32-.08-.4-.15c-.1-.07-.13-.21-.57-.54-.31-.23-.45-.1-.58-.02-.3-.4-.46-.9-.14-1.5a2.7 2.7 0 0 1 2.08-1.34c1.43-.1 2.73.5 4.77 1.83.88.58 2.23 1.68 2.23 1.68l.21-.27c-.18-.15-.71-.66-1.7-1.37-.56-.4-1.23-1.07-3.1-1.85-1.34-.56-2.65-.74-3.95.1-1.21.78-1.24 1.88-.89 2.58a6.2 6.2 0 0 1-.64-.52c-.05-.05-.88-.15-.98-.18-.1-.04-.1.34-.01.45.09.1 1.17.91 1.65 1.52l-1.16-.67a2.86 2.86 0 0 1-1.3-3.3 3.59 3.59 0 0 1 2.42-2.63c1.42-.34 2.71.19 3.74.57 1.04.38 2.41 1.1 2.41 1.1l.16-.32s-.58-.5-2.75-1.34c-2.17-.84-3.42-.53-3.82-.4-.4.11-1.76.65-2.4 2.1a3.73 3.73 0 0 0 .36 3.73c.65.88 2.48 1.66 2.9 1.86.19.16.34.24.5.35.27.2.25.44.4 1 .14.57 2.06 2.78 2.6 3.13.52.36 1.86.78 1.86.78-.33.13-.54.54-.6 1.12-.07.58-.43 1-.5 1.18-.07.17.02.4.14.45.13.04.87-1.16.92-.98.05.17-.03.3-.2 1.2-.15.88 0 1.1.07 1.28.07.2.3-.08.44-.13.14-.06.6-1.06.79-1.03.17.04.31.35.2.66-.1.31-2.04 1.03-2.25 1.07-.22.03-1.08-.78-1.54-1.02-.45-.23-2.58-1.35-2.78-1.12-.2.24.3 1.56.59 1.83a26 26 0 0 0 2.68 1.58c.81.43.9.45.95.62.05.17.68.25 1.46.24.77-.02 1.86-.37 2.71-.65.86-.27 1.63-1.13 1.96-1.42v.02Z"/><path fill="#004854" d="M25.64 208.53c.02-.06.09-.25.07-.26a3.09 3.09 0 0 0-.8-.24c-.23-.03-.38-.02-.57-.03-.16-.01-.34-.02-.52-.08.04-.02.27-.15.54-.26.29-.13.5-.18.7-.26.1-.05.23-.12.2-.19l-.2-.35c-.1-.19-.12-.17-.26-.13-.14.04-.43.17-.5.2-.33.13-.66.28-.95.5-.22.16-.44.18-.7.03a1.8 1.8 0 0 0-.45-.17c-.6-.12-1.04.04-1.36.48l-.14.2c-.25.3-.51.49-.82.6-.24.07-1 .38-1.16.44l-.5.14c-.18.05-.33.07-.52.1.16-.17.3-.26.42-.33l.6-.32c.16-.09.32-.18.5-.26.32-.18.6-.42.85-.72.25-.32.5-.68.73-1.1.16-.27.37-.4.7-.42.5-.04 1.03-.1 1.53-.16l.19-.03c.22-.02.62-.14.66-.17.04-.04.04-.05.02-.13-.01-.08-.06-.38-.1-.39l-.2.01c-.15.02-.29.03-.44.03l-.5.02.31-.23.74-.53c.16-.1.37-.3.39-.35.01-.05-.25-.31-.32-.39-.06-.07-.1-.12-.13-.13-.04-.02-.13.04-.15.06l-.26.18c-.42.3-.85.6-1.22.97-.07.06-.17.19-.38.24.08-.21.19-.31.24-.37.13-.16.27-.33.44-.47a8.11 8.11 0 0 0 .96-.91l.15-.16c.05-.06-.48-.43-.56-.4-.07.03-.24.18-.35.3-.12.13-.26.26-.44.34.02-.13.06-.23.1-.33l.27-.6c.05-.11.1-.22.05-.27a2.14 2.14 0 0 0-.61-.1c-.15 0-.19 0-.22.17l-.22.93c-.09.35-.45 1.1-.45 1.1-.08.17-.36.54-.38.56-.2.27-.93.57-1 .6-.4.09-.7.34-.88.76-.06.13-.15.42-.15.42l-.13.42c-.07.31-.26.54-.57.72a22.5 22.5 0 0 0-1.8 1.27c-.28.22-1.07.93-1.82 1.29a.81.81 0 0 1 0-.35c.04-.23.1-.5.12-.75.02-.15.08-.29.17-.44.27-.4.62-.79 1.1-1.2.2-.16.41-.29.64-.38a2.16 2.16 0 0 0 1.46-1.48c.07-.2.16-.44.38-.63.22-.2.43-.42.63-.64.25-.27.5-.54.79-.77a7.7 7.7 0 0 0 .78-.79c.1-.1.16-.22.1-.24-.06-.02-.62-.2-.68-.17-.06.02-.27.28-.38.43-.21.25-.42.51-.74.7 0-.02.05-.24.14-.42l.28-.58c.13-.26.15-.34 0-.39a5 5 0 0 0-.71-.06c-.2.02-.16.1-.4.69a5.74 5.74 0 0 1-.7 1.56c-.23.37-.5.72-1 .83-.07.02-.5.13-.7.53-.1.2-.14.38-.19.57-.06.31-.21.6-.5.89-.4.44-.78.93-1.12 1.45l-.09.07.03-.5c.03-.28.36-1.86.4-2 .07-.3.1-.6.02-.92l-.25-.9c-.04-.14-.08-.3-.02-.44.27-.6.41-1.12.97-1.54.63-.46 1.06-1.18 1.2-1.4.15-.21.57-.45.85-.74.22-.23.48-.51.53-.6.06-.07.16-.19.07-.23-.11-.04-.54-.21-.6-.2-.07.01-.78.68-.97.8-.05-.06 0-.15.03-.21l.3-.73c.07-.16.12-.33.17-.49.01-.04.04-.08 0-.12-.03-.04-.1-.04-.14-.04-.27.02-.56 0-.84.02-.22.02-.22.1-.27.24l-.24.75a9.6 9.6 0 0 1-.61 1.3s-.52.85-.7 1.27c-.1.24-.23.48-.42.77-.17.25-.29.5-.35.76-.03.12-.1.32-.2.46-.06-.7.07-1.13.16-1.58.07-.35.17-.67.03-1.16a6.13 6.13 0 0 1-.04-1.54c0-.05.03-.27-.03-.29-.05-.03-.2.04-.28.08l-.77.47c-.15.11-.07.25.04.9.04.12.07.45.07.46 0 .04 0 .07-.03.1l-.68-1.26c-.04-.08-.1-.13-.16-.14-.06-.02-.13 0-.19.03-.15.1-.28.21-.41.32-.04.03-.08.1-.06.15 0 .04.04.38.1.47.11.12.2.27.27.41a13.44 13.44 0 0 1 .86 1.5c.03.11.07.77.07.83 0 .16-.07.73-.1.83-.09.19-.36.8-.43 1.1a.9.9 0 0 0 .07.7c.2.33.4.65.8.78.2.08.38.23.5.47.08.2.3 1.15.3 1.19.06.28.07.52 0 .75-.08.35-.18.69-.29.99-.33.96-.83 1.8-1.4 2.74 0 0-.09.16-.19.18a7.6 7.6 0 0 0-.57-1.52c-.04-.05-.25-.4-.34-.5-.17-.19-.28-.43-.32-.75 0-.03-.03-.27-.06-.35-.11-.42-.03-.82.28-1.23l.64-.87c.14-.2.48-.55.38-.63-.06-.05-.21-.13-.21-.13-.19-.12-.2.01-.33.16-.14.17-.37.6-.38.6-.02.04-.03.06-.11.08l.15-.84c.04-.23 0-.58-.11-.62-.06-.01-.25.08-.32.1-.5.22-.48.17-.3.71.09.31.08.59-.03.85l-.21.52-.09.22c-.15-.16-.23-.3-.28-.5l-.29-1.7c0-.03-.07-.18-.1-.19-.03 0-.14.06-.22.11-.07.05-.17.1-.33.25-.02.01-.02.04 0 .06l.08.32.14.48v.02s-.03.02-.04.01l-.53-.6a.81.81 0 0 0-.26-.2c-.05-.02-.16-.01-.2.03a.33.33 0 0 1-.06.06c-.12.13-.3.4-.25.46l1.17 1.14c.24.26.31.51.23.8-.07.21-.06.56.06.83.1.23.26.45.57.61.45.16.77.53.81.58.45.67.77 1.4.86 2.17.02.22.07.42.12.6.1.3.37.96.37.96.14.36.2.67.22.96.02.55-.03 1-.16 1.38-.04.13-.05.27-.03.45 0 .02.01.05.03.06.02.02.55.28.6.26.13-.08.41-.53.55-.78a11.46 11.46 0 0 1 .64-.93c.27-.39.54-.66.86-.86.16-.1 1.03-.78 1.15-.88.14-.12.3-.18.5-.2.05 0 .44-.05.59-.05.4-.01.72-.11.98-.3.2-.15.37-.29.53-.44.09-.08.6-.3.83-.34l.96-.19c.34-.1.74-.41.76-.45.02-.04-.03-.16-.1-.25-.06-.08-.22-.32-.28-.3-.13.03-.34.2-.5.27l-.74.4a.76.76 0 0 1-.22.03l.07-.16a14.62 14.62 0 0 1 1.2-1.3c.07-.1-.02-.13-.22-.19-.13-.04-.4-.14-.55-.09-.08.06-.19.3-.26.42-.14.24-.32.55-.57.82a.7.7 0 0 1-.56.25l-.68-.03c-.22-.02-.6-.06-.8.03-.4.17-.66.49-.94.96-.1.17-.27.32-.5.44-.24.13-1.14.65-1.37.71 0-.01-.01-.27.11-.7.13-.42.2-.93.22-1.05.09-.39.15-.54.47-1.07a4.02 4.02 0 0 1 1.56-1.26c.35-.15.73-.28 1.09-.4.18-.07 2.43-.75 2.64-.86.1-.05 1.5-.61 2.02-.74.51-.13 1.3-.18 1.37-.19.41-.04.83-.09 1.2-.32.3-.18.6-.13.84-.05.44.15.75.14.95.2.2.05.18.05.22-.04l.14-.35.08-.03Z"/><path fill="#ACCD8E" d="m47.02 175.63-.21 1.34c.72-.23 1.46-.58 2.23-.69 1.55-.22 2.6.7 2.62 2.2a1.97 1.97 0 0 1-2.59 1.8c-1.27-.38-1.7-1.28-1.4-2.77-.88.3-1.41 1.65-1.56 3.98.67-.23 1.2-.62 1.93-.74 1.14-.18 2.23.02 2.89 1.16.47.83.42 2.22-.45 2.93-.8.64-2.2.6-3-.14a2.32 2.32 0 0 1-.49-2.56l.17-.29c-.38.04-.87.6-1.01 1.12-.41 1.43-.6 2.73-.86 4.22a5.34 5.34 0 0 1 2.36-1.16c1.28-.2 2.4 0 3.15 1.19.53.84.4 1.95-.28 2.82-.43.55-1.56.93-2.53.6-1.34-.44-1.7-1.96-1.15-3.32-1 .58-1.5 1.44-1.7 2.47-.2 1.05-.35 2.12-.5 3.2-.08.44-.17.73-.76.63-.54-.08-.52-.42-.45-.81.16-.98.33-1.95.45-2.93.1-.76.14-1.54-.2-2.18-.22.61-.32 1.08-.67 1.5-.6.7-1.45.77-2.31.52-.86-.25-1.22-.91-1.32-1.72a2.26 2.26 0 0 1 1.52-2.47c.98-.3 2.34-.13 3.03 1.1l.36.72c.24-1.54.4-2.82.56-4.28.1-.87-.71-1.98-1.53-2.33.23.39.34.74.4 1.14.04.94-.38 1.56-1.1 2-.74.46-1.55.45-2.24.02-1.15-.73-1.3-2.06-.53-3.2.63-.92 1.87-1.2 3.06-.9 1.15.4 1.33.43 2.27 1.33.43-1.44.65-3.5-.04-4.34 0 .28-.03.44-.09.76-.22.84-.66 1.17-1.62 1.28-1.07.12-2.03-.4-2.27-1.3-.25-.9.03-2.08.97-2.55.97-.48 2.48-.1 3.27.84l.61.74.17-1.06c-1.41-.8-1.6-1.97-1.24-2.94.43-1.16 1.6-1.68 2.87-1.33 1 .28 1.65 1.31 1.51 2.4a2.23 2.23 0 0 1-2.3 2Z"/><path fill="#F8C758" d="M79.24 181.27c-.38 1.3-1.84 1.9-2.2 2.03-.38.13-.74.06-.92.6-.17.56-.08 1.47-.21 1.48-.04.05-.14.03-.24-.06-.09-.08-.18-1.15-.18-1.15-.06-.47-.32-.61-.5-.66l-.11-.02h-.05c-.71-.1-1.81-.07-2.23-.3-.56-.3-.92-.64-1.13-1.35-.12-.71-.18-1.07.06-1.53.25-.47.28-.44.55-.75a4.9 4.9 0 0 1 2.25-1.19c1.1-.26 2.37-.34 2.68-.31.48.01 1.5.4 1.77.7.27.3.84 1.21.46 2.52v-.01Z"/><path fill="#004854" d="M79.83 165.47c-.26-.3-.57-.49-.99-.43l-.27.09c-.27.1-.54.19-.79.32-.44.25-.64.7-.86 1.13-.15.3-.19.63-.2.97l-.07 1.42-.02.7c-.02.46-.05.92-.06 1.39v1.04c-.09.43-.26.83-.52 1.17a3.2 3.2 0 0 0-.62 1.35l-.03.19v.03c-.06.37-.16 1.16-.23 1.94l-.04-.27c-.13-.8-.17-1.63-.23-2.44a.95.95 0 0 1 .35-.78c.17-.15.33-.3.47-.46a.4.4 0 0 0 .1-.45c-.1-.26-.3-.36-.53-.44a.5.5 0 0 1-.23-.13.52.52 0 0 1-.02-.62c.17-.25.39-.46.6-.67.25-.23.5-.47.51-.82a1.78 1.78 0 0 0-.97-1.65 1.16 1.16 0 0 1-.62-.66c-.05-.13-.08-.34 0-.45.16-.23.36-.43.58-.6.3-.23.65-.41.8-.79.12-.33.24-.68.32-1.02.06-.25.09-.5.08-.75-.01-.25-.07-.5-.13-.73-.12-.38-.5-.82-1.03-.75-.43.05-.79.22-1.13.45-.47.31-.84.71-.98 1.28-.04.2-.06.42-.08.64-.03.37-.07.74-.07 1.11 0 .69.14 1.35.29 2.01.12.52.2 1.04.3 1.57 0 .05.03.09.03.14.06.33.13.65.17.97.03.18 0 .37-.01.55 0 .1-.04.23-.05.34l-.06.02-.1-.38-.32-1.4c-.1-.5-.18-1.02-.29-1.53a5.4 5.4 0 0 0-.11-.45l-.36-1.17c-.1-.3-.19-.6-.31-.9-.17-.39-.36-.76-.54-1.14-.26-.54-.52-1.1-.8-1.63-.34-.6-.7-1.2-1.06-1.77a8.94 8.94 0 0 0-1.36-1.65 1.9 1.9 0 0 0-1.43-.36 2.97 2.97 0 0 0-1.78 1.22c-.26.37-.4.71-.4 1.19 0 .19.01.3.04.45.03.17.09.35.17.5.1.2.2.44.38.57.28.22.6.4.92.56.2.1.42.14.63.22.53.19.72.65.49 1.16l-.33.66c-.15.33-.26.67-.08 1.02.12.22.23.46.54.48.12 0 .24.02.37 0 .56-.06 1.1-.15 1.67-.2.54-.06.96.5.86 1.01-.06.3-.24.5-.41.73-.2.25-.3.52-.25.84.03.16.1.32.18.48.09.23.27.36.5.41.1.02.2 0 .29-.01.24-.04.47-.12.71-.12.33 0 .5.08.59.34.1.26.19.53-.08.77-.16.15-.3.3-.45.47a.97.97 0 0 0-.18 1c.2.47.6.76 1.07.9.31.09.65.07.97.12.33.05.62.16.8.44.26.38.35.82.43 1.25l.16 1.13a6.14 6.14 0 0 0-1.68-2.1l-.03-.03a3.62 3.62 0 0 0-1.08-.57 2.75 2.75 0 0 1-1.61-1.4l-.4-.83a.96.96 0 0 0-.77-.53c-.4-.05-.65.15-.84.48-.18.32-.21.8.07 1.1.2.22.45.3.7.4.2.08.44.17.51.4.1.3.08.6-.15.87-.13.16-.24.32-.35.5-.09.15-.04.28.09.4.23.2.53.28.83.26.45-.03.85-.25 1.27-.4.2-.08.42-.13.63-.15.2-.03.34.1.35.28 0 .08 0 .18-.02.27-.04.23-.02.31.2.36.14.03.3.03.44 0 .29-.1.52-.1.78.1.42.34.62.8.79 1.26.1.32.11.67.16 1v.09c.42-.09.85-.16 1.23-.2a.18.18 0 0 1-.02-.06c-.04-.2-.1-.4-.11-.6a7.41 7.41 0 0 1-.02-1.11c.03-.39.24-.7.57-.9l.38-.29c.1-.08.1-.21.05-.32-.03-.12-.13-.14-.24-.15-.21 0-.3-.13-.26-.32.09-.44.41-.66.78-.81.24-.1.47-.18.64-.4.2-.25.22-.33.04-.59-.15-.21-.12-.37.1-.48.17-.09.35-.13.51-.22.14-.09.3-.18.4-.3.15-.2.07-.5-.12-.71-.25-.27-.25-.51.01-.7.2-.13.42-.24.64-.36.2-.12.4-.23.44-.49a.7.7 0 0 0-.38-.74c-.18-.1-.34-.28-.49-.45-.15-.16-.1-.46.06-.6.23-.18.46-.36.7-.5.3-.15.48-.36.53-.65.05-.31.02-.63-.2-.9l-.02-.03Z"/><path fill="#78361C" d="M100.39 178.16a1.58 1.58 0 0 1-.3-1.1c0-.13.02-.36-.06-.49-1-1.45-2.7-3.8-3.56-5.22-.18-.38-.1-1.3 0-1.57.07-.3.2-.58.4-.76.39-.36 2.95-2.08 3.47-2.33 3.3-2.06 9-5.9 11.7-8.9l.99-1c-.54-.76-.49-1.35-.49-1.35.7-.33 1.16.14 1.16.14-.19-.86.4-1.3.42-1.28.42.19.73.8.8 1.13.08.07.25.12.66.18.77.1.95.42 1.08.53.14.12 2.45 1.06 2.77 1.12.5.09.89.58.68 1.03-.25.6-.4.54-.79.78-.39.23-.4.15-.56.13-.17-.01-.15-.02-.33.1-.18.12-1.26.72-2.06 1.16-.68.37-.85.74-.98 1.23-.25.83.33 1.82.5 2.94.12.39.23 1.19-.12 1.76l1.93 3.45c.24.32.6.56.97.93l.38.52c.05.06.04.11-.01.14l-.97.7c-.05.04-.1 0-.13-.01-.7-.61-.9-.97-1.78-2.1-.4-.49-.91-1.15-1.18-1.5l-.41-.06c.17.55.52 1.33.62 1.5.35.56 1.31 1.84 1.8 2.22l.3.42c.03.05.04.1 0 .11l-1 .72c-.04.04-.09.03-.12 0-.05-.03-.33-.3-.5-.47-.04-.03-1.06-1.36-1.06-1.36-.28-.4-1.17-1.66-1.86-2.5a89.42 89.42 0 0 1-6.63 4.88c.33.7.04 1.66-.7 2.32.7 1 1.25 1.65 2.03 2.29.3.2.6.58.65.64.03.03.08.09.03.13l-.98.71c-.06.05-.1.03-.15-.01-.36-.34-1.12-1.1-1.62-1.48-.43-.36-.8-.88-1.29-1.37l-.21.42c.1.34.24.75.32.92.33.63 1.05 1.8 1.62 2.32.03.04.08.11 0 .16l-.92.67c-.09.06-.15 0-.18-.03-.78-.62-1.6-2.28-2.33-3.36-.5-.57-1.95-2.62-2.42-3.27-.78-.99-1.2-1.42-2.37-2.92l1.3 2.25a34.7 34.7 0 0 0 1.77 2.37c.34.22.6.58.7.98v.02c.07.34.03.71-.12 1.04a1.6 1.6 0 0 1-.86-.6v-.01Z"/><path fill="#1D1511" d="m155.25 181.45-.7-.34c-.12.52-.27.8-.47 1.17-.05.12-.11.24-.18.35-.17.33-.36.68-.45.73l.7.34c-.08.2-.12.34-.1.35l.5.24c.06.03.42-.6.8-1.4.4-.8.67-1.46.61-1.49l-.5-.24s-.1.1-.21.28v.01Z"/><path fill="#9BCAB9" d="m153.44 183.36-1.15.77c-.16.09-.37.06-.58-.03-.21-.1-13.36-6-15.78-6.44 0 0-.87-.44-.88-.48 0-.05 1.41-2.7 1.83-3.54.41-.84 1.74-3.62 1.78-3.65.04-.02.53.22.91.44.2.14 3.91 2.73 7.88 5 3.96 2.26 6.34 3.7 6.54 3.8.2.11.41.22.48.52.07.3.07 1.37.07 1.37-.11.51-.27.8-.46 1.16-.2.37-.5 1.01-.64 1.09Z"/><path fill="#003273" d="M161.8 166.9c-.34-1-1.1-2.95-1.3-4.87-.21-1.92-.37-3.54.17-4.59.54-1.05 1.18-1.8 2.44-1.97 1.25-.17 2.59.03 3.66 1 1.08 1 1.87 2.8 2.19 3.82.32 1.02.56 2.4.23 4.05a19.98 19.98 0 0 1-1.77 4.98c-.65 1.35-1.6 3.14-2.76 3.07-.52-.03-.63-.24-1-.83-.37-.6-1.57-3.8-1.86-4.66Z"/><path fill="#1D1511" d="M3.54 188.08c-.3-.97-1.57-4.39-1.8-4.96-1.1-2.79-1.58-4.04-2.05-4.57-.14-.16-.48-.7-1.37-1.28-.9-.56-1.16-.55-1.69-.63a6.88 6.88 0 0 0-4.02.26c-1.03.44-2.43 1.03-3.45 1.5-1.3.56-2.44.94-3.6.56l-1.82-.72c-1.06-.36-2.17-.5-3.27-.74a13.17 13.17 0 0 0-3.03-.08c-.13-.1-.23-.24-.33-.36a2.03 2.03 0 0 0-.42-.35l-.05-.03a1.61 1.61 0 0 0-.48-.18c-.03.37.1.79.35 1.13-.05.03-.14.06-.24.13a1.54 1.54 0 0 0-1.12-.64 1.48 1.48 0 0 0 .12.51c.07.15.15.3.26.42.08.09.17.18.24.28-.2.43-.32.89-.43 1.35-.2.8-.3 1.63-.52 2.44-.18.64-.27 1.08.12 1.66a.7.7 0 0 0 .6.34c.43.04.96-.15 1-.45.03-.2.07-.4.2-.55.3-.4.65-.79 1.01-1.15.21-.2.48-.37.73-.5.1-.06.3.02.39.1.34.3.66.64 1 .94.93.82 1.88 1.58 2.3 2.84.14.32.27.5.47.7.48.48.49.47.97.89.15.14.3.32.45.53.32.5 1.45 2.25 1.54 2.44.22.46.97 3.34 1 3.53.04.4.24 1.8.27 2 .01.1.05.1.08.1l1.19-.37c.08-.02.07-.05.05-.1l-.37-.67s-.08-.28-.08-.34.3-.37.32-.52c0-.1-.9-2.8-.94-2.97-.04-.17 0-1.04-.03-1.23 0-.08-.18-.71-.4-1.5.47.64.99 1.33 1.02 1.42.08.16.95 3.36.97 3.54l.27 2c.02.08.05.1.09.1l1.17-.36c.08-.02.07-.05.06-.1l-.36-.68s-.08-.27-.08-.34c0-.06.3-.36.32-.51.01-.12-.92-2.8-.95-2.97-.03-.17.02-.96-.02-1.23-.02-.12-.27-1.03-.56-2.04l1.94-.61c1.93-.63 2.98-1.1 3.87-1.48.63.67 1.7 1.9 1.8 2.08.1.2.93 3.26.96 3.54l.27 2c.02.08.05.1.1.1l1.18-.36c.08-.03.07-.05.05-.1l-.37-.68s-.08-.25-.08-.34c0-.1.33-.41.32-.51l-.55-1.85c-.08-.28-.27-2.18-.32-2.39-.02-.13-.56-1.48-.87-2.3.56.69 1.74 1.98 1.82 2.11.1.16.95 3.4.97 3.55.02.13.26 1.83.27 2 .01.07.05.1.1.1l1.18-.37c.08-.02.07-.04.05-.1l-.37-.67s-.08-.23-.08-.34c0-.11.31-.37.32-.52 0-.14-.52-1.6-.55-1.84-.03-.25-.27-2.18-.32-2.39-.04-.2-.95-2.46-1.07-2.84-.08-.47-.12-.79-.15-1.06 0-.28.01-.54-.02-.92a7.1 7.1 0 0 0-.48-2c.4.68.79 1.78 1.16 3.01.25.85.67 1.7 1.23 3.47.26.86.79 2.84.79 2.84l1.8.28h-.03Z"/><path fill="#F9B0A0" d="M233.9 171.12c.32-.28.86-1.77.93-2.3a7.54 7.54 0 0 0-.64-2.82c-.32-.54-1.5-1.58-2.37-2.23-.88-.65-4.87-3-5.85-3.52-.44-.24-1-.41-1-.41s-.32-.08-.41-.15c-.1-.07-.12-.21-.56-.54-.31-.23-.45-.1-.58-.02-.3-.4-.46-.9-.15-1.5a2.7 2.7 0 0 1 2.09-1.34c1.43-.1 2.73.5 4.76 1.83.89.58 2.24 1.68 2.24 1.68l.21-.27c-.19-.15-.72-.66-1.7-1.37-.56-.4-1.23-1.07-3.1-1.85-1.34-.56-2.66-.74-3.95.1-1.21.78-1.24 1.88-.9 2.58-.27-.2-.6-.48-.63-.52-.05-.05-.88-.15-.98-.18-.1-.04-.1.34-.01.45.08.1 1.16.91 1.65 1.52l-1.16-.67a2.86 2.86 0 0 1-1.3-3.3 3.59 3.59 0 0 1 2.42-2.63c1.42-.34 2.71.19 3.74.57 1.04.38 2.41 1.1 2.41 1.1l.16-.32s-.59-.5-2.75-1.34c-2.17-.84-3.42-.53-3.82-.4-.4.11-1.77.65-2.4 2.1a3.73 3.73 0 0 0 .36 3.73c.64.88 2.48 1.66 2.9 1.86.18.16.34.24.5.35.27.2.25.44.4 1 .14.57 2.06 2.78 2.59 3.13.52.36 1.87.78 1.87.78-.33.13-.54.54-.6 1.12-.07.58-.43 1-.5 1.18-.07.17.01.4.14.45.13.04.87-1.16.92-.98.05.17-.03.3-.2 1.2-.16.88 0 1.1.07 1.28.06.2.3-.08.44-.13.14-.06.6-1.06.79-1.03.17.04.31.35.2.66-.1.31-2.04 1.03-2.25 1.07-.23.03-1.09-.78-1.54-1.02-.45-.23-2.58-1.35-2.78-1.12-.2.24.3 1.56.59 1.83.28.26 1.88 1.16 2.68 1.58.81.43.9.45.95.62.05.17.68.25 1.45.24.78-.02 1.87-.37 2.72-.65.85-.27 1.63-1.13 1.96-1.42v.02Z"/><path fill="#004854" d="M233.24 208.53c.02-.06.08-.25.07-.26a3.08 3.08 0 0 0-.8-.24c-.24-.03-.38-.02-.57-.03-.17-.01-.34-.02-.52-.08.04-.02.27-.15.53-.26.3-.13.52-.18.7-.26.11-.05.24-.12.2-.19l-.2-.35c-.1-.19-.11-.17-.25-.13-.14.04-.43.17-.5.2-.33.13-.66.28-.95.5-.23.16-.44.18-.7.03a1.8 1.8 0 0 0-.45-.17c-.6-.12-1.04.04-1.36.48l-.14.2c-.26.3-.52.49-.83.6-.23.07-1 .38-1.16.44-.1.04-.45.12-.5.14a3.5 3.5 0 0 1-.5.1c.15-.17.29-.26.41-.33l.6-.32.49-.26c.33-.18.62-.42.86-.72.25-.32.5-.68.73-1.1.16-.27.37-.4.7-.42.5-.04 1.03-.1 1.53-.16l.19-.03c.21-.02.62-.14.66-.17.03-.04.03-.05.02-.13-.02-.08-.06-.38-.1-.39l-.2.01-.44.03-.51.02.32-.23.74-.53c.16-.1.37-.3.38-.35.02-.05-.24-.31-.31-.39-.06-.07-.1-.12-.14-.13-.03-.02-.12.04-.14.06l-.26.18c-.42.3-.85.6-1.22.97-.07.06-.17.19-.38.24.08-.21.19-.31.24-.37.13-.16.27-.33.44-.47a8.11 8.11 0 0 0 .96-.91l.15-.16c.05-.06-.49-.43-.56-.4-.07.03-.24.18-.35.3-.13.13-.26.26-.44.34.01-.13.06-.23.1-.33l.27-.6c.05-.11.1-.22.04-.27a2.14 2.14 0 0 0-.6-.1c-.16 0-.2 0-.22.17l-.23.93c-.08.35-.45 1.1-.45 1.1-.08.17-.35.54-.37.56-.2.27-.94.57-1.01.6-.4.09-.69.34-.88.76a7.01 7.01 0 0 0-.27.84c-.07.31-.26.54-.57.72-.45.26-1.52 1.04-1.8 1.27-.28.22-1.07.93-1.82 1.29a.84.84 0 0 1 0-.35l.12-.75c.02-.15.07-.29.17-.44.27-.4.62-.79 1.1-1.2.19-.16.41-.29.64-.38a2.16 2.16 0 0 0 1.46-1.48c.07-.2.16-.44.37-.63.23-.2.44-.42.64-.64.25-.27.5-.54.78-.77a7.8 7.8 0 0 0 .79-.79c.1-.1.16-.22.1-.24-.06-.02-.62-.2-.68-.17-.06.02-.27.28-.39.43-.2.25-.41.51-.73.7 0-.02.05-.24.14-.42l.27-.58c.13-.26.16-.34 0-.39-.13-.04-.7-.06-.7-.06-.2.02-.16.1-.4.69-.03.08-.11.4-.14.46-.14.4-.36.77-.56 1.1-.23.37-.5.72-1 .83-.07.02-.5.13-.71.53-.1.2-.14.38-.18.57-.06.31-.22.6-.5.89-.4.44-.78.93-1.12 1.45l-.09.07.03-.5c.03-.28.36-1.86.4-2 .06-.3.1-.6.01-.92l-.24-.9c-.05-.14-.08-.3-.02-.44.26-.6.41-1.12.97-1.54.63-.46 1.06-1.18 1.2-1.4.15-.21.56-.45.85-.74.22-.23.48-.51.53-.6.06-.07.16-.19.07-.23-.11-.04-.55-.21-.6-.2-.07.01-.78.68-.97.8-.05-.06 0-.15.03-.21l.3-.73.17-.49c.01-.04.04-.08 0-.12-.03-.04-.1-.04-.14-.04-.27.02-.56 0-.84.02-.22.02-.22.1-.27.24l-.24.75c-.18.44-.37.9-.62 1.3 0 0-.5.85-.69 1.27-.1.24-.23.48-.42.77-.17.25-.29.5-.35.76-.03.12-.1.32-.2.46-.07-.7.07-1.13.16-1.58.06-.35.16-.67.03-1.16a6.17 6.17 0 0 1-.05-1.54c0-.05.03-.27-.02-.29-.06-.03-.2.04-.28.08l-.77.47c-.15.11-.07.25.04.9.03.12.06.45.06.46.01.04.01.07-.02.1l-.68-1.26c-.04-.08-.1-.13-.17-.14-.05-.02-.12 0-.18.03-.15.1-.29.21-.42.32-.03.03-.07.1-.06.15 0 .04.05.38.11.47.1.12.19.27.27.41a13.5 13.5 0 0 1 .86 1.5c.02.11.07.77.07.83-.01.16-.07.73-.1.83-.09.19-.36.8-.44 1.1a.9.9 0 0 0 .08.7c.2.33.4.65.79.78.22.08.39.23.5.47.1.2.3 1.15.31 1.19.06.28.07.52 0 .75-.08.35-.18.69-.3.99-.32.96-.83 1.8-1.4 2.74 0 0-.08.16-.18.18a7.62 7.62 0 0 0-.57-1.52c-.04-.05-.25-.4-.34-.5-.18-.19-.28-.43-.32-.75 0-.03-.03-.27-.06-.35-.12-.42-.03-.82.28-1.23.26-.34.46-.62.63-.87.15-.2.49-.55.39-.63a1.94 1.94 0 0 0-.21-.13c-.19-.12-.2.01-.33.16-.14.17-.38.6-.38.6-.02.04-.03.06-.11.08l.15-.84c.04-.23 0-.58-.12-.62-.05-.01-.24.08-.31.1-.5.22-.48.17-.31.71.1.31.1.59-.03.85l-.2.52-.1.22c-.14-.16-.22-.3-.27-.5-.03-.14-.23-1.4-.3-1.7 0-.03-.06-.18-.1-.19-.03 0-.13.06-.21.11-.08.05-.17.1-.34.25v.06l.1.32c.03.16.08.32.13.48v.02s-.03.02-.05.01l-.52-.6a.83.83 0 0 0-.26-.2c-.06-.02-.16-.01-.2.03a.34.34 0 0 1-.07.06c-.11.13-.3.4-.24.46l1.16 1.14c.25.26.32.51.23.8-.06.21-.05.56.06.83.1.23.27.45.58.61.44.16.77.53.8.58.45.67.77 1.4.87 2.17.02.22.06.42.12.6.1.3.36.96.36.96.15.36.21.67.23.96.01.55-.03 1-.16 1.38-.04.13-.05.27-.03.45 0 .02 0 .05.03.06.02.02.55.28.59.26.14-.08.42-.53.56-.78a12.28 12.28 0 0 1 .64-.93c.27-.39.54-.66.86-.86.16-.1 1.03-.78 1.14-.88.15-.12.3-.18.5-.2.05 0 .45-.05.6-.05.4-.01.72-.11.98-.3.2-.15.37-.29.52-.44.1-.08.61-.3.84-.34l.96-.19c.34-.1.74-.41.76-.45.02-.04-.03-.16-.1-.25-.06-.08-.23-.32-.29-.3-.12.03-.33.2-.49.27l-.74.4a.75.75 0 0 1-.22.03l.07-.16a14.94 14.94 0 0 1 1.2-1.3c.07-.1-.03-.13-.22-.19-.13-.04-.4-.14-.55-.09-.08.06-.19.3-.26.42a4.7 4.7 0 0 1-.57.82.7.7 0 0 1-.56.25l-.68-.03c-.22-.02-.6-.06-.8.03-.4.17-.66.49-.94.96-.11.17-.28.32-.5.44-.25.13-1.14.65-1.38.71 0-.01 0-.27.12-.7.12-.42.2-.93.22-1.05.08-.39.15-.54.47-1.07a4.02 4.02 0 0 1 1.56-1.26c.35-.15.73-.28 1.09-.4.18-.07 2.43-.75 2.64-.86.1-.05 1.5-.61 2.02-.74.51-.13 1.3-.18 1.36-.19.42-.04.84-.09 1.21-.32.3-.18.6-.13.84-.05.44.15.75.14.94.2.2.05.19.05.22-.04l.15-.35.08-.03Z"/><path fill="#ACCD8E" d="m254.61 175.63-.2 1.34c.72-.23 1.46-.58 2.23-.69 1.54-.22 2.6.7 2.62 2.2a1.97 1.97 0 0 1-2.59 1.8c-1.27-.38-1.7-1.28-1.4-2.77-.88.3-1.42 1.65-1.56 3.98.67-.23 1.19-.62 1.92-.74 1.15-.18 2.24.02 2.9 1.16.47.83.42 2.22-.46 2.93-.8.64-2.19.6-2.99-.14a2.32 2.32 0 0 1-.49-2.56l.17-.29c-.38.04-.87.6-1.02 1.12-.4 1.43-.58 2.73-.85 4.22a5.34 5.34 0 0 1 2.36-1.16c1.27-.2 2.4 0 3.14 1.19.54.84.4 1.95-.27 2.82-.44.55-1.57.93-2.54.6-1.34-.44-1.7-1.96-1.14-3.32-1 .58-1.5 1.44-1.7 2.47-.2 1.05-.35 2.12-.51 3.2-.07.44-.16.73-.75.63-.54-.08-.52-.42-.45-.81.16-.98.33-1.95.45-2.93.09-.76.14-1.54-.2-2.18-.22.61-.32 1.08-.67 1.5-.6.7-1.45.77-2.31.52-.86-.25-1.22-.91-1.32-1.72a2.26 2.26 0 0 1 1.52-2.47c.98-.3 2.34-.13 3.03 1.1l.35.72c.25-1.54.4-2.82.57-4.28.1-.87-.71-1.98-1.53-2.33.22.39.33.74.39 1.14.05.94-.37 1.56-1.1 2-.73.46-1.54.45-2.24.02-1.14-.73-1.3-2.06-.52-3.2.62-.92 1.87-1.2 3.06-.9 1.15.4 1.33.43 2.26 1.33.44-1.44.66-3.5-.03-4.34 0 .28-.03.44-.09.76-.22.84-.67 1.17-1.62 1.28-1.07.12-2.04-.4-2.28-1.3-.24-.9.04-2.08.98-2.55.97-.48 2.48-.1 3.27.84.2.25.42.5.6.74l.17-1.06c-1.4-.8-1.6-1.97-1.24-2.94.44-1.16 1.6-1.68 2.88-1.33 1 .28 1.65 1.31 1.5 2.4a2.23 2.23 0 0 1-2.3 2Z"/><path fill="#1D1511" d="M211.13 188.08c-.3-.97-1.56-4.39-1.79-4.96-1.1-2.79-1.58-4.04-2.05-4.57-.15-.16-.48-.7-1.38-1.28-.9-.56-1.15-.55-1.68-.63a6.88 6.88 0 0 0-4.02.26c-1.03.44-2.43 1.03-3.46 1.5-1.29.56-2.43.94-3.58.56-.18-.06-1.68-.67-1.83-.72-1.06-.36-2.18-.5-3.27-.74a13.16 13.16 0 0 0-3.04-.08c-.12-.1-.22-.24-.32-.36a2.01 2.01 0 0 0-.42-.35l-.05-.03a1.6 1.6 0 0 0-.48-.18c-.04.37.1.79.35 1.13-.05.03-.14.06-.24.13a1.54 1.54 0 0 0-1.12-.64c0 .15.04.3.1.46a1.56 1.56 0 0 0 .28.47c.08.09.17.18.24.28-.2.43-.32.89-.44 1.35-.2.8-.3 1.63-.51 2.44-.18.64-.27 1.08.12 1.66a.7.7 0 0 0 .6.34c.43.04.96-.15 1-.45.03-.2.07-.4.19-.55.31-.4.65-.79 1.02-1.15.2-.2.47-.37.73-.5.09-.06.3.02.39.1.34.3.66.64 1 .94.92.82 1.88 1.58 2.3 2.84.14.32.27.5.46.7.5.48.5.47.97.89.16.14.3.32.46.53.32.5 1.45 2.25 1.54 2.44.22.46.97 3.34 1 3.53.04.4.24 1.8.26 2 .02.1.05.1.09.1l1.19-.37c.08-.02.06-.05.05-.1l-.37-.67s-.08-.28-.08-.34.3-.37.32-.52c0-.1-.9-2.8-.94-2.97-.04-.17 0-1.04-.03-1.23a39.7 39.7 0 0 0-.4-1.5c.47.64.98 1.33 1.02 1.42.08.16.94 3.36.97 3.54l.27 2c.01.08.05.1.09.1l1.17-.36c.08-.02.07-.05.06-.1l-.36-.68s-.08-.27-.08-.34c0-.06.3-.36.32-.51.01-.12-.92-2.8-.95-2.97-.03-.17.02-.96-.02-1.23-.02-.12-.27-1.03-.56-2.04l1.94-.61c1.93-.63 2.97-1.1 3.87-1.48.62.67 1.7 1.9 1.8 2.08.1.2.92 3.26.96 3.54l.27 2c.01.08.05.1.09.1l1.19-.36c.07-.03.06-.05.05-.1l-.37-.68s-.09-.25-.08-.34c0-.1.33-.41.31-.51 0-.1-.46-1.56-.54-1.85-.08-.28-.28-2.18-.32-2.39-.02-.13-.56-1.48-.87-2.3.56.69 1.74 1.98 1.82 2.11.1.16.95 3.4.97 3.55l.27 2c0 .07.05.1.09.1l1.19-.37c.07-.02.06-.04.05-.1l-.37-.67s-.09-.23-.08-.34c0-.11.3-.37.31-.52 0-.14-.5-1.6-.54-1.84-.03-.25-.28-2.18-.32-2.39-.04-.2-.95-2.46-1.07-2.84-.08-.47-.12-.79-.15-1.06 0-.28 0-.54-.02-.92a7.1 7.1 0 0 0-.48-2c.4.68.79 1.78 1.16 3.01.25.85.67 1.7 1.23 3.47.26.86.79 2.84.79 2.84l1.79.28h-.03Z"/><path fill="#F9B0A0" d="M26.3 171.12c.33-.28.86-1.77.93-2.3a7.54 7.54 0 0 0-.64-2.82c-.31-.54-1.5-1.58-2.37-2.23-.88-.65-4.87-3-5.84-3.52-.44-.24-1.01-.41-1.01-.41s-.32-.08-.4-.15c-.1-.07-.13-.21-.57-.54-.31-.23-.45-.1-.58-.02-.3-.4-.46-.9-.14-1.5a2.7 2.7 0 0 1 2.08-1.34c1.43-.1 2.73.5 4.77 1.83.88.58 2.23 1.68 2.23 1.68l.21-.27c-.18-.15-.71-.66-1.7-1.37-.56-.4-1.23-1.07-3.1-1.85-1.34-.56-2.65-.74-3.95.1-1.21.78-1.24 1.88-.89 2.58a6.2 6.2 0 0 1-.64-.52c-.05-.05-.88-.15-.98-.18-.1-.04-.1.34-.01.45.09.1 1.17.91 1.65 1.52l-1.16-.67a2.86 2.86 0 0 1-1.3-3.3 3.59 3.59 0 0 1 2.42-2.63c1.42-.34 2.71.19 3.74.57 1.04.38 2.41 1.1 2.41 1.1l.16-.32s-.58-.5-2.75-1.34c-2.17-.84-3.42-.53-3.82-.4-.4.11-1.76.65-2.4 2.1a3.73 3.73 0 0 0 .36 3.73c.65.88 2.48 1.66 2.9 1.86.19.16.34.24.5.35.27.2.25.44.4 1 .14.57 2.06 2.78 2.6 3.13.52.36 1.86.78 1.86.78-.33.13-.54.54-.6 1.12-.07.58-.43 1-.5 1.18-.07.17.02.4.14.45.13.04.87-1.16.92-.98.05.17-.03.3-.2 1.2-.15.88 0 1.1.07 1.28.07.2.3-.08.44-.13.14-.06.6-1.06.79-1.03.17.04.31.35.2.66-.1.31-2.04 1.03-2.25 1.07-.22.03-1.08-.78-1.54-1.02-.45-.23-2.58-1.35-2.78-1.12-.2.24.3 1.56.59 1.83a26 26 0 0 0 2.68 1.58c.81.43.9.45.95.62.05.17.68.25 1.46.24.77-.02 1.86-.37 2.71-.65.86-.27 1.63-1.13 1.96-1.42v.02Z"/><path fill="#004854" d="M25.64 208.53c.02-.06.09-.25.07-.26a3.09 3.09 0 0 0-.8-.24c-.23-.03-.38-.02-.57-.03-.16-.01-.34-.02-.52-.08.04-.02.27-.15.54-.26.29-.13.5-.18.7-.26.1-.05.23-.12.2-.19l-.2-.35c-.1-.19-.12-.17-.26-.13-.14.04-.43.17-.5.2-.33.13-.66.28-.95.5-.22.16-.44.18-.7.03a1.8 1.8 0 0 0-.45-.17c-.6-.12-1.04.04-1.36.48l-.14.2c-.25.3-.51.49-.82.6-.24.07-1 .38-1.16.44l-.5.14c-.18.05-.33.07-.52.1.16-.17.3-.26.42-.33l.6-.32c.16-.09.32-.18.5-.26.32-.18.6-.42.85-.72.25-.32.5-.68.73-1.1.16-.27.37-.4.7-.42.5-.04 1.03-.1 1.53-.16l.19-.03c.22-.02.62-.14.66-.17.04-.04.04-.05.02-.13-.01-.08-.06-.38-.1-.39l-.2.01c-.15.02-.29.03-.44.03l-.5.02.31-.23.74-.53c.16-.1.37-.3.39-.35.01-.05-.25-.31-.32-.39-.06-.07-.1-.12-.13-.13-.04-.02-.13.04-.15.06l-.26.18c-.42.3-.85.6-1.22.97-.07.06-.17.19-.38.24.08-.21.19-.31.24-.37.13-.16.27-.33.44-.47a8.11 8.11 0 0 0 .96-.91l.15-.16c.05-.06-.48-.43-.56-.4-.07.03-.24.18-.35.3-.12.13-.26.26-.44.34.02-.13.06-.23.1-.33l.27-.6c.05-.11.1-.22.05-.27a2.14 2.14 0 0 0-.61-.1c-.15 0-.19 0-.22.17l-.22.93c-.09.35-.45 1.1-.45 1.1-.08.17-.36.54-.38.56-.2.27-.93.57-1 .6-.4.09-.7.34-.88.76-.06.13-.15.42-.15.42l-.13.42c-.07.31-.26.54-.57.72a22.5 22.5 0 0 0-1.8 1.27c-.28.22-1.07.93-1.82 1.29a.81.81 0 0 1 0-.35c.04-.23.1-.5.12-.75.02-.15.08-.29.17-.44.27-.4.62-.79 1.1-1.2.2-.16.41-.29.64-.38a2.16 2.16 0 0 0 1.46-1.48c.07-.2.16-.44.38-.63.22-.2.43-.42.63-.64.25-.27.5-.54.79-.77a7.7 7.7 0 0 0 .78-.79c.1-.1.16-.22.1-.24-.06-.02-.62-.2-.68-.17-.06.02-.27.28-.38.43-.21.25-.42.51-.74.7 0-.02.05-.24.14-.42l.28-.58c.13-.26.15-.34 0-.39a5 5 0 0 0-.71-.06c-.2.02-.16.1-.4.69a5.74 5.74 0 0 1-.7 1.56c-.23.37-.5.72-1 .83-.07.02-.5.13-.7.53-.1.2-.14.38-.19.57-.06.31-.21.6-.5.89-.4.44-.78.93-1.12 1.45l-.09.07.03-.5c.03-.28.36-1.86.4-2 .07-.3.1-.6.02-.92l-.25-.9c-.04-.14-.08-.3-.02-.44.27-.6.41-1.12.97-1.54.63-.46 1.06-1.18 1.2-1.4.15-.21.57-.45.85-.74.22-.23.48-.51.53-.6.06-.07.16-.19.07-.23-.11-.04-.54-.21-.6-.2-.07.01-.78.68-.97.8-.05-.06 0-.15.03-.21l.3-.73c.07-.16.12-.33.17-.49.01-.04.04-.08 0-.12-.03-.04-.1-.04-.14-.04-.27.02-.56 0-.84.02-.22.02-.22.1-.27.24l-.24.75a9.6 9.6 0 0 1-.61 1.3s-.52.85-.7 1.27c-.1.24-.23.48-.42.77-.17.25-.29.5-.35.76-.03.12-.1.32-.2.46-.06-.7.07-1.13.16-1.58.07-.35.17-.67.03-1.16a6.13 6.13 0 0 1-.04-1.54c0-.05.03-.27-.03-.29-.05-.03-.2.04-.28.08l-.77.47c-.15.11-.07.25.04.9.04.12.07.45.07.46 0 .04 0 .07-.03.1l-.68-1.26c-.04-.08-.1-.13-.16-.14-.06-.02-.13 0-.19.03-.15.1-.28.21-.41.32-.04.03-.08.1-.06.15 0 .04.04.38.1.47.11.12.2.27.27.41a13.44 13.44 0 0 1 .86 1.5c.03.11.07.77.07.83 0 .16-.07.73-.1.83-.09.19-.36.8-.43 1.1a.9.9 0 0 0 .07.7c.2.33.4.65.8.78.2.08.38.23.5.47.08.2.3 1.15.3 1.19.06.28.07.52 0 .75-.08.35-.18.69-.29.99-.33.96-.83 1.8-1.4 2.74 0 0-.09.16-.19.18a7.6 7.6 0 0 0-.57-1.52c-.04-.05-.25-.4-.34-.5-.17-.19-.28-.43-.32-.75 0-.03-.03-.27-.06-.35-.11-.42-.03-.82.28-1.23l.64-.87c.14-.2.48-.55.38-.63-.06-.05-.21-.13-.21-.13-.19-.12-.2.01-.33.16-.14.17-.37.6-.38.6-.02.04-.03.06-.11.08l.15-.84c.04-.23 0-.58-.11-.62-.06-.01-.25.08-.32.1-.5.22-.48.17-.3.71.09.31.08.59-.03.85l-.21.52-.09.22c-.15-.16-.23-.3-.28-.5l-.29-1.7c0-.03-.07-.18-.1-.19-.03 0-.14.06-.22.11-.07.05-.17.1-.33.25-.02.01-.02.04 0 .06l.08.32.14.48v.02s-.03.02-.04.01l-.53-.6a.81.81 0 0 0-.26-.2c-.05-.02-.16-.01-.2.03a.33.33 0 0 1-.06.06c-.12.13-.3.4-.25.46l1.17 1.14c.24.26.31.51.23.8-.07.21-.06.56.06.83.1.23.26.45.57.61.45.16.77.53.81.58.45.67.77 1.4.86 2.17.02.22.07.42.12.6.1.3.37.96.37.96.14.36.2.67.22.96.02.55-.03 1-.16 1.38-.04.13-.05.27-.03.45 0 .02.01.05.03.06.02.02.55.28.6.26.13-.08.41-.53.55-.78a11.46 11.46 0 0 1 .64-.93c.27-.39.54-.66.86-.86.16-.1 1.03-.78 1.15-.88.14-.12.3-.18.5-.2.05 0 .44-.05.59-.05.4-.01.72-.11.98-.3.2-.15.37-.29.53-.44.09-.08.6-.3.83-.34l.96-.19c.34-.1.74-.41.76-.45.02-.04-.03-.16-.1-.25-.06-.08-.22-.32-.28-.3-.13.03-.34.2-.5.27l-.74.4a.76.76 0 0 1-.22.03l.07-.16a14.62 14.62 0 0 1 1.2-1.3c.07-.1-.02-.13-.22-.19-.13-.04-.4-.14-.55-.09-.08.06-.19.3-.26.42-.14.24-.32.55-.57.82a.7.7 0 0 1-.56.25l-.68-.03c-.22-.02-.6-.06-.8.03-.4.17-.66.49-.94.96-.1.17-.27.32-.5.44-.24.13-1.14.65-1.37.71 0-.01-.01-.27.11-.7.13-.42.2-.93.22-1.05.09-.39.15-.54.47-1.07a4.02 4.02 0 0 1 1.56-1.26c.35-.15.73-.28 1.09-.4.18-.07 2.43-.75 2.64-.86.1-.05 1.5-.61 2.02-.74.51-.13 1.3-.18 1.37-.19.41-.04.83-.09 1.2-.32.3-.18.6-.13.84-.05.44.15.75.14.95.2.2.05.18.05.22-.04l.14-.35.08-.03Z"/><path fill="#ACCD8E" d="m47.02 175.63-.21 1.34c.72-.23 1.46-.58 2.23-.69 1.55-.22 2.6.7 2.62 2.2a1.97 1.97 0 0 1-2.59 1.8c-1.27-.38-1.7-1.28-1.4-2.77-.88.3-1.41 1.65-1.56 3.98.67-.23 1.2-.62 1.93-.74 1.14-.18 2.23.02 2.89 1.16.47.83.42 2.22-.45 2.93-.8.64-2.2.6-3-.14a2.32 2.32 0 0 1-.49-2.56l.17-.29c-.38.04-.87.6-1.01 1.12-.41 1.43-.6 2.73-.86 4.22a5.34 5.34 0 0 1 2.36-1.16c1.28-.2 2.4 0 3.15 1.19.53.84.4 1.95-.28 2.82-.43.55-1.56.93-2.53.6-1.34-.44-1.7-1.96-1.15-3.32-1 .58-1.5 1.44-1.7 2.47-.2 1.05-.35 2.12-.5 3.2-.08.44-.17.73-.76.63-.54-.08-.52-.42-.45-.81.16-.98.33-1.95.45-2.93.1-.76.14-1.54-.2-2.18-.22.61-.32 1.08-.67 1.5-.6.7-1.45.77-2.31.52-.86-.25-1.22-.91-1.32-1.72a2.26 2.26 0 0 1 1.52-2.47c.98-.3 2.34-.13 3.03 1.1l.36.72c.24-1.54.4-2.82.56-4.28.1-.87-.71-1.98-1.53-2.33.23.39.34.74.4 1.14.04.94-.38 1.56-1.1 2-.74.46-1.55.45-2.24.02-1.15-.73-1.3-2.06-.53-3.2.63-.92 1.87-1.2 3.06-.9 1.15.4 1.33.43 2.27 1.33.43-1.44.65-3.5-.04-4.34 0 .28-.03.44-.09.76-.22.84-.66 1.17-1.62 1.28-1.07.12-2.03-.4-2.27-1.3-.25-.9.03-2.08.97-2.55.97-.48 2.48-.1 3.27.84l.61.74.17-1.06c-1.41-.8-1.6-1.97-1.24-2.94.43-1.16 1.6-1.68 2.87-1.33 1 .28 1.65 1.31 1.51 2.4a2.23 2.23 0 0 1-2.3 2Z"/><path fill="#F8C758" d="M79.24 181.27c-.38 1.3-1.84 1.9-2.2 2.03-.38.13-.74.06-.92.6-.17.56-.08 1.47-.21 1.48-.04.05-.14.03-.24-.06-.09-.08-.18-1.15-.18-1.15-.06-.47-.32-.61-.5-.66l-.11-.02h-.05c-.71-.1-1.81-.07-2.23-.3-.56-.3-.92-.64-1.13-1.35-.12-.71-.18-1.07.06-1.53.25-.47.28-.44.55-.75a4.9 4.9 0 0 1 2.25-1.19c1.1-.26 2.37-.34 2.68-.31.48.01 1.5.4 1.77.7.27.3.84 1.21.46 2.52v-.01Z"/><path fill="#004854" d="M79.83 165.47c-.26-.3-.57-.49-.99-.43l-.27.09c-.27.1-.54.19-.79.32-.44.25-.64.7-.86 1.13-.15.3-.19.63-.2.97l-.07 1.42-.02.7c-.02.46-.05.92-.06 1.39v1.04c-.09.43-.26.83-.52 1.17a3.2 3.2 0 0 0-.62 1.35l-.03.19v.03c-.06.37-.16 1.16-.23 1.94l-.04-.27c-.13-.8-.17-1.63-.23-2.44a.95.95 0 0 1 .35-.78c.17-.15.33-.3.47-.46a.4.4 0 0 0 .1-.45c-.1-.26-.3-.36-.53-.44a.5.5 0 0 1-.23-.13.52.52 0 0 1-.02-.62c.17-.25.39-.46.6-.67.25-.23.5-.47.51-.82a1.78 1.78 0 0 0-.97-1.65 1.16 1.16 0 0 1-.62-.66c-.05-.13-.08-.34 0-.45.16-.23.36-.43.58-.6.3-.23.65-.41.8-.79.12-.33.24-.68.32-1.02.06-.25.09-.5.08-.75-.01-.25-.07-.5-.13-.73-.12-.38-.5-.82-1.03-.75-.43.05-.79.22-1.13.45-.47.31-.84.71-.98 1.28-.04.2-.06.42-.08.64-.03.37-.07.74-.07 1.11 0 .69.14 1.35.29 2.01.12.52.2 1.04.3 1.57 0 .05.03.09.03.14.06.33.13.65.17.97.03.18 0 .37-.01.55 0 .1-.04.23-.05.34l-.06.02-.1-.38-.32-1.4c-.1-.5-.18-1.02-.29-1.53a5.4 5.4 0 0 0-.11-.45l-.36-1.17c-.1-.3-.19-.6-.31-.9-.17-.39-.36-.76-.54-1.14-.26-.54-.52-1.1-.8-1.63-.34-.6-.7-1.2-1.06-1.77a8.94 8.94 0 0 0-1.36-1.65 1.9 1.9 0 0 0-1.43-.36 2.97 2.97 0 0 0-1.78 1.22c-.26.37-.4.71-.4 1.19 0 .19.01.3.04.45.03.17.09.35.17.5.1.2.2.44.38.57.28.22.6.4.92.56.2.1.42.14.63.22.53.19.72.65.49 1.16l-.33.66c-.15.33-.26.67-.08 1.02.12.22.23.46.54.48.12 0 .24.02.37 0 .56-.06 1.1-.15 1.67-.2.54-.06.96.5.86 1.01-.06.3-.24.5-.41.73-.2.25-.3.52-.25.84.03.16.1.32.18.48.09.23.27.36.5.41.1.02.2 0 .29-.01.24-.04.47-.12.71-.12.33 0 .5.08.59.34.1.26.19.53-.08.77-.16.15-.3.3-.45.47a.97.97 0 0 0-.18 1c.2.47.6.76 1.07.9.31.09.65.07.97.12.33.05.62.16.8.44.26.38.35.82.43 1.25l.16 1.13a6.14 6.14 0 0 0-1.68-2.1l-.03-.03a3.62 3.62 0 0 0-1.08-.57 2.75 2.75 0 0 1-1.61-1.4l-.4-.83a.96.96 0 0 0-.77-.53c-.4-.05-.65.15-.84.48-.18.32-.21.8.07 1.1.2.22.45.3.7.4.2.08.44.17.51.4.1.3.08.6-.15.87-.13.16-.24.32-.35.5-.09.15-.04.28.09.4.23.2.53.28.83.26.45-.03.85-.25 1.27-.4.2-.08.42-.13.63-.15.2-.03.34.1.35.28 0 .08 0 .18-.02.27-.04.23-.02.31.2.36.14.03.3.03.44 0 .29-.1.52-.1.78.1.42.34.62.8.79 1.26.1.32.11.67.16 1v.09c.42-.09.85-.16 1.23-.2a.18.18 0 0 1-.02-.06c-.04-.2-.1-.4-.11-.6a7.41 7.41 0 0 1-.02-1.11c.03-.39.24-.7.57-.9l.38-.29c.1-.08.1-.21.05-.32-.03-.12-.13-.14-.24-.15-.21 0-.3-.13-.26-.32.09-.44.41-.66.78-.81.24-.1.47-.18.64-.4.2-.25.22-.33.04-.59-.15-.21-.12-.37.1-.48.17-.09.35-.13.51-.22.14-.09.3-.18.4-.3.15-.2.07-.5-.12-.71-.25-.27-.25-.51.01-.7.2-.13.42-.24.64-.36.2-.12.4-.23.44-.49a.7.7 0 0 0-.38-.74c-.18-.1-.34-.28-.49-.45-.15-.16-.1-.46.06-.6.23-.18.46-.36.7-.5.3-.15.48-.36.53-.65.05-.31.02-.63-.2-.9l-.02-.03Z"/><path fill="#78361C" d="M100.39 178.16a1.58 1.58 0 0 1-.3-1.1c0-.13.02-.36-.06-.49-1-1.45-2.7-3.8-3.56-5.22-.18-.38-.1-1.3 0-1.57.07-.3.2-.58.4-.76.39-.36 2.95-2.08 3.47-2.33 3.3-2.06 9-5.9 11.7-8.9l.99-1c-.54-.76-.49-1.35-.49-1.35.7-.33 1.16.14 1.16.14-.19-.86.4-1.3.42-1.28.42.19.73.8.8 1.13.08.07.25.12.66.18.77.1.95.42 1.08.53.14.12 2.45 1.06 2.77 1.12.5.09.89.58.68 1.03-.25.6-.4.54-.79.78-.39.23-.4.15-.56.13-.17-.01-.15-.02-.33.1-.18.12-1.26.72-2.06 1.16-.68.37-.85.74-.98 1.23-.25.83.33 1.82.5 2.94.12.39.23 1.19-.12 1.76l1.93 3.45c.24.32.6.56.97.93l.38.52c.05.06.04.11-.01.14l-.97.7c-.05.04-.1 0-.13-.01-.7-.61-.9-.97-1.78-2.1-.4-.49-.91-1.15-1.18-1.5l-.41-.06c.17.55.52 1.33.62 1.5.35.56 1.31 1.84 1.8 2.22l.3.42c.03.05.04.1 0 .11l-1 .72c-.04.04-.09.03-.12 0-.05-.03-.33-.3-.5-.47-.04-.03-1.06-1.36-1.06-1.36-.28-.4-1.17-1.66-1.86-2.5a89.42 89.42 0 0 1-6.63 4.88c.33.7.04 1.66-.7 2.32.7 1 1.25 1.65 2.03 2.29.3.2.6.58.65.64.03.03.08.09.03.13l-.98.71c-.06.05-.1.03-.15-.01-.36-.34-1.12-1.1-1.62-1.48-.43-.36-.8-.88-1.29-1.37l-.21.42c.1.34.24.75.32.92.33.63 1.05 1.8 1.62 2.32.03.04.08.11 0 .16l-.92.67c-.09.06-.15 0-.18-.03-.78-.62-1.6-2.28-2.33-3.36-.5-.57-1.95-2.62-2.42-3.27-.78-.99-1.2-1.42-2.37-2.92l1.3 2.25a34.7 34.7 0 0 0 1.77 2.37c.34.22.6.58.7.98v.02c.07.34.03.71-.12 1.04a1.6 1.6 0 0 1-.86-.6v-.01Z"/><path fill="#1D1511" d="m155.25 181.45-.7-.34c-.12.52-.27.8-.47 1.17-.05.12-.11.24-.18.35-.17.33-.36.68-.45.73l.7.34c-.08.2-.12.34-.1.35l.5.24c.06.03.42-.6.8-1.4.4-.8.67-1.46.61-1.49l-.5-.24s-.1.1-.21.28v.01Z"/><path fill="#9BCAB9" d="m153.44 183.36-1.15.77c-.16.09-.37.06-.58-.03-.21-.1-13.36-6-15.78-6.44 0 0-.87-.44-.88-.48 0-.05 1.41-2.7 1.83-3.54.41-.84 1.74-3.62 1.78-3.65.04-.02.53.22.91.44.2.14 3.91 2.73 7.88 5 3.96 2.26 6.34 3.7 6.54 3.8.2.11.41.22.48.52.07.3.07 1.37.07 1.37-.11.51-.27.8-.46 1.16-.2.37-.5 1.01-.64 1.09Z"/><path fill="#003273" d="M161.8 166.9c-.34-1-1.1-2.95-1.3-4.87-.21-1.92-.37-3.54.17-4.59.54-1.05 1.18-1.8 2.44-1.97 1.25-.17 2.59.03 3.66 1 1.08 1 1.87 2.8 2.19 3.82.32 1.02.56 2.4.23 4.05a19.98 19.98 0 0 1-1.77 4.98c-.65 1.35-1.6 3.14-2.76 3.07-.52-.03-.63-.24-1-.83-.37-.6-1.57-3.8-1.86-4.66Z"/><path fill="#1D1511" d="M3.54 188.08c-.3-.97-1.57-4.39-1.8-4.96-1.1-2.79-1.58-4.04-2.05-4.57-.14-.16-.48-.7-1.37-1.28-.9-.56-1.16-.55-1.69-.63a6.88 6.88 0 0 0-4.02.26c-1.03.44-2.43 1.03-3.45 1.5-1.3.56-2.44.94-3.6.56l-1.82-.72c-1.06-.36-2.17-.5-3.27-.74a13.17 13.17 0 0 0-3.03-.08c-.13-.1-.23-.24-.33-.36a2.03 2.03 0 0 0-.42-.35l-.05-.03a1.61 1.61 0 0 0-.48-.18c-.03.37.1.79.35 1.13-.05.03-.14.06-.24.13a1.54 1.54 0 0 0-1.12-.64 1.48 1.48 0 0 0 .12.51c.07.15.15.3.26.42.08.09.17.18.24.28-.2.43-.32.89-.43 1.35-.2.8-.3 1.63-.52 2.44-.18.64-.27 1.08.12 1.66a.7.7 0 0 0 .6.34c.43.04.96-.15 1-.45.03-.2.07-.4.2-.55.3-.4.65-.79 1.01-1.15.21-.2.48-.37.73-.5.1-.06.3.02.39.1.34.3.66.64 1 .94.93.82 1.88 1.58 2.3 2.84.14.32.27.5.47.7.48.48.49.47.97.89.15.14.3.32.45.53.32.5 1.45 2.25 1.54 2.44.22.46.97 3.34 1 3.53.04.4.24 1.8.27 2 .01.1.05.1.08.1l1.19-.37c.08-.02.07-.05.05-.1l-.37-.67s-.08-.28-.08-.34.3-.37.32-.52c0-.1-.9-2.8-.94-2.97-.04-.17 0-1.04-.03-1.23 0-.08-.18-.71-.4-1.5.47.64.99 1.33 1.02 1.42.08.16.95 3.36.97 3.54l.27 2c.02.08.05.1.09.1l1.17-.36c.08-.02.07-.05.06-.1l-.36-.68s-.08-.27-.08-.34c0-.06.3-.36.32-.51.01-.12-.92-2.8-.95-2.97-.03-.17.02-.96-.02-1.23-.02-.12-.27-1.03-.56-2.04l1.94-.61c1.93-.63 2.98-1.1 3.87-1.48.63.67 1.7 1.9 1.8 2.08.1.2.93 3.26.96 3.54l.27 2c.02.08.05.1.1.1l1.18-.36c.08-.03.07-.05.05-.1l-.37-.68s-.08-.25-.08-.34c0-.1.33-.41.32-.51l-.55-1.85c-.08-.28-.27-2.18-.32-2.39-.02-.13-.56-1.48-.87-2.3.56.69 1.74 1.98 1.82 2.11.1.16.95 3.4.97 3.55.02.13.26 1.83.27 2 .01.07.05.1.1.1l1.18-.37c.08-.02.07-.04.05-.1l-.37-.67s-.08-.23-.08-.34c0-.11.31-.37.32-.52 0-.14-.52-1.6-.55-1.84-.03-.25-.27-2.18-.32-2.39-.04-.2-.95-2.46-1.07-2.84-.08-.47-.12-.79-.15-1.06 0-.28.01-.54-.02-.92a7.1 7.1 0 0 0-.48-2c.4.68.79 1.78 1.16 3.01.25.85.67 1.7 1.23 3.47.26.86.79 2.84.79 2.84l1.8.28h-.03Z"/><path fill="#F9B0A0" d="M233.9 171.12c.32-.28.86-1.77.93-2.3a7.54 7.54 0 0 0-.64-2.82c-.32-.54-1.5-1.58-2.37-2.23-.88-.65-4.87-3-5.85-3.52-.44-.24-1-.41-1-.41s-.32-.08-.41-.15c-.1-.07-.12-.21-.56-.54-.31-.23-.45-.1-.58-.02-.3-.4-.46-.9-.15-1.5a2.7 2.7 0 0 1 2.09-1.34c1.43-.1 2.73.5 4.76 1.83.89.58 2.24 1.68 2.24 1.68l.21-.27c-.19-.15-.72-.66-1.7-1.37-.56-.4-1.23-1.07-3.1-1.85-1.34-.56-2.66-.74-3.95.1-1.21.78-1.24 1.88-.9 2.58-.27-.2-.6-.48-.63-.52-.05-.05-.88-.15-.98-.18-.1-.04-.1.34-.01.45.08.1 1.16.91 1.65 1.52l-1.16-.67a2.86 2.86 0 0 1-1.3-3.3 3.59 3.59 0 0 1 2.42-2.63c1.42-.34 2.71.19 3.74.57 1.04.38 2.41 1.1 2.41 1.1l.16-.32s-.59-.5-2.75-1.34c-2.17-.84-3.42-.53-3.82-.4-.4.11-1.77.65-2.4 2.1a3.73 3.73 0 0 0 .36 3.73c.64.88 2.48 1.66 2.9 1.86.18.16.34.24.5.35.27.2.25.44.4 1 .14.57 2.06 2.78 2.59 3.13.52.36 1.87.78 1.87.78-.33.13-.54.54-.6 1.12-.07.58-.43 1-.5 1.18-.07.17.01.4.14.45.13.04.87-1.16.92-.98.05.17-.03.3-.2 1.2-.16.88 0 1.1.07 1.28.06.2.3-.08.44-.13.14-.06.6-1.06.79-1.03.17.04.31.35.2.66-.1.31-2.04 1.03-2.25 1.07-.23.03-1.09-.78-1.54-1.02-.45-.23-2.58-1.35-2.78-1.12-.2.24.3 1.56.59 1.83.28.26 1.88 1.16 2.68 1.58.81.43.9.45.95.62.05.17.68.25 1.45.24.78-.02 1.87-.37 2.72-.65.85-.27 1.63-1.13 1.96-1.42v.02Z"/><path fill="#004854" d="M233.24 208.53c.02-.06.08-.25.07-.26a3.08 3.08 0 0 0-.8-.24c-.24-.03-.38-.02-.57-.03-.17-.01-.34-.02-.52-.08.04-.02.27-.15.53-.26.3-.13.52-.18.7-.26.11-.05.24-.12.2-.19l-.2-.35c-.1-.19-.11-.17-.25-.13-.14.04-.43.17-.5.2-.33.13-.66.28-.95.5-.23.16-.44.18-.7.03a1.8 1.8 0 0 0-.45-.17c-.6-.12-1.04.04-1.36.48l-.14.2c-.26.3-.52.49-.83.6-.23.07-1 .38-1.16.44-.1.04-.45.12-.5.14a3.5 3.5 0 0 1-.5.1c.15-.17.29-.26.41-.33l.6-.32.49-.26c.33-.18.62-.42.86-.72.25-.32.5-.68.73-1.1.16-.27.37-.4.7-.42.5-.04 1.03-.1 1.53-.16l.19-.03c.21-.02.62-.14.66-.17.03-.04.03-.05.02-.13-.02-.08-.06-.38-.1-.39l-.2.01-.44.03-.51.02.32-.23.74-.53c.16-.1.37-.3.38-.35.02-.05-.24-.31-.31-.39-.06-.07-.1-.12-.14-.13-.03-.02-.12.04-.14.06l-.26.18c-.42.3-.85.6-1.22.97-.07.06-.17.19-.38.24.08-.21.19-.31.24-.37.13-.16.27-.33.44-.47a8.11 8.11 0 0 0 .96-.91l.15-.16c.05-.06-.49-.43-.56-.4-.07.03-.24.18-.35.3-.13.13-.26.26-.44.34.01-.13.06-.23.1-.33l.27-.6c.05-.11.1-.22.04-.27a2.14 2.14 0 0 0-.6-.1c-.16 0-.2 0-.22.17l-.23.93c-.08.35-.45 1.1-.45 1.1-.08.17-.35.54-.37.56-.2.27-.94.57-1.01.6-.4.09-.69.34-.88.76a7.01 7.01 0 0 0-.27.84c-.07.31-.26.54-.57.72-.45.26-1.52 1.04-1.8 1.27-.28.22-1.07.93-1.82 1.29a.84.84 0 0 1 0-.35l.12-.75c.02-.15.07-.29.17-.44.27-.4.62-.79 1.1-1.2.19-.16.41-.29.64-.38a2.16 2.16 0 0 0 1.46-1.48c.07-.2.16-.44.37-.63.23-.2.44-.42.64-.64.25-.27.5-.54.78-.77a7.8 7.8 0 0 0 .79-.79c.1-.1.16-.22.1-.24-.06-.02-.62-.2-.68-.17-.06.02-.27.28-.39.43-.2.25-.41.51-.73.7 0-.02.05-.24.14-.42l.27-.58c.13-.26.16-.34 0-.39-.13-.04-.7-.06-.7-.06-.2.02-.16.1-.4.69-.03.08-.11.4-.14.46-.14.4-.36.77-.56 1.1-.23.37-.5.72-1 .83-.07.02-.5.13-.71.53-.1.2-.14.38-.18.57-.06.31-.22.6-.5.89-.4.44-.78.93-1.12 1.45l-.09.07.03-.5c.03-.28.36-1.86.4-2 .06-.3.1-.6.01-.92l-.24-.9c-.05-.14-.08-.3-.02-.44.26-.6.41-1.12.97-1.54.63-.46 1.06-1.18 1.2-1.4.15-.21.56-.45.85-.74.22-.23.48-.51.53-.6.06-.07.16-.19.07-.23-.11-.04-.55-.21-.6-.2-.07.01-.78.68-.97.8-.05-.06 0-.15.03-.21l.3-.73.17-.49c.01-.04.04-.08 0-.12-.03-.04-.1-.04-.14-.04-.27.02-.56 0-.84.02-.22.02-.22.1-.27.24l-.24.75c-.18.44-.37.9-.62 1.3 0 0-.5.85-.69 1.27-.1.24-.23.48-.42.77-.17.25-.29.5-.35.76-.03.12-.1.32-.2.46-.07-.7.07-1.13.16-1.58.06-.35.16-.67.03-1.16a6.17 6.17 0 0 1-.05-1.54c0-.05.03-.27-.02-.29-.06-.03-.2.04-.28.08l-.77.47c-.15.11-.07.25.04.9.03.12.06.45.06.46.01.04.01.07-.02.1l-.68-1.26c-.04-.08-.1-.13-.17-.14-.05-.02-.12 0-.18.03-.15.1-.29.21-.42.32-.03.03-.07.1-.06.15 0 .04.05.38.11.47.1.12.19.27.27.41a13.5 13.5 0 0 1 .86 1.5c.02.11.07.77.07.83-.01.16-.07.73-.1.83-.09.19-.36.8-.44 1.1a.9.9 0 0 0 .08.7c.2.33.4.65.79.78.22.08.39.23.5.47.1.2.3 1.15.31 1.19.06.28.07.52 0 .75-.08.35-.18.69-.3.99-.32.96-.83 1.8-1.4 2.74 0 0-.08.16-.18.18a7.62 7.62 0 0 0-.57-1.52c-.04-.05-.25-.4-.34-.5-.18-.19-.28-.43-.32-.75 0-.03-.03-.27-.06-.35-.12-.42-.03-.82.28-1.23.26-.34.46-.62.63-.87.15-.2.49-.55.39-.63a1.94 1.94 0 0 0-.21-.13c-.19-.12-.2.01-.33.16-.14.17-.38.6-.38.6-.02.04-.03.06-.11.08l.15-.84c.04-.23 0-.58-.12-.62-.05-.01-.24.08-.31.1-.5.22-.48.17-.31.71.1.31.1.59-.03.85l-.2.52-.1.22c-.14-.16-.22-.3-.27-.5-.03-.14-.23-1.4-.3-1.7 0-.03-.06-.18-.1-.19-.03 0-.13.06-.21.11-.08.05-.17.1-.34.25v.06l.1.32c.03.16.08.32.13.48v.02s-.03.02-.05.01l-.52-.6a.83.83 0 0 0-.26-.2c-.06-.02-.16-.01-.2.03a.34.34 0 0 1-.07.06c-.11.13-.3.4-.24.46l1.16 1.14c.25.26.32.51.23.8-.06.21-.05.56.06.83.1.23.27.45.58.61.44.16.77.53.8.58.45.67.77 1.4.87 2.17.02.22.06.42.12.6.1.3.36.96.36.96.15.36.21.67.23.96.01.55-.03 1-.16 1.38-.04.13-.05.27-.03.45 0 .02 0 .05.03.06.02.02.55.28.59.26.14-.08.42-.53.56-.78a12.28 12.28 0 0 1 .64-.93c.27-.39.54-.66.86-.86.16-.1 1.03-.78 1.14-.88.15-.12.3-.18.5-.2.05 0 .45-.05.6-.05.4-.01.72-.11.98-.3.2-.15.37-.29.52-.44.1-.08.61-.3.84-.34l.96-.19c.34-.1.74-.41.76-.45.02-.04-.03-.16-.1-.25-.06-.08-.23-.32-.29-.3-.12.03-.33.2-.49.27l-.74.4a.75.75 0 0 1-.22.03l.07-.16a14.94 14.94 0 0 1 1.2-1.3c.07-.1-.03-.13-.22-.19-.13-.04-.4-.14-.55-.09-.08.06-.19.3-.26.42a4.7 4.7 0 0 1-.57.82.7.7 0 0 1-.56.25l-.68-.03c-.22-.02-.6-.06-.8.03-.4.17-.66.49-.94.96-.11.17-.28.32-.5.44-.25.13-1.14.65-1.38.71 0-.01 0-.27.12-.7.12-.42.2-.93.22-1.05.08-.39.15-.54.47-1.07a4.02 4.02 0 0 1 1.56-1.26c.35-.15.73-.28 1.09-.4.18-.07 2.43-.75 2.64-.86.1-.05 1.5-.61 2.02-.74.51-.13 1.3-.18 1.36-.19.42-.04.84-.09 1.21-.32.3-.18.6-.13.84-.05.44.15.75.14.94.2.2.05.19.05.22-.04l.15-.35.08-.03Z"/><path fill="#ACCD8E" d="m254.61 175.63-.2 1.34c.72-.23 1.46-.58 2.23-.69 1.54-.22 2.6.7 2.62 2.2a1.97 1.97 0 0 1-2.59 1.8c-1.27-.38-1.7-1.28-1.4-2.77-.88.3-1.42 1.65-1.56 3.98.67-.23 1.19-.62 1.92-.74 1.15-.18 2.24.02 2.9 1.16.47.83.42 2.22-.46 2.93-.8.64-2.19.6-2.99-.14a2.32 2.32 0 0 1-.49-2.56l.17-.29c-.38.04-.87.6-1.02 1.12-.4 1.43-.58 2.73-.85 4.22a5.34 5.34 0 0 1 2.36-1.16c1.27-.2 2.4 0 3.14 1.19.54.84.4 1.95-.27 2.82-.44.55-1.57.93-2.54.6-1.34-.44-1.7-1.96-1.14-3.32-1 .58-1.5 1.44-1.7 2.47-.2 1.05-.35 2.12-.51 3.2-.07.44-.16.73-.75.63-.54-.08-.52-.42-.45-.81.16-.98.33-1.95.45-2.93.09-.76.14-1.54-.2-2.18-.22.61-.32 1.08-.67 1.5-.6.7-1.45.77-2.31.52-.86-.25-1.22-.91-1.32-1.72a2.26 2.26 0 0 1 1.52-2.47c.98-.3 2.34-.13 3.03 1.1l.35.72c.25-1.54.4-2.82.57-4.28.1-.87-.71-1.98-1.53-2.33.22.39.33.74.39 1.14.05.94-.37 1.56-1.1 2-.73.46-1.54.45-2.24.02-1.14-.73-1.3-2.06-.52-3.2.62-.92 1.87-1.2 3.06-.9 1.15.4 1.33.43 2.26 1.33.44-1.44.66-3.5-.03-4.34 0 .28-.03.44-.09.76-.22.84-.67 1.17-1.62 1.28-1.07.12-2.04-.4-2.28-1.3-.24-.9.04-2.08.98-2.55.97-.48 2.48-.1 3.27.84.2.25.42.5.6.74l.17-1.06c-1.4-.8-1.6-1.97-1.24-2.94.44-1.16 1.6-1.68 2.88-1.33 1 .28 1.65 1.31 1.5 2.4a2.23 2.23 0 0 1-2.3 2Z"/><path fill="#1D1511" d="M211.13 188.08c-.3-.97-1.56-4.39-1.79-4.96-1.1-2.79-1.58-4.04-2.05-4.57-.15-.16-.48-.7-1.38-1.28-.9-.56-1.15-.55-1.68-.63a6.88 6.88 0 0 0-4.02.26c-1.03.44-2.43 1.03-3.46 1.5-1.29.56-2.43.94-3.58.56-.18-.06-1.68-.67-1.83-.72-1.06-.36-2.18-.5-3.27-.74a13.16 13.16 0 0 0-3.04-.08c-.12-.1-.22-.24-.32-.36a2.01 2.01 0 0 0-.42-.35l-.05-.03a1.6 1.6 0 0 0-.48-.18c-.04.37.1.79.35 1.13-.05.03-.14.06-.24.13a1.54 1.54 0 0 0-1.12-.64c0 .15.04.3.1.46a1.56 1.56 0 0 0 .28.47c.08.09.17.18.24.28-.2.43-.32.89-.44 1.35-.2.8-.3 1.63-.51 2.44-.18.64-.27 1.08.12 1.66a.7.7 0 0 0 .6.34c.43.04.96-.15 1-.45.03-.2.07-.4.19-.55.31-.4.65-.79 1.02-1.15.2-.2.47-.37.73-.5.09-.06.3.02.39.1.34.3.66.64 1 .94.92.82 1.88 1.58 2.3 2.84.14.32.27.5.46.7.5.48.5.47.97.89.16.14.3.32.46.53.32.5 1.45 2.25 1.54 2.44.22.46.97 3.34 1 3.53.04.4.24 1.8.26 2 .02.1.05.1.09.1l1.19-.37c.08-.02.06-.05.05-.1l-.37-.67s-.08-.28-.08-.34.3-.37.32-.52c0-.1-.9-2.8-.94-2.97-.04-.17 0-1.04-.03-1.23a39.7 39.7 0 0 0-.4-1.5c.47.64.98 1.33 1.02 1.42.08.16.94 3.36.97 3.54l.27 2c.01.08.05.1.09.1l1.17-.36c.08-.02.07-.05.06-.1l-.36-.68s-.08-.27-.08-.34c0-.06.3-.36.32-.51.01-.12-.92-2.8-.95-2.97-.03-.17.02-.96-.02-1.23-.02-.12-.27-1.03-.56-2.04l1.94-.61c1.93-.63 2.97-1.1 3.87-1.48.62.67 1.7 1.9 1.8 2.08.1.2.92 3.26.96 3.54l.27 2c.01.08.05.1.09.1l1.19-.36c.07-.03.06-.05.05-.1l-.37-.68s-.09-.25-.08-.34c0-.1.33-.41.31-.51 0-.1-.46-1.56-.54-1.85-.08-.28-.28-2.18-.32-2.39-.02-.13-.56-1.48-.87-2.3.56.69 1.74 1.98 1.82 2.11.1.16.95 3.4.97 3.55l.27 2c0 .07.05.1.09.1l1.19-.37c.07-.02.06-.04.05-.1l-.37-.67s-.09-.23-.08-.34c0-.11.3-.37.31-.52 0-.14-.5-1.6-.54-1.84-.03-.25-.28-2.18-.32-2.39-.04-.2-.95-2.46-1.07-2.84-.08-.47-.12-.79-.15-1.06 0-.28 0-.54-.02-.92a7.1 7.1 0 0 0-.48-2c.4.68.79 1.78 1.16 3.01.25.85.67 1.7 1.23 3.47.26.86.79 2.84.79 2.84l1.79.28h-.03Z"/></g><path fill="#C1D7C9" d="M248.04.66c.94-.03 2.26.02 3.75.3 3 .56 6.71 2.05 9.58 5.8 2.8 3.67 5.59 8.34 6.51 12.84.47 2.25.47 4.48-.24 6.51a10.03 10.03 0 0 1-4.03 5.04l-.43.28c-3.67 2.29-5.18 4.45-5.4 6.36-.23 1.9.8 3.68 2.6 5.28a29.84 29.84 0 0 1 6.5 8.9c.82 1.83 1.33 3.71 1.17 5.4a5.05 5.05 0 0 1-2.86 4.15c-3.47 1.84-6.34 3.44-8.11 5.76-1.75 2.28-2.47 5.32-1.46 10.13 1.02 4.9 1.62 8.82 2.48 11.75.86 2.93 1.93 4.72 3.8 5.47 1.02.4 1.96.7 2.88 1.03.9.33 1.77.69 2.57 1.19 1.61 1.02 2.88 2.63 3.7 5.74.85 3.15.21 6.07-.62 8.2a16.89 16.89 0 0 1-1.7 3.23l-.12.2h-.01v.02l-.06.2a15.15 15.15 0 0 0-.52 3.21c-.1 1.99.2 4.43 1.75 6.36 3.29 4.1 4.54 7 4.95 10.75.2 1.84.21 3.32-.16 4.61a6.87 6.87 0 0 1-2.4 3.42 4.5 4.5 0 0 0-1.55 3.64c.05 1.3.62 2.35 1.46 2.68.32.13.63.39.92.71.28.34.56.76.81 1.27.51 1 .94 2.33 1.18 3.89.46 3.11.15 7.15-1.92 11.28a21.02 21.02 0 0 1-2.77 4.3c-.39.47-.74.84-1.02 1.14-.3.3-.5.54-.65.75-.14.2-.2.38-.22.57-.02.2.02.44.16.79.28.72.92 1.75 2.05 3.49l.05.09c1.1 1.7 2.11 3.04 2.94 4.29a9.89 9.89 0 0 1 1.67 3.41 4 4 0 0 1-.85 3.3c-.82 1.1-2.22 2.26-4.32 3.63-.57.37-1.4.7-2.47 1.03-1.06.32-2.37.64-3.9.94-3.05.6-6.98 1.15-11.57 1.67a654.87 654.87 0 0 1-33.81 2.63 2243.2 2243.2 0 0 1-73.65 2.73c-37.83.8-103.3-4.88-126.47-7.32-5.82-.61-9.58-1.71-11.92-3.08-2.35-1.37-3.28-3.03-3.34-4.73-.05-1.66.74-3.27 1.63-4.57.9-1.31 1.93-2.35 2.44-2.85l.15-.17c.72-.9.73-2.46.02-4.34A15.97 15.97 0 0 0 3 168c-2.15-1.94-2.56-4.61-2.25-6.97.16-1.18.5-2.29.9-3.21a7.2 7.2 0 0 1 1.34-2.12c.35-.35.76-1.12 1.17-2.2.4-1.07.8-2.4 1.12-3.78.66-2.79 1.05-5.79.86-7.56-.2-1.85-.1-3.87.7-5.43.4-.8 1-1.47 1.82-1.94a6.12 6.12 0 0 1 3.12-.74 3.4 3.4 0 0 0 2.56-1 5.7 5.7 0 0 0 1.31-2.7c.54-2.28.45-5.27.25-8.13-.1-1.42-.23-2.32-.45-2.98a3.46 3.46 0 0 0-1.06-1.56c-.55-.5-1.28-1-2.36-1.84a54 54 0 0 1-4.15-3.55c-3.6-3.38-3.87-8.72-2.9-13.39.5-2.34 1.3-4.54 2.2-6.3.45-.87.92-1.63 1.39-2.25.46-.61.94-1.1 1.4-1.38l.28-.18a4.66 4.66 0 0 0 1.36-1.3c.32-.48.45-1.03.38-1.7a7.68 7.68 0 0 0-.84-2.49c-.5-1-1.2-2.18-2.1-3.6a11.57 11.57 0 0 1-.84-11.73l.05-.14.1-.27.26-.85a58.2 58.2 0 0 0 1.82-9.24l.03-.32h.02c.25-2.34 1.5-4.93 2.97-7.21a29.58 29.58 0 0 1 4.67-5.63l.33-.3c1.59-1.52 2.5-3.2 2.28-4.98-.2-1.8-1.55-3.8-4.74-5.93l-.67-.43c-2.32-1.45-3.66-3.2-4.27-5.13-.6-1.93-.47-4.01.08-6.14.84-3.17 2.64-6.5 4.44-9.65l1.77-3.07c1.3-2.29 3.3-4.53 6.76-6C27.55 1.2 32.41.5 39.42 1.27l2.12.23c45.47 4.8 143.56 8.85 204.97-.74h.03l.08-.01a9.74 9.74 0 0 1 1.42-.1Zm.02.7a14.27 14.27 0 0 0-1.42.1h-.02c-61.5 9.6-159.66 5.55-205.15.75l-2.13-.23c-6.93-.76-11.66-.07-14.96 1.34a12.93 12.93 0 0 0-6.19 5.3l-.24.4c-2.3 4.03-5.06 8.44-6.14 12.56a10.33 10.33 0 0 0-.1 5.75c.56 1.75 1.78 3.37 3.98 4.75l.68.43c3.27 2.19 4.81 4.35 5.06 6.43.26 2.23-.98 4.23-2.84 5.9a28.9 28.9 0 0 0-4.56 5.48c-1.52 2.35-2.73 4.96-2.88 7.2l-.02.33h-.04a58.98 58.98 0 0 1-2.08 9.93c-.07.22-.14.4-.19.5-.4.8-2.76 5.51.8 11.04A38.28 38.28 0 0 1 11.77 83c.5 1.04.82 1.93.9 2.73.09.8-.07 1.5-.48 2.14a5.35 5.35 0 0 1-1.56 1.5l-.3.2c-.36.22-.77.62-1.21 1.2-.44.58-.9 1.31-1.33 2.16a24.87 24.87 0 0 0-2.13 6.12c-.96 4.58-.63 9.6 2.69 12.73a52.95 52.95 0 0 0 4.1 3.5c1.04.8 1.83 1.36 2.4 1.88.6.54.99 1.07 1.25 1.85.26.76.39 1.74.49 3.17.2 2.84.3 5.94-.27 8.34a6.4 6.4 0 0 1-1.49 3.02 4.09 4.09 0 0 1-3.06 1.2c-1.18 0-2.08.25-2.77.65-.7.4-1.2.97-1.55 1.66-.71 1.38-.82 3.23-.62 5.04.2 1.89-.21 4.99-.88 7.8a31.7 31.7 0 0 1-1.15 3.85 7.48 7.48 0 0 1-1.33 2.45c-.36.37-.8 1.04-1.19 1.91-.38.87-.7 1.92-.85 3.02-.29 2.22.11 4.63 2.03 6.36a16.67 16.67 0 0 1 4.4 6.23c.76 2 .84 3.95-.22 5.14l-.1.11c-.51.5-1.5 1.5-2.37 2.75-.86 1.26-1.54 2.72-1.5 4.16.05 1.4.8 2.87 3 4.15 2.2 1.29 5.86 2.38 11.63 2.98 23.17 2.44 88.6 8.13 126.38 7.32 18.9-.4 48.1-1.28 73.63-2.73 12.76-.73 24.6-1.6 33.77-2.63 4.58-.51 8.5-1.07 11.52-1.66 1.51-.3 2.8-.6 3.83-.92a9.5 9.5 0 0 0 2.28-.95c2.1-1.35 3.4-2.46 4.15-3.46.72-.98.9-1.84.73-2.74a9.25 9.25 0 0 0-1.57-3.17c-.8-1.2-1.89-2.65-3-4.37l-.06-.09a24.16 24.16 0 0 1-2.05-3.53 2.5 2.5 0 0 1-.21-1.1c.02-.35.15-.64.34-.91.19-.27.44-.54.72-.84a20.35 20.35 0 0 0 3.68-5.27c2-4 2.3-7.88 1.84-10.87-.22-1.5-.63-2.75-1.1-3.68a5.58 5.58 0 0 0-.72-1.12 1.83 1.83 0 0 0-.65-.52c-1.2-.48-1.85-1.87-1.9-3.3a5.2 5.2 0 0 1 1.8-4.2 6.18 6.18 0 0 0 2.18-3.08c.33-1.16.34-2.52.14-4.34-.4-3.58-1.58-6.36-4.8-10.39-1.71-2.13-2.02-4.77-1.91-6.84a16.01 16.01 0 0 1 .62-3.63v-.02l.03-.06.03-.05h.01c0-.02.02-.03.03-.05a8.01 8.01 0 0 0 .55-.84c.35-.57.8-1.4 1.2-2.43.79-2.04 1.38-4.8.6-7.76-.8-2.98-1.98-4.42-3.41-5.33-.73-.46-1.54-.8-2.44-1.12-.88-.32-1.87-.63-2.9-1.04-2.19-.88-3.34-2.95-4.21-5.92-.87-2.96-1.49-6.96-2.5-11.81-1.03-4.94-.32-8.2 1.6-10.7 1.88-2.46 4.9-4.12 8.34-5.94a4.35 4.35 0 0 0 2.48-3.61c.14-1.5-.31-3.26-1.11-5.04a29.13 29.13 0 0 0-6.32-8.67c-1.87-1.66-3.1-3.65-2.84-5.89.24-2.08 1.79-4.24 5.06-6.43l.67-.44a9.5 9.5 0 0 0 4.17-4.95c.65-1.88.66-3.97.22-6.14-.9-4.34-3.6-8.92-6.39-12.56-2.73-3.57-6.27-5-9.15-5.53-1.43-.27-2.7-.32-3.6-.3Z"/></svg>