<svg xmlns="http://www.w3.org/2000/svg" width="274" height="215" fill="none" viewBox="0 0 274 215"><path fill="#F4ECE6" d="M268.49 176.1c-1.85-6.16-8.94-20.84-9.46-25.49-.18-1.65-6.95-94.6-44.26-120.8-18.57-13.05-41.43-18.64-63.89-20.16-.63-6.43-7.3-9.65-14-9.65-6.68 0-13.37 3.22-14 9.65C100.42 11.17 77.56 16.76 59 29.8 21.68 56.02 14.92 148.97 14.73 150.61c-.52 4.65-7.6 19.33-9.45 25.49-2.44 8.09-7.86 28.25-3.84 35.53 2.8 5.08 8.56 2.85 12.86 1.4 15.1-5.13 31.04-15 46.39-21.08 17.98-7.12 39.36-13.76 58.53-16.48 5.84-.83 11.73-1.17 17.66-1.11 5.92-.05 11.83.29 17.65 1.1 19.16 2.72 40.55 9.37 58.54 16.5 15.34 6.07 31.3 15.94 46.38 21.06 4.3 1.46 10.06 3.69 12.86-1.39 4.02-7.29-1.4-27.45-3.83-35.53Z"/><path fill="#C58F79" d="M273.06 194.17a155.46 155.46 0 0 0-4.34-18.06l-.22-.73c-.83-2.55-2.33-6.16-3.91-9.98l-1.07-2.6c-.93-2.25-1.98-4.85-2.79-7.1-.85-2.35-1.32-4.01-1.44-5.06l-.12-1.35a364.69 364.69 0 0 0-8.09-49.86c-3.7-15.48-8.21-28.9-13.43-39.92-6.5-13.72-14.11-23.71-22.64-29.7l-.86-.6c-16.43-11.26-37.63-17.83-63.02-19.55-.29-3-1.92-5.5-4.72-7.23A17.73 17.73 0 0 0 137.14 0c-3.48 0-6.78.86-9.27 2.42-2.8 1.74-4.44 4.24-4.74 7.23-25.85 1.75-47.34 8.53-63.9 20.15l-.85.62c-8.16 6.04-15.49 15.83-21.76 29.08-5.22 11.01-9.73 24.44-13.43 39.92a363.9 363.9 0 0 0-8.12 50.24l-.06.04.05.07-.03.36-.04.48a25.28 25.28 0 0 1-1.44 5.08c-.8 2.22-1.86 4.83-2.79 7.1l-1.08 2.62c-1.73 4.2-3.37 8.15-4.14 10.7l-.5 1.64a147.55 147.55 0 0 0-3.84 16.42 59.9 59.9 0 0 0-.94 9.98c.02 3.06.44 5.46 1.27 7.15l.31.57a5.72 5.72 0 0 0 2.46 2.33c.93.45 2 .64 3.28.58 2.13-.1 4.34-.85 6.48-1.58l1.92-.67c7.14-2.54 14.62-6.18 21.68-9.68l2.48-1.23c6.85-3.41 13.94-6.94 20.8-9.66l1.7-.67c20.16-7.85 40.34-13.48 56.84-15.81l1.1-.15c5.26-.7 10.84-1.02 16.57-.97 6.13-.05 12.06.32 17.65 1.12 17 2.4 37.78 8.26 58.52 16.48l1.44.58c6.4 2.62 13 5.9 19.37 9.07l2.48 1.24c7.86 3.9 15.54 7.61 23.1 10.17l1.68.57a20.3 20.3 0 0 0 5.32 1.2h.43c1.09 0 2.01-.19 2.84-.59a5.86 5.86 0 0 0 2.6-2.58l.16-.34c.81-1.67 1.24-4.08 1.26-7.13.02-2.78-.3-6.13-.94-9.98v-.01ZM24.65 99.77c3.67-15.38 8.15-28.72 13.32-39.63 6.17-13.02 13.34-22.62 21.29-28.5l.85-.62c16.31-11.46 37.55-18.15 63.12-19.88l1.27-.09.12-1.26c.25-2.5 1.64-4.62 4.02-6.11a16.26 16.26 0 0 1 8.49-2.2c3.2 0 6.21.79 8.48 2.2 2.39 1.48 3.78 3.6 4.02 6.11l.12 1.26 1.27.09c25.12 1.7 46.06 8.2 62.27 19.28l.86.6c8.3 5.84 15.75 15.64 22.13 29.12 5.17 10.92 9.66 24.25 13.32 39.63a361 361 0 0 1 8.02 49.18c-31.77-23.34-75.68-36.7-120.8-36.7-45.11 0-88.05 12.85-120.16 36.24.82-8.78 3-27.91 7.97-48.71l.02-.01ZM271.4 210.62l-.16.3a4.44 4.44 0 0 1-1.92 1.93 5.2 5.2 0 0 1-2.56.43 19.1 19.1 0 0 1-4.9-1.1l-1.69-.58c-7.47-2.53-15.1-6.22-22.92-10.1l-2.48-1.24a301.93 301.93 0 0 0-19.47-9.12l-1.45-.59c-20.85-8.26-41.76-14.14-58.87-16.57-5.3-.75-10.92-1.14-16.7-1.14h-1.15c-5.8-.05-11.44.28-16.77.98l-1.1.15c-16.62 2.36-36.92 8-57.18 15.9l-1.7.67c-6.93 2.74-14.04 6.29-20.93 9.72l-2.48 1.22c-7.01 3.48-14.45 7.09-21.51 9.61l-1.91.66c-2.04.7-4.15 1.42-6.06 1.5a5.37 5.37 0 0 1-2.57-.43 4.19 4.19 0 0 1-1.81-1.73l-.26-.5c-.72-1.47-1.09-3.65-1.1-6.49-.03-2.69.28-5.96.91-9.72 1-6.03 2.63-12.16 3.8-16.25l.5-1.64c.74-2.47 2.36-6.4 4.1-10.55l1.07-2.62c.94-2.28 2-4.9 2.82-7.16.9-2.5 1.38-4.22 1.52-5.42l.03-.3c31.97-23.7 74.66-36.73 120.34-36.73 45.67 0 89.38 13.55 120.97 37.19.16 1.19.63 2.87 1.5 5.25.81 2.28 1.87 4.91 2.81 7.17l1.08 2.6c1.58 3.8 3.07 7.39 3.88 9.86l.22.7c1.1 3.67 3.12 10.87 4.3 17.89a60 60 0 0 1 .91 9.72c-.02 2.83-.39 5.02-1.1 6.47v.06Z" opacity=".4"/><path fill="#054449" d="M135.58 87.65h.04v1.42h-.02c-.14.07-.46.16-1.04.16-1.32 0-2.13-.8-2.13-2.08v-3.57h-1.3v-1.35h.4c.66 0 1.04-.38 1.04-1.04v-1.1h1.58v2.1h1.46v1.4h-1.46v3.29c0 .58.26.83.86.83.24 0 .5-.05.57-.06Zm5.37 0c-.06.01-.33.06-.57.06-.6 0-.86-.25-.86-.83v-3.3h1.46V82.2h-1.46v-2.1h-1.58v1.1c0 .66-.38 1.04-1.04 1.04h-.4v1.35h1.3v3.57c0 1.29.82 2.08 2.14 2.08.57 0 .9-.1 1.03-.15l.02-.01v-1.43l-.04.01Zm-10.71 1.44v.04h-1.61v-.02c-.02-.05-.07-.3-.08-.78a2.5 2.5 0 0 1-2.12 1.01c-.7 0-1.31-.22-1.76-.64a2 2 0 0 1-.65-1.47c0-1.13.8-1.92 2.14-2.11l1.8-.27c.43-.06.48-.3.48-.46 0-.63-.5-1.01-1.28-1.01s-1.3.45-1.4 1.18l-1.59-.36c.14-1.08 1.12-2.23 2.97-2.23 2.72 0 3.01 1.82 3.01 2.6V88a6 6 0 0 0 .09 1.1Zm-1.8-3.12-1.78.26c-.34.06-.9.25-.9.9 0 .41.3.86.98.86.78 0 1.7-.3 1.7-1.75v-.27Zm14.1 3.18h1.73v-6.97h-1.74v6.97ZM98.1 80.74a3.29 3.29 0 0 1 3.29 2.98c1.46-.7 3.1-1 4.72-.86A8.07 8.07 0 0 0 98.1 76a8.08 8.08 0 0 0-7.88 6.17 9.1 9.1 0 0 1 4.63 1.23 3.3 3.3 0 0 1 3.25-2.66Zm-8.06 2.5a8.03 8.03 0 0 0 6.25 8.56v-.05a8.8 8.8 0 0 1 1.08-4.22 8 8 0 0 0-7.33-4.3Zm26.77 3.41-3.28-7.58-.01-.02h-2.37v10.1h1.76v-7.22l3.08 7.18h1.59l3.1-7.2v7.24h1.8v-10.1h-2.42l-3.25 7.6Zm-19.43 5.32c4.7.43 8.84-3.3 8.81-7.97v-.07a7.93 7.93 0 0 0-8.81 8.04Zm80.55-6.4c0 .45-.05.56-.05.56h-5.12c.06 1 .86 1.73 1.88 1.73.75 0 1.28-.3 1.58-.87h1.66a3.23 3.23 0 0 1-3.24 2.35c-.98 0-1.88-.35-2.54-.98a3.69 3.69 0 0 1-1.09-2.74 3.7 3.7 0 0 1 1.06-2.65c.63-.64 1.5-1 2.4-1 2.13 0 3.46 1.38 3.46 3.6Zm-1.76-.7c-.06-1.08-.95-1.46-1.7-1.46-.74 0-1.57.5-1.67 1.45h3.37Zm-8.92-2.88a2.4 2.4 0 0 0-2.04 1.03v-.83h-1.7v6.96h1.74v-4c0-.98.56-1.6 1.42-1.6 1.23 0 1.4.93 1.4 1.5v4.1h1.75v-4.4c0-1.7-.98-2.76-2.57-2.76Zm-8.23 4.5-1.99-4.29v-.02h-1.98l3.02 6.1-1.66 3.54h1.87l4.46-9.64h-1.85l-1.87 4.3Zm23.94 1.16c-.06.01-.34.06-.57.06-.6 0-.86-.25-.86-.83v-3.3H183V82.2h-1.46v-2.1h-1.58v1.1c0 .66-.38 1.04-1.05 1.04h-.4v1.35h1.3v3.57c0 1.29.82 2.08 2.14 2.08.6 0 .93-.1 1.04-.15l.02-.01v-1.43l-.04.01Zm-39.47-8.95c-.62 0-1.12.5-1.12 1.11 0 .61.49 1.1 1.12 1.1a1.1 1.1 0 0 0 1.14-1.1c0-.61-.51-1.11-1.14-1.11Zm2.75 10.45h1.74V78.84h-1.74v10.31Zm6.6-4.17Zm0 0-1.07-.21c-.42-.09-.68-.34-.68-.7 0-.42.43-.75.98-.75 1.06 0 1.23.84 1.26 1v.04l1.49-.41v-.03a2.27 2.27 0 0 0-.68-1.24 2.9 2.9 0 0 0-2.07-.71c-1.44 0-2.62 1-2.62 2.25 0 1.02.72 1.78 1.92 2.04l1.03.23c.52.1.8.35.8.73 0 .37-.32.75-1.02.75-.95 0-1.34-.61-1.4-1.14v-.04l-1.52.41v.03c.06.48.33.98.73 1.36.54.49 1.3.75 2.2.75 1.77 0 2.69-1.12 2.69-2.24 0-1.11-.75-1.85-2.05-2.12Z"/></svg>