<svg xmlns="http://www.w3.org/2000/svg" width="421" height="384" fill="none" viewBox="0 0 421 384"><path fill="#000" d="M254.56 1C247 17.8 230.1 25.36 210.48 25.36S173.96 17.8 166.41 1c0 0-62.6 21.88-64.26 22.84-5.23 3.04-31.77 7.82-46.14 73.92C41.63 163.86 2.9 337.8 2.9 337.8l57.9 18.69 25.24-39.57v22.6h248.93v-22.6l25.25 39.57 57.9-18.7S379.36 163.87 365 97.77c-14.37-66.09-40.92-70.88-46.14-73.92-1.38-.8-49.41-17.62-64.29-22.82l-.01-.02Z"/><path fill="#61646A" d="M254.84.58c7.48 2.62 23.13 8.1 37.1 13.03 7.02 2.47 13.62 4.81 18.55 6.58a645.29 645.29 0 0 1 7.76 2.85c.41.16.73.29.86.37 2.5 1.45 10.6 3.5 19.75 13.4 9.17 9.93 19.43 27.74 26.63 60.85l2.96 13.58c7.51 34.34 18.93 85.94 28.98 131.22l14.89 67.02 4.58 20.6 1.26 5.64.32 1.47.09.37.02.1v.02l-.48.12.49-.11.1.44-58.33 18.84-.37.11-24.54-38.45v21.4H85.54v-21.4l-24.33 38.13-.2.32-58.7-18.95.1-.44.49.1-.5-.1v-.01l.01-.03.03-.09.08-.37.33-1.47a54693.37 54693.37 0 0 0 5.83-26.24l14.9-67.03a44540.54 44540.54 0 0 0 31.94-144.8l.34-1.53c7.18-32.13 17.26-49.54 26.28-59.3C91.29 26.9 99.4 24.86 101.9 23.4l.16-.09a8.8 8.8 0 0 1 .9-.36l2.25-.85c1.87-.69 4.46-1.62 7.5-2.72 6.11-2.18 14.1-5 22.02-7.8 7.93-2.8 15.8-5.56 21.7-7.63l7.12-2.49 1.99-.7.52-.18.14-.05h.03V.52h.01l.17.47-.17-.47.44-.15.18.41c7.45 16.56 24.1 24.07 43.62 24.07 19.51 0 36.17-7.5 43.62-24.07l.3-.66.44.45Zm-88.97 1.14-2 .7a13765.1 13765.1 0 0 0-50.81 17.91 880.62 880.62 0 0 0-9.74 3.56 28.46 28.46 0 0 0-.9.37h-.02c-2.73 1.6-10.5 3.47-19.53 13.23C74.01 47.1 64 64.33 56.83 96.33l-.33 1.54c-7.2 33.04-20.47 93.06-31.95 144.8L9.66 309.7 5.08 330.3l-1.26 5.63-.32 1.47-.02.06 57.1 18.44 25.96-40.7v23.83h247.92V315.2l25.97 40.7 57.1-18.44-.02-.06a1043.44 1043.44 0 0 1-1.58-7.1 65070.84 65070.84 0 0 1-19.48-87.63 51330.07 51330.07 0 0 1-28.98-131.21l-2.96-13.6c-7.17-32.98-17.37-50.6-26.38-60.36-8.74-9.46-16.32-11.52-19.26-13.08l-.27-.15-.05-.03A15584.54 15584.54 0 0 0 254.8 1.63c-7.75 16.74-24.75 24.23-44.33 24.23-19.59 0-36.59-7.5-44.34-24.24l-.27.1Z"/><path fill="#000" d="m44.1 383 14.24-27.35L5.4 338.63 1 369.15 44.1 383Z"/><path fill="#61646A" d="m5.55 338.15 52.94 17.02a.5.5 0 0 1 .3.7l-14.24 27.36a.5.5 0 0 1-.6.25L.85 369.62a.5.5 0 0 1-.34-.54l4.4-30.52.02-.1a.5.5 0 0 1 .62-.3Zm-4 30.65 42.3 13.6 13.77-26.46-51.8-16.65-4.27 29.5Z"/><path fill="#000" d="M338.95 94.13s2.32 195.19-2.97 221.2H85.03c-5.3-26-2.98-221.2-2.98-221.2"/><path fill="#61646A" d="M339.45 94.16v.52l.03 1.64.06 6.24a8844.35 8844.35 0 0 1 .4 92.42c-.03 26.02-.24 52.87-.77 74.83-.52 21.94-1.37 39.07-2.7 45.63a.5.5 0 0 1-.5.4H85.04a.5.5 0 0 1-.47-.32l-.02-.08c-1.34-6.56-2.19-23.69-2.71-45.63-.53-21.96-.74-48.8-.78-74.83a8154.04 8154.04 0 0 1 .48-98.66l.01-1.64v-.42l.01-.1v-.04a11.49 11.49 0 0 1 1 .01v.56l-.02 1.64a5747.05 5747.05 0 0 0-.26 28.7c-.14 18.71-.26 43.92-.22 69.95.04 26.02.25 52.86.78 74.81.51 21.54 1.34 38.32 2.6 45.05h250.13c1.27-6.74 2.1-23.52 2.61-45.05a3527 3527 0 0 0 .78-74.82 8159.22 8159.22 0 0 0-.4-92.4l-.07-6.24-.02-1.64v-.55a13.64 13.64 0 0 1 1-.02v.04Zm-257.4-.53c.28 0 .5.23.5.5h-1c0-.29.23-.5.5-.5Zm256.9 0c.27 0 .5.21.5.5h-1c0-.27.22-.5.5-.5Z"/><path fill="#000" d="m376.9 383-14.24-27.35 52.94-17.02 4.4 30.52L376.9 383Z"/><path fill="#61646A" d="M415.55 338.13a.5.5 0 0 1 .54.43l4.4 30.52a.5.5 0 0 1-.34.54l-43.1 13.86a.5.5 0 0 1-.55-.17l-.04-.08-14.24-27.35a.5.5 0 0 1 .29-.7l52.94-17.03.1-.02Zm-52.17 17.81 13.77 26.45 42.3-13.6-4.26-29.5-51.81 16.65Z"/><path fill="#E2F1DF" d="M278.29 84.13h.03v1.1l-.02.02c-.1.04-.36.12-.8.12-1.02 0-1.65-.63-1.65-1.63v-2.8h-1v-1.06h.3c.51 0 .8-.3.8-.82v-.86h1.23v1.65h1.13v1.09h-1.13v2.58c0 .46.2.65.67.65.18 0 .39-.03.44-.04Zm4.16 0c-.05 0-.26.04-.44.04-.47 0-.67-.2-.67-.65v-2.58h1.13v-1.09h-1.13V78.2h-1.22v.86c0 .52-.3.82-.81.82h-.3v1.06h1v2.8c0 1 .63 1.63 1.65 1.63.44 0 .7-.08.8-.13h.02v-1.12l-.03.01Zm-8.3 1.12.01.04h-1.25l-.01-.02a2.66 2.66 0 0 1-.06-.6c-.2.28-.69.78-1.64.78-.54 0-1.01-.17-1.36-.5-.32-.3-.5-.71-.5-1.15 0-.89.62-1.5 1.66-1.66l1.39-.2c.34-.05.37-.23.37-.37 0-.5-.4-.79-1-.79s-1 .35-1.07.92l-1.24-.28c.11-.84.87-1.75 2.3-1.75 2.1 0 2.34 1.43 2.34 2.05v2.68c0 .52.06.84.06.85Zm-1.39-2.44-1.38.2c-.26.05-.7.2-.7.71 0 .32.24.67.76.67.6 0 1.32-.24 1.32-1.37v-.2Zm10.91 2.5h1.35v-5.46h-1.35v5.45Zm-34.4-6.6c1.13 0 2.38.8 2.55 2.33a6.97 6.97 0 0 1 3.65-.67 6.27 6.27 0 0 0-12.3-.53c1.26-.01 2.5.32 3.58.96a2.56 2.56 0 0 1 2.52-2.09Zm-6.24 1.96a6.28 6.28 0 0 0 4.84 6.7v-.03c0-1.16.29-2.3.83-3.3a6.18 6.18 0 0 0-5.67-3.37Zm20.73 2.68-2.55-5.94v-.02h-1.84v7.91h1.37v-5.65l2.38 5.62h1.23l2.4-5.64v5.67h1.4v-7.9h-1.87l-2.52 5.95ZM248.7 87.5a6.28 6.28 0 0 0 6.82-6.24v-.06a6.17 6.17 0 0 0-6.82 6.3Zm62.36-5c0 .34-.03.43-.03.43h-3.97c.05.77.67 1.35 1.45 1.35.59 0 1-.23 1.23-.68h1.28c-.06.23-.15.45-.26.65a2.5 2.5 0 0 1-2.25 1.2c-.75 0-1.45-.28-1.96-.77a2.9 2.9 0 0 1-.84-2.15c0-.81.29-1.55.81-2.08.5-.5 1.17-.79 1.86-.79 1.66 0 2.68 1.09 2.68 2.83Zm-1.36-.57c-.04-.84-.73-1.14-1.3-1.14-.59 0-1.23.4-1.3 1.14h2.6Zm-6.9-2.24c-.67 0-1.25.3-1.58.8v-.65h-1.32v5.45h1.35v-3.14c0-.76.43-1.25 1.1-1.25.95 0 1.09.74 1.09 1.17v3.22h1.35v-3.44c0-1.33-.77-2.16-2-2.16Zm-6.38 3.51-1.53-3.35-.01-.02h-1.53l2.34 4.78-1.28 2.77h1.44l3.45-7.55h-1.43l-1.45 3.37Zm18.54.92c-.05 0-.26.04-.44.04-.47 0-.67-.2-.67-.65v-2.58H315v-1.09h-1.13V78.2h-1.22v.86c0 .52-.3.82-.81.82h-.3v1.06h1v2.8c0 1 .63 1.63 1.65 1.63.46 0 .72-.09.8-.13h.02v-1.12h-.03Zm-30.56-7.01a.87.87 0 0 0-.87.86c0 .48.38.86.87.86.5 0 .88-.37.88-.86 0-.48-.4-.86-.88-.86Zm2.13 8.18h1.35v-8.08h-1.35v8.08Zm5.1-3.27Zm0 0-.82-.16c-.33-.07-.52-.27-.52-.54 0-.33.33-.6.75-.6.82 0 .96.66.98.8v.02l1.15-.32v-.03c-.03-.16-.14-.6-.53-.96a2.23 2.23 0 0 0-1.6-.57c-1.12 0-2.02.8-2.02 1.77 0 .8.55 1.4 1.48 1.6l.8.18c.4.08.62.28.62.57 0 .29-.25.59-.79.59-.74 0-1.04-.48-1.08-.9v-.03l-1.18.33v.02c.04.37.25.77.56 1.06.42.39 1.01.6 1.71.6 1.37 0 2.08-.89 2.08-1.76s-.58-1.45-1.58-1.67Z"/></svg>