<svg xmlns="http://www.w3.org/2000/svg" width="421" height="385" fill="none" viewBox="0 0 421 385"><path fill="#000" d="M318.85 25.37c-5.23-3.05-33.86-12.49-33.86-12.49L257.6 1c-15.2 1.3-30.96 2-47.1 2a552.2 552.2 0 0 1-47.14-2l-27.49 11.86s-28.5 9.47-33.73 12.5C96.92 28.42 70.36 33.2 56 99.38 41.63 165.54 2.9 339.66 2.9 339.66l57.9 18.71 24.42-38.3.83-1.31v22.63h248.93v-22.63l.83 1.31 24.42 38.3 57.9-18.71S379.36 165.54 365 99.36c-14.37-66.16-40.93-70.95-46.14-74h-.01Z"/><path fill="#000" d="M257.61.5a.5.5 0 0 1 .18.04l27.38 11.87.06.02.25.08a692.68 692.68 0 0 1 4.23 1.42c2.77.93 6.5 2.2 10.42 3.58 3.9 1.37 7.98 2.84 11.4 4.15a67.25 67.25 0 0 1 7.58 3.27c2.5 1.46 10.6 3.5 19.75 13.43 9.17 9.93 19.43 27.76 26.63 60.9l2.96 13.6c7.51 34.37 18.93 86.03 28.98 131.36l14.89 67.09 4.59 20.63 1.25 5.64.33 1.47.08.37.02.1v.02l-.48.12.49-.11a.5.5 0 0 1-.34.58l-57.9 18.72a.5.5 0 0 1-.57-.2l-24.32-38.17v20.91a.5.5 0 0 1-.5.5H86.04a.5.5 0 0 1-.5-.5v-20.91l-24.33 38.16a.5.5 0 0 1-.57.2l-57.9-18.7a.5.5 0 0 1-.33-.6l.49.12-.49-.11v-.03l.03-.1.08-.37.33-1.47 1.25-5.64L8.7 311.3l14.88-67.1c11.48-51.8 24.76-111.86 31.93-144.94l.34-1.55c7.18-32.15 17.26-49.58 26.29-59.36 9.15-9.93 17.26-11.97 19.75-13.42a65.4 65.4 0 0 1 7.55-3.28c3.4-1.31 7.47-2.78 11.36-4.16a929.41 929.41 0 0 1 13.68-4.7l.91-.3.3-.1L163.16.53l.06-.02a.5.5 0 0 1 .18-.02c15.22 1.3 30.98 2 47.1 2s31.86-.7 47.06-2h.06Zm-.1 1a551.59 551.59 0 0 1-47.02 2c-16.1 0-31.85-.7-47.06-2l-27.37 11.82-.04.02H136l-.06.02-.24.08-.92.3a941.3 941.3 0 0 0-13.66 4.7 437.3 437.3 0 0 0-11.34 4.16 64.94 64.94 0 0 0-7.4 3.2c-2.72 1.59-10.5 3.46-19.52 13.24-8.87 9.6-18.89 26.86-26.04 58.9l-.34 1.54c-7.18 33.08-20.45 93.15-31.93 144.95a134109.08 134109.08 0 0 1-19.47 87.72l-1.25 5.64-.33 1.47-.01.06 57.09 18.46 24.2-37.98.84-1.31a.5.5 0 0 1 .92.27v22.13h247.93v-22.13a.5.5 0 0 1 .92-.27l.83 1.31 24.21 37.98 57.1-18.46-.02-.06-.33-1.47-1.25-5.64a64303.2 64303.2 0 0 1-19.48-87.72 51500.26 51500.26 0 0 1-28.97-131.36l-2.97-13.6c-7.17-33.02-17.37-50.67-26.38-60.44-8.92-9.66-16.62-11.6-19.43-13.19a915.59 915.59 0 0 0-33.54-12.38l-.24-.08-.06-.02h-.02l.16-.48-.16.48a.56.56 0 0 1-.04-.02L257.5 1.5Z"/><path fill="#000" d="m44.1 384.92 14.24-27.38L5.4 340.5 1 371.05l43.1 13.87Z"/><path fill="#000" d="m5.55 340.02 52.94 17.04a.5.5 0 0 1 .3.7l-14.24 27.39a.5.5 0 0 1-.6.24L.85 371.53a.5.5 0 0 1-.34-.55l4.4-30.55.02-.1a.5.5 0 0 1 .62-.3Zm-4 30.68 42.3 13.61 13.77-26.48-51.8-16.67-4.27 29.54Z"/><path fill="#61646A" d="M339.45 95.76v.53l.03 1.64.06 6.25a8948.64 8948.64 0 0 1 .4 92.51c-.03 26.06-.24 52.93-.77 74.92-.53 21.96-1.37 39.1-2.7 45.68a.5.5 0 0 1-.5.4H85.04a.5.5 0 0 1-.5-.4c-1.33-6.57-2.18-23.72-2.7-45.68-.53-21.99-.74-48.86-.78-74.91a8172.15 8172.15 0 0 1 .48-98.77l.01-1.64v-.42l.01-.1v-.04a11.85 11.85 0 0 1 1 .01v.56l-.02 1.64a5757.34 5757.34 0 0 0-.26 28.74 8170.2 8170.2 0 0 0-.22 70.01c.04 26.06.25 52.92.78 74.9.51 21.56 1.34 38.36 2.6 45.1h250.13c1.27-6.75 2.1-23.55 2.61-45.1.53-21.98.74-48.85.78-74.9a8177.07 8177.07 0 0 0-.4-92.5l-.07-6.25-.02-1.64v-.56a15.95 15.95 0 0 1 1-.01v.03Zm-257.4-.53c.28 0 .5.23.5.51l-1-.01c0-.28.23-.5.5-.5Zm256.9 0c.27 0 .5.22.5.5l-1 .01c0-.28.22-.5.5-.5Z"/><path fill="#000" d="m376.9 384.92-14.24-27.38 52.94-17.04 4.4 30.55-43.1 13.87Z"/><path fill="#000" d="M415.55 340a.5.5 0 0 1 .54.43l4.4 30.55a.5.5 0 0 1-.34.55l-43.1 13.86a.5.5 0 0 1-.6-.24l-14.23-27.38a.5.5 0 0 1 .29-.7l52.94-17.05.1-.02Zm-52.17 17.83 13.77 26.48 42.3-13.6-4.26-29.55-51.81 16.67Z"/><path fill="#E2F1DF" d="m207.9 102.27.07-.02v2.47l-.03.02c-.24.1-.8.28-1.78.28-2.27 0-3.68-1.4-3.68-3.63v-6.2h-2.23v-2.36h.68c1.14 0 1.8-.66 1.8-1.81v-1.91h2.72v3.66h2.5v2.41h-2.5v5.74c0 1.01.44 1.44 1.47 1.44.41 0 .88-.08.98-.1Zm9.25 0c-.1.01-.58.1-.99.1-1.03 0-1.47-.44-1.47-1.45v-5.74h2.5v-2.4h-2.5V89.1h-2.72v1.91c0 1.15-.66 1.8-1.8 1.8h-.68v2.37h2.23v6.2c0 2.24 1.41 3.63 3.68 3.63.99 0 1.54-.18 1.78-.28l.04-.02v-2.47l-.07.02Zm-18.43 2.5.01.07h-2.78l-.02-.05c-.02-.07-.11-.5-.12-1.34a4.28 4.28 0 0 1-3.65 1.76 4.3 4.3 0 0 1-3.03-1.12 3.5 3.5 0 0 1-1.11-2.56c0-1.97 1.38-3.34 3.68-3.67l3.1-.47c.74-.1.83-.5.83-.8 0-1.1-.88-1.76-2.22-1.76-1.32 0-2.24.79-2.4 2.05l-2.73-.62c.24-1.88 1.93-3.88 5.11-3.88 4.67 0 5.18 3.17 5.18 4.53v5.95c0 1.16.14 1.87.14 1.9Zm-3.09-5.43-3.07.46c-.58.1-1.56.42-1.56 1.56 0 .72.54 1.49 1.7 1.49 1.34 0 2.93-.53 2.93-3.04v-.47Zm24.24 5.53h2.99V92.76h-2.99v12.11Zm-76.45-14.63c2.52 0 5.29 1.78 5.66 5.18a15.5 15.5 0 0 1 8.12-1.5 13.92 13.92 0 0 0-27.34-1.19c2.8-.02 5.56.73 7.97 2.14a5.68 5.68 0 0 1 5.59-4.63Zm-13.86 4.35c-.71 7 4.12 13.42 10.75 14.88v-.08c0-2.57.64-5.09 1.85-7.34a13.75 13.75 0 0 0-12.6-7.46Zm46.06 5.94-5.66-13.18-.01-.04h-4.07v17.56h3.02V92.32l5.3 12.47h2.73l5.35-12.52v12.6h3.08V87.31h-4.15l-5.6 13.22Zm-33.44 9.24c8.09.75 15.2-5.74 15.16-13.86v-.12a13.7 13.7 0 0 0-15.16 13.98Zm138.58-11.12c0 .77-.07.97-.07.97h-8.82c.1 1.72 1.48 3 3.23 3 1.29 0 2.2-.5 2.73-1.5h2.85a5.54 5.54 0 0 1-5.58 4.08 6.2 6.2 0 0 1-4.36-1.7 6.45 6.45 0 0 1-1.88-4.77c0-1.8.65-3.43 1.82-4.6a5.85 5.85 0 0 1 4.12-1.75c3.68 0 5.96 2.4 5.96 6.28Zm-3.02-1.24c-.1-1.87-1.63-2.53-2.92-2.53-1.28 0-2.71.89-2.88 2.53h5.8Zm-15.35-4.99c-1.48 0-2.77.67-3.51 1.8v-1.45h-2.92v12.1h3V97.9c0-1.69.95-2.77 2.44-2.77 2.1 0 2.42 1.63 2.42 2.6v7.14h3v-7.64c0-2.96-1.7-4.8-4.43-4.8Zm-14.16 7.81-3.42-7.44-.01-.04h-3.4l5.2 10.6-2.85 6.16h3.2l7.68-16.76h-3.19l-3.2 7.48Zm41.19 2.04c-.1.01-.58.1-.98.1-1.04 0-1.48-.44-1.48-1.45v-5.74h2.5v-2.4h-2.5V89.1h-2.72v1.91c0 1.15-.66 1.8-1.8 1.8h-.68v2.37H284v6.2c0 2.24 1.41 3.63 3.68 3.63 1.02 0 1.59-.2 1.78-.28l.04-.02v-2.47l-.07.02Zm-67.9-15.57c-1.08 0-1.93.86-1.93 1.93 0 1.06.83 1.9 1.93 1.9s1.95-.84 1.95-1.9c0-1.07-.87-1.93-1.95-1.93Zm4.73 18.17h2.99V86.93h-3v17.94Zm11.35-7.26Zm-.01 0-1.83-.37c-.73-.14-1.16-.59-1.16-1.19 0-.74.73-1.32 1.67-1.32a2.02 2.02 0 0 1 2.17 1.75l.01.06 2.55-.72-.01-.05a3.95 3.95 0 0 0-1.16-2.15 4.97 4.97 0 0 0-3.56-1.24c-2.48 0-4.5 1.75-4.5 3.92 0 1.77 1.23 3.1 3.3 3.54l1.78.4c.9.18 1.37.62 1.37 1.27 0 .64-.54 1.31-1.75 1.31-1.64 0-2.31-1.07-2.4-1.98v-.08l-2.63.73v.05c.1.82.56 1.7 1.26 2.35a5.45 5.45 0 0 0 3.79 1.32c3.03 0 4.62-1.96 4.62-3.9s-1.28-3.22-3.52-3.7Z"/></svg>