<svg xmlns="http://www.w3.org/2000/svg" width="276" height="215" fill="none" viewBox="0 0 276 215"><path fill="#fff" d="M138.08 1c6 0 12 .4 17.13 1.2 4.84.76 8.78 1.86 11.22 3.25l.47.28c1.01.65 1.89 1.7 2.8 2.87.42.55.87 1.14 1.31 1.64.43.49.93 1 1.5 1.32 1.22.7 2.83.99 4.19 1.26 1.37.29 2.61.58 3.65 1.13l.2.12a7.76 7.76 0 0 1 2.27 2.3c.59.83 1.28 1.89 2.21 2.61l.19.14c1.2.83 3.12 1.53 4.89 2.16 1.86.67 3.65 1.27 4.87 1.9 40.31 20.84 57.32 58 62.45 101.7l.23 2.09c.2 1.82.1 3.95.12 6.27.02 2.11.12 4.35.7 6.31l.1.4c.4 1.16 1.44 1.58 2.23 1.77.77.18 1.8.25 2.6.35 1.64.22 2.93.61 3.63 1.96l.13.29c.08.2.18.6.25 1.2s.11 1.3.14 2.11c.04 1.61 0 3.51-.06 5.38-.06 1.84-.14 3.66-.17 5.03v1.76c0 .23.03.46.06.66.03.1.05.22.1.34.02.07.08.22.2.38l.13.15.4.38.56-.07c2.77-.35 5.4.8 6.08 3.2l.05.24c.07.3.1.91.08 1.81-.02.85-.09 1.87-.2 2.9a36.33 36.33 0 0 1-.7 4.46l-.09.33a6.2 6.2 0 0 1-1.13 1.75c-.64.78-1.5 1.7-2.55 2.7-2.08 2-4.79 4.31-7.62 6.56-5.32 4.23-10.98 8.24-13.6 9.8l-.5.28c-5.78 3.24-17.06 7.55-28.63 11.18-11.21 3.52-22.5 6.34-29.13 6.96l-.62.06h-.43l-1 .01-3.52.02-11.91.04c-9.74.02-22.55.03-35.37.03-12.8 0-25.62 0-35.36-.03-4.87 0-8.97-.03-11.92-.04-1.48 0-2.66 0-3.51-.02l-1.02-.01H85.76c-6.53-.48-18.18-3.38-29.75-7.01s-22.85-7.94-28.64-11.18c-2.36-1.32-8.41-5.58-14.09-10.1a113.46 113.46 0 0 1-7.62-6.54c-1.04-1-1.91-1.91-2.56-2.7a7.19 7.19 0 0 1-1.07-1.62l-.05-.14c-.25-.76-.57-2.73-.78-4.81-.1-1.03-.17-2.03-.2-2.89-.01-.67 0-1.19.04-1.52l.05-.28c.56-2.55 3.27-3.8 6.15-3.44l.54.07.39-.38c.22-.2.31-.44.34-.54.05-.13.07-.24.1-.34l.07-.66c.02-.46.02-1.07 0-1.76-.03-1.37-.1-3.2-.18-5.03-.05-1.87-.1-3.77-.05-5.38.02-.8.06-1.52.13-2.1.07-.62.16-1 .26-1.21.65-1.6 2.01-2.02 3.76-2.24.78-.1 1.83-.17 2.6-.35.75-.19 1.72-.57 2.14-1.58l.08-.2c.68-2.06.8-4.45.81-6.7.01-2.03-.05-3.92.07-5.58l.06-.69c4.82-44.6 21.73-82.62 62.7-103.8 1.22-.63 3-1.23 4.87-1.89a25.2 25.2 0 0 0 4.66-2l.23-.15c1.04-.71 1.79-1.86 2.4-2.74a8.7 8.7 0 0 1 1.94-2.1l.34-.21c1.07-.64 2.39-.95 3.85-1.25 1.28-.26 2.76-.54 3.96-1.14l.23-.12a6.02 6.02 0 0 0 1.5-1.31c.44-.5.88-1.09 1.31-1.64.85-1.08 1.68-2.1 2.61-2.74l.19-.13c2.38-1.52 6.52-2.72 11.7-3.54a111.2 111.2 0 0 1 16-1.2h1.12l.1-.01Z"/><path fill="#054449" d="M138.08.25c6.02 0 12.07.4 17.24 1.2l.9.15c4.17.71 7.68 1.7 10.08 2.93l.5.27.48.28.02.02c.86.54 1.6 1.33 2.3 2.18l.69.86.65.83.63.78.32.34c.26.28.54.52.82.71l.17.1.21.12c.78.4 1.73.64 2.7.85l1.06.22 1.01.22c.93.22 1.82.47 2.62.87l.22.1.01.01.2.12.03.01a7.77 7.77 0 0 1 2.23 2.17l.26.35.47.66c.47.65.97 1.3 1.58 1.78l.16.12.22.14c1.1.7 2.8 1.33 4.5 1.94l1.37.48c1.13.4 2.2.8 3.08 1.2l.5.24h.01l.95.5c39.3 20.76 56.26 57.13 61.65 99.75l.25 2.05.23 2.09.06.72c.09 1.21.08 2.55.07 3.94v1.69l.01.79c.04 1.84.18 3.7.65 5.31l.11.37c.24.68.8 1.02 1.41 1.2l.27.08.29.06c.67.12 1.47.18 2.23.28l.62.1c1.35.23 2.61.7 3.4 1.95l.18.3.03.05.12.29.01.03.09.24c.08.28.16.66.21 1.15.07.62.12 1.35.15 2.17v.63c.03 1.49-.01 3.16-.06 4.8-.06 1.85-.14 3.65-.17 5.02a44.4 44.4 0 0 0 0 1.71c0 .2.03.39.05.54l.03.13.03.1v.02l.04.07a.8.8 0 0 0 .05.1l.07.07.13.12.2-.02c2.89-.37 5.88.77 6.81 3.46l.09.26v.04l.06.25c.1.4.13 1.1.1 2-.02.87-.1 1.9-.2 2.94a36.57 36.57 0 0 1-.72 4.6l-.1.33v.03c-.16.5-.59 1.17-1.27 2-.66.8-1.55 1.75-2.61 2.77-2.11 2.02-4.83 4.34-7.67 6.6-5.33 4.24-11.03 8.27-13.7 9.86l-.38-.65.37.66-.48.27c-5.87 3.28-17.21 7.62-28.79 11.24-11.22 3.53-22.56 6.37-29.28 7l-.62.06-.07-.75v.75h-.42l-1 .01h-.02l-3.5.02a15350.9 15350.9 0 0 1-47.28.07c-12.82 0-25.63 0-35.37-.03-4.87 0-8.97-.02-11.93-.04-1.47 0-2.66 0-3.51-.02l-1-.01h-.49c-6.62-.5-18.34-3.42-29.91-7.05-11.58-3.62-22.92-7.96-28.79-11.23-2.26-1.27-7.76-5.13-13.12-9.32l-1.07-.85a114.28 114.28 0 0 1-7.67-6.6 32.9 32.9 0 0 1-2.62-2.77 8.74 8.74 0 0 1-1.1-1.61l-.08-.18-.06-.14-.02-.06c-.27-.84-.6-2.88-.8-4.97l-.07-.77c-.07-.76-.11-1.5-.13-2.16l-.01-.5c0-.47.02-.85.05-1.13v-.04l.05-.28v-.04l.08-.28c.81-2.89 3.92-4.12 6.9-3.74l.18.02.14-.13.06-.07a.6.6 0 0 0 .1-.17v-.02l.06-.22c.03-.16.05-.35.06-.56.02-.43.02-1.02 0-1.7v-.01c-.03-1.36-.1-3.16-.18-5.01-.05-1.87-.1-3.8-.05-5.43.02-.82.07-1.56.14-2.17.07-.63.17-1.11.31-1.43a3.82 3.82 0 0 1 1.81-1.99 6.95 6.95 0 0 1 2.21-.64l.34-.04c.86-.12 1.79-.17 2.51-.34.7-.17 1.35-.48 1.63-1.14l.07-.17c.63-1.93.75-4.2.76-6.44v-1.49c0-1.47-.02-2.88.07-4.14v-.01l.06-.7v-.01l.24-2.1C22.99 80.96 40.09 43.52 80.7 22.5l.51-.24c1.24-.57 2.86-1.12 4.46-1.68l1.26-.46c1.24-.46 2.4-.94 3.24-1.47l.22-.14c.9-.62 1.56-1.63 2.22-2.55a9.4 9.4 0 0 1 2.1-2.28l.03-.01.33-.22.03-.02c1.05-.62 2.28-.95 3.55-1.22l.54-.11c1.31-.27 2.68-.53 3.77-1.07l.2-.11c.45-.26.9-.69 1.3-1.15v-.01l.57.5-.56-.5c.41-.47.84-1.04 1.28-1.6l.64-.8c.66-.8 1.36-1.56 2.14-2.1l.18-.12.02-.02.5-.3c2.56-1.46 6.62-2.58 11.49-3.35l.92-.14c4.63-.68 9.9-1.02 15.19-1.07H137.99l.09-.01Zm-.03 1.5-.08.01h-1.12l-1.05.01c-4.88.08-9.68.42-13.94 1.04l-.9.14c-5.15.81-9.16 2-11.4 3.44l-.17.1c-.83.58-1.59 1.5-2.45 2.6-.42.54-.88 1.14-1.33 1.65a6.77 6.77 0 0 1-1.7 1.48l-.24.13-.02.02c-1.3.65-2.9.94-4.15 1.2-1.47.3-2.67.59-3.62 1.15l-.29.19a7.99 7.99 0 0 0-1.75 1.91c-.59.83-1.42 2.12-2.6 2.93v.01l-.24.15h-.01c-.97.61-2.26 1.15-3.54 1.63l-1.27.45c-1.9.67-3.61 1.24-4.77 1.85-40.67 21.02-57.5 58.74-62.3 103.21l-.06.66c-.11 1.63-.06 3.46-.07 5.54-.01 2.25-.12 4.75-.84 6.92l-.02.03-.08.21v.02c-.58 1.36-1.86 1.82-2.66 2.01-.82.2-1.98.28-2.68.38-.86.1-1.53.25-2.05.52-.42.22-.76.53-1.02 1.03l-.1.22v.02c-.05.1-.13.4-.2.99-.07.56-.11 1.25-.13 2.04-.05 1.59 0 3.46.05 5.33l.1 2.7c.04.85.06 1.65.08 2.33v.51c.02.5.01.95 0 1.32a6.2 6.2 0 0 1-.1.78c-.01.08-.04.24-.1.42l-.01.02c-.06.17-.2.51-.53.83l-.39.37a.75.75 0 0 1-.53.21h-.09l-.54-.07c-2.66-.34-4.86.83-5.31 2.84l-.04.22c-.02.22-.04.54-.04.95v.45l.03.67.1 1.42.07.75.08.78c.2 1.74.47 3.25.65 3.86l.05.1.11.23c.13.24.33.55.64.95l.2.24.25.3c.59.69 1.35 1.48 2.25 2.34l.8.76c1.93 1.8 4.3 3.78 6.77 5.75 5.66 4.5 11.68 8.73 13.99 10.03 5.72 3.2 16.93 7.49 28.5 11.11 11.55 3.63 23.11 6.5 29.55 6.98H86.22l.98.01 1.52.02h1.99l5.25.03h6.67l7.84.03 27.53.01a15937.5 15937.5 0 0 0 47.27-.07l3.5-.02 1.03-.01h.4l.58-.06.62-.06c6.62-.72 17.49-3.46 28.34-6.87l2.17-.69c10.78-3.46 20.97-7.43 26.33-10.43l.47-.26c2.59-1.55 8.22-5.53 13.52-9.75l1.05-.84c2.44-1.97 4.72-3.93 6.52-5.66l.74-.73c.7-.7 1.29-1.35 1.76-1.92l.22-.28c.5-.63.7-1.03.77-1.22l.08-.3c.22-.86.49-2.55.67-4.34v-.01l.08-.75c.06-.74.1-1.46.12-2.08.03-.9-.01-1.42-.06-1.62l-.05-.23c-.55-1.88-2.7-2.96-5.26-2.63l-.55.07a.75.75 0 0 1-.61-.2l-.4-.38-.04-.04-.14-.15a2.26 2.26 0 0 1-.35-.63 2.6 2.6 0 0 1-.07-.26l-.05-.18v-.03c-.04-.24-.07-.5-.08-.75v-.02c-.02-.49-.01-1.1 0-1.8l.07-2.35.1-2.68.04-1.4c.03-1.16.04-2.3.03-3.33l-.01-.6c-.03-.8-.07-1.49-.14-2.05a4.47 4.47 0 0 0-.2-1.02l-.1-.23c-.52-.98-1.46-1.33-3.07-1.54-.7-.1-1.84-.18-2.66-.38-.82-.19-2.07-.65-2.65-1.98l-.11-.28-.01-.03-.12-.39a24.1 24.1 0 0 1-.72-6.5v-1.74c0-1.66.02-3.14-.12-4.47l-.23-2.08c-5.1-43.55-22.03-80.44-62.04-101.13l-.46-.22c-1.14-.52-2.66-1.04-4.33-1.63a26.05 26.05 0 0 1-4.81-2.09l-.25-.16-.02-.02-.19-.14h-.01c-1.04-.82-1.8-2-2.36-2.76a7.06 7.06 0 0 0-2.04-2.1l-.19-.11c-.92-.5-2.06-.76-3.43-1.05-1.31-.27-3.07-.58-4.42-1.35a7 7 0 0 1-1.68-1.47c-.46-.53-.92-1.14-1.35-1.68a11.7 11.7 0 0 0-2.6-2.69l-.44-.26-.46-.25c-2.19-1.13-5.51-2.08-9.62-2.78l-.9-.14c-5.06-.8-11.01-1.19-16.97-1.19h-.06Z"/><path fill="#054449" fill-opacity=".4" d="M88.53 20.4c.44 1.47 1.53 6.52 1.45 21.03-.07 14.52-1.31 38.55-5.57 77.98l-.01.07a.75.75 0 0 1-1.48-.23l.39-3.65c3.94-37.25 5.1-60.18 5.17-74.18.08-14.46-1.01-19.34-1.39-20.58l1.44-.43Zm-.94-.5c.4-.11.82.11.94.5l-1.44.44c-.12-.4.1-.81.5-.93ZM187.49 20.75a.75.75 0 0 1 1.44.37l-.02.07c-.45 1.78-1.44 7.34-1.28 21.96.16 13.7 1.3 35.31 4.82 69.15l.73 6.93v.08a.75.75 0 0 1-1.48.16v-.08l-.74-6.93c-3.52-33.87-4.67-55.53-4.83-69.29-.16-14.66.82-20.38 1.33-22.35l.03-.07ZM169.77 8.92c.32-.26.8-.2 1.05.12a17.27 17.27 0 0 1 3.77 10.9l4.5 79.4.01.05a18.94 18.94 0 0 1-18.81 18.96h-43.9c-10.32 0-19.37-8.51-19.37-18.96v-.05l4.51-79.41c.01-3.63 1.04-7.03 2.83-9.92l.05-.06a.75.75 0 0 1 1.23.85l-.3.5a17.36 17.36 0 0 0-2.3 8.67v.04l-4.52 79.4c.01 9.56 8.34 17.44 17.88 17.44h43.89c9.5 0 17.3-7.84 17.3-17.44L173.1 20v-.04c0-3.9-1.3-7.3-3.44-10a.75.75 0 0 1 .12-1.05Z"/><path fill="#054449" d="M136.58 156.65h.04v1.42h-.02c-.14.07-.46.17-1.04.17-1.32 0-2.13-.8-2.13-2.09v-3.57h-1.3v-1.35h.4c.66 0 1.04-.38 1.04-1.04v-1.1h1.58v2.1h1.46v1.4h-1.46v3.29c0 .58.26.83.86.83.24 0 .5-.05.57-.06Zm5.37 0c-.06.01-.33.06-.57.06-.6 0-.86-.25-.86-.83v-3.3h1.46v-1.39h-1.46v-2.1h-1.58v1.1c0 .66-.38 1.04-1.04 1.04h-.4v1.35h1.3v3.57c0 1.29.82 2.09 2.14 2.09.57 0 .9-.1 1.03-.16l.02-.01v-1.42h-.04Zm-10.71 1.44v.04h-1.61v-.02c-.02-.05-.07-.3-.08-.78-.26.37-.9 1.01-2.12 1.01-.7 0-1.31-.22-1.76-.64a2 2 0 0 1-.65-1.47c0-1.13.8-1.92 2.14-2.11l1.8-.27c.43-.06.48-.3.48-.46 0-.63-.5-1.01-1.28-1.01s-1.3.45-1.4 1.18l-1.59-.36c.14-1.08 1.12-2.23 2.97-2.23 2.72 0 3.01 1.82 3.01 2.6V157c0 .67.08 1.08.09 1.1Zm-1.8-3.12-1.78.26c-.34.06-.9.25-.9.9 0 .41.3.86.98.86.78 0 1.7-.3 1.7-1.75v-.27Zm14.1 3.18h1.73v-6.97h-1.74v6.97Zm-44.44-8.41a3.29 3.29 0 0 1 3.29 2.97c1.46-.7 3.1-1 4.72-.85A8.07 8.07 0 0 0 99.1 145a8.08 8.08 0 0 0-7.88 6.17 9.09 9.09 0 0 1 4.63 1.23 3.3 3.3 0 0 1 3.25-2.66Zm-8.06 2.5a8.03 8.03 0 0 0 6.25 8.56v-.05a8.8 8.8 0 0 1 1.08-4.22 8 8 0 0 0-7.33-4.3Zm26.77 3.41-3.28-7.58-.01-.02h-2.37v10.1h1.76v-7.22l3.08 7.18h1.59l3.1-7.2v7.24h1.8v-10.1h-2.42l-3.25 7.6Zm-19.43 5.32c4.7.43 8.84-3.3 8.81-7.97v-.07a7.93 7.93 0 0 0-8.81 8.04Zm80.55-6.4c0 .45-.05.56-.05.56h-5.12c.06 1 .86 1.73 1.88 1.73.75 0 1.28-.3 1.58-.87h1.66a3.23 3.23 0 0 1-3.24 2.35c-.98 0-1.88-.34-2.54-.98a3.69 3.69 0 0 1-1.09-2.74 3.7 3.7 0 0 1 1.06-2.65c.63-.64 1.5-1 2.4-1 2.13 0 3.46 1.38 3.46 3.6Zm-1.76-.7c-.06-1.08-.95-1.46-1.7-1.46-.74 0-1.57.5-1.67 1.45h3.37Zm-8.92-2.88a2.4 2.4 0 0 0-2.04 1.03v-.83h-1.7v6.96h1.74v-4c0-.98.56-1.6 1.42-1.6 1.23 0 1.4.94 1.4 1.5v4.1h1.75v-4.4c0-1.7-.98-2.76-2.57-2.76Zm-8.23 4.5-1.99-4.29v-.02h-1.98l3.02 6.1-1.66 3.54h1.87l4.46-9.64h-1.85l-1.87 4.3Zm23.94 1.16c-.06.01-.34.06-.57.06-.6 0-.86-.25-.86-.83v-3.3H184v-1.39h-1.46v-2.1h-1.58v1.1c0 .66-.38 1.04-1.05 1.04h-.4v1.35h1.3v3.57c0 1.29.82 2.09 2.14 2.09.6 0 .93-.12 1.04-.16l.02-.01v-1.42h-.04Zm-39.47-8.95c-.62 0-1.12.5-1.12 1.11 0 .61.49 1.1 1.12 1.1a1.1 1.1 0 0 0 1.14-1.1c0-.62-.51-1.11-1.14-1.11Zm2.75 10.45h1.74v-10.31h-1.74v10.31Zm6.6-4.17Zm0 0-1.07-.21c-.42-.09-.68-.34-.68-.7 0-.41.43-.75.98-.75 1.06 0 1.23.84 1.26 1v.04l1.49-.41v-.03a2.27 2.27 0 0 0-.68-1.24 2.9 2.9 0 0 0-2.07-.71c-1.44 0-2.62 1-2.62 2.25 0 1.02.72 1.78 1.92 2.04l1.03.23c.52.1.8.35.8.73 0 .37-.32.75-1.02.75-.95 0-1.34-.61-1.4-1.14v-.04l-1.52.41v.03c.06.48.33.98.73 1.36.54.49 1.3.75 2.2.75 1.77 0 2.69-1.12 2.69-2.24 0-1.11-.75-1.85-2.05-2.12Z"/></svg>