<svg xmlns="http://www.w3.org/2000/svg" width="276" height="215" fill="none" viewBox="0 0 276 215"><path fill="#0C4FA1" d="M138.08 1c6 0 12 .4 17.13 1.2 4.84.76 8.78 1.86 11.22 3.25l.47.28c1.01.65 1.89 1.7 2.8 2.87.42.55.87 1.14 1.31 1.64.43.49.93 1 1.5 1.32 1.22.7 2.83.99 4.19 1.26 1.37.29 2.61.58 3.65 1.13l.2.12a7.76 7.76 0 0 1 2.27 2.3c.59.83 1.28 1.89 2.21 2.61l.19.14c1.2.83 3.12 1.53 4.89 2.16 1.86.67 3.65 1.27 4.87 1.9 40.31 20.84 57.32 58 62.45 101.7l.23 2.09c.2 1.82.1 3.95.12 6.27.02 2.11.12 4.35.7 6.31l.1.4c.4 1.16 1.44 1.58 2.23 1.77.77.18 1.8.25 2.6.35 1.64.22 2.93.61 3.63 1.96l.13.29c.08.2.18.6.25 1.2s.11 1.3.14 2.11c.04 1.61 0 3.51-.06 5.38-.06 1.84-.14 3.66-.17 5.03v1.76c0 .23.03.46.06.66.03.1.05.22.1.34.02.07.08.22.2.38l.13.15.4.38.56-.07c2.77-.35 5.4.8 6.08 3.2l.05.24c.07.3.1.91.08 1.81-.02.85-.09 1.87-.2 2.9a36.33 36.33 0 0 1-.7 4.46l-.09.33a6.2 6.2 0 0 1-1.13 1.75c-.64.78-1.5 1.7-2.55 2.7-2.08 2-4.79 4.31-7.62 6.56-5.32 4.23-10.98 8.24-13.6 9.8l-.5.28c-5.78 3.24-17.06 7.55-28.63 11.18-11.21 3.52-22.5 6.34-29.13 6.96l-.62.06h-.43l-1 .01-3.52.02-11.91.04c-9.74.02-22.55.03-35.37.03-12.8 0-25.62 0-35.36-.03-4.87 0-8.97-.03-11.92-.04-1.48 0-2.66 0-3.51-.02l-1.02-.01H85.76c-6.53-.48-18.18-3.38-29.75-7.01s-22.85-7.94-28.64-11.18c-2.36-1.32-8.41-5.58-14.09-10.1a113.46 113.46 0 0 1-7.62-6.54c-1.04-1-1.91-1.91-2.56-2.7a7.19 7.19 0 0 1-1.07-1.62l-.05-.14c-.25-.76-.57-2.73-.78-4.81-.1-1.03-.17-2.03-.2-2.89-.01-.67 0-1.19.04-1.52l.05-.28c.56-2.55 3.27-3.8 6.15-3.44l.54.07.39-.38c.22-.2.31-.44.34-.54.05-.13.07-.24.1-.34l.07-.66c.02-.46.02-1.07 0-1.76-.03-1.37-.1-3.2-.18-5.03-.05-1.87-.1-3.77-.05-5.38.02-.8.06-1.52.13-2.1.07-.62.16-1 .26-1.21.65-1.6 2.01-2.02 3.76-2.24.78-.1 1.83-.17 2.6-.35.75-.19 1.72-.57 2.14-1.58l.08-.2c.68-2.06.8-4.45.81-6.7.01-2.03-.05-3.92.07-5.58l.06-.69c4.82-44.6 21.73-82.62 62.7-103.8 1.22-.63 3-1.23 4.87-1.89a25.2 25.2 0 0 0 4.66-2l.23-.15c1.04-.71 1.79-1.86 2.4-2.74a8.7 8.7 0 0 1 1.94-2.1l.34-.21c1.07-.64 2.39-.95 3.85-1.25 1.28-.26 2.76-.54 3.96-1.14l.23-.12a6.02 6.02 0 0 0 1.5-1.31c.44-.5.88-1.09 1.31-1.64.85-1.08 1.68-2.1 2.61-2.74l.19-.13c2.38-1.52 6.52-2.72 11.7-3.54a111.2 111.2 0 0 1 16-1.2h1.12l.1-.01Z"/><path fill="#437AB8" d="M138.08.15c6.03 0 12.08.4 17.26 1.2l.9.15c4.18.71 7.7 1.7 10.11 2.95l.5.27h.01l.47.28.03.01.21.15c.78.54 1.47 1.28 2.11 2.05l.69.86c.43.57.86 1.13 1.28 1.61l.31.34c.26.27.53.52.8.7l.17.1.2.11c.78.4 1.71.64 2.68.84l1.06.22 1.02.22c.92.22 1.83.48 2.64.88l.22.11h.01l.2.12.03.01.2.13c.86.56 1.5 1.3 2.06 2.07l.26.35.47.66c.47.66.97 1.3 1.58 1.77l.14.11.21.14c1.1.7 2.79 1.32 4.49 1.92l1.36.49c1.13.4 2.21.8 3.1 1.2l.5.24.96.5c39.34 20.78 56.31 57.19 61.7 99.83l.25 2.05.23 2.09.07.72c.08 1.22.07 2.56.06 3.95v1.69l.01.79c.04 1.84.18 3.68.65 5.28l.1.37c.23.63.75.96 1.35 1.14l.26.07h.01l.28.06c.66.13 1.46.18 2.22.28l.63.1c1.41.24 2.76.74 3.57 2.15l.08.16.03.05.13.28v.04l.1.25c.08.3.16.68.21 1.17.08.62.13 1.36.15 2.18l.01.63c.02 1.06 0 2.22-.03 3.4l-.04 1.4c-.06 1.86-.14 3.65-.17 5.02v1.7a4.67 4.67 0 0 0 .08.65l.03.1v.02l.03.06.04.07.07.08.09.08.15-.02.28-.03c2.82-.27 5.72.9 6.64 3.56l.08.27.01.04.06.25.03.17c.08.43.1 1.07.08 1.85-.03.88-.1 1.92-.22 2.97a36.83 36.83 0 0 1-.7 4.58l-.01.01-.1.34v.03a6.9 6.9 0 0 1-1.29 2.03c-.67.82-1.56 1.76-2.62 2.78-2.11 2.03-4.84 4.35-7.68 6.6a164.5 164.5 0 0 1-13.17 9.55l-.53.32-.01.01-.5.28c-5.5 3.08-15.82 7.08-26.63 10.56l-2.17.69c-11.22 3.52-22.57 6.37-29.3 7l-.62.06-.08-.85v.85h-.42l-1 .01h-.01l-3.5.02h-.01l-11.92.04c-9.74.02-22.55.03-35.36.03-12.81 0-25.63 0-35.37-.03-4.87 0-8.97-.03-11.92-.04-1.48 0-2.67 0-3.52-.02l-1-.01h-.49c-6.64-.5-18.37-3.42-29.94-7.05-11.58-3.63-22.93-7.97-28.8-11.25-2.28-1.27-7.78-5.13-13.14-9.32l-1.07-.85a114.41 114.41 0 0 1-7.68-6.6c-1.04-1.01-1.94-1.95-2.62-2.78l-.22-.27c-.42-.53-.71-1-.9-1.37l-.08-.18-.06-.14-.02-.07c-.27-.85-.6-2.9-.8-4.99l-.08-.77c-.07-.77-.11-1.51-.13-2.18-.02-.7 0-1.25.04-1.63v-.05l.05-.28.01-.04.07-.29c.83-2.95 4-4.2 7.02-3.81l.13.01.1-.09.06-.06a.46.46 0 0 0 .07-.14v-.02l.04-.1.02-.1c.03-.16.05-.35.06-.55.02-.43.02-1.02 0-1.7-.02-1.37-.1-3.17-.17-5.02-.06-1.87-.1-3.8-.06-5.43.02-.62.05-1.19.1-1.7l.04-.49a5.3 5.3 0 0 1 .32-1.45 3.91 3.91 0 0 1 1.86-2.04c.78-.4 1.68-.58 2.57-.7l1.32-.14.92-.13.28-.06c.69-.17 1.3-.46 1.55-1.08l.06-.16c.63-1.91.75-4.18.76-6.41v-1.48c0-1.47-.02-2.89.07-4.16l.06-.7v-.02l.24-2.1c5.1-43.51 21.98-80.74 61.96-101.86l.96-.5c1.29-.67 3.15-1.3 4.98-1.94l1.26-.45c1.24-.46 2.4-.94 3.23-1.47l.2-.13c.88-.6 1.53-1.6 2.2-2.53l.46-.63c.48-.61 1-1.2 1.67-1.67l.03-.01.33-.22.03-.02c1.21-.72 2.67-1.05 4.12-1.35l1-.2a11.9 11.9 0 0 0 2.74-.86l.2-.11a5.2 5.2 0 0 0 1.27-1.13h.01l.32-.37.96-1.23.65-.8c.66-.8 1.36-1.57 2.15-2.12l.19-.13.02-.01.5-.3c2.58-1.47 6.66-2.6 11.52-3.37l.92-.14c4.65-.68 9.91-1.03 15.2-1.07H137.99l.1-.01Zm-.01 1.7-.1.01h-1.12l-1.04.01c-4.88.08-9.68.42-13.93 1.04l-.9.14c-5.14.81-9.13 2-11.36 3.41l-.17.12c-.81.56-1.56 1.47-2.43 2.57-.42.54-.88 1.14-1.34 1.66a6.86 6.86 0 0 1-1.72 1.5l-.24.13-.03.01c-.99.5-2.14.79-3.18 1.01l-.98.2c-1.47.3-2.66.6-3.59 1.14l-.3.2a7.92 7.92 0 0 0-1.72 1.89c-.58.82-1.43 2.12-2.61 2.94l-.02.01-.23.15-.01.01c-.98.61-2.28 1.15-3.57 1.63l-1.27.46c-1.9.66-3.6 1.24-4.76 1.84-40.62 21-57.44 58.68-62.25 103.13l-.05.67c-.06.8-.07 1.67-.07 2.58v2.94c-.01 2.25-.12 4.76-.85 6.95a.6.6 0 0 1-.01.04l-.08.2-.01.03c-.6 1.4-1.92 1.87-2.72 2.07-.83.2-2 .28-2.7.38-.85.1-1.5.25-2 .51-.42.21-.74.51-.99.98l-.1.22v.02c-.04.08-.12.37-.19.96a23.7 23.7 0 0 0-.13 2.04c-.05 1.58 0 3.45.05 5.31l.1 2.7c.04.85.07 1.65.08 2.34l.01.51a19.99 19.99 0 0 1-.04 1.7l-.05.38-.01.04c-.02.08-.05.25-.12.43v.02c-.07.18-.22.54-.56.86l-.39.38a.85.85 0 0 1-.7.24l-.54-.07c-2.64-.34-4.76.82-5.2 2.76l-.04.21c-.02.22-.04.53-.04.94l.01.45.03.66c.02.45.05.93.1 1.43l.06.74.08.78c.2 1.74.47 3.24.65 3.84l.04.1.11.22c.12.22.33.53.63.92l.2.25.25.3c.58.68 1.34 1.46 2.24 2.33l.8.76c1.93 1.79 4.3 3.77 6.76 5.74 5.67 4.5 11.68 8.73 13.98 10.02 5.7 3.19 16.92 7.49 28.48 11.1 11.55 3.63 23.1 6.5 29.53 6.98h.42l.98.01 1.53.02h1.98l5.25.02 6.67.02 7.84.02a16062.02 16062.02 0 0 0 74.8-.06l3.5-.02 1.03-.01h.39l.58-.05.62-.07c6.61-.72 17.47-3.45 28.33-6.86l2.16-.69c10.77-3.47 20.95-7.43 26.3-10.42l.48-.27c2.58-1.54 8.2-5.51 13.51-9.74l1.05-.84a103.5 103.5 0 0 0 6.51-5.66l.74-.72c.7-.7 1.29-1.35 1.75-1.91l.23-.28c.47-.61.68-1 .74-1.18l.09-.3c.21-.86.48-2.54.66-4.34l.08-.75c.07-.74.1-1.45.13-2.07.02-.9-.02-1.41-.06-1.6l-.05-.22c-.53-1.81-2.61-2.9-5.15-2.56l-.56.06a.86.86 0 0 1-.69-.22l-.4-.38-.04-.04-.14-.15a2.37 2.37 0 0 1-.38-.69c-.06-.18-.1-.35-.11-.43l-.01-.04a6.4 6.4 0 0 1-.08-.76v-1.82l.08-2.35.1-2.69c.04-1.63.08-3.27.06-4.72l-.01-.6c-.02-.8-.07-1.48-.13-2.03a4.47 4.47 0 0 0-.2-.99l-.1-.23c-.43-.82-1.17-1.19-2.42-1.4l-.57-.1c-.69-.09-1.85-.17-2.68-.37-.87-.2-2.29-.73-2.82-2.33l-.02-.03-.11-.39a24.2 24.2 0 0 1-.73-6.54v-1.73c0-1.66.03-3.14-.12-4.46l-.23-2.08c-5.1-43.53-22.02-80.38-61.99-101.05-1.16-.6-2.86-1.16-4.77-1.85a26.14 26.14 0 0 1-4.83-2.1l-.26-.16-.02-.02-.19-.14c-1.06-.83-1.84-2.02-2.39-2.79a6.98 6.98 0 0 0-2-2.07l-.18-.1-.35-.17c-.85-.38-1.86-.62-3.08-.88-1.3-.26-3.07-.57-4.44-1.36a7.09 7.09 0 0 1-1.7-1.48l-.01-.01c-.46-.53-.92-1.13-1.34-1.68l-.67-.84a8.77 8.77 0 0 0-1.9-1.82l-.45-.27c-2.16-1.23-5.64-2.26-10.04-3l-.9-.15c-5.05-.8-11-1.19-16.94-1.19h-.06Z"/><path fill="#C2DEEF" fill-opacity=".3" d="M88.62 20.38c.45 1.47 1.54 6.54 1.46 21.05-.07 14.52-1.32 38.56-5.57 77.99l-.02.08a.85.85 0 0 1-1.67-.27l.39-3.65c3.94-37.23 5.1-60.17 5.17-74.16.08-14.46-1.02-19.32-1.39-20.55l1.63-.5Zm-1.06-.57a.85.85 0 0 1 1.06.57l-1.63.5a.85.85 0 0 1 .57-1.07ZM187.36 20.8a.85.85 0 0 1 1.65.42c-.45 1.76-1.44 7.31-1.28 21.93.15 13.7 1.3 35.3 4.82 69.14l.73 6.93v.09a.85.85 0 0 1-1.68.18l-.01-.09-.74-6.93c-3.5-33.87-4.66-55.54-4.82-69.3-.16-14.66.82-20.4 1.33-22.38ZM169.7 8.84c.37-.3.9-.23 1.2.14a17.36 17.36 0 0 1 3.79 10.97l4.51 79.39v.05c0 10.47-8.5 19.06-18.91 19.06h-43.9c-10.37 0-19.47-8.55-19.47-19.06v-.05l4.51-79.39c0-3.65 1.04-7.08 2.85-10l.05-.06a.85.85 0 0 1 1.4.96l-.3.5a17.25 17.25 0 0 0-2.3 8.62v.05l-4.5 79.4c0 9.5 8.28 17.33 17.77 17.33h43.89c9.45 0 17.2-7.8 17.21-17.34L173 20.01v-.04c0-3.88-1.28-7.26-3.42-9.93a.85.85 0 0 1 .14-1.2Z"/><path fill="#E2F1DF" d="M136.58 156.65h.04v1.42h-.02c-.14.07-.46.17-1.04.17-1.32 0-2.13-.8-2.13-2.09v-3.57h-1.3v-1.35h.4c.66 0 1.04-.38 1.04-1.04v-1.1h1.58v2.1h1.46v1.4h-1.46v3.29c0 .58.26.83.86.83.24 0 .5-.05.57-.06Zm5.37 0c-.06.01-.33.06-.57.06-.6 0-.86-.25-.86-.83v-3.3h1.46v-1.39h-1.46v-2.1h-1.58v1.1c0 .66-.38 1.04-1.04 1.04h-.4v1.35h1.3v3.57c0 1.29.82 2.09 2.14 2.09.57 0 .9-.1 1.03-.16l.02-.01v-1.42h-.04Zm-10.71 1.44v.04h-1.61v-.02c-.02-.05-.07-.3-.08-.78-.26.37-.9 1.01-2.12 1.01-.7 0-1.31-.22-1.76-.64a2 2 0 0 1-.65-1.47c0-1.13.8-1.92 2.14-2.11l1.8-.27c.43-.06.48-.3.48-.46 0-.63-.5-1.01-1.28-1.01s-1.3.45-1.4 1.18l-1.59-.36c.14-1.08 1.12-2.23 2.97-2.23 2.72 0 3.01 1.82 3.01 2.6V157c0 .67.08 1.08.09 1.1Zm-1.8-3.12-1.78.26c-.34.06-.9.25-.9.9 0 .41.3.86.98.86.78 0 1.7-.3 1.7-1.75v-.27Zm14.1 3.18h1.73v-6.97h-1.74v6.97Zm-44.44-8.41a3.29 3.29 0 0 1 3.29 2.97c1.46-.7 3.1-1 4.72-.85A8.07 8.07 0 0 0 99.1 145a8.08 8.08 0 0 0-7.88 6.17 9.09 9.09 0 0 1 4.63 1.23 3.3 3.3 0 0 1 3.25-2.66Zm-8.06 2.5a8.03 8.03 0 0 0 6.25 8.56v-.05a8.8 8.8 0 0 1 1.08-4.22 8 8 0 0 0-7.33-4.3Zm26.77 3.41-3.28-7.58-.01-.02h-2.37v10.1h1.76v-7.22l3.08 7.18h1.59l3.1-7.2v7.24h1.8v-10.1h-2.42l-3.25 7.6Zm-19.43 5.32c4.7.43 8.84-3.3 8.81-7.97v-.07a7.93 7.93 0 0 0-8.81 8.04Zm80.55-6.4c0 .45-.05.56-.05.56h-5.12c.06 1 .86 1.73 1.88 1.73.75 0 1.28-.3 1.58-.87h1.66a3.23 3.23 0 0 1-3.24 2.35c-.98 0-1.88-.34-2.54-.98a3.69 3.69 0 0 1-1.09-2.74 3.7 3.7 0 0 1 1.06-2.65c.63-.64 1.5-1 2.4-1 2.13 0 3.46 1.38 3.46 3.6Zm-1.76-.7c-.06-1.08-.95-1.46-1.7-1.46-.74 0-1.57.5-1.67 1.45h3.37Zm-8.92-2.88a2.4 2.4 0 0 0-2.04 1.03v-.83h-1.7v6.96h1.74v-4c0-.98.56-1.6 1.42-1.6 1.23 0 1.4.94 1.4 1.5v4.1h1.75v-4.4c0-1.7-.98-2.76-2.57-2.76Zm-8.23 4.5-1.99-4.29v-.02h-1.98l3.02 6.1-1.66 3.54h1.87l4.46-9.64h-1.85l-1.87 4.3Zm23.94 1.16c-.06.01-.34.06-.57.06-.6 0-.86-.25-.86-.83v-3.3H184v-1.39h-1.46v-2.1h-1.58v1.1c0 .66-.38 1.04-1.05 1.04h-.4v1.35h1.3v3.57c0 1.29.82 2.09 2.14 2.09.6 0 .93-.12 1.04-.16l.02-.01v-1.42h-.04Zm-39.47-8.95c-.62 0-1.12.5-1.12 1.11 0 .61.49 1.1 1.12 1.1a1.1 1.1 0 0 0 1.14-1.1c0-.62-.51-1.11-1.14-1.11Zm2.75 10.45h1.74v-10.31h-1.74v10.31Zm6.6-4.17Zm0 0-1.07-.21c-.42-.09-.68-.34-.68-.7 0-.41.43-.75.98-.75 1.06 0 1.23.84 1.26 1v.04l1.49-.41v-.03a2.27 2.27 0 0 0-.68-1.24 2.9 2.9 0 0 0-2.07-.71c-1.44 0-2.62 1-2.62 2.25 0 1.02.72 1.78 1.92 2.04l1.03.23c.52.1.8.35.8.73 0 .37-.32.75-1.02.75-.95 0-1.34-.61-1.4-1.14v-.04l-1.52.41v.03c.06.48.33.98.73 1.36.54.49 1.3.75 2.2.75 1.77 0 2.69-1.12 2.69-2.24 0-1.11-.75-1.85-2.05-2.12Z"/></svg>