<svg xmlns="http://www.w3.org/2000/svg" width="476" height="383" fill="none" viewBox="0 0 476 383"><path fill="#222326" d="M278.5 4.66A175.68 175.68 0 0 0 237.8 0c-14.45 0-27.93 1.62-40.33 4.56v57.3h81.47l-.45-57.2Z"/><path fill="#000" d="M418.45 80.3c-2.02-3.52-127.52-51.87-127.52-51.87.13-.16-12.44-23.19-12.44-23.19-28.66 18.95-35.17 35.4-36.35 44.32H234c-1.27-8.97-7.9-25.54-36.33-44.32 0 0-12.62 23.18-12.6 23.2 0 0-125.48 48.34-127.5 51.86C55.54 83.82 0 211.77 1 216.8l44.69 97.72s37.87-4.53 70.18-29.7l-22.48-95.2 25.18-6.66L137.22 382h201.56l18.64-199.04 25.18 6.65-22.48 95.2c32.31 25.18 70.18 29.71 70.18 29.71L475 216.81c1-5.04-54.53-132.98-56.55-136.5h.01Z"/><path fill="#000" d="M197.94 4.83c28.07 18.54 35.03 35 36.47 44.23h7.3c1.36-9.19 8.2-25.53 36.5-44.23l.46-.3.26.47.01.02.03.05.1.2.4.72a2319.46 2319.46 0 0 1 11.8 21.94l.04.11.16.06 1.05.4a5074.22 5074.22 0 0 1 18.23 7.07 7664.9 7664.9 0 0 1 43.37 17.01 2809.5 2809.5 0 0 1 43.74 17.67c6.03 2.52 11.1 4.7 14.74 6.36 1.81.83 3.28 1.54 4.32 2.09a16.44 16.44 0 0 1 1.67 1.02c.1.09.22.2.3.33l.43.75h-.07c.5 1.07 1.44 3.14 2.7 5.97 1.71 3.85 4.04 9.16 6.78 15.44a5210.46 5210.46 0 0 1 19.58 45.58c7 16.53 13.92 33.11 19.01 45.87a499.08 499.08 0 0 1 6.08 15.81c.71 2 1.26 3.64 1.62 4.87.18.62.3 1.13.39 1.54.07.39.12.76.07 1.02l-.02.06-.02.05-44.69 97.72-.15.33-.36-.04h-.03l-.08-.01-.33-.05-1.27-.19c-1.1-.17-2.71-.45-4.75-.86-4.07-.82-9.83-2.18-16.6-4.32-13.55-4.3-31.15-11.74-47.37-24.38l-.25-.2.07-.31L382 189.97l-24.14-6.38-18.59 198.46-.04.45H136.77l-.05-.45-18.58-198.46L94 189.97l22.36 94.73.08.3-.25.2c-16.22 12.65-33.83 20.1-47.37 24.39a160.7 160.7 0 0 1-16.6 4.32 112.4 112.4 0 0 1-6.02 1.05l-.33.05h-.11l-.36.05-.16-.33L.56 217.01l-.03-.05v-.06c-.06-.26-.01-.63.06-1.02.08-.4.21-.92.39-1.54.36-1.23.9-2.87 1.62-4.87 1.43-4 3.53-9.43 6.07-15.8 5.1-12.77 12.01-29.35 19.02-45.88 7-16.53 14.1-33.01 19.58-45.58 2.74-6.29 5.07-11.6 6.78-15.44 1.7-3.83 2.8-6.25 3.07-6.72.08-.13.2-.25.3-.33.1-.1.25-.2.4-.3.32-.2.75-.45 1.27-.73 1.04-.55 2.5-1.26 4.32-2.09a510.3 510.3 0 0 1 14.73-6.35c12.05-5.03 27.93-11.4 43.74-17.67a7689.9 7689.9 0 0 1 57.6-22.53l3.99-1.54 1.05-.4.18-.07.06-.1.4-.74 1.42-2.63 4.34-7.97a59452.65 59452.65 0 0 1 6.16-11.34l.1-.19.04-.05v-.01l.27-.48.45.3Zm80.37 1.13c-28.19 18.76-34.52 34.98-35.67 43.67l-.06.43h-9.03l-.06-.43c-1.23-8.74-7.7-25.07-35.65-43.67l-.28.52-1.43 2.62a66202.1 66202.1 0 0 0-10.1 18.57l-.36.67.29.29-.72.27-.18-.46.18.46-.03.01-.06.03-.27.1-1.05.4a5030.93 5030.93 0 0 0-18.23 7.07 7696.84 7696.84 0 0 0-43.35 17 2806.4 2806.4 0 0 0-43.73 17.66 509.32 509.32 0 0 0-14.7 6.34c-1.8.83-3.25 1.53-4.26 2.07a15.63 15.63 0 0 0-1.5.9l-.07.07c-.24.4-1.31 2.76-3.03 6.62a5235.36 5235.36 0 0 0-26.35 61c-7 16.54-13.91 33.1-19 45.86a495.92 495.92 0 0 0-6.07 15.78 87.71 87.71 0 0 0-1.6 4.8 17.4 17.4 0 0 0-.43 1.91l-.01.13v.02l44.5 97.3h.06l1.25-.19c1.1-.17 2.7-.44 4.71-.85 4.04-.81 9.77-2.16 16.5-4.3 13.4-4.24 30.77-11.6 46.8-24.02L92.8 189.25l.47-.12 25.75-6.8.05.58 18.6 198.59h200.64l18.65-199.18 25.75 6.8.47.13-22.5 95.36c16.02 12.43 33.39 19.78 46.79 24.02a159.57 159.57 0 0 0 16.5 4.3 113.37 113.37 0 0 0 5.96 1.04h.06l44.5-97.3v-.15a17.21 17.21 0 0 0-.44-1.9c-.35-1.2-.89-2.82-1.6-4.81a494.4 494.4 0 0 0-6.06-15.78c-5.1-12.75-12-29.32-19.01-45.85-7-16.52-14.1-33-19.58-45.57-2.73-6.28-5.06-11.59-6.77-15.43a174.4 174.4 0 0 0-3.03-6.63 85.98 85.98 0 0 0-5.82-3.03 508.23 508.23 0 0 0-14.71-6.35 2807.43 2807.43 0 0 0-43.73-17.66 7676.03 7676.03 0 0 0-57.6-22.53l-4-1.54-1.04-.4c-.12-.05-.21-.09-.27-.1l-.07-.03-.02-.01.18-.47-.18.47-.65-.25.25-.3-.36-.74a1322.22 1322.22 0 0 0-5.67-10.6l-4.3-7.93-1.43-2.6-.28-.52Z"/><path fill="#61646A" d="M78.78 91.48h.05l-.09 1h-.02c-.03 0-.09 0-.16.02-.14.02-.35.08-.6.24-.5.3-1.19 1-1.73 2.6-1.1 3.24-1.53 10.05 1.43 24.25l16.23 69.5-.49.11-.48.12-16.24-69.5v-.01c-2.97-14.24-2.59-21.28-1.4-24.8.6-1.77 1.42-2.67 2.16-3.12a2.77 2.77 0 0 1 1.34-.41ZM397.32 91.48l.3.03c.25.05.58.15.95.38.73.45 1.55 1.35 2.15 3.13 1.2 3.5 1.57 10.55-1.4 24.79v.01l-16.23 69.5-.49-.12-.49-.11 16.24-69.48c2.96-14.21 2.52-21.03 1.42-24.27-.54-1.6-1.23-2.3-1.73-2.6a1.77 1.77 0 0 0-.75-.26h-.03l-.04-.5-.05-.5H397.33ZM238.5 372.91v1.27h-1v-1.27h1Zm0-5.08v2.54h-1v-2.54h1Zm0-5.07v2.54h-1v-2.55h1Zm0-5.08v2.54h-1v-2.54h1Zm0-5.08v2.54h-1v-2.54h1Zm0-5.08v2.54h-1v-2.54h1Zm0-5.08v2.54h-1v-2.54h1Zm0-5.08v2.54h-1v-2.54h1Zm0-5.08v2.54h-1v-2.54h1Zm0-5.08v2.54h-1v-2.54h1Zm0-5.07v2.54h-1v-2.55h1Zm0-5.08v2.54h-1v-2.54h1Zm0-5.08v2.54h-1v-2.54h1Zm0-5.08v2.54h-1v-2.54h1Zm0-5.08v2.54h-1v-2.54h1Zm0-5.08v2.54h-1v-2.54h1Zm0-5.08v2.54h-1v-2.54h1Zm0-5.08v2.54h-1v-2.54h1Zm0-5.07v2.54h-1v-2.55h1Zm0-5.08v2.54h-1v-2.54h1Zm0-5.08v2.54h-1v-2.54h1Zm0-5.08v2.54h-1v-2.54h1Zm0-5.08v2.54h-1v-2.54h1Zm0-5.08v2.54h-1v-2.54h1Zm0-5.08v2.54h-1v-2.54h1Zm0-5.08v2.54h-1v-2.54h1Zm0-5.07v2.53h-1v-2.53h1Zm0-5.08v2.54h-1v-2.54h1Zm0-5.08v2.54h-1v-2.54h1Zm0-5.08v2.54h-1v-2.54h1Zm0-5.08v2.54h-1v-2.54h1Zm0-5.08v2.54h-1v-2.54h1Zm0-5.08v2.54h-1v-2.54h1Zm0-5.08v2.54h-1v-2.54h1Zm0-5.07v2.53h-1v-2.53h1Zm0-5.08v2.54h-1v-2.54h1Zm0-5.08v2.54h-1v-2.54h1Zm0-5.08v2.54h-1V185h1Zm0-5.08v2.54h-1v-2.54h1Zm0-5.08v2.54h-1v-2.54h1Zm0-5.08v2.54h-1v-2.54h1Zm0-5.07v2.53h-1v-2.53h1Zm0-5.09v2.55h-1v-2.55h1Zm0-5.07v2.54h-1v-2.54h1Zm0-5.08v2.54h-1v-2.54h1Zm0-5.08v2.54h-1v-2.54h1Zm0-5.08v2.54h-1v-2.54h1Zm0-5.08v2.54h-1v-2.54h1Zm0-5.08v2.54h-1v-2.54h1Zm0-5.07v2.53h-1v-2.53h1Zm0-5.08v2.54h-1v-2.54h1Zm0-5.08v2.54h-1v-2.54h1Zm0-5.08v2.54h-1v-2.54h1Zm0-5.08v2.54h-1v-2.54h1Zm0-5.08v2.54h-1v-2.54h1Zm0-5.08v2.54h-1v-2.54h1Zm0-5.08v2.54h-1V88.5h1Zm0-5.08v2.54h-1v-2.54h1Zm0-5.07v2.54h-1v-2.54h1Zm0-5.08v2.54h-1v-2.54h1Zm0-5.08v2.54h-1v-2.54h1Zm0-5.08v2.54h-1V63.1h1Zm0-3.8v1.26h-1V59.3h1Z"/><path fill="#E2F1DF" d="M303.29 106.47h.03v1.15h-.02c-.1.05-.36.13-.8.13-1.02 0-1.65-.65-1.65-1.7v-2.89h-1v-1.1h.3c.51 0 .8-.31.8-.85v-.89h1.23v1.71h1.13v1.13h-1.13v2.68c0 .47.2.67.67.67.18 0 .39-.03.44-.04Zm4.16 0a2.6 2.6 0 0 1-.44.04c-.47 0-.67-.2-.67-.67v-2.68h1.13v-1.13h-1.13v-1.7h-1.22v.88c0 .54-.3.85-.81.85h-.3v1.1h1v2.9c0 1.04.63 1.7 1.65 1.7.44 0 .7-.09.8-.14h.02v-1.16h-.03Zm-8.3 1.17.01.03h-1.25l-.01-.02a2.85 2.85 0 0 1-.06-.63c-.2.3-.69.82-1.64.82a1.9 1.9 0 0 1-1.36-.52c-.32-.32-.5-.74-.5-1.2 0-.91.62-1.56 1.66-1.71l1.39-.22c.34-.05.37-.24.37-.37 0-.52-.4-.82-1-.82s-1 .36-1.07.95l-1.24-.29c.11-.88.87-1.81 2.3-1.81 2.1 0 2.34 1.48 2.34 2.12v2.78c0 .54.06.87.06.89Zm-1.39-2.54-1.38.21c-.26.05-.7.2-.7.73 0 .34.24.7.76.7.6 0 1.32-.25 1.32-1.42v-.22Zm10.91 2.59h1.35v-5.66h-1.35v5.66Zm-34.4-6.84a2.6 2.6 0 0 1 2.55 2.42 6.75 6.75 0 0 1 3.65-.7 6.35 6.35 0 0 0-6.2-5.57 6.32 6.32 0 0 0-6.1 5.02c1.26-.02 2.5.33 3.58 1a2.58 2.58 0 0 1 2.52-2.17Zm-6.24 2.03a6.5 6.5 0 0 0 4.84 6.95v-.03c0-1.2.29-2.38.83-3.43a6.16 6.16 0 0 0-5.67-3.49Zm20.73 2.78-2.55-6.16v-.02h-1.84v8.2h1.37v-5.86l2.38 5.83h1.23l2.4-5.85v5.89h1.4v-8.2h-1.87l-2.52 6.17Zm-15.05 4.31c3.64.36 6.85-2.68 6.83-6.47v-.06c-3.68-.44-6.96 2.7-6.83 6.53Zm62.36-5.19c0 .36-.03.45-.03.45h-3.97c.05.8.67 1.4 1.45 1.4.59 0 1-.23 1.23-.7h1.28a2.47 2.47 0 0 1-2.51 1.9c-.75.01-1.45-.27-1.96-.78a3.07 3.07 0 0 1-.84-2.23c0-.84.29-1.6.81-2.16.5-.52 1.17-.81 1.86-.81 1.66 0 2.68 1.12 2.68 2.93Zm-1.36-.58c-.04-.87-.73-1.18-1.3-1.18a1.3 1.3 0 0 0-1.3 1.18h2.6Zm-6.9-2.33c-.67 0-1.25.31-1.58.84v-.68h-1.32v5.66h1.35v-3.26c0-.79.43-1.3 1.1-1.3.95 0 1.09.76 1.09 1.22v3.34h1.35v-3.57c0-1.39-.77-2.25-2-2.25Zm-6.38 3.65-1.53-3.48-.01-.02h-1.53l2.34 4.95-1.28 2.88h1.44l3.45-7.83h-1.43l-1.45 3.5Zm18.54.95c-.05 0-.26.04-.44.04-.47 0-.67-.2-.67-.67v-2.68H340v-1.13h-1.13v-1.7h-1.22v.88c0 .54-.3.85-.81.85h-.3v1.1h1v2.9c0 1.04.63 1.7 1.65 1.7.46 0 .72-.1.8-.14h.02v-1.16h-.03Zm-30.56-7.28c-.48 0-.87.4-.87.9s.38.9.87.9c.5 0 .88-.4.88-.9s-.4-.9-.88-.9Zm2.13 8.5h1.35V99.3h-1.35v8.39Zm5.1-3.4Zm0 0-.82-.17c-.33-.06-.52-.27-.52-.56 0-.34.33-.61.75-.61.82 0 .96.68.98.81v.03l1.15-.33v-.03a1.87 1.87 0 0 0-.53-1 2.19 2.19 0 0 0-1.6-.58c-1.12 0-2.02.82-2.02 1.83 0 .83.55 1.45 1.48 1.66l.8.18c.4.09.62.29.62.6 0 .3-.25.6-.79.6-.74 0-1.04-.5-1.08-.92v-.03l-1.18.33v.03c.04.38.25.8.56 1.1.42.4 1.01.61 1.71.61 1.37 0 2.08-.91 2.08-1.82 0-.9-.58-1.5-1.58-1.73Z"/></svg>