<svg xmlns="http://www.w3.org/2000/svg" width="476" height="384" fill="none" viewBox="0 0 476 384"><path fill="#000" d="M238.3 1c14.3 0 27.91 1.63 40.3 4.57l.07-.04.03.06.3.07v.46l.07.14.4.73a2355.57 2355.57 0 0 1 11.8 21.94l.04.11.16.06 1.05.4a4700.38 4700.38 0 0 1 18.23 7.07c11.8 4.6 27.55 10.75 43.37 17.01a2809.5 2809.5 0 0 1 43.74 17.67 509.9 509.9 0 0 1 14.74 6.36c1.81.83 3.28 1.54 4.32 2.09a16.4 16.4 0 0 1 1.67 1.02c.1.09.22.2.3.33l.43.75h-.07c.5 1.07 1.44 3.14 2.7 5.97 1.71 3.85 4.04 9.16 6.78 15.44a5210.46 5210.46 0 0 1 19.58 45.58c7 16.53 13.92 33.11 19.01 45.87a498.14 498.14 0 0 1 6.08 15.81c.71 2 1.26 3.64 1.62 4.87.18.62.3 1.13.39 1.54.07.39.12.76.07 1.02l-.02.06-.02.05-44.69 97.72-.15.33-.36-.04h-.03l-.08-.01-.33-.05-1.27-.19c-1.1-.17-2.72-.45-4.75-.86-4.07-.82-9.83-2.18-16.6-4.32-13.55-4.3-31.15-11.74-47.37-24.38l-.25-.2.07-.31L382 190.97l-24.14-6.38-18.59 198.46-.04.45H136.77l-.05-.45-18.58-198.46L94 190.97l22.36 94.73.08.3-.25.2c-16.22 12.65-33.83 20.1-47.37 24.39a160.69 160.69 0 0 1-16.6 4.32 112.38 112.38 0 0 1-6.02 1.05l-.33.05h-.11v.01l-.36.04-.16-.33L.56 218.01l-.03-.05v-.06c-.06-.26-.01-.63.06-1.02.08-.4.21-.92.39-1.54.35-1.23.9-2.87 1.62-4.87 1.43-4 3.53-9.43 6.07-15.8 5.1-12.77 12.01-29.35 19.02-45.88 7-16.53 14.1-33.01 19.58-45.58 2.74-6.29 5.07-11.6 6.78-15.44 1.7-3.83 2.8-6.25 3.07-6.72l.07-.1a4.35 4.35 0 0 1 .64-.53c.31-.2.74-.45 1.26-.73 1.04-.55 2.5-1.26 4.32-2.09 3.63-1.66 8.7-3.84 14.73-6.35 12.05-5.03 27.93-11.4 43.74-17.67a7660.02 7660.02 0 0 1 61.59-24.07l1.05-.4.18-.07.06-.1.4-.74 1.42-2.63 4.34-7.97 4.33-7.97L196.68 7l.4-.74.1-.19.04-.05v-.01l.27-.48.45.3.03.02v-.3A174.96 174.96 0 0 1 238.3 1Z"/><path fill="#000" d="M238.3.5c14.25 0 27.83 1.62 40.21 4.53l.34-.21.19.33.07.02.38.1v.72l.02.03.4.73 1.42 2.61a3767.57 3767.57 0 0 1 8.6 15.9l1.4 2.67.35.72 1.02.39a7525.56 7525.56 0 0 1 61.6 24.08c15.81 6.26 31.7 12.64 43.76 17.67a511.7 511.7 0 0 1 14.75 6.37c1.81.83 3.29 1.54 4.34 2.1l.73.4c.22.12.4.24.57.35l.25.16.21.17.1.08c.1.1.22.23.3.38l.87 1.5h-.15c.55 1.17 1.36 2.97 2.38 5.27 1.7 3.85 4.04 9.16 6.78 15.44a5167.38 5167.38 0 0 1 19.58 45.59c7 16.53 13.92 33.1 19.02 45.88a497.75 497.75 0 0 1 6.08 15.82c.72 2 1.27 3.66 1.63 4.9.18.62.32 1.16.4 1.59l.05.3c.05.3.07.63.02.91l-.02.06v.05l-.03.05-.02.06-44.69 97.72-.15.33-.16.33-.7-.08h-.04l-.42-.06-1.29-.2c-1.1-.17-2.73-.45-4.77-.86-4.08-.82-9.86-2.18-16.65-4.34-13.16-4.17-30.15-11.3-46-23.29l-1.52-1.17-.26-.2-.25-.2.15-.62 22.25-94.25-23.1-6.1-18.53 197.86-.08.91H136.3l-.08-.9-18.53-197.87-23.1 6.1 22.25 94.25.15.63-.25.2-.26.2c-16.28 12.68-33.94 20.15-47.52 24.45a161 161 0 0 1-20.5 5.06l-.93.15-1.27.19h-.01l-.41.05h-.05l-.7.1-.16-.34-.15-.33L.1 218.22l-.02-.06-.02-.05-.02-.05V218c-.08-.37-.01-.83.06-1.21l.07-.34c.08-.36.2-.78.33-1.25l.3-1c.35-1.1.8-2.4 1.33-3.9l.57-1.57c1.4-3.8 3.28-8.67 5.51-14.25 5.1-12.77 12.01-29.35 19.02-45.88 7-16.54 14.1-33.02 19.58-45.6 2.74-6.28 5.07-11.59 6.78-15.44 1.7-3.8 2.81-6.26 3.1-6.76l.03-.06.01-.01.04-.06v-.01l.1-.1c.08-.1.16-.17.23-.23l.21-.16.24-.17.27-.17 1.03-.58.87-.45c.95-.47 2.11-1.03 3.48-1.65 3.64-1.67 8.72-3.85 14.75-6.36C90 65.75 105.89 59.38 121.7 53.12a7696.73 7696.73 0 0 1 61.59-24.07c.46-.18.81-.32 1.05-.4v-.01l.38-.68 1.42-2.63a10416.04 10416.04 0 0 1 8.67-15.94l1.43-2.63.4-.73.07-.12.01-.03.07-.12.52-.95.44.29.1-.03A175.46 175.46 0 0 1 238.3.5Zm0 1c-14.27 0-27.57 1.59-39.83 4.45v.83l-.77-.52h-.02l-.02-.02-.01.03v.01l-.02.03-.05.08-.06.11-.4.74-1.43 2.63-4.34 7.97-4.33 7.97-1.43 2.63-.4.73-.05.1-.08.17-.18.06-.08.04c-.03 0-.06.02-.1.04l-1.05.4-3.99 1.54a8390.32 8390.32 0 0 0-57.6 22.53A2807.85 2807.85 0 0 0 78.34 71.7c-6.02 2.51-11.09 4.69-14.71 6.35-1.36.62-2.52 1.17-3.45 1.64l-.85.43-.98.56-.24.15-.2.14-.16.12c-.06.05-.12.1-.15.15l-.04.05c-.26.47-1.35 2.85-3.05 6.67a5239.45 5239.45 0 0 0-26.35 61.02c-7 16.52-13.92 33.1-19.01 45.86a555.26 555.26 0 0 0-5.5 14.23l-.57 1.56c-.53 1.5-.98 2.79-1.31 3.85l-.3.99c-.13.45-.24.85-.31 1.19l-.07.3c-.07.4-.1.68-.07.84l44.69 97.7h.11l.32-.04 1.26-.2c1.1-.16 2.7-.44 4.73-.85l1.6-.33c3.9-.84 9.04-2.1 14.95-3.98 13.08-4.15 29.96-11.25 45.69-23.13l1.52-1.17L93.5 191.1l-.1-.48 25.17-6.65L137.22 383h201.56l18.64-199.04 25.18 6.65-.12.48-22.36 94.72c16.16 12.6 33.7 20.02 47.2 24.3 6.76 2.14 12.5 3.5 16.56 4.31 2.03.41 3.63.69 4.73.86l1.26.19.32.04h.11l44.69-97.7v-.15c.01-.1 0-.24-.03-.41l-.04-.27c-.08-.4-.2-.9-.38-1.5-.35-1.22-.9-2.85-1.61-4.84a496.56 496.56 0 0 0-6.07-15.8c-5.1-12.75-12-29.33-19.01-45.85-7-16.53-14.1-33.01-19.58-45.58-2.73-6.28-5.06-11.59-6.77-15.43-1.27-2.84-2.2-4.9-2.7-5.96l-.3-.64-.05-.08a.51.51 0 0 0-.07-.09l-.11-.1-.16-.13-.2-.13-.53-.33-.7-.38a86.93 86.93 0 0 0-4.29-2.07c-3.63-1.66-8.7-3.84-14.72-6.36a2805.7 2805.7 0 0 0-43.74-17.66 7688.7 7688.7 0 0 0-61.6-24.08l-1.04-.4-.16-.06-.19-.07-.08-.19-.05-.1-.38-.76a1328.23 1328.23 0 0 0-9.98-18.54l-1.42-2.62-.4-.73-.07-.14-.06-.1V6.04a175.37 175.37 0 0 0-40.2-4.55Zm-41.5 4.24.01-.02v.02Z"/><path fill="#E2F1DF" d="m236.41 118.4.08-.02v2.49l-.04.01c-.24.1-.8.28-1.78.28-2.27 0-3.68-1.4-3.68-3.65v-6.24h-2.23v-2.37h.68c1.14 0 1.8-.67 1.8-1.82v-1.92h2.72v3.68h2.5v2.43h-2.5v5.77c0 1.02.44 1.45 1.47 1.45.41 0 .88-.08.98-.1Zm9.25 0c-.1.01-.58.09-.98.09-1.04 0-1.48-.43-1.48-1.45v-5.77h2.5v-2.43h-2.5v-3.69h-2.72v1.93c0 1.15-.66 1.82-1.8 1.82H238v2.37h2.23v6.24c0 2.25 1.41 3.65 3.68 3.65.99 0 1.54-.17 1.78-.28l.04-.01v-2.5l-.07.02Zm-18.43 2.5.02.08h-2.8v-.04c-.03-.08-.12-.51-.13-1.36a4.27 4.27 0 0 1-3.65 1.77 4.28 4.28 0 0 1-3.03-1.12 3.53 3.53 0 0 1-1.1-2.58c0-1.98 1.37-3.36 3.68-3.7l3.08-.46c.75-.1.84-.51.84-.8 0-1.11-.88-1.78-2.21-1.78s-2.25.8-2.4 2.06l-2.74-.62c.24-1.9 1.93-3.9 5.11-3.9 4.67 0 5.18 3.18 5.18 4.55V119c0 1.17.14 1.89.15 1.92Zm-3.09-5.45-3.07.46c-.58.1-1.55.43-1.55 1.57 0 .72.53 1.5 1.7 1.5 1.33 0 2.92-.53 2.92-3.06v-.47Zm24.24 5.57h2.99v-12.2h-2.99v12.2Zm-76.45-14.72a5.7 5.7 0 0 1 5.66 5.2 15.4 15.4 0 0 1 8.13-1.5c-.97-6.78-6.77-12-13.79-12-6.6 0-12.12 4.61-13.56 10.8 2.8-.02 5.57.73 7.97 2.15a5.68 5.68 0 0 1 5.59-4.66Zm-13.86 4.36a14.03 14.03 0 0 0 10.76 14.98v-.07c0-2.6.63-5.13 1.84-7.4a13.74 13.74 0 0 0-12.6-7.5Zm46.06 5.98-5.65-13.26-.02-.04h-4.07v17.68h3.02v-12.64l5.3 12.56h2.73l5.35-12.6v12.68h3.08v-17.67h-4.15l-5.6 13.3Zm-33.44 9.3c8.09.76 15.21-5.77 15.17-13.94v-.12a13.74 13.74 0 0 0-15.17 14.06Zm138.58-11.18c0 .77-.07.97-.07.97h-8.82a3.18 3.18 0 0 0 3.23 3.02c1.3 0 2.2-.5 2.73-1.5h2.85a5.53 5.53 0 0 1-5.58 4.1c-1.67 0-3.22-.6-4.36-1.72a6.51 6.51 0 0 1-1.88-4.8c0-1.8.65-3.44 1.82-4.63a5.83 5.83 0 0 1 4.12-1.76c3.68 0 5.96 2.42 5.96 6.32Zm-3.02-1.25c-.1-1.88-1.63-2.55-2.91-2.55-1.29 0-2.72.9-2.89 2.55h5.8Zm-15.35-5.02a4.1 4.1 0 0 0-3.5 1.8v-1.46h-2.93v12.19h3V114c0-1.7.96-2.79 2.44-2.79 2.1 0 2.42 1.64 2.42 2.61v7.2h3v-7.7c0-2.98-1.7-4.83-4.43-4.83Zm-14.16 7.85-3.42-7.48-.01-.04h-3.4l5.2 10.66-2.85 6.2h3.2l7.68-16.86h-3.18l-3.22 7.52Zm41.19 2.05c-.1.02-.58.1-.98.1-1.04 0-1.48-.43-1.48-1.45v-5.77h2.5v-2.43h-2.5v-3.69h-2.72v1.93c0 1.15-.66 1.82-1.8 1.82h-.68v2.37h2.23v6.24c0 2.25 1.41 3.65 3.68 3.65 1.02 0 1.59-.2 1.78-.28l.04-.01v-2.5l-.07.02Zm-67.9-15.67c-1.08 0-1.93.88-1.93 1.95a1.9 1.9 0 0 0 1.93 1.91c1.1 0 1.96-.84 1.96-1.91 0-1.08-.88-1.95-1.96-1.95Zm4.73 18.3h2.99v-18.06h-2.99v18.06Zm11.35-7.31Zm0 0-1.84-.37c-.73-.15-1.16-.6-1.16-1.2 0-.75.73-1.33 1.67-1.33a2.03 2.03 0 0 1 2.17 1.76l.01.07 2.55-.73v-.05a3.98 3.98 0 0 0-1.16-2.17 4.95 4.95 0 0 0-3.57-1.25c-2.48 0-4.5 1.77-4.5 3.95 0 1.78 1.23 3.11 3.3 3.57l1.78.4c.9.17 1.37.61 1.37 1.27 0 .65-.54 1.32-1.75 1.32-1.64 0-2.31-1.07-2.4-2v-.07l-2.63.73v.05c.1.83.57 1.72 1.26 2.37a5.43 5.43 0 0 0 3.79 1.32c3.04 0 4.62-1.97 4.62-3.92s-1.28-3.24-3.52-3.72Z"/></svg>