<svg xmlns="http://www.w3.org/2000/svg" width="275" height="382" fill="none" viewBox="0 0 275 382"><path fill="#EDE937" d="M266.2 166.53 246.06 382H28.83L8.7 166.53C32.64 74.03 0 27.77 0 27.77L80.5 0s18.75 26.83 56.97 31.36C175.67 26.83 194.4 0 194.4 0l80.5 27.77s-32.64 46.24-8.7 138.76h-.01Z"/><mask id="a" width="275" height="382" x="0" y="0" maskUnits="userSpaceOnUse" style="mask-type:luminance"><path fill="#fff" d="m265.85 166.3-20.11 215.2H28.8L8.69 166.3C32.59 73.95 0 27.74 0 27.74L80.4 0s18.72 26.8 56.89 31.32C175.43 26.8 194.15 0 194.15 0l80.4 27.73s-32.6 46.19-8.68 138.58h-.02Z"/></mask><g mask="url(#a)"><path fill="#6C6B75" d="M272.64 240.69H2v28.96h270.64v-28.96ZM272.64 303.6H2v28.97h270.64V303.6Z"/><path fill="#054449" d="m135.41 98.4.08-.02v2.49l-.04.01c-.24.1-.8.28-1.78.28-2.27 0-3.68-1.4-3.68-3.65v-6.24h-2.23V88.9h.68c1.14 0 1.8-.67 1.8-1.82v-1.93h2.72v3.69h2.5v2.43h-2.5v5.77c0 1.01.44 1.45 1.47 1.45.41 0 .88-.08.98-.1Zm9.25 0v-.01c-.1.02-.58.1-.98.1-1.04 0-1.48-.44-1.48-1.45v-5.77h2.5v-2.43h-2.5v-3.69h-2.72v1.93c0 1.15-.66 1.82-1.8 1.82H137v2.37h2.23v6.24c0 2.25 1.41 3.65 3.68 3.65.99 0 1.54-.17 1.78-.28l.04-.01v-2.5l-.07.02Zm-18.43 2.5.02.08h-2.8v-.04c-.03-.08-.12-.51-.13-1.36a4.27 4.27 0 0 1-3.65 1.77 4.28 4.28 0 0 1-3.03-1.12 3.53 3.53 0 0 1-1.1-2.58c0-1.98 1.37-3.36 3.68-3.7l3.08-.46c.76-.1.84-.51.84-.8 0-1.12-.88-1.78-2.21-1.78s-2.25.8-2.4 2.06l-2.74-.62c.24-1.9 1.93-3.9 5.11-3.9 4.67 0 5.18 3.18 5.18 4.55V99c0 1.17.14 1.89.15 1.92Zm-3.09-5.45-3.07.46c-.58.1-1.55.43-1.55 1.57 0 .72.53 1.5 1.7 1.5 1.33 0 2.92-.53 2.92-3.06v-.47Zm24.24 5.57h2.99v-12.2h-2.99v12.2ZM70.93 86.29a5.7 5.7 0 0 1 5.66 5.21 15.42 15.42 0 0 1 8.13-1.5c-.97-6.78-6.77-12-13.79-12-6.6 0-12.12 4.61-13.56 10.8 2.8-.02 5.57.73 7.97 2.15a5.68 5.68 0 0 1 5.59-4.66Zm-13.86 4.37a14.03 14.03 0 0 0 10.76 14.98v-.07c0-2.6.63-5.13 1.84-7.4a13.73 13.73 0 0 0-12.6-7.5Zm46.06 5.98-5.65-13.26-.02-.04h-4.07v17.68h3.02V88.38l5.3 12.56h2.73l5.36-12.6v12.68h3.07V83.35h-4.15l-5.6 13.3Zm-33.44 9.3c8.09.76 15.21-5.77 15.17-13.94v-.12a13.74 13.74 0 0 0-15.17 14.06Zm138.58-11.18c0 .77-.07.97-.07.97h-8.82a3.18 3.18 0 0 0 3.23 3.02c1.3 0 2.2-.5 2.73-1.5h2.85a5.53 5.53 0 0 1-5.58 4.1c-1.67 0-3.22-.6-4.36-1.71a6.51 6.51 0 0 1-1.88-4.8c0-1.8.65-3.45 1.82-4.64a5.83 5.83 0 0 1 4.12-1.76c3.68 0 5.96 2.42 5.96 6.32Zm-3.02-1.25c-.1-1.88-1.63-2.55-2.91-2.55-1.29 0-2.72.9-2.89 2.55h5.8Zm-15.35-5.02a4.1 4.1 0 0 0-3.5 1.8v-1.46h-2.93v12.19h3V94c0-1.7.96-2.79 2.44-2.79 2.1 0 2.42 1.64 2.42 2.61v7.2h3v-7.7c0-2.98-1.7-4.83-4.43-4.83Zm-14.16 7.85-3.42-7.48-.01-.04h-3.4l5.2 10.66-2.85 6.2h3.2l7.68-16.86h-3.18l-3.22 7.52Zm41.19 2.05c-.1.02-.58.1-.98.1-1.04 0-1.48-.44-1.48-1.45v-5.77h2.5v-2.43h-2.5v-3.69h-2.72v1.93c0 1.15-.66 1.82-1.8 1.82h-.68v2.37h2.23v6.24c0 2.25 1.41 3.65 3.68 3.65 1.03 0 1.59-.2 1.78-.28l.04-.01v-2.5l-.07.02Zm-67.9-15.67c-1.08 0-1.93.88-1.93 1.95a1.9 1.9 0 0 0 1.93 1.91c1.1 0 1.96-.84 1.96-1.91 0-1.08-.88-1.95-1.96-1.95Zm4.73 18.3h2.99V82.96h-2.99v18.06Zm11.35-7.31Zm0 0-1.84-.37c-.73-.15-1.16-.6-1.16-1.2 0-.74.73-1.33 1.67-1.33a2.03 2.03 0 0 1 2.17 1.76l.01.06 2.55-.72v-.05a3.98 3.98 0 0 0-1.16-2.17 4.95 4.95 0 0 0-3.57-1.25c-2.48 0-4.5 1.77-4.5 3.94 0 1.79 1.23 3.12 3.3 3.58l1.78.4c.9.17 1.37.62 1.37 1.27s-.54 1.32-1.75 1.32c-1.64 0-2.31-1.07-2.4-2v-.07l-2.63.73v.05c.1.83.57 1.71 1.26 2.37a5.43 5.43 0 0 0 3.79 1.32c3.03 0 4.62-1.97 4.62-3.92s-1.28-3.24-3.52-3.72Z"/><path fill="#61646A" d="M274.91 27.77s-32.64 46.24-8.7 138.76h-.01L246.06 382H28.83L8.7 166.53C32.64 74.03 0 27.77 0 27.77L80.5 0s18.46 26.42 56.07 31.25l.9.11C175.67 26.83 194.4 0 194.4 0l80.5 27.77ZM194.77 1.18a48.63 48.63 0 0 1-3.15 3.76 87.48 87.48 0 0 1-54.04 27.42l-.12.01-.11-.01a87.51 87.51 0 0 1-43.3-17.58 83.12 83.12 0 0 1-10.76-9.84 60.17 60.17 0 0 1-3.15-3.76L1.54 28.3l.68 1.13a79.22 79.22 0 0 1 3.41 6.59 129.41 129.41 0 0 1 8.67 26.22c5.2 23.26 7.37 58.05-4.6 104.36L29.75 381h215.4l20.05-214.45c-11.95-46.3-9.77-81.07-4.58-104.31a129.3 129.3 0 0 1 8.67-26.22 79.14 79.14 0 0 1 4.1-7.72l-78.6-27.12Z"/></g></svg>