<svg xmlns="http://www.w3.org/2000/svg" width="275" height="382" fill="none" viewBox="0 0 275 382"><path fill="#EDE937" d="M266.2 166.53 246.06 382H28.83L8.7 166.53C32.64 74.03 0 27.77 0 27.77L80.5 0s18.75 26.83 56.97 31.36C175.67 26.83 194.4 0 194.4 0l80.5 27.77s-32.64 46.24-8.7 138.76h-.01Z"/><mask id="a" width="275" height="382" x="0" y="0" maskUnits="userSpaceOnUse" style="mask-type:luminance"><path fill="#fff" d="m265.85 166.3-20.11 215.2H28.8L8.69 166.3C32.59 73.95 0 27.74 0 27.74L80.4 0s18.72 26.8 56.89 31.32C175.43 26.8 194.15 0 194.15 0l80.4 27.73s-32.6 46.19-8.68 138.58h-.02Z"/><path fill="#fff" d="M274.55 27.73s-32.6 46.19-8.68 138.58h-.02l-20.11 215.2H28.8L8.69 166.3C32.59 73.94 0 27.73 0 27.73L80.4 0c.06.09 18.5 26.4 56 31.21l.89.11C175.43 26.8 194.15 0 194.15 0l80.4 27.73ZM194.52 1.18l-.46.6c-.6.76-1.5 1.84-2.69 3.15a87.36 87.36 0 0 1-53.97 27.38l-.11.02-.12-.01a87.4 87.4 0 0 1-43.25-17.56 83.03 83.03 0 0 1-10.74-9.83 60.13 60.13 0 0 1-3.15-3.75L1.53 28.26l.69 1.13a79.08 79.08 0 0 1 3.4 6.58 129.24 129.24 0 0 1 8.66 26.2c5.2 23.22 7.36 57.96-4.58 104.21l20 214.12h215.13l20.01-214.17c-11.93-46.23-9.76-80.96-4.57-104.17a129.14 129.14 0 0 1 8.66-26.19 78.97 78.97 0 0 1 4.09-7.71l-78.5-27.08Z"/></mask><g mask="url(#a)"><path fill="#6C6B75" d="M272.64 240.69H2v28.96h270.64v-28.96ZM272.64 303.6H2v28.97h270.64V303.6Z"/><path fill="#054449" d="M198.29 86.74h.03v1.06h-.02c-.1.05-.36.13-.8.13-1.02 0-1.65-.6-1.65-1.57V83.7h-1v-1.02h.3c.51 0 .8-.28.8-.78v-.82h1.23v1.58h1.13v1.04h-1.13v2.47c0 .43.2.62.67.62.18 0 .39-.03.44-.04Zm4.16 0c-.05 0-.26.04-.44.04-.47 0-.67-.19-.67-.62v-2.47h1.13v-1.04h-1.13v-1.58h-1.22v.82c0 .5-.3.78-.81.78h-.3v1.02h1v2.67c0 .97.63 1.57 1.65 1.57.44 0 .7-.08.8-.12l.02-.01v-1.07l-.03.01Zm-8.3 1.08.01.03h-1.25l-.01-.02a2.44 2.44 0 0 1-.06-.58c-.2.27-.69.76-1.64.76-.54 0-1.01-.17-1.36-.48-.32-.3-.5-.69-.5-1.1 0-.86.62-1.45 1.66-1.6l1.39-.2c.34-.04.37-.21.37-.34 0-.47-.4-.76-1-.76s-1 .34-1.07.89l-1.24-.27c.11-.81.87-1.68 2.3-1.68 2.1 0 2.34 1.37 2.34 1.96v2.56c0 .5.06.81.06.83Zm-1.39-2.34-1.38.2c-.26.04-.7.18-.7.67 0 .3.24.64.76.64.6 0 1.32-.23 1.32-1.3v-.21Zm10.91 2.38h1.35v-5.22h-1.35v5.22Zm-34.4-6.3c1.13 0 2.38.76 2.55 2.23a7.24 7.24 0 0 1 3.65-.65 6.19 6.19 0 0 0-6.2-5.14 6.22 6.22 0 0 0-6.1 4.63c1.26-.01 2.5.31 3.58.92.3-1.34 1.46-2 2.52-2Zm-6.24 1.87a6.05 6.05 0 0 0 4.84 6.42v-.04c0-1.1.29-2.2.83-3.16a6.23 6.23 0 0 0-5.67-3.22Zm20.73 2.56-2.55-5.68v-.02h-1.84v7.57h1.37v-5.41l2.38 5.38h1.23l2.4-5.4v5.43h1.4V80.3h-1.87l-2.52 5.7Zm-15.05 3.98c3.64.33 6.84-2.47 6.82-5.97v-.05c-3.67-.41-6.95 2.48-6.82 6.02Zm62.36-4.79c0 .33-.03.42-.03.42h-3.97c.05.74.67 1.3 1.45 1.3.59 0 1-.22 1.23-.65h1.28c-.06.22-.15.42-.26.61a2.52 2.52 0 0 1-2.25 1.15c-.75 0-1.45-.26-1.96-.74a2.72 2.72 0 0 1-.84-2.06c0-.77.29-1.47.81-1.98.5-.48 1.17-.76 1.86-.76 1.66 0 2.68 1.04 2.68 2.71Zm-1.36-.53c-.04-.8-.73-1.1-1.3-1.1-.59 0-1.23.39-1.3 1.1h2.6Zm-6.9-2.16c-.67 0-1.25.3-1.58.78v-.63h-1.32v5.22h1.35v-3c0-.73.43-1.2 1.1-1.2.95 0 1.09.7 1.09 1.12v3.08h1.35v-3.3c0-1.27-.77-2.06-2-2.07Zm-6.38 3.37-1.53-3.2-.01-.02h-1.53l2.34 4.57-1.28 2.65h1.44l3.45-7.22h-1.43l-1.45 3.22Zm18.54.88c-.05 0-.26.04-.44.04-.47 0-.67-.19-.67-.62v-2.47H235v-1.04h-1.13v-1.58h-1.22v.82c0 .5-.3.78-.81.78h-.3v1.02h1v2.67c0 .97.63 1.57 1.65 1.57.46 0 .72-.09.8-.12l.02-.01v-1.07l-.03.01Zm-30.56-6.71a.85.85 0 0 0-.87.83c0 .46.38.82.87.82.5 0 .88-.36.88-.82 0-.46-.4-.83-.88-.83Zm2.13 7.83h1.35v-7.73h-1.35v7.73Zm5.1-3.13Zm0 0-.82-.16c-.33-.06-.52-.25-.52-.51 0-.32.33-.57.75-.57.82 0 .96.63.98.75v.03l1.15-.3v-.03a1.68 1.68 0 0 0-.53-.93 2.3 2.3 0 0 0-1.6-.54c-1.12 0-2.02.76-2.02 1.7 0 .76.55 1.33 1.48 1.53l.8.17c.4.07.62.26.62.54s-.25.57-.79.57c-.73 0-1.04-.46-1.08-.86v-.03l-1.18.31v.03c.04.35.25.73.56 1.01.42.37 1.01.57 1.71.57 1.37 0 2.08-.85 2.08-1.68 0-.84-.58-1.39-1.58-1.6Z"/><path fill="#61646A" d="M137.94 31.38V382h-1V31.38h1Z"/><path fill="#61646A" d="M274.91 27.77s-32.64 46.24-8.7 138.76h-.01L246.06 382H28.83L8.7 166.53C32.64 74.03 0 27.77 0 27.77L80.5 0s18.46 26.42 56.07 31.25l.9.11C175.67 26.83 194.4 0 194.4 0l80.5 27.77ZM194.77 1.18a48.63 48.63 0 0 1-3.15 3.76 87.48 87.48 0 0 1-54.04 27.42l-.12.01-.11-.01a87.51 87.51 0 0 1-43.3-17.58 83.12 83.12 0 0 1-10.76-9.84 60.18 60.18 0 0 1-3.15-3.76L1.54 28.3l.68 1.13a79.22 79.22 0 0 1 3.41 6.59 129.41 129.41 0 0 1 8.67 26.22c5.2 23.26 7.37 58.05-4.6 104.36L29.75 381h215.4l20.05-214.45c-11.95-46.3-9.77-81.07-4.58-104.31a129.3 129.3 0 0 1 8.67-26.22 79.14 79.14 0 0 1 4.1-7.72l-78.6-27.12Z"/></g></svg>