<svg xmlns="http://www.w3.org/2000/svg" width="391" height="384" fill="none" viewBox="0 0 391 384"><path fill="#212527" d="M244.98 1c-8.49 18.85-27.44 27.34-49.47 27.34-22.04 0-41-8.49-49.48-27.34C131.38 5.36 60.65 27.03 1 81.65l49.26 67.66 30.33-18.89L80.2 383h230.6l-.4-252.58 30.34 18.9L390 81.64C330.36 27.03 259.62 5.35 244.98 1Z"/><path fill="#61646A" d="M245.12.52c14.66 4.36 85.5 26.06 145.22 80.77l.33.3-49.8 68.4-29.96-18.67.39 252.18H79.7l.39-252.18L50.13 150 .33 81.59l.33-.3L2.06 80C61.5 26.24 131.34 4.85 145.88.52l.42-.12.18.4c8.37 18.6 27.11 27.04 49.02 27.04 21.92 0 40.65-8.44 49.03-27.05l.18-.4.41.13ZM145.75 1.6C130.28 6.22 60.61 27.9 1.67 81.72l48.72 66.93 30.7-19.13-.39 252.98h229.6l-.4-252.98 30.7 19.13 48.73-66.93C330.39 27.9 260.72 6.22 245.25 1.6c-8.68 18.81-27.75 27.24-49.75 27.24s-41.07-8.43-49.75-27.24Z"/></svg>