<svg xmlns="http://www.w3.org/2000/svg" width="391" height="384" fill="none" viewBox="0 0 391 384"><path fill="#9ECCED" d="M244.98 1c-8.49 18.85-27.44 27.34-49.47 27.34-22.04 0-41-8.49-49.48-27.34C131.38 5.36 60.65 27.03 1 81.65l49.26 67.66 30.33-18.89L80.2 383h230.6l-.4-252.58 30.34 18.9L390 81.64C330.36 27.03 259.62 5.35 244.98 1Z"/><path fill="#9ECCED" d="M245.12.52c14.66 4.36 85.5 26.06 145.22 80.77l.33.3-49.8 68.4-29.96-18.67.39 252.18H79.7l.39-252.18L50.13 150 .33 81.59l.33-.3L2.06 80C61.5 26.24 131.34 4.85 145.88.52l.42-.12.18.4c8.37 18.6 27.11 27.04 49.02 27.04 21.92 0 40.65-8.44 49.03-27.05l.18-.4.41.13ZM145.75 1.6C130.28 6.22 60.61 27.9 1.67 81.72l48.72 66.93 30.7-19.13-.39 252.98h229.6l-.4-252.98 30.7 19.13 48.73-66.93C330.39 27.9 260.72 6.22 245.25 1.6c-8.68 18.81-27.75 27.24-49.75 27.24s-41.07-8.43-49.75-27.24Z"/><path fill="#054449" d="M251.29 79.13h.03v1.1l-.02.02c-.1.04-.36.12-.8.12-1.02 0-1.65-.63-1.65-1.63v-2.8h-1v-1.06h.3c.51 0 .8-.3.8-.82v-.86h1.23v1.65h1.13v1.09h-1.13v2.58c0 .46.2.65.67.65.18 0 .39-.03.44-.04Zm4.16 0c-.05 0-.26.04-.44.04-.47 0-.67-.2-.67-.65v-2.58h1.13v-1.09h-1.13V73.2h-1.22v.86c0 .52-.3.82-.81.82h-.3v1.06h1v2.8c0 1 .63 1.63 1.65 1.63.44 0 .7-.08.8-.13h.02v-1.12l-.03.01Zm-8.3 1.12.01.04h-1.25l-.01-.02a2.66 2.66 0 0 1-.06-.6c-.2.28-.69.78-1.64.78-.54 0-1.01-.17-1.36-.5-.32-.3-.5-.71-.5-1.15 0-.89.62-1.5 1.66-1.66l1.39-.2c.34-.05.37-.23.37-.37 0-.5-.4-.79-1-.79s-1 .35-1.07.92l-1.24-.28c.11-.84.87-1.75 2.3-1.75 2.1 0 2.34 1.43 2.34 2.05v2.68c0 .52.06.84.06.85Zm-1.39-2.44-1.38.2c-.26.05-.7.2-.7.71 0 .32.24.67.76.67.6 0 1.32-.24 1.32-1.37v-.2Zm10.91 2.5h1.35v-5.46h-1.35v5.45Zm-34.4-6.6c1.13 0 2.38.8 2.55 2.33a6.97 6.97 0 0 1 3.65-.67 6.27 6.27 0 0 0-12.3-.53c1.26-.01 2.5.32 3.58.96a2.56 2.56 0 0 1 2.52-2.09Zm-6.24 1.96a6.28 6.28 0 0 0 4.84 6.7v-.03c0-1.16.29-2.3.83-3.3a6.18 6.18 0 0 0-5.67-3.37Zm20.73 2.68-2.55-5.94v-.02h-1.84v7.91h1.37v-5.65l2.38 5.62h1.23l2.4-5.64v5.67h1.4v-7.9h-1.87l-2.52 5.95ZM221.7 82.5a6.28 6.28 0 0 0 6.82-6.24v-.06a6.17 6.17 0 0 0-6.82 6.3Zm62.36-5c0 .34-.03.43-.03.43h-3.97c.05.77.67 1.35 1.45 1.35.59 0 1-.23 1.23-.68h1.28c-.06.23-.15.45-.26.65a2.5 2.5 0 0 1-2.25 1.2c-.75 0-1.45-.28-1.96-.77a2.9 2.9 0 0 1-.84-2.15c0-.81.29-1.55.81-2.08.5-.5 1.17-.79 1.86-.79 1.66 0 2.68 1.09 2.68 2.83Zm-1.36-.57c-.04-.84-.73-1.14-1.3-1.14-.59 0-1.23.4-1.3 1.14h2.6Zm-6.9-2.24c-.67 0-1.25.3-1.58.8v-.65h-1.32v5.45h1.35v-3.14c0-.76.43-1.25 1.1-1.25.95 0 1.09.74 1.09 1.17v3.22h1.35v-3.44c0-1.33-.77-2.16-2-2.16Zm-6.38 3.51-1.53-3.35-.01-.02h-1.53l2.34 4.78-1.28 2.77h1.44l3.45-7.55h-1.43l-1.45 3.37Zm18.54.92c-.05 0-.26.04-.44.04-.47 0-.67-.2-.67-.65v-2.58H288v-1.09h-1.13V73.2h-1.22v.86c0 .52-.3.82-.81.82h-.3v1.06h1v2.8c0 1 .63 1.63 1.65 1.63.46 0 .72-.09.8-.13h.02v-1.12h-.03Zm-30.56-7.01a.87.87 0 0 0-.87.86c0 .48.38.86.87.86.5 0 .88-.37.88-.86 0-.48-.4-.86-.88-.86Zm2.13 8.18h1.35v-8.08h-1.35v8.08Zm5.1-3.27Zm0 0-.82-.16c-.33-.07-.52-.27-.52-.54 0-.33.33-.6.75-.6.82 0 .96.66.98.8v.02l1.15-.32v-.03c-.03-.16-.14-.6-.53-.96a2.23 2.23 0 0 0-1.6-.57c-1.12 0-2.02.8-2.02 1.77 0 .8.55 1.4 1.48 1.6l.8.18c.4.08.62.28.62.57 0 .29-.25.59-.79.59-.74 0-1.04-.48-1.08-.9v-.03l-1.18.33v.02c.04.37.25.77.56 1.06.42.39 1.01.6 1.71.6 1.37 0 2.08-.89 2.08-1.76s-.58-1.45-1.58-1.67Z"/></svg>