<svg xmlns="http://www.w3.org/2000/svg" width="240" height="257" viewBox="0 0 240 257">
  <path fill="#054449" d="M67.1 9.3C31-7.14 0 3.25 0 3.25S20.59 43 53.28 58.14c32.6 10.01 51.75-10.06 51.75-10.06S103.2 25.76 67.1 9.3ZM105.64 20.8l3.44 37.4v24.77a56.68 56.68 0 0 1 5.86 6.5c.14-.6 1.21-4.95 4.46-10.4V20.8h-13.77Z"/>
  <path fill="#DA573B" d="M114.9 89.53s7.57-35.27 54.86-35.27c47.3 0 58.42 37.26 65.99 59.98 7.56 22.7 5.06 47.9-7.57 81.11-12.62 33.2-52.72 56.07-64.08 59.21-4.42 1.22-17.06 3.75-27.07-.73-13.87-4.47-11.35 2-39.56 2-28.2 0-75.6-17.97-92.84-80.62 0 0-13.62-51.45 11.26-83.74C29.92 73.24 37.87 68.82 67.1 66.32c29.25-2.5 47.86 23.21 47.86 23.21h-.07Z"/>
</svg>