<svg xmlns="http://www.w3.org/2000/svg" viewBox="0 0 180 256">
  <path fill="#B4CEA0" d="M156.47 157.33a22.97 22.97 0 0 0-20.76 12.6V140.7C93.13 143.06 0 140.74 0 140.74S1.1 187 4.12 208.42c3.92 40.07 51.8 46.72 51.8 46.72s42.56 6.65 59.83-18.63c14.04-20.54 18.44-39.32 19.6-45.65a23.42 23.42 0 0 0 22.52 13.31 23.51 23.51 0 0 0 22-22.28c.63-13.44-8.57-24.56-23.4-24.56Zm11.38 25.56a11.7 11.7 0 0 1-13.62 9.43 11.7 11.7 0 0 1-9.42-13.63 11.7 11.7 0 1 1 23.04 4.2Z"/>
  <path fill="#054449" d="M42.53 5.1C22.73-3.92 5.71 1.79 5.71 1.79S17 23.6 34.95 31.9c17.89 5.5 28.4-5.52 28.4-5.52s-1-12.25-20.81-21.28ZM63.68 11.41l1.9 20.53v13.6c1.9 1.84 3.02 3.3 3.2 3.56.08-.33.67-2.71 2.45-5.7V11.41h-7.55Z"/>
  <path fill="#DA573B" d="M68.77 49.13s4.15-19.35 30.1-19.35c25.96 0 32.06 20.45 36.22 32.91 4.15 12.46 2.78 26.3-4.16 44.52-6.92 18.22-28.93 30.77-35.17 32.5-2.42.66-9.35 2.05-14.85-.4-7.61-2.46-6.23 1.1-21.71 1.1s-41.49-9.87-50.95-44.25c0 0-7.47-28.24 6.18-45.96 7.7-10 12.06-12.43 28.1-13.8 16.06-1.37 26.28 12.73 26.28 12.73h-.05.01Z"/>
</svg>