<svg xmlns="http://www.w3.org/2000/svg" viewBox="0 0 240 247">
  <path fill="#F9CC76" d="M5.3 205.4c-.45.26-.9.48-1.35.75-2.19 1.44-1.65 3.95-2.37 5.96-.5 1.35-.85 2.78-1.34 4.13a3 3 0 0 0 .85 3.5c.22.22.4.57.4.84-.09 2.42 1.39 4.04 2.87 5.65 2.15 2.42 4.79 4.12 7.56 5.74 3.23 1.83 6.27 3.98 9.54 5.78 3.5 1.92 6.98 3.9 10.7 5.42a40.41 40.41 0 0 0 8.6 2.24c2.95.54 6 .9 9 .9 6.85 0 13.74-.27 20.6-.45 2.4-.1 4.87-.18 7.29-.5 2.87-.35 5.69-.9 8.55-1.38 2.42-.4 4.8-.68 7.21-1.17 2.55-.5 5.06-1.16 7.57-1.75 2.95-.71 5.9-1.48 8.86-2.24 2.82-.76 5.64-1.57 8.46-2.33 1.93-.54 3.9-.94 5.78-1.61 3.4-1.17 6.71-2.51 10.07-3.77 3.63-1.34 7.3-2.6 10.88-4.07a69.35 69.35 0 0 0 7.84-3.68c3.62-1.93 7.16-3.94 10.65-6.1 2.78-1.7 5.33-3.76 8.1-5.46a91.72 91.72 0 0 0 13.17-10c3.99-3.58 8.1-7.03 12-10.66 2.78-2.6 5.5-5.24 8.01-8.16 2.73-3.22 5.33-6.58 7.7-10.08 3.36-4.97 6.68-10 9.59-15.24 3.04-5.46 5.6-11.24 8.28-16.94 1.48-3.13 2.78-6.36 3.98-9.59.77-2.01 1.21-4.16 1.75-6.27.63-2.33 1.2-4.7 1.75-7.08.36-1.61.58-3.27.85-4.93.31-1.88.54-3.72.8-5.6 0-.14.05-.36.05-.58.18-5.52.49-11.03.45-16.54-.05-2.6-.81-5.2-1.26-7.75-.31-1.75-.67-3.54-1.07-5.3a41.3 41.3 0 0 0-5.29-12.54c-2.01-3.23-3.71-6.68-6-9.68a42.62 42.62 0 0 0-7.07-7.12 65.27 65.27 0 0 0-16.83-9.6c-4.08-1.65-6.45-4.83-8.33-8.42-2.06-4.03-3.99-8.2-5.64-12.41-.67-1.7-.58-3.72-.54-5.56a6.96 6.96 0 0 0-1.3-3.99c-1.25-2.01-2.6-3.99-3.98-5.96-.68-.94-1.35-2.06-2.73-1.75-.72.18-1.4.72-2.02 1.17-2.95 2.06-6 4.08-8.42 6.81-1.2 1.35-2.28 2.82-3.36 4.26-.58.76-1.11 1.48-1.6 2.28-.77 1.21-.63 2.42-.14 3.72.31.72.5 1.53.58 2.29.18 1.75 1.08 3.14 2.06 4.52a59.98 59.98 0 0 1 3.67 6.37c1.7 3.23 3.54 6.45 4.84 9.86.8 2.1 2.24 4.21 1.65 6.72-.3 1.34-.8 2.64-1.12 3.99-.49 2.06-.94 4.17-1.34 6.23l-1.74 9.14c-.27 1.39-.59 2.78-.77 4.21-.22 1.8-.4 3.59-.58 5.38-.44 3.76-.85 7.48-1.43 11.25-.4 2.69-.9 5.33-1.66 7.93-.98 3.45-2.2 6.86-3.49 10.17-1.52 3.95-3.27 7.8-4.97 11.65a56.48 56.48 0 0 1-7.3 11.84c-2.46 3.22-4.88 6.5-7.47 9.59-1.75 2.06-3.99 3.67-5.69 5.78-3.36 4.07-7.7 7.03-11.91 10.08-4.07 2.96-8.5 5.47-12.94 7.84a88.4 88.4 0 0 1-10.56 4.53c-2.51.94-5.15 1.52-7.7 2.33-3.14 1.03-6.23 2.15-9.36 3.18a234.5 234.5 0 0 1-9.59 2.87c-2.73.76-5.46 1.48-8.23 2.2-1.93.49-3.9.89-5.87 1.38-2.37.63-4.79 1.21-7.07 2.02-3.63 1.26-7.21 2.6-10.75 4.03a169.7 169.7 0 0 0-11.37 4.84c-4.25 2.02-8.33 4.44-12.54 6.46-3.44 1.65-7.12 2.9-10.56 4.61-2.06 1.03-3.94 2.56-5.91 3.81Z"/>
</svg>