<svg xmlns="http://www.w3.org/2000/svg" viewBox="0 0 240 163">
  <path fill="#B4CEA0" d="M225.17 99.57a14.53 14.53 0 0 0-13.14 7.97v-18.5c-26.95 1.5-85.88.03-85.88.03s.7 29.28 2.6 42.83c2.48 25.36 32.78 29.56 32.78 29.56s26.94 4.22 37.87-11.79c8.88-13 11.67-24.88 12.4-28.88a14.82 14.82 0 0 0 28.18-5.68c.4-8.51-5.43-15.54-14.81-15.54Zm7.2 16.17a7.4 7.4 0 1 1-14.58-2.66 7.4 7.4 0 1 1 14.58 2.66Z"/>
  <path fill="#054449" d="M153.06 3.23c-12.53-5.71-23.3-2.1-23.3-2.1s7.15 13.8 18.5 19.06c11.32 3.48 17.97-3.5 17.97-3.5s-.63-7.74-13.16-13.46ZM166.44 7.22l1.2 13v8.6c1.21 1.16 1.92 2.09 2.04 2.25.04-.2.42-1.71 1.54-3.61V7.22h-4.78Z"/>
  <path fill="#DA573B" d="M169.67 31.1s2.62-12.26 19.05-12.26c16.42 0 20.29 12.95 22.91 20.83 2.63 7.89 1.76 16.64-2.62 28.18-4.39 11.53-18.31 19.47-22.26 20.56-1.53.42-5.92 1.3-9.4-.25-4.82-1.55-3.94.7-13.74.7s-26.25-6.25-32.24-28c0 0-4.73-17.88 3.9-29.1 4.88-6.32 7.64-7.86 17.8-8.72 10.15-.87 16.62 8.05 16.62 8.05h-.03Z"/></g>
  <path fill="#F9CC76" d="m2.78 140.64-.7.4c-1.16.76-.87 2.08-1.25 3.14-.26.7-.45 1.45-.7 2.16-.26.69-.12 1.32.44 1.84.12.12.21.3.21.45-.04 1.27.73 2.12 1.51 2.97a15.56 15.56 0 0 0 3.98 3.01c1.7.96 3.3 2.1 5.01 3.04 1.84 1.01 3.67 2.05 5.62 2.85 1.44.59 3 .92 4.52 1.18 1.56.28 3.16.47 4.73.47 3.6 0 7.23-.14 10.83-.24 1.27-.04 2.56-.1 3.83-.26 1.51-.19 3-.47 4.5-.73 1.27-.21 2.52-.35 3.79-.61 1.34-.26 2.66-.61 3.97-.92 1.56-.38 3.11-.78 4.66-1.18l4.45-1.22c1.01-.28 2.05-.5 3.04-.85 1.79-.61 3.53-1.32 5.3-1.98 1.9-.7 3.83-1.36 5.71-2.14 1.41-.57 2.8-1.2 4.12-1.93a101.6 101.6 0 0 0 5.6-3.2c1.46-.9 2.8-1.98 4.26-2.88a48.22 48.22 0 0 0 6.92-5.25c2.1-1.89 4.26-3.7 6.3-5.6a55.54 55.54 0 0 0 4.22-4.3c1.43-1.7 2.8-3.46 4.04-5.3 1.77-2.61 3.51-5.25 5.04-8 1.6-2.88 2.94-5.92 4.35-8.9a66.83 66.83 0 0 0 2.1-5.05c.4-1.06.63-2.19.92-3.3.33-1.22.63-2.47.92-3.72.18-.85.3-1.72.44-2.59.17-.99.28-1.95.43-2.94l.02-.3c.1-2.9.26-5.8.23-8.7-.02-1.37-.42-2.73-.66-4.08-.16-.91-.35-1.86-.56-2.78a21.7 21.7 0 0 0-2.78-6.6c-1.06-1.69-1.95-3.5-3.15-5.08a22.37 22.37 0 0 0-3.72-3.74 34.3 34.3 0 0 0-8.85-5.04c-2.14-.88-3.39-2.55-4.37-4.43a74.08 74.08 0 0 1-2.97-6.53c-.35-.9-.3-1.95-.28-2.92.02-.8-.28-1.46-.68-2.1a65.96 65.96 0 0 0-2.1-3.13c-.35-.5-.7-1.08-1.43-.92-.38.1-.73.38-1.06.62-1.56 1.08-3.16 2.14-4.43 3.58-.63.7-1.2 1.48-1.76 2.23-.3.4-.59.78-.85 1.2-.4.64-.33 1.28-.07 1.96.17.38.26.8.3 1.2a5 5 0 0 0 1.09 2.38 31.56 31.56 0 0 1 1.93 3.35c.9 1.7 1.86 3.39 2.54 5.18.42 1.1 1.18 2.21.87 3.53-.16.7-.42 1.4-.59 2.1-.26 1.08-.5 2.19-.7 3.27l-.92 4.8c-.14.74-.3 1.47-.4 2.22-.12.94-.21 1.89-.3 2.83-.24 1.98-.45 3.93-.76 5.91-.21 1.41-.47 2.8-.87 4.17a59.65 59.65 0 0 1-1.84 5.35c-.8 2.07-1.71 4.1-2.6 6.12a29.72 29.72 0 0 1-3.84 6.22c-1.3 1.7-2.57 3.41-3.93 5.04-.92 1.08-2.1 1.93-3 3.04-1.76 2.14-4.04 3.7-6.25 5.3a58.9 58.9 0 0 1-6.8 4.12 46.44 46.44 0 0 1-5.56 2.38c-1.32.5-2.7.8-4.05 1.22-1.64.55-3.27 1.13-4.91 1.68-1.67.54-3.35 1.03-5.04 1.5-1.44.4-2.87.78-4.33 1.16-1.01.26-2.05.47-3.08.73-1.25.33-2.52.63-3.72 1.06-1.9.66-3.79 1.36-5.65 2.12-2.02.8-4.02 1.6-5.98 2.54-2.23 1.06-4.37 2.33-6.59 3.4-1.8.87-3.74 1.53-5.55 2.42-1.08.54-2.07 1.34-3.1 2Z"/>
</svg>