<svg xmlns="http://www.w3.org/2000/svg" width="300" height="248" viewBox="0 0 300 248">
  <path fill="#68b096" d="m60.14 217.75c0-5.3-.04-10.06 0-14.83.17-15.74.7-31.46 5.34-46.66a34.86 34.86 0 0 1 5.06-10.44c2.39-3.3 4.58-4.5 7.68-4 3.1.52 4.78 3.02 5.97 7.3 1.18 4.28.81 14.22-.27 21.63-2.25 15.6-5.82 30.61-8.45 46.36 2.67-6.72 4.76-13.1 7.63-19.73 4.5-10.38 9.3-20.85 14.5-30.9a38.36 38.36 0 0 1 8.19-11.16c1.46-1.42 5.15-4.12 8.74-2.66 1.97.8 2.92 3.59 3.14 5.62 1.77 16.48-5.33 30.77-13.56 44.39-9.02 14.92-24.85 39.33-37.19 44.26-3.46 1.6-11.58 1.38-14.9-.47-4.07-2.27-11.3-9.83-15.67-15.26-13-16.13-25.92-32.69-33.89-51.91-1.6-3.44-4.23-12-.71-15.77 2.7-2.89 5.86-1.84 8.72 0 7.76 5.5 12.32 11.9 16.97 19.97 4.82 8.35 11.2 20.5 16.44 28.8-2.06-7.2-6.2-18.02-7.87-25.3-2.89-12.53-7.73-24.66-3.96-37.45.83-2.8 4.69-7.25 8.25-7.58s5.91 2.94 7.96 6.78c2.05 3.85 5.43 17.9 7 27.67 2.1 13.11 4.43 40.45 4.88 41.34z"/>
  <path fill="#f9c4aa" d="m196.04 66.49 4.21 7.74s-.44.57 3.34.1c3.79-.5 7.53-3.32 10.3-6.48 2.77-3.17 1.99-4.42.8-4.61-1.91-.32-4.2-.04-6.17.55-4.5 1.36-1.9-1.17-1.02-2.07.84-.85 1.67-2.35-1.46-2.1-3.13.23-8.18 4.94-10 6.87z"/>
  <path fill="#da573b" d="m129.1 58.95c1.26 1.5 3.4 3.23 11.15 7.44 6.04 3.28 6.7 5.53 16.93 10.43 5.61 2.7 9.1 4.6 15.5 4.53 5.3-.05 16.92-1.12 29.02-4.52-.86-2.04-5.45-12.58-5.45-12.58-9.31 2.17-21.97 2.58-24.9 2.46-1.69-.06-5.67-1.8-7.56-2.85-7.68-5.01-8.37-6.16-14.3-10.84-3.72-2.92-7.82-6.48-11.53-7.71-2.68-.96-3.84-1.26-5.5-1.4-1.68-.16-5.66.57-6.79 5.62-.98 4.4 2.15 7.93 3.42 9.42z"/>
  <path fill="#f9c4aa" d="m99.92 113.86c2.15.72 7.65 2.97 9.02 5.35 1.38 2.37 1.4 3.1 1.01 7.76-.09 1.06-.82 2.46-4.28 1.44s-7.03-2.93-8.84-5.73c-1.8-2.8-1.2-2.67-1.2-2.67z"/>
  <path fill="#da573b" d="m115.87 51.29c-.66-4.3-2.87-7.2-5.93-6.93-8.19 1.97-18.11 8.94-26.31 20.45-3 4.2-9.34 14.4-9.34 20.67.21 16.08 18.4 34 20.53 36.61l9.42-8.05c-.6-.36-5.17-5.6-8.53-10.02-4.68-8.72-7.69-14.61-7.69-18.54 2.91-11.08 9.2-16.05 20.83-22.98 0 0 4.04-2.23 5.73-4.9a8 8 0 0 0 1.29-6.31z"/>
  <path fill="#1e1a28" d="m98.96 241.27s-1.62 4.34-1.8 5.3c-.19.84-.6 1.14 2.39 1.17 0 0 17.7.28 18.91 0 .8-.19 1.8-1.3 1.26-6.22zm35.74.27s-.28 4.18.33 5.1c.62.9 1 1.49 6.43 1.2 0 0 15.33.27 15.82-.13s-2.3-6.46-2.3-6.46l-20.28.3z"/>
  <path fill="#153f7b" d="m97.23 108.97c-.12 8.2-1.21 51.03-1.33 55.65-.19 4.63-.31 44-.31 48.37 0 4.36-.13 28.34.43 29.12.55.79 23.42 1.37 24.59.52 1.16-.84 0-39.55.18-44.18.12-4.63.86-27.5.12-46.15-.73-18.64.6-22.09 1.03-22.09.44 0 .81-.91 2.53 16.69s5.2 49.6 5.94 57.35c.74 7.82 2.76 38.13 3.56 38.45.8.33 22.45-.06 23.18-.32.74-.26-1.16-25.55-1.4-28.35-.25-2.8-5.16-64.99-5.4-68.31-.25-3.32-2.45-38.06-2.45-38.06s-25.88.06-28.09.26c-2.27.13-22.58 1.04-22.58 1.04z"/>
  <path fill="#da573b" d="m147.66 98.24c.03 6.46.51 12.68.64 15.42 0 0-26.17 2.6-36.92 1.3 0 0-13.75-.6-14.47-.6 0 0 .18-11.33.16-17.77.1-9.84.3-18.19.55-25.23.27-7.04-.63-20.75 8.45-25.44 5.68-2.93 7.32-2.75 15.22-3.14 6.47-.26 15.64.73 19.36 4.18 4.76 4.37 5.33 13.77 6 22.79.43 10.17.76 20.02 1.01 28.5z"/>
  <path fill="#153f7b" d="m96.91 115.9.23-25.39s4.96-.81 6.52-1.14c1.56-.32 1.82-43.6 1.82-43.6s2.28-.97 3.54-1.41c.32-.1 1.95 25.16 2.14 27.36 0 0 19.9-.45 20.81-.58 0 0 .47-21.53.6-22.9.14-1.35.44-4.58.44-4.58s3.08.5 3.86.96c.78.45 1.15 32.65 1.8 43.48 0 0-.38.16 2.07.3 1.64.02 6.82.4 6.82.4l.78 26.17-51.42.92z"/>
  <path fill="#f9c4aa" d="m133.49 18.07a10.67 10.67 0 0 0 -5.79-4.76c-2.3-.82-7.96-.6-10.23.31-5.43 2.07-7.56 7.11-7.84 12.68-.47.12-.88.3-1.01.71a3.3 3.3 0 0 0 -.26 2.18c.18.63.59 1.03 1.4 1.57a15.5 15.5 0 0 0 2.38 7.13l.27.42c2.11 3.24 4.94 5.12 8.31 5.12h2.66c3.36 0 6.54-1.87 8.65-5.08l.84-1.28c1.26-1.91 2.24-4.43 2.56-8.26.53-6.2-.68-8.43-1.94-10.74z"/>
  <path fill="#7f433b" d="m134.34 19.74c.3 8.27-15.4 11.58-23.31 14.02-2.9.9-2.65 9.18-18.42 14.6-12.25 2.62-11.73-9.6-11.73-9.6 2.36-13.92 20.47-2.82 27.14-9.68.02-2.5 1.38-7.67 2.48-10.01 1.9-4.07 6.1-6.38 12.15-6.8 5.14-.36 9.8 2.42 11.7 7.47z"/>
  <path fill="#da573b" d="m108.02 27.04 42.6-11.92s-.8-1.3-1.9-1.3-15.3 3.26-15.3 3.26-4.66-8.17-16.39-3.89c-10.94 4-9.02 13.85-9.02 13.85z"/>
  <path fill="#f9cc76" d="m281.81 216.52c-4.01 10.39-16.42 14.3-19.57 15.09-3.16.75-6.06-.09-7.88 4.3-1.83 4.37-1.69 11.9-2.82 11.9-.35.4-1.2.14-1.9-.64-.72-.78-.66-9.55-.66-9.55-.24-3.92-2.25-5.29-3.64-5.78l-.94-.23c-.23-.03-.37-.03-.37-.03l.05-.03c-5.84-1.27-14.9-1.9-18.14-4.04-4.41-2.94-7.12-5.92-8.3-11.91-.48-5.92-.7-8.87 1.61-12.5 2.3-3.62 2.6-3.34 4.98-5.73 2.31-2.3 10.2-6.76 19.38-8.11 9.17-1.36 19.68-1.16 22.17-.67 3.93.46 12.04 4.3 14.04 6.97 2 2.66 6.02 10.59 2 20.97v-.01z"/>
  <path fill="#054449" d="m298.06 87.37c-1.91-2.72-4.37-4.4-7.83-4.21-.8.05-1.57.25-2.34.47-2.24.64-4.56 1.19-6.7 2.1-3.84 1.72-5.8 5.3-7.84 8.68-1.44 2.36-2.05 5.04-2.4 7.78-.47 3.88-1.04 7.73-1.55 11.6-.25 1.91-.41 3.82-.67 5.7-.47 3.78-1.04 7.54-1.49 11.33-.3 2.61-.44 5.29-.68 7.92-.03.25-.06.48-.11.7a22.8 22.8 0 0 1 -5.12 9.14 25.92 25.92 0 0 0 -6.08 10.68l-.02-.07-.38 1.57-.04.18a294.3 294.3 0 0 0 -3.27 15.82c-.02-.75-.05-1.5-.12-2.27-.56-6.69-.25-13.46-.14-20.2.06-2.5 1.3-4.57 3.37-6.12a45.5 45.5 0 0 0 4.23-3.43 3.33 3.33 0 0 0 1.04-3.63c-.58-2.19-2.1-3.2-3.96-4.04-.64-.28-1.43-.67-1.77-1.24a4.24 4.24 0 0 1 .25-5.1 36.1 36.1 0 0 1 5.46-5.05c2.19-1.72 4.36-3.52 4.75-6.38.75-5.5-1.85-11.3-6.77-14.3-2.28-1.37-4-3.26-4.68-5.8-.3-1.17-.36-2.92.28-3.72a22.78 22.78 0 0 1 5.26-4.46c2.68-1.69 5.65-2.99 7.08-5.98a71.72 71.72 0 0 0 3.4-8.18 21.62 21.62 0 0 0 1.14-6.1 23.7 23.7 0 0 0 -.56-6.09c-.7-3.18-3.46-7.1-7.88-6.9-3.51.14-6.64 1.3-9.62 2.92-4.06 2.21-7.43 5.23-8.92 9.8-.53 1.66-.83 3.4-1.13 5.15-.53 3-1.16 6-1.41 9.05-.45 5.62.14 11.18.93 16.73.62 4.3.9 8.67 1.33 13.04.05.42.2.81.22 1.24.25 2.67.59 5.37.69 8.06.05 1.47-.28 2.97-.5 4.44-.15.92-.45 1.85-.68 2.77l-.47.06c-.2-1.05-.45-2.08-.59-3.13-.53-3.9-1.13-7.8-1.57-11.7-.5-4.25-.8-8.52-1.27-12.78a44.5 44.5 0 0 0 -.61-3.85c-.69-3.27-1.36-6.52-2.08-9.78-.59-2.58-1.13-5.17-1.94-7.67-1.07-3.26-2.38-6.46-3.62-9.66-1.8-4.66-3.46-9.39-5.46-13.96-2.27-5.2-4.75-10.3-7.34-15.37a75.75 75.75 0 0 0 -5.09-8.4c-1.46-2.16-2.98-4.4-4.95-6.03-3.27-2.68-7.19-4.34-11.48-3.96-2.27.2-4.59 1.07-6.75 1.96a22.76 22.76 0 0 0 -8.71 6.68c-2.44 2.84-3.8 5.6-4.13 9.5-.13 1.59-.1 2.5.02 3.74.14 1.46.44 2.94 1.01 4.3.7 1.74 1.38 3.67 2.68 4.9 2.13 2.02 4.67 3.63 7.17 5.2 1.54.98 3.37 1.47 5.03 2.25 4.22 1.96 5.48 5.9 3.15 9.89-1.02 1.74-2.16 3.45-3.15 5.23-1.44 2.57-2.56 5.28-1.35 8.28.8 1.91 1.55 3.93 4.01 4.3 1.02.13 2.03.36 3.04.33 4.65-.14 9.26-.45 13.88-.53 4.5-.09 7.48 4.88 6.33 9-.67 2.32-2.3 3.98-3.88 5.67-1.77 1.88-2.93 4.02-2.62 6.65.14 1.4.61 2.77 1.07 4.13a5.5 5.5 0 0 0 3.85 3.68c.73.22 1.58.14 2.36.08 2-.14 3.98-.61 5.97-.47 2.67.2 3.94 1.02 4.58 3.15.69 2.25 1.16 4.55-1.24 6.32a36.44 36.44 0 0 0 -3.97 3.49c-2.25 2.24-3.13 5.2-2.25 8.08 1.22 4.02 4.34 6.71 8.19 8.15 2.48.92 5.25 1.09 7.88 1.69 2.59.58 4.92 1.74 6.27 4.18 1.8 3.29 2.24 6.93 2.56 10.56.28 3.12.42 6.26.56 9.4-2.34-6.74-7.11-12.75-10.04-16.01a30.27 30.27 0 0 0 -2.24-2.38l-.22-.2a30.72 30.72 0 0 0 -8.47-5.51 22.81 22.81 0 0 1 -12.24-12.61c-.96-2.33-1.77-4.77-2.7-7.14a7.88 7.88 0 0 0 -5.94-4.9c-3.16-.68-5.43.77-7.2 3.37-1.69 2.44-2.36 6.34-.25 9.13 1.4 1.86 3.46 2.75 5.45 3.71 1.69.8 3.49 1.72 3.9 3.68.56 2.61.2 5.1-1.85 7.11a27.52 27.52 0 0 0 -3.23 3.77c-.84 1.19-.56 2.36.42 3.4a9.12 9.12 0 0 0 6.63 2.72c3.68.06 7.11-1.46 10.67-2.38 1.74-.45 3.54-.73 5.34-.78 1.66-.06 2.7 1.07 2.65 2.55 0 .72-.14 1.5-.37 2.19-.53 1.82-.36 2.55 1.38 3.15a7.4 7.4 0 0 0 3.66.22c2.38-.5 4.28-.41 6.24 1.44 3.21 3.07 4.53 6.97 5.6 10.96.7 2.66.51 5.57.68 8.34.01.28-.03.5-.11.68a113 113 0 0 1 10.29-.72c-.07-.14-.12-.3-.14-.52-.17-1.68-.53-3.34-.48-5 .09-3.04.2-6.13.69-9.14.5-3.18 2.48-5.5 5.3-7.06a28.27 28.27 0 0 0 3.33-2.02c.9-.64.98-1.69.7-2.66-.26-.92-1.03-1.21-1.95-1.32-1.71-.2-2.4-1.27-1.88-2.88 1.08-3.48 3.85-5.12 7.03-6.06 2.02-.59 3.96-1.13 5.5-2.72 1.83-1.91 2.06-2.64.79-4.86-1.05-1.85-.73-3.12 1.21-3.93 1.4-.59 2.95-.84 4.33-1.46 1.25-.56 2.6-1.19 3.46-2.17 1.36-1.52 1-4.1-.44-5.92-1.83-2.33-1.66-4.4.61-5.65 1.77-.98 3.65-1.75 5.5-2.58 1.72-.78 3.52-1.6 3.94-3.63.53-2.6-.2-4.74-2.57-6.4a16.62 16.62 0 0 1 -3.7-3.98c-1.08-1.5-.56-3.88.96-4.86 1.96-1.3 3.97-2.6 6.13-3.54 2.43-1.05 4.11-2.7 4.73-5.06.67-2.5.64-5.15-1-7.48l.04-.05z"/>
  </svg>