<svg xmlns="http://www.w3.org/2000/svg" fill="none" viewBox="0 0 142 256"><g clip-path="url(#a)"><path fill="#B4CEA0" d="M.56 192.06c1.5-11.31 4.46-20.9 10.16-29.26 5.69-8.36 17.58-27.54 21.04-36.4 3.46-8.84 10.9-44.74 12.13-52.85 1.23-8.12 3.7-22.38 10.4-24.1 6.68-1.72 16.09-6.64 23.51-.5 7.43 6.16 13.62 10.34 20.3 26.8 6.69 16.48 13.12 39.35 15.85 45.74 2.72 6.4 6.43 20.16 14.36 31.72 7.93 11.56 11.64 19.18 12.63 25.57.99 6.4 2.48 17.7-5.45 36.14-7.93 18.45-21.04 31.97-40.6 37.87-19.55 5.9-43.57 2.21-49.51.25-5.94-1.97-28.47-12.79-31.7-16.72-3.2-3.94-16.58-17.95-13.1-44.26H.55Z"/><path fill="#054449" d="M42.54 58.9C29.64 89.04 4.83 99.99 4.83 99.99S-4.84 64.35 6.7 36.93C21.06 12.7 44.05 14.22 44.05 14.22s11.4 14.57-1.5 44.69Z"/><path fill="#054449" d="M39.31 7.5c.4.2 6.63 5.26 8.57 6.88a26.84 26.84 0 0 1 7.82 10.84c2.34 5.88 2.25 13.36 1.52 16.52-.76 3.32-1.18 5.8-1.77 7.42 3.49-1.01 7.6-2.63 11.73-3.07a31.4 31.4 0 0 0-1.85-6.68c-1.22-3.34-4.5-14.9-5.4-17.22C59 19.86 47.57 0 46.11 0c-1.55 0-2.42.2-2.83.5-.4.31-4.7 4.16-4.8 4.56-.1.4.4 2.23.82 2.43Z"/></g><defs><clipPath id="a"><path fill="#fff" d="M0 0h141.74v256H0z"/></clipPath></defs></svg>