<svg xmlns="http://www.w3.org/2000/svg" width="147" height="256" viewBox="0 0 147 256">
  <path fill="#9ECCED" d="M70.5 0c4.92 9.05 8.61 15.92 12.32 22.77 13.05 25.46 26.83 50.42 39.14 76.13 10.6 21.79 19.45 44.56 22.9 68.8a112.05 112.05 0 0 1-.74 38.42c-3.45 17.87-13.8 30.6-29.29 39.16-25.35 14.21-50.96 14.46-76.31-.24-9.6-5.38-18.96-11.26-25.6-20.32C5.05 214.2.85 202.45.12 188.98c-1-22.28 4.66-43.33 10.59-64.63 3.69-13.22 9.83-25.47 15.75-37.94 12.07-24.97 24.86-49.68 37.18-74.66C65.6 8.56 67.57 5.4 70.52 0h-.01Z"/>
</svg>