<svg xmlns="http://www.w3.org/2000/svg" width="170" height="248" viewBox="0 0 170 248">
  <path fill="#1e1a28" d="m23.76 241.34s-1.63 4.34-1.81 5.31c-.19.84-.6 1.13 2.4 1.16 0 0 17.72.28 18.93 0 .8-.18 1.8-1.29 1.26-6.22zm35.78.27s-.28 4.18.33 5.1c.62.9 1 1.5 6.44 1.2 0 0 15.35.27 15.84-.12.49-.4-2.31-6.47-2.31-6.47l-20.3.3z"/>
  <path fill="#da573b" d="m22.02 108.87c-.12 8.22-1.21 51.1-1.33 55.73-.19 4.63-.31 44.05-.31 48.42s-.12 28.38.43 29.16 23.45 1.37 24.62.52c1.16-.84 0-39.6.18-44.24.12-4.63.86-27.54.12-46.2-.73-18.66.6-22.11 1.04-22.11.43 0 .8-.92 2.52 16.7s5.22 49.66 5.96 57.42c.74 7.83 2.76 38.18 3.56 38.5.8.33 22.48-.06 23.21-.32.74-.26-1.17-25.59-1.41-28.4-.24-2.8-5.16-65.05-5.4-68.38-.25-3.33-2.46-38.11-2.46-38.11s-25.9.06-28.12.26c-2.27.13-22.61 1.05-22.61 1.05z"/>
  <path fill="#68b096" d="m72.55 98.14c.03 6.46.51 12.69.64 15.42 0 0-26.2 2.62-36.96 1.32 0 0-13.77-.61-14.49-.61 0 0 .17-11.35.16-17.8.1-9.84.3-18.2.55-25.25.26-7.05-.63-20.77 8.46-25.47 5.69-2.95 7.33-2.75 15.24-3.15 6.47-.26 15.65.73 19.38 4.2 4.77 4.36 5.34 13.77 6 22.8.44 10.18.77 20.05 1.02 28.54z"/>
  <path fill="#c58f79" d="m116.37 85.57 1.7 8.66s-.59.41 3.17 1.09c3.76.67 8.19-.91 11.78-3.1 3.6-2.2 3.22-3.63 2.14-4.17-1.73-.87-4-1.29-6.06-1.31-4.7-.06-1.46-1.7-.35-2.29 1.05-.56 2.3-1.74-.76-2.45s-9.3 2.27-11.61 3.57z"/>
  <path fill="#68b096" d="m54.67 58.32c.76 1.8 2.28 4.1 8.43 10.44 4.79 4.95 4.74 7.29 13.05 15.04 4.56 4.25 7.31 7.12 13.46 8.97 5.06 1.54 16.49 4 29.07 4.38-.2-2.21-1.44-13.66-1.44-13.66-9.54-.72-21.76-4.12-24.52-5.1-1.6-.57-4.88-3.42-6.37-4.99-5.84-7.1-6.16-8.4-10.42-14.64-2.67-3.9-5.53-8.54-8.7-10.82-2.28-1.72-3.29-2.35-4.84-3-1.56-.64-5.57-1.14-8.16 3.35-2.26 3.91-.33 8.21.44 10.03z"/>
  <path fill="#c58f79" d="m61.5 27.08c-.09-.44-.48-.68-.93-.87.19-3.57-.56-5.83-2.14-8.12-1.33-1.92-3.2-3.83-5.8-4.76-2.3-.83-7.96-.6-10.24.3-5.43 2.07-7.57 7.13-7.85 12.7-.47.13-.88.3-1.01.72a3.3 3.3 0 0 0 -.26 2.17c.18.64.59 1.03 1.4 1.57.22 2.6 1.04 5.08 2.38 7.14l.28.43c2.11 3.24 4.93 5.12 8.32 5.12h2.66c3.36 0 6.55-1.87 8.66-5.08l.84-1.28a15.4 15.4 0 0 0 2.36-6.65c.69-.35 1.07-.67 1.3-1.2.3-.74.23-1.43.03-2.19z"/>
  <path fill="#1e1a28" d="m60.49 23.45c-.54-4.72-3.13-8.73-8.22-10.38-2.6-.85-5.78-1.26-8.51-.58-.28.07-.48.04-1 .15-4.67 1-9.6 7.26-8.53 12.96.05.28.11.55.18.8.5 0 1.07.13 1.52-.14a18.2 18.2 0 0 0 6.82-8.26c1.68 6.29 12.1 9 16.86 8.57.4-.04.76-.22 1.13-.35-.01-.85-.16-1.92-.25-2.77z"/>
  <path fill="#9ecced" d="m144.81 123.47 4.07 7.5c4.31 8.4 8.86 16.61 12.93 25.08 3.5 7.18 6.43 14.68 7.56 22.66.66 4.2.57 8.47-.24 12.66-1.14 5.88-4.56 10.08-9.67 12.9-8.38 4.68-16.84 4.76-25.22-.08-3.17-1.77-6.26-3.71-8.46-6.7a20.97 20.97 0 0 1 -4.23-11.77c-.32-7.34 1.55-14.27 3.5-21.29 1.22-4.35 3.25-8.39 5.2-12.5 4-8.22 8.22-16.36 12.3-24.59.64-1.05 1.3-2.09 2.27-3.87z"/>
  <path fill="#054449" d="m153.34 122.03c-1.23-6.26-4.52-20.49-10.36-26.74-5.85-6.25-19.7-7.26-23.3-7.49-3.61-.23-7.61.18-9.08-3.68-1.47-3.85-2.37-11.3-2.58-13-.34-2.73 3.21-2.27 3.47-3.13.19-.67-.06-10.04-2.06-9.85-5.15.47-11.24 1.75-11.34 1.04-.09-.7-1.92-11.73-1.7-12.71.23-.99 1.49-2.26 4.3-2.69 5.71-.87 12.72-.58 15.55-1.42 3.15-.93 5.05-2.4 4.49-6.61-.6-4.51-4.73-5.93-9.67-4.55-4.95 1.37-6.9 2.87-10.77 3.28-3.28.34-4.66-.92-6.29-1.5-1.4-.5-5.79-1.2-9.85 2.07-2.86 2.3-6.02 2.5-6.75 2.55-.62.05-3.65.4-7.11-.08-4.85-.68-11.93.02-10.98 7.1.94 7.07 7.48 5.53 10.98 4.04a28.61 28.61 0 0 1 10-2.37c2.74-.09 4.82.18 5.15 1.6.4 1.7 2.13 12.43 1.64 12.9-.49.45-10.44 1.39-11.39 2.53-.94 1.14.72 8.6 1.27 8.81.7.27 3.75-.65 3.86 1.32.05.86 1.75 13 1.08 14.42a7 7 0 0 1 -5.72 3.67c-3.1.26-3.76.66-4.25-.06-.5-.72-.12-1.47-3.18-.83s-40.18 7-41.56 8.45c-1.38 1.44 2.83 24.82 3.48 25.53.65.7 11.02.1 18.06-.77 7.04-.86 23.47-3.33 25.67-3.8 3.65-.8 1.85-3.55 6.32-3.91 2.87-.24 12.3.87 19.16-.2 6.85-1.07 14.02-3.92 17.09-5.66s7.16-1.11 8.34-.49c1.19.63 3.75.92 5.33 6.29 1.58 5.36 2.44 11.22 3.35 11.57.91.34 6.81.97 13.5-1.33 6.69-2.31 6.14-2.92 5.87-4.3z"/>
  <path fill="#c58f79" d="m25.66 113.31c2.16.72 7.67 2.98 9.04 5.36s1.4 3.1 1 7.77c-.08 1.06-.82 2.46-4.28 1.44s-7.04-2.93-8.85-5.74c-1.8-2.8-1.2-2.66-1.2-2.66l4.3-6.17z"/>
  <path fill="#68b096" d="m41.63 50.66c-.66-4.3-2.87-7.2-5.93-6.93-8.2 1.97-18.14 8.95-26.35 20.48-3 4.19-9.35 14.41-9.35 20.69.22 16.09 18.42 34.03 20.56 36.65l9.43-8.06c-.6-.36-5.17-5.61-8.54-10.03-4.68-8.74-7.7-14.64-7.7-18.57 2.92-11.1 9.2-16.07 20.86-23 0 0 4.04-2.24 5.73-4.91a8.01 8.01 0 0 0 1.3-6.33z"/>
</svg>