<svg xmlns="http://www.w3.org/2000/svg" viewBox="0 0 240 245">
  <path fill="#CDE5F2" d="M101.4 100.27c-2.04-3.46-3.7-6.35-5.43-9.18-10.7-17.45-21.22-35.11-32.42-52.27-4.83-7.45-11.22-13.86-16.86-20.8-.8-.92-1.21-2.13-1.82-3.27 1.15-.42 2.35-.97 3.51-1.19a150.99 150.99 0 0 1 47.13.82c10.96 1.93 20.7 5.85 29.5 12.93a118.51 118.51 0 0 1 31.98 39.5c1.38 2.71 3.27 5.13 4.79 7.78 3.26 5.8 6.58 11.52 9.58 17.4 1.15 2.21 2.24 3.64 4.83 3.18 6.35-1 12.65-1.75 18.98-3.02 8.72-1.71 16.23-.38 22.02 6.87 1.16 1.49 2.38 1.99 4.52 1.63 2.71-.47 5.64.03 8.46.07l.28 1.17a900.38 900.38 0 0 1-7.68 6.7c2.82 1.75 5.3 3.33 7.71 4.86-.1.47-.13.86-.22 1.33-2.14.36-4.26.92-6.36.94-3.93.04-6.15 1.92-8.26 5.17a68.23 68.23 0 0 1-31.13 25.89c-7.11 3.04-14.13 6.4-20.63 10.57-4.38 2.83-7.85 7.17-11.34 11.18-12.56 14.16-26.78 26.28-41.7 37.87a206.3 206.3 0 0 1-47.97 27.7 132.59 132.59 0 0 1-36.19 9.45c-2.99.36-6.02.13-8.97.16-.15-.32-.37-.63-.53-.95 1.3-2 2.44-4.19 3.93-6.08 14.25-17.77 28.85-35.24 42.61-53.38 9.06-11.92 17-24.81 25.35-37.28.42-.62.62-1.36 1.17-2.71-1.74.4-2.9.55-4.05.96-8.84 3.57-17.6 7.39-26.51 10.82-10.45 4.02-21.05 7.65-31.51 11.53-2.1.76-3.96 2.21-5.99 3.16-1.01.47-2.35.9-3.3.57-.6-.21-.99-1.83-.93-2.75.34-18.88.8-37.71 1.2-56.6.03-.53.05-1.12 0-1.64-.08-2.89 1.08-4.03 4.21-4.2 9.53-.53 19.07-1.78 28.66-2.38 14.88-.87 29.79-1.41 44.68-2.08 1.37-.1 2.67-.27 4.7-.43Z"/>
</svg>