<svg xmlns="http://www.w3.org/2000/svg" fill="none" viewBox="0 0 240 141"><path fill="#F9C4AA" d="M226.27 14.54c1.14 1.99 1.94 4.21 3.46 5.7 1.02 1 3.06 1.3 4.66 1.3 3.23.04 5.13-1.87 5.52-5 .53-4.19-1.25-6.34-6.79-8.13.95-2.5 3.4-2.3 5.38-2.96-2.22-2.35-6.77-2.44-8.72.28a18.08 18.08 0 0 1-6.56 5.88c-1.05.54-1.8 1.65-2.4 2.21-4.87-2.64-9.47-5.55-14.4-7.73C196.9 1.9 186.67.86 176.4.4c-15.48-.7-30.95-.53-46.4.84-16.75 1.47-33.33 3.82-49.28 9.51-6.58 2.35-12.33 6.13-18.05 10-8 5.43-15.97 10.88-23.97 16.28-1.26.84-3.11 2.9-5.22 5.53a28.7 28.7 0 0 0-27.7-9.5 28.74 28.74 0 0 0 15.55 26.53 531.08 531.08 0 0 0-2.92 4.42 50.11 50.11 0 0 0-3.2 5.92c-2.14 4.52-5.14 6.18-9.8 5.28v.05S-.78 74.18.07 77.93c.47 1.72.94 3.44 1.52 5.12l-.09.03a14.48 14.48 0 0 0 .97 2.1c1.3 2.45 3.98 6.4 8.34 8.18.3.17.6.3.9.37l.6.13.52.13.44.07c5.36 1.18 10.78 2.27 16.23 2.72 9.25.76 18.53 1.02 27.8 1.4v.02l.58.01 2.29.1c.31 0 .63-.02.96-.07l1.8.02 2.65 25.8L62.33 141h15.92l3.54-39.74c.8-.81 1.6-1.74 2.34-2.73l6.6.1 1.08 8.77-4.34 33.6h14.83l4.31-11.57 1.1-30.55 8.77.15c15.02.8 41.8 2 61.32 1.43l3.02 8.77-5.42 30.14-.01.07 1.13 1.56h16.32l1.87-30.63-.2-9.97 3.69 1.13 2.65 7.7-5.42 30.14-.01.07 1.13 1.56h16.32l.51-8.43c.77-3.94 9.55-38.26 9.44-42.92-.02-.76.66-1.7 1.28-2.3 5.46-5.33 10-11.28 12.7-18.52 3.02-8.17 2.18-16.47.61-24.72-1.84-9.67-5.9-18.32-12.63-25.64-1.44-1.56-.73-3.03 1.47-3.95l.02.02Zm4.93-2.43c1.93.3 3.97.41 4.67 2.46.25.74-.36 2.25-1.04 2.7-.69.46-2.29.42-2.9-.1-1.53-1.3-1.34-3.15-.73-5.06Z"/></svg>