<svg fill="none" viewBox="0 0 240 198" xmlns="http://www.w3.org/2000/svg"><path d="m239.89 189.56c-.78-12.45-3.46-40.85-13.16-54.46-9.7-13.62-36.25-19.15-43.18-20.53-6.92-1.39-14.78-1.62-16.62-9.47-1.85-7.85-1.66-22.52-1.63-25.86.05-5.37 6.8-3.55 7.52-5.17.55-1.23 2.47-19.45-1.45-19.6-10.09-.42-22.2.48-22.2-.9 0-1.39-.7-23.23 0-25.07.69-1.85 3.45-4 9-4.09 11.29-.2 24.78 2.16 30.48 1.26 6.33-1 10.4-3.32 10.4-11.65 0-8.88-7.63-12.69-17.55-11.3-9.93 1.38-14.08 3.78-21.7 3.56-6.44-.18-8.78-2.97-11.79-4.51-2.58-1.33-10.89-3.84-19.6 1.45-6.12 3.7-12.3 3.3-13.72 3.2-1.22-.07-7.18-.16-13.76-2-9.22-2.57-23.1-3.03-23.1 10.91 0 13.95 13.07 12.65 20.23 10.67s14.17-2.59 19.96-2c5.35.53 9.3 1.6 9.57 4.43.34 3.4.91 24.63-.16 25.4-1.07.76-20.58 0-22.7 1.96-2.13 1.96-.83 16.84.18 17.4 1.26.7 7.42-.3 7.13 3.54-.14 1.68.03 25.63-1.64 28.21-1.68 2.59-5.94 5.94-12.02 5.64s-7.46.3-8.22-1.22c-.77-1.52.16-2.89-5.94-2.44s-79.6 3.2-82.64 5.63c-3.05 2.44-.93 48.82.14 50.35s21.3 3.04 35.16 3.19c13.86.14 46.31-.39 50.68-.75 7.27-.6 4.5-6.39 13.25-5.94 5.62.3 23.59 4.87 37.14 4.56 13.55-.3 28.15-3.95 34.55-6.53 6.4-2.59 14.16-.3 16.28 1.2 2.13 1.53 7.01 2.75 8.69 13.55 1.67 10.8 1.82 22.36 3.5 23.27 1.67.91 12.94 3.66 26.47.91 13.55-2.74 12.65-4.06 12.49-6.82z" fill="#054449"/></svg>