<svg fill="none" viewBox="0 0 139 248" xmlns="http://www.w3.org/2000/svg"><path d="m106.07 96.7c2.5-.76 9.16-2.3 11.96-.94 2.78 1.37 1.33 2.25.19 2.57-1.2.33-4.68 1.22-.15 2.32 1.97.47 4.06 1.38 5.54 2.62.92.76.96 2.25-2.97 3.6-3.94 1.36-8.55 1.93-12.02.44-3.47-1.48-2.8-1.76-2.8-1.76z" fill="#c58f79"/><path d="m81.45 80.43c-5.16-8.38-5.91-10.18-8.78-17.2-1.8-4.38-4.74-9.37-7.53-12.05-4.12-3.95-6.02-5.82-10.76-6.86-2.7-.6-6.52 1.4-7.32 5.57-.8 4.16 3.22 8.37 4.45 9.44s3.82 2.8 8.5 10.3c3.65 5.84 3.3 6.44 8.85 18.66 2.73 5.54 5.02 7.9 9.75 10.51 5.06 2.8 12.4 5.68 27.9 9.26a799.1 799.1 0 0 0 1.06-12.93c-18.27-5.35-23.91-11.1-26.12-14.7z" fill="#054449"/><path d="m9.84 131.4c1.04 2.1 3.4 7.75 2.73 10.46-.67 2.7-1.14 3.24-4.64 6.28-.78.68-2.27 1.15-4.03-2.12-1.75-3.27-2.97-7.26-2.32-10.59s.98-2.78.98-2.78l7.28-1.24z" fill="#c58f79"/><path d="m36.27 49.42c-.06-1.95-1.35-7.44-6.53-5.84-5.33 1.64-11.09 3.73-16.59 11.65-5.29 7.6-9.82 17.8-11.14 37.28-1.47 21.66-1.98 41.55-2.01 41.87l12.78-.27c.02-.32.05-16.11 2.5-44.6.7-8.02 3-16.74 5.86-20.91 1.86-2.72 4.42-6.06 6.13-7.59 0 0 2.96-2.06 5.2-3.67 3.63-2.62 3.88-5.4 3.8-7.91z" fill="#054449"/><path d="m17.86 241.33s-1.63 4.35-1.81 5.32c-.19.84-.6 1.13 2.4 1.16 0 0 17.74.28 18.95 0 .8-.18 1.8-1.3 1.26-6.23zm35.82.27s-.29 4.2.33 5.1c.62.92.99 1.5 6.44 1.2 0 0 15.36.28 15.85-.11.49-.4-2.31-6.47-2.31-6.47l-20.31.29z" fill="#1e1a28"/><path d="m16.12 108.74c-.12 8.23-1.21 51.15-1.33 55.78-.19 4.64-.31 44.09-.31 48.47 0 4.37-.13 28.4.42 29.19.56.78 23.48 1.37 24.65.52s0-39.64.18-44.28c.12-4.64.86-27.57.12-46.25-.73-18.68.6-22.13 1.04-22.13.43 0 .8-.92 2.53 16.71 1.72 17.64 5.22 49.71 5.96 57.48.74 7.84 2.76 38.21 3.57 38.54.8.32 22.49-.07 23.22-.33.74-.26-1.16-25.6-1.4-28.41-.25-2.81-5.17-65.12-5.41-68.46-.25-3.32-2.46-38.14-2.46-38.14s-25.94.06-28.15.26c-2.27.13-22.63 1.05-22.63 1.05z" fill="#da573b"/><path d="m66.66 98c.03 6.46.51 12.7.64 15.44 0 0-26.22 2.62-37 1.32 0 0-13.78-.62-14.5-.62 0 0 .18-11.35.16-17.8.1-9.86.3-18.23.56-25.28.26-7.06-.64-20.8 8.46-25.5 5.7-2.94 7.34-2.75 15.26-3.14 6.47-.27 15.66.72 19.4 4.19 4.77 4.37 5.34 13.79 6 22.83.44 10.19.77 20.07 1.02 28.56z" fill="#054449"/><path d="m28.6 58.87a3.1 3.1 0 0 0 -3.01 2.39c.62 0 1.23.16 1.77.47.3-1.43 2.34-1.34 2.5.13a3.46 3.46 0 0 1 1.8-.34 3.1 3.1 0 0 0 -3.06-2.65zm3.1 3.09v-.02a3.05 3.05 0 0 0 -3.38 3.1 3.1 3.1 0 0 0 3.37-3.08zm-3.79 3c0-.57.14-1.13.41-1.63a3.05 3.05 0 0 0 -2.8-1.66 3.1 3.1 0 0 0 2.4 3.3z" fill="#e2f1df"/><path d="m55.6 27.1c-.09-.44-.48-.67-.93-.87.18-3.56-.56-5.83-2.14-8.12-1.34-1.92-3.2-3.84-5.8-4.77-2.32-.82-7.98-.6-10.25.31-5.45 2.07-7.59 7.13-7.87 12.71-.46.12-.87.3-1 .71a3.3 3.3 0 0 0 -.26 2.18c.18.63.58 1.03 1.4 1.57.21 2.6 1.03 5.09 2.38 7.15l.28.42c2.11 3.24 4.94 5.13 8.32 5.13h2.67c3.36 0 6.55-1.87 8.67-5.08l.84-1.29a15.4 15.4 0 0 0 2.36-6.65c.69-.35 1.07-.67 1.3-1.2.3-.74.23-1.44.03-2.2z" fill="#f9c4aa"/><path d="m57.07 28.31a59.18 59.18 0 0 0 -2.44-7.38 13.18 13.18 0 0 0 -6.18-6.93c-1.6-.9-3.09-1.66-4.87-1.87-.68-.1-1.36-.16-2.07-.16-3.91 0-8.24 2.2-10.33 5.27a26.13 26.13 0 0 0 -2.45 4.04c-1.02 2-2.16 4.97-2.8 7.11l-1.54 5.56c.58 1.3 3.43 2.21 5.5 1.63-.62-1.48-1-3.09-1.14-4.74-.81-.54-1.21-.94-1.4-1.57a3.3 3.3 0 0 1 .26-2.17c.13-.42.55-.6 1.01-.71v-.03a12.97 12.97 0 0 0 13.78-7.53c2.01 4.8 6.65 8.24 11.8 7.44.15-.03.3-.04.46-.05v.04c.46.2.85.43.93.87.2.75.26 1.45-.03 2.2-.23.52-.61.84-1.3 1.19-.2 1.75-.69 3.44-1.42 4.96 2.04.4 3.82.85 5.5-.88l-1.27-6.28z" fill="#1e1a28"/><path d="m114.03 18.33 4.03 7.45c4.28 8.34 8.8 16.51 12.82 24.93 3.47 7.14 6.37 14.6 7.5 22.53a36.7 36.7 0 0 1 -.24 12.59c-1.13 5.85-4.52 10.02-9.6 12.82-8.3 4.66-16.68 4.73-24.99-.08-3.14-1.76-6.2-3.69-8.38-6.65a20.9 20.9 0 0 1 -4.2-11.7c-.32-7.3 1.53-14.2 3.47-21.17 1.21-4.33 3.23-8.34 5.17-12.42 3.95-8.18 8.14-16.28 12.17-24.46.65-1.04 1.29-2.08 2.26-3.84z" fill="#9ecced"/></svg>