<svg xmlns="http://www.w3.org/2000/svg" viewBox="0 0 139 256">
  <path fill="#F9C4AA" d="M67.87 138.08C22.9 139.94-3.17 102.24.3 61.1 2.83 31.21 29.61-4.2 77.39.41c34.37 3.32 61.22 34.6 60.7 71.56-.6 42.74-32.65 66.98-70.22 66.11Z"/>
  <path fill="#FAF6F3" d="M41.9 83.21h.01Zm10.8-61.75a6.2 6.2 0 1 0 .02-12.39 6.2 6.2 0 0 0-.01 12.39Zm-17.32 9.32a6.2 6.2 0 1 0 .01-12.39 6.2 6.2 0 0 0 0 12.39Zm-14.66 15.5a6.2 6.2 0 1 0 0-12.38 6.2 6.2 0 0 0 0 12.38Zm16.84-1.79a6.2 6.2 0 1 0 12.38 0 6.2 6.2 0 0 0-12.38 0Zm28.65 19.27a6.2 6.2 0 1 0 0-12.39 6.2 6.2 0 0 0 0 12.39Zm18.14-4.66a6.2 6.2 0 1 0 0 12.39 6.2 6.2 0 0 0 0-12.39Zm14.23-1.03a6.2 6.2 0 1 0 12.38 0 6.2 6.2 0 0 0-12.38 0Zm18.98-1.5a6.2 6.2 0 1 0 12.38 0 6.2 6.2 0 0 0-12.38 0Zm-97.92 12.4a6.2 6.2 0 1 0 .01-12.38 6.2 6.2 0 0 0 0 12.39Zm.61 11.8a6.2 6.2 0 1 0-12.38-.02 6.2 6.2 0 0 0 12.38.01Zm13.37 9.45a6.2 6.2 0 1 0 0-12.39 6.2 6.2 0 0 0 0 12.39Zm23.76 9.4A6.2 6.2 0 1 0 45 99.6a6.2 6.2 0 0 0 12.38 0Zm-34.4-5.35a6.2 6.2 0 1 0 0 12.38 6.2 6.2 0 0 0 0-12.38Zm12.2 15.59a6.2 6.2 0 1 0-.01 12.38 6.2 6.2 0 0 0 0-12.38Zm44.03-2.6a6.2 6.2 0 1 0-12.39 0 6.2 6.2 0 0 0 12.39 0ZM55.58 117.8a6.2 6.2 0 1 0 0 12.39 6.2 6.2 0 0 0 0-12.39Zm23.24 1.42a6.2 6.2 0 1 0 0 12.39 6.2 6.2 0 0 0 0-12.39Zm20.13-7.09a6.2 6.2 0 1 0 0 12.38 6.2 6.2 0 0 0 0-12.38Zm3.64-15.06a6.2 6.2 0 1 0-12.38 0 6.2 6.2 0 0 0 12.38 0Zm11.66.33a6.2 6.2 0 1 0 0 12.38 6.2 6.2 0 0 0 0-12.38ZM45.2 58.96a6.2 6.2 0 1 0 0 12.39 6.2 6.2 0 0 0 0-12.39Zm17.17 13.56a6.2 6.2 0 1 0 0 12.39 6.2 6.2 0 0 0 0-12.39Zm18.77 7.58a6.2 6.2 0 1 0 0 12.38 6.2 6.2 0 0 0 0-12.38Zm30.45-2.35a6.2 6.2 0 1 0-12.38-.01 6.2 6.2 0 0 0 12.38 0Zm12.46-1.66a6.2 6.2 0 1 0 0 12.39 6.2 6.2 0 0 0 0-12.39ZM76.46 18.93a6.2 6.2 0 1 0 0-12.38 6.2 6.2 0 0 0 0 12.38Zm-9.41 19.5a6.2 6.2 0 1 0 0-12.38 6.2 6.2 0 0 0 0 12.39ZM97.56 27.2a6.2 6.2 0 1 0 .01-12.38 6.2 6.2 0 0 0 0 12.38Zm16.76 15.03a6.2 6.2 0 1 0 0-12.38 6.2 6.2 0 0 0 0 12.38ZM89.3 48.76a6.2 6.2 0 1 0 .01-12.38 6.2 6.2 0 0 0 0 12.38Z"/>
  <path fill="#054449" d="M111.24 242.29A78.56 78.56 0 0 1 69.04 256a78.57 78.57 0 0 1-42.19-13.71c-16.1-11-26.76-27.32-23.72-44.06 23.57.3 46.2 8.6 57.2 28.03 1.47 2.61 2.69 5.4 4.46 8.98v-31.59c-35.1-5.8-60.37-30.36-56.67-56.71 26-.88 47.78 8.92 57.26 35.13v-32.84h.01c0-.17-.05-.7.19-.72l3.47-.08 3.48.08c.23.02.18.55.18.73l.01-.01v32.84c9.48-26.21 31.27-36 57.26-35.13 3.7 26.35-21.56 50.9-56.67 56.71v31.59c1.77-3.58 2.99-6.37 4.47-8.98 11-19.43 33.63-27.73 57.2-28.03 3.04 16.75-7.63 33.07-23.73 44.06Z"/>
</svg>