<svg viewBox="0 0 152 256" xmlns="http://www.w3.org/2000/svg">
  <path fill="#054449" d="m81.68 127.06v33.53c10.92-30.2 33.08-41.49 63.03-40.48 4.26 30.36-21.9 58.65-62.35 65.35v38.12c2.04-4.13 3.44-7.34 5.15-10.35 12.67-22.4 35.8-31.95 62.95-32.3 3.5 19.3-8.79 46.58-27.34 59.25-32.72 22.34-77.7 21.66-102.72-6.13-13.05-14.52-19.18-31.7-19.6-51.15 22.43-5.8 49.53 8.44 68.23 46.02v-41.73c-17.13-1.54-33.14-5.88-45-19.22-11.7-13.18-15.58-29.47-16.59-46.68 19.9-4.28 51.07 11.49 61.98 46.93v-41.15c0-.1-.04-.8.24-.93.29-.12 11.53.08 11.8.1s.21.63.21.83z"/>
  <path fill="#f8de9c" d="m146.85 45.05c-4.91 20.95-19.2 35.6-34.2 49.4-6.27 5.75-13.48 10.65-20.73 15.13-9.46 5.84-19.9 6.61-29.75 1.53-24.7-12.76-45.47-30.01-57.6-56.14a56.9 56.9 0 0 1 -4.31-14.17c-1.47-8.48 3.39-12.09 13.52-11.53 16.09.9 29.61 15.82 41.14 30.07.31-10.64.14-23.42 2.05-33.74 1.45-7.78 4.85-14.25 9.64-20.77 4.05-5.06 9.1-7.63 15.49-.14 5.5 6.2 7.5 12.17 8.44 18.65 1.7 11.49 1.68 23.22 2.38 34.7 10.2-12.29 21.94-24.46 39.27-28.26 4.82-1.06 11.64-.86 14.03 1.79 2.39 2.64 1.82 8.42.63 13.48z"/>
</svg>