<svg fill="none" viewBox="0 0 161 256" xmlns="http://www.w3.org/2000/svg"><path d="m80.61 256c-4.2.2-16.08-14.8-20.95-23.09-4.88-8.28-7.56-18.83-3.76-22.23s9.99.7 11.9-2.54c1.56-2.65-3.67-10-13.1-10.78-9.44-.78-11.81 2.46-22.62-4.27-9.6-5.99-11.57-13.1-9.6-21.5 1.13-4.85 4.6-10.67 11.27-12.27 3.74-.9 9.66.85 9.8-1.9.3-7.17-6.6-11.13-12.8-12.23s-14.34-2.04-23.3-13.64c-8.95-11.6-8.61-21.74-5.33-27.72 3.28-5.99 7.84-8.76 15.64-9.16 11.01-.59 14.17-5.54 13.78-9.8-.26-2.89-2.16-5.53-10.13-7-5.2-.95-10.53-8.78-11.78-14.1-1.25-5.3-1.18-14.73 7.11-19.82 7.35-4.5 15.25-.3 20.42.62 4.1.74 11.64.84 9.75-4.71-1.9-5.55-5.72-21.47.02-28.56 5.74-7.1 11.13-11.98 20.5-11.22 5.15.42 12.2 5.94 15.96 13.13 3.75 7.2 1.81 18.16 4.78 17.4 6.95-1.76 6.41-8.25 13.7-12.58 16.13-9.58 23.64 1.65 25.03 4.36 1.96 3.82.2 12.35-4.82 16.6-2.41 2.05-6.86 5.97-4.47 12.69 1.33 3.77 16.62-5.75 25.04-3.05 6.49 2.1 12.6 6.94 13.18 22.5.39 10.38-3.37 14.39-9.18 18.66-7.2 5.3-16.41 7.11-16.94 15.92-.3 5.18 19.55 1.1 25.39 3.16 7.59 2.69 5.98 16.03 3.14 24.3-2.83 8.29-9.64 13.44-20.57 18.05-10.01 4.2-25.14-.15-22.73 10.07.85 3.58 18.92 4 21.5 13.43 2.57 9.42-2.25 18.07-11.61 23.62-9.37 5.55-16.22 2.25-20.35 6.07-5.77 5.33 7.26 4.94 9.9 11.36 1.62 3.95-5.65 14.6-10.48 20.49-7.22 8.78-15.22 19.32-23.26 19.72z" fill="#b4cea0"/></svg>