<svg xmlns="http://www.w3.org/2000/svg" fill="none" viewBox="0 0 143 256"><path fill="#B4CEA0" d="M73.84 50.5v15.23c7.61-3.8 15.25-8.95 23.7-11.56 16.78-5.18 30.15 3.16 33 19.85 2.19 12.86-10.1 27.29-25.64 24.53-14.8-1.93-21.16-11.24-20.55-28.27-9.15 4.96-12.74 20.9-10.32 47.02 7.05-3.81 12.17-9.04 20.16-11.63 12.46-4.05 24.9-3.76 34.23 7.8 6.74 8.37 8.68 23.91.15 33.32-7.76 8.55-23.35 10.46-33.53 3.7-6.44-4.26-13.26-15.23-9.98-27.58.15-.54.72-2.3 1.4-3.53-4.2 1.07-8.64 8.1-9.39 14.22-2.03 16.6-1.7 31.37-2.05 48.37 7.18-7.49 14.61-13.83 24.22-17.03 13.8-4.6 26.63-4.26 37.05 7.63 7.42 8.47 7.94 20.99 1.87 31.9-3.84 6.89-15.74 13.1-27.12 11.2-15.7-2.61-22.33-18.9-18.59-34.92-10.18 8.2-14.15 18.63-14.59 30.4-.45 12.12-.19 24.27-.09 36.4.05 5.06-.5 8.45-7.26 8.45-6.14 0-6.49-3.76-6.47-8.25.04-11.1.3-22.22-.12-33.32-.31-8.64-1.14-17.37-5.96-23.93-1.45 7.18-1.77 12.6-4.9 17.8-5.34 8.9-14.7 11.14-24.78 9.88-10-1.25-15.15-8-17.66-16.74-3.54-12.3 1.86-24.9 12.58-30.19 10.34-5.1 25.8-5.59 35.6 6.95 1.6 2.04 3.02 4.23 5.23 7.35 0-17.55-.48-32.08-1.18-48.56-.42-9.78-11.5-20.8-21.12-23.17 3.18 3.93 5 7.63 6.38 12.02 2.23 10.31-1.41 17.93-8.66 24.2-7.4 6.37-16.45 7.68-24.91 4.07-14.09-6.04-18.02-20.5-11.44-34.56 5.3-11.35 18.61-16.71 32.43-15.33 13.49 2.3 15.54 2.32 27.55 10.78 2.31-16.8 1.11-40.09-8.06-48.27.55 3.14.52 5.02.37 8.61-.99 9.78-5.31 14.23-15.78 17.13C27.9 95.7 16.3 91.5 12.03 82c-4.27-9.54-3.26-23.18 6.34-30.03 9.92-7.06 27.44-5.6 37.84 3.5l8.1 7.14V50.56C47.23 44.19 43 31.46 45.31 19.99 48.11 6.29 60.21-1.44 74.92.22c11.7 1.34 20.74 11.66 21.06 24.04.35 13.46-8.3 23.89-22.14 26.22v.02Z"/></svg>