<svg viewBox="0 0 193 256" xmlns="http://www.w3.org/2000/svg">
  <path fill="#054449" d="m44.68 37.26c-.9-5.55-1.1-11.14.05-16.62 1.79-8.5 7.28-16.59 15.43-19.6 2.58-.94 5.44-1.38 8.1-.73 3.79.93 6.77 3.92 9.03 7.1 10.66 15.14 8.68 35.6 5.12 53.77s-8.15 37.47-1.53 54.76c.42 1.11.9 2.21 1.8 2.97 1.93 1.65 5.1.9 6.88-.9 1.78-1.81 2.5-4.4 3.16-6.86 4-15.26 6.92-30.87 12.26-45.73s13.42-29.19 25.8-38.95c5.13-4.04 11.1-7.28 17.6-7.91 6.49-.63 13.48 1.73 17.25 7.05 4.91 6.93 3.18 16.54-.15 24.35-13.42 31.42-46.6 48.82-69.65 74.02-6.85 7.48-13.05 16.19-14.55 26.23-.78 5.12 1.25 11.97 6.42 12.02 2.9.02 5.27-2.26 7.2-4.44 17.25-19.48 29.47-43.7 50-59.64 5.65-4.37 12.02-8.1 19.1-9.21 7.07-1.1 14.87.9 19.48 6.35 4.12 4.9 5.1 11.9 3.6 18.1-1.51 6.2-5.28 11.64-9.72 16.23-22.4 23.12-60.6 25.43-82.06 49.42-3.74 4.17-6.9 9.06-8.03 14.56s.08 11.67 4.04 15.64c6.62 6.6 18.26 4.72 25.6-1.06 7.36-5.77 11.8-14.38 17.21-21.98a94.89 94.89 0 0 1 20.88-21.3c7.63-5.64 17.66-10.26 26.39-6.5 7.12 3.09 11.08 11.17 11.2 18.93.13 7.75-3 15.18-6.79 21.96a111.73 111.73 0 0 1 -60.04 50.55 111.86 111.86 0 0 1 -78.46-1.98c-4.76-1.96-9.63-4.42-12.49-8.71-2.86-4.3-2.88-10.85 1.2-13.98 6.85-5.25 16.89 2.9 25.14.37 1.18-.35 2.38-1.03 2.93-2.13 1.3-2.63-1.63-5.35-4.26-6.6-7.1-3.36-14.97-4.67-22.7-6.03-7.72-1.35-15.6-2.88-22.52-6.57-6.93-3.69-12.92-9.99-14.32-17.72s2.85-16.67 10.43-18.78c7.22-2 14.72 2.34 20.09 7.59 5.37 5.24 9.78 11.64 16.28 15.43 6.5 3.8 16.17 3.74 20.16-2.6 1.53-2.42 1.98-5.38 1.83-8.24-.47-8.94-6.42-16.74-13.52-22.16-7.1-5.43-15.37-9.04-23.07-13.56-9.38-5.55-18.13-12.77-23.2-22.41-7.68-14.56-3.3-46.43 19.55-42.31 9.76 1.76 15.35 12.2 17.61 21.86 2.26 9.67 2.86 20.18 8.7 28.21 3.29 4.55 9.84 7.96 14.38 4.7 3.58-2.59 3.8-7.8 3.3-12.23-2.98-26.55-18.73-49.87-25.98-75.6a85.54 85.54 0 0 1 -2.06-9.1z"/>
</svg>