<svg xmlns="http://www.w3.org/2000/svg" width="152" height="152" viewBox="0 0 152 152"><path fill="currentcolor" d="M112.1 79.8a5.7 5.7 0 1 1 0-11.4 5.7 5.7 0 0 1 0 11.4Zm36.1-3.96c-26.25 29.61-70.87 35.51-102.97 13.03a91.78 91.78 0 0 1-4.84-3.66l6.42-4.63c25.89 20.62 66.77 18.85 90.3-4.66-22.42-21.89-59.69-24.86-85.69-7.88h.02C47.27 70.53 3.8 102.6 3.8 102.6V49.4l30.77 21.53c5.18-3.67 9.07-6.82 14.1-10.01h-.01A76.8 76.8 0 0 1 89.23 49.4c18.72 0 37.5 6.73 52.28 20.23l6.7 6.21Zm-120.1-.16L11.4 64v24s8.05-5.97 16.7-12.32Z"/></svg>